M48
; DRILL file {KiCad 9.0.7} date 2026-02-21T19:43:56+0100
; FORMAT={-:-/ absolute / metric / decimal}
; #@! TF.CreationDate,2026-02-21T19:43:56+01:00
; #@! TF.GenerationSoftware,Kicad,Pcbnew,9.0.7
; #@! TF.FileFunction,Plated,1,2,PTH
FMAT,2
METRIC
; #@! TA.AperFunction,Plated,PTH,ComponentDrill
T1C0.750
; #@! TA.AperFunction,Plated,PTH,ComponentDrill
T2C0.800
; #@! TA.AperFunction,Plated,PTH,ComponentDrill
T3C1.000
; #@! TA.AperFunction,Plated,PTH,ComponentDrill
T4C1.100
%
G90
G05
T1
X73.73Y-60.06
X73.73Y-68.16
X75.0Y-60.06
X75.0Y-68.16
X76.27Y-60.06
X76.27Y-68.16
T2
X56.5Y-47.5
X58.5Y-47.5
X61.49Y-60.5
X62.8Y-63.5
X67.8Y-63.5
X69.11Y-60.5
X80.89Y-60.5
X82.2Y-63.5
X87.2Y-63.5
X88.51Y-60.5
X91.455Y-47.5
X93.455Y-47.5
T3
X52.75Y-50.0
X52.75Y-52.54
X52.75Y-55.08
X52.75Y-57.62
X52.75Y-60.16
X52.75Y-62.7
X52.75Y-65.24
X52.75Y-67.78
X52.75Y-102.0
X52.75Y-104.54
X52.75Y-107.08
X52.75Y-109.62
X52.75Y-112.16
X52.75Y-114.7
X52.75Y-117.24
X52.75Y-119.78
X53.3Y-157.5
X57.447Y-167.02
X57.447Y-169.56
X57.447Y-172.1
X57.447Y-174.64
X57.447Y-177.18
X59.987Y-167.02
X59.987Y-169.56
X59.987Y-172.1
X59.987Y-174.64
X59.987Y-177.18
X64.0Y-84.0
X64.0Y-86.54
X64.0Y-89.08
X64.0Y-100.0
X64.0Y-102.54
X64.0Y-105.08
X64.0Y-107.62
X64.0Y-110.16
X64.0Y-112.7
X64.0Y-130.0
X64.0Y-132.54
X64.0Y-135.08
X66.11Y-46.26
X66.11Y-48.8
X66.54Y-84.0
X66.54Y-86.54
X66.54Y-89.08
X66.54Y-100.0
X66.54Y-102.54
X66.54Y-105.08
X66.54Y-107.62
X66.54Y-110.16
X66.54Y-112.7
X66.54Y-130.0
X66.54Y-132.54
X66.54Y-135.08
X68.65Y-46.26
X68.65Y-48.8
X71.19Y-46.26
X71.19Y-48.8
X73.73Y-46.26
X73.73Y-48.8
X76.27Y-46.26
X76.27Y-48.8
X78.81Y-46.26
X78.81Y-48.8
X81.35Y-46.26
X81.35Y-48.8
X83.0Y-84.0
X83.0Y-86.54
X83.0Y-89.08
X83.0Y-100.0
X83.0Y-102.54
X83.0Y-105.08
X83.0Y-107.62
X83.0Y-110.16
X83.0Y-112.7
X83.0Y-130.0
X83.0Y-132.54
X83.0Y-135.08
X83.89Y-46.26
X83.89Y-48.8
X85.54Y-84.0
X85.54Y-86.54
X85.54Y-89.08
X85.54Y-100.0
X85.54Y-102.54
X85.54Y-105.08
X85.54Y-107.62
X85.54Y-110.16
X85.54Y-112.7
X85.54Y-130.0
X85.54Y-132.54
X85.54Y-135.08
X97.2Y-76.0
X97.2Y-78.54
X97.2Y-81.08
X97.2Y-83.62
X97.2Y-86.16
X97.2Y-88.7
X97.2Y-91.24
X97.2Y-93.78
X97.2Y-128.0
X97.2Y-130.54
X97.2Y-133.08
X97.2Y-135.62
X97.2Y-138.16
X97.2Y-140.7
X97.2Y-143.24
X97.2Y-145.78
T4
X61.82Y-55.5
X71.98Y-55.5
X78.02Y-55.5
X88.18Y-55.5
T3
X54.434Y-187.123G85X53.373Y-188.184
G05
X54.434Y-203.623G85X53.373Y-204.684
G05
X60.25Y-185.75G85X61.75Y-185.75
G05
X60.25Y-202.25G85X61.75Y-202.25
G05
X65.0Y-191.0G85X65.0Y-192.5
G05
X65.0Y-207.5G85X65.0Y-209.0
G05
X70.934Y-154.123G85X69.873Y-155.184
G05
X70.934Y-170.623G85X69.873Y-171.684
G05
X70.934Y-187.123G85X69.873Y-188.184
G05
X70.934Y-203.623G85X69.873Y-204.684
G05
X76.75Y-152.75G85X78.25Y-152.75
G05
X76.75Y-169.25G85X78.25Y-169.25
G05
X76.75Y-185.75G85X78.25Y-185.75
G05
X76.75Y-202.25G85X78.25Y-202.25
G05
X81.5Y-158.0G85X81.5Y-159.5
G05
X81.5Y-174.5G85X81.5Y-176.0
G05
X81.5Y-191.0G85X81.5Y-192.5
G05
X81.5Y-207.5G85X81.5Y-209.0
G05
X85.0Y-157.5G85X85.0Y-156.0
G05
X85.0Y-174.0G85X85.0Y-172.5
G05
X85.0Y-190.5G85X85.0Y-189.0
G05
X85.0Y-207.0G85X85.0Y-205.5
G05
X86.373Y-163.316G85X87.434Y-164.377
G05
X86.373Y-179.816G85X87.434Y-180.877
G05
X86.373Y-196.316G85X87.434Y-197.377
G05
X86.373Y-212.816G85X87.434Y-213.877
G05
X90.25Y-152.75G85X91.75Y-152.75
G05
X90.25Y-169.25G85X91.75Y-169.25
G05
X90.25Y-185.75G85X91.75Y-185.75
G05
X90.25Y-202.25G85X91.75Y-202.25
G05
M30
