%TF.GenerationSoftware,KiCad,Pcbnew,9.0.7*%
%TF.CreationDate,2026-02-21T19:43:51+01:00*%
%TF.ProjectId,DMH_Slew_PCB_1_v3,444d485f-536c-4657-975f-5043425f315f,1*%
%TF.SameCoordinates,Original*%
%TF.FileFunction,Copper,L2,Bot*%
%TF.FilePolarity,Positive*%
%FSLAX46Y46*%
G04 Gerber Fmt 4.6, Leading zero omitted, Abs format (unit mm)*
G04 Created by KiCad (PCBNEW 9.0.7) date 2026-02-21 19:43:51*
%MOMM*%
%LPD*%
G01*
G04 APERTURE LIST*
G04 Aperture macros list*
%AMRoundRect*
0 Rectangle with rounded corners*
0 $1 Rounding radius*
0 $2 $3 $4 $5 $6 $7 $8 $9 X,Y pos of 4 corners*
0 Add a 4 corners polygon primitive as box body*
4,1,4,$2,$3,$4,$5,$6,$7,$8,$9,$2,$3,0*
0 Add four circle primitives for the rounded corners*
1,1,$1+$1,$2,$3*
1,1,$1+$1,$4,$5*
1,1,$1+$1,$6,$7*
1,1,$1+$1,$8,$9*
0 Add four rect primitives between the rounded corners*
20,1,$1+$1,$2,$3,$4,$5,0*
20,1,$1+$1,$4,$5,$6,$7,0*
20,1,$1+$1,$6,$7,$8,$9,0*
20,1,$1+$1,$8,$9,$2,$3,0*%
%AMHorizOval*
0 Thick line with rounded ends*
0 $1 width*
0 $2 $3 position (X,Y) of the first rounded end (center of the circle)*
0 $4 $5 position (X,Y) of the second rounded end (center of the circle)*
0 Add line between two ends*
20,1,$1,$2,$3,$4,$5,0*
0 Add two circle primitives to create the rounded ends*
1,1,$1,$2,$3*
1,1,$1,$4,$5*%
G04 Aperture macros list end*
%TA.AperFunction,ComponentPad*%
%ADD10HorizOval,1.508000X-0.533159X0.533159X0.533159X-0.533159X0*%
%TD*%
%TA.AperFunction,ComponentPad*%
%ADD11O,3.016000X1.508000*%
%TD*%
%TA.AperFunction,ComponentPad*%
%ADD12O,1.508000X3.016000*%
%TD*%
%TA.AperFunction,ComponentPad*%
%ADD13HorizOval,1.508000X-0.533159X-0.533159X0.533159X0.533159X0*%
%TD*%
%TA.AperFunction,ComponentPad*%
%ADD14R,1.700000X1.700000*%
%TD*%
%TA.AperFunction,ComponentPad*%
%ADD15C,1.700000*%
%TD*%
%TA.AperFunction,ComponentPad*%
%ADD16RoundRect,0.249999X-0.850001X-0.850001X0.850001X-0.850001X0.850001X0.850001X-0.850001X0.850001X0*%
%TD*%
%TA.AperFunction,ComponentPad*%
%ADD17C,2.200000*%
%TD*%
%TA.AperFunction,ComponentPad*%
%ADD18RoundRect,0.250000X0.600000X-0.600000X0.600000X0.600000X-0.600000X0.600000X-0.600000X-0.600000X0*%
%TD*%
%TA.AperFunction,ComponentPad*%
%ADD19R,1.050000X1.500000*%
%TD*%
%TA.AperFunction,ComponentPad*%
%ADD20O,1.050000X1.500000*%
%TD*%
%TA.AperFunction,ComponentPad*%
%ADD21RoundRect,0.250000X-0.600000X-0.600000X0.600000X-0.600000X0.600000X0.600000X-0.600000X0.600000X0*%
%TD*%
%TA.AperFunction,ComponentPad*%
%ADD22C,1.600000*%
%TD*%
%TA.AperFunction,ComponentPad*%
%ADD23RoundRect,0.250000X0.550000X0.550000X-0.550000X0.550000X-0.550000X-0.550000X0.550000X-0.550000X0*%
%TD*%
%TA.AperFunction,Conductor*%
%ADD24C,1.000000*%
%TD*%
%TA.AperFunction,Conductor*%
%ADD25C,0.200000*%
%TD*%
G04 APERTURE END LIST*
D10*
%TO.P,J10,S*%
%TO.N,GND*%
X86903810Y-180346190D03*
D11*
%TO.P,J10,T*%
%TO.N,B_F_Gate_Jack_M*%
X91000000Y-169250000D03*
D12*
%TO.P,J10,TN*%
%TO.N,B_F_Gate_Jack_TN_M*%
X85000000Y-173250000D03*
%TD*%
D13*
%TO.P,J4,S*%
%TO.N,GND*%
X70403810Y-154653810D03*
D12*
%TO.P,J4,T*%
%TO.N,A_R_Gate_Jack_M*%
X81500000Y-158750000D03*
D11*
%TO.P,J4,TN*%
%TO.N,A_R_Gate_Jack_TN_M*%
X77500000Y-152750000D03*
%TD*%
D14*
%TO.P,J27,1,Pin_1*%
%TO.N,GND*%
X52750000Y-102000000D03*
D15*
%TO.P,J27,2,Pin_2*%
%TO.N,B_Diff_Amp_M*%
X52750000Y-104540000D03*
%TO.P,J27,3,Pin_3*%
%TO.N,B_Rise_CV_M*%
X52750000Y-107080000D03*
%TO.P,J27,4,Pin_4*%
%TO.N,B_Fall_CV_M*%
X52750000Y-109620000D03*
%TO.P,J27,5,Pin_5*%
%TO.N,+10V_B*%
X52750000Y-112160000D03*
%TO.P,J27,6,Pin_6*%
%TO.N,B_CV_Buff_M*%
X52750000Y-114700000D03*
%TO.P,J27,7,Pin_7*%
%TO.N,GND*%
X52750000Y-117240000D03*
%TO.P,J27,8,Pin_8*%
X52750000Y-119780000D03*
%TD*%
D13*
%TO.P,J6,S*%
%TO.N,GND*%
X53903810Y-204153810D03*
D12*
%TO.P,J6,T*%
%TO.N,B_Input_Jack_M*%
X65000000Y-208250000D03*
D11*
%TO.P,J6,TN*%
%TO.N,B_Loopback_M*%
X61000000Y-202250000D03*
%TD*%
D13*
%TO.P,J2,S*%
%TO.N,GND*%
X70403810Y-187653810D03*
D12*
%TO.P,J2,T*%
%TO.N,A_CV_In_Jack_M*%
X81500000Y-191750000D03*
D11*
%TO.P,J2,TN*%
%TO.N,+10V_A*%
X77500000Y-185750000D03*
%TD*%
D14*
%TO.P,J17,1,Pin_1*%
%TO.N,GND*%
X52750000Y-50000000D03*
D15*
%TO.P,J17,2,Pin_2*%
%TO.N,A_Diff_Amp_M*%
X52750000Y-52540000D03*
%TO.P,J17,3,Pin_3*%
%TO.N,A_Rise_CV_M*%
X52750000Y-55080000D03*
%TO.P,J17,4,Pin_4*%
%TO.N,A_Fall_CV_M*%
X52750000Y-57620000D03*
%TO.P,J17,5,Pin_5*%
%TO.N,+10V_A*%
X52750000Y-60160000D03*
%TO.P,J17,6,Pin_6*%
%TO.N,A_CV_Buff_M*%
X52750000Y-62700000D03*
%TO.P,J17,7,Pin_7*%
%TO.N,GND*%
X52750000Y-65240000D03*
%TO.P,J17,8,Pin_8*%
X52750000Y-67780000D03*
%TD*%
D10*
%TO.P,J3,S*%
%TO.N,GND*%
X86903810Y-196846190D03*
D11*
%TO.P,J3,T*%
%TO.N,A_Out_Jack_M*%
X91000000Y-185750000D03*
D12*
%TO.P,J3,TN*%
%TO.N,A_Out_Jack_TN_M*%
X85000000Y-189750000D03*
%TD*%
D14*
%TO.P,J28,1,Pin_1*%
%TO.N,B_LinLog_Sw_p5_M*%
X97200000Y-128000000D03*
D15*
%TO.P,J28,2,Pin_2*%
%TO.N,B_LinLog_Sw_p2_M*%
X97200000Y-130540000D03*
%TO.P,J28,3,Pin_3*%
%TO.N,B_R_LED_M*%
X97200000Y-133080000D03*
%TO.P,J28,4,Pin_4*%
%TO.N,B_F_LED_M*%
X97200000Y-135620000D03*
%TO.P,J28,5,Pin_5*%
%TO.N,B_Rng_Sw_p3_M*%
X97200000Y-138160000D03*
%TO.P,J28,6,Pin_6*%
%TO.N,B_Out_Jack_M*%
X97200000Y-140700000D03*
%TO.P,J28,7,Pin_7*%
%TO.N,B_Rng_Sw_p1_M*%
X97200000Y-143240000D03*
%TO.P,J28,8,Pin_8*%
%TO.N,GND*%
X97200000Y-145780000D03*
%TD*%
D13*
%TO.P,J7,S*%
%TO.N,GND*%
X70403810Y-204153810D03*
D12*
%TO.P,J7,T*%
%TO.N,B_CV_In_Jack_M*%
X81500000Y-208250000D03*
D11*
%TO.P,J7,TN*%
%TO.N,+10V_B*%
X77500000Y-202250000D03*
%TD*%
D13*
%TO.P,J1,S*%
%TO.N,GND*%
X53903810Y-187653810D03*
D12*
%TO.P,J1,T*%
%TO.N,A_Input_Jack_M*%
X65000000Y-191750000D03*
D11*
%TO.P,J1,TN*%
%TO.N,Bus_CV_M*%
X61000000Y-185750000D03*
%TD*%
D13*
%TO.P,J9,S*%
%TO.N,GND*%
X70403810Y-171153810D03*
D12*
%TO.P,J9,T*%
%TO.N,B_R_Gate_Jack_M*%
X81500000Y-175250000D03*
D11*
%TO.P,J9,TN*%
%TO.N,B_R_Gate_Jack_TN_M*%
X77500000Y-169250000D03*
%TD*%
D10*
%TO.P,J5,S*%
%TO.N,GND*%
X86903810Y-163846190D03*
D11*
%TO.P,J5,T*%
%TO.N,A_F_Gate_Jack_M*%
X91000000Y-152750000D03*
D12*
%TO.P,J5,TN*%
%TO.N,A_F_Gate_Jack_TN_M*%
X85000000Y-156750000D03*
%TD*%
D14*
%TO.P,J18,1,Pin_1*%
%TO.N,A_LinLog_Sw_p5_M*%
X97200000Y-76000000D03*
D15*
%TO.P,J18,2,Pin_2*%
%TO.N,A_LinLog_Sw_p2_M*%
X97200000Y-78540000D03*
%TO.P,J18,3,Pin_3*%
%TO.N,A_R_LED_M*%
X97200000Y-81080000D03*
%TO.P,J18,4,Pin_4*%
%TO.N,A_F_LED_M*%
X97200000Y-83620000D03*
%TO.P,J18,5,Pin_5*%
%TO.N,A_Rng_Sw_p3_M*%
X97200000Y-86160000D03*
%TO.P,J18,6,Pin_6*%
%TO.N,A_Out_Jack_M*%
X97200000Y-88700000D03*
%TO.P,J18,7,Pin_7*%
%TO.N,A_Rng_Sw_p1_M*%
X97200000Y-91240000D03*
%TO.P,J18,8,Pin_8*%
%TO.N,GND*%
X97200000Y-93780000D03*
%TD*%
D10*
%TO.P,J8,S*%
%TO.N,GND*%
X86903810Y-213346190D03*
D11*
%TO.P,J8,T*%
%TO.N,B_Out_Jack_M*%
X91000000Y-202250000D03*
D12*
%TO.P,J8,TN*%
%TO.N,B_Out_Jack_TN_M*%
X85000000Y-206250000D03*
%TD*%
D16*
%TO.P,D3,1,K*%
%TO.N,Net-(D3-K)*%
X78020000Y-55500000D03*
D17*
%TO.P,D3,2,A*%
%TO.N,-12V*%
X88180000Y-55500000D03*
%TD*%
D14*
%TO.P,J26,1,Pin_1*%
%TO.N,B_F_Gate_Jack_M*%
X83000000Y-130000000D03*
D15*
%TO.P,J26,2,Pin_2*%
%TO.N,B_R_Gate_Jack_M*%
X85540000Y-130000000D03*
%TO.P,J26,3,Pin_3*%
%TO.N,B_Loopback_M*%
X83000000Y-132540000D03*
%TO.P,J26,4,Pin_4*%
%TO.N,B_Input_Jack_M*%
X85540000Y-132540000D03*
%TO.P,J26,5,Pin_5*%
%TO.N,B_CV_In_Jack_M*%
X83000000Y-135080000D03*
%TO.P,J26,6,Pin_6*%
%TO.N,B_Out_Jack_M*%
X85540000Y-135080000D03*
%TD*%
D18*
%TO.P,J100,1a,Pin_1a*%
%TO.N,Net-(D3-K)*%
X83890000Y-48800000D03*
D15*
%TO.P,J100,1b,Pin_1b*%
X83890000Y-46260000D03*
%TO.P,J100,2a,Pin_2a*%
%TO.N,GND*%
X81350000Y-48800000D03*
%TO.P,J100,2b,Pin_2b*%
X81350000Y-46260000D03*
%TO.P,J100,3a,Pin_3a*%
X78810000Y-48800000D03*
%TO.P,J100,3b,Pin_3b*%
X78810000Y-46260000D03*
%TO.P,J100,4a,Pin_4a*%
X76270000Y-48800000D03*
%TO.P,J100,4b,Pin_4b*%
X76270000Y-46260000D03*
%TO.P,J100,5a,Pin_5a*%
%TO.N,Net-(D4-A)*%
X73730000Y-48800000D03*
%TO.P,J100,5b,Pin_5b*%
X73730000Y-46260000D03*
%TO.P,J100,6a,Pin_6a*%
%TO.N,unconnected-(J100-Pin_6a-Pad6a)*%
X71190000Y-48800000D03*
%TO.P,J100,6b,Pin_6b*%
%TO.N,unconnected-(J100-Pin_6b-Pad6b)*%
X71190000Y-46260000D03*
%TO.P,J100,7a,Pin_7a*%
%TO.N,Bus_CV_M*%
X68650000Y-48800000D03*
%TO.P,J100,7b,Pin_7b*%
X68650000Y-46260000D03*
%TO.P,J100,8a,Pin_8a*%
%TO.N,unconnected-(J100-Pin_8a-Pad8a)*%
X66110000Y-48800000D03*
%TO.P,J100,8b,Pin_8b*%
%TO.N,unconnected-(J100-Pin_8b-Pad8b)*%
X66110000Y-46260000D03*
%TD*%
D19*
%TO.P,U10,1*%
%TO.N,N/C*%
X76270000Y-60060000D03*
D20*
%TO.P,U10,2,K*%
%TO.N,+10V_A*%
X75000000Y-60060000D03*
%TO.P,U10,3,A*%
%TO.N,GND*%
X73730000Y-60060000D03*
%TD*%
D14*
%TO.P,J14,1,Pin_1*%
%TO.N,+12V*%
X64000000Y-84000000D03*
D15*
%TO.P,J14,2,Pin_2*%
%TO.N,+10V_A*%
X66540000Y-84000000D03*
%TO.P,J14,3,Pin_3*%
%TO.N,-12V*%
X64000000Y-86540000D03*
%TO.P,J14,4,Pin_4*%
X66540000Y-86540000D03*
%TO.P,J14,5,Pin_5*%
%TO.N,GND*%
X64000000Y-89080000D03*
%TO.P,J14,6,Pin_6*%
X66540000Y-89080000D03*
%TD*%
D21*
%TO.P,J200,1,Pin_1*%
%TO.N,A_Out_Jack_TN_M*%
X57447500Y-177180000D03*
D15*
%TO.P,J200,2,Pin_2*%
%TO.N,A_R_Gate_Jack_TN_M*%
X57447500Y-174640000D03*
%TO.P,J200,3,Pin_3*%
%TO.N,A_F_Gate_Jack_TN_M*%
X57447500Y-172100000D03*
%TO.P,J200,4,Pin_4*%
%TO.N,GND*%
X57447500Y-169560000D03*
%TO.P,J200,5,Pin_5*%
X57447500Y-167020000D03*
%TO.P,J200,6,Pin_6*%
%TO.N,B_Out_Jack_TN_M*%
X59987500Y-177180000D03*
%TO.P,J200,7,Pin_7*%
%TO.N,B_R_Gate_Jack_TN_M*%
X59987500Y-174640000D03*
%TO.P,J200,8,Pin_8*%
%TO.N,B_F_Gate_Jack_TN_M*%
X59987500Y-172100000D03*
%TO.P,J200,9,Pin_9*%
%TO.N,GND*%
X59987500Y-169560000D03*
%TO.P,J200,10,Pin_10*%
X59987500Y-167020000D03*
%TD*%
D22*
%TO.P,C5,1*%
%TO.N,+10V_A*%
X67800000Y-63500000D03*
%TO.P,C5,2*%
%TO.N,GND*%
X62800000Y-63500000D03*
%TD*%
D14*
%TO.P,J15,1,Pin_1*%
%TO.N,A_Diff_Amp_M*%
X64000000Y-100000000D03*
D15*
%TO.P,J15,2,Pin_2*%
%TO.N,A_Rise_CV_M*%
X66540000Y-100000000D03*
%TO.P,J15,3,Pin_3*%
%TO.N,A_Fall_CV_M*%
X64000000Y-102540000D03*
%TO.P,J15,4,Pin_4*%
%TO.N,A_CV_Buff_M*%
X66540000Y-102540000D03*
%TO.P,J15,5,Pin_5*%
%TO.N,GND*%
X64000000Y-105080000D03*
%TO.P,J15,6,Pin_6*%
X66540000Y-105080000D03*
%TO.P,J15,7,Pin_7*%
%TO.N,A_LinLog_Sw_p5_M*%
X64000000Y-107620000D03*
%TO.P,J15,8,Pin_8*%
%TO.N,A_LinLog_Sw_p2_M*%
X66540000Y-107620000D03*
%TO.P,J15,9,Pin_9*%
%TO.N,A_R_LED_M*%
X64000000Y-110160000D03*
%TO.P,J15,10,Pin_10*%
%TO.N,A_F_LED_M*%
X66540000Y-110160000D03*
%TO.P,J15,11,Pin_11*%
%TO.N,A_Rng_Sw_p3_M*%
X64000000Y-112700000D03*
%TO.P,J15,12,Pin_12*%
%TO.N,A_Rng_Sw_p1_M*%
X66540000Y-112700000D03*
%TD*%
D23*
%TO.P,C2,1*%
%TO.N,GND*%
X93455113Y-47500000D03*
D22*
%TO.P,C2,2*%
%TO.N,-12V*%
X91455113Y-47500000D03*
%TD*%
D14*
%TO.P,J24,1,Pin_1*%
%TO.N,+12V*%
X83000000Y-84000000D03*
D15*
%TO.P,J24,2,Pin_2*%
%TO.N,+10V_B*%
X85540000Y-84000000D03*
%TO.P,J24,3,Pin_3*%
%TO.N,-12V*%
X83000000Y-86540000D03*
%TO.P,J24,4,Pin_4*%
X85540000Y-86540000D03*
%TO.P,J24,5,Pin_5*%
%TO.N,GND*%
X83000000Y-89080000D03*
%TO.P,J24,6,Pin_6*%
X85540000Y-89080000D03*
%TD*%
D22*
%TO.P,R45,1*%
%TO.N,+10V_B*%
X88510000Y-60500000D03*
%TO.P,R45,2*%
%TO.N,+12V*%
X80890000Y-60500000D03*
%TD*%
D19*
%TO.P,U11,1*%
%TO.N,N/C*%
X76270000Y-68160000D03*
D20*
%TO.P,U11,2,K*%
%TO.N,+10V_B*%
X75000000Y-68160000D03*
%TO.P,U11,3,A*%
%TO.N,GND*%
X73730000Y-68160000D03*
%TD*%
D14*
%TO.P,J16,1,Pin_1*%
%TO.N,A_F_Gate_Jack_M*%
X64000000Y-130000000D03*
D15*
%TO.P,J16,2,Pin_2*%
%TO.N,A_R_Gate_Jack_M*%
X66540000Y-130000000D03*
%TO.P,J16,3,Pin_3*%
%TO.N,GND*%
X64000000Y-132540000D03*
%TO.P,J16,4,Pin_4*%
%TO.N,A_Input_Jack_M*%
X66540000Y-132540000D03*
%TO.P,J16,5,Pin_5*%
%TO.N,A_CV_In_Jack_M*%
X64000000Y-135080000D03*
%TO.P,J16,6,Pin_6*%
%TO.N,A_Out_Jack_M*%
X66540000Y-135080000D03*
%TD*%
D22*
%TO.P,C16,1*%
%TO.N,+10V_B*%
X82200000Y-63500000D03*
%TO.P,C16,2*%
%TO.N,GND*%
X87200000Y-63500000D03*
%TD*%
D23*
%TO.P,C1,1*%
%TO.N,+12V*%
X58500000Y-47500000D03*
D22*
%TO.P,C1,2*%
%TO.N,GND*%
X56500000Y-47500000D03*
%TD*%
D14*
%TO.P,J25,1,Pin_1*%
%TO.N,B_Diff_Amp_M*%
X83000000Y-100000000D03*
D15*
%TO.P,J25,2,Pin_2*%
%TO.N,B_Rise_CV_M*%
X85540000Y-100000000D03*
%TO.P,J25,3,Pin_3*%
%TO.N,B_Fall_CV_M*%
X83000000Y-102540000D03*
%TO.P,J25,4,Pin_4*%
%TO.N,B_CV_Buff_M*%
X85540000Y-102540000D03*
%TO.P,J25,5,Pin_5*%
%TO.N,GND*%
X83000000Y-105080000D03*
%TO.P,J25,6,Pin_6*%
X85540000Y-105080000D03*
%TO.P,J25,7,Pin_7*%
%TO.N,B_LinLog_Sw_p5_M*%
X83000000Y-107620000D03*
%TO.P,J25,8,Pin_8*%
%TO.N,B_LinLog_Sw_p2_M*%
X85540000Y-107620000D03*
%TO.P,J25,9,Pin_9*%
%TO.N,B_R_LED_M*%
X83000000Y-110160000D03*
%TO.P,J25,10,Pin_10*%
%TO.N,B_F_LED_M*%
X85540000Y-110160000D03*
%TO.P,J25,11,Pin_11*%
%TO.N,B_Rng_Sw_p3_M*%
X83000000Y-112700000D03*
%TO.P,J25,12,Pin_12*%
%TO.N,B_Rng_Sw_p1_M*%
X85540000Y-112700000D03*
%TD*%
D22*
%TO.P,R49,1*%
%TO.N,+10V_A*%
X69110000Y-60500000D03*
%TO.P,R49,2*%
%TO.N,+12V*%
X61490000Y-60500000D03*
%TD*%
D14*
%TO.P,J0,1,Pin_1*%
%TO.N,GND*%
X53300000Y-157500000D03*
%TD*%
D16*
%TO.P,D4,1,K*%
%TO.N,+12V*%
X61820000Y-55500000D03*
D17*
%TO.P,D4,2,A*%
%TO.N,Net-(D4-A)*%
X71980000Y-55500000D03*
%TD*%
D24*
%TO.N,+12V*%
X79400000Y-80400000D02*
X83000000Y-84000000D01*
X61490000Y-60500000D02*
X64090000Y-57900000D01*
X64090000Y-57900000D02*
X64090000Y-57770000D01*
X64090000Y-57900000D02*
X78290000Y-57900000D01*
X78290000Y-57900000D02*
X80890000Y-60500000D01*
X64090000Y-57770000D02*
X61820000Y-55500000D01*
X58500000Y-52180000D02*
X61820000Y-55500000D01*
X80890000Y-60500000D02*
X79400000Y-61990000D01*
X79400000Y-61990000D02*
X79400000Y-80400000D01*
X58500000Y-47500000D02*
X58500000Y-52180000D01*
%TO.N,-12V*%
X91455113Y-47500000D02*
X91455113Y-52224887D01*
X88180000Y-55500000D02*
X91400000Y-58720000D01*
X85540000Y-86540000D02*
X83000000Y-86540000D01*
X91400000Y-80680000D02*
X85540000Y-86540000D01*
X91400000Y-58720000D02*
X91400000Y-80680000D01*
X91455113Y-52224887D02*
X88180000Y-55500000D01*
X64000000Y-86540000D02*
X66540000Y-86540000D01*
D25*
%TO.N,+10V_A*%
X75000000Y-59560000D02*
X75000000Y-60060000D01*
X74141000Y-58701000D02*
X75000000Y-59560000D01*
X69110000Y-60500000D02*
X70909000Y-58701000D01*
X67800000Y-61810000D02*
X67800000Y-63500000D01*
X67800000Y-82740000D02*
X66540000Y-84000000D01*
X69110000Y-60500000D02*
X67800000Y-61810000D01*
X67800000Y-63500000D02*
X67800000Y-82740000D01*
X70909000Y-58701000D02*
X74141000Y-58701000D01*
%TO.N,Bus_CV_M*%
X68650000Y-46260000D02*
X68650000Y-48800000D01*
%TO.N,A_Input_Jack_M*%
X65000000Y-191750000D02*
X65000000Y-138600000D01*
X65000000Y-138600000D02*
X62849000Y-136449000D01*
X63523240Y-133929000D02*
X62849000Y-134603240D01*
X62849000Y-134603240D02*
X62849000Y-136449000D01*
X66540000Y-132540000D02*
X65151000Y-133929000D01*
X65151000Y-133929000D02*
X63523240Y-133929000D01*
%TO.N,A_CV_In_Jack_M*%
X78250000Y-191750000D02*
X65401000Y-178901000D01*
X65401000Y-136481000D02*
X64000000Y-135080000D01*
X81500000Y-191750000D02*
X78250000Y-191750000D01*
X65401000Y-178901000D02*
X65401000Y-136481000D01*
%TO.N,A_Out_Jack_M*%
X68500000Y-133120000D02*
X66540000Y-135080000D01*
X96507100Y-92500000D02*
X90706100Y-98301000D01*
X86900000Y-99300000D02*
X86900000Y-103000000D01*
X75775500Y-106300000D02*
X70204000Y-111871500D01*
X87899000Y-98301000D02*
X86900000Y-99300000D01*
X70204000Y-111871500D02*
X70204000Y-114364400D01*
X98351000Y-89851000D02*
X98351000Y-92049000D01*
X70204000Y-114364400D02*
X68500000Y-116068400D01*
X84300000Y-104400000D02*
X84300000Y-105500000D01*
X84900000Y-103800000D02*
X84300000Y-104400000D01*
X69760000Y-138300000D02*
X66540000Y-135080000D01*
X86100000Y-103800000D02*
X84900000Y-103800000D01*
X79298000Y-177032200D02*
X79298000Y-173434900D01*
X80131600Y-138300000D02*
X69760000Y-138300000D01*
X90706100Y-98301000D02*
X87899000Y-98301000D01*
X91284600Y-166697000D02*
X93696000Y-164285600D01*
X97200000Y-88700000D02*
X98351000Y-89851000D01*
X93696000Y-164285600D02*
X93696000Y-151864400D01*
X93696000Y-151864400D02*
X80131600Y-138300000D01*
X98351000Y-92049000D02*
X97900000Y-92500000D01*
X97900000Y-92500000D02*
X96507100Y-92500000D01*
X91000000Y-185750000D02*
X88015800Y-185750000D01*
X83500000Y-106300000D02*
X75775500Y-106300000D01*
X84300000Y-105500000D02*
X83500000Y-106300000D01*
X79298000Y-173434900D02*
X86035900Y-166697000D01*
X68500000Y-116068400D02*
X68500000Y-133120000D01*
X86035900Y-166697000D02*
X91284600Y-166697000D01*
X86900000Y-103000000D02*
X86100000Y-103800000D01*
X88015800Y-185750000D02*
X79298000Y-177032200D01*
%TO.N,B_Input_Jack_M*%
X94498000Y-164617800D02*
X91616800Y-167499000D01*
X87800000Y-208300000D02*
X84600000Y-211500000D01*
X85900000Y-182500000D02*
X92700000Y-182500000D01*
X95500000Y-192500000D02*
X87800000Y-200200000D01*
X92700000Y-182500000D02*
X95500000Y-185300000D01*
X84600000Y-211500000D02*
X68250000Y-211500000D01*
X68250000Y-211500000D02*
X65000000Y-208250000D01*
X80100000Y-176700000D02*
X85900000Y-182500000D01*
X90797000Y-147831200D02*
X94498000Y-151532200D01*
X85540000Y-132540000D02*
X90797000Y-137797000D01*
X90797000Y-137797000D02*
X90797000Y-147831200D01*
X91616800Y-167499000D02*
X86368100Y-167499000D01*
X94498000Y-151532200D02*
X94498000Y-164617800D01*
X87800000Y-200200000D02*
X87800000Y-208300000D01*
X95500000Y-185300000D02*
X95500000Y-192500000D01*
X86368100Y-167499000D02*
X80100000Y-173767100D01*
X80100000Y-173767100D02*
X80100000Y-176700000D01*
%TO.N,B_CV_In_Jack_M*%
X90396000Y-142476000D02*
X90396000Y-147997300D01*
X95099000Y-192333900D02*
X87399000Y-200033900D01*
X95099000Y-185466100D02*
X95099000Y-192333900D01*
X79699000Y-173601000D02*
X79699000Y-176866100D01*
X87399000Y-200033900D02*
X87399000Y-208133900D01*
X85733900Y-182901000D02*
X92533900Y-182901000D01*
X85432900Y-210100000D02*
X83350000Y-210100000D01*
X83000000Y-135080000D02*
X90396000Y-142476000D01*
X91450700Y-167098000D02*
X86202000Y-167098000D01*
X94097000Y-164451700D02*
X91450700Y-167098000D01*
X92533900Y-182901000D02*
X95099000Y-185466100D01*
X86202000Y-167098000D02*
X79699000Y-173601000D01*
X79699000Y-176866100D02*
X85733900Y-182901000D01*
X94097000Y-151698300D02*
X94097000Y-164451700D01*
X83350000Y-210100000D02*
X81500000Y-208250000D01*
X87399000Y-208133900D02*
X85432900Y-210100000D01*
X90396000Y-147997300D02*
X94097000Y-151698300D01*
%TO.N,+10V_B*%
X64599000Y-138766100D02*
X64599000Y-188201000D01*
X51600000Y-115300000D02*
X52300000Y-116000000D01*
X90599000Y-62589000D02*
X88510000Y-60500000D01*
X85540000Y-84000000D02*
X90599000Y-78941000D01*
X51600000Y-113310000D02*
X51600000Y-115300000D01*
X63800000Y-192795995D02*
X73254005Y-202250000D01*
X60100000Y-134267100D02*
X64599000Y-138766100D01*
X52300000Y-116000000D02*
X57800000Y-116000000D01*
X65900000Y-103800000D02*
X67900000Y-103800000D01*
X64752900Y-106300000D02*
X65300000Y-105752900D01*
X62900000Y-106300000D02*
X64752900Y-106300000D01*
X65300000Y-105752900D02*
X65300000Y-104400000D01*
X51600000Y-111010000D02*
X51600000Y-103900000D01*
X79900000Y-85300000D02*
X84240000Y-85300000D01*
X52750000Y-112160000D02*
X51600000Y-113310000D01*
X73254005Y-202250000D02*
X77500000Y-202250000D01*
X70000000Y-101700000D02*
X70000000Y-95200000D01*
X67900000Y-103800000D02*
X70000000Y-101700000D01*
X60100000Y-118300000D02*
X60100000Y-134267100D01*
X57800000Y-116000000D02*
X60100000Y-118300000D01*
X90599000Y-78941000D02*
X90599000Y-62589000D01*
X70000000Y-95200000D02*
X79900000Y-85300000D01*
X84240000Y-85300000D02*
X85540000Y-84000000D01*
X52200000Y-103300000D02*
X59900000Y-103300000D01*
X59900000Y-103300000D02*
X62900000Y-106300000D01*
X65300000Y-104400000D02*
X65900000Y-103800000D01*
X52750000Y-112160000D02*
X51600000Y-111010000D01*
X51600000Y-103900000D02*
X52200000Y-103300000D01*
X63800000Y-189000000D02*
X63800000Y-192795995D01*
X64599000Y-188201000D02*
X63800000Y-189000000D01*
%TO.N,B_Out_Jack_M*%
X98399000Y-141899000D02*
X98399000Y-194851000D01*
X98399000Y-194851000D02*
X91000000Y-202250000D01*
X97200000Y-140700000D02*
X98399000Y-141899000D01*
%TO.N,B_Out_Jack_TN_M*%
X58401000Y-178766500D02*
X58401000Y-195201000D01*
X58401000Y-195201000D02*
X69450000Y-206250000D01*
X73350000Y-206250000D02*
X74900000Y-204700000D01*
X83500000Y-204700000D02*
X85000000Y-206200000D01*
X59987500Y-177180000D02*
X58401000Y-178766500D01*
X85000000Y-206200000D02*
X85000000Y-206250000D01*
X74900000Y-204700000D02*
X83500000Y-204700000D01*
X69450000Y-206250000D02*
X73350000Y-206250000D01*
%TO.N,B_R_Gate_Jack_M*%
X91198000Y-135658000D02*
X85540000Y-130000000D01*
X86534200Y-167900000D02*
X91782900Y-167900000D01*
X81500000Y-175250000D02*
X81500000Y-172934200D01*
X94899000Y-164783900D02*
X94899000Y-151366100D01*
X81500000Y-172934200D02*
X86534200Y-167900000D01*
X91782900Y-167900000D02*
X94899000Y-164783900D01*
X94899000Y-151366100D02*
X91198000Y-147665100D01*
X91198000Y-147665100D02*
X91198000Y-135658000D01*
%TO.N,B_F_Gate_Jack_M*%
X91599000Y-147499000D02*
X95300000Y-151200000D01*
X95300000Y-151200000D02*
X95300000Y-164950000D01*
X83000000Y-130000000D02*
X84800000Y-128200000D01*
X87200000Y-128200000D02*
X91599000Y-132599000D01*
X95300000Y-164950000D02*
X91000000Y-169250000D01*
X91599000Y-132599000D02*
X91599000Y-147499000D01*
X84800000Y-128200000D02*
X87200000Y-128200000D01*
%TO.N,A_R_LED_M*%
X97200000Y-81080000D02*
X94599000Y-83681000D01*
X65260000Y-108900000D02*
X64000000Y-110160000D01*
X90041700Y-96697000D02*
X80841700Y-96697000D01*
X94599000Y-83681000D02*
X94599000Y-92139700D01*
X94599000Y-92139700D02*
X90041700Y-96697000D01*
X68638700Y-108900000D02*
X65260000Y-108900000D01*
X80841700Y-96697000D02*
X68638700Y-108900000D01*
%TO.N,A_LinLog_Sw_p2_M*%
X89875600Y-96296000D02*
X80675600Y-96296000D01*
X94198000Y-81542000D02*
X94198000Y-91973600D01*
X97200000Y-78540000D02*
X94198000Y-81542000D01*
X94198000Y-91973600D02*
X89875600Y-96296000D01*
X69351600Y-107620000D02*
X66540000Y-107620000D01*
X80675600Y-96296000D02*
X69351600Y-107620000D01*
%TO.N,A_Rise_CV_M*%
X58299000Y-60629000D02*
X58299000Y-96601000D01*
X62998000Y-101300000D02*
X65240000Y-101300000D01*
X65240000Y-101300000D02*
X66540000Y-100000000D01*
X52750000Y-55080000D02*
X58299000Y-60629000D01*
X58299000Y-96601000D02*
X62998000Y-101300000D01*
%TO.N,A_CV_Buff_M*%
X57497000Y-67447000D02*
X52750000Y-62700000D01*
X57497000Y-97806181D02*
X57497000Y-67447000D01*
X63490819Y-103800000D02*
X57497000Y-97806181D01*
X65280000Y-103800000D02*
X63490819Y-103800000D01*
X66540000Y-102540000D02*
X65280000Y-103800000D01*
%TO.N,A_Fall_CV_M*%
X63640000Y-102540000D02*
X64000000Y-102540000D01*
X57898000Y-96798000D02*
X63640000Y-102540000D01*
X57898000Y-62768000D02*
X57898000Y-96798000D01*
X52750000Y-57620000D02*
X57898000Y-62768000D01*
%TO.N,A_F_LED_M*%
X95000000Y-92305800D02*
X90207800Y-97098000D01*
X81007800Y-97098000D02*
X67945800Y-110160000D01*
X97200000Y-83620000D02*
X95000000Y-85820000D01*
X67945800Y-110160000D02*
X66540000Y-110160000D01*
X90207800Y-97098000D02*
X81007800Y-97098000D01*
X95000000Y-85820000D02*
X95000000Y-92305800D01*
%TO.N,A_Rng_Sw_p3_M*%
X65300000Y-111400000D02*
X67272900Y-111400000D01*
X67272900Y-111400000D02*
X81173900Y-97499000D01*
X81173900Y-97499000D02*
X90373900Y-97499000D01*
X95400000Y-87960000D02*
X97200000Y-86160000D01*
X90373900Y-97499000D02*
X95400000Y-92472900D01*
X95400000Y-92472900D02*
X95400000Y-87960000D01*
X64000000Y-112700000D02*
X65300000Y-111400000D01*
%TO.N,A_Diff_Amp_M*%
X58700000Y-94700000D02*
X64000000Y-100000000D01*
X58700000Y-58490000D02*
X58700000Y-94700000D01*
X52750000Y-52540000D02*
X58700000Y-58490000D01*
%TO.N,A_LinLog_Sw_p5_M*%
X97200000Y-76000000D02*
X93797000Y-79403000D01*
X93797000Y-79403000D02*
X93797000Y-91807500D01*
X93797000Y-91807500D02*
X89709500Y-95895000D01*
X65320000Y-106300000D02*
X64000000Y-107620000D01*
X80509500Y-95895000D02*
X70104500Y-106300000D01*
X89709500Y-95895000D02*
X80509500Y-95895000D01*
X70104500Y-106300000D02*
X65320000Y-106300000D01*
%TO.N,A_Rng_Sw_p1_M*%
X90540000Y-97900000D02*
X81340000Y-97900000D01*
X97200000Y-91240000D02*
X90540000Y-97900000D01*
X81340000Y-97900000D02*
X66540000Y-112700000D01*
D24*
%TO.N,Net-(D3-K)*%
X80600000Y-55500000D02*
X78020000Y-55500000D01*
X83890000Y-52210000D02*
X80600000Y-55500000D01*
X83890000Y-46260000D02*
X83890000Y-48800000D01*
X83890000Y-48800000D02*
X83890000Y-52210000D01*
%TO.N,Net-(D4-A)*%
X73730000Y-46260000D02*
X73730000Y-48800000D01*
X73730000Y-53750000D02*
X71980000Y-55500000D01*
X73730000Y-48800000D02*
X73730000Y-53750000D01*
D25*
%TO.N,B_LinLog_Sw_p5_M*%
X84320000Y-106300000D02*
X83000000Y-107620000D01*
X94005000Y-113005000D02*
X87300000Y-106300000D01*
X87300000Y-106300000D02*
X84320000Y-106300000D01*
X97200000Y-128000000D02*
X94005000Y-124805000D01*
X94005000Y-124805000D02*
X94005000Y-113005000D01*
%TO.N,B_LinLog_Sw_p2_M*%
X93604000Y-113171100D02*
X93604000Y-126944000D01*
X88052900Y-107620000D02*
X93604000Y-113171100D01*
X85540000Y-107620000D02*
X88052900Y-107620000D01*
X93604000Y-126944000D02*
X97200000Y-130540000D01*
%TO.N,B_Fall_CV_M*%
X69402000Y-114032200D02*
X69402000Y-111539300D01*
X52750000Y-109620000D02*
X56695800Y-109620000D01*
X67732200Y-115702000D02*
X69402000Y-114032200D01*
X69402000Y-111539300D02*
X78401300Y-102540000D01*
X56695800Y-109620000D02*
X62777800Y-115702000D01*
X78401300Y-102540000D02*
X83000000Y-102540000D01*
X62777800Y-115702000D02*
X67732200Y-115702000D01*
%TO.N,B_Diff_Amp_M*%
X67400000Y-114900000D02*
X68600000Y-113700000D01*
X68600000Y-113700000D02*
X68600000Y-111207100D01*
X52750000Y-104540000D02*
X58040000Y-104540000D01*
X63110000Y-114900000D02*
X67400000Y-114900000D01*
X68600000Y-111207100D02*
X79807100Y-100000000D01*
X58040000Y-104540000D02*
X61900000Y-108400000D01*
X79807100Y-100000000D02*
X83000000Y-100000000D01*
X61900000Y-113690000D02*
X63110000Y-114900000D01*
X61900000Y-108400000D02*
X61900000Y-113690000D01*
%TO.N,B_Rng_Sw_p1_M*%
X92000000Y-138040000D02*
X92000000Y-113835500D01*
X97200000Y-143240000D02*
X92000000Y-138040000D01*
X92000000Y-113835500D02*
X90864500Y-112700000D01*
X90864500Y-112700000D02*
X85540000Y-112700000D01*
%TO.N,B_Rng_Sw_p3_M*%
X90131600Y-111400000D02*
X92401000Y-113669400D01*
X83000000Y-112700000D02*
X84300000Y-111400000D01*
X92401000Y-113669400D02*
X92401000Y-133361000D01*
X84300000Y-111400000D02*
X90131600Y-111400000D01*
X92401000Y-133361000D02*
X97200000Y-138160000D01*
%TO.N,B_F_LED_M*%
X85540000Y-110160000D02*
X89458700Y-110160000D01*
X92802000Y-131222000D02*
X97200000Y-135620000D01*
X92802000Y-113503300D02*
X92802000Y-131222000D01*
X89458700Y-110160000D02*
X92802000Y-113503300D01*
%TO.N,B_Rise_CV_M*%
X61499000Y-111199000D02*
X61499000Y-113856100D01*
X84240000Y-101300000D02*
X85540000Y-100000000D01*
X79074200Y-101300000D02*
X84240000Y-101300000D01*
X67566100Y-115301000D02*
X69001000Y-113866100D01*
X52750000Y-107080000D02*
X57380000Y-107080000D01*
X61499000Y-113856100D02*
X62943900Y-115301000D01*
X62943900Y-115301000D02*
X67566100Y-115301000D01*
X69001000Y-113866100D02*
X69001000Y-111373200D01*
X57380000Y-107080000D02*
X61499000Y-111199000D01*
X69001000Y-111373200D02*
X79074200Y-101300000D01*
%TO.N,B_R_LED_M*%
X93203000Y-129083000D02*
X93203000Y-113337200D01*
X84260000Y-108900000D02*
X83000000Y-110160000D01*
X93203000Y-113337200D02*
X88765800Y-108900000D01*
X88765800Y-108900000D02*
X84260000Y-108900000D01*
X97200000Y-133080000D02*
X93203000Y-129083000D01*
%TO.N,B_CV_Buff_M*%
X67898300Y-116103000D02*
X69803000Y-114198300D01*
X77707750Y-103800650D02*
X84279350Y-103800650D01*
X69803000Y-111705400D02*
X77707750Y-103800650D01*
X84279350Y-103800650D02*
X85540000Y-102540000D01*
X69803000Y-114198300D02*
X69803000Y-111705400D01*
X52750000Y-114700000D02*
X61208700Y-114700000D01*
X61208700Y-114700000D02*
X62611700Y-116103000D01*
X62611700Y-116103000D02*
X67898300Y-116103000D01*
%TD*%
%TA.AperFunction,Conductor*%
%TO.N,GND*%
G36*
X59521575Y-169752993D02*
G01*
X59587401Y-169867007D01*
X59680493Y-169960099D01*
X59794507Y-170025925D01*
X59858090Y-170042962D01*
X59225782Y-170675269D01*
X59225782Y-170675270D01*
X59279952Y-170714626D01*
X59279951Y-170714626D01*
X59288995Y-170719234D01*
X59339792Y-170767208D01*
X59356587Y-170835029D01*
X59334050Y-170901164D01*
X59288999Y-170940202D01*
X59279682Y-170944949D01*
X59107713Y-171069890D01*
X58957390Y-171220213D01*
X58832449Y-171392182D01*
X58827984Y-171400946D01*
X58780009Y-171451742D01*
X58712188Y-171468536D01*
X58646053Y-171445998D01*
X58607016Y-171400946D01*
X58602550Y-171392182D01*
X58477609Y-171220213D01*
X58327286Y-171069890D01*
X58155317Y-170944949D01*
X58146004Y-170940204D01*
X58095207Y-170892230D01*
X58078412Y-170824409D01*
X58100949Y-170758274D01*
X58146007Y-170719232D01*
X58155055Y-170714622D01*
X58209216Y-170675270D01*
X58209217Y-170675270D01*
X57576908Y-170042962D01*
X57640493Y-170025925D01*
X57754507Y-169960099D01*
X57847599Y-169867007D01*
X57913425Y-169752993D01*
X57930462Y-169689408D01*
X58562770Y-170321717D01*
X58562770Y-170321716D01*
X58602122Y-170267554D01*
X58607014Y-170257954D01*
X58654988Y-170207157D01*
X58722808Y-170190361D01*
X58788944Y-170212897D01*
X58827986Y-170257954D01*
X58832875Y-170267550D01*
X58872228Y-170321716D01*
X59504537Y-169689408D01*
X59521575Y-169752993D01*
G37*
%TD.AperFunction*%
%TA.AperFunction,Conductor*%
G36*
X59521575Y-167212993D02*
G01*
X59587401Y-167327007D01*
X59680493Y-167420099D01*
X59794507Y-167485925D01*
X59858090Y-167502962D01*
X59225782Y-168135269D01*
X59225782Y-168135270D01*
X59279952Y-168174626D01*
X59289548Y-168179516D01*
X59340344Y-168227491D01*
X59357138Y-168295312D01*
X59334600Y-168361447D01*
X59289551Y-168400483D01*
X59279940Y-168405380D01*
X59225782Y-168444727D01*
X59225782Y-168444728D01*
X59858091Y-169077037D01*
X59794507Y-169094075D01*
X59680493Y-169159901D01*
X59587401Y-169252993D01*
X59521575Y-169367007D01*
X59504537Y-169430591D01*
X58872228Y-168798282D01*
X58872227Y-168798282D01*
X58832880Y-168852440D01*
X58827983Y-168862051D01*
X58780006Y-168912845D01*
X58712184Y-168929638D01*
X58646050Y-168907098D01*
X58607016Y-168862048D01*
X58602126Y-168852452D01*
X58562770Y-168798282D01*
X58562769Y-168798282D01*
X57930462Y-169430590D01*
X57913425Y-169367007D01*
X57847599Y-169252993D01*
X57754507Y-169159901D01*
X57640493Y-169094075D01*
X57576909Y-169077037D01*
X58209216Y-168444728D01*
X58155050Y-168405375D01*
X58145454Y-168400486D01*
X58094657Y-168352512D01*
X58077861Y-168284692D01*
X58098788Y-168220895D01*
X58177527Y-168103581D01*
X57576908Y-167502962D01*
X57640493Y-167485925D01*
X57754507Y-167420099D01*
X57847599Y-167327007D01*
X57913425Y-167212993D01*
X57930462Y-167149408D01*
X58562770Y-167781717D01*
X58562770Y-167781716D01*
X58602122Y-167727554D01*
X58607014Y-167717954D01*
X58654988Y-167667157D01*
X58722808Y-167650361D01*
X58788944Y-167672897D01*
X58827986Y-167717954D01*
X58832875Y-167727550D01*
X58872228Y-167781716D01*
X59504537Y-167149408D01*
X59521575Y-167212993D01*
G37*
%TD.AperFunction*%
%TA.AperFunction,Conductor*%
G36*
X57566942Y-116620185D02*
G01*
X57587584Y-116636819D01*
X59463181Y-118512416D01*
X59496666Y-118573739D01*
X59499500Y-118600097D01*
X59499500Y-134180430D01*
X59499499Y-134180448D01*
X59499499Y-134346154D01*
X59499498Y-134346154D01*
X59506277Y-134371454D01*
X59540423Y-134498885D01*
X59555030Y-134524185D01*
X59569358Y-134549000D01*
X59569359Y-134549004D01*
X59569360Y-134549004D01*
X59619479Y-134635814D01*
X59619481Y-134635817D01*
X59738349Y-134754685D01*
X59738355Y-134754690D01*
X63962181Y-138978516D01*
X63995666Y-139039839D01*
X63998500Y-139066197D01*
X63998500Y-187900902D01*
X63978815Y-187967941D01*
X63962181Y-187988583D01*
X63319481Y-188631282D01*
X63319475Y-188631290D01*
X63278516Y-188702235D01*
X63278516Y-188702237D01*
X63240423Y-188768214D01*
X63240423Y-188768215D01*
X63199499Y-188920943D01*
X63199499Y-188920945D01*
X63199499Y-189089046D01*
X63199500Y-189089059D01*
X63199500Y-192709325D01*
X63199499Y-192709343D01*
X63199499Y-192875049D01*
X63199498Y-192875049D01*
X63240424Y-193027784D01*
X63240425Y-193027785D01*
X63258780Y-193059576D01*
X63258781Y-193059577D01*
X63319477Y-193164707D01*
X63319481Y-193164712D01*
X63438349Y-193283580D01*
X63438355Y-193283585D01*
X72769144Y-202614374D01*
X72769154Y-202614385D01*
X72773484Y-202618715D01*
X72773485Y-202618716D01*
X72885289Y-202730520D01*
X72972100Y-202780639D01*
X72972102Y-202780641D01*
X73010156Y-202802611D01*
X73022220Y-202809577D01*
X73174948Y-202850500D01*
X75568682Y-202850500D01*
X75635721Y-202870185D01*
X75669139Y-202904324D01*
X75670192Y-202903560D01*
X75789115Y-203067246D01*
X75928753Y-203206884D01*
X76078234Y-203315486D01*
X76088499Y-203322944D01*
X76264439Y-203412591D01*
X76360719Y-203443874D01*
X76452236Y-203473610D01*
X76647264Y-203504500D01*
X76647269Y-203504500D01*
X78352736Y-203504500D01*
X78547763Y-203473610D01*
X78735561Y-203412591D01*
X78911501Y-203322944D01*
X79001192Y-203257779D01*
X79071246Y-203206884D01*
X79071248Y-203206881D01*
X79071252Y-203206879D01*
X79210879Y-203067252D01*
X79210881Y-203067248D01*
X79210884Y-203067246D01*
X79261779Y-202997192D01*
X79326944Y-202907501D01*
X79416591Y-202731561D01*
X79477610Y-202543763D01*
X79491111Y-202458520D01*
X79508500Y-202348736D01*
X79508500Y-202151263D01*
X79477610Y-201956236D01*
X79457270Y-201893637D01*
X79416591Y-201768439D01*
X79326944Y-201592499D01*
X79319486Y-201582234D01*
X79210884Y-201432753D01*
X79071246Y-201293115D01*
X78911504Y-201177058D01*
X78911503Y-201177057D01*
X78911501Y-201177056D01*
X78735561Y-201087409D01*
X78735558Y-201087408D01*
X78547763Y-201026389D01*
X78352736Y-200995500D01*
X78352731Y-200995500D01*
X76647269Y-200995500D01*
X76647264Y-200995500D01*
X76452236Y-201026389D01*
X76264441Y-201087408D01*
X76088495Y-201177058D01*
X75928753Y-201293115D01*
X75789115Y-201432753D01*
X75670192Y-201596440D01*
X75668761Y-201595400D01*
X75622593Y-201637167D01*
X75568682Y-201649500D01*
X73554102Y-201649500D01*
X73487063Y-201629815D01*
X73466421Y-201613181D01*
X65627595Y-193774355D01*
X65594110Y-193713032D01*
X65599094Y-193643340D01*
X65640966Y-193587407D01*
X65653441Y-193579640D01*
X65653349Y-193579489D01*
X65657495Y-193576947D01*
X65657501Y-193576944D01*
X65742382Y-193515274D01*
X65817246Y-193460884D01*
X65817248Y-193460881D01*
X65817252Y-193460879D01*
X65956879Y-193321252D01*
X65956881Y-193321248D01*
X65956884Y-193321246D01*
X66007779Y-193251192D01*
X66072944Y-193161501D01*
X66162591Y-192985561D01*
X66223610Y-192797763D01*
X66234060Y-192731783D01*
X66254500Y-192602736D01*
X66254500Y-190897263D01*
X66223610Y-190702236D01*
X66191280Y-190602736D01*
X66162591Y-190514439D01*
X66072944Y-190338499D01*
X66065486Y-190328234D01*
X65956884Y-190178753D01*
X65817246Y-190039115D01*
X65653560Y-189920192D01*
X65654599Y-189918761D01*
X65612833Y-189872593D01*
X65600500Y-189818682D01*
X65600500Y-180249097D01*
X65620185Y-180182058D01*
X65672989Y-180136303D01*
X65742147Y-180126359D01*
X65805703Y-180155384D01*
X65812181Y-180161416D01*
X71338223Y-185687458D01*
X71371708Y-185748781D01*
X71366724Y-185818473D01*
X71324852Y-185874406D01*
X71259388Y-185898823D01*
X71231144Y-185897612D01*
X71035660Y-185866651D01*
X70838277Y-185866651D01*
X70643319Y-185897529D01*
X70455604Y-185958520D01*
X70455598Y-185958522D01*
X70279736Y-186048130D01*
X70279730Y-186048134D01*
X70120044Y-186164153D01*
X69693874Y-186590321D01*
X70227033Y-187123479D01*
X69873480Y-187477033D01*
X69340321Y-186943874D01*
X69340320Y-186943874D01*
X68914156Y-187370039D01*
X68914155Y-187370041D01*
X68798133Y-187529729D01*
X68708522Y-187705599D01*
X68708521Y-187705602D01*
X68647529Y-187893321D01*
X68616651Y-188088277D01*
X68616651Y-188285660D01*
X68647529Y-188480616D01*
X68708521Y-188668335D01*
X68708522Y-188668338D01*
X68798134Y-188844210D01*
X68824106Y-188879958D01*
X68824107Y-188879958D01*
X69390517Y-188313547D01*
X69407555Y-188377132D01*
X69473381Y-188491147D01*
X69566473Y-188584239D01*
X69680488Y-188650065D01*
X69744069Y-188667101D01*
X69177660Y-189233510D01*
X69177660Y-189233511D01*
X69213415Y-189259488D01*
X69389281Y-189349097D01*
X69389284Y-189349098D01*
X69577003Y-189410090D01*
X69771960Y-189440969D01*
X69969342Y-189440969D01*
X70164298Y-189410090D01*
X70352017Y-189349098D01*
X70352020Y-189349097D01*
X70527890Y-189259486D01*
X70687578Y-189143464D01*
X70687579Y-189143464D01*
X71113745Y-188717298D01*
X71113745Y-188717297D01*
X70580586Y-188184139D01*
X70934139Y-187830586D01*
X71467297Y-188363745D01*
X71467298Y-188363745D01*
X71893463Y-187937579D01*
X71893463Y-187937578D01*
X72009485Y-187777889D01*
X72009489Y-187777883D01*
X72099097Y-187602021D01*
X72099099Y-187602015D01*
X72160090Y-187414300D01*
X72190969Y-187219343D01*
X72190969Y-187021959D01*
X72160007Y-186826475D01*
X72168962Y-186757182D01*
X72213958Y-186703730D01*
X72280709Y-186683090D01*
X72348023Y-186701815D01*
X72370161Y-186719396D01*
X77765139Y-192114374D01*
X77765149Y-192114385D01*
X77769479Y-192118715D01*
X77769480Y-192118716D01*
X77881284Y-192230520D01*
X77946576Y-192268216D01*
X78018215Y-192309577D01*
X78170943Y-192350500D01*
X80121500Y-192350500D01*
X80188539Y-192370185D01*
X80234294Y-192422989D01*
X80245500Y-192474500D01*
X80245500Y-192602736D01*
X80276389Y-192797763D01*
X80335771Y-192980520D01*
X80337409Y-192985561D01*
X80427056Y-193161501D01*
X80427058Y-193161504D01*
X80543115Y-193321246D01*
X80682753Y-193460884D01*
X80832234Y-193569486D01*
X80842499Y-193576944D01*
X81018439Y-193666591D01*
X81143637Y-193707270D01*
X81206236Y-193727610D01*
X81401264Y-193758500D01*
X81401269Y-193758500D01*
X81598736Y-193758500D01*
X81793763Y-193727610D01*
X81981561Y-193666591D01*
X82157501Y-193576944D01*
X82247192Y-193511779D01*
X82317246Y-193460884D01*
X82317248Y-193460881D01*
X82317252Y-193460879D01*
X82456879Y-193321252D01*
X82456881Y-193321248D01*
X82456884Y-193321246D01*
X82507779Y-193251192D01*
X82572944Y-193161501D01*
X82662591Y-192985561D01*
X82723610Y-192797763D01*
X82734060Y-192731783D01*
X82754500Y-192602736D01*
X82754500Y-190897263D01*
X82723610Y-190702236D01*
X82691280Y-190602736D01*
X82662591Y-190514439D01*
X82572944Y-190338499D01*
X82565486Y-190328234D01*
X82456884Y-190178753D01*
X82317246Y-190039115D01*
X82157504Y-189923058D01*
X82157503Y-189923057D01*
X82157501Y-189923056D01*
X81981561Y-189833409D01*
X81981558Y-189833408D01*
X81793763Y-189772389D01*
X81598736Y-189741500D01*
X81598731Y-189741500D01*
X81401269Y-189741500D01*
X81401264Y-189741500D01*
X81206236Y-189772389D01*
X81018441Y-189833408D01*
X80842495Y-189923058D01*
X80682753Y-190039115D01*
X80543115Y-190178753D01*
X80427058Y-190338495D01*
X80337408Y-190514441D01*
X80276389Y-190702236D01*
X80245500Y-190897263D01*
X80245500Y-191025500D01*
X80225815Y-191092539D01*
X80173011Y-191138294D01*
X80121500Y-191149500D01*
X78550097Y-191149500D01*
X78483058Y-191129815D01*
X78462416Y-191113181D01*
X76246498Y-188897263D01*
X83745500Y-188897263D01*
X83745500Y-190602736D01*
X83776389Y-190797763D01*
X83808719Y-190897263D01*
X83837409Y-190985561D01*
X83927056Y-191161501D01*
X83927058Y-191161504D01*
X84043115Y-191321246D01*
X84182753Y-191460884D01*
X84332234Y-191569486D01*
X84342499Y-191576944D01*
X84518439Y-191666591D01*
X84643637Y-191707270D01*
X84706236Y-191727610D01*
X84901264Y-191758500D01*
X84901269Y-191758500D01*
X85098736Y-191758500D01*
X85293763Y-191727610D01*
X85481561Y-191666591D01*
X85657501Y-191576944D01*
X85747192Y-191511779D01*
X85817246Y-191460884D01*
X85817248Y-191460881D01*
X85817252Y-191460879D01*
X85956879Y-191321252D01*
X85956881Y-191321248D01*
X85956884Y-191321246D01*
X86007779Y-191251192D01*
X86072944Y-191161501D01*
X86162591Y-190985561D01*
X86223610Y-190797763D01*
X86238740Y-190702236D01*
X86254500Y-190602736D01*
X86254500Y-188897263D01*
X86223610Y-188702235D01*
X86185270Y-188584239D01*
X86162591Y-188514439D01*
X86072944Y-188338499D01*
X86008622Y-188249966D01*
X85956884Y-188178753D01*
X85817246Y-188039115D01*
X85657504Y-187923058D01*
X85657503Y-187923057D01*
X85657501Y-187923056D01*
X85481561Y-187833409D01*
X85481558Y-187833408D01*
X85293763Y-187772389D01*
X85098736Y-187741500D01*
X85098731Y-187741500D01*
X84901269Y-187741500D01*
X84901264Y-187741500D01*
X84706236Y-187772389D01*
X84518441Y-187833408D01*
X84342495Y-187923058D01*
X84182753Y-188039115D01*
X84043115Y-188178753D01*
X83927058Y-188338495D01*
X83837408Y-188514441D01*
X83776390Y-188702235D01*
X83745500Y-188897263D01*
X76246498Y-188897263D01*
X73000498Y-185651263D01*
X75491500Y-185651263D01*
X75491500Y-185848736D01*
X75522389Y-186043763D01*
X75561507Y-186164153D01*
X75583409Y-186231561D01*
X75673056Y-186407501D01*
X75673058Y-186407504D01*
X75789115Y-186567246D01*
X75928753Y-186706884D01*
X76078234Y-186815486D01*
X76088499Y-186822944D01*
X76264439Y-186912591D01*
X76360719Y-186943874D01*
X76452236Y-186973610D01*
X76647264Y-187004500D01*
X76647269Y-187004500D01*
X78352736Y-187004500D01*
X78547763Y-186973610D01*
X78735561Y-186912591D01*
X78911501Y-186822944D01*
X79002015Y-186757182D01*
X79071246Y-186706884D01*
X79071248Y-186706881D01*
X79071252Y-186706879D01*
X79210879Y-186567252D01*
X79210881Y-186567248D01*
X79210884Y-186567246D01*
X79274181Y-186480123D01*
X79326944Y-186407501D01*
X79416591Y-186231561D01*
X79477610Y-186043763D01*
X79491111Y-185958520D01*
X79508500Y-185848736D01*
X79508500Y-185651263D01*
X79477610Y-185456236D01*
X79452533Y-185379057D01*
X79416591Y-185268439D01*
X79326944Y-185092499D01*
X79272885Y-185018092D01*
X79210884Y-184932753D01*
X79071246Y-184793115D01*
X78911504Y-184677058D01*
X78911503Y-184677057D01*
X78911501Y-184677056D01*
X78735561Y-184587409D01*
X78735558Y-184587408D01*
X78547763Y-184526389D01*
X78352736Y-184495500D01*
X78352731Y-184495500D01*
X76647269Y-184495500D01*
X76647264Y-184495500D01*
X76452236Y-184526389D01*
X76264441Y-184587408D01*
X76088495Y-184677058D01*
X75928753Y-184793115D01*
X75789115Y-184932753D01*
X75673058Y-185092495D01*
X75583408Y-185268441D01*
X75522389Y-185456236D01*
X75491500Y-185651263D01*
X73000498Y-185651263D01*
X66037819Y-178688584D01*
X66004334Y-178627261D01*
X66001500Y-178600903D01*
X66001500Y-171588277D01*
X68616651Y-171588277D01*
X68616651Y-171785660D01*
X68647529Y-171980616D01*
X68708521Y-172168335D01*
X68708522Y-172168338D01*
X68798134Y-172344210D01*
X68824106Y-172379958D01*
X68824107Y-172379958D01*
X69390517Y-171813547D01*
X69407555Y-171877132D01*
X69473381Y-171991147D01*
X69566473Y-172084239D01*
X69680488Y-172150065D01*
X69744069Y-172167101D01*
X69177660Y-172733510D01*
X69177660Y-172733511D01*
X69213415Y-172759488D01*
X69389281Y-172849097D01*
X69389284Y-172849098D01*
X69577003Y-172910090D01*
X69771960Y-172940969D01*
X69969342Y-172940969D01*
X70164298Y-172910090D01*
X70352017Y-172849098D01*
X70352020Y-172849097D01*
X70527890Y-172759486D01*
X70687578Y-172643464D01*
X70687579Y-172643464D01*
X71113745Y-172217298D01*
X71113745Y-172217297D01*
X70580586Y-171684139D01*
X70934139Y-171330586D01*
X71467297Y-171863745D01*
X71893463Y-171437579D01*
X71893463Y-171437578D01*
X72009485Y-171277889D01*
X72009489Y-171277883D01*
X72099097Y-171102021D01*
X72099099Y-171102015D01*
X72160090Y-170914300D01*
X72190969Y-170719343D01*
X72190969Y-170521959D01*
X72160090Y-170327003D01*
X72099098Y-170139284D01*
X72099097Y-170139281D01*
X72009489Y-169963419D01*
X72009481Y-169963406D01*
X71983511Y-169927661D01*
X71983510Y-169927660D01*
X71417102Y-170494068D01*
X71400066Y-170430488D01*
X71334240Y-170316472D01*
X71241148Y-170223380D01*
X71127132Y-170157554D01*
X71063548Y-170140516D01*
X71629958Y-169574108D01*
X71594208Y-169548134D01*
X71418338Y-169458522D01*
X71418335Y-169458521D01*
X71230616Y-169397529D01*
X71035660Y-169366651D01*
X70838277Y-169366651D01*
X70643319Y-169397529D01*
X70455604Y-169458520D01*
X70455598Y-169458522D01*
X70279736Y-169548130D01*
X70279730Y-169548134D01*
X70120044Y-169664153D01*
X69693874Y-170090321D01*
X70227033Y-170623480D01*
X69873480Y-170977033D01*
X69340321Y-170443874D01*
X69340320Y-170443874D01*
X68914156Y-170870039D01*
X68914155Y-170870041D01*
X68798133Y-171029729D01*
X68708522Y-171205599D01*
X68708521Y-171205602D01*
X68647529Y-171393321D01*
X68616651Y-171588277D01*
X66001500Y-171588277D01*
X66001500Y-169151263D01*
X75491500Y-169151263D01*
X75491500Y-169348736D01*
X75522389Y-169543763D01*
X75561507Y-169664153D01*
X75583409Y-169731561D01*
X75673056Y-169907501D01*
X75673058Y-169907504D01*
X75789115Y-170067246D01*
X75928753Y-170206884D01*
X76078234Y-170315486D01*
X76088499Y-170322944D01*
X76264439Y-170412591D01*
X76360719Y-170443874D01*
X76452236Y-170473610D01*
X76647264Y-170504500D01*
X76647269Y-170504500D01*
X78352736Y-170504500D01*
X78547763Y-170473610D01*
X78735561Y-170412591D01*
X78911501Y-170322944D01*
X79001192Y-170257779D01*
X79071246Y-170206884D01*
X79071248Y-170206881D01*
X79071252Y-170206879D01*
X79210879Y-170067252D01*
X79210881Y-170067248D01*
X79210884Y-170067246D01*
X79261779Y-169997192D01*
X79326944Y-169907501D01*
X79416591Y-169731561D01*
X79477610Y-169543763D01*
X79491111Y-169458520D01*
X79508500Y-169348736D01*
X79508500Y-169151263D01*
X79477610Y-168956236D01*
X79443884Y-168852439D01*
X79416591Y-168768439D01*
X79326944Y-168592499D01*
X79312769Y-168572989D01*
X79210884Y-168432753D01*
X79071246Y-168293115D01*
X78911504Y-168177058D01*
X78911503Y-168177057D01*
X78911501Y-168177056D01*
X78735561Y-168087409D01*
X78735558Y-168087408D01*
X78547763Y-168026389D01*
X78352736Y-167995500D01*
X78352731Y-167995500D01*
X76647269Y-167995500D01*
X76647264Y-167995500D01*
X76452236Y-168026389D01*
X76264441Y-168087408D01*
X76088495Y-168177058D01*
X75928753Y-168293115D01*
X75789115Y-168432753D01*
X75673058Y-168592495D01*
X75583408Y-168768441D01*
X75522389Y-168956236D01*
X75491500Y-169151263D01*
X66001500Y-169151263D01*
X66001500Y-163214339D01*
X85116651Y-163214339D01*
X85116651Y-163411722D01*
X85147529Y-163606678D01*
X85208521Y-163794397D01*
X85208522Y-163794400D01*
X85298133Y-163970270D01*
X85414155Y-164129958D01*
X85414155Y-164129959D01*
X85840321Y-164556125D01*
X86373479Y-164022966D01*
X86727032Y-164376519D01*
X86193874Y-164909678D01*
X86620039Y-165335842D01*
X86620041Y-165335843D01*
X86779730Y-165451865D01*
X86779736Y-165451869D01*
X86955598Y-165541477D01*
X86955604Y-165541479D01*
X87143320Y-165602470D01*
X87143319Y-165602470D01*
X87338277Y-165633349D01*
X87535660Y-165633349D01*
X87730616Y-165602470D01*
X87918335Y-165541478D01*
X87918338Y-165541477D01*
X88094210Y-165451865D01*
X88129957Y-165425892D01*
X88129957Y-165425890D01*
X87563549Y-164859482D01*
X87627132Y-164842446D01*
X87741148Y-164776620D01*
X87834240Y-164683528D01*
X87900066Y-164569512D01*
X87917102Y-164505929D01*
X88483510Y-165072337D01*
X88483512Y-165072337D01*
X88509485Y-165036590D01*
X88599097Y-164860718D01*
X88599098Y-164860715D01*
X88660090Y-164672996D01*
X88690969Y-164478040D01*
X88690969Y-164280656D01*
X88660090Y-164085699D01*
X88599099Y-163897984D01*
X88599097Y-163897978D01*
X88509489Y-163722116D01*
X88509485Y-163722110D01*
X88393463Y-163562421D01*
X88393462Y-163562419D01*
X87967299Y-163136254D01*
X87967298Y-163136254D01*
X87434138Y-163669412D01*
X87080585Y-163315859D01*
X87613745Y-162782701D01*
X87187579Y-162356535D01*
X87027890Y-162240513D01*
X86852020Y-162150902D01*
X86852017Y-162150901D01*
X86664298Y-162089909D01*
X86469342Y-162059031D01*
X86271960Y-162059031D01*
X86077003Y-162089909D01*
X85889284Y-162150901D01*
X85889281Y-162150902D01*
X85713409Y-162240514D01*
X85677660Y-162266486D01*
X85677660Y-162266487D01*
X86244071Y-162832898D01*
X86180488Y-162849935D01*
X86066473Y-162915761D01*
X85973381Y-163008853D01*
X85907555Y-163122868D01*
X85890518Y-163186451D01*
X85324107Y-162620040D01*
X85324106Y-162620040D01*
X85298134Y-162655789D01*
X85208522Y-162831661D01*
X85208521Y-162831664D01*
X85147529Y-163019383D01*
X85116651Y-163214339D01*
X66001500Y-163214339D01*
X66001500Y-157897263D01*
X80245500Y-157897263D01*
X80245500Y-159602736D01*
X80276389Y-159797763D01*
X80337408Y-159985558D01*
X80337409Y-159985561D01*
X80427056Y-160161501D01*
X80427058Y-160161504D01*
X80543115Y-160321246D01*
X80682753Y-160460884D01*
X80832234Y-160569486D01*
X80842499Y-160576944D01*
X81018439Y-160666591D01*
X81143637Y-160707270D01*
X81206236Y-160727610D01*
X81401264Y-160758500D01*
X81401269Y-160758500D01*
X81598736Y-160758500D01*
X81793763Y-160727610D01*
X81981561Y-160666591D01*
X82157501Y-160576944D01*
X82247192Y-160511779D01*
X82317246Y-160460884D01*
X82317248Y-160460881D01*
X82317252Y-160460879D01*
X82456879Y-160321252D01*
X82456881Y-160321248D01*
X82456884Y-160321246D01*
X82507779Y-160251192D01*
X82572944Y-160161501D01*
X82662591Y-159985561D01*
X82723610Y-159797763D01*
X82754500Y-159602736D01*
X82754500Y-157897263D01*
X82723610Y-157702236D01*
X82691280Y-157602736D01*
X82662591Y-157514439D01*
X82572944Y-157338499D01*
X82550064Y-157307007D01*
X82456884Y-157178753D01*
X82317246Y-157039115D01*
X82157504Y-156923058D01*
X82157503Y-156923057D01*
X82157501Y-156923056D01*
X81981561Y-156833409D01*
X81981558Y-156833408D01*
X81793763Y-156772389D01*
X81598736Y-156741500D01*
X81598731Y-156741500D01*
X81401269Y-156741500D01*
X81401264Y-156741500D01*
X81206236Y-156772389D01*
X81018441Y-156833408D01*
X80842495Y-156923058D01*
X80682753Y-157039115D01*
X80543115Y-157178753D01*
X80427058Y-157338495D01*
X80337408Y-157514441D01*
X80276389Y-157702236D01*
X80245500Y-157897263D01*
X66001500Y-157897263D01*
X66001500Y-155088277D01*
X68616651Y-155088277D01*
X68616651Y-155285660D01*
X68647529Y-155480616D01*
X68708521Y-155668335D01*
X68708522Y-155668338D01*
X68798134Y-155844210D01*
X68824106Y-155879958D01*
X68824107Y-155879958D01*
X69390517Y-155313547D01*
X69407555Y-155377132D01*
X69473381Y-155491147D01*
X69566473Y-155584239D01*
X69680488Y-155650065D01*
X69744069Y-155667101D01*
X69177660Y-156233510D01*
X69177660Y-156233511D01*
X69213415Y-156259488D01*
X69389281Y-156349097D01*
X69389284Y-156349098D01*
X69577003Y-156410090D01*
X69771960Y-156440969D01*
X69969342Y-156440969D01*
X70164298Y-156410090D01*
X70352017Y-156349098D01*
X70352020Y-156349097D01*
X70527890Y-156259486D01*
X70687578Y-156143464D01*
X70687579Y-156143464D01*
X70933780Y-155897263D01*
X83745500Y-155897263D01*
X83745500Y-157602736D01*
X83776389Y-157797763D01*
X83831029Y-157965925D01*
X83837409Y-157985561D01*
X83927056Y-158161501D01*
X83927058Y-158161504D01*
X84043115Y-158321246D01*
X84182753Y-158460884D01*
X84332234Y-158569486D01*
X84342499Y-158576944D01*
X84518439Y-158666591D01*
X84643381Y-158707187D01*
X84706236Y-158727610D01*
X84901264Y-158758500D01*
X84901269Y-158758500D01*
X85098736Y-158758500D01*
X85293763Y-158727610D01*
X85481561Y-158666591D01*
X85657501Y-158576944D01*
X85747192Y-158511779D01*
X85817246Y-158460884D01*
X85817248Y-158460881D01*
X85817252Y-158460879D01*
X85956879Y-158321252D01*
X85956881Y-158321248D01*
X85956884Y-158321246D01*
X86007779Y-158251192D01*
X86072944Y-158161501D01*
X86162591Y-157985561D01*
X86223610Y-157797763D01*
X86240204Y-157692993D01*
X86254500Y-157602736D01*
X86254500Y-155897263D01*
X86223610Y-155702236D01*
X86185270Y-155584239D01*
X86162591Y-155514439D01*
X86072944Y-155338499D01*
X86008622Y-155249966D01*
X85956884Y-155178753D01*
X85817246Y-155039115D01*
X85657504Y-154923058D01*
X85657503Y-154923057D01*
X85657501Y-154923056D01*
X85481561Y-154833409D01*
X85481558Y-154833408D01*
X85293763Y-154772389D01*
X85098736Y-154741500D01*
X85098731Y-154741500D01*
X84901269Y-154741500D01*
X84901264Y-154741500D01*
X84706236Y-154772389D01*
X84518441Y-154833408D01*
X84342495Y-154923058D01*
X84182753Y-155039115D01*
X84043115Y-155178753D01*
X83927058Y-155338495D01*
X83837408Y-155514441D01*
X83776389Y-155702236D01*
X83745500Y-155897263D01*
X70933780Y-155897263D01*
X71113745Y-155717298D01*
X71113745Y-155717297D01*
X70580586Y-155184139D01*
X70934139Y-154830586D01*
X71467297Y-155363745D01*
X71893463Y-154937579D01*
X71893463Y-154937578D01*
X72009485Y-154777889D01*
X72009489Y-154777883D01*
X72099097Y-154602021D01*
X72099099Y-154602015D01*
X72160090Y-154414300D01*
X72190969Y-154219343D01*
X72190969Y-154021959D01*
X72160090Y-153827003D01*
X72099098Y-153639284D01*
X72099097Y-153639281D01*
X72009489Y-153463419D01*
X72009481Y-153463406D01*
X71983511Y-153427661D01*
X71983510Y-153427660D01*
X71417102Y-153994068D01*
X71400066Y-153930488D01*
X71334240Y-153816472D01*
X71241148Y-153723380D01*
X71127132Y-153657554D01*
X71063548Y-153640516D01*
X71629958Y-153074108D01*
X71594208Y-153048134D01*
X71418338Y-152958522D01*
X71418335Y-152958521D01*
X71230616Y-152897529D01*
X71035660Y-152866651D01*
X70838277Y-152866651D01*
X70643319Y-152897529D01*
X70455604Y-152958520D01*
X70455598Y-152958522D01*
X70279736Y-153048130D01*
X70279730Y-153048134D01*
X70120044Y-153164153D01*
X69693874Y-153590321D01*
X70227033Y-154123480D01*
X69873480Y-154477033D01*
X69340321Y-153943874D01*
X69340320Y-153943874D01*
X68914156Y-154370039D01*
X68914155Y-154370041D01*
X68798133Y-154529729D01*
X68708522Y-154705599D01*
X68708521Y-154705602D01*
X68647529Y-154893321D01*
X68616651Y-155088277D01*
X66001500Y-155088277D01*
X66001500Y-152651263D01*
X75491500Y-152651263D01*
X75491500Y-152848736D01*
X75522389Y-153043763D01*
X75561507Y-153164153D01*
X75583409Y-153231561D01*
X75673056Y-153407501D01*
X75673058Y-153407504D01*
X75789115Y-153567246D01*
X75928753Y-153706884D01*
X76078234Y-153815486D01*
X76088499Y-153822944D01*
X76264439Y-153912591D01*
X76360719Y-153943874D01*
X76452236Y-153973610D01*
X76647264Y-154004500D01*
X76647269Y-154004500D01*
X78352736Y-154004500D01*
X78547763Y-153973610D01*
X78735561Y-153912591D01*
X78911501Y-153822944D01*
X79001192Y-153757779D01*
X79071246Y-153706884D01*
X79071248Y-153706881D01*
X79071252Y-153706879D01*
X79210879Y-153567252D01*
X79210881Y-153567248D01*
X79210884Y-153567246D01*
X79261779Y-153497192D01*
X79326944Y-153407501D01*
X79416591Y-153231561D01*
X79477610Y-153043763D01*
X79491111Y-152958520D01*
X79508500Y-152848736D01*
X79508500Y-152651263D01*
X79477610Y-152456236D01*
X79457270Y-152393637D01*
X79416591Y-152268439D01*
X79326944Y-152092499D01*
X79319486Y-152082234D01*
X79210884Y-151932753D01*
X79071246Y-151793115D01*
X78911504Y-151677058D01*
X78911503Y-151677057D01*
X78911501Y-151677056D01*
X78735561Y-151587409D01*
X78735558Y-151587408D01*
X78547763Y-151526389D01*
X78352736Y-151495500D01*
X78352731Y-151495500D01*
X76647269Y-151495500D01*
X76647264Y-151495500D01*
X76452236Y-151526389D01*
X76264441Y-151587408D01*
X76088495Y-151677058D01*
X75928753Y-151793115D01*
X75789115Y-151932753D01*
X75673058Y-152092495D01*
X75583408Y-152268441D01*
X75522389Y-152456236D01*
X75491500Y-152651263D01*
X66001500Y-152651263D01*
X66001500Y-136495701D01*
X66021185Y-136428662D01*
X66073989Y-136382907D01*
X66143147Y-136372963D01*
X66163809Y-136377767D01*
X66223757Y-136397246D01*
X66433713Y-136430500D01*
X66433714Y-136430500D01*
X66646286Y-136430500D01*
X66646287Y-136430500D01*
X66856243Y-136397246D01*
X66898523Y-136383507D01*
X66968362Y-136381511D01*
X67024521Y-136413756D01*
X69391284Y-138780520D01*
X69391286Y-138780521D01*
X69391290Y-138780524D01*
X69528209Y-138859573D01*
X69528216Y-138859577D01*
X69680943Y-138900501D01*
X69680945Y-138900501D01*
X69846654Y-138900501D01*
X69846670Y-138900500D01*
X79831503Y-138900500D01*
X79898542Y-138920185D01*
X79919184Y-138936819D01*
X92365414Y-151383049D01*
X92398899Y-151444372D01*
X92393915Y-151514064D01*
X92352043Y-151569997D01*
X92286579Y-151594414D01*
X92239415Y-151588661D01*
X92047763Y-151526389D01*
X91852736Y-151495500D01*
X91852731Y-151495500D01*
X90147269Y-151495500D01*
X90147264Y-151495500D01*
X89952236Y-151526389D01*
X89764441Y-151587408D01*
X89588495Y-151677058D01*
X89428753Y-151793115D01*
X89289115Y-151932753D01*
X89173058Y-152092495D01*
X89083408Y-152268441D01*
X89022389Y-152456236D01*
X88991500Y-152651263D01*
X88991500Y-152848736D01*
X89022389Y-153043763D01*
X89061507Y-153164153D01*
X89083409Y-153231561D01*
X89173056Y-153407501D01*
X89173058Y-153407504D01*
X89289115Y-153567246D01*
X89428753Y-153706884D01*
X89578234Y-153815486D01*
X89588499Y-153822944D01*
X89764439Y-153912591D01*
X89860719Y-153943874D01*
X89952236Y-153973610D01*
X90147264Y-154004500D01*
X90147269Y-154004500D01*
X91852736Y-154004500D01*
X92047763Y-153973610D01*
X92235561Y-153912591D01*
X92411501Y-153822944D01*
X92501192Y-153757779D01*
X92571246Y-153706884D01*
X92571248Y-153706881D01*
X92571252Y-153706879D01*
X92710879Y-153567252D01*
X92710881Y-153567248D01*
X92710884Y-153567246D01*
X92826943Y-153407502D01*
X92832332Y-153396927D01*
X92861015Y-153340632D01*
X92908989Y-153289836D01*
X92976810Y-153273041D01*
X93042945Y-153295578D01*
X93086397Y-153350293D01*
X93095500Y-153396927D01*
X93095500Y-163985502D01*
X93075815Y-164052541D01*
X93059181Y-164073183D01*
X91072184Y-166060181D01*
X91010861Y-166093666D01*
X90984503Y-166096500D01*
X86122570Y-166096500D01*
X86122554Y-166096499D01*
X86114958Y-166096499D01*
X85956843Y-166096499D01*
X85880479Y-166116961D01*
X85804114Y-166137423D01*
X85804109Y-166137426D01*
X85667190Y-166216475D01*
X85667182Y-166216481D01*
X78817481Y-173066182D01*
X78817480Y-173066184D01*
X78780576Y-173130104D01*
X78738423Y-173203115D01*
X78697499Y-173355843D01*
X78697499Y-173355845D01*
X78697499Y-173523946D01*
X78697500Y-173523959D01*
X78697500Y-176945530D01*
X78697499Y-176945548D01*
X78697499Y-177111254D01*
X78697498Y-177111254D01*
X78738424Y-177263989D01*
X78738425Y-177263990D01*
X78759504Y-177300499D01*
X78759505Y-177300500D01*
X78817477Y-177400912D01*
X78817481Y-177400917D01*
X78936349Y-177519785D01*
X78936355Y-177519790D01*
X87530939Y-186114374D01*
X87530949Y-186114385D01*
X87535279Y-186118715D01*
X87535280Y-186118716D01*
X87647084Y-186230520D01*
X87733895Y-186280639D01*
X87733897Y-186280641D01*
X87771951Y-186302611D01*
X87784015Y-186309577D01*
X87936743Y-186350501D01*
X87936746Y-186350501D01*
X88102453Y-186350501D01*
X88102469Y-186350500D01*
X89068682Y-186350500D01*
X89135721Y-186370185D01*
X89169139Y-186404324D01*
X89170192Y-186403560D01*
X89289115Y-186567246D01*
X89428753Y-186706884D01*
X89578234Y-186815486D01*
X89588499Y-186822944D01*
X89764439Y-186912591D01*
X89860719Y-186943874D01*
X89952236Y-186973610D01*
X90147264Y-187004500D01*
X90147269Y-187004500D01*
X91852736Y-187004500D01*
X92047763Y-186973610D01*
X92235561Y-186912591D01*
X92411501Y-186822944D01*
X92502015Y-186757182D01*
X92571246Y-186706884D01*
X92571248Y-186706881D01*
X92571252Y-186706879D01*
X92710879Y-186567252D01*
X92710881Y-186567248D01*
X92710884Y-186567246D01*
X92774181Y-186480123D01*
X92826944Y-186407501D01*
X92916591Y-186231561D01*
X92977610Y-186043763D01*
X92991111Y-185958520D01*
X93008500Y-185848736D01*
X93008500Y-185651263D01*
X92977610Y-185456236D01*
X92952533Y-185379057D01*
X92916591Y-185268439D01*
X92826944Y-185092499D01*
X92772885Y-185018092D01*
X92710884Y-184932753D01*
X92571246Y-184793115D01*
X92411504Y-184677058D01*
X92411503Y-184677057D01*
X92411501Y-184677056D01*
X92235561Y-184587409D01*
X92235558Y-184587408D01*
X92047763Y-184526389D01*
X91852736Y-184495500D01*
X91852731Y-184495500D01*
X90147269Y-184495500D01*
X90147264Y-184495500D01*
X89952236Y-184526389D01*
X89764441Y-184587408D01*
X89588495Y-184677058D01*
X89428753Y-184793115D01*
X89289115Y-184932753D01*
X89170192Y-185096440D01*
X89168761Y-185095400D01*
X89122593Y-185137167D01*
X89068682Y-185149500D01*
X88315897Y-185149500D01*
X88248858Y-185129815D01*
X88228216Y-185113181D01*
X86828216Y-183713181D01*
X86794731Y-183651858D01*
X86799715Y-183582166D01*
X86841587Y-183526233D01*
X86907051Y-183501816D01*
X86915897Y-183501500D01*
X92233803Y-183501500D01*
X92300842Y-183521185D01*
X92321484Y-183537819D01*
X94462181Y-185678516D01*
X94495666Y-185739839D01*
X94498500Y-185766197D01*
X94498500Y-192033802D01*
X94478815Y-192100841D01*
X94462181Y-192121483D01*
X88882789Y-197700873D01*
X88821466Y-197734358D01*
X88751774Y-197729374D01*
X88695841Y-197687502D01*
X88671424Y-197622038D01*
X88672635Y-197593794D01*
X88690969Y-197478039D01*
X88690969Y-197280656D01*
X88660090Y-197085699D01*
X88599099Y-196897984D01*
X88599097Y-196897978D01*
X88509489Y-196722116D01*
X88509485Y-196722110D01*
X88393463Y-196562421D01*
X88393462Y-196562419D01*
X87967299Y-196136254D01*
X87967297Y-196136254D01*
X87434139Y-196669413D01*
X87080585Y-196315859D01*
X87613745Y-195782701D01*
X87187579Y-195356535D01*
X87027890Y-195240513D01*
X86852020Y-195150902D01*
X86852017Y-195150901D01*
X86664298Y-195089909D01*
X86469342Y-195059031D01*
X86271960Y-195059031D01*
X86077003Y-195089909D01*
X85889284Y-195150901D01*
X85889281Y-195150902D01*
X85713409Y-195240514D01*
X85677660Y-195266486D01*
X85677660Y-195266487D01*
X86244071Y-195832898D01*
X86180488Y-195849935D01*
X86066473Y-195915761D01*
X85973381Y-196008853D01*
X85907555Y-196122868D01*
X85890518Y-196186451D01*
X85324107Y-195620040D01*
X85324106Y-195620040D01*
X85298134Y-195655789D01*
X85208522Y-195831661D01*
X85208521Y-195831664D01*
X85147529Y-196019383D01*
X85116651Y-196214339D01*
X85116651Y-196411722D01*
X85147529Y-196606678D01*
X85208521Y-196794397D01*
X85208522Y-196794400D01*
X85298133Y-196970270D01*
X85414155Y-197129958D01*
X85414155Y-197129959D01*
X85840321Y-197556125D01*
X86373479Y-197022966D01*
X86727033Y-197376519D01*
X86193874Y-197909678D01*
X86620039Y-198335842D01*
X86620041Y-198335843D01*
X86779730Y-198451865D01*
X86779736Y-198451869D01*
X86955598Y-198541477D01*
X86955604Y-198541479D01*
X87143320Y-198602470D01*
X87143319Y-198602470D01*
X87338277Y-198633349D01*
X87535660Y-198633349D01*
X87651415Y-198615015D01*
X87720708Y-198623969D01*
X87774160Y-198668966D01*
X87794800Y-198735717D01*
X87776075Y-198803031D01*
X87758494Y-198825169D01*
X87030286Y-199553378D01*
X86918481Y-199665182D01*
X86918479Y-199665185D01*
X86868361Y-199751994D01*
X86868359Y-199751996D01*
X86839425Y-199802109D01*
X86839424Y-199802110D01*
X86839423Y-199802115D01*
X86798499Y-199954843D01*
X86798499Y-199954845D01*
X86798499Y-200122946D01*
X86798500Y-200122959D01*
X86798500Y-207833803D01*
X86778815Y-207900842D01*
X86762181Y-207921484D01*
X85220484Y-209463181D01*
X85159161Y-209496666D01*
X85132803Y-209499500D01*
X83650097Y-209499500D01*
X83583058Y-209479815D01*
X83562416Y-209463181D01*
X82790819Y-208691584D01*
X82757334Y-208630261D01*
X82754500Y-208603903D01*
X82754500Y-207397263D01*
X82723610Y-207202236D01*
X82691280Y-207102736D01*
X82662591Y-207014439D01*
X82572944Y-206838499D01*
X82551931Y-206809577D01*
X82456884Y-206678753D01*
X82317246Y-206539115D01*
X82157504Y-206423058D01*
X82157503Y-206423057D01*
X82157501Y-206423056D01*
X81981561Y-206333409D01*
X81981558Y-206333408D01*
X81793763Y-206272389D01*
X81598736Y-206241500D01*
X81598731Y-206241500D01*
X81401269Y-206241500D01*
X81401264Y-206241500D01*
X81206236Y-206272389D01*
X81018441Y-206333408D01*
X80842495Y-206423058D01*
X80682753Y-206539115D01*
X80543115Y-206678753D01*
X80427058Y-206838495D01*
X80337408Y-207014441D01*
X80276389Y-207202236D01*
X80245500Y-207397263D01*
X80245500Y-209102736D01*
X80276389Y-209297763D01*
X80330137Y-209463181D01*
X80337409Y-209485561D01*
X80427056Y-209661501D01*
X80427058Y-209661504D01*
X80543115Y-209821246D01*
X80682753Y-209960884D01*
X80832234Y-210069486D01*
X80842499Y-210076944D01*
X81018439Y-210166591D01*
X81143637Y-210207270D01*
X81206236Y-210227610D01*
X81401264Y-210258500D01*
X81401269Y-210258500D01*
X81598736Y-210258500D01*
X81793763Y-210227610D01*
X81981561Y-210166591D01*
X82157501Y-210076944D01*
X82257284Y-210004448D01*
X82323090Y-209980968D01*
X82391144Y-209996793D01*
X82417850Y-210017085D01*
X82865139Y-210464374D01*
X82865149Y-210464385D01*
X82869479Y-210468715D01*
X82869480Y-210468716D01*
X82981284Y-210580520D01*
X83068095Y-210630639D01*
X83118215Y-210659577D01*
X83122897Y-210660831D01*
X83133929Y-210666915D01*
X83153864Y-210687016D01*
X83175907Y-210704779D01*
X83178143Y-210711497D01*
X83183129Y-210716525D01*
X83189031Y-210744210D01*
X83197972Y-210771073D01*
X83196220Y-210777934D01*
X83197697Y-210784859D01*
X83187694Y-210811342D01*
X83180693Y-210838773D01*
X83175511Y-210843597D01*
X83173009Y-210850222D01*
X83150274Y-210867094D01*
X83129556Y-210886384D01*
X83121818Y-210888212D01*
X83116902Y-210891861D01*
X83102183Y-210892852D01*
X83074051Y-210899500D01*
X68550097Y-210899500D01*
X68483058Y-210879815D01*
X68462416Y-210863181D01*
X66290819Y-208691584D01*
X66257334Y-208630261D01*
X66254500Y-208603903D01*
X66254500Y-207397263D01*
X66223610Y-207202236D01*
X66191280Y-207102736D01*
X66162591Y-207014439D01*
X66072944Y-206838499D01*
X66051931Y-206809577D01*
X65956884Y-206678753D01*
X65817246Y-206539115D01*
X65657504Y-206423058D01*
X65657503Y-206423057D01*
X65657501Y-206423056D01*
X65481561Y-206333409D01*
X65481558Y-206333408D01*
X65293763Y-206272389D01*
X65098736Y-206241500D01*
X65098731Y-206241500D01*
X64901269Y-206241500D01*
X64901264Y-206241500D01*
X64706236Y-206272389D01*
X64518441Y-206333408D01*
X64342495Y-206423058D01*
X64182753Y-206539115D01*
X64043115Y-206678753D01*
X63927058Y-206838495D01*
X63837408Y-207014441D01*
X63776389Y-207202236D01*
X63745500Y-207397263D01*
X63745500Y-209102736D01*
X63776389Y-209297763D01*
X63830137Y-209463181D01*
X63837409Y-209485561D01*
X63927056Y-209661501D01*
X63927058Y-209661504D01*
X64043115Y-209821246D01*
X64182753Y-209960884D01*
X64332234Y-210069486D01*
X64342499Y-210076944D01*
X64518439Y-210166591D01*
X64643637Y-210207270D01*
X64706236Y-210227610D01*
X64901264Y-210258500D01*
X64901269Y-210258500D01*
X65098736Y-210258500D01*
X65293763Y-210227610D01*
X65481561Y-210166591D01*
X65657501Y-210076944D01*
X65757284Y-210004448D01*
X65823090Y-209980968D01*
X65891144Y-209996793D01*
X65917850Y-210017085D01*
X67765139Y-211864374D01*
X67765149Y-211864385D01*
X67769479Y-211868715D01*
X67769480Y-211868716D01*
X67881284Y-211980520D01*
X67968095Y-212030639D01*
X67968097Y-212030641D01*
X68006151Y-212052611D01*
X68018215Y-212059577D01*
X68170943Y-212100500D01*
X68329057Y-212100500D01*
X84513331Y-212100500D01*
X84513347Y-212100501D01*
X84520943Y-212100501D01*
X84679054Y-212100501D01*
X84679057Y-212100501D01*
X84831785Y-212059577D01*
X84881904Y-212030639D01*
X84968716Y-211980520D01*
X85080520Y-211868716D01*
X85080520Y-211868714D01*
X85090728Y-211858507D01*
X85090730Y-211858504D01*
X88158506Y-208790728D01*
X88158511Y-208790724D01*
X88168714Y-208780520D01*
X88168716Y-208780520D01*
X88280520Y-208668716D01*
X88359577Y-208531784D01*
X88400500Y-208379057D01*
X88400500Y-200500096D01*
X88420185Y-200433057D01*
X88436814Y-200412420D01*
X95858506Y-192990727D01*
X95858511Y-192990724D01*
X95868714Y-192980520D01*
X95868716Y-192980520D01*
X95980520Y-192868716D01*
X96059577Y-192731784D01*
X96100500Y-192579057D01*
X96100500Y-185389059D01*
X96100501Y-185389046D01*
X96100501Y-185220945D01*
X96100501Y-185220943D01*
X96059577Y-185068215D01*
X96030639Y-185018095D01*
X95980520Y-184931284D01*
X95868716Y-184819480D01*
X95868715Y-184819479D01*
X95864385Y-184815149D01*
X95864374Y-184815139D01*
X93187590Y-182138355D01*
X93187588Y-182138352D01*
X93068717Y-182019481D01*
X93068716Y-182019480D01*
X92981904Y-181969360D01*
X92981904Y-181969359D01*
X92981900Y-181969358D01*
X92931785Y-181940423D01*
X92779057Y-181899499D01*
X92620943Y-181899499D01*
X92613347Y-181899499D01*
X92613331Y-181899500D01*
X88154929Y-181899500D01*
X88087890Y-181879815D01*
X88067248Y-181863181D01*
X87563549Y-181359482D01*
X87627132Y-181342446D01*
X87741148Y-181276620D01*
X87834240Y-181183528D01*
X87900066Y-181069512D01*
X87917102Y-181005929D01*
X88483510Y-181572337D01*
X88483512Y-181572337D01*
X88509485Y-181536590D01*
X88599097Y-181360718D01*
X88599098Y-181360715D01*
X88660090Y-181172996D01*
X88690969Y-180978040D01*
X88690969Y-180780656D01*
X88660090Y-180585699D01*
X88599099Y-180397984D01*
X88599097Y-180397978D01*
X88509489Y-180222116D01*
X88509485Y-180222110D01*
X88393463Y-180062421D01*
X88393462Y-180062419D01*
X87967299Y-179636254D01*
X87967298Y-179636254D01*
X87434138Y-180169412D01*
X87080585Y-179815859D01*
X87613745Y-179282701D01*
X87187579Y-178856535D01*
X87027890Y-178740513D01*
X86852020Y-178650902D01*
X86852017Y-178650901D01*
X86664298Y-178589909D01*
X86469342Y-178559031D01*
X86271960Y-178559031D01*
X86077003Y-178589909D01*
X85889284Y-178650901D01*
X85889281Y-178650902D01*
X85713409Y-178740514D01*
X85677660Y-178766486D01*
X85677660Y-178766487D01*
X86244071Y-179332898D01*
X86180488Y-179349935D01*
X86066473Y-179415761D01*
X85973381Y-179508853D01*
X85907555Y-179622868D01*
X85890518Y-179686451D01*
X85324107Y-179120040D01*
X85324106Y-179120040D01*
X85298134Y-179155789D01*
X85208522Y-179331661D01*
X85208521Y-179331664D01*
X85147529Y-179519383D01*
X85116651Y-179714339D01*
X85116651Y-179911722D01*
X85147529Y-180106678D01*
X85208521Y-180294397D01*
X85208522Y-180294400D01*
X85298133Y-180470270D01*
X85414155Y-180629958D01*
X85414155Y-180629959D01*
X85840321Y-181056125D01*
X86373479Y-180522966D01*
X86727032Y-180876519D01*
X86193874Y-181409678D01*
X86472015Y-181687819D01*
X86482627Y-181707255D01*
X86497128Y-181723989D01*
X86499044Y-181737320D01*
X86505500Y-181749142D01*
X86503920Y-181771228D01*
X86507072Y-181793147D01*
X86501476Y-181805398D01*
X86500516Y-181818833D01*
X86487246Y-181836559D01*
X86478047Y-181856703D01*
X86466716Y-181863984D01*
X86458645Y-181874767D01*
X86437897Y-181882505D01*
X86419269Y-181894477D01*
X86397350Y-181897628D01*
X86393180Y-181899184D01*
X86384334Y-181899500D01*
X86200098Y-181899500D01*
X86133059Y-181879815D01*
X86112417Y-181863181D01*
X83150663Y-178901427D01*
X81692260Y-177443025D01*
X81658775Y-177381702D01*
X81663759Y-177312010D01*
X81705631Y-177256077D01*
X81760540Y-177232871D01*
X81793763Y-177227610D01*
X81981561Y-177166591D01*
X82157501Y-177076944D01*
X82247192Y-177011779D01*
X82317246Y-176960884D01*
X82317248Y-176960881D01*
X82317252Y-176960879D01*
X82456879Y-176821252D01*
X82456881Y-176821248D01*
X82456884Y-176821246D01*
X82507779Y-176751192D01*
X82572944Y-176661501D01*
X82662591Y-176485561D01*
X82723610Y-176297763D01*
X82747031Y-176149890D01*
X82754500Y-176102736D01*
X82754500Y-174397263D01*
X82723610Y-174202236D01*
X82691280Y-174102736D01*
X82662591Y-174014439D01*
X82572944Y-173838499D01*
X82565486Y-173828234D01*
X82456884Y-173678753D01*
X82317246Y-173539115D01*
X82153560Y-173420192D01*
X82154599Y-173418761D01*
X82152741Y-173416708D01*
X82143297Y-173412395D01*
X82129701Y-173391239D01*
X82112833Y-173372593D01*
X82110132Y-173360790D01*
X82105523Y-173353617D01*
X82100500Y-173318682D01*
X82100500Y-173234297D01*
X82120185Y-173167258D01*
X82136819Y-173146616D01*
X82886172Y-172397263D01*
X83745500Y-172397263D01*
X83745500Y-174102736D01*
X83776389Y-174297763D01*
X83808719Y-174397263D01*
X83837409Y-174485561D01*
X83861944Y-174533713D01*
X83927058Y-174661504D01*
X84043115Y-174821246D01*
X84182753Y-174960884D01*
X84332234Y-175069486D01*
X84342499Y-175076944D01*
X84518439Y-175166591D01*
X84643637Y-175207270D01*
X84706236Y-175227610D01*
X84901264Y-175258500D01*
X84901269Y-175258500D01*
X85098736Y-175258500D01*
X85293763Y-175227610D01*
X85481561Y-175166591D01*
X85657501Y-175076944D01*
X85747192Y-175011779D01*
X85817246Y-174960884D01*
X85817248Y-174960881D01*
X85817252Y-174960879D01*
X85956879Y-174821252D01*
X85956881Y-174821248D01*
X85956884Y-174821246D01*
X86011345Y-174746286D01*
X86072944Y-174661501D01*
X86162591Y-174485561D01*
X86223610Y-174297763D01*
X86238740Y-174202236D01*
X86254500Y-174102736D01*
X86254500Y-172397263D01*
X86223610Y-172202236D01*
X86185270Y-172084239D01*
X86162591Y-172014439D01*
X86072944Y-171838499D01*
X86034555Y-171785660D01*
X85956884Y-171678753D01*
X85817246Y-171539115D01*
X85657504Y-171423058D01*
X85657503Y-171423057D01*
X85657501Y-171423056D01*
X85481561Y-171333409D01*
X85481558Y-171333408D01*
X85293763Y-171272389D01*
X85098736Y-171241500D01*
X85098731Y-171241500D01*
X84901269Y-171241500D01*
X84901264Y-171241500D01*
X84706236Y-171272389D01*
X84518441Y-171333408D01*
X84342495Y-171423058D01*
X84182753Y-171539115D01*
X84043115Y-171678753D01*
X83927058Y-171838495D01*
X83837408Y-172014441D01*
X83776389Y-172202236D01*
X83745500Y-172397263D01*
X82886172Y-172397263D01*
X86746616Y-168536819D01*
X86807939Y-168503334D01*
X86834297Y-168500500D01*
X89017582Y-168500500D01*
X89084621Y-168520185D01*
X89130376Y-168572989D01*
X89140320Y-168642147D01*
X89128068Y-168680791D01*
X89083409Y-168768439D01*
X89083408Y-168768441D01*
X89022389Y-168956236D01*
X88991500Y-169151263D01*
X88991500Y-169348736D01*
X89022389Y-169543763D01*
X89061507Y-169664153D01*
X89083409Y-169731561D01*
X89173056Y-169907501D01*
X89173058Y-169907504D01*
X89289115Y-170067246D01*
X89428753Y-170206884D01*
X89578234Y-170315486D01*
X89588499Y-170322944D01*
X89764439Y-170412591D01*
X89860719Y-170443874D01*
X89952236Y-170473610D01*
X90147264Y-170504500D01*
X90147269Y-170504500D01*
X91852736Y-170504500D01*
X92047763Y-170473610D01*
X92235561Y-170412591D01*
X92411501Y-170322944D01*
X92501192Y-170257779D01*
X92571246Y-170206884D01*
X92571248Y-170206881D01*
X92571252Y-170206879D01*
X92710879Y-170067252D01*
X92710881Y-170067248D01*
X92710884Y-170067246D01*
X92761779Y-169997192D01*
X92826944Y-169907501D01*
X92916591Y-169731561D01*
X92977610Y-169543763D01*
X92991111Y-169458520D01*
X93008500Y-169348736D01*
X93008500Y-169151263D01*
X92977610Y-168956236D01*
X92943884Y-168852439D01*
X92916591Y-168768439D01*
X92826944Y-168592499D01*
X92812769Y-168572989D01*
X92754448Y-168492715D01*
X92730968Y-168426909D01*
X92746794Y-168358855D01*
X92767081Y-168332153D01*
X95658506Y-165440727D01*
X95658511Y-165440724D01*
X95668714Y-165430520D01*
X95668716Y-165430520D01*
X95780520Y-165318716D01*
X95838495Y-165218300D01*
X95859577Y-165181785D01*
X95900500Y-165029058D01*
X95900500Y-164870943D01*
X95900500Y-151120943D01*
X95859577Y-150968216D01*
X95859573Y-150968209D01*
X95780524Y-150831290D01*
X95780521Y-150831286D01*
X95780520Y-150831284D01*
X95668716Y-150719480D01*
X95668715Y-150719479D01*
X95664385Y-150715149D01*
X95664374Y-150715139D01*
X92235819Y-147286584D01*
X92202334Y-147225261D01*
X92199500Y-147198903D01*
X92199500Y-139388097D01*
X92219185Y-139321058D01*
X92271989Y-139275303D01*
X92341147Y-139265359D01*
X92404703Y-139294384D01*
X92411181Y-139300416D01*
X95866241Y-142755476D01*
X95899726Y-142816799D01*
X95896492Y-142881473D01*
X95882753Y-142923757D01*
X95849500Y-143133713D01*
X95849500Y-143346286D01*
X95882753Y-143556239D01*
X95948444Y-143758414D01*
X96044951Y-143947820D01*
X96169890Y-144119786D01*
X96320213Y-144270109D01*
X96492179Y-144395048D01*
X96492181Y-144395049D01*
X96492184Y-144395051D01*
X96501493Y-144399794D01*
X96552290Y-144447766D01*
X96569087Y-144515587D01*
X96546552Y-144581722D01*
X96501505Y-144620760D01*
X96492446Y-144625376D01*
X96492440Y-144625380D01*
X96438282Y-144664727D01*
X96438282Y-144664728D01*
X97070591Y-145297037D01*
X97007007Y-145314075D01*
X96892993Y-145379901D01*
X96799901Y-145472993D01*
X96734075Y-145587007D01*
X96717037Y-145650591D01*
X96084728Y-145018282D01*
X96084727Y-145018282D01*
X96045380Y-145072439D01*
X95948904Y-145261782D01*
X95883242Y-145463869D01*
X95883242Y-145463872D01*
X95850000Y-145673753D01*
X95850000Y-145886246D01*
X95883242Y-146096127D01*
X95883242Y-146096130D01*
X95948904Y-146298217D01*
X96045375Y-146487550D01*
X96084728Y-146541716D01*
X96717037Y-145909408D01*
X96734075Y-145972993D01*
X96799901Y-146087007D01*
X96892993Y-146180099D01*
X97007007Y-146245925D01*
X97070589Y-146262962D01*
X96438282Y-146895269D01*
X96438282Y-146895270D01*
X96492449Y-146934624D01*
X96681782Y-147031095D01*
X96883870Y-147096757D01*
X97093754Y-147130000D01*
X97306246Y-147130000D01*
X97516127Y-147096757D01*
X97516130Y-147096757D01*
X97636182Y-147057750D01*
X97706023Y-147055755D01*
X97765856Y-147091835D01*
X97796684Y-147154536D01*
X97798500Y-147175681D01*
X97798500Y-194550903D01*
X97778815Y-194617942D01*
X97762181Y-194638584D01*
X91441584Y-200959181D01*
X91380261Y-200992666D01*
X91353903Y-200995500D01*
X90147264Y-200995500D01*
X89952236Y-201026389D01*
X89764441Y-201087408D01*
X89588495Y-201177058D01*
X89428753Y-201293115D01*
X89289115Y-201432753D01*
X89173058Y-201592495D01*
X89083408Y-201768441D01*
X89022389Y-201956236D01*
X88991500Y-202151263D01*
X88991500Y-202348736D01*
X89022389Y-202543763D01*
X89061507Y-202664153D01*
X89083409Y-202731561D01*
X89173056Y-202907501D01*
X89173058Y-202907504D01*
X89289115Y-203067246D01*
X89428753Y-203206884D01*
X89578234Y-203315486D01*
X89588499Y-203322944D01*
X89764439Y-203412591D01*
X89860719Y-203443874D01*
X89952236Y-203473610D01*
X90147264Y-203504500D01*
X90147269Y-203504500D01*
X91852736Y-203504500D01*
X92047763Y-203473610D01*
X92235561Y-203412591D01*
X92411501Y-203322944D01*
X92501192Y-203257779D01*
X92571246Y-203206884D01*
X92571248Y-203206881D01*
X92571252Y-203206879D01*
X92710879Y-203067252D01*
X92710881Y-203067248D01*
X92710884Y-203067246D01*
X92761779Y-202997192D01*
X92826944Y-202907501D01*
X92916591Y-202731561D01*
X92977610Y-202543763D01*
X92991111Y-202458520D01*
X93008500Y-202348736D01*
X93008500Y-202151263D01*
X92977610Y-201956236D01*
X92957270Y-201893637D01*
X92916591Y-201768439D01*
X92826944Y-201592499D01*
X92818975Y-201581531D01*
X92754448Y-201492715D01*
X92730968Y-201426909D01*
X92746794Y-201358855D01*
X92767081Y-201332153D01*
X98287819Y-195811416D01*
X98349142Y-195777931D01*
X98418834Y-195782915D01*
X98474767Y-195824787D01*
X98499184Y-195890251D01*
X98499500Y-195899097D01*
X98499500Y-216875500D01*
X98479815Y-216942539D01*
X98427011Y-216988294D01*
X98375500Y-216999500D01*
X51624500Y-216999500D01*
X51557461Y-216979815D01*
X51511706Y-216927011D01*
X51500500Y-216875500D01*
X51500500Y-212714339D01*
X85116651Y-212714339D01*
X85116651Y-212911722D01*
X85147529Y-213106678D01*
X85208521Y-213294397D01*
X85208522Y-213294400D01*
X85298133Y-213470270D01*
X85414155Y-213629958D01*
X85414155Y-213629959D01*
X85840321Y-214056125D01*
X86373479Y-213522966D01*
X86727032Y-213876519D01*
X86193874Y-214409678D01*
X86620039Y-214835842D01*
X86620041Y-214835843D01*
X86779730Y-214951865D01*
X86779736Y-214951869D01*
X86955598Y-215041477D01*
X86955604Y-215041479D01*
X87143320Y-215102470D01*
X87143319Y-215102470D01*
X87338277Y-215133349D01*
X87535660Y-215133349D01*
X87730616Y-215102470D01*
X87918335Y-215041478D01*
X87918338Y-215041477D01*
X88094210Y-214951865D01*
X88129957Y-214925892D01*
X88129957Y-214925890D01*
X87563549Y-214359482D01*
X87627132Y-214342446D01*
X87741148Y-214276620D01*
X87834240Y-214183528D01*
X87900066Y-214069512D01*
X87917102Y-214005929D01*
X88483510Y-214572337D01*
X88483512Y-214572337D01*
X88509485Y-214536590D01*
X88599097Y-214360718D01*
X88599098Y-214360715D01*
X88660090Y-214172996D01*
X88690969Y-213978040D01*
X88690969Y-213780656D01*
X88660090Y-213585699D01*
X88599099Y-213397984D01*
X88599097Y-213397978D01*
X88509489Y-213222116D01*
X88509485Y-213222110D01*
X88393463Y-213062421D01*
X88393462Y-213062419D01*
X87967299Y-212636254D01*
X87967298Y-212636254D01*
X87434138Y-213169412D01*
X87080585Y-212815859D01*
X87613745Y-212282701D01*
X87187579Y-211856535D01*
X87027890Y-211740513D01*
X86852020Y-211650902D01*
X86852017Y-211650901D01*
X86664298Y-211589909D01*
X86469342Y-211559031D01*
X86271960Y-211559031D01*
X86077003Y-211589909D01*
X85889284Y-211650901D01*
X85889281Y-211650902D01*
X85713409Y-211740514D01*
X85677660Y-211766486D01*
X85677660Y-211766487D01*
X86244071Y-212332898D01*
X86180488Y-212349935D01*
X86066473Y-212415761D01*
X85973381Y-212508853D01*
X85907555Y-212622868D01*
X85890518Y-212686451D01*
X85324107Y-212120040D01*
X85324106Y-212120040D01*
X85298134Y-212155789D01*
X85208522Y-212331661D01*
X85208521Y-212331664D01*
X85147529Y-212519383D01*
X85116651Y-212714339D01*
X51500500Y-212714339D01*
X51500500Y-204588277D01*
X52116651Y-204588277D01*
X52116651Y-204785660D01*
X52147529Y-204980616D01*
X52208521Y-205168335D01*
X52208522Y-205168338D01*
X52298134Y-205344210D01*
X52324106Y-205379958D01*
X52324107Y-205379958D01*
X52890517Y-204813547D01*
X52907555Y-204877132D01*
X52973381Y-204991147D01*
X53066473Y-205084239D01*
X53180488Y-205150065D01*
X53244069Y-205167101D01*
X52677660Y-205733510D01*
X52677660Y-205733511D01*
X52713415Y-205759488D01*
X52889281Y-205849097D01*
X52889284Y-205849098D01*
X53077003Y-205910090D01*
X53271960Y-205940969D01*
X53469342Y-205940969D01*
X53664298Y-205910090D01*
X53852017Y-205849098D01*
X53852020Y-205849097D01*
X54027890Y-205759486D01*
X54187578Y-205643464D01*
X54187579Y-205643464D01*
X54613745Y-205217298D01*
X54613745Y-205217297D01*
X54080586Y-204684139D01*
X54434139Y-204330586D01*
X54967297Y-204863745D01*
X55393463Y-204437579D01*
X55393463Y-204437578D01*
X55509485Y-204277889D01*
X55509489Y-204277883D01*
X55599097Y-204102021D01*
X55599099Y-204102015D01*
X55660090Y-203914300D01*
X55690969Y-203719343D01*
X55690969Y-203521959D01*
X55660090Y-203327003D01*
X55599098Y-203139284D01*
X55599097Y-203139281D01*
X55509489Y-202963419D01*
X55509481Y-202963406D01*
X55483511Y-202927661D01*
X55483510Y-202927660D01*
X54917102Y-203494068D01*
X54900066Y-203430488D01*
X54834240Y-203316472D01*
X54741148Y-203223380D01*
X54627132Y-203157554D01*
X54563548Y-203140516D01*
X55129958Y-202574108D01*
X55094208Y-202548134D01*
X54918338Y-202458522D01*
X54918335Y-202458521D01*
X54730616Y-202397529D01*
X54535660Y-202366651D01*
X54338277Y-202366651D01*
X54143319Y-202397529D01*
X53955604Y-202458520D01*
X53955598Y-202458522D01*
X53779736Y-202548130D01*
X53779730Y-202548134D01*
X53620044Y-202664153D01*
X53193874Y-203090321D01*
X53727033Y-203623480D01*
X53373480Y-203977033D01*
X52840321Y-203443874D01*
X52840320Y-203443874D01*
X52414156Y-203870039D01*
X52414155Y-203870041D01*
X52298133Y-204029729D01*
X52208522Y-204205599D01*
X52208521Y-204205602D01*
X52147529Y-204393321D01*
X52116651Y-204588277D01*
X51500500Y-204588277D01*
X51500500Y-202151263D01*
X58991500Y-202151263D01*
X58991500Y-202348736D01*
X59022389Y-202543763D01*
X59061507Y-202664153D01*
X59083409Y-202731561D01*
X59173056Y-202907501D01*
X59173058Y-202907504D01*
X59289115Y-203067246D01*
X59428753Y-203206884D01*
X59578234Y-203315486D01*
X59588499Y-203322944D01*
X59764439Y-203412591D01*
X59860719Y-203443874D01*
X59952236Y-203473610D01*
X60147264Y-203504500D01*
X60147269Y-203504500D01*
X61852736Y-203504500D01*
X62047763Y-203473610D01*
X62235561Y-203412591D01*
X62411501Y-203322944D01*
X62501192Y-203257779D01*
X62571246Y-203206884D01*
X62571248Y-203206881D01*
X62571252Y-203206879D01*
X62710879Y-203067252D01*
X62710881Y-203067248D01*
X62710884Y-203067246D01*
X62761779Y-202997192D01*
X62826944Y-202907501D01*
X62916591Y-202731561D01*
X62977610Y-202543763D01*
X62991111Y-202458520D01*
X63008500Y-202348736D01*
X63008500Y-202151263D01*
X62977610Y-201956236D01*
X62957270Y-201893637D01*
X62916591Y-201768439D01*
X62826944Y-201592499D01*
X62819486Y-201582234D01*
X62710884Y-201432753D01*
X62571246Y-201293115D01*
X62411504Y-201177058D01*
X62411503Y-201177057D01*
X62411501Y-201177056D01*
X62235561Y-201087409D01*
X62235558Y-201087408D01*
X62047763Y-201026389D01*
X61852736Y-200995500D01*
X61852731Y-200995500D01*
X60147269Y-200995500D01*
X60147264Y-200995500D01*
X59952236Y-201026389D01*
X59764441Y-201087408D01*
X59588495Y-201177058D01*
X59428753Y-201293115D01*
X59289115Y-201432753D01*
X59173058Y-201592495D01*
X59083408Y-201768441D01*
X59022389Y-201956236D01*
X58991500Y-202151263D01*
X51500500Y-202151263D01*
X51500500Y-188088277D01*
X52116651Y-188088277D01*
X52116651Y-188285660D01*
X52147529Y-188480616D01*
X52208521Y-188668335D01*
X52208522Y-188668338D01*
X52298134Y-188844210D01*
X52324106Y-188879958D01*
X52324107Y-188879958D01*
X52890517Y-188313547D01*
X52907555Y-188377132D01*
X52973381Y-188491147D01*
X53066473Y-188584239D01*
X53180488Y-188650065D01*
X53244069Y-188667101D01*
X52677660Y-189233510D01*
X52677660Y-189233511D01*
X52713415Y-189259488D01*
X52889281Y-189349097D01*
X52889284Y-189349098D01*
X53077003Y-189410090D01*
X53271960Y-189440969D01*
X53469342Y-189440969D01*
X53664298Y-189410090D01*
X53852017Y-189349098D01*
X53852020Y-189349097D01*
X54027890Y-189259486D01*
X54187578Y-189143464D01*
X54187579Y-189143464D01*
X54613745Y-188717298D01*
X54613745Y-188717297D01*
X54080586Y-188184139D01*
X54434139Y-187830586D01*
X54967297Y-188363745D01*
X55393463Y-187937579D01*
X55393463Y-187937578D01*
X55509485Y-187777889D01*
X55509489Y-187777883D01*
X55599097Y-187602021D01*
X55599099Y-187602015D01*
X55660090Y-187414300D01*
X55690969Y-187219343D01*
X55690969Y-187021959D01*
X55660090Y-186827003D01*
X55599098Y-186639284D01*
X55599097Y-186639281D01*
X55509489Y-186463419D01*
X55509481Y-186463406D01*
X55483511Y-186427661D01*
X55483510Y-186427660D01*
X54917102Y-186994068D01*
X54900066Y-186930488D01*
X54834240Y-186816472D01*
X54741148Y-186723380D01*
X54627132Y-186657554D01*
X54563548Y-186640516D01*
X55129958Y-186074108D01*
X55094208Y-186048134D01*
X54918338Y-185958522D01*
X54918335Y-185958521D01*
X54730616Y-185897529D01*
X54535660Y-185866651D01*
X54338277Y-185866651D01*
X54143319Y-185897529D01*
X53955604Y-185958520D01*
X53955598Y-185958522D01*
X53779736Y-186048130D01*
X53779730Y-186048134D01*
X53620044Y-186164153D01*
X53193874Y-186590321D01*
X53727033Y-187123480D01*
X53373480Y-187477033D01*
X52840321Y-186943874D01*
X52840320Y-186943874D01*
X52414156Y-187370039D01*
X52414155Y-187370041D01*
X52298133Y-187529729D01*
X52208522Y-187705599D01*
X52208521Y-187705602D01*
X52147529Y-187893321D01*
X52116651Y-188088277D01*
X51500500Y-188088277D01*
X51500500Y-171993713D01*
X56097000Y-171993713D01*
X56097000Y-172206286D01*
X56130253Y-172416239D01*
X56195944Y-172618414D01*
X56292451Y-172807820D01*
X56417390Y-172979786D01*
X56567713Y-173130109D01*
X56739682Y-173255050D01*
X56748446Y-173259516D01*
X56799242Y-173307491D01*
X56816036Y-173375312D01*
X56793498Y-173441447D01*
X56748446Y-173480484D01*
X56739682Y-173484949D01*
X56567713Y-173609890D01*
X56417390Y-173760213D01*
X56292451Y-173932179D01*
X56195944Y-174121585D01*
X56130253Y-174323760D01*
X56097000Y-174533713D01*
X56097000Y-174746287D01*
X56130254Y-174956243D01*
X56169472Y-175076944D01*
X56195944Y-175158414D01*
X56292451Y-175347820D01*
X56417390Y-175519786D01*
X56567709Y-175670105D01*
X56572606Y-175673663D01*
X56615271Y-175728994D01*
X56621250Y-175798607D01*
X56588644Y-175860402D01*
X56538729Y-175891685D01*
X56528173Y-175895183D01*
X56528163Y-175895187D01*
X56378842Y-175987289D01*
X56254789Y-176111342D01*
X56162687Y-176260663D01*
X56162685Y-176260668D01*
X56150393Y-176297763D01*
X56107501Y-176427203D01*
X56107501Y-176427204D01*
X56107500Y-176427204D01*
X56097000Y-176529983D01*
X56097000Y-177830001D01*
X56097001Y-177830018D01*
X56107500Y-177932796D01*
X56107501Y-177932799D01*
X56149581Y-178059786D01*
X56162686Y-178099334D01*
X56254788Y-178248656D01*
X56378844Y-178372712D01*
X56528166Y-178464814D01*
X56694703Y-178519999D01*
X56797491Y-178530500D01*
X57680952Y-178530499D01*
X57747991Y-178550183D01*
X57793746Y-178602987D01*
X57804922Y-178657244D01*
X57804591Y-178672169D01*
X57800499Y-178687443D01*
X57800499Y-178845557D01*
X57800500Y-178845560D01*
X57800500Y-178856949D01*
X57800500Y-195114330D01*
X57800499Y-195114348D01*
X57800499Y-195280054D01*
X57800498Y-195280054D01*
X57841423Y-195432785D01*
X57870358Y-195482900D01*
X57870359Y-195482904D01*
X57870360Y-195482904D01*
X57920479Y-195569714D01*
X57920481Y-195569717D01*
X58039349Y-195688585D01*
X58039354Y-195688589D01*
X69081284Y-206730520D01*
X69081286Y-206730521D01*
X69081290Y-206730524D01*
X69218209Y-206809573D01*
X69218216Y-206809577D01*
X69370943Y-206850501D01*
X69370945Y-206850501D01*
X69536654Y-206850501D01*
X69536670Y-206850500D01*
X73263331Y-206850500D01*
X73263347Y-206850501D01*
X73270943Y-206850501D01*
X73429054Y-206850501D01*
X73429057Y-206850501D01*
X73581785Y-206809577D01*
X73631904Y-206780639D01*
X73718716Y-206730520D01*
X73830520Y-206618716D01*
X73830520Y-206618714D01*
X73840728Y-206608507D01*
X73840729Y-206608504D01*
X75112416Y-205336819D01*
X75173739Y-205303334D01*
X75200097Y-205300500D01*
X83199903Y-205300500D01*
X83266942Y-205320185D01*
X83287584Y-205336819D01*
X83709181Y-205758416D01*
X83742666Y-205819739D01*
X83745500Y-205846097D01*
X83745500Y-207102736D01*
X83776389Y-207297763D01*
X83808719Y-207397263D01*
X83837409Y-207485561D01*
X83927056Y-207661501D01*
X83927058Y-207661504D01*
X84043115Y-207821246D01*
X84182753Y-207960884D01*
X84332234Y-208069486D01*
X84342499Y-208076944D01*
X84518439Y-208166591D01*
X84643637Y-208207270D01*
X84706236Y-208227610D01*
X84901264Y-208258500D01*
X84901269Y-208258500D01*
X85098736Y-208258500D01*
X85293763Y-208227610D01*
X85481561Y-208166591D01*
X85657501Y-208076944D01*
X85747192Y-208011779D01*
X85817246Y-207960884D01*
X85817248Y-207960881D01*
X85817252Y-207960879D01*
X85956879Y-207821252D01*
X85956881Y-207821248D01*
X85956884Y-207821246D01*
X86007779Y-207751192D01*
X86072944Y-207661501D01*
X86162591Y-207485561D01*
X86223610Y-207297763D01*
X86238740Y-207202236D01*
X86254500Y-207102736D01*
X86254500Y-205397263D01*
X86223610Y-205202236D01*
X86185270Y-205084239D01*
X86162591Y-205014439D01*
X86072944Y-204838499D01*
X86008622Y-204749966D01*
X85956884Y-204678753D01*
X85817246Y-204539115D01*
X85657504Y-204423058D01*
X85657503Y-204423057D01*
X85657501Y-204423056D01*
X85481561Y-204333409D01*
X85472876Y-204330587D01*
X85293763Y-204272389D01*
X85098736Y-204241500D01*
X85098731Y-204241500D01*
X84901269Y-204241500D01*
X84901264Y-204241500D01*
X84706236Y-204272389D01*
X84518441Y-204333408D01*
X84342499Y-204423055D01*
X84271675Y-204474512D01*
X84239541Y-204485976D01*
X84207636Y-204497877D01*
X84206736Y-204497681D01*
X84205868Y-204497991D01*
X84172654Y-204490267D01*
X84139363Y-204483025D01*
X84138394Y-204482300D01*
X84137814Y-204482165D01*
X84111109Y-204461874D01*
X83987590Y-204338355D01*
X83987588Y-204338352D01*
X83868717Y-204219481D01*
X83868716Y-204219480D01*
X83781904Y-204169360D01*
X83781904Y-204169359D01*
X83781900Y-204169358D01*
X83731785Y-204140423D01*
X83579057Y-204099499D01*
X83420943Y-204099499D01*
X83413347Y-204099499D01*
X83413331Y-204099500D01*
X74986669Y-204099500D01*
X74986653Y-204099499D01*
X74979057Y-204099499D01*
X74820943Y-204099499D01*
X74713587Y-204128265D01*
X74668210Y-204140424D01*
X74668209Y-204140425D01*
X74618096Y-204169359D01*
X74618095Y-204169360D01*
X74582124Y-204190128D01*
X74531285Y-204219479D01*
X74531282Y-204219481D01*
X74472881Y-204277883D01*
X74419480Y-204331284D01*
X74419478Y-204331286D01*
X73770149Y-204980616D01*
X73137584Y-205613181D01*
X73076261Y-205646666D01*
X73049903Y-205649500D01*
X70980906Y-205649500D01*
X70913867Y-205629815D01*
X70868112Y-205577011D01*
X70858168Y-205507853D01*
X70887193Y-205444297D01*
X70893225Y-205437819D01*
X71113745Y-205217298D01*
X71113745Y-205217297D01*
X70580586Y-204684139D01*
X70934139Y-204330586D01*
X71467297Y-204863745D01*
X71893463Y-204437579D01*
X71893463Y-204437578D01*
X72009485Y-204277889D01*
X72009489Y-204277883D01*
X72099097Y-204102021D01*
X72099099Y-204102015D01*
X72160090Y-203914300D01*
X72190969Y-203719343D01*
X72190969Y-203521959D01*
X72160090Y-203327003D01*
X72099098Y-203139284D01*
X72099097Y-203139281D01*
X72009489Y-202963419D01*
X72009481Y-202963406D01*
X71983511Y-202927661D01*
X71983510Y-202927660D01*
X71417102Y-203494068D01*
X71400066Y-203430488D01*
X71334240Y-203316472D01*
X71241148Y-203223380D01*
X71127132Y-203157554D01*
X71063548Y-203140516D01*
X71629958Y-202574108D01*
X71594208Y-202548134D01*
X71418338Y-202458522D01*
X71418335Y-202458521D01*
X71230616Y-202397529D01*
X71035660Y-202366651D01*
X70838277Y-202366651D01*
X70643319Y-202397529D01*
X70455604Y-202458520D01*
X70455598Y-202458522D01*
X70279736Y-202548130D01*
X70279730Y-202548134D01*
X70120044Y-202664153D01*
X69693874Y-203090321D01*
X70227033Y-203623480D01*
X69873480Y-203977033D01*
X69340322Y-203443874D01*
X69340320Y-203443874D01*
X68914156Y-203870039D01*
X68914155Y-203870041D01*
X68798133Y-204029729D01*
X68708522Y-204205599D01*
X68708521Y-204205602D01*
X68659791Y-204355580D01*
X68620353Y-204413256D01*
X68555995Y-204440454D01*
X68487148Y-204428539D01*
X68454179Y-204404943D01*
X59037819Y-194988583D01*
X59004334Y-194927260D01*
X59001500Y-194900902D01*
X59001500Y-186553008D01*
X59021185Y-186485969D01*
X59073989Y-186440214D01*
X59143147Y-186430270D01*
X59206703Y-186459295D01*
X59225819Y-186480123D01*
X59289121Y-186567252D01*
X59428753Y-186706884D01*
X59578234Y-186815486D01*
X59588499Y-186822944D01*
X59764439Y-186912591D01*
X59860719Y-186943874D01*
X59952236Y-186973610D01*
X60147264Y-187004500D01*
X60147269Y-187004500D01*
X61852736Y-187004500D01*
X62047763Y-186973610D01*
X62235561Y-186912591D01*
X62411501Y-186822944D01*
X62502015Y-186757182D01*
X62571246Y-186706884D01*
X62571248Y-186706881D01*
X62571252Y-186706879D01*
X62710879Y-186567252D01*
X62710881Y-186567248D01*
X62710884Y-186567246D01*
X62774181Y-186480123D01*
X62826944Y-186407501D01*
X62916591Y-186231561D01*
X62977610Y-186043763D01*
X62991111Y-185958520D01*
X63008500Y-185848736D01*
X63008500Y-185651263D01*
X62977610Y-185456236D01*
X62952533Y-185379057D01*
X62916591Y-185268439D01*
X62826944Y-185092499D01*
X62772885Y-185018092D01*
X62710884Y-184932753D01*
X62571246Y-184793115D01*
X62411504Y-184677058D01*
X62411503Y-184677057D01*
X62411501Y-184677056D01*
X62235561Y-184587409D01*
X62235558Y-184587408D01*
X62047763Y-184526389D01*
X61852736Y-184495500D01*
X61852731Y-184495500D01*
X60147269Y-184495500D01*
X60147264Y-184495500D01*
X59952236Y-184526389D01*
X59764441Y-184587408D01*
X59588495Y-184677058D01*
X59428753Y-184793115D01*
X59289119Y-184932749D01*
X59289115Y-184932754D01*
X59225818Y-185019876D01*
X59170488Y-185062542D01*
X59100875Y-185068521D01*
X59039080Y-185035915D01*
X59004723Y-184975077D01*
X59001500Y-184946991D01*
X59001500Y-179066596D01*
X59021185Y-178999557D01*
X59037815Y-178978919D01*
X59502978Y-178513755D01*
X59564299Y-178480272D01*
X59628973Y-178483506D01*
X59671257Y-178497246D01*
X59881213Y-178530500D01*
X59881214Y-178530500D01*
X60093786Y-178530500D01*
X60093787Y-178530500D01*
X60303743Y-178497246D01*
X60505912Y-178431557D01*
X60695316Y-178335051D01*
X60717289Y-178319086D01*
X60867286Y-178210109D01*
X60867288Y-178210106D01*
X60867292Y-178210104D01*
X61017604Y-178059792D01*
X61017606Y-178059788D01*
X61017609Y-178059786D01*
X61142548Y-177887820D01*
X61142547Y-177887820D01*
X61142551Y-177887816D01*
X61239057Y-177698412D01*
X61304746Y-177496243D01*
X61338000Y-177286287D01*
X61338000Y-177073713D01*
X61304746Y-176863757D01*
X61239057Y-176661588D01*
X61142551Y-176472184D01*
X61142549Y-176472181D01*
X61142548Y-176472179D01*
X61017609Y-176300213D01*
X60867286Y-176149890D01*
X60695320Y-176024951D01*
X60694615Y-176024591D01*
X60686554Y-176020485D01*
X60635759Y-175972512D01*
X60618963Y-175904692D01*
X60641499Y-175838556D01*
X60686554Y-175799515D01*
X60695316Y-175795051D01*
X60717289Y-175779086D01*
X60867286Y-175670109D01*
X60867288Y-175670106D01*
X60867292Y-175670104D01*
X61017604Y-175519792D01*
X61017606Y-175519788D01*
X61017609Y-175519786D01*
X61142548Y-175347820D01*
X61142547Y-175347820D01*
X61142551Y-175347816D01*
X61239057Y-175158412D01*
X61304746Y-174956243D01*
X61338000Y-174746287D01*
X61338000Y-174533713D01*
X61304746Y-174323757D01*
X61239057Y-174121588D01*
X61142551Y-173932184D01*
X61142549Y-173932181D01*
X61142548Y-173932179D01*
X61017609Y-173760213D01*
X60867286Y-173609890D01*
X60695320Y-173484951D01*
X60694615Y-173484591D01*
X60686554Y-173480485D01*
X60635759Y-173432512D01*
X60618963Y-173364692D01*
X60641499Y-173298556D01*
X60686554Y-173259515D01*
X60695316Y-173255051D01*
X60723882Y-173234297D01*
X60867286Y-173130109D01*
X60867293Y-173130103D01*
X60931214Y-173066182D01*
X61017604Y-172979792D01*
X61017606Y-172979788D01*
X61017609Y-172979786D01*
X61142548Y-172807820D01*
X61142547Y-172807820D01*
X61142551Y-172807816D01*
X61239057Y-172618412D01*
X61304746Y-172416243D01*
X61338000Y-172206287D01*
X61338000Y-171993713D01*
X61304746Y-171783757D01*
X61239057Y-171581588D01*
X61142551Y-171392184D01*
X61142549Y-171392181D01*
X61142548Y-171392179D01*
X61017609Y-171220213D01*
X60867286Y-171069890D01*
X60695317Y-170944949D01*
X60686004Y-170940204D01*
X60635207Y-170892230D01*
X60618412Y-170824409D01*
X60640949Y-170758274D01*
X60686007Y-170719232D01*
X60695055Y-170714622D01*
X60749216Y-170675270D01*
X60749217Y-170675270D01*
X60116908Y-170042962D01*
X60180493Y-170025925D01*
X60294507Y-169960099D01*
X60387599Y-169867007D01*
X60453425Y-169752993D01*
X60470462Y-169689408D01*
X61102770Y-170321717D01*
X61102770Y-170321716D01*
X61142122Y-170267554D01*
X61238595Y-170078217D01*
X61304257Y-169876130D01*
X61304257Y-169876127D01*
X61337500Y-169666246D01*
X61337500Y-169453753D01*
X61304257Y-169243872D01*
X61304257Y-169243869D01*
X61238595Y-169041782D01*
X61142124Y-168852449D01*
X61102770Y-168798282D01*
X61102769Y-168798282D01*
X60470462Y-169430590D01*
X60453425Y-169367007D01*
X60387599Y-169252993D01*
X60294507Y-169159901D01*
X60180493Y-169094075D01*
X60116909Y-169077037D01*
X60749216Y-168444728D01*
X60695050Y-168405375D01*
X60685454Y-168400486D01*
X60634657Y-168352512D01*
X60617861Y-168284692D01*
X60640397Y-168218556D01*
X60685454Y-168179514D01*
X60695054Y-168174622D01*
X60749216Y-168135270D01*
X60749217Y-168135270D01*
X60116908Y-167502962D01*
X60180493Y-167485925D01*
X60294507Y-167420099D01*
X60387599Y-167327007D01*
X60453425Y-167212993D01*
X60470462Y-167149408D01*
X61102770Y-167781717D01*
X61102770Y-167781716D01*
X61142122Y-167727554D01*
X61238595Y-167538217D01*
X61304257Y-167336130D01*
X61304257Y-167336127D01*
X61337500Y-167126246D01*
X61337500Y-166913753D01*
X61304257Y-166703872D01*
X61304257Y-166703869D01*
X61238595Y-166501782D01*
X61142124Y-166312449D01*
X61102770Y-166258282D01*
X61102769Y-166258282D01*
X60470462Y-166890590D01*
X60453425Y-166827007D01*
X60387599Y-166712993D01*
X60294507Y-166619901D01*
X60180493Y-166554075D01*
X60116909Y-166537037D01*
X60749216Y-165904728D01*
X60695050Y-165865375D01*
X60505717Y-165768904D01*
X60303629Y-165703242D01*
X60093746Y-165670000D01*
X59881254Y-165670000D01*
X59671372Y-165703242D01*
X59671369Y-165703242D01*
X59469282Y-165768904D01*
X59279939Y-165865380D01*
X59225782Y-165904727D01*
X59225782Y-165904728D01*
X59858091Y-166537037D01*
X59794507Y-166554075D01*
X59680493Y-166619901D01*
X59587401Y-166712993D01*
X59521575Y-166827007D01*
X59504537Y-166890591D01*
X58872228Y-166258282D01*
X58872227Y-166258282D01*
X58832880Y-166312440D01*
X58827983Y-166322051D01*
X58780006Y-166372845D01*
X58712184Y-166389638D01*
X58646050Y-166367098D01*
X58607016Y-166322048D01*
X58602126Y-166312452D01*
X58562770Y-166258282D01*
X58562769Y-166258282D01*
X57930462Y-166890590D01*
X57913425Y-166827007D01*
X57847599Y-166712993D01*
X57754507Y-166619901D01*
X57640493Y-166554075D01*
X57576909Y-166537037D01*
X58209216Y-165904728D01*
X58155050Y-165865375D01*
X57965717Y-165768904D01*
X57763629Y-165703242D01*
X57553746Y-165670000D01*
X57341254Y-165670000D01*
X57131372Y-165703242D01*
X57131369Y-165703242D01*
X56929282Y-165768904D01*
X56739939Y-165865380D01*
X56685782Y-165904727D01*
X56685782Y-165904728D01*
X57318091Y-166537037D01*
X57254507Y-166554075D01*
X57140493Y-166619901D01*
X57047401Y-166712993D01*
X56981575Y-166827007D01*
X56964537Y-166890591D01*
X56332228Y-166258282D01*
X56332227Y-166258282D01*
X56292880Y-166312439D01*
X56196404Y-166501782D01*
X56130742Y-166703869D01*
X56130742Y-166703872D01*
X56097500Y-166913753D01*
X56097500Y-167126246D01*
X56130742Y-167336127D01*
X56130742Y-167336130D01*
X56196404Y-167538217D01*
X56292875Y-167727550D01*
X56332228Y-167781716D01*
X56964537Y-167149408D01*
X56981575Y-167212993D01*
X57047401Y-167327007D01*
X57140493Y-167420099D01*
X57254507Y-167485925D01*
X57318091Y-167502962D01*
X56717471Y-168103581D01*
X56796211Y-168220895D01*
X56797420Y-168224729D01*
X56800344Y-168227491D01*
X56807843Y-168257778D01*
X56817227Y-168287529D01*
X56816171Y-168291408D01*
X56817138Y-168295312D01*
X56807073Y-168324844D01*
X56798883Y-168354947D01*
X56795897Y-168357640D01*
X56794600Y-168361447D01*
X56749551Y-168400483D01*
X56739940Y-168405380D01*
X56685782Y-168444727D01*
X56685782Y-168444728D01*
X57318091Y-169077037D01*
X57254507Y-169094075D01*
X57140493Y-169159901D01*
X57047401Y-169252993D01*
X56981575Y-169367007D01*
X56964537Y-169430591D01*
X56332228Y-168798282D01*
X56332227Y-168798282D01*
X56292880Y-168852439D01*
X56196404Y-169041782D01*
X56130742Y-169243869D01*
X56130742Y-169243872D01*
X56097500Y-169453753D01*
X56097500Y-169666246D01*
X56130742Y-169876127D01*
X56130742Y-169876130D01*
X56196404Y-170078217D01*
X56292875Y-170267550D01*
X56332228Y-170321716D01*
X56964537Y-169689408D01*
X56981575Y-169752993D01*
X57047401Y-169867007D01*
X57140493Y-169960099D01*
X57254507Y-170025925D01*
X57318090Y-170042962D01*
X56685782Y-170675269D01*
X56685782Y-170675270D01*
X56739952Y-170714626D01*
X56739951Y-170714626D01*
X56748995Y-170719234D01*
X56799792Y-170767208D01*
X56816587Y-170835029D01*
X56794050Y-170901164D01*
X56748999Y-170940202D01*
X56739682Y-170944949D01*
X56567713Y-171069890D01*
X56417390Y-171220213D01*
X56292451Y-171392179D01*
X56195944Y-171581585D01*
X56130253Y-171783760D01*
X56097000Y-171993713D01*
X51500500Y-171993713D01*
X51500500Y-156602155D01*
X51950000Y-156602155D01*
X51950000Y-157250000D01*
X52866988Y-157250000D01*
X52834075Y-157307007D01*
X52800000Y-157434174D01*
X52800000Y-157565826D01*
X52834075Y-157692993D01*
X52866988Y-157750000D01*
X51950000Y-157750000D01*
X51950000Y-158397844D01*
X51956401Y-158457372D01*
X51956403Y-158457379D01*
X52006645Y-158592086D01*
X52006649Y-158592093D01*
X52092809Y-158707187D01*
X52092812Y-158707190D01*
X52207906Y-158793350D01*
X52207913Y-158793354D01*
X52342620Y-158843596D01*
X52342627Y-158843598D01*
X52402155Y-158849999D01*
X52402172Y-158850000D01*
X53050000Y-158850000D01*
X53050000Y-157933012D01*
X53107007Y-157965925D01*
X53234174Y-158000000D01*
X53365826Y-158000000D01*
X53492993Y-157965925D01*
X53550000Y-157933012D01*
X53550000Y-158850000D01*
X54197828Y-158850000D01*
X54197844Y-158849999D01*
X54257372Y-158843598D01*
X54257379Y-158843596D01*
X54392086Y-158793354D01*
X54392093Y-158793350D01*
X54507187Y-158707190D01*
X54507190Y-158707187D01*
X54593350Y-158592093D01*
X54593354Y-158592086D01*
X54643596Y-158457379D01*
X54643598Y-158457372D01*
X54649999Y-158397844D01*
X54650000Y-158397827D01*
X54650000Y-157750000D01*
X53733012Y-157750000D01*
X53765925Y-157692993D01*
X53800000Y-157565826D01*
X53800000Y-157434174D01*
X53765925Y-157307007D01*
X53733012Y-157250000D01*
X54650000Y-157250000D01*
X54650000Y-156602172D01*
X54649999Y-156602155D01*
X54643598Y-156542627D01*
X54643596Y-156542620D01*
X54593354Y-156407913D01*
X54593350Y-156407906D01*
X54507190Y-156292812D01*
X54507187Y-156292809D01*
X54392093Y-156206649D01*
X54392086Y-156206645D01*
X54257379Y-156156403D01*
X54257372Y-156156401D01*
X54197844Y-156150000D01*
X53550000Y-156150000D01*
X53550000Y-157066988D01*
X53492993Y-157034075D01*
X53365826Y-157000000D01*
X53234174Y-157000000D01*
X53107007Y-157034075D01*
X53050000Y-157066988D01*
X53050000Y-156150000D01*
X52402155Y-156150000D01*
X52342627Y-156156401D01*
X52342620Y-156156403D01*
X52207913Y-156206645D01*
X52207906Y-156206649D01*
X52092812Y-156292809D01*
X52092809Y-156292812D01*
X52006649Y-156407906D01*
X52006645Y-156407913D01*
X51956403Y-156542620D01*
X51956401Y-156542627D01*
X51950000Y-156602155D01*
X51500500Y-156602155D01*
X51500500Y-120665295D01*
X51520185Y-120598256D01*
X51572989Y-120552501D01*
X51634230Y-120541677D01*
X51634728Y-120541716D01*
X52267037Y-119909408D01*
X52284075Y-119972993D01*
X52349901Y-120087007D01*
X52442993Y-120180099D01*
X52557007Y-120245925D01*
X52620590Y-120262962D01*
X51988282Y-120895269D01*
X51988282Y-120895270D01*
X52042449Y-120934624D01*
X52231782Y-121031095D01*
X52433870Y-121096757D01*
X52643754Y-121130000D01*
X52856246Y-121130000D01*
X53066127Y-121096757D01*
X53066130Y-121096757D01*
X53268217Y-121031095D01*
X53457554Y-120934622D01*
X53511716Y-120895270D01*
X53511717Y-120895270D01*
X52879408Y-120262962D01*
X52942993Y-120245925D01*
X53057007Y-120180099D01*
X53150099Y-120087007D01*
X53215925Y-119972993D01*
X53232962Y-119909408D01*
X53865270Y-120541717D01*
X53865270Y-120541716D01*
X53904622Y-120487554D01*
X54001095Y-120298217D01*
X54066757Y-120096130D01*
X54066757Y-120096127D01*
X54100000Y-119886246D01*
X54100000Y-119673753D01*
X54066757Y-119463872D01*
X54066757Y-119463869D01*
X54001095Y-119261782D01*
X53904624Y-119072449D01*
X53865270Y-119018282D01*
X53865269Y-119018282D01*
X53232962Y-119650590D01*
X53215925Y-119587007D01*
X53150099Y-119472993D01*
X53057007Y-119379901D01*
X52942993Y-119314075D01*
X52879409Y-119297037D01*
X53511716Y-118664728D01*
X53457550Y-118625375D01*
X53447954Y-118620486D01*
X53397157Y-118572512D01*
X53380361Y-118504692D01*
X53402897Y-118438556D01*
X53447954Y-118399514D01*
X53457554Y-118394622D01*
X53511716Y-118355270D01*
X53511717Y-118355270D01*
X52879408Y-117722962D01*
X52942993Y-117705925D01*
X53057007Y-117640099D01*
X53150099Y-117547007D01*
X53215925Y-117432993D01*
X53232962Y-117369409D01*
X53865270Y-118001717D01*
X53865270Y-118001716D01*
X53904622Y-117947554D01*
X54001095Y-117758217D01*
X54066757Y-117556130D01*
X54066757Y-117556127D01*
X54100000Y-117346246D01*
X54100000Y-117133753D01*
X54066757Y-116923872D01*
X54066757Y-116923869D01*
X54014428Y-116762818D01*
X54012433Y-116692977D01*
X54048513Y-116633144D01*
X54111214Y-116602316D01*
X54132359Y-116600500D01*
X57499903Y-116600500D01*
X57566942Y-116620185D01*
G37*
%TD.AperFunction*%
%TA.AperFunction,Conductor*%
G36*
X60975642Y-115320185D02*
G01*
X60996283Y-115336818D01*
X62242984Y-116583520D01*
X62242986Y-116583521D01*
X62242990Y-116583524D01*
X62306490Y-116620185D01*
X62379916Y-116662577D01*
X62532643Y-116703501D01*
X62532645Y-116703501D01*
X62698354Y-116703501D01*
X62698370Y-116703500D01*
X67775500Y-116703500D01*
X67842539Y-116723185D01*
X67888294Y-116775989D01*
X67899500Y-116827500D01*
X67899500Y-129191950D01*
X67879815Y-129258989D01*
X67827011Y-129304744D01*
X67757853Y-129314688D01*
X67694297Y-129285663D01*
X67675182Y-129264835D01*
X67570109Y-129120214D01*
X67570105Y-129120209D01*
X67419786Y-128969890D01*
X67247820Y-128844951D01*
X67058414Y-128748444D01*
X67058413Y-128748443D01*
X67058412Y-128748443D01*
X66856243Y-128682754D01*
X66856241Y-128682753D01*
X66856240Y-128682753D01*
X66694957Y-128657208D01*
X66646287Y-128649500D01*
X66433713Y-128649500D01*
X66385042Y-128657208D01*
X66223760Y-128682753D01*
X66021585Y-128748444D01*
X65832179Y-128844951D01*
X65660215Y-128969889D01*
X65546673Y-129083431D01*
X65485350Y-129116915D01*
X65415658Y-129111931D01*
X65359725Y-129070059D01*
X65342810Y-129039082D01*
X65293797Y-128907671D01*
X65293793Y-128907664D01*
X65207547Y-128792455D01*
X65207544Y-128792452D01*
X65092335Y-128706206D01*
X65092328Y-128706202D01*
X64957482Y-128655908D01*
X64957483Y-128655908D01*
X64897883Y-128649501D01*
X64897881Y-128649500D01*
X64897873Y-128649500D01*
X64897864Y-128649500D01*
X63102129Y-128649500D01*
X63102123Y-128649501D01*
X63042516Y-128655908D01*
X62907671Y-128706202D01*
X62907664Y-128706206D01*
X62792455Y-128792452D01*
X62792452Y-128792455D01*
X62706206Y-128907664D01*
X62706202Y-128907671D01*
X62655908Y-129042517D01*
X62649501Y-129102116D01*
X62649500Y-129102135D01*
X62649500Y-130897870D01*
X62649501Y-130897876D01*
X62655908Y-130957483D01*
X62706202Y-131092328D01*
X62706206Y-131092335D01*
X62792452Y-131207544D01*
X62792455Y-131207547D01*
X62907664Y-131293793D01*
X62907671Y-131293797D01*
X62948709Y-131309103D01*
X63042517Y-131344091D01*
X63102127Y-131350500D01*
X63112685Y-131350499D01*
X63179723Y-131370179D01*
X63200372Y-131386818D01*
X63870591Y-132057037D01*
X63807007Y-132074075D01*
X63692993Y-132139901D01*
X63599901Y-132232993D01*
X63534075Y-132347007D01*
X63517037Y-132410591D01*
X62884728Y-131778282D01*
X62884727Y-131778282D01*
X62845380Y-131832439D01*
X62748904Y-132021782D01*
X62683242Y-132223869D01*
X62683242Y-132223872D01*
X62650000Y-132433753D01*
X62650000Y-132646246D01*
X62683242Y-132856127D01*
X62683242Y-132856130D01*
X62748904Y-133058217D01*
X62845375Y-133247550D01*
X62884728Y-133301716D01*
X63517037Y-132669408D01*
X63534075Y-132732993D01*
X63599901Y-132847007D01*
X63692993Y-132940099D01*
X63807007Y-133005925D01*
X63870591Y-133022962D01*
X63601373Y-133292181D01*
X63540050Y-133325666D01*
X63513692Y-133328500D01*
X63444180Y-133328500D01*
X63403259Y-133339464D01*
X63403259Y-133339465D01*
X63365991Y-133349451D01*
X63291454Y-133369423D01*
X63291449Y-133369426D01*
X63154530Y-133448475D01*
X63154522Y-133448481D01*
X62368481Y-134234522D01*
X62368477Y-134234527D01*
X62329088Y-134302753D01*
X62329088Y-134302754D01*
X62289423Y-134371454D01*
X62287953Y-134376942D01*
X62248499Y-134524183D01*
X62248499Y-134524185D01*
X62248499Y-134692286D01*
X62248500Y-134692299D01*
X62248500Y-135267003D01*
X62228815Y-135334042D01*
X62176011Y-135379797D01*
X62106853Y-135389741D01*
X62043297Y-135360716D01*
X62036819Y-135354684D01*
X60736819Y-134054684D01*
X60703334Y-133993361D01*
X60700500Y-133967003D01*
X60700500Y-118220945D01*
X60700500Y-118220943D01*
X60659577Y-118068216D01*
X60659577Y-118068215D01*
X60659577Y-118068214D01*
X60630639Y-118018095D01*
X60630637Y-118018092D01*
X60589913Y-117947554D01*
X60580520Y-117931284D01*
X60468716Y-117819480D01*
X60468715Y-117819479D01*
X60464385Y-117815149D01*
X60464374Y-117815139D01*
X58287753Y-115638518D01*
X58280521Y-115631286D01*
X58280520Y-115631284D01*
X58168716Y-115519480D01*
X58167661Y-115518871D01*
X58161110Y-115512344D01*
X58148003Y-115488446D01*
X58131933Y-115466431D01*
X58131447Y-115458260D01*
X58127511Y-115451083D01*
X58129404Y-115423892D01*
X58127788Y-115396684D01*
X58131797Y-115389547D01*
X58132366Y-115381382D01*
X58148658Y-115359534D01*
X58162009Y-115335769D01*
X58169241Y-115331932D01*
X58174134Y-115325371D01*
X58199649Y-115315800D01*
X58223731Y-115303025D01*
X58237406Y-115301638D01*
X58239553Y-115300833D01*
X58241405Y-115301232D01*
X58248628Y-115300500D01*
X60908603Y-115300500D01*
X60975642Y-115320185D01*
G37*
%TD.AperFunction*%
%TA.AperFunction,Conductor*%
G36*
X65518418Y-130895417D02*
G01*
X65546673Y-130916569D01*
X65660213Y-131030109D01*
X65832182Y-131155050D01*
X65840946Y-131159516D01*
X65891742Y-131207491D01*
X65908536Y-131275312D01*
X65885998Y-131341447D01*
X65840946Y-131380484D01*
X65832182Y-131384949D01*
X65660213Y-131509890D01*
X65509890Y-131660213D01*
X65384949Y-131832182D01*
X65380202Y-131841499D01*
X65332227Y-131892293D01*
X65264405Y-131909087D01*
X65198271Y-131886548D01*
X65159234Y-131841495D01*
X65154626Y-131832452D01*
X65115270Y-131778282D01*
X65115269Y-131778282D01*
X64482962Y-132410590D01*
X64465925Y-132347007D01*
X64400099Y-132232993D01*
X64307007Y-132139901D01*
X64192993Y-132074075D01*
X64129409Y-132057037D01*
X64799627Y-131386818D01*
X64860950Y-131353333D01*
X64887307Y-131350499D01*
X64897872Y-131350499D01*
X64957483Y-131344091D01*
X65092331Y-131293796D01*
X65207546Y-131207546D01*
X65293796Y-131092331D01*
X65342810Y-130960916D01*
X65384681Y-130904984D01*
X65450145Y-130880566D01*
X65518418Y-130895417D01*
G37*
%TD.AperFunction*%
%TA.AperFunction,Conductor*%
G36*
X96734075Y-93972993D02*
G01*
X96799901Y-94087007D01*
X96892993Y-94180099D01*
X97007007Y-94245925D01*
X97070590Y-94262962D01*
X96438282Y-94895269D01*
X96438282Y-94895270D01*
X96492449Y-94934624D01*
X96681782Y-95031095D01*
X96883870Y-95096757D01*
X97093754Y-95130000D01*
X97306246Y-95130000D01*
X97516127Y-95096757D01*
X97516130Y-95096757D01*
X97718217Y-95031095D01*
X97907554Y-94934622D01*
X97961716Y-94895270D01*
X97961717Y-94895270D01*
X97329408Y-94262962D01*
X97392993Y-94245925D01*
X97507007Y-94180099D01*
X97600099Y-94087007D01*
X97665925Y-93972993D01*
X97682962Y-93909409D01*
X98315269Y-94541716D01*
X98365771Y-94537742D01*
X98434148Y-94552106D01*
X98483905Y-94601157D01*
X98499500Y-94661360D01*
X98499500Y-126613568D01*
X98479815Y-126680607D01*
X98427011Y-126726362D01*
X98357853Y-126736306D01*
X98301190Y-126712835D01*
X98292334Y-126706206D01*
X98292328Y-126706202D01*
X98157482Y-126655908D01*
X98157483Y-126655908D01*
X98097883Y-126649501D01*
X98097881Y-126649500D01*
X98097873Y-126649500D01*
X98097865Y-126649500D01*
X96750097Y-126649500D01*
X96683058Y-126629815D01*
X96662416Y-126613181D01*
X94641819Y-124592584D01*
X94608334Y-124531261D01*
X94605500Y-124504903D01*
X94605500Y-113094059D01*
X94605501Y-113094046D01*
X94605501Y-112925945D01*
X94605501Y-112925943D01*
X94564577Y-112773215D01*
X94527791Y-112709500D01*
X94485520Y-112636284D01*
X94373716Y-112524480D01*
X94373715Y-112524479D01*
X94369385Y-112520149D01*
X94369374Y-112520139D01*
X87787590Y-105938355D01*
X87787588Y-105938352D01*
X87668717Y-105819481D01*
X87668709Y-105819475D01*
X87570464Y-105762754D01*
X87531788Y-105740424D01*
X87531787Y-105740423D01*
X87470693Y-105724053D01*
X87379057Y-105699499D01*
X87220943Y-105699499D01*
X87213347Y-105699499D01*
X87213331Y-105699500D01*
X86928858Y-105699500D01*
X86861819Y-105679815D01*
X86816064Y-105627011D01*
X86806120Y-105557853D01*
X86810927Y-105537182D01*
X86856757Y-105396130D01*
X86856757Y-105396127D01*
X86890000Y-105186246D01*
X86890000Y-104973753D01*
X86856757Y-104763872D01*
X86856757Y-104763869D01*
X86791095Y-104561782D01*
X86694622Y-104372445D01*
X86623125Y-104274038D01*
X86599645Y-104208231D01*
X86615470Y-104140177D01*
X86635758Y-104113475D01*
X87258506Y-103490728D01*
X87258511Y-103490724D01*
X87268714Y-103480520D01*
X87268716Y-103480520D01*
X87380520Y-103368716D01*
X87450321Y-103247816D01*
X87459577Y-103231785D01*
X87500501Y-103079057D01*
X87500501Y-102920943D01*
X87500501Y-102913348D01*
X87500500Y-102913330D01*
X87500500Y-99600097D01*
X87520185Y-99533058D01*
X87536819Y-99512416D01*
X88111416Y-98937819D01*
X88172739Y-98904334D01*
X88199097Y-98901500D01*
X90619431Y-98901500D01*
X90619447Y-98901501D01*
X90627043Y-98901501D01*
X90785154Y-98901501D01*
X90785157Y-98901501D01*
X90937885Y-98860577D01*
X90988004Y-98831639D01*
X91074816Y-98781520D01*
X91186620Y-98669716D01*
X91186620Y-98669714D01*
X91196828Y-98659507D01*
X91196829Y-98659504D01*
X95709989Y-94146344D01*
X95771309Y-94112862D01*
X95841001Y-94117846D01*
X95896934Y-94159718D01*
X95915598Y-94195710D01*
X95948904Y-94298217D01*
X96045375Y-94487550D01*
X96084728Y-94541716D01*
X96717036Y-93909407D01*
X96734075Y-93972993D01*
G37*
%TD.AperFunction*%
%TA.AperFunction,Conductor*%
G36*
X52284075Y-117432993D02*
G01*
X52349901Y-117547007D01*
X52442993Y-117640099D01*
X52557007Y-117705925D01*
X52620590Y-117722962D01*
X51988282Y-118355269D01*
X51988282Y-118355270D01*
X52042452Y-118394626D01*
X52052048Y-118399516D01*
X52102844Y-118447491D01*
X52119638Y-118515312D01*
X52097100Y-118581447D01*
X52052051Y-118620483D01*
X52042440Y-118625380D01*
X51988282Y-118664727D01*
X51988282Y-118664728D01*
X52620591Y-119297037D01*
X52557007Y-119314075D01*
X52442993Y-119379901D01*
X52349901Y-119472993D01*
X52284075Y-119587007D01*
X52267037Y-119650591D01*
X51634727Y-119018281D01*
X51634228Y-119018321D01*
X51565851Y-119003956D01*
X51516095Y-118954905D01*
X51500500Y-118894703D01*
X51500500Y-118125295D01*
X51520185Y-118058256D01*
X51572989Y-118012501D01*
X51634230Y-118001677D01*
X51634728Y-118001716D01*
X52267036Y-117369407D01*
X52284075Y-117432993D01*
G37*
%TD.AperFunction*%
%TA.AperFunction,Conductor*%
G36*
X98442539Y-43020185D02*
G01*
X98488294Y-43072989D01*
X98499500Y-43124500D01*
X98499500Y-74613568D01*
X98479815Y-74680607D01*
X98427011Y-74726362D01*
X98357853Y-74736306D01*
X98301190Y-74712835D01*
X98292334Y-74706206D01*
X98292328Y-74706202D01*
X98157482Y-74655908D01*
X98157483Y-74655908D01*
X98097883Y-74649501D01*
X98097881Y-74649500D01*
X98097873Y-74649500D01*
X98097864Y-74649500D01*
X96302129Y-74649500D01*
X96302123Y-74649501D01*
X96242516Y-74655908D01*
X96107671Y-74706202D01*
X96107664Y-74706206D01*
X95992455Y-74792452D01*
X95992452Y-74792455D01*
X95906206Y-74907664D01*
X95906202Y-74907671D01*
X95855908Y-75042517D01*
X95849501Y-75102116D01*
X95849500Y-75102135D01*
X95849500Y-76449901D01*
X95829815Y-76516940D01*
X95813181Y-76537582D01*
X93428286Y-78922478D01*
X93316481Y-79034282D01*
X93316479Y-79034285D01*
X93266361Y-79121094D01*
X93266359Y-79121096D01*
X93237425Y-79171209D01*
X93237424Y-79171210D01*
X93237423Y-79171215D01*
X93196499Y-79323943D01*
X93196499Y-79323945D01*
X93196499Y-79492046D01*
X93196500Y-79492059D01*
X93196500Y-91507403D01*
X93176815Y-91574442D01*
X93160181Y-91595084D01*
X89497084Y-95258181D01*
X89435761Y-95291666D01*
X89409403Y-95294500D01*
X80588557Y-95294500D01*
X80430443Y-95294500D01*
X80277715Y-95335423D01*
X80277714Y-95335423D01*
X80277712Y-95335424D01*
X80277709Y-95335425D01*
X80227596Y-95364359D01*
X80227595Y-95364360D01*
X80184189Y-95389420D01*
X80140785Y-95414479D01*
X80140782Y-95414481D01*
X80055167Y-95500097D01*
X80028980Y-95526284D01*
X80028978Y-95526286D01*
X74954765Y-100600500D01*
X69892084Y-105663181D01*
X69830761Y-105696666D01*
X69804403Y-105699500D01*
X67928858Y-105699500D01*
X67861819Y-105679815D01*
X67816064Y-105627011D01*
X67806120Y-105557853D01*
X67810927Y-105537182D01*
X67856757Y-105396130D01*
X67856757Y-105396127D01*
X67890000Y-105186246D01*
X67890000Y-104973753D01*
X67856758Y-104763873D01*
X67791431Y-104562820D01*
X67789436Y-104492978D01*
X67825516Y-104433145D01*
X67888217Y-104402317D01*
X67909362Y-104400501D01*
X67979054Y-104400501D01*
X67979057Y-104400501D01*
X68131785Y-104359577D01*
X68181904Y-104330639D01*
X68268716Y-104280520D01*
X68380520Y-104168716D01*
X68380520Y-104168714D01*
X68390728Y-104158507D01*
X68390730Y-104158504D01*
X70358506Y-102190728D01*
X70358511Y-102190724D01*
X70368714Y-102180520D01*
X70368716Y-102180520D01*
X70480520Y-102068716D01*
X70559577Y-101931784D01*
X70600108Y-101780520D01*
X70600500Y-101779058D01*
X70600500Y-101620943D01*
X70600500Y-95500097D01*
X70620185Y-95433058D01*
X70636819Y-95412416D01*
X80112416Y-85936819D01*
X80173739Y-85903334D01*
X80200097Y-85900500D01*
X81617116Y-85900500D01*
X81684155Y-85920185D01*
X81729910Y-85972989D01*
X81739854Y-86042147D01*
X81735048Y-86062812D01*
X81733124Y-86068735D01*
X81682753Y-86223760D01*
X81649500Y-86433713D01*
X81649500Y-86646287D01*
X81682754Y-86856243D01*
X81745915Y-87050633D01*
X81748444Y-87058414D01*
X81844951Y-87247820D01*
X81969890Y-87419786D01*
X82120213Y-87570109D01*
X82292179Y-87695048D01*
X82292181Y-87695049D01*
X82292184Y-87695051D01*
X82301493Y-87699794D01*
X82352290Y-87747766D01*
X82369087Y-87815587D01*
X82346552Y-87881722D01*
X82301505Y-87920760D01*
X82292446Y-87925376D01*
X82292440Y-87925380D01*
X82238282Y-87964727D01*
X82238282Y-87964728D01*
X82870591Y-88597037D01*
X82807007Y-88614075D01*
X82692993Y-88679901D01*
X82599901Y-88772993D01*
X82534075Y-88887007D01*
X82517037Y-88950591D01*
X81884728Y-88318282D01*
X81884727Y-88318282D01*
X81845380Y-88372439D01*
X81748904Y-88561782D01*
X81683242Y-88763869D01*
X81683242Y-88763872D01*
X81650000Y-88973753D01*
X81650000Y-89186246D01*
X81683242Y-89396127D01*
X81683242Y-89396130D01*
X81748904Y-89598217D01*
X81845375Y-89787550D01*
X81884728Y-89841716D01*
X82517037Y-89209408D01*
X82534075Y-89272993D01*
X82599901Y-89387007D01*
X82692993Y-89480099D01*
X82807007Y-89545925D01*
X82870590Y-89562962D01*
X82238282Y-90195269D01*
X82238282Y-90195270D01*
X82292449Y-90234624D01*
X82481782Y-90331095D01*
X82683870Y-90396757D01*
X82893754Y-90430000D01*
X83106246Y-90430000D01*
X83316127Y-90396757D01*
X83316130Y-90396757D01*
X83518217Y-90331095D01*
X83707554Y-90234622D01*
X83761716Y-90195270D01*
X83761717Y-90195270D01*
X83129408Y-89562962D01*
X83192993Y-89545925D01*
X83307007Y-89480099D01*
X83400099Y-89387007D01*
X83465925Y-89272993D01*
X83482962Y-89209408D01*
X84115270Y-89841717D01*
X84115270Y-89841716D01*
X84154622Y-89787554D01*
X84159514Y-89777954D01*
X84207488Y-89727157D01*
X84275308Y-89710361D01*
X84341444Y-89732897D01*
X84380486Y-89777954D01*
X84385375Y-89787550D01*
X84424728Y-89841716D01*
X85057037Y-89209408D01*
X85074075Y-89272993D01*
X85139901Y-89387007D01*
X85232993Y-89480099D01*
X85347007Y-89545925D01*
X85410590Y-89562962D01*
X84778282Y-90195269D01*
X84778282Y-90195270D01*
X84832449Y-90234624D01*
X85021782Y-90331095D01*
X85223870Y-90396757D01*
X85433754Y-90430000D01*
X85646246Y-90430000D01*
X85856127Y-90396757D01*
X85856130Y-90396757D01*
X86058217Y-90331095D01*
X86247554Y-90234622D01*
X86301716Y-90195270D01*
X86301717Y-90195270D01*
X85669408Y-89562962D01*
X85732993Y-89545925D01*
X85847007Y-89480099D01*
X85940099Y-89387007D01*
X86005925Y-89272993D01*
X86022962Y-89209409D01*
X86655270Y-89841717D01*
X86655270Y-89841716D01*
X86694622Y-89787554D01*
X86791095Y-89598217D01*
X86856757Y-89396130D01*
X86856757Y-89396127D01*
X86890000Y-89186246D01*
X86890000Y-88973753D01*
X86856757Y-88763872D01*
X86856757Y-88763869D01*
X86791095Y-88561782D01*
X86694624Y-88372449D01*
X86655270Y-88318282D01*
X86655269Y-88318282D01*
X86022962Y-88950590D01*
X86005925Y-88887007D01*
X85940099Y-88772993D01*
X85847007Y-88679901D01*
X85732993Y-88614075D01*
X85669409Y-88597037D01*
X86301716Y-87964728D01*
X86247547Y-87925373D01*
X86247547Y-87925372D01*
X86238500Y-87920763D01*
X86187706Y-87872788D01*
X86170912Y-87804966D01*
X86193451Y-87738832D01*
X86238508Y-87699793D01*
X86247816Y-87695051D01*
X86327007Y-87637515D01*
X86419786Y-87570109D01*
X86419788Y-87570106D01*
X86419792Y-87570104D01*
X86570104Y-87419792D01*
X86570106Y-87419788D01*
X86570109Y-87419786D01*
X86695048Y-87247820D01*
X86695047Y-87247820D01*
X86695051Y-87247816D01*
X86791557Y-87058412D01*
X86857246Y-86856243D01*
X86890500Y-86646287D01*
X86890500Y-86646285D01*
X86891262Y-86641475D01*
X86892321Y-86641642D01*
X86915361Y-86581172D01*
X86926416Y-86568503D01*
X92177139Y-81317782D01*
X92265001Y-81186287D01*
X92286632Y-81153914D01*
X92334735Y-81037782D01*
X92362051Y-80971836D01*
X92400500Y-80778541D01*
X92400500Y-80581460D01*
X92400500Y-58621459D01*
X92385717Y-58547139D01*
X92362052Y-58428165D01*
X92303717Y-58287334D01*
X92286633Y-58246088D01*
X92286628Y-58246079D01*
X92177140Y-58082219D01*
X92177137Y-58082215D01*
X89816571Y-55721651D01*
X89783086Y-55660328D01*
X89781088Y-55630834D01*
X89780500Y-55630834D01*
X89780500Y-55369166D01*
X89782028Y-55369166D01*
X89794979Y-55307415D01*
X89816568Y-55278350D01*
X92092891Y-53002028D01*
X92092895Y-53002026D01*
X92232252Y-52862669D01*
X92341745Y-52698801D01*
X92417164Y-52516722D01*
X92417164Y-52516719D01*
X92417166Y-52516715D01*
X92426093Y-52471837D01*
X92455612Y-52323431D01*
X92455613Y-52323428D01*
X92455613Y-48862874D01*
X92475298Y-48795835D01*
X92528102Y-48750080D01*
X92597260Y-48740136D01*
X92618617Y-48745168D01*
X92752415Y-48789505D01*
X92752422Y-48789506D01*
X92855132Y-48799999D01*
X93205112Y-48799999D01*
X93205113Y-48799998D01*
X93205113Y-47815686D01*
X93209507Y-47820080D01*
X93300719Y-47872741D01*
X93402452Y-47900000D01*
X93507774Y-47900000D01*
X93609507Y-47872741D01*
X93700719Y-47820080D01*
X93705113Y-47815686D01*
X93705113Y-48799999D01*
X94055085Y-48799999D01*
X94055099Y-48799998D01*
X94157810Y-48789505D01*
X94324232Y-48734358D01*
X94324237Y-48734356D01*
X94473458Y-48642315D01*
X94597428Y-48518345D01*
X94689469Y-48369124D01*
X94689471Y-48369119D01*
X94744618Y-48202697D01*
X94744619Y-48202690D01*
X94755112Y-48099986D01*
X94755113Y-48099973D01*
X94755113Y-47750000D01*
X93770799Y-47750000D01*
X93775193Y-47745606D01*
X93827854Y-47654394D01*
X93855113Y-47552661D01*
X93855113Y-47447339D01*
X93827854Y-47345606D01*
X93775193Y-47254394D01*
X93770799Y-47250000D01*
X94755112Y-47250000D01*
X94755112Y-46900028D01*
X94755111Y-46900013D01*
X94744618Y-46797302D01*
X94689471Y-46630880D01*
X94689469Y-46630875D01*
X94597428Y-46481654D01*
X94473458Y-46357684D01*
X94324237Y-46265643D01*
X94324232Y-46265641D01*
X94157810Y-46210494D01*
X94157803Y-46210493D01*
X94055099Y-46200000D01*
X93705113Y-46200000D01*
X93705113Y-47184314D01*
X93700719Y-47179920D01*
X93609507Y-47127259D01*
X93507774Y-47100000D01*
X93402452Y-47100000D01*
X93300719Y-47127259D01*
X93209507Y-47179920D01*
X93205113Y-47184314D01*
X93205113Y-46200000D01*
X92855141Y-46200000D01*
X92855125Y-46200001D01*
X92752415Y-46210494D01*
X92585993Y-46265641D01*
X92585988Y-46265643D01*
X92436767Y-46357684D01*
X92367999Y-46426451D01*
X92306675Y-46459936D01*
X92236984Y-46454950D01*
X92207436Y-46439088D01*
X92136723Y-46387713D01*
X91954336Y-46294781D01*
X91759647Y-46231522D01*
X91585108Y-46203878D01*
X91557465Y-46199500D01*
X91352761Y-46199500D01*
X91328442Y-46203351D01*
X91150578Y-46231522D01*
X90955889Y-46294781D01*
X90773499Y-46387715D01*
X90607899Y-46508028D01*
X90463141Y-46652786D01*
X90342828Y-46818386D01*
X90249894Y-47000776D01*
X90186635Y-47195465D01*
X90154613Y-47397648D01*
X90154613Y-47602351D01*
X90186635Y-47804534D01*
X90249894Y-47999223D01*
X90324681Y-48145998D01*
X90342826Y-48181610D01*
X90430932Y-48302877D01*
X90454411Y-48368681D01*
X90454613Y-48375761D01*
X90454613Y-51759104D01*
X90434928Y-51826143D01*
X90418294Y-51846785D01*
X88401651Y-53863427D01*
X88340328Y-53896912D01*
X88310834Y-53898919D01*
X88310834Y-53899500D01*
X88305962Y-53899500D01*
X88054038Y-53899500D01*
X87987738Y-53910001D01*
X87805214Y-53938910D01*
X87565616Y-54016760D01*
X87341151Y-54131132D01*
X87137350Y-54279201D01*
X87137347Y-54279204D01*
X86959205Y-54457345D01*
X86959201Y-54457350D01*
X86811132Y-54661151D01*
X86696760Y-54885616D01*
X86618910Y-55125214D01*
X86618910Y-55125215D01*
X86579500Y-55374038D01*
X86579500Y-55625962D01*
X86588943Y-55685580D01*
X86618910Y-55874785D01*
X86696760Y-56114383D01*
X86811132Y-56338848D01*
X86959201Y-56542649D01*
X86959205Y-56542654D01*
X87137345Y-56720794D01*
X87137350Y-56720798D01*
X87272286Y-56818834D01*
X87341155Y-56868870D01*
X87426164Y-56912184D01*
X87565616Y-56983239D01*
X87565618Y-56983239D01*
X87565621Y-56983241D01*
X87805215Y-57061090D01*
X88054038Y-57100500D01*
X88054039Y-57100500D01*
X88310834Y-57100500D01*
X88310834Y-57102030D01*
X88372577Y-57114976D01*
X88401651Y-57136571D01*
X90363181Y-59098101D01*
X90396666Y-59159424D01*
X90399500Y-59185782D01*
X90399500Y-61240903D01*
X90379815Y-61307942D01*
X90327011Y-61353697D01*
X90257853Y-61363641D01*
X90194297Y-61334616D01*
X90187819Y-61328584D01*
X89804077Y-60944842D01*
X89770592Y-60883519D01*
X89773828Y-60818841D01*
X89778477Y-60804534D01*
X89810500Y-60602352D01*
X89810500Y-60397648D01*
X89793490Y-60290255D01*
X89778477Y-60195465D01*
X89735160Y-60062150D01*
X89715220Y-60000781D01*
X89715218Y-60000778D01*
X89715218Y-60000776D01*
X89654947Y-59882489D01*
X89622287Y-59818390D01*
X89579075Y-59758913D01*
X89501971Y-59652786D01*
X89357213Y-59508028D01*
X89191613Y-59387715D01*
X89191612Y-59387714D01*
X89191610Y-59387713D01*
X89093688Y-59337819D01*
X89009223Y-59294781D01*
X88814534Y-59231522D01*
X88626690Y-59201771D01*
X88612352Y-59199500D01*
X88407648Y-59199500D01*
X88393310Y-59201771D01*
X88205465Y-59231522D01*
X88010776Y-59294781D01*
X87828386Y-59387715D01*
X87662786Y-59508028D01*
X87518028Y-59652786D01*
X87397715Y-59818386D01*
X87304781Y-60000776D01*
X87241522Y-60195465D01*
X87209500Y-60397648D01*
X87209500Y-60602351D01*
X87241522Y-60804534D01*
X87304781Y-60999223D01*
X87397715Y-61181613D01*
X87518028Y-61347213D01*
X87662786Y-61491971D01*
X87817749Y-61604556D01*
X87828390Y-61612287D01*
X87941442Y-61669890D01*
X88010776Y-61705218D01*
X88010778Y-61705218D01*
X88010781Y-61705220D01*
X88115137Y-61739127D01*
X88205465Y-61768477D01*
X88306557Y-61784488D01*
X88407648Y-61800500D01*
X88407649Y-61800500D01*
X88612351Y-61800500D01*
X88612352Y-61800500D01*
X88814534Y-61768477D01*
X88828842Y-61763827D01*
X88898682Y-61761831D01*
X88954842Y-61794077D01*
X89962181Y-62801416D01*
X89995666Y-62862739D01*
X89998500Y-62889097D01*
X89998500Y-78640902D01*
X89978815Y-78707941D01*
X89962181Y-78728583D01*
X86024522Y-82666241D01*
X85963199Y-82699726D01*
X85898523Y-82696491D01*
X85856245Y-82682754D01*
X85716272Y-82660584D01*
X85646287Y-82649500D01*
X85433713Y-82649500D01*
X85385042Y-82657208D01*
X85223760Y-82682753D01*
X85021585Y-82748444D01*
X84832179Y-82844951D01*
X84660215Y-82969889D01*
X84546673Y-83083431D01*
X84485350Y-83116915D01*
X84415658Y-83111931D01*
X84359725Y-83070059D01*
X84342810Y-83039082D01*
X84293797Y-82907671D01*
X84293793Y-82907664D01*
X84207547Y-82792455D01*
X84207544Y-82792452D01*
X84092335Y-82706206D01*
X84092328Y-82706202D01*
X83957482Y-82655908D01*
X83957483Y-82655908D01*
X83897883Y-82649501D01*
X83897881Y-82649500D01*
X83897873Y-82649500D01*
X83897865Y-82649500D01*
X83115782Y-82649500D01*
X83048743Y-82629815D01*
X83028101Y-82613181D01*
X80436819Y-80021899D01*
X80403334Y-79960576D01*
X80400500Y-79934218D01*
X80400500Y-63397648D01*
X80899500Y-63397648D01*
X80899500Y-63602351D01*
X80931522Y-63804534D01*
X80994781Y-63999223D01*
X81036327Y-64080760D01*
X81087585Y-64181359D01*
X81087715Y-64181613D01*
X81208028Y-64347213D01*
X81352786Y-64491971D01*
X81473226Y-64579474D01*
X81518390Y-64612287D01*
X81599499Y-64653614D01*
X81700776Y-64705218D01*
X81700778Y-64705218D01*
X81700781Y-64705220D01*
X81775818Y-64729601D01*
X81895465Y-64768477D01*
X81996557Y-64784488D01*
X82097648Y-64800500D01*
X82097649Y-64800500D01*
X82302351Y-64800500D01*
X82302352Y-64800500D01*
X82504534Y-64768477D01*
X82699219Y-64705220D01*
X82881610Y-64612287D01*
X82974590Y-64544732D01*
X83047213Y-64491971D01*
X83047215Y-64491968D01*
X83047219Y-64491966D01*
X83191966Y-64347219D01*
X83191968Y-64347215D01*
X83191971Y-64347213D01*
X83244732Y-64274590D01*
X83312287Y-64181610D01*
X83405220Y-63999219D01*
X83468477Y-63804534D01*
X83500500Y-63602352D01*
X83500500Y-63397682D01*
X85900000Y-63397682D01*
X85900000Y-63602317D01*
X85932009Y-63804417D01*
X85995244Y-63999031D01*
X86088141Y-64181350D01*
X86088147Y-64181359D01*
X86120523Y-64225921D01*
X86120524Y-64225922D01*
X86800000Y-63546446D01*
X86800000Y-63552661D01*
X86827259Y-63654394D01*
X86879920Y-63745606D01*
X86954394Y-63820080D01*
X87045606Y-63872741D01*
X87147339Y-63900000D01*
X87153553Y-63900000D01*
X86474076Y-64579474D01*
X86518650Y-64611859D01*
X86700968Y-64704755D01*
X86895582Y-64767990D01*
X87097683Y-64800000D01*
X87302317Y-64800000D01*
X87504417Y-64767990D01*
X87699031Y-64704755D01*
X87881349Y-64611859D01*
X87925921Y-64579474D01*
X87246447Y-63900000D01*
X87252661Y-63900000D01*
X87354394Y-63872741D01*
X87445606Y-63820080D01*
X87520080Y-63745606D01*
X87572741Y-63654394D01*
X87600000Y-63552661D01*
X87600000Y-63546447D01*
X88279474Y-64225921D01*
X88311859Y-64181349D01*
X88404755Y-63999031D01*
X88467990Y-63804417D01*
X88500000Y-63602317D01*
X88500000Y-63397682D01*
X88467990Y-63195582D01*
X88404755Y-63000968D01*
X88311859Y-62818650D01*
X88279474Y-62774077D01*
X88279474Y-62774076D01*
X87600000Y-63453551D01*
X87600000Y-63447339D01*
X87572741Y-63345606D01*
X87520080Y-63254394D01*
X87445606Y-63179920D01*
X87354394Y-63127259D01*
X87252661Y-63100000D01*
X87246446Y-63100000D01*
X87925922Y-62420524D01*
X87925921Y-62420523D01*
X87881359Y-62388147D01*
X87881350Y-62388141D01*
X87699031Y-62295244D01*
X87504417Y-62232009D01*
X87302317Y-62200000D01*
X87097683Y-62200000D01*
X86895582Y-62232009D01*
X86700968Y-62295244D01*
X86518644Y-62388143D01*
X86474077Y-62420523D01*
X86474077Y-62420524D01*
X87153554Y-63100000D01*
X87147339Y-63100000D01*
X87045606Y-63127259D01*
X86954394Y-63179920D01*
X86879920Y-63254394D01*
X86827259Y-63345606D01*
X86800000Y-63447339D01*
X86800000Y-63453553D01*
X86120524Y-62774077D01*
X86120523Y-62774077D01*
X86088143Y-62818644D01*
X85995244Y-63000968D01*
X85932009Y-63195582D01*
X85900000Y-63397682D01*
X83500500Y-63397682D01*
X83500500Y-63397648D01*
X83492257Y-63345606D01*
X83468477Y-63195465D01*
X83418528Y-63041739D01*
X83405220Y-63000781D01*
X83405218Y-63000778D01*
X83405218Y-63000776D01*
X83348314Y-62889097D01*
X83312287Y-62818390D01*
X83280092Y-62774077D01*
X83191971Y-62652786D01*
X83047213Y-62508028D01*
X82881613Y-62387715D01*
X82881612Y-62387714D01*
X82881610Y-62387713D01*
X82801565Y-62346928D01*
X82699223Y-62294781D01*
X82504534Y-62231522D01*
X82329995Y-62203878D01*
X82302352Y-62199500D01*
X82097648Y-62199500D01*
X82073329Y-62203351D01*
X81895465Y-62231522D01*
X81700776Y-62294781D01*
X81518386Y-62387715D01*
X81352786Y-62508028D01*
X81208028Y-62652786D01*
X81087715Y-62818386D01*
X80994781Y-63000776D01*
X80931522Y-63195465D01*
X80899500Y-63397648D01*
X80400500Y-63397648D01*
X80400500Y-62455781D01*
X80420185Y-62388742D01*
X80436815Y-62368104D01*
X80978203Y-61826715D01*
X81039524Y-61793232D01*
X81046473Y-61791927D01*
X81194534Y-61768477D01*
X81389219Y-61705220D01*
X81571610Y-61612287D01*
X81687490Y-61528096D01*
X81737213Y-61491971D01*
X81737215Y-61491968D01*
X81737219Y-61491966D01*
X81881966Y-61347219D01*
X81881968Y-61347215D01*
X81881971Y-61347213D01*
X81937276Y-61271091D01*
X82002287Y-61181610D01*
X82095220Y-60999219D01*
X82158477Y-60804534D01*
X82190500Y-60602352D01*
X82190500Y-60397648D01*
X82173490Y-60290255D01*
X82158477Y-60195465D01*
X82115160Y-60062150D01*
X82095220Y-60000781D01*
X82095218Y-60000778D01*
X82095218Y-60000776D01*
X82034947Y-59882489D01*
X82002287Y-59818390D01*
X81959075Y-59758913D01*
X81881971Y-59652786D01*
X81737213Y-59508028D01*
X81571613Y-59387715D01*
X81571612Y-59387714D01*
X81571610Y-59387713D01*
X81389219Y-59294780D01*
X81194534Y-59231523D01*
X81194531Y-59231522D01*
X81194532Y-59231522D01*
X81046484Y-59208073D01*
X80983350Y-59178143D01*
X80978202Y-59173281D01*
X79074209Y-57269289D01*
X79074201Y-57269281D01*
X79068891Y-57263970D01*
X79060740Y-57249041D01*
X79060739Y-57249037D01*
X79050574Y-57230419D01*
X79035414Y-57202655D01*
X79035414Y-57202650D01*
X79035411Y-57202644D01*
X79038083Y-57165325D01*
X79040398Y-57132963D01*
X79040401Y-57132958D01*
X79040402Y-57132953D01*
X79064130Y-57101262D01*
X79082270Y-57077030D01*
X79082276Y-57077026D01*
X79082279Y-57077023D01*
X79082294Y-57077017D01*
X79117572Y-57058593D01*
X79189335Y-57034814D01*
X79338656Y-56942712D01*
X79462712Y-56818656D01*
X79554814Y-56669335D01*
X79582596Y-56585494D01*
X79622368Y-56528051D01*
X79686883Y-56501228D01*
X79700301Y-56500500D01*
X80698542Y-56500500D01*
X80729566Y-56494328D01*
X80795188Y-56481275D01*
X80891836Y-56462051D01*
X80945165Y-56439961D01*
X81073914Y-56386632D01*
X81237782Y-56277139D01*
X81377139Y-56137782D01*
X81377139Y-56137780D01*
X81387347Y-56127573D01*
X81387348Y-56127570D01*
X84667140Y-52847781D01*
X84776632Y-52683914D01*
X84852052Y-52501835D01*
X84890501Y-52308540D01*
X84890501Y-52111459D01*
X84890501Y-52106349D01*
X84890500Y-52106323D01*
X84890500Y-50103957D01*
X84910185Y-50036918D01*
X84949407Y-49998416D01*
X84958656Y-49992712D01*
X85082712Y-49868656D01*
X85174814Y-49719334D01*
X85229999Y-49552797D01*
X85240500Y-49450009D01*
X85240499Y-48149992D01*
X85235601Y-48102048D01*
X85229999Y-48047203D01*
X85229998Y-48047200D01*
X85214100Y-47999223D01*
X85174814Y-47880666D01*
X85082712Y-47731344D01*
X84958656Y-47607288D01*
X84958655Y-47607287D01*
X84949402Y-47601580D01*
X84902678Y-47549632D01*
X84890500Y-47496042D01*
X84890500Y-47220199D01*
X84910185Y-47153160D01*
X84919471Y-47140664D01*
X85045048Y-46967820D01*
X85045047Y-46967820D01*
X85045051Y-46967816D01*
X85141557Y-46778412D01*
X85207246Y-46576243D01*
X85240500Y-46366287D01*
X85240500Y-46153713D01*
X85207246Y-45943757D01*
X85141557Y-45741588D01*
X85045051Y-45552184D01*
X85045049Y-45552181D01*
X85045048Y-45552179D01*
X84920109Y-45380213D01*
X84769786Y-45229890D01*
X84597820Y-45104951D01*
X84408414Y-45008444D01*
X84408413Y-45008443D01*
X84408412Y-45008443D01*
X84206243Y-44942754D01*
X84206241Y-44942753D01*
X84206240Y-44942753D01*
X84044957Y-44917208D01*
X83996287Y-44909500D01*
X83783713Y-44909500D01*
X83735042Y-44917208D01*
X83573760Y-44942753D01*
X83371585Y-45008444D01*
X83182179Y-45104951D01*
X83010213Y-45229890D01*
X82859890Y-45380213D01*
X82734949Y-45552182D01*
X82730202Y-45561499D01*
X82682227Y-45612293D01*
X82614405Y-45629087D01*
X82548271Y-45606548D01*
X82509234Y-45561495D01*
X82504626Y-45552452D01*
X82465270Y-45498282D01*
X82465269Y-45498282D01*
X81832962Y-46130590D01*
X81815925Y-46067007D01*
X81750099Y-45952993D01*
X81657007Y-45859901D01*
X81542993Y-45794075D01*
X81479409Y-45777037D01*
X82111716Y-45144728D01*
X82057550Y-45105375D01*
X81868217Y-45008904D01*
X81666129Y-44943242D01*
X81456246Y-44910000D01*
X81243754Y-44910000D01*
X81033872Y-44943242D01*
X81033869Y-44943242D01*
X80831782Y-45008904D01*
X80642439Y-45105380D01*
X80588282Y-45144727D01*
X80588282Y-45144728D01*
X81220591Y-45777037D01*
X81157007Y-45794075D01*
X81042993Y-45859901D01*
X80949901Y-45952993D01*
X80884075Y-46067007D01*
X80867037Y-46130591D01*
X80234728Y-45498282D01*
X80234727Y-45498282D01*
X80195380Y-45552440D01*
X80190483Y-45562051D01*
X80142506Y-45612845D01*
X80074684Y-45629638D01*
X80008550Y-45607098D01*
X79969516Y-45562048D01*
X79964626Y-45552452D01*
X79925270Y-45498282D01*
X79925269Y-45498282D01*
X79292962Y-46130590D01*
X79275925Y-46067007D01*
X79210099Y-45952993D01*
X79117007Y-45859901D01*
X79002993Y-45794075D01*
X78939409Y-45777037D01*
X79571716Y-45144728D01*
X79517550Y-45105375D01*
X79328217Y-45008904D01*
X79126129Y-44943242D01*
X78916246Y-44910000D01*
X78703754Y-44910000D01*
X78493872Y-44943242D01*
X78493869Y-44943242D01*
X78291782Y-45008904D01*
X78102439Y-45105380D01*
X78048282Y-45144727D01*
X78048282Y-45144728D01*
X78680591Y-45777037D01*
X78617007Y-45794075D01*
X78502993Y-45859901D01*
X78409901Y-45952993D01*
X78344075Y-46067007D01*
X78327037Y-46130591D01*
X77694728Y-45498282D01*
X77694727Y-45498282D01*
X77655380Y-45552440D01*
X77650483Y-45562051D01*
X77602506Y-45612845D01*
X77534684Y-45629638D01*
X77468550Y-45607098D01*
X77429516Y-45562048D01*
X77424626Y-45552452D01*
X77385270Y-45498282D01*
X77385269Y-45498282D01*
X76752962Y-46130590D01*
X76735925Y-46067007D01*
X76670099Y-45952993D01*
X76577007Y-45859901D01*
X76462993Y-45794075D01*
X76399409Y-45777037D01*
X77031716Y-45144728D01*
X76977550Y-45105375D01*
X76788217Y-45008904D01*
X76586129Y-44943242D01*
X76376246Y-44910000D01*
X76163754Y-44910000D01*
X75953872Y-44943242D01*
X75953869Y-44943242D01*
X75751782Y-45008904D01*
X75562439Y-45105380D01*
X75508282Y-45144727D01*
X75508282Y-45144728D01*
X76140591Y-45777037D01*
X76077007Y-45794075D01*
X75962993Y-45859901D01*
X75869901Y-45952993D01*
X75804075Y-46067007D01*
X75787037Y-46130591D01*
X75154728Y-45498282D01*
X75154727Y-45498282D01*
X75115380Y-45552440D01*
X75115376Y-45552446D01*
X75110760Y-45561505D01*
X75062781Y-45612297D01*
X74994959Y-45629087D01*
X74928826Y-45606543D01*
X74889794Y-45561493D01*
X74885051Y-45552184D01*
X74885049Y-45552181D01*
X74885048Y-45552179D01*
X74760109Y-45380213D01*
X74609786Y-45229890D01*
X74437820Y-45104951D01*
X74248414Y-45008444D01*
X74248413Y-45008443D01*
X74248412Y-45008443D01*
X74046243Y-44942754D01*
X74046241Y-44942753D01*
X74046240Y-44942753D01*
X73884957Y-44917208D01*
X73836287Y-44909500D01*
X73623713Y-44909500D01*
X73575042Y-44917208D01*
X73413760Y-44942753D01*
X73211585Y-45008444D01*
X73022179Y-45104951D01*
X72850213Y-45229890D01*
X72699890Y-45380213D01*
X72574949Y-45552182D01*
X72570484Y-45560946D01*
X72522509Y-45611742D01*
X72454688Y-45628536D01*
X72388553Y-45605998D01*
X72349516Y-45560946D01*
X72345050Y-45552182D01*
X72220109Y-45380213D01*
X72069786Y-45229890D01*
X71897820Y-45104951D01*
X71708414Y-45008444D01*
X71708413Y-45008443D01*
X71708412Y-45008443D01*
X71506243Y-44942754D01*
X71506241Y-44942753D01*
X71506240Y-44942753D01*
X71344957Y-44917208D01*
X71296287Y-44909500D01*
X71083713Y-44909500D01*
X71035042Y-44917208D01*
X70873760Y-44942753D01*
X70671585Y-45008444D01*
X70482179Y-45104951D01*
X70310213Y-45229890D01*
X70159890Y-45380213D01*
X70034949Y-45552182D01*
X70030484Y-45560946D01*
X69982509Y-45611742D01*
X69914688Y-45628536D01*
X69848553Y-45605998D01*
X69809516Y-45560946D01*
X69805050Y-45552182D01*
X69680109Y-45380213D01*
X69529786Y-45229890D01*
X69357820Y-45104951D01*
X69168414Y-45008444D01*
X69168413Y-45008443D01*
X69168412Y-45008443D01*
X68966243Y-44942754D01*
X68966241Y-44942753D01*
X68966240Y-44942753D01*
X68804957Y-44917208D01*
X68756287Y-44909500D01*
X68543713Y-44909500D01*
X68495042Y-44917208D01*
X68333760Y-44942753D01*
X68131585Y-45008444D01*
X67942179Y-45104951D01*
X67770213Y-45229890D01*
X67619890Y-45380213D01*
X67494949Y-45552182D01*
X67490484Y-45560946D01*
X67442509Y-45611742D01*
X67374688Y-45628536D01*
X67308553Y-45605998D01*
X67269516Y-45560946D01*
X67265050Y-45552182D01*
X67140109Y-45380213D01*
X66989786Y-45229890D01*
X66817820Y-45104951D01*
X66628414Y-45008444D01*
X66628413Y-45008443D01*
X66628412Y-45008443D01*
X66426243Y-44942754D01*
X66426241Y-44942753D01*
X66426240Y-44942753D01*
X66264957Y-44917208D01*
X66216287Y-44909500D01*
X66003713Y-44909500D01*
X65955042Y-44917208D01*
X65793760Y-44942753D01*
X65591585Y-45008444D01*
X65402179Y-45104951D01*
X65230213Y-45229890D01*
X65079890Y-45380213D01*
X64954951Y-45552179D01*
X64858444Y-45741585D01*
X64792753Y-45943760D01*
X64759500Y-46153713D01*
X64759500Y-46366286D01*
X64781950Y-46508034D01*
X64792754Y-46576243D01*
X64857034Y-46774077D01*
X64858444Y-46778414D01*
X64954951Y-46967820D01*
X65079890Y-47139786D01*
X65230213Y-47290109D01*
X65402182Y-47415050D01*
X65410946Y-47419516D01*
X65461742Y-47467491D01*
X65478536Y-47535312D01*
X65455998Y-47601447D01*
X65410946Y-47640484D01*
X65402182Y-47644949D01*
X65230213Y-47769890D01*
X65079890Y-47920213D01*
X64954951Y-48092179D01*
X64858444Y-48281585D01*
X64792753Y-48483760D01*
X64765804Y-48653910D01*
X64759500Y-48693713D01*
X64759500Y-48906287D01*
X64759758Y-48907913D01*
X64792753Y-49116239D01*
X64858444Y-49318414D01*
X64954951Y-49507820D01*
X65079890Y-49679786D01*
X65230213Y-49830109D01*
X65402179Y-49955048D01*
X65402181Y-49955049D01*
X65402184Y-49955051D01*
X65591588Y-50051557D01*
X65793757Y-50117246D01*
X66003713Y-50150500D01*
X66003714Y-50150500D01*
X66216286Y-50150500D01*
X66216287Y-50150500D01*
X66426243Y-50117246D01*
X66628412Y-50051557D01*
X66817816Y-49955051D01*
X66872572Y-49915269D01*
X66989786Y-49830109D01*
X66989788Y-49830106D01*
X66989792Y-49830104D01*
X67140104Y-49679792D01*
X67140106Y-49679788D01*
X67140109Y-49679786D01*
X67265048Y-49507820D01*
X67265047Y-49507820D01*
X67265051Y-49507816D01*
X67269514Y-49499054D01*
X67317488Y-49448259D01*
X67385308Y-49431463D01*
X67451444Y-49453999D01*
X67490486Y-49499056D01*
X67494951Y-49507820D01*
X67619890Y-49679786D01*
X67770213Y-49830109D01*
X67942179Y-49955048D01*
X67942181Y-49955049D01*
X67942184Y-49955051D01*
X68131588Y-50051557D01*
X68333757Y-50117246D01*
X68543713Y-50150500D01*
X68543714Y-50150500D01*
X68756286Y-50150500D01*
X68756287Y-50150500D01*
X68966243Y-50117246D01*
X69168412Y-50051557D01*
X69357816Y-49955051D01*
X69412572Y-49915269D01*
X69529786Y-49830109D01*
X69529788Y-49830106D01*
X69529792Y-49830104D01*
X69680104Y-49679792D01*
X69680106Y-49679788D01*
X69680109Y-49679786D01*
X69805048Y-49507820D01*
X69805047Y-49507820D01*
X69805051Y-49507816D01*
X69809514Y-49499054D01*
X69857488Y-49448259D01*
X69925308Y-49431463D01*
X69991444Y-49453999D01*
X70030486Y-49499056D01*
X70034951Y-49507820D01*
X70159890Y-49679786D01*
X70310213Y-49830109D01*
X70482179Y-49955048D01*
X70482181Y-49955049D01*
X70482184Y-49955051D01*
X70671588Y-50051557D01*
X70873757Y-50117246D01*
X71083713Y-50150500D01*
X71083714Y-50150500D01*
X71296286Y-50150500D01*
X71296287Y-50150500D01*
X71506243Y-50117246D01*
X71708412Y-50051557D01*
X71897816Y-49955051D01*
X71952572Y-49915269D01*
X72069786Y-49830109D01*
X72069788Y-49830106D01*
X72069792Y-49830104D01*
X72220104Y-49679792D01*
X72220106Y-49679788D01*
X72220109Y-49679786D01*
X72345048Y-49507820D01*
X72345047Y-49507820D01*
X72345051Y-49507816D01*
X72349514Y-49499054D01*
X72397488Y-49448259D01*
X72465308Y-49431463D01*
X72531444Y-49453999D01*
X72570486Y-49499056D01*
X72574951Y-49507820D01*
X72702759Y-49683734D01*
X72701888Y-49684366D01*
X72728357Y-49743401D01*
X72729500Y-49760199D01*
X72729500Y-53284217D01*
X72709815Y-53351256D01*
X72693181Y-53371898D01*
X72201651Y-53863427D01*
X72140328Y-53896912D01*
X72110834Y-53898919D01*
X72110834Y-53899500D01*
X72105962Y-53899500D01*
X71854038Y-53899500D01*
X71787738Y-53910001D01*
X71605214Y-53938910D01*
X71365616Y-54016760D01*
X71141151Y-54131132D01*
X70937350Y-54279201D01*
X70937347Y-54279204D01*
X70759205Y-54457345D01*
X70759201Y-54457350D01*
X70611132Y-54661151D01*
X70496760Y-54885616D01*
X70418910Y-55125214D01*
X70418910Y-55125215D01*
X70379500Y-55374038D01*
X70379500Y-55625962D01*
X70388943Y-55685580D01*
X70418910Y-55874785D01*
X70496760Y-56114383D01*
X70611132Y-56338848D01*
X70759201Y-56542649D01*
X70759205Y-56542654D01*
X70904370Y-56687819D01*
X70937855Y-56749142D01*
X70932871Y-56818834D01*
X70890999Y-56874767D01*
X70825535Y-56899184D01*
X70816689Y-56899500D01*
X64685782Y-56899500D01*
X64618743Y-56879815D01*
X64598101Y-56863181D01*
X63456819Y-55721899D01*
X63423334Y-55660576D01*
X63420500Y-55634218D01*
X63420500Y-54599995D01*
X63420499Y-54599982D01*
X63409999Y-54497203D01*
X63409821Y-54496666D01*
X63354814Y-54330665D01*
X63262712Y-54181344D01*
X63138656Y-54057288D01*
X62989335Y-53965186D01*
X62822798Y-53910001D01*
X62822796Y-53910000D01*
X62720017Y-53899500D01*
X62720010Y-53899500D01*
X61685782Y-53899500D01*
X61618743Y-53879815D01*
X61598101Y-53863181D01*
X59536819Y-51801899D01*
X59503334Y-51740576D01*
X59500500Y-51714218D01*
X59500500Y-48712230D01*
X59520185Y-48645191D01*
X59536819Y-48624549D01*
X59587880Y-48573488D01*
X59642712Y-48518656D01*
X59734814Y-48369334D01*
X59789999Y-48202797D01*
X59800500Y-48100009D01*
X59800499Y-46899992D01*
X59799571Y-46890912D01*
X59789999Y-46797203D01*
X59789998Y-46797200D01*
X59777671Y-46760000D01*
X59734814Y-46630666D01*
X59642712Y-46481344D01*
X59518656Y-46357288D01*
X59369334Y-46265186D01*
X59202797Y-46210001D01*
X59202795Y-46210000D01*
X59100010Y-46199500D01*
X57899998Y-46199500D01*
X57899981Y-46199501D01*
X57797203Y-46210000D01*
X57797200Y-46210001D01*
X57630668Y-46265185D01*
X57630663Y-46265187D01*
X57481345Y-46357287D01*
X57412121Y-46426511D01*
X57350797Y-46459995D01*
X57281106Y-46455010D01*
X57251555Y-46439147D01*
X57181352Y-46388142D01*
X56999031Y-46295244D01*
X56804417Y-46232009D01*
X56602317Y-46200000D01*
X56397683Y-46200000D01*
X56195582Y-46232009D01*
X56000968Y-46295244D01*
X55818644Y-46388143D01*
X55774077Y-46420523D01*
X55774077Y-46420524D01*
X56453553Y-47100000D01*
X56447339Y-47100000D01*
X56345606Y-47127259D01*
X56254394Y-47179920D01*
X56179920Y-47254394D01*
X56127259Y-47345606D01*
X56100000Y-47447339D01*
X56100000Y-47453553D01*
X55420524Y-46774077D01*
X55420523Y-46774077D01*
X55388143Y-46818644D01*
X55295244Y-47000968D01*
X55232009Y-47195582D01*
X55200000Y-47397682D01*
X55200000Y-47602317D01*
X55232009Y-47804417D01*
X55295244Y-47999031D01*
X55388141Y-48181350D01*
X55388147Y-48181359D01*
X55420523Y-48225921D01*
X55420524Y-48225922D01*
X56100000Y-47546446D01*
X56100000Y-47552661D01*
X56127259Y-47654394D01*
X56179920Y-47745606D01*
X56254394Y-47820080D01*
X56345606Y-47872741D01*
X56447339Y-47900000D01*
X56453552Y-47900000D01*
X55774076Y-48579474D01*
X55818650Y-48611859D01*
X56000968Y-48704755D01*
X56195582Y-48767990D01*
X56397683Y-48800000D01*
X56602317Y-48800000D01*
X56804417Y-48767990D01*
X56999031Y-48704755D01*
X57181341Y-48611863D01*
X57181349Y-48611858D01*
X57251552Y-48560852D01*
X57283679Y-48549388D01*
X57315593Y-48537485D01*
X57316491Y-48537680D01*
X57317358Y-48537371D01*
X57350560Y-48545091D01*
X57383866Y-48552337D01*
X57384833Y-48553061D01*
X57385412Y-48553196D01*
X57412120Y-48573488D01*
X57463181Y-48624549D01*
X57496666Y-48685872D01*
X57499500Y-48712230D01*
X57499500Y-52278541D01*
X57499500Y-52278543D01*
X57499499Y-52278543D01*
X57537947Y-52471829D01*
X57537948Y-52471833D01*
X57537949Y-52471835D01*
X57537950Y-52471837D01*
X57613364Y-52653907D01*
X57613371Y-52653920D01*
X57722860Y-52817781D01*
X57722863Y-52817785D01*
X57866537Y-52961459D01*
X57866559Y-52961479D01*
X60183181Y-55278101D01*
X60216666Y-55339424D01*
X60219500Y-55365782D01*
X60219500Y-56400017D01*
X60230000Y-56502796D01*
X60285185Y-56669332D01*
X60285187Y-56669337D01*
X60291440Y-56679474D01*
X60377288Y-56818656D01*
X60501344Y-56942712D01*
X60650665Y-57034814D01*
X60817202Y-57089999D01*
X60919990Y-57100500D01*
X61954218Y-57100500D01*
X62021257Y-57120185D01*
X62041899Y-57136819D01*
X62652398Y-57747318D01*
X62685883Y-57808641D01*
X62680899Y-57878333D01*
X62652398Y-57922680D01*
X61401797Y-59173281D01*
X61340474Y-59206766D01*
X61333515Y-59208073D01*
X61185468Y-59231522D01*
X60990778Y-59294781D01*
X60808386Y-59387715D01*
X60642786Y-59508028D01*
X60498028Y-59652786D01*
X60377715Y-59818386D01*
X60284781Y-60000776D01*
X60221522Y-60195465D01*
X60189500Y-60397648D01*
X60189500Y-60602351D01*
X60221522Y-60804534D01*
X60284781Y-60999223D01*
X60377715Y-61181613D01*
X60498028Y-61347213D01*
X60642786Y-61491971D01*
X60797749Y-61604556D01*
X60808390Y-61612287D01*
X60921442Y-61669890D01*
X60990776Y-61705218D01*
X60990778Y-61705218D01*
X60990781Y-61705220D01*
X61095137Y-61739127D01*
X61185465Y-61768477D01*
X61286557Y-61784488D01*
X61387648Y-61800500D01*
X61387649Y-61800500D01*
X61592351Y-61800500D01*
X61592352Y-61800500D01*
X61794534Y-61768477D01*
X61989219Y-61705220D01*
X62171610Y-61612287D01*
X62287490Y-61528096D01*
X62337213Y-61491971D01*
X62337215Y-61491968D01*
X62337219Y-61491966D01*
X62481966Y-61347219D01*
X62481968Y-61347215D01*
X62481971Y-61347213D01*
X62537276Y-61271091D01*
X62602287Y-61181610D01*
X62695220Y-60999219D01*
X62758477Y-60804534D01*
X62781925Y-60656483D01*
X62811854Y-60593350D01*
X62816699Y-60588219D01*
X64468102Y-58936819D01*
X64529425Y-58903334D01*
X64555783Y-58900500D01*
X69560902Y-58900500D01*
X69627941Y-58920185D01*
X69673696Y-58972989D01*
X69683640Y-59042147D01*
X69654615Y-59105703D01*
X69648583Y-59112181D01*
X69554842Y-59205922D01*
X69493519Y-59239407D01*
X69428843Y-59236172D01*
X69414534Y-59231523D01*
X69414528Y-59231522D01*
X69212352Y-59199500D01*
X69007648Y-59199500D01*
X68993310Y-59201771D01*
X68805465Y-59231522D01*
X68610776Y-59294781D01*
X68428386Y-59387715D01*
X68262786Y-59508028D01*
X68118028Y-59652786D01*
X67997715Y-59818386D01*
X67904781Y-60000776D01*
X67841522Y-60195465D01*
X67809500Y-60397648D01*
X67809500Y-60602351D01*
X67841522Y-60804534D01*
X67846173Y-60818848D01*
X67848165Y-60888690D01*
X67815921Y-60944842D01*
X67431286Y-61329478D01*
X67319481Y-61441282D01*
X67319479Y-61441285D01*
X67294420Y-61484689D01*
X67276290Y-61516093D01*
X67269361Y-61528094D01*
X67269359Y-61528096D01*
X67240425Y-61578209D01*
X67240424Y-61578210D01*
X67240423Y-61578215D01*
X67202629Y-61719265D01*
X67199500Y-61730941D01*
X67199499Y-61730944D01*
X67199499Y-61899046D01*
X67199500Y-61899059D01*
X67199500Y-62270397D01*
X67179815Y-62337436D01*
X67131800Y-62380879D01*
X67118389Y-62387712D01*
X66952786Y-62508028D01*
X66808028Y-62652786D01*
X66687715Y-62818386D01*
X66594781Y-63000776D01*
X66531522Y-63195465D01*
X66499500Y-63397648D01*
X66499500Y-63602351D01*
X66531522Y-63804534D01*
X66594781Y-63999223D01*
X66636327Y-64080760D01*
X66687585Y-64181359D01*
X66687715Y-64181613D01*
X66808028Y-64347213D01*
X66808034Y-64347219D01*
X66952781Y-64491966D01*
X67118390Y-64612287D01*
X67131793Y-64619116D01*
X67182589Y-64667088D01*
X67199500Y-64729601D01*
X67199500Y-82439902D01*
X67190855Y-82469342D01*
X67184332Y-82499329D01*
X67180577Y-82504344D01*
X67179815Y-82506941D01*
X67163181Y-82527584D01*
X67024522Y-82666242D01*
X66963199Y-82699726D01*
X66898523Y-82696491D01*
X66856245Y-82682754D01*
X66716272Y-82660584D01*
X66646287Y-82649500D01*
X66433713Y-82649500D01*
X66385042Y-82657208D01*
X66223760Y-82682753D01*
X66021585Y-82748444D01*
X65832179Y-82844951D01*
X65660215Y-82969889D01*
X65546673Y-83083431D01*
X65485350Y-83116915D01*
X65415658Y-83111931D01*
X65359725Y-83070059D01*
X65342810Y-83039082D01*
X65293797Y-82907671D01*
X65293793Y-82907664D01*
X65207547Y-82792455D01*
X65207544Y-82792452D01*
X65092335Y-82706206D01*
X65092328Y-82706202D01*
X64957482Y-82655908D01*
X64957483Y-82655908D01*
X64897883Y-82649501D01*
X64897881Y-82649500D01*
X64897873Y-82649500D01*
X64897864Y-82649500D01*
X63102129Y-82649500D01*
X63102123Y-82649501D01*
X63042516Y-82655908D01*
X62907671Y-82706202D01*
X62907664Y-82706206D01*
X62792455Y-82792452D01*
X62792452Y-82792455D01*
X62706206Y-82907664D01*
X62706202Y-82907671D01*
X62655908Y-83042517D01*
X62649501Y-83102116D01*
X62649500Y-83102135D01*
X62649500Y-84897870D01*
X62649501Y-84897876D01*
X62655908Y-84957483D01*
X62706202Y-85092328D01*
X62706206Y-85092335D01*
X62792452Y-85207544D01*
X62792455Y-85207547D01*
X62907664Y-85293793D01*
X62907671Y-85293797D01*
X63039082Y-85342810D01*
X63095016Y-85384681D01*
X63119433Y-85450145D01*
X63104582Y-85518418D01*
X63083431Y-85546673D01*
X62969889Y-85660215D01*
X62844951Y-85832179D01*
X62748444Y-86021585D01*
X62748443Y-86021587D01*
X62748443Y-86021588D01*
X62733124Y-86068735D01*
X62682753Y-86223760D01*
X62649500Y-86433713D01*
X62649500Y-86646287D01*
X62682754Y-86856243D01*
X62745915Y-87050633D01*
X62748444Y-87058414D01*
X62844951Y-87247820D01*
X62969890Y-87419786D01*
X63120213Y-87570109D01*
X63292179Y-87695048D01*
X63292181Y-87695049D01*
X63292184Y-87695051D01*
X63301493Y-87699794D01*
X63352290Y-87747766D01*
X63369087Y-87815587D01*
X63346552Y-87881722D01*
X63301505Y-87920760D01*
X63292446Y-87925376D01*
X63292440Y-87925380D01*
X63238282Y-87964727D01*
X63238282Y-87964728D01*
X63870591Y-88597037D01*
X63807007Y-88614075D01*
X63692993Y-88679901D01*
X63599901Y-88772993D01*
X63534075Y-88887007D01*
X63517037Y-88950591D01*
X62884728Y-88318282D01*
X62884727Y-88318282D01*
X62845380Y-88372439D01*
X62748904Y-88561782D01*
X62683242Y-88763869D01*
X62683242Y-88763872D01*
X62650000Y-88973753D01*
X62650000Y-89186246D01*
X62683242Y-89396127D01*
X62683242Y-89396130D01*
X62748904Y-89598217D01*
X62845375Y-89787550D01*
X62884728Y-89841716D01*
X63517037Y-89209408D01*
X63534075Y-89272993D01*
X63599901Y-89387007D01*
X63692993Y-89480099D01*
X63807007Y-89545925D01*
X63870590Y-89562962D01*
X63238282Y-90195269D01*
X63238282Y-90195270D01*
X63292449Y-90234624D01*
X63481782Y-90331095D01*
X63683870Y-90396757D01*
X63893754Y-90430000D01*
X64106246Y-90430000D01*
X64316127Y-90396757D01*
X64316130Y-90396757D01*
X64518217Y-90331095D01*
X64707554Y-90234622D01*
X64761716Y-90195270D01*
X64761717Y-90195270D01*
X64129408Y-89562962D01*
X64192993Y-89545925D01*
X64307007Y-89480099D01*
X64400099Y-89387007D01*
X64465925Y-89272993D01*
X64482962Y-89209409D01*
X65115270Y-89841717D01*
X65115270Y-89841716D01*
X65154622Y-89787554D01*
X65159514Y-89777954D01*
X65207488Y-89727157D01*
X65275308Y-89710361D01*
X65341444Y-89732897D01*
X65380486Y-89777954D01*
X65385375Y-89787550D01*
X65424728Y-89841716D01*
X66057037Y-89209408D01*
X66074075Y-89272993D01*
X66139901Y-89387007D01*
X66232993Y-89480099D01*
X66347007Y-89545925D01*
X66410590Y-89562962D01*
X65778282Y-90195269D01*
X65778282Y-90195270D01*
X65832449Y-90234624D01*
X66021782Y-90331095D01*
X66223870Y-90396757D01*
X66433754Y-90430000D01*
X66646246Y-90430000D01*
X66856127Y-90396757D01*
X66856130Y-90396757D01*
X67058217Y-90331095D01*
X67247554Y-90234622D01*
X67301716Y-90195270D01*
X67301717Y-90195270D01*
X66669408Y-89562962D01*
X66732993Y-89545925D01*
X66847007Y-89480099D01*
X66940099Y-89387007D01*
X67005925Y-89272993D01*
X67022962Y-89209408D01*
X67655270Y-89841717D01*
X67655270Y-89841716D01*
X67694622Y-89787554D01*
X67791095Y-89598217D01*
X67856757Y-89396130D01*
X67856757Y-89396127D01*
X67890000Y-89186246D01*
X67890000Y-88973753D01*
X67856757Y-88763872D01*
X67856757Y-88763869D01*
X67791095Y-88561782D01*
X67694624Y-88372449D01*
X67655270Y-88318282D01*
X67655269Y-88318282D01*
X67022962Y-88950590D01*
X67005925Y-88887007D01*
X66940099Y-88772993D01*
X66847007Y-88679901D01*
X66732993Y-88614075D01*
X66669409Y-88597037D01*
X67301716Y-87964728D01*
X67247547Y-87925373D01*
X67247547Y-87925372D01*
X67238500Y-87920763D01*
X67187706Y-87872788D01*
X67170912Y-87804966D01*
X67193451Y-87738832D01*
X67238508Y-87699793D01*
X67247816Y-87695051D01*
X67327007Y-87637515D01*
X67419786Y-87570109D01*
X67419788Y-87570106D01*
X67419792Y-87570104D01*
X67570104Y-87419792D01*
X67570106Y-87419788D01*
X67570109Y-87419786D01*
X67695048Y-87247820D01*
X67695047Y-87247820D01*
X67695051Y-87247816D01*
X67791557Y-87058412D01*
X67857246Y-86856243D01*
X67890500Y-86646287D01*
X67890500Y-86433713D01*
X67857246Y-86223757D01*
X67791557Y-86021588D01*
X67695051Y-85832184D01*
X67695049Y-85832181D01*
X67695048Y-85832179D01*
X67570109Y-85660213D01*
X67419786Y-85509890D01*
X67247820Y-85384951D01*
X67242342Y-85382160D01*
X67239054Y-85380485D01*
X67188259Y-85332512D01*
X67171463Y-85264692D01*
X67193999Y-85198556D01*
X67239054Y-85159515D01*
X67247816Y-85155051D01*
X67334138Y-85092335D01*
X67419786Y-85030109D01*
X67419788Y-85030106D01*
X67419792Y-85030104D01*
X67570104Y-84879792D01*
X67570106Y-84879788D01*
X67570109Y-84879786D01*
X67695048Y-84707820D01*
X67695047Y-84707820D01*
X67695051Y-84707816D01*
X67791557Y-84518412D01*
X67857246Y-84316243D01*
X67890500Y-84106287D01*
X67890500Y-83893713D01*
X67857246Y-83683757D01*
X67843506Y-83641473D01*
X67841512Y-83571635D01*
X67873755Y-83515478D01*
X68158506Y-83230728D01*
X68158511Y-83230724D01*
X68168714Y-83220520D01*
X68168716Y-83220520D01*
X68280520Y-83108716D01*
X68332029Y-83019499D01*
X68359577Y-82971785D01*
X68400500Y-82819057D01*
X68400500Y-82660943D01*
X68400500Y-67834041D01*
X72705000Y-67834041D01*
X72705000Y-67910000D01*
X73449670Y-67910000D01*
X73429925Y-67929745D01*
X73380556Y-68015255D01*
X73355000Y-68110630D01*
X73355000Y-68209370D01*
X73380556Y-68304745D01*
X73429925Y-68390255D01*
X73449670Y-68410000D01*
X72705000Y-68410000D01*
X72705000Y-68485958D01*
X72744387Y-68683974D01*
X72744390Y-68683983D01*
X72821652Y-68870513D01*
X72821659Y-68870526D01*
X72933829Y-69038399D01*
X72933832Y-69038403D01*
X73076596Y-69181167D01*
X73076600Y-69181170D01*
X73244473Y-69293340D01*
X73244486Y-69293347D01*
X73431016Y-69370609D01*
X73431025Y-69370612D01*
X73480000Y-69380353D01*
X73480000Y-68440330D01*
X73499745Y-68460075D01*
X73585255Y-68509444D01*
X73680630Y-68535000D01*
X73779370Y-68535000D01*
X73874745Y-68509444D01*
X73960255Y-68460075D01*
X73974500Y-68445830D01*
X73974500Y-68486002D01*
X73977617Y-68501671D01*
X73980000Y-68525865D01*
X73980000Y-69380352D01*
X74028974Y-69370612D01*
X74028983Y-69370609D01*
X74215515Y-69293346D01*
X74215518Y-69293344D01*
X74295658Y-69239796D01*
X74362335Y-69218917D01*
X74429716Y-69237401D01*
X74433422Y-69239783D01*
X74514244Y-69293786D01*
X74700873Y-69371091D01*
X74866777Y-69404091D01*
X74898992Y-69410499D01*
X74898996Y-69410500D01*
X74898997Y-69410500D01*
X75101004Y-69410500D01*
X75101005Y-69410499D01*
X75299127Y-69371091D01*
X75300284Y-69370612D01*
X75342879Y-69352968D01*
X75379798Y-69337674D01*
X75449267Y-69330205D01*
X75494658Y-69349962D01*
X75494886Y-69349546D01*
X75499540Y-69352087D01*
X75501562Y-69352967D01*
X75502669Y-69353796D01*
X75502670Y-69353796D01*
X75502671Y-69353797D01*
X75637517Y-69404091D01*
X75637516Y-69404091D01*
X75644444Y-69404835D01*
X75697127Y-69410500D01*
X76842872Y-69410499D01*
X76902483Y-69404091D01*
X77037331Y-69353796D01*
X77152546Y-69267546D01*
X77238796Y-69152331D01*
X77289091Y-69017483D01*
X77295500Y-68957873D01*
X77295499Y-67362128D01*
X77289091Y-67302517D01*
X77281289Y-67281600D01*
X77238797Y-67167671D01*
X77238793Y-67167664D01*
X77152547Y-67052455D01*
X77152544Y-67052452D01*
X77037335Y-66966206D01*
X77037328Y-66966202D01*
X76902482Y-66915908D01*
X76902483Y-66915908D01*
X76842883Y-66909501D01*
X76842881Y-66909500D01*
X76842873Y-66909500D01*
X76842864Y-66909500D01*
X75697129Y-66909500D01*
X75697123Y-66909501D01*
X75637516Y-66915908D01*
X75502672Y-66966202D01*
X75502665Y-66966206D01*
X75501556Y-66967037D01*
X75500258Y-66967520D01*
X75494887Y-66970454D01*
X75494465Y-66969681D01*
X75436090Y-66991449D01*
X75379800Y-66982325D01*
X75299127Y-66948909D01*
X75299119Y-66948907D01*
X75101007Y-66909500D01*
X75101003Y-66909500D01*
X74898997Y-66909500D01*
X74898992Y-66909500D01*
X74700880Y-66948907D01*
X74700872Y-66948909D01*
X74514243Y-67026214D01*
X74433439Y-67080204D01*
X74366761Y-67101081D01*
X74299382Y-67082595D01*
X74295659Y-67080203D01*
X74215526Y-67026659D01*
X74215513Y-67026652D01*
X74028984Y-66949390D01*
X74028977Y-66949388D01*
X73980000Y-66939645D01*
X73980000Y-67794134D01*
X73977617Y-67818326D01*
X73974500Y-67833995D01*
X73974500Y-67874170D01*
X73960255Y-67859925D01*
X73874745Y-67810556D01*
X73779370Y-67785000D01*
X73680630Y-67785000D01*
X73585255Y-67810556D01*
X73499745Y-67859925D01*
X73480000Y-67879670D01*
X73480000Y-66939646D01*
X73479999Y-66939645D01*
X73431022Y-66949388D01*
X73431015Y-66949390D01*
X73244486Y-67026652D01*
X73244473Y-67026659D01*
X73076600Y-67138829D01*
X73076596Y-67138832D01*
X72933832Y-67281596D01*
X72933829Y-67281600D01*
X72821659Y-67449473D01*
X72821652Y-67449486D01*
X72744390Y-67636016D01*
X72744387Y-67636025D01*
X72705000Y-67834041D01*
X68400500Y-67834041D01*
X68400500Y-64729601D01*
X68420185Y-64662562D01*
X68468206Y-64619116D01*
X68481610Y-64612287D01*
X68647219Y-64491966D01*
X68791966Y-64347219D01*
X68791968Y-64347215D01*
X68791971Y-64347213D01*
X68844732Y-64274590D01*
X68912287Y-64181610D01*
X69005220Y-63999219D01*
X69068477Y-63804534D01*
X69100500Y-63602352D01*
X69100500Y-63397648D01*
X69092257Y-63345606D01*
X69068477Y-63195465D01*
X69018528Y-63041739D01*
X69005220Y-63000781D01*
X69005218Y-63000778D01*
X69005218Y-63000776D01*
X68948314Y-62889097D01*
X68912287Y-62818390D01*
X68880092Y-62774077D01*
X68791971Y-62652786D01*
X68647213Y-62508028D01*
X68481610Y-62387712D01*
X68468200Y-62380879D01*
X68457138Y-62370431D01*
X68443297Y-62364110D01*
X68432255Y-62346928D01*
X68417406Y-62332903D01*
X68413165Y-62317223D01*
X68405523Y-62305332D01*
X68400500Y-62270397D01*
X68400500Y-62110096D01*
X68420185Y-62043057D01*
X68436815Y-62022419D01*
X68665157Y-61794076D01*
X68726480Y-61760592D01*
X68791154Y-61763826D01*
X68805466Y-61768477D01*
X69007648Y-61800500D01*
X69007649Y-61800500D01*
X69212351Y-61800500D01*
X69212352Y-61800500D01*
X69414534Y-61768477D01*
X69609219Y-61705220D01*
X69791610Y-61612287D01*
X69907490Y-61528096D01*
X69957213Y-61491971D01*
X69957215Y-61491968D01*
X69957219Y-61491966D01*
X70101966Y-61347219D01*
X70101968Y-61347215D01*
X70101971Y-61347213D01*
X70157276Y-61271091D01*
X70222287Y-61181610D01*
X70315220Y-60999219D01*
X70378477Y-60804534D01*
X70410500Y-60602352D01*
X70410500Y-60397648D01*
X70378477Y-60195466D01*
X70371443Y-60173820D01*
X70369989Y-60166255D01*
X70372617Y-60138841D01*
X70371832Y-60111312D01*
X70375945Y-60104149D01*
X70376659Y-60096704D01*
X70389825Y-60079974D01*
X70404075Y-60055158D01*
X71121416Y-59337819D01*
X71182739Y-59304334D01*
X71209097Y-59301500D01*
X72655952Y-59301500D01*
X72722991Y-59321185D01*
X72768746Y-59373989D01*
X72778690Y-59443147D01*
X72770513Y-59472953D01*
X72744389Y-59536020D01*
X72744387Y-59536025D01*
X72705000Y-59734041D01*
X72705000Y-59810000D01*
X73449670Y-59810000D01*
X73429925Y-59829745D01*
X73380556Y-59915255D01*
X73355000Y-60010630D01*
X73355000Y-60109370D01*
X73380556Y-60204745D01*
X73429925Y-60290255D01*
X73449670Y-60310000D01*
X72705000Y-60310000D01*
X72705000Y-60385958D01*
X72744387Y-60583974D01*
X72744390Y-60583983D01*
X72821652Y-60770513D01*
X72821659Y-60770526D01*
X72933829Y-60938399D01*
X72933832Y-60938403D01*
X73076596Y-61081167D01*
X73076600Y-61081170D01*
X73244473Y-61193340D01*
X73244486Y-61193347D01*
X73431016Y-61270609D01*
X73431025Y-61270612D01*
X73480000Y-61280353D01*
X73480000Y-60340330D01*
X73499745Y-60360075D01*
X73585255Y-60409444D01*
X73680630Y-60435000D01*
X73779370Y-60435000D01*
X73874745Y-60409444D01*
X73960255Y-60360075D01*
X73974500Y-60345830D01*
X73974500Y-60386003D01*
X73979722Y-60412259D01*
X73979968Y-60423046D01*
X73979788Y-60423714D01*
X73980000Y-60425865D01*
X73980000Y-61280352D01*
X74028974Y-61270612D01*
X74028983Y-61270609D01*
X74215515Y-61193346D01*
X74215518Y-61193344D01*
X74295658Y-61139796D01*
X74362335Y-61118917D01*
X74429716Y-61137401D01*
X74433422Y-61139783D01*
X74514244Y-61193786D01*
X74700873Y-61271091D01*
X74866777Y-61304091D01*
X74898992Y-61310499D01*
X74898996Y-61310500D01*
X74898997Y-61310500D01*
X75101004Y-61310500D01*
X75101005Y-61310499D01*
X75299127Y-61271091D01*
X75300284Y-61270612D01*
X75342879Y-61252968D01*
X75379798Y-61237674D01*
X75449267Y-61230205D01*
X75494658Y-61249962D01*
X75494886Y-61249546D01*
X75499540Y-61252087D01*
X75501562Y-61252967D01*
X75502669Y-61253796D01*
X75502670Y-61253796D01*
X75502671Y-61253797D01*
X75637517Y-61304091D01*
X75637516Y-61304091D01*
X75644444Y-61304835D01*
X75697127Y-61310500D01*
X76842872Y-61310499D01*
X76902483Y-61304091D01*
X77037331Y-61253796D01*
X77152546Y-61167546D01*
X77238796Y-61052331D01*
X77289091Y-60917483D01*
X77295500Y-60857873D01*
X77295499Y-59262128D01*
X77289091Y-59202517D01*
X77287966Y-59199500D01*
X77238858Y-59067833D01*
X77233874Y-58998141D01*
X77267359Y-58936818D01*
X77328683Y-58903334D01*
X77355040Y-58900500D01*
X77824218Y-58900500D01*
X77891257Y-58920185D01*
X77911898Y-58936818D01*
X79387399Y-60412320D01*
X79420883Y-60473641D01*
X79415899Y-60543333D01*
X79387398Y-60587680D01*
X79072340Y-60902739D01*
X78762221Y-61212858D01*
X78762218Y-61212861D01*
X78725533Y-61249546D01*
X78622859Y-61352219D01*
X78513371Y-61516080D01*
X78513364Y-61516093D01*
X78474932Y-61608877D01*
X78474924Y-61608898D01*
X78473521Y-61612287D01*
X78437949Y-61698164D01*
X78431429Y-61730943D01*
X78429768Y-61739292D01*
X78429768Y-61739293D01*
X78399500Y-61891456D01*
X78399500Y-61891459D01*
X78399500Y-80498541D01*
X78399500Y-80498543D01*
X78399499Y-80498543D01*
X78437947Y-80691829D01*
X78437950Y-80691839D01*
X78513364Y-80873907D01*
X78513371Y-80873920D01*
X78622860Y-81037781D01*
X78622863Y-81037785D01*
X78766537Y-81181459D01*
X78766559Y-81181479D01*
X81613181Y-84028101D01*
X81646666Y-84089424D01*
X81649500Y-84115782D01*
X81649501Y-84575500D01*
X81629817Y-84642539D01*
X81577013Y-84688294D01*
X81525501Y-84699500D01*
X79979057Y-84699500D01*
X79820942Y-84699500D01*
X79668215Y-84740423D01*
X79668214Y-84740423D01*
X79668212Y-84740424D01*
X79668209Y-84740425D01*
X79618096Y-84769359D01*
X79618095Y-84769360D01*
X79608238Y-84775051D01*
X79531285Y-84819479D01*
X79531282Y-84819481D01*
X69519481Y-94831282D01*
X69519479Y-94831285D01*
X69469361Y-94918094D01*
X69469359Y-94918096D01*
X69440425Y-94968209D01*
X69440424Y-94968210D01*
X69440423Y-94968215D01*
X69399499Y-95120943D01*
X69399499Y-95120945D01*
X69399499Y-95289046D01*
X69399500Y-95289059D01*
X69399500Y-101399902D01*
X69379815Y-101466941D01*
X69363181Y-101487583D01*
X68101266Y-102749497D01*
X68039943Y-102782982D01*
X67970251Y-102777998D01*
X67914318Y-102736126D01*
X67889901Y-102670662D01*
X67890742Y-102651187D01*
X67890118Y-102651138D01*
X67890500Y-102646287D01*
X67890500Y-102433713D01*
X67885176Y-102400099D01*
X67857246Y-102223757D01*
X67791557Y-102021588D01*
X67695051Y-101832184D01*
X67695049Y-101832181D01*
X67695048Y-101832179D01*
X67570109Y-101660213D01*
X67419786Y-101509890D01*
X67247820Y-101384951D01*
X67247115Y-101384591D01*
X67239054Y-101380485D01*
X67188259Y-101332512D01*
X67171463Y-101264692D01*
X67193999Y-101198556D01*
X67239054Y-101159515D01*
X67247816Y-101155051D01*
X67299501Y-101117500D01*
X67419786Y-101030109D01*
X67419788Y-101030106D01*
X67419792Y-101030104D01*
X67570104Y-100879792D01*
X67570106Y-100879788D01*
X67570109Y-100879786D01*
X67695048Y-100707820D01*
X67695047Y-100707820D01*
X67695051Y-100707816D01*
X67791557Y-100518412D01*
X67857246Y-100316243D01*
X67890500Y-100106287D01*
X67890500Y-99893713D01*
X67857246Y-99683757D01*
X67791557Y-99481588D01*
X67695051Y-99292184D01*
X67695049Y-99292181D01*
X67695048Y-99292179D01*
X67570109Y-99120213D01*
X67419786Y-98969890D01*
X67247820Y-98844951D01*
X67058414Y-98748444D01*
X67058413Y-98748443D01*
X67058412Y-98748443D01*
X66856243Y-98682754D01*
X66856241Y-98682753D01*
X66856240Y-98682753D01*
X66694957Y-98657208D01*
X66646287Y-98649500D01*
X66433713Y-98649500D01*
X66385042Y-98657208D01*
X66223760Y-98682753D01*
X66021585Y-98748444D01*
X65832179Y-98844951D01*
X65660215Y-98969889D01*
X65546673Y-99083431D01*
X65485350Y-99116915D01*
X65415658Y-99111931D01*
X65359725Y-99070059D01*
X65342810Y-99039082D01*
X65293797Y-98907671D01*
X65293793Y-98907664D01*
X65207547Y-98792455D01*
X65207544Y-98792452D01*
X65092335Y-98706206D01*
X65092328Y-98706202D01*
X64957482Y-98655908D01*
X64957483Y-98655908D01*
X64897883Y-98649501D01*
X64897881Y-98649500D01*
X64897873Y-98649500D01*
X64897865Y-98649500D01*
X63550097Y-98649500D01*
X63483058Y-98629815D01*
X63462416Y-98613181D01*
X59336819Y-94487584D01*
X59303334Y-94426261D01*
X59300500Y-94399903D01*
X59300500Y-63397682D01*
X61500000Y-63397682D01*
X61500000Y-63602317D01*
X61532009Y-63804417D01*
X61595244Y-63999031D01*
X61688141Y-64181350D01*
X61688147Y-64181359D01*
X61720523Y-64225921D01*
X61720524Y-64225922D01*
X62400000Y-63546446D01*
X62400000Y-63552661D01*
X62427259Y-63654394D01*
X62479920Y-63745606D01*
X62554394Y-63820080D01*
X62645606Y-63872741D01*
X62747339Y-63900000D01*
X62753553Y-63900000D01*
X62074076Y-64579474D01*
X62118650Y-64611859D01*
X62300968Y-64704755D01*
X62495582Y-64767990D01*
X62697683Y-64800000D01*
X62902317Y-64800000D01*
X63104417Y-64767990D01*
X63299031Y-64704755D01*
X63481349Y-64611859D01*
X63525921Y-64579474D01*
X62846447Y-63900000D01*
X62852661Y-63900000D01*
X62954394Y-63872741D01*
X63045606Y-63820080D01*
X63120080Y-63745606D01*
X63172741Y-63654394D01*
X63200000Y-63552661D01*
X63200000Y-63546447D01*
X63879474Y-64225921D01*
X63911859Y-64181349D01*
X64004755Y-63999031D01*
X64067990Y-63804417D01*
X64100000Y-63602317D01*
X64100000Y-63397682D01*
X64067990Y-63195582D01*
X64004755Y-63000968D01*
X63911859Y-62818650D01*
X63879474Y-62774077D01*
X63879474Y-62774076D01*
X63200000Y-63453551D01*
X63200000Y-63447339D01*
X63172741Y-63345606D01*
X63120080Y-63254394D01*
X63045606Y-63179920D01*
X62954394Y-63127259D01*
X62852661Y-63100000D01*
X62846446Y-63100000D01*
X63525922Y-62420524D01*
X63525921Y-62420523D01*
X63481359Y-62388147D01*
X63481350Y-62388141D01*
X63299031Y-62295244D01*
X63104417Y-62232009D01*
X62902317Y-62200000D01*
X62697683Y-62200000D01*
X62495582Y-62232009D01*
X62300968Y-62295244D01*
X62118644Y-62388143D01*
X62074077Y-62420523D01*
X62074077Y-62420524D01*
X62753554Y-63100000D01*
X62747339Y-63100000D01*
X62645606Y-63127259D01*
X62554394Y-63179920D01*
X62479920Y-63254394D01*
X62427259Y-63345606D01*
X62400000Y-63447339D01*
X62400000Y-63453553D01*
X61720524Y-62774077D01*
X61720523Y-62774077D01*
X61688143Y-62818644D01*
X61595244Y-63000968D01*
X61532009Y-63195582D01*
X61500000Y-63397682D01*
X59300500Y-63397682D01*
X59300500Y-58579060D01*
X59300501Y-58579047D01*
X59300501Y-58410944D01*
X59300501Y-58410943D01*
X59259577Y-58258216D01*
X59192740Y-58142449D01*
X59180524Y-58121290D01*
X59180518Y-58121282D01*
X56661685Y-55602449D01*
X54083756Y-53024521D01*
X54050272Y-52963199D01*
X54053507Y-52898523D01*
X54067246Y-52856243D01*
X54100500Y-52646287D01*
X54100500Y-52433713D01*
X54067246Y-52223757D01*
X54001557Y-52021588D01*
X53905051Y-51832184D01*
X53905049Y-51832181D01*
X53905048Y-51832179D01*
X53780109Y-51660213D01*
X53666181Y-51546285D01*
X53632696Y-51484962D01*
X53637680Y-51415270D01*
X53679552Y-51359337D01*
X53710529Y-51342422D01*
X53842086Y-51293354D01*
X53842093Y-51293350D01*
X53957187Y-51207190D01*
X53957190Y-51207187D01*
X54043350Y-51092093D01*
X54043354Y-51092086D01*
X54093596Y-50957379D01*
X54093598Y-50957372D01*
X54099999Y-50897844D01*
X54100000Y-50897827D01*
X54100000Y-50250000D01*
X53183012Y-50250000D01*
X53215925Y-50192993D01*
X53250000Y-50065826D01*
X53250000Y-49934174D01*
X53215925Y-49807007D01*
X53183012Y-49750000D01*
X54100000Y-49750000D01*
X54100000Y-49102172D01*
X54099999Y-49102155D01*
X54093598Y-49042627D01*
X54093596Y-49042620D01*
X54043354Y-48907913D01*
X54043350Y-48907906D01*
X53957190Y-48792812D01*
X53957187Y-48792809D01*
X53842093Y-48706649D01*
X53842086Y-48706645D01*
X53707379Y-48656403D01*
X53707372Y-48656401D01*
X53647844Y-48650000D01*
X53000000Y-48650000D01*
X53000000Y-49566988D01*
X52942993Y-49534075D01*
X52815826Y-49500000D01*
X52684174Y-49500000D01*
X52557007Y-49534075D01*
X52500000Y-49566988D01*
X52500000Y-48650000D01*
X51852155Y-48650000D01*
X51792627Y-48656401D01*
X51792617Y-48656403D01*
X51667832Y-48702945D01*
X51598141Y-48707929D01*
X51536818Y-48674443D01*
X51503334Y-48613120D01*
X51500500Y-48586763D01*
X51500500Y-43124500D01*
X51520185Y-43057461D01*
X51572989Y-43011706D01*
X51624500Y-43000500D01*
X98375500Y-43000500D01*
X98442539Y-43020185D01*
G37*
%TD.AperFunction*%
%TA.AperFunction,Conductor*%
G36*
X54305203Y-65104884D02*
G01*
X54311681Y-65110916D01*
X56860181Y-67659416D01*
X56893666Y-67720739D01*
X56896500Y-67747097D01*
X56896500Y-97719511D01*
X56896499Y-97719529D01*
X56896499Y-97885235D01*
X56896498Y-97885235D01*
X56937423Y-98037966D01*
X56966358Y-98088081D01*
X56966359Y-98088085D01*
X56966360Y-98088085D01*
X57016479Y-98174895D01*
X57016481Y-98174898D01*
X57135349Y-98293766D01*
X57135355Y-98293771D01*
X62925621Y-104084037D01*
X62959106Y-104145360D01*
X62954122Y-104215052D01*
X62938259Y-104244603D01*
X62845376Y-104372446D01*
X62748904Y-104561782D01*
X62683242Y-104763869D01*
X62683242Y-104763872D01*
X62657031Y-104929358D01*
X62627101Y-104992493D01*
X62567790Y-105029424D01*
X62497927Y-105028426D01*
X62446877Y-104997641D01*
X60387590Y-102938355D01*
X60387588Y-102938352D01*
X60268717Y-102819481D01*
X60268709Y-102819475D01*
X60179923Y-102768215D01*
X60179922Y-102768215D01*
X60131785Y-102740423D01*
X59979057Y-102699499D01*
X59820943Y-102699499D01*
X59813347Y-102699499D01*
X59813331Y-102699500D01*
X54224000Y-102699500D01*
X54156961Y-102679815D01*
X54111206Y-102627011D01*
X54100000Y-102575500D01*
X54100000Y-102250000D01*
X53183012Y-102250000D01*
X53215925Y-102192993D01*
X53250000Y-102065826D01*
X53250000Y-101934174D01*
X53215925Y-101807007D01*
X53183012Y-101750000D01*
X54100000Y-101750000D01*
X54100000Y-101102172D01*
X54099999Y-101102155D01*
X54093598Y-101042627D01*
X54093596Y-101042620D01*
X54043354Y-100907913D01*
X54043350Y-100907906D01*
X53957190Y-100792812D01*
X53957187Y-100792809D01*
X53842093Y-100706649D01*
X53842086Y-100706645D01*
X53707379Y-100656403D01*
X53707372Y-100656401D01*
X53647844Y-100650000D01*
X53000000Y-100650000D01*
X53000000Y-101566988D01*
X52942993Y-101534075D01*
X52815826Y-101500000D01*
X52684174Y-101500000D01*
X52557007Y-101534075D01*
X52500000Y-101566988D01*
X52500000Y-100650000D01*
X51852155Y-100650000D01*
X51792627Y-100656401D01*
X51792617Y-100656403D01*
X51667832Y-100702945D01*
X51598141Y-100707929D01*
X51536818Y-100674443D01*
X51503334Y-100613120D01*
X51500500Y-100586763D01*
X51500500Y-68665295D01*
X51520185Y-68598256D01*
X51572989Y-68552501D01*
X51634230Y-68541677D01*
X51634728Y-68541716D01*
X52267037Y-67909408D01*
X52284075Y-67972993D01*
X52349901Y-68087007D01*
X52442993Y-68180099D01*
X52557007Y-68245925D01*
X52620590Y-68262962D01*
X51988282Y-68895269D01*
X51988282Y-68895270D01*
X52042449Y-68934624D01*
X52231782Y-69031095D01*
X52433870Y-69096757D01*
X52643754Y-69130000D01*
X52856246Y-69130000D01*
X53066127Y-69096757D01*
X53066130Y-69096757D01*
X53268217Y-69031095D01*
X53457554Y-68934622D01*
X53511716Y-68895270D01*
X53511717Y-68895270D01*
X52879408Y-68262962D01*
X52942993Y-68245925D01*
X53057007Y-68180099D01*
X53150099Y-68087007D01*
X53215925Y-67972993D01*
X53232962Y-67909408D01*
X53865270Y-68541717D01*
X53865270Y-68541716D01*
X53904622Y-68487554D01*
X54001095Y-68298217D01*
X54066757Y-68096130D01*
X54066757Y-68096127D01*
X54100000Y-67886246D01*
X54100000Y-67673753D01*
X54066757Y-67463872D01*
X54066757Y-67463869D01*
X54001095Y-67261782D01*
X53904624Y-67072449D01*
X53865270Y-67018282D01*
X53865269Y-67018282D01*
X53232962Y-67650590D01*
X53215925Y-67587007D01*
X53150099Y-67472993D01*
X53057007Y-67379901D01*
X52942993Y-67314075D01*
X52879409Y-67297037D01*
X53511716Y-66664728D01*
X53457550Y-66625375D01*
X53447954Y-66620486D01*
X53397157Y-66572512D01*
X53380361Y-66504692D01*
X53402897Y-66438556D01*
X53447954Y-66399514D01*
X53457554Y-66394622D01*
X53511716Y-66355270D01*
X53511717Y-66355270D01*
X52879408Y-65722962D01*
X52942993Y-65705925D01*
X53057007Y-65640099D01*
X53150099Y-65547007D01*
X53215925Y-65432993D01*
X53232962Y-65369408D01*
X53865270Y-66001717D01*
X53865270Y-66001716D01*
X53904622Y-65947554D01*
X54001095Y-65758217D01*
X54066757Y-65556130D01*
X54066757Y-65556127D01*
X54100000Y-65346246D01*
X54100000Y-65198597D01*
X54119685Y-65131558D01*
X54172489Y-65085803D01*
X54241647Y-65075859D01*
X54305203Y-65104884D01*
G37*
%TD.AperFunction*%
%TA.AperFunction,Conductor*%
G36*
X65646839Y-87560185D02*
G01*
X65659365Y-87569493D01*
X65832179Y-87695048D01*
X65832181Y-87695049D01*
X65832184Y-87695051D01*
X65841493Y-87699794D01*
X65892290Y-87747766D01*
X65909087Y-87815587D01*
X65886552Y-87881722D01*
X65841505Y-87920760D01*
X65832446Y-87925376D01*
X65832440Y-87925380D01*
X65778282Y-87964727D01*
X65778282Y-87964728D01*
X66410591Y-88597037D01*
X66347007Y-88614075D01*
X66232993Y-88679901D01*
X66139901Y-88772993D01*
X66074075Y-88887007D01*
X66057037Y-88950591D01*
X65424728Y-88318282D01*
X65424727Y-88318282D01*
X65385380Y-88372440D01*
X65380483Y-88382051D01*
X65332506Y-88432845D01*
X65264684Y-88449638D01*
X65198550Y-88427098D01*
X65159516Y-88382048D01*
X65154626Y-88372452D01*
X65115270Y-88318282D01*
X65115269Y-88318282D01*
X64482962Y-88950590D01*
X64465925Y-88887007D01*
X64400099Y-88772993D01*
X64307007Y-88679901D01*
X64192993Y-88614075D01*
X64129409Y-88597037D01*
X64761716Y-87964728D01*
X64707547Y-87925373D01*
X64707547Y-87925372D01*
X64698500Y-87920763D01*
X64647706Y-87872788D01*
X64630912Y-87804966D01*
X64653451Y-87738832D01*
X64698508Y-87699793D01*
X64707816Y-87695051D01*
X64769593Y-87650167D01*
X64883734Y-87567241D01*
X64884364Y-87568108D01*
X64943419Y-87541641D01*
X64960200Y-87540500D01*
X65579800Y-87540500D01*
X65646839Y-87560185D01*
G37*
%TD.AperFunction*%
%TA.AperFunction,Conductor*%
G36*
X84646839Y-87560185D02*
G01*
X84659365Y-87569493D01*
X84832179Y-87695048D01*
X84832181Y-87695049D01*
X84832184Y-87695051D01*
X84841493Y-87699794D01*
X84892290Y-87747766D01*
X84909087Y-87815587D01*
X84886552Y-87881722D01*
X84841505Y-87920760D01*
X84832446Y-87925376D01*
X84832440Y-87925380D01*
X84778282Y-87964727D01*
X84778282Y-87964728D01*
X85410591Y-88597037D01*
X85347007Y-88614075D01*
X85232993Y-88679901D01*
X85139901Y-88772993D01*
X85074075Y-88887007D01*
X85057037Y-88950591D01*
X84424728Y-88318282D01*
X84424727Y-88318282D01*
X84385380Y-88372440D01*
X84380483Y-88382051D01*
X84332506Y-88432845D01*
X84264684Y-88449638D01*
X84198550Y-88427098D01*
X84159516Y-88382048D01*
X84154626Y-88372452D01*
X84115270Y-88318282D01*
X84115269Y-88318282D01*
X83482962Y-88950590D01*
X83465925Y-88887007D01*
X83400099Y-88772993D01*
X83307007Y-88679901D01*
X83192993Y-88614075D01*
X83129409Y-88597037D01*
X83761716Y-87964728D01*
X83707547Y-87925373D01*
X83707547Y-87925372D01*
X83698500Y-87920763D01*
X83647706Y-87872788D01*
X83630912Y-87804966D01*
X83653451Y-87738832D01*
X83698508Y-87699793D01*
X83707816Y-87695051D01*
X83769593Y-87650167D01*
X83883734Y-87567241D01*
X83884364Y-87568108D01*
X83943419Y-87541641D01*
X83960200Y-87540500D01*
X84579800Y-87540500D01*
X84646839Y-87560185D01*
G37*
%TD.AperFunction*%
%TA.AperFunction,Conductor*%
G36*
X52284075Y-65432993D02*
G01*
X52349901Y-65547007D01*
X52442993Y-65640099D01*
X52557007Y-65705925D01*
X52620590Y-65722962D01*
X51988282Y-66355269D01*
X51988282Y-66355270D01*
X52042452Y-66394626D01*
X52052048Y-66399516D01*
X52102844Y-66447491D01*
X52119638Y-66515312D01*
X52097100Y-66581447D01*
X52052051Y-66620483D01*
X52042440Y-66625380D01*
X51988282Y-66664727D01*
X51988282Y-66664728D01*
X52620591Y-67297037D01*
X52557007Y-67314075D01*
X52442993Y-67379901D01*
X52349901Y-67472993D01*
X52284075Y-67587007D01*
X52267037Y-67650591D01*
X51634727Y-67018281D01*
X51634228Y-67018321D01*
X51565851Y-67003956D01*
X51516095Y-66954905D01*
X51500500Y-66894703D01*
X51500500Y-66125295D01*
X51520185Y-66058256D01*
X51572989Y-66012501D01*
X51634230Y-66001677D01*
X51634728Y-66001716D01*
X52267037Y-65369408D01*
X52284075Y-65432993D01*
G37*
%TD.AperFunction*%
%TA.AperFunction,Conductor*%
G36*
X51633623Y-63537516D02*
G01*
X51642147Y-63536291D01*
X51666569Y-63547444D01*
X51692277Y-63555191D01*
X51701732Y-63563502D01*
X51705703Y-63565316D01*
X51718786Y-63578493D01*
X51719893Y-63579789D01*
X51870213Y-63730109D01*
X52042179Y-63855048D01*
X52042181Y-63855049D01*
X52042184Y-63855051D01*
X52051493Y-63859794D01*
X52102290Y-63907766D01*
X52119087Y-63975587D01*
X52096552Y-64041722D01*
X52051505Y-64080760D01*
X52042446Y-64085376D01*
X52042440Y-64085380D01*
X51988282Y-64124727D01*
X51988282Y-64124728D01*
X52620591Y-64757037D01*
X52557007Y-64774075D01*
X52442993Y-64839901D01*
X52349901Y-64932993D01*
X52284075Y-65047007D01*
X52267037Y-65110591D01*
X51634727Y-64478281D01*
X51634228Y-64478321D01*
X51565851Y-64463956D01*
X51516095Y-64414905D01*
X51500500Y-64354703D01*
X51500500Y-63659029D01*
X51508064Y-63633267D01*
X51512074Y-63606719D01*
X51517759Y-63600251D01*
X51520185Y-63591990D01*
X51540473Y-63574409D01*
X51558202Y-63554241D01*
X51566481Y-63551873D01*
X51572989Y-63546235D01*
X51599562Y-63542414D01*
X51625379Y-63535032D01*
X51633623Y-63537516D01*
G37*
%TD.AperFunction*%
%TA.AperFunction,Conductor*%
G36*
X82469441Y-49565888D02*
G01*
X82522234Y-49576979D01*
X82571991Y-49626030D01*
X82581291Y-49647227D01*
X82605184Y-49719328D01*
X82605187Y-49719336D01*
X82624101Y-49750000D01*
X82697288Y-49868656D01*
X82821344Y-49992712D01*
X82830591Y-49998416D01*
X82877318Y-50050360D01*
X82889500Y-50103957D01*
X82889500Y-51744217D01*
X82869815Y-51811256D01*
X82853181Y-51831898D01*
X80221899Y-54463181D01*
X80160576Y-54496666D01*
X80134218Y-54499500D01*
X79700301Y-54499500D01*
X79633262Y-54479815D01*
X79587507Y-54427011D01*
X79582598Y-54414512D01*
X79554814Y-54330665D01*
X79462712Y-54181344D01*
X79338656Y-54057288D01*
X79189335Y-53965186D01*
X79022798Y-53910001D01*
X79022796Y-53910000D01*
X78920017Y-53899500D01*
X78920010Y-53899500D01*
X77119990Y-53899500D01*
X77119982Y-53899500D01*
X77017203Y-53910000D01*
X77017202Y-53910001D01*
X76972092Y-53924949D01*
X76850667Y-53965185D01*
X76850662Y-53965187D01*
X76701342Y-54057289D01*
X76577289Y-54181342D01*
X76485187Y-54330662D01*
X76485185Y-54330667D01*
X76466259Y-54387783D01*
X76430001Y-54497202D01*
X76430001Y-54497203D01*
X76430000Y-54497203D01*
X76419500Y-54599982D01*
X76419500Y-56400017D01*
X76430000Y-56502796D01*
X76485185Y-56669332D01*
X76485189Y-56669341D01*
X76510517Y-56710404D01*
X76528957Y-56777796D01*
X76508034Y-56844460D01*
X76454392Y-56889229D01*
X76404978Y-56899500D01*
X73143311Y-56899500D01*
X73076272Y-56879815D01*
X73030517Y-56827011D01*
X73020573Y-56757853D01*
X73049598Y-56694297D01*
X73055630Y-56687819D01*
X73082479Y-56660970D01*
X73200793Y-56542656D01*
X73348870Y-56338845D01*
X73463241Y-56114379D01*
X73541090Y-55874785D01*
X73580500Y-55625962D01*
X73580500Y-55374038D01*
X73580500Y-55369166D01*
X73582028Y-55369166D01*
X73594979Y-55307415D01*
X73616567Y-55278351D01*
X74507140Y-54387781D01*
X74579686Y-54279207D01*
X74616632Y-54223914D01*
X74651608Y-54139474D01*
X74676450Y-54079501D01*
X74692049Y-54041840D01*
X74692051Y-54041836D01*
X74718275Y-53910001D01*
X74730500Y-53848541D01*
X74730500Y-49760199D01*
X74750185Y-49693160D01*
X74759471Y-49680664D01*
X74834801Y-49576979D01*
X74885051Y-49507816D01*
X74889793Y-49498508D01*
X74937763Y-49447711D01*
X75005583Y-49430911D01*
X75071719Y-49453445D01*
X75110763Y-49498500D01*
X75115373Y-49507547D01*
X75154728Y-49561716D01*
X75787037Y-48929408D01*
X75804075Y-48992993D01*
X75869901Y-49107007D01*
X75962993Y-49200099D01*
X76077007Y-49265925D01*
X76140590Y-49282962D01*
X75508282Y-49915269D01*
X75508282Y-49915270D01*
X75562449Y-49954624D01*
X75751782Y-50051095D01*
X75953870Y-50116757D01*
X76163754Y-50150000D01*
X76376246Y-50150000D01*
X76586127Y-50116757D01*
X76586130Y-50116757D01*
X76788217Y-50051095D01*
X76977554Y-49954622D01*
X77031716Y-49915270D01*
X77031717Y-49915270D01*
X76399408Y-49282962D01*
X76462993Y-49265925D01*
X76577007Y-49200099D01*
X76670099Y-49107007D01*
X76735925Y-48992993D01*
X76752962Y-48929408D01*
X77385270Y-49561717D01*
X77385270Y-49561716D01*
X77424622Y-49507554D01*
X77429514Y-49497954D01*
X77477488Y-49447157D01*
X77545308Y-49430361D01*
X77611444Y-49452897D01*
X77650486Y-49497954D01*
X77655375Y-49507550D01*
X77694728Y-49561716D01*
X78327037Y-48929408D01*
X78344075Y-48992993D01*
X78409901Y-49107007D01*
X78502993Y-49200099D01*
X78617007Y-49265925D01*
X78680590Y-49282962D01*
X78048282Y-49915269D01*
X78048282Y-49915270D01*
X78102449Y-49954624D01*
X78291782Y-50051095D01*
X78493870Y-50116757D01*
X78703754Y-50150000D01*
X78916246Y-50150000D01*
X79126127Y-50116757D01*
X79126130Y-50116757D01*
X79328217Y-50051095D01*
X79517554Y-49954622D01*
X79571716Y-49915270D01*
X79571717Y-49915270D01*
X78939408Y-49282962D01*
X79002993Y-49265925D01*
X79117007Y-49200099D01*
X79210099Y-49107007D01*
X79275925Y-48992993D01*
X79292962Y-48929408D01*
X79925270Y-49561717D01*
X79925270Y-49561716D01*
X79964622Y-49507554D01*
X79969514Y-49497954D01*
X80017488Y-49447157D01*
X80085308Y-49430361D01*
X80151444Y-49452897D01*
X80190486Y-49497954D01*
X80195375Y-49507550D01*
X80234728Y-49561716D01*
X80867037Y-48929408D01*
X80884075Y-48992993D01*
X80949901Y-49107007D01*
X81042993Y-49200099D01*
X81157007Y-49265925D01*
X81220590Y-49282962D01*
X80588282Y-49915269D01*
X80588282Y-49915270D01*
X80642449Y-49954624D01*
X80831782Y-50051095D01*
X81033870Y-50116757D01*
X81243754Y-50150000D01*
X81456246Y-50150000D01*
X81666127Y-50116757D01*
X81666130Y-50116757D01*
X81868217Y-50051095D01*
X82057554Y-49954622D01*
X82111716Y-49915270D01*
X82111717Y-49915270D01*
X81479408Y-49282962D01*
X81542993Y-49265925D01*
X81657007Y-49200099D01*
X81750099Y-49107007D01*
X81815925Y-48992993D01*
X81832962Y-48929408D01*
X82469441Y-49565888D01*
G37*
%TD.AperFunction*%
%TA.AperFunction,Conductor*%
G36*
X75804075Y-46452993D02*
G01*
X75869901Y-46567007D01*
X75962993Y-46660099D01*
X76077007Y-46725925D01*
X76140590Y-46742962D01*
X75508282Y-47375269D01*
X75508282Y-47375270D01*
X75562452Y-47414626D01*
X75572048Y-47419516D01*
X75622844Y-47467491D01*
X75639638Y-47535312D01*
X75617100Y-47601447D01*
X75572051Y-47640483D01*
X75562440Y-47645380D01*
X75508282Y-47684727D01*
X75508282Y-47684728D01*
X76140591Y-48317037D01*
X76077007Y-48334075D01*
X75962993Y-48399901D01*
X75869901Y-48492993D01*
X75804075Y-48607007D01*
X75787037Y-48670591D01*
X75154728Y-48038282D01*
X75154727Y-48038282D01*
X75115380Y-48092440D01*
X75115376Y-48092446D01*
X75110760Y-48101505D01*
X75062781Y-48152297D01*
X74994959Y-48169087D01*
X74928826Y-48146543D01*
X74889794Y-48101493D01*
X74885051Y-48092184D01*
X74885049Y-48092181D01*
X74885048Y-48092179D01*
X74757241Y-47916266D01*
X74758108Y-47915635D01*
X74731641Y-47856581D01*
X74730500Y-47839800D01*
X74730500Y-47220199D01*
X74750185Y-47153160D01*
X74759471Y-47140664D01*
X74845890Y-47021717D01*
X74885051Y-46967816D01*
X74889793Y-46958508D01*
X74937763Y-46907711D01*
X75005583Y-46890911D01*
X75071719Y-46913445D01*
X75110763Y-46958500D01*
X75115373Y-46967547D01*
X75154728Y-47021716D01*
X75787037Y-46389408D01*
X75804075Y-46452993D01*
G37*
%TD.AperFunction*%
%TA.AperFunction,Conductor*%
G36*
X78344075Y-46452993D02*
G01*
X78409901Y-46567007D01*
X78502993Y-46660099D01*
X78617007Y-46725925D01*
X78680590Y-46742962D01*
X78048282Y-47375269D01*
X78048282Y-47375270D01*
X78102452Y-47414626D01*
X78112048Y-47419516D01*
X78162844Y-47467491D01*
X78179638Y-47535312D01*
X78157100Y-47601447D01*
X78112051Y-47640483D01*
X78102440Y-47645380D01*
X78048282Y-47684727D01*
X78048282Y-47684728D01*
X78680591Y-48317037D01*
X78617007Y-48334075D01*
X78502993Y-48399901D01*
X78409901Y-48492993D01*
X78344075Y-48607007D01*
X78327037Y-48670591D01*
X77694728Y-48038282D01*
X77694727Y-48038282D01*
X77655380Y-48092440D01*
X77650483Y-48102051D01*
X77602506Y-48152845D01*
X77534684Y-48169638D01*
X77468550Y-48147098D01*
X77429516Y-48102048D01*
X77424626Y-48092452D01*
X77385270Y-48038282D01*
X77385269Y-48038282D01*
X76752962Y-48670590D01*
X76735925Y-48607007D01*
X76670099Y-48492993D01*
X76577007Y-48399901D01*
X76462993Y-48334075D01*
X76399409Y-48317037D01*
X77031716Y-47684728D01*
X76977550Y-47645375D01*
X76967954Y-47640486D01*
X76917157Y-47592512D01*
X76900361Y-47524692D01*
X76921288Y-47460895D01*
X77000027Y-47343581D01*
X76399408Y-46742962D01*
X76462993Y-46725925D01*
X76577007Y-46660099D01*
X76670099Y-46567007D01*
X76735925Y-46452993D01*
X76752962Y-46389408D01*
X77385270Y-47021717D01*
X77385270Y-47021716D01*
X77424622Y-46967554D01*
X77429514Y-46957954D01*
X77477488Y-46907157D01*
X77545308Y-46890361D01*
X77611444Y-46912897D01*
X77650486Y-46957954D01*
X77655375Y-46967550D01*
X77694728Y-47021716D01*
X78327037Y-46389408D01*
X78344075Y-46452993D01*
G37*
%TD.AperFunction*%
%TA.AperFunction,Conductor*%
G36*
X80884075Y-46452993D02*
G01*
X80949901Y-46567007D01*
X81042993Y-46660099D01*
X81157007Y-46725925D01*
X81220590Y-46742962D01*
X80588282Y-47375269D01*
X80588282Y-47375270D01*
X80642452Y-47414626D01*
X80652048Y-47419516D01*
X80702844Y-47467491D01*
X80719638Y-47535312D01*
X80697100Y-47601447D01*
X80652051Y-47640483D01*
X80642440Y-47645380D01*
X80588282Y-47684727D01*
X80588282Y-47684728D01*
X81220591Y-48317037D01*
X81157007Y-48334075D01*
X81042993Y-48399901D01*
X80949901Y-48492993D01*
X80884075Y-48607007D01*
X80867037Y-48670591D01*
X80234728Y-48038282D01*
X80234727Y-48038282D01*
X80195380Y-48092440D01*
X80190483Y-48102051D01*
X80142506Y-48152845D01*
X80074684Y-48169638D01*
X80008550Y-48147098D01*
X79969516Y-48102048D01*
X79964626Y-48092452D01*
X79925270Y-48038282D01*
X79925269Y-48038282D01*
X79292962Y-48670590D01*
X79275925Y-48607007D01*
X79210099Y-48492993D01*
X79117007Y-48399901D01*
X79002993Y-48334075D01*
X78939409Y-48317037D01*
X79571716Y-47684728D01*
X79517550Y-47645375D01*
X79507954Y-47640486D01*
X79457157Y-47592512D01*
X79440361Y-47524692D01*
X79461288Y-47460895D01*
X79540027Y-47343581D01*
X78939408Y-46742962D01*
X79002993Y-46725925D01*
X79117007Y-46660099D01*
X79210099Y-46567007D01*
X79275925Y-46452993D01*
X79292962Y-46389408D01*
X79925270Y-47021717D01*
X79925270Y-47021716D01*
X79964622Y-46967554D01*
X79969514Y-46957954D01*
X80017488Y-46907157D01*
X80085308Y-46890361D01*
X80151444Y-46912897D01*
X80190486Y-46957954D01*
X80195375Y-46967550D01*
X80234728Y-47021716D01*
X80867037Y-46389408D01*
X80884075Y-46452993D01*
G37*
%TD.AperFunction*%
%TA.AperFunction,Conductor*%
G36*
X82465270Y-47021717D02*
G01*
X82465270Y-47021716D01*
X82504622Y-46967555D01*
X82509232Y-46958507D01*
X82557205Y-46907709D01*
X82625025Y-46890912D01*
X82691161Y-46913447D01*
X82730204Y-46958504D01*
X82734949Y-46967817D01*
X82862759Y-47143734D01*
X82861888Y-47144366D01*
X82888357Y-47203401D01*
X82889500Y-47220199D01*
X82889500Y-47496042D01*
X82869815Y-47563081D01*
X82830598Y-47601580D01*
X82821344Y-47607287D01*
X82697289Y-47731342D01*
X82605187Y-47880663D01*
X82605186Y-47880666D01*
X82592082Y-47920213D01*
X82581293Y-47952771D01*
X82541520Y-48010215D01*
X82477004Y-48037038D01*
X82466354Y-48037197D01*
X81832962Y-48670590D01*
X81815925Y-48607007D01*
X81750099Y-48492993D01*
X81657007Y-48399901D01*
X81542993Y-48334075D01*
X81479409Y-48317037D01*
X82111716Y-47684728D01*
X82057550Y-47645375D01*
X82047954Y-47640486D01*
X81997157Y-47592512D01*
X81980361Y-47524692D01*
X82002897Y-47458556D01*
X82047954Y-47419514D01*
X82057554Y-47414622D01*
X82111716Y-47375270D01*
X82111717Y-47375270D01*
X81479408Y-46742962D01*
X81542993Y-46725925D01*
X81657007Y-46660099D01*
X81750099Y-46567007D01*
X81815925Y-46452993D01*
X81832962Y-46389408D01*
X82465270Y-47021717D01*
G37*
%TD.AperFunction*%
%TD*%
M02*
