M48
; DRILL file {KiCad 9.0.7} date 2026-04-05T21:43:15+0200
; FORMAT={-:-/ absolute / metric / decimal}
; #@! TF.CreationDate,2026-04-05T21:43:15+02:00
; #@! TF.GenerationSoftware,Kicad,Pcbnew,9.0.7
; #@! TF.FileFunction,Plated,1,2,PTH
FMAT,2
METRIC
; #@! TA.AperFunction,Plated,PTH,ComponentDrill
T1C0.800
; #@! TA.AperFunction,Plated,PTH,ComponentDrill
T2C1.000
%
G90
G05
T1
X51.5Y-74.9
X52.7Y-67.6
X52.7Y-72.6
X55.3Y-67.6
X55.3Y-72.6
X56.5Y-74.9
X59.99Y-82.75
X59.99Y-87.7
X60.0Y-33.4
X60.0Y-38.337
X60.0Y-43.275
X60.0Y-48.212
X60.0Y-53.15
X60.0Y-58.087
X60.0Y-63.025
X60.0Y-67.962
X60.0Y-72.9
X60.0Y-77.8
X60.0Y-92.65
X60.0Y-97.6
X60.0Y-102.5
X60.0Y-107.433
X60.0Y-112.367
X60.0Y-117.3
X60.0Y-122.233
X67.61Y-82.75
X67.61Y-87.7
X67.62Y-33.4
X67.62Y-38.337
X67.62Y-43.275
X67.62Y-48.212
X67.62Y-53.15
X67.62Y-58.087
X67.62Y-63.025
X67.62Y-67.962
X67.62Y-72.9
X67.62Y-77.8
X67.62Y-92.65
X67.62Y-97.6
X67.62Y-102.5
X67.62Y-107.433
X67.62Y-112.367
X67.62Y-117.3
X67.62Y-122.233
X71.2Y-52.6
X71.2Y-57.6
X71.2Y-90.05
X71.2Y-92.55
X71.2Y-97.6
X71.2Y-102.6
X72.46Y-75.96
X72.46Y-116.0
X72.46Y-125.0
X75.0Y-45.0
X75.0Y-47.54
X75.0Y-50.08
X75.0Y-52.62
X75.0Y-55.16
X75.0Y-57.7
X75.0Y-60.24
X75.0Y-62.89
X75.0Y-70.51
X75.0Y-75.96
X75.0Y-90.0
X75.0Y-92.54
X75.0Y-95.08
X75.0Y-97.62
X75.0Y-100.16
X75.0Y-102.7
X75.0Y-105.24
X75.0Y-116.0
X75.0Y-125.0
X77.54Y-75.96
X77.54Y-116.0
X77.54Y-125.0
X80.06Y-75.96
X80.06Y-116.0
X80.06Y-125.0
X82.6Y-62.89
X82.6Y-70.51
X82.6Y-75.96
X82.6Y-116.0
X82.6Y-125.0
X82.62Y-45.0
X82.62Y-47.54
X82.62Y-50.08
X82.62Y-52.62
X82.62Y-55.16
X82.62Y-57.7
X82.62Y-60.24
X82.62Y-90.0
X82.62Y-92.54
X82.62Y-95.08
X82.62Y-97.62
X82.62Y-100.16
X82.62Y-102.7
X82.62Y-105.24
X85.14Y-75.96
X85.14Y-116.0
X85.14Y-125.0
X86.4Y-90.05
X86.4Y-92.55
X86.5Y-33.4
X86.5Y-38.4
X86.5Y-43.0
X86.5Y-48.0
X86.5Y-52.6
X86.5Y-57.6
X86.5Y-97.6
X86.5Y-102.6
X86.5Y-105.95
X86.5Y-108.45
X89.99Y-58.1
X90.0Y-33.4
X90.0Y-38.338
X90.0Y-43.277
X90.0Y-48.215
X90.0Y-53.154
X90.0Y-63.031
X90.0Y-67.969
X90.0Y-72.908
X90.0Y-77.846
X90.0Y-82.785
X90.0Y-87.723
X90.0Y-92.662
X90.0Y-97.6
X90.0Y-102.5
X90.0Y-107.433
X90.0Y-112.367
X90.0Y-117.3
X90.0Y-122.233
X97.61Y-58.1
X97.62Y-33.4
X97.62Y-38.338
X97.62Y-43.277
X97.62Y-48.215
X97.62Y-53.154
X97.62Y-63.031
X97.62Y-67.969
X97.62Y-72.908
X97.62Y-77.846
X97.62Y-82.785
X97.62Y-87.723
X97.62Y-92.662
X97.62Y-97.6
X97.62Y-102.5
X97.62Y-107.433
X97.62Y-112.367
X97.62Y-117.3
X97.62Y-122.233
T2
X52.46Y-34.0
X52.46Y-36.54
X52.46Y-39.08
X52.46Y-50.0
X52.46Y-52.54
X52.46Y-55.08
X52.46Y-57.62
X52.46Y-60.16
X52.46Y-62.7
X52.46Y-80.0
X52.46Y-82.54
X52.46Y-85.08
X55.0Y-34.0
X55.0Y-36.54
X55.0Y-39.08
X55.0Y-50.0
X55.0Y-52.54
X55.0Y-55.08
X55.0Y-57.62
X55.0Y-60.16
X55.0Y-62.7
X55.0Y-80.0
X55.0Y-82.54
X55.0Y-85.08
M30
