%TF.GenerationSoftware,KiCad,Pcbnew,9.0.7*%
%TF.CreationDate,2026-04-05T21:43:12+02:00*%
%TF.ProjectId,DMH_Slew_PCB_3_v3,444d485f-536c-4657-975f-5043425f335f,1*%
%TF.SameCoordinates,Original*%
%TF.FileFunction,Legend,Bot*%
%TF.FilePolarity,Positive*%
%FSLAX46Y46*%
G04 Gerber Fmt 4.6, Leading zero omitted, Abs format (unit mm)*
G04 Created by KiCad (PCBNEW 9.0.7) date 2026-04-05 21:43:12*
%MOMM*%
%LPD*%
G01*
G04 APERTURE LIST*
G04 Aperture macros list*
%AMRoundRect*
0 Rectangle with rounded corners*
0 $1 Rounding radius*
0 $2 $3 $4 $5 $6 $7 $8 $9 X,Y pos of 4 corners*
0 Add a 4 corners polygon primitive as box body*
4,1,4,$2,$3,$4,$5,$6,$7,$8,$9,$2,$3,0*
0 Add four circle primitives for the rounded corners*
1,1,$1+$1,$2,$3*
1,1,$1+$1,$4,$5*
1,1,$1+$1,$6,$7*
1,1,$1+$1,$8,$9*
0 Add four rect primitives between the rounded corners*
20,1,$1+$1,$2,$3,$4,$5,0*
20,1,$1+$1,$4,$5,$6,$7,0*
20,1,$1+$1,$6,$7,$8,$9,0*
20,1,$1+$1,$8,$9,$2,$3,0*%
G04 Aperture macros list end*
%ADD10C,0.100000*%
%ADD11C,0.250000*%
%ADD12C,0.150000*%
%ADD13C,0.120000*%
%ADD14C,1.600000*%
%ADD15RoundRect,0.250000X0.550000X-0.550000X0.550000X0.550000X-0.550000X0.550000X-0.550000X-0.550000X0*%
%ADD16R,1.500000X1.500000*%
%ADD17C,1.500000*%
%ADD18RoundRect,0.250000X-0.550000X-0.550000X0.550000X-0.550000X0.550000X0.550000X-0.550000X0.550000X0*%
%ADD19R,1.700000X1.700000*%
%ADD20C,1.700000*%
G04 APERTURE END LIST*
D10*
X55000000Y-125500000D02*
X65000000Y-125500000D01*
X65000000Y-127500000D01*
X55000000Y-127500000D01*
X55000000Y-125500000D01*
G36*
X55000000Y-125500000D02*
G01*
X65000000Y-125500000D01*
X65000000Y-127500000D01*
X55000000Y-127500000D01*
X55000000Y-125500000D01*
G37*
D11*
X67559523Y-129199619D02*
X67559523Y-128199619D01*
X67559523Y-128199619D02*
X67226190Y-128913904D01*
X67226190Y-128913904D02*
X66892857Y-128199619D01*
X66892857Y-128199619D02*
X66892857Y-129199619D01*
X66416666Y-129199619D02*
X66416666Y-128199619D01*
X66321428Y-128818666D02*
X66035714Y-129199619D01*
X66035714Y-128532952D02*
X66416666Y-128913904D01*
X65083333Y-129199619D02*
X65654761Y-129199619D01*
X65369047Y-129199619D02*
X65369047Y-128199619D01*
X65369047Y-128199619D02*
X65464285Y-128342476D01*
X65464285Y-128342476D02*
X65559523Y-128437714D01*
X65559523Y-128437714D02*
X65654761Y-128485333D01*
X64654761Y-129104380D02*
X64607142Y-129152000D01*
X64607142Y-129152000D02*
X64654761Y-129199619D01*
X64654761Y-129199619D02*
X64702380Y-129152000D01*
X64702380Y-129152000D02*
X64654761Y-129104380D01*
X64654761Y-129104380D02*
X64654761Y-129199619D01*
X63988095Y-128199619D02*
X63892857Y-128199619D01*
X63892857Y-128199619D02*
X63797619Y-128247238D01*
X63797619Y-128247238D02*
X63750000Y-128294857D01*
X63750000Y-128294857D02*
X63702381Y-128390095D01*
X63702381Y-128390095D02*
X63654762Y-128580571D01*
X63654762Y-128580571D02*
X63654762Y-128818666D01*
X63654762Y-128818666D02*
X63702381Y-129009142D01*
X63702381Y-129009142D02*
X63750000Y-129104380D01*
X63750000Y-129104380D02*
X63797619Y-129152000D01*
X63797619Y-129152000D02*
X63892857Y-129199619D01*
X63892857Y-129199619D02*
X63988095Y-129199619D01*
X63988095Y-129199619D02*
X64083333Y-129152000D01*
X64083333Y-129152000D02*
X64130952Y-129104380D01*
X64130952Y-129104380D02*
X64178571Y-129009142D01*
X64178571Y-129009142D02*
X64226190Y-128818666D01*
X64226190Y-128818666D02*
X64226190Y-128580571D01*
X64226190Y-128580571D02*
X64178571Y-128390095D01*
X64178571Y-128390095D02*
X64130952Y-128294857D01*
X64130952Y-128294857D02*
X64083333Y-128247238D01*
X64083333Y-128247238D02*
X63988095Y-128199619D01*
X62464285Y-128818666D02*
X61702381Y-128818666D01*
X60464285Y-129199619D02*
X60464285Y-128199619D01*
X60464285Y-128199619D02*
X60130952Y-128913904D01*
X60130952Y-128913904D02*
X59797619Y-128199619D01*
X59797619Y-128199619D02*
X59797619Y-129199619D01*
X58892857Y-129199619D02*
X58892857Y-128675809D01*
X58892857Y-128675809D02*
X58940476Y-128580571D01*
X58940476Y-128580571D02*
X59035714Y-128532952D01*
X59035714Y-128532952D02*
X59226190Y-128532952D01*
X59226190Y-128532952D02*
X59321428Y-128580571D01*
X58892857Y-129152000D02*
X58988095Y-129199619D01*
X58988095Y-129199619D02*
X59226190Y-129199619D01*
X59226190Y-129199619D02*
X59321428Y-129152000D01*
X59321428Y-129152000D02*
X59369047Y-129056761D01*
X59369047Y-129056761D02*
X59369047Y-128961523D01*
X59369047Y-128961523D02*
X59321428Y-128866285D01*
X59321428Y-128866285D02*
X59226190Y-128818666D01*
X59226190Y-128818666D02*
X58988095Y-128818666D01*
X58988095Y-128818666D02*
X58892857Y-128771047D01*
X58416666Y-129199619D02*
X58416666Y-128532952D01*
X58416666Y-128723428D02*
X58369047Y-128628190D01*
X58369047Y-128628190D02*
X58321428Y-128580571D01*
X58321428Y-128580571D02*
X58226190Y-128532952D01*
X58226190Y-128532952D02*
X58130952Y-128532952D01*
X57369047Y-129152000D02*
X57464285Y-129199619D01*
X57464285Y-129199619D02*
X57654761Y-129199619D01*
X57654761Y-129199619D02*
X57749999Y-129152000D01*
X57749999Y-129152000D02*
X57797618Y-129104380D01*
X57797618Y-129104380D02*
X57845237Y-129009142D01*
X57845237Y-129009142D02*
X57845237Y-128723428D01*
X57845237Y-128723428D02*
X57797618Y-128628190D01*
X57797618Y-128628190D02*
X57749999Y-128580571D01*
X57749999Y-128580571D02*
X57654761Y-128532952D01*
X57654761Y-128532952D02*
X57464285Y-128532952D01*
X57464285Y-128532952D02*
X57369047Y-128580571D01*
X56940475Y-129199619D02*
X56940475Y-128199619D01*
X56511904Y-129199619D02*
X56511904Y-128675809D01*
X56511904Y-128675809D02*
X56559523Y-128580571D01*
X56559523Y-128580571D02*
X56654761Y-128532952D01*
X56654761Y-128532952D02*
X56797618Y-128532952D01*
X56797618Y-128532952D02*
X56892856Y-128580571D01*
X56892856Y-128580571D02*
X56940475Y-128628190D01*
X55321427Y-128294857D02*
X55273808Y-128247238D01*
X55273808Y-128247238D02*
X55178570Y-128199619D01*
X55178570Y-128199619D02*
X54940475Y-128199619D01*
X54940475Y-128199619D02*
X54845237Y-128247238D01*
X54845237Y-128247238D02*
X54797618Y-128294857D01*
X54797618Y-128294857D02*
X54749999Y-128390095D01*
X54749999Y-128390095D02*
X54749999Y-128485333D01*
X54749999Y-128485333D02*
X54797618Y-128628190D01*
X54797618Y-128628190D02*
X55369046Y-129199619D01*
X55369046Y-129199619D02*
X54749999Y-129199619D01*
X54130951Y-128199619D02*
X54035713Y-128199619D01*
X54035713Y-128199619D02*
X53940475Y-128247238D01*
X53940475Y-128247238D02*
X53892856Y-128294857D01*
X53892856Y-128294857D02*
X53845237Y-128390095D01*
X53845237Y-128390095D02*
X53797618Y-128580571D01*
X53797618Y-128580571D02*
X53797618Y-128818666D01*
X53797618Y-128818666D02*
X53845237Y-129009142D01*
X53845237Y-129009142D02*
X53892856Y-129104380D01*
X53892856Y-129104380D02*
X53940475Y-129152000D01*
X53940475Y-129152000D02*
X54035713Y-129199619D01*
X54035713Y-129199619D02*
X54130951Y-129199619D01*
X54130951Y-129199619D02*
X54226189Y-129152000D01*
X54226189Y-129152000D02*
X54273808Y-129104380D01*
X54273808Y-129104380D02*
X54321427Y-129009142D01*
X54321427Y-129009142D02*
X54369046Y-128818666D01*
X54369046Y-128818666D02*
X54369046Y-128580571D01*
X54369046Y-128580571D02*
X54321427Y-128390095D01*
X54321427Y-128390095D02*
X54273808Y-128294857D01*
X54273808Y-128294857D02*
X54226189Y-128247238D01*
X54226189Y-128247238D02*
X54130951Y-128199619D01*
X53416665Y-128294857D02*
X53369046Y-128247238D01*
X53369046Y-128247238D02*
X53273808Y-128199619D01*
X53273808Y-128199619D02*
X53035713Y-128199619D01*
X53035713Y-128199619D02*
X52940475Y-128247238D01*
X52940475Y-128247238D02*
X52892856Y-128294857D01*
X52892856Y-128294857D02*
X52845237Y-128390095D01*
X52845237Y-128390095D02*
X52845237Y-128485333D01*
X52845237Y-128485333D02*
X52892856Y-128628190D01*
X52892856Y-128628190D02*
X53464284Y-129199619D01*
X53464284Y-129199619D02*
X52845237Y-129199619D01*
X51988094Y-128199619D02*
X52178570Y-128199619D01*
X52178570Y-128199619D02*
X52273808Y-128247238D01*
X52273808Y-128247238D02*
X52321427Y-128294857D01*
X52321427Y-128294857D02*
X52416665Y-128437714D01*
X52416665Y-128437714D02*
X52464284Y-128628190D01*
X52464284Y-128628190D02*
X52464284Y-129009142D01*
X52464284Y-129009142D02*
X52416665Y-129104380D01*
X52416665Y-129104380D02*
X52369046Y-129152000D01*
X52369046Y-129152000D02*
X52273808Y-129199619D01*
X52273808Y-129199619D02*
X52083332Y-129199619D01*
X52083332Y-129199619D02*
X51988094Y-129152000D01*
X51988094Y-129152000D02*
X51940475Y-129104380D01*
X51940475Y-129104380D02*
X51892856Y-129009142D01*
X51892856Y-129009142D02*
X51892856Y-128771047D01*
X51892856Y-128771047D02*
X51940475Y-128675809D01*
X51940475Y-128675809D02*
X51988094Y-128628190D01*
X51988094Y-128628190D02*
X52083332Y-128580571D01*
X52083332Y-128580571D02*
X52273808Y-128580571D01*
X52273808Y-128580571D02*
X52369046Y-128628190D01*
X52369046Y-128628190D02*
X52416665Y-128675809D01*
X52416665Y-128675809D02*
X52464284Y-128771047D01*
D12*
X54509523Y-31154819D02*
X54509523Y-31869104D01*
X54509523Y-31869104D02*
X54557142Y-32011961D01*
X54557142Y-32011961D02*
X54652380Y-32107200D01*
X54652380Y-32107200D02*
X54795237Y-32154819D01*
X54795237Y-32154819D02*
X54890475Y-32154819D01*
X53509523Y-32154819D02*
X54080951Y-32154819D01*
X53795237Y-32154819D02*
X53795237Y-31154819D01*
X53795237Y-31154819D02*
X53890475Y-31297676D01*
X53890475Y-31297676D02*
X53985713Y-31392914D01*
X53985713Y-31392914D02*
X54080951Y-31440533D01*
X52557142Y-32154819D02*
X53128570Y-32154819D01*
X52842856Y-32154819D02*
X52842856Y-31154819D01*
X52842856Y-31154819D02*
X52938094Y-31297676D01*
X52938094Y-31297676D02*
X53033332Y-31392914D01*
X53033332Y-31392914D02*
X53128570Y-31440533D01*
X54509523Y-47184819D02*
X54509523Y-47899104D01*
X54509523Y-47899104D02*
X54557142Y-48041961D01*
X54557142Y-48041961D02*
X54652380Y-48137200D01*
X54652380Y-48137200D02*
X54795237Y-48184819D01*
X54795237Y-48184819D02*
X54890475Y-48184819D01*
X53509523Y-48184819D02*
X54080951Y-48184819D01*
X53795237Y-48184819D02*
X53795237Y-47184819D01*
X53795237Y-47184819D02*
X53890475Y-47327676D01*
X53890475Y-47327676D02*
X53985713Y-47422914D01*
X53985713Y-47422914D02*
X54080951Y-47470533D01*
X53128570Y-47280057D02*
X53080951Y-47232438D01*
X53080951Y-47232438D02*
X52985713Y-47184819D01*
X52985713Y-47184819D02*
X52747618Y-47184819D01*
X52747618Y-47184819D02*
X52652380Y-47232438D01*
X52652380Y-47232438D02*
X52604761Y-47280057D01*
X52604761Y-47280057D02*
X52557142Y-47375295D01*
X52557142Y-47375295D02*
X52557142Y-47470533D01*
X52557142Y-47470533D02*
X52604761Y-47613390D01*
X52604761Y-47613390D02*
X53176189Y-48184819D01*
X53176189Y-48184819D02*
X52557142Y-48184819D01*
X54509523Y-77184819D02*
X54509523Y-77899104D01*
X54509523Y-77899104D02*
X54557142Y-78041961D01*
X54557142Y-78041961D02*
X54652380Y-78137200D01*
X54652380Y-78137200D02*
X54795237Y-78184819D01*
X54795237Y-78184819D02*
X54890475Y-78184819D01*
X53509523Y-78184819D02*
X54080951Y-78184819D01*
X53795237Y-78184819D02*
X53795237Y-77184819D01*
X53795237Y-77184819D02*
X53890475Y-77327676D01*
X53890475Y-77327676D02*
X53985713Y-77422914D01*
X53985713Y-77422914D02*
X54080951Y-77470533D01*
X53176189Y-77184819D02*
X52557142Y-77184819D01*
X52557142Y-77184819D02*
X52890475Y-77565771D01*
X52890475Y-77565771D02*
X52747618Y-77565771D01*
X52747618Y-77565771D02*
X52652380Y-77613390D01*
X52652380Y-77613390D02*
X52604761Y-77661009D01*
X52604761Y-77661009D02*
X52557142Y-77756247D01*
X52557142Y-77756247D02*
X52557142Y-77994342D01*
X52557142Y-77994342D02*
X52604761Y-78089580D01*
X52604761Y-78089580D02*
X52652380Y-78137200D01*
X52652380Y-78137200D02*
X52747618Y-78184819D01*
X52747618Y-78184819D02*
X53033332Y-78184819D01*
X53033332Y-78184819D02*
X53128570Y-78137200D01*
X53128570Y-78137200D02*
X53176189Y-78089580D01*
D13*
%TO.C,J11*%
X42310000Y-36110000D02*
X42310000Y-36970000D01*
X42310000Y-36970000D02*
X48310000Y-36970000D01*
X42310000Y-38650000D02*
X42310000Y-39510000D01*
X42310000Y-39510000D02*
X48310000Y-39510000D01*
X48310000Y-36110000D02*
X42310000Y-36110000D01*
X48310000Y-38650000D02*
X42310000Y-38650000D01*
X51070000Y-35270000D02*
X48310000Y-35270000D01*
X51070000Y-37810000D02*
X48310000Y-37810000D01*
X51382642Y-33570000D02*
X51070000Y-33570000D01*
X51382642Y-34430000D02*
X51070000Y-34430000D01*
X51382642Y-36110000D02*
X51070000Y-36110000D01*
X51382642Y-36970000D02*
X51070000Y-36970000D01*
X51382642Y-38650000D02*
X51070000Y-38650000D01*
X51382642Y-39510000D02*
X51070000Y-39510000D01*
X53840000Y-33570000D02*
X53537358Y-33570000D01*
X53840000Y-34430000D02*
X53537358Y-34430000D01*
X53922642Y-36110000D02*
X53537358Y-36110000D01*
X53922642Y-36970000D02*
X53537358Y-36970000D01*
X53922642Y-38650000D02*
X53537358Y-38650000D01*
X53922642Y-39510000D02*
X53537358Y-39510000D01*
X56270000Y-32730000D02*
X55000000Y-32730000D01*
X56270000Y-34000000D02*
X56270000Y-32730000D01*
X48310000Y-33570000D02*
X42310000Y-33570000D01*
X42310000Y-34430000D01*
X48310000Y-34430000D01*
X48310000Y-33570000D01*
G36*
X48310000Y-33570000D02*
G01*
X42310000Y-33570000D01*
X42310000Y-34430000D01*
X48310000Y-34430000D01*
X48310000Y-33570000D01*
G37*
X51070000Y-32620000D02*
X48310000Y-32620000D01*
X48310000Y-40460000D01*
X51070000Y-40460000D01*
X51070000Y-32620000D01*
%TO.C,J12*%
X42310000Y-52110000D02*
X42310000Y-52970000D01*
X42310000Y-52970000D02*
X48310000Y-52970000D01*
X42310000Y-54650000D02*
X42310000Y-55510000D01*
X42310000Y-55510000D02*
X48310000Y-55510000D01*
X42310000Y-57190000D02*
X42310000Y-58050000D01*
X42310000Y-58050000D02*
X48310000Y-58050000D01*
X42310000Y-59730000D02*
X42310000Y-60590000D01*
X42310000Y-60590000D02*
X48310000Y-60590000D01*
X42310000Y-62270000D02*
X42310000Y-63130000D01*
X42310000Y-63130000D02*
X48310000Y-63130000D01*
X48310000Y-52110000D02*
X42310000Y-52110000D01*
X48310000Y-54650000D02*
X42310000Y-54650000D01*
X48310000Y-57190000D02*
X42310000Y-57190000D01*
X48310000Y-59730000D02*
X42310000Y-59730000D01*
X48310000Y-62270000D02*
X42310000Y-62270000D01*
X51070000Y-51270000D02*
X48310000Y-51270000D01*
X51070000Y-53810000D02*
X48310000Y-53810000D01*
X51070000Y-56350000D02*
X48310000Y-56350000D01*
X51070000Y-58890000D02*
X48310000Y-58890000D01*
X51070000Y-61430000D02*
X48310000Y-61430000D01*
X51382642Y-49570000D02*
X51070000Y-49570000D01*
X51382642Y-50430000D02*
X51070000Y-50430000D01*
X51382642Y-52110000D02*
X51070000Y-52110000D01*
X51382642Y-52970000D02*
X51070000Y-52970000D01*
X51382642Y-54650000D02*
X51070000Y-54650000D01*
X51382642Y-55510000D02*
X51070000Y-55510000D01*
X51382642Y-57190000D02*
X51070000Y-57190000D01*
X51382642Y-58050000D02*
X51070000Y-58050000D01*
X51382642Y-59730000D02*
X51070000Y-59730000D01*
X51382642Y-60590000D02*
X51070000Y-60590000D01*
X51382642Y-62270000D02*
X51070000Y-62270000D01*
X51382642Y-63130000D02*
X51070000Y-63130000D01*
X53840000Y-49570000D02*
X53537358Y-49570000D01*
X53840000Y-50430000D02*
X53537358Y-50430000D01*
X53922642Y-52110000D02*
X53537358Y-52110000D01*
X53922642Y-52970000D02*
X53537358Y-52970000D01*
X53922642Y-54650000D02*
X53537358Y-54650000D01*
X53922642Y-55510000D02*
X53537358Y-55510000D01*
X53922642Y-57190000D02*
X53537358Y-57190000D01*
X53922642Y-58050000D02*
X53537358Y-58050000D01*
X53922642Y-59730000D02*
X53537358Y-59730000D01*
X53922642Y-60590000D02*
X53537358Y-60590000D01*
X53922642Y-62270000D02*
X53537358Y-62270000D01*
X53922642Y-63130000D02*
X53537358Y-63130000D01*
X56270000Y-48730000D02*
X55000000Y-48730000D01*
X56270000Y-50000000D02*
X56270000Y-48730000D01*
X48310000Y-49570000D02*
X42310000Y-49570000D01*
X42310000Y-50430000D01*
X48310000Y-50430000D01*
X48310000Y-49570000D01*
G36*
X48310000Y-49570000D02*
G01*
X42310000Y-49570000D01*
X42310000Y-50430000D01*
X48310000Y-50430000D01*
X48310000Y-49570000D01*
G37*
X51070000Y-48620000D02*
X48310000Y-48620000D01*
X48310000Y-64080000D01*
X51070000Y-64080000D01*
X51070000Y-48620000D01*
%TO.C,J13*%
X42310000Y-82110000D02*
X42310000Y-82970000D01*
X42310000Y-82970000D02*
X48310000Y-82970000D01*
X42310000Y-84650000D02*
X42310000Y-85510000D01*
X42310000Y-85510000D02*
X48310000Y-85510000D01*
X48310000Y-82110000D02*
X42310000Y-82110000D01*
X48310000Y-84650000D02*
X42310000Y-84650000D01*
X51070000Y-81270000D02*
X48310000Y-81270000D01*
X51070000Y-83810000D02*
X48310000Y-83810000D01*
X51382642Y-79570000D02*
X51070000Y-79570000D01*
X51382642Y-80430000D02*
X51070000Y-80430000D01*
X51382642Y-82110000D02*
X51070000Y-82110000D01*
X51382642Y-82970000D02*
X51070000Y-82970000D01*
X51382642Y-84650000D02*
X51070000Y-84650000D01*
X51382642Y-85510000D02*
X51070000Y-85510000D01*
X53840000Y-79570000D02*
X53537358Y-79570000D01*
X53840000Y-80430000D02*
X53537358Y-80430000D01*
X53922642Y-82110000D02*
X53537358Y-82110000D01*
X53922642Y-82970000D02*
X53537358Y-82970000D01*
X53922642Y-84650000D02*
X53537358Y-84650000D01*
X53922642Y-85510000D02*
X53537358Y-85510000D01*
X56270000Y-78730000D02*
X55000000Y-78730000D01*
X56270000Y-80000000D02*
X56270000Y-78730000D01*
X48310000Y-79570000D02*
X42310000Y-79570000D01*
X42310000Y-80430000D01*
X48310000Y-80430000D01*
X48310000Y-79570000D01*
G36*
X48310000Y-79570000D02*
G01*
X42310000Y-79570000D01*
X42310000Y-80430000D01*
X48310000Y-80430000D01*
X48310000Y-79570000D01*
G37*
X51070000Y-78620000D02*
X48310000Y-78620000D01*
X48310000Y-86460000D01*
X51070000Y-86460000D01*
X51070000Y-78620000D01*
%TD*%
%LPC*%
D14*
%TO.C,R19*%
X60000000Y-112366667D03*
X67620000Y-112366667D03*
%TD*%
%TO.C,R27*%
X90000000Y-33400000D03*
X97620000Y-33400000D03*
%TD*%
%TO.C,R20*%
X60000000Y-117300000D03*
X67620000Y-117300000D03*
%TD*%
%TO.C,C12*%
X86500000Y-33400000D03*
X86500000Y-38400000D03*
%TD*%
%TO.C,R36*%
X90000000Y-77846154D03*
X97620000Y-77846154D03*
%TD*%
%TO.C,R21*%
X60000000Y-122233333D03*
X67620000Y-122233333D03*
%TD*%
%TO.C,R5*%
X60000000Y-43275000D03*
X67620000Y-43275000D03*
%TD*%
%TO.C,R14*%
X67610000Y-87700000D03*
X59990000Y-87700000D03*
%TD*%
D15*
%TO.C,D1*%
X75000000Y-70510000D03*
D14*
X75000000Y-62890000D03*
%TD*%
D16*
%TO.C,Q3*%
X80060000Y-116000000D03*
D17*
X82600000Y-116000000D03*
X85140000Y-116000000D03*
%TD*%
D16*
%TO.C,Q4*%
X72460000Y-125000000D03*
D17*
X75000000Y-125000000D03*
X77540000Y-125000000D03*
%TD*%
D16*
%TO.C,Q5*%
X72460000Y-75960000D03*
D17*
X75000000Y-75960000D03*
X77540000Y-75960000D03*
%TD*%
D14*
%TO.C,R37*%
X90000000Y-87723077D03*
X97620000Y-87723077D03*
%TD*%
%TO.C,R17*%
X60000000Y-102500000D03*
X67620000Y-102500000D03*
%TD*%
%TO.C,R1*%
X60000000Y-33400000D03*
X67620000Y-33400000D03*
%TD*%
%TO.C,C4*%
X86500000Y-57600000D03*
X86500000Y-52600000D03*
%TD*%
%TO.C,R7*%
X60000000Y-53150000D03*
X67620000Y-53150000D03*
%TD*%
%TO.C,R34*%
X90000000Y-67969231D03*
X97620000Y-67969231D03*
%TD*%
%TO.C,R33*%
X90000000Y-63030769D03*
X97620000Y-63030769D03*
%TD*%
%TO.C,C3*%
X71200000Y-52600000D03*
X71200000Y-57600000D03*
%TD*%
%TO.C,R30*%
X90000000Y-48215385D03*
X97620000Y-48215385D03*
%TD*%
%TO.C,C10*%
X71200000Y-97600000D03*
X71200000Y-102600000D03*
%TD*%
%TO.C,R6*%
X60000000Y-48212500D03*
X67620000Y-48212500D03*
%TD*%
%TO.C,C15*%
X55300000Y-72600000D03*
X55300000Y-67600000D03*
%TD*%
D16*
%TO.C,Q1*%
X72460000Y-116000000D03*
D17*
X75000000Y-116000000D03*
X77540000Y-116000000D03*
%TD*%
D14*
%TO.C,R25*%
X90000000Y-117300000D03*
X97620000Y-117300000D03*
%TD*%
%TO.C,R15*%
X60000000Y-92650000D03*
X67620000Y-92650000D03*
%TD*%
%TO.C,R18*%
X60000000Y-107433333D03*
X67620000Y-107433333D03*
%TD*%
D18*
%TO.C,U1*%
X75000000Y-45000000D03*
D14*
X75000000Y-47540000D03*
X75000000Y-50080000D03*
X75000000Y-52620000D03*
X75000000Y-55160000D03*
X75000000Y-57700000D03*
X75000000Y-60240000D03*
X82620000Y-60240000D03*
X82620000Y-57700000D03*
X82620000Y-55160000D03*
X82620000Y-52620000D03*
X82620000Y-50080000D03*
X82620000Y-47540000D03*
X82620000Y-45000000D03*
%TD*%
%TO.C,R10*%
X60000000Y-67962500D03*
X67620000Y-67962500D03*
%TD*%
%TO.C,R38*%
X90000000Y-53153846D03*
X97620000Y-53153846D03*
%TD*%
%TO.C,R28*%
X90000000Y-38338462D03*
X97620000Y-38338462D03*
%TD*%
D16*
%TO.C,Q6*%
X80060000Y-75960000D03*
D17*
X82600000Y-75960000D03*
X85140000Y-75960000D03*
%TD*%
D15*
%TO.C,D2*%
X82600000Y-70510000D03*
D14*
X82600000Y-62890000D03*
%TD*%
%TO.C,R35*%
X90000000Y-72907692D03*
X97620000Y-72907692D03*
%TD*%
%TO.C,R29*%
X90000000Y-43276923D03*
X97620000Y-43276923D03*
%TD*%
%TO.C,C13*%
X86500000Y-48000000D03*
X86500000Y-43000000D03*
%TD*%
%TO.C,C9*%
X56500000Y-74900000D03*
X51500000Y-74900000D03*
%TD*%
%TO.C,R16*%
X60000000Y-97600000D03*
X67620000Y-97600000D03*
%TD*%
%TO.C,R31*%
X90000000Y-82784615D03*
X97620000Y-82784615D03*
%TD*%
%TO.C,C14*%
X52700000Y-72600000D03*
X52700000Y-67600000D03*
%TD*%
%TO.C,C11*%
X86500000Y-102600000D03*
X86500000Y-97600000D03*
%TD*%
%TO.C,R9*%
X60000000Y-63025000D03*
X67620000Y-63025000D03*
%TD*%
%TO.C,R40*%
X90000000Y-97600000D03*
X97620000Y-97600000D03*
%TD*%
%TO.C,R13*%
X67610000Y-82750000D03*
X59990000Y-82750000D03*
%TD*%
%TO.C,R8*%
X60000000Y-58087500D03*
X67620000Y-58087500D03*
%TD*%
%TO.C,C6*%
X71200000Y-92550000D03*
X71200000Y-90050000D03*
%TD*%
%TO.C,R26*%
X90000000Y-122233333D03*
X97620000Y-122233333D03*
%TD*%
%TO.C,C8*%
X86400000Y-92550000D03*
X86400000Y-90050000D03*
%TD*%
%TO.C,R12*%
X60000000Y-77800000D03*
X67620000Y-77800000D03*
%TD*%
%TO.C,R32*%
X97610000Y-58100000D03*
X89990000Y-58100000D03*
%TD*%
%TO.C,R22*%
X90000000Y-102500000D03*
X97620000Y-102500000D03*
%TD*%
D16*
%TO.C,Q2*%
X80060000Y-125000000D03*
D17*
X82600000Y-125000000D03*
X85140000Y-125000000D03*
%TD*%
D14*
%TO.C,R2*%
X60000000Y-38337500D03*
X67620000Y-38337500D03*
%TD*%
%TO.C,C7*%
X86500000Y-105950000D03*
X86500000Y-108450000D03*
%TD*%
%TO.C,R11*%
X60000000Y-72900000D03*
X67620000Y-72900000D03*
%TD*%
%TO.C,R39*%
X90000000Y-92661538D03*
X97620000Y-92661538D03*
%TD*%
D18*
%TO.C,U2*%
X75000000Y-90000000D03*
D14*
X75000000Y-92540000D03*
X75000000Y-95080000D03*
X75000000Y-97620000D03*
X75000000Y-100160000D03*
X75000000Y-102700000D03*
X75000000Y-105240000D03*
X82620000Y-105240000D03*
X82620000Y-102700000D03*
X82620000Y-100160000D03*
X82620000Y-97620000D03*
X82620000Y-95080000D03*
X82620000Y-92540000D03*
X82620000Y-90000000D03*
%TD*%
%TO.C,R24*%
X90000000Y-112366666D03*
X97620000Y-112366666D03*
%TD*%
%TO.C,R23*%
X90000000Y-107433333D03*
X97620000Y-107433333D03*
%TD*%
D19*
%TO.C,J11*%
X55000000Y-34000000D03*
D20*
X52460000Y-34000000D03*
X55000000Y-36540000D03*
X52460000Y-36540000D03*
X55000000Y-39080000D03*
X52460000Y-39080000D03*
%TD*%
D19*
%TO.C,J12*%
X55000000Y-50000000D03*
D20*
X52460000Y-50000000D03*
X55000000Y-52540000D03*
X52460000Y-52540000D03*
X55000000Y-55080000D03*
X52460000Y-55080000D03*
X55000000Y-57620000D03*
X52460000Y-57620000D03*
X55000000Y-60160000D03*
X52460000Y-60160000D03*
X55000000Y-62700000D03*
X52460000Y-62700000D03*
%TD*%
D19*
%TO.C,J13*%
X55000000Y-80000000D03*
D20*
X52460000Y-80000000D03*
X55000000Y-82540000D03*
X52460000Y-82540000D03*
X55000000Y-85080000D03*
X52460000Y-85080000D03*
%TD*%
%LPD*%
M02*
