%TF.GenerationSoftware,KiCad,Pcbnew,9.0.7*%
%TF.CreationDate,2026-02-21T19:46:41+01:00*%
%TF.ProjectId,DMH_Slew_PCB_2_v3,444d485f-536c-4657-975f-5043425f325f,1*%
%TF.SameCoordinates,Original*%
%TF.FileFunction,Copper,L2,Bot*%
%TF.FilePolarity,Positive*%
%FSLAX46Y46*%
G04 Gerber Fmt 4.6, Leading zero omitted, Abs format (unit mm)*
G04 Created by KiCad (PCBNEW 9.0.7) date 2026-02-21 19:46:41*
%MOMM*%
%LPD*%
G01*
G04 APERTURE LIST*
%TA.AperFunction,ComponentPad*%
%ADD10C,2.800000*%
%TD*%
%TA.AperFunction,ComponentPad*%
%ADD11R,1.800000X1.800000*%
%TD*%
%TA.AperFunction,ComponentPad*%
%ADD12C,1.800000*%
%TD*%
%TA.AperFunction,ComponentPad*%
%ADD13C,1.600000*%
%TD*%
%TA.AperFunction,ComponentPad*%
%ADD14O,2.720000X3.240000*%
%TD*%
%TA.AperFunction,ComponentPad*%
%ADD15R,1.700000X1.700000*%
%TD*%
%TA.AperFunction,ComponentPad*%
%ADD16C,1.700000*%
%TD*%
%TA.AperFunction,Conductor*%
%ADD17C,0.200000*%
%TD*%
G04 APERTURE END LIST*
D10*
%TO.P,SW6,1,A*%
%TO.N,B_Rng_Sw_p1_C*%
X58500000Y-180450000D03*
%TO.P,SW6,2,B*%
%TO.N,B_Out_Jack_C*%
X58500000Y-175750000D03*
%TO.P,SW6,3,C*%
%TO.N,B_Rng_Sw_p3_C*%
X58500000Y-171050000D03*
%TD*%
D11*
%TO.P,D9,1,K*%
%TO.N,GND*%
X67730000Y-135000000D03*
D12*
%TO.P,D9,2,A*%
%TO.N,B_F_LED_C*%
X70270000Y-135000000D03*
%TD*%
D10*
%TO.P,SW4,1,A*%
%TO.N,+10V_B*%
X56087000Y-139700000D03*
%TO.P,SW4,2,B*%
%TO.N,Net-(R53-Pad2)*%
X56087000Y-135000000D03*
%TO.P,SW4,3,C*%
%TO.N,B_CV_Buff_C*%
X56087000Y-130300000D03*
%TO.P,SW4,4,A*%
X60913000Y-139700000D03*
%TO.P,SW4,5,B*%
%TO.N,Net-(R41-Pad2)*%
X60913000Y-135000000D03*
%TO.P,SW4,6,C*%
%TO.N,+10V_B*%
X60913000Y-130300000D03*
%TD*%
%TO.P,SW2,1,A*%
%TO.N,A_Diff_Amp_C*%
X89087000Y-61700000D03*
%TO.P,SW2,2,B*%
%TO.N,A_LinLog_Sw_p2_C*%
X89087000Y-57000000D03*
%TO.P,SW2,3,C*%
%TO.N,GND*%
X89087000Y-52300000D03*
%TO.P,SW2,4,A*%
%TO.N,+10V_A*%
X93913000Y-61700000D03*
%TO.P,SW2,5,B*%
%TO.N,A_LinLog_Sw_p5_C*%
X93913000Y-57000000D03*
%TO.P,SW2,6,C*%
%TO.N,GND*%
X93913000Y-52300000D03*
%TD*%
D13*
%TO.P,R53,1*%
%TO.N,B_Rise_CV_C*%
X62190000Y-102300000D03*
%TO.P,R53,2*%
%TO.N,Net-(R53-Pad2)*%
X69810000Y-102300000D03*
%TD*%
%TO.P,R41,1*%
%TO.N,B_Fall_CV_C*%
X80190000Y-128300000D03*
%TO.P,R41,2*%
%TO.N,Net-(R41-Pad2)*%
X87810000Y-128300000D03*
%TD*%
%TO.P,R3,1*%
%TO.N,A_Fall_CV_C*%
X80190000Y-76300000D03*
%TO.P,R3,2*%
%TO.N,Net-(R3-Pad2)*%
X87810000Y-76300000D03*
%TD*%
D14*
%TO.P,RV4,*%
%TO.N,*%
X61200000Y-109000000D03*
X70800000Y-109000000D03*
D11*
%TO.P,RV4,1,1*%
%TO.N,GND*%
X63500000Y-116500000D03*
D12*
%TO.P,RV4,2,2*%
%TO.N,B_Rise_CV_C*%
X66000000Y-116500000D03*
%TO.P,RV4,3,3*%
%TO.N,Net-(R53-Pad2)*%
X68500000Y-116500000D03*
%TD*%
D11*
%TO.P,D5,1,K*%
%TO.N,GND*%
X67730000Y-83000000D03*
D12*
%TO.P,D5,2,A*%
%TO.N,A_F_LED_C*%
X70270000Y-83000000D03*
%TD*%
D11*
%TO.P,D6,1,K*%
%TO.N,GND*%
X79730000Y-57000000D03*
D12*
%TO.P,D6,2,A*%
%TO.N,A_R_LED_C*%
X82270000Y-57000000D03*
%TD*%
D14*
%TO.P,RV1,*%
%TO.N,*%
X79200000Y-83000000D03*
X88800000Y-83000000D03*
D11*
%TO.P,RV1,1,1*%
%TO.N,GND*%
X81500000Y-90500000D03*
D12*
%TO.P,RV1,2,2*%
%TO.N,A_Fall_CV_C*%
X84000000Y-90500000D03*
%TO.P,RV1,3,3*%
%TO.N,Net-(R3-Pad2)*%
X86500000Y-90500000D03*
%TD*%
D10*
%TO.P,SW1,1,A*%
%TO.N,+10V_A*%
X56087000Y-87700000D03*
%TO.P,SW1,2,B*%
%TO.N,Net-(R4-Pad2)*%
X56087000Y-83000000D03*
%TO.P,SW1,3,C*%
%TO.N,A_CV_Buff_C*%
X56087000Y-78300000D03*
%TO.P,SW1,4,A*%
X60913000Y-87700000D03*
%TO.P,SW1,5,B*%
%TO.N,Net-(R3-Pad2)*%
X60913000Y-83000000D03*
%TO.P,SW1,6,C*%
%TO.N,+10V_A*%
X60913000Y-78300000D03*
%TD*%
D14*
%TO.P,RV3,*%
%TO.N,*%
X79200000Y-135000000D03*
X88800000Y-135000000D03*
D11*
%TO.P,RV3,1,1*%
%TO.N,GND*%
X81500000Y-142500000D03*
D12*
%TO.P,RV3,2,2*%
%TO.N,B_Fall_CV_C*%
X84000000Y-142500000D03*
%TO.P,RV3,3,3*%
%TO.N,Net-(R41-Pad2)*%
X86500000Y-142500000D03*
%TD*%
D10*
%TO.P,SW3,1,A*%
%TO.N,A_Rng_Sw_p1_C*%
X58500000Y-163950000D03*
%TO.P,SW3,2,B*%
%TO.N,A_Out_Jack_C*%
X58500000Y-159250000D03*
%TO.P,SW3,3,C*%
%TO.N,A_Rng_Sw_p3_C*%
X58500000Y-154550000D03*
%TD*%
D13*
%TO.P,R4,1*%
%TO.N,A_Rise_CV_C*%
X62190000Y-50300000D03*
%TO.P,R4,2*%
%TO.N,Net-(R4-Pad2)*%
X69810000Y-50300000D03*
%TD*%
D10*
%TO.P,SW5,1,A*%
%TO.N,B_Diff_Amp_C*%
X89087000Y-113700000D03*
%TO.P,SW5,2,B*%
%TO.N,B_LinLog_Sw_p2_C*%
X89087000Y-109000000D03*
%TO.P,SW5,3,C*%
%TO.N,GND*%
X89087000Y-104300000D03*
%TO.P,SW5,4,A*%
%TO.N,+10V_B*%
X93913000Y-113700000D03*
%TO.P,SW5,5,B*%
%TO.N,B_LinLog_Sw_p5_C*%
X93913000Y-109000000D03*
%TO.P,SW5,6,C*%
%TO.N,GND*%
X93913000Y-104300000D03*
%TD*%
D11*
%TO.P,D10,1,K*%
%TO.N,GND*%
X79730000Y-109000000D03*
D12*
%TO.P,D10,2,A*%
%TO.N,B_R_LED_C*%
X82270000Y-109000000D03*
%TD*%
D14*
%TO.P,RV2,*%
%TO.N,*%
X61200000Y-57000000D03*
X70800000Y-57000000D03*
D11*
%TO.P,RV2,1,1*%
%TO.N,GND*%
X63500000Y-64500000D03*
D12*
%TO.P,RV2,2,2*%
%TO.N,A_Rise_CV_C*%
X66000000Y-64500000D03*
%TO.P,RV2,3,3*%
%TO.N,Net-(R4-Pad2)*%
X68500000Y-64500000D03*
%TD*%
D15*
%TO.P,J29,1,Pin_1*%
%TO.N,GND*%
X52750000Y-102000000D03*
D16*
%TO.P,J29,2,Pin_2*%
%TO.N,B_Diff_Amp_C*%
X52750000Y-104540000D03*
%TO.P,J29,3,Pin_3*%
%TO.N,B_Rise_CV_C*%
X52750000Y-107080000D03*
%TO.P,J29,4,Pin_4*%
%TO.N,B_Fall_CV_C*%
X52750000Y-109620000D03*
%TO.P,J29,5,Pin_5*%
%TO.N,+10V_B*%
X52750000Y-112160000D03*
%TO.P,J29,6,Pin_6*%
%TO.N,B_CV_Buff_C*%
X52750000Y-114700000D03*
%TO.P,J29,7,Pin_7*%
%TO.N,GND*%
X52750000Y-117240000D03*
%TO.P,J29,8,Pin_8*%
X52750000Y-119780000D03*
%TD*%
D15*
%TO.P,J30,1,Pin_1*%
%TO.N,B_LinLog_Sw_p5_C*%
X97200000Y-128000000D03*
D16*
%TO.P,J30,2,Pin_2*%
%TO.N,B_LinLog_Sw_p2_C*%
X97200000Y-130540000D03*
%TO.P,J30,3,Pin_3*%
%TO.N,B_R_LED_C*%
X97200000Y-133080000D03*
%TO.P,J30,4,Pin_4*%
%TO.N,B_F_LED_C*%
X97200000Y-135620000D03*
%TO.P,J30,5,Pin_5*%
%TO.N,B_Rng_Sw_p3_C*%
X97200000Y-138160000D03*
%TO.P,J30,6,Pin_6*%
%TO.N,B_Out_Jack_C*%
X97200000Y-140700000D03*
%TO.P,J30,7,Pin_7*%
%TO.N,B_Rng_Sw_p1_C*%
X97200000Y-143240000D03*
%TO.P,J30,8,Pin_8*%
%TO.N,GND*%
X97200000Y-145780000D03*
%TD*%
D15*
%TO.P,J20,1,Pin_1*%
%TO.N,A_LinLog_Sw_p5_C*%
X97200000Y-76000000D03*
D16*
%TO.P,J20,2,Pin_2*%
%TO.N,A_LinLog_Sw_p2_C*%
X97200000Y-78540000D03*
%TO.P,J20,3,Pin_3*%
%TO.N,A_R_LED_C*%
X97200000Y-81080000D03*
%TO.P,J20,4,Pin_4*%
%TO.N,A_F_LED_C*%
X97200000Y-83620000D03*
%TO.P,J20,5,Pin_5*%
%TO.N,A_Rng_Sw_p3_C*%
X97200000Y-86160000D03*
%TO.P,J20,6,Pin_6*%
%TO.N,A_Out_Jack_C*%
X97200000Y-88700000D03*
%TO.P,J20,7,Pin_7*%
%TO.N,A_Rng_Sw_p1_C*%
X97200000Y-91240000D03*
%TO.P,J20,8,Pin_8*%
%TO.N,GND*%
X97200000Y-93780000D03*
%TD*%
D15*
%TO.P,J19,1,Pin_1*%
%TO.N,GND*%
X52750000Y-50000000D03*
D16*
%TO.P,J19,2,Pin_2*%
%TO.N,A_Diff_Amp_C*%
X52750000Y-52540000D03*
%TO.P,J19,3,Pin_3*%
%TO.N,A_Rise_CV_C*%
X52750000Y-55080000D03*
%TO.P,J19,4,Pin_4*%
%TO.N,A_Fall_CV_C*%
X52750000Y-57620000D03*
%TO.P,J19,5,Pin_5*%
%TO.N,+10V_A*%
X52750000Y-60160000D03*
%TO.P,J19,6,Pin_6*%
%TO.N,A_CV_Buff_C*%
X52750000Y-62700000D03*
%TO.P,J19,7,Pin_7*%
%TO.N,GND*%
X52750000Y-65240000D03*
%TO.P,J19,8,Pin_8*%
X52750000Y-67780000D03*
%TD*%
D17*
%TO.N,A_F_LED_C*%
X94020000Y-86800000D02*
X97200000Y-83620000D01*
X74070000Y-86800000D02*
X94020000Y-86800000D01*
X70270000Y-83000000D02*
X74070000Y-86800000D01*
%TO.N,B_F_LED_C*%
X73970000Y-138700000D02*
X94120000Y-138700000D01*
X70270000Y-135000000D02*
X73970000Y-138700000D01*
X94120000Y-138700000D02*
X97200000Y-135620000D01*
%TO.N,+10V_A*%
X83113000Y-72500000D02*
X93913000Y-61700000D01*
X56087000Y-87700000D02*
X58800000Y-84987000D01*
X58800000Y-80413000D02*
X60913000Y-78300000D01*
X60913000Y-78300000D02*
X66713000Y-72500000D01*
X58800000Y-84987000D02*
X58800000Y-80413000D01*
X66713000Y-72500000D02*
X83113000Y-72500000D01*
%TO.N,+10V_B*%
X56087000Y-139700000D02*
X58800000Y-136987000D01*
X58800000Y-136987000D02*
X58800000Y-132413000D01*
X93913000Y-119987000D02*
X82600000Y-131300000D01*
X58800000Y-132413000D02*
X60913000Y-130300000D01*
X64200000Y-131300000D02*
X63200000Y-130300000D01*
X93913000Y-113700000D02*
X93913000Y-119987000D01*
X63200000Y-130300000D02*
X60913000Y-130300000D01*
X82600000Y-131300000D02*
X64200000Y-131300000D01*
%TO.N,B_Fall_CV_C*%
X56630000Y-113500000D02*
X70400000Y-113500000D01*
X70400000Y-113500000D02*
X80190000Y-123290000D01*
X52750000Y-109620000D02*
X56630000Y-113500000D01*
X80190000Y-123290000D02*
X80190000Y-128300000D01*
%TO.N,B_Diff_Amp_C*%
X55160000Y-104540000D02*
X60800000Y-98900000D01*
X60800000Y-98900000D02*
X74287000Y-98900000D01*
X52750000Y-104540000D02*
X55160000Y-104540000D01*
X74287000Y-98900000D02*
X89087000Y-113700000D01*
%TO.N,Net-(R3-Pad2)*%
X85310000Y-78800000D02*
X87810000Y-76300000D01*
X60913000Y-83000000D02*
X65113000Y-78800000D01*
X65113000Y-78800000D02*
X85310000Y-78800000D01*
%TO.N,Net-(R4-Pad2)*%
X58100000Y-80987000D02*
X58100000Y-74900000D01*
X58100000Y-74900000D02*
X68500000Y-64500000D01*
X56087000Y-83000000D02*
X58100000Y-80987000D01*
%TO.N,Net-(R41-Pad2)*%
X84410000Y-131700000D02*
X87810000Y-128300000D01*
X64213000Y-131700000D02*
X84410000Y-131700000D01*
X60913000Y-135000000D02*
X64213000Y-131700000D01*
%TO.N,Net-(R53-Pad2)*%
X58100000Y-132987000D02*
X58100000Y-126900000D01*
X56087000Y-135000000D02*
X58100000Y-132987000D01*
X58100000Y-126900000D02*
X68500000Y-116500000D01*
%TD*%
%TA.AperFunction,Conductor*%
%TO.N,GND*%
G36*
X98442539Y-43020185D02*
G01*
X98488294Y-43072989D01*
X98499500Y-43124500D01*
X98499500Y-74613568D01*
X98479815Y-74680607D01*
X98427011Y-74726362D01*
X98357853Y-74736306D01*
X98301190Y-74712835D01*
X98292334Y-74706206D01*
X98292328Y-74706202D01*
X98157482Y-74655908D01*
X98157483Y-74655908D01*
X98097883Y-74649501D01*
X98097881Y-74649500D01*
X98097873Y-74649500D01*
X98097864Y-74649500D01*
X96302129Y-74649500D01*
X96302123Y-74649501D01*
X96242516Y-74655908D01*
X96107671Y-74706202D01*
X96107664Y-74706206D01*
X95992455Y-74792452D01*
X95992452Y-74792455D01*
X95906206Y-74907664D01*
X95906202Y-74907671D01*
X95855908Y-75042517D01*
X95849501Y-75102116D01*
X95849500Y-75102135D01*
X95849500Y-76897870D01*
X95849501Y-76897876D01*
X95855908Y-76957483D01*
X95906202Y-77092328D01*
X95906206Y-77092335D01*
X95992452Y-77207544D01*
X95992455Y-77207547D01*
X96107664Y-77293793D01*
X96107671Y-77293797D01*
X96239082Y-77342810D01*
X96295016Y-77384681D01*
X96319433Y-77450145D01*
X96304582Y-77518418D01*
X96283431Y-77546673D01*
X96169889Y-77660215D01*
X96044951Y-77832179D01*
X95948444Y-78021585D01*
X95882753Y-78223760D01*
X95849500Y-78433713D01*
X95849500Y-78646286D01*
X95882753Y-78856239D01*
X95948444Y-79058414D01*
X96044951Y-79247820D01*
X96169890Y-79419786D01*
X96320213Y-79570109D01*
X96492182Y-79695050D01*
X96500946Y-79699516D01*
X96551742Y-79747491D01*
X96568536Y-79815312D01*
X96545998Y-79881447D01*
X96500946Y-79920484D01*
X96492182Y-79924949D01*
X96320213Y-80049890D01*
X96169890Y-80200213D01*
X96044951Y-80372179D01*
X95948444Y-80561585D01*
X95882753Y-80763760D01*
X95849500Y-80973713D01*
X95849500Y-81186286D01*
X95873561Y-81338205D01*
X95882754Y-81396243D01*
X95924727Y-81525423D01*
X95948444Y-81598414D01*
X96044951Y-81787820D01*
X96169890Y-81959786D01*
X96320213Y-82110109D01*
X96492182Y-82235050D01*
X96500946Y-82239516D01*
X96551742Y-82287491D01*
X96568536Y-82355312D01*
X96545998Y-82421447D01*
X96500946Y-82460484D01*
X96492182Y-82464949D01*
X96320213Y-82589890D01*
X96169890Y-82740213D01*
X96044951Y-82912179D01*
X95948444Y-83101585D01*
X95882753Y-83303760D01*
X95849500Y-83513713D01*
X95849500Y-83726286D01*
X95882754Y-83936244D01*
X95882754Y-83936247D01*
X95896491Y-83978523D01*
X95898486Y-84048364D01*
X95866241Y-84104522D01*
X93807584Y-86163181D01*
X93746261Y-86196666D01*
X93719903Y-86199500D01*
X74370098Y-86199500D01*
X74303059Y-86179815D01*
X74282417Y-86163181D01*
X71643438Y-83524203D01*
X71609953Y-83462880D01*
X71613187Y-83398205D01*
X71636015Y-83327951D01*
X71670500Y-83110222D01*
X71670500Y-82889778D01*
X71636015Y-82672049D01*
X71618469Y-82618048D01*
X77339500Y-82618048D01*
X77339500Y-83381951D01*
X77366013Y-83583333D01*
X77371334Y-83623744D01*
X77371335Y-83623746D01*
X77434456Y-83859320D01*
X77434459Y-83859330D01*
X77527786Y-84084640D01*
X77527791Y-84084651D01*
X77649727Y-84295848D01*
X77649738Y-84295864D01*
X77798199Y-84489343D01*
X77798205Y-84489350D01*
X77970649Y-84661794D01*
X77970656Y-84661800D01*
X78031079Y-84708164D01*
X78164144Y-84810268D01*
X78164151Y-84810272D01*
X78375348Y-84932208D01*
X78375353Y-84932210D01*
X78375356Y-84932212D01*
X78600679Y-85025544D01*
X78836256Y-85088666D01*
X79078056Y-85120500D01*
X79078063Y-85120500D01*
X79321937Y-85120500D01*
X79321944Y-85120500D01*
X79563744Y-85088666D01*
X79799321Y-85025544D01*
X80024644Y-84932212D01*
X80235856Y-84810268D01*
X80429345Y-84661799D01*
X80601799Y-84489345D01*
X80750268Y-84295856D01*
X80872212Y-84084644D01*
X80965544Y-83859321D01*
X81028666Y-83623744D01*
X81060500Y-83381944D01*
X81060500Y-82618056D01*
X81060499Y-82618048D01*
X86939500Y-82618048D01*
X86939500Y-83381951D01*
X86966013Y-83583333D01*
X86971334Y-83623744D01*
X86971335Y-83623746D01*
X87034456Y-83859320D01*
X87034459Y-83859330D01*
X87127786Y-84084640D01*
X87127791Y-84084651D01*
X87249727Y-84295848D01*
X87249738Y-84295864D01*
X87398199Y-84489343D01*
X87398205Y-84489350D01*
X87570649Y-84661794D01*
X87570656Y-84661800D01*
X87631079Y-84708164D01*
X87764144Y-84810268D01*
X87764151Y-84810272D01*
X87975348Y-84932208D01*
X87975353Y-84932210D01*
X87975356Y-84932212D01*
X88200679Y-85025544D01*
X88436256Y-85088666D01*
X88678056Y-85120500D01*
X88678063Y-85120500D01*
X88921937Y-85120500D01*
X88921944Y-85120500D01*
X89163744Y-85088666D01*
X89399321Y-85025544D01*
X89624644Y-84932212D01*
X89835856Y-84810268D01*
X90029345Y-84661799D01*
X90201799Y-84489345D01*
X90350268Y-84295856D01*
X90472212Y-84084644D01*
X90565544Y-83859321D01*
X90628666Y-83623744D01*
X90660500Y-83381944D01*
X90660500Y-82618056D01*
X90628666Y-82376256D01*
X90565544Y-82140679D01*
X90552881Y-82110109D01*
X90499948Y-81982317D01*
X90472212Y-81915356D01*
X90472210Y-81915353D01*
X90472208Y-81915348D01*
X90350272Y-81704151D01*
X90350268Y-81704144D01*
X90201799Y-81510655D01*
X90201794Y-81510649D01*
X90029350Y-81338205D01*
X90029343Y-81338199D01*
X89835864Y-81189738D01*
X89835862Y-81189736D01*
X89835856Y-81189732D01*
X89835851Y-81189729D01*
X89835848Y-81189727D01*
X89624651Y-81067791D01*
X89624640Y-81067786D01*
X89399330Y-80974459D01*
X89399323Y-80974457D01*
X89399321Y-80974456D01*
X89163744Y-80911334D01*
X89123333Y-80906013D01*
X88921951Y-80879500D01*
X88921944Y-80879500D01*
X88678056Y-80879500D01*
X88678048Y-80879500D01*
X88447896Y-80909801D01*
X88436256Y-80911334D01*
X88203452Y-80973713D01*
X88200679Y-80974456D01*
X88200669Y-80974459D01*
X87975359Y-81067786D01*
X87975348Y-81067791D01*
X87764151Y-81189727D01*
X87764135Y-81189738D01*
X87570656Y-81338199D01*
X87570649Y-81338205D01*
X87398205Y-81510649D01*
X87398199Y-81510656D01*
X87249738Y-81704135D01*
X87249727Y-81704151D01*
X87127791Y-81915348D01*
X87127786Y-81915359D01*
X87034459Y-82140669D01*
X87034456Y-82140679D01*
X86973428Y-82368443D01*
X86971335Y-82376253D01*
X86971333Y-82376264D01*
X86939500Y-82618048D01*
X81060499Y-82618048D01*
X81028666Y-82376256D01*
X80965544Y-82140679D01*
X80952881Y-82110109D01*
X80899948Y-81982317D01*
X80872212Y-81915356D01*
X80872210Y-81915353D01*
X80872208Y-81915348D01*
X80750272Y-81704151D01*
X80750268Y-81704144D01*
X80601799Y-81510655D01*
X80601794Y-81510649D01*
X80429350Y-81338205D01*
X80429343Y-81338199D01*
X80235864Y-81189738D01*
X80235862Y-81189736D01*
X80235856Y-81189732D01*
X80235851Y-81189729D01*
X80235848Y-81189727D01*
X80024651Y-81067791D01*
X80024640Y-81067786D01*
X79799330Y-80974459D01*
X79799323Y-80974457D01*
X79799321Y-80974456D01*
X79563744Y-80911334D01*
X79523333Y-80906013D01*
X79321951Y-80879500D01*
X79321944Y-80879500D01*
X79078056Y-80879500D01*
X79078048Y-80879500D01*
X78847896Y-80909801D01*
X78836256Y-80911334D01*
X78603452Y-80973713D01*
X78600679Y-80974456D01*
X78600669Y-80974459D01*
X78375359Y-81067786D01*
X78375348Y-81067791D01*
X78164151Y-81189727D01*
X78164135Y-81189738D01*
X77970656Y-81338199D01*
X77970649Y-81338205D01*
X77798205Y-81510649D01*
X77798199Y-81510656D01*
X77649738Y-81704135D01*
X77649727Y-81704151D01*
X77527791Y-81915348D01*
X77527786Y-81915359D01*
X77434459Y-82140669D01*
X77434456Y-82140679D01*
X77373428Y-82368443D01*
X77371335Y-82376253D01*
X77371333Y-82376264D01*
X77339500Y-82618048D01*
X71618469Y-82618048D01*
X71568726Y-82464951D01*
X71567897Y-82462399D01*
X71567895Y-82462393D01*
X71533237Y-82394375D01*
X71467815Y-82265978D01*
X71421760Y-82202588D01*
X71338247Y-82087641D01*
X71338243Y-82087636D01*
X71182363Y-81931756D01*
X71182358Y-81931752D01*
X71004025Y-81802187D01*
X71004024Y-81802186D01*
X71004022Y-81802185D01*
X70941096Y-81770122D01*
X70807606Y-81702104D01*
X70807603Y-81702103D01*
X70597952Y-81633985D01*
X70466114Y-81613104D01*
X70380222Y-81599500D01*
X70159778Y-81599500D01*
X70087201Y-81610995D01*
X69942047Y-81633985D01*
X69732396Y-81702103D01*
X69732393Y-81702104D01*
X69535974Y-81802187D01*
X69357641Y-81931752D01*
X69357636Y-81931756D01*
X69307075Y-81982317D01*
X69245752Y-82015801D01*
X69176060Y-82010816D01*
X69120127Y-81968945D01*
X69103213Y-81937968D01*
X69073354Y-81857913D01*
X69073350Y-81857906D01*
X68987190Y-81742812D01*
X68987187Y-81742809D01*
X68872093Y-81656649D01*
X68872086Y-81656645D01*
X68737379Y-81606403D01*
X68737372Y-81606401D01*
X68677844Y-81600000D01*
X67980000Y-81600000D01*
X67980000Y-82624722D01*
X67903694Y-82580667D01*
X67789244Y-82550000D01*
X67670756Y-82550000D01*
X67556306Y-82580667D01*
X67480000Y-82624722D01*
X67480000Y-81600000D01*
X66782155Y-81600000D01*
X66722627Y-81606401D01*
X66722620Y-81606403D01*
X66587913Y-81656645D01*
X66587906Y-81656649D01*
X66472812Y-81742809D01*
X66472809Y-81742812D01*
X66386649Y-81857906D01*
X66386645Y-81857913D01*
X66336403Y-81992620D01*
X66336401Y-81992627D01*
X66330000Y-82052155D01*
X66330000Y-82750000D01*
X67354722Y-82750000D01*
X67310667Y-82826306D01*
X67280000Y-82940756D01*
X67280000Y-83059244D01*
X67310667Y-83173694D01*
X67354722Y-83250000D01*
X66330000Y-83250000D01*
X66330000Y-83947844D01*
X66336401Y-84007372D01*
X66336403Y-84007379D01*
X66386645Y-84142086D01*
X66386649Y-84142093D01*
X66472809Y-84257187D01*
X66472812Y-84257190D01*
X66587906Y-84343350D01*
X66587913Y-84343354D01*
X66722620Y-84393596D01*
X66722627Y-84393598D01*
X66782155Y-84399999D01*
X66782172Y-84400000D01*
X67480000Y-84400000D01*
X67480000Y-83375277D01*
X67556306Y-83419333D01*
X67670756Y-83450000D01*
X67789244Y-83450000D01*
X67903694Y-83419333D01*
X67980000Y-83375277D01*
X67980000Y-84400000D01*
X68677828Y-84400000D01*
X68677844Y-84399999D01*
X68737372Y-84393598D01*
X68737379Y-84393596D01*
X68872086Y-84343354D01*
X68872093Y-84343350D01*
X68987187Y-84257190D01*
X68987190Y-84257187D01*
X69073350Y-84142093D01*
X69073354Y-84142086D01*
X69103213Y-84062031D01*
X69145084Y-84006097D01*
X69210548Y-83981680D01*
X69278821Y-83996531D01*
X69307076Y-84017683D01*
X69357636Y-84068243D01*
X69357641Y-84068247D01*
X69471246Y-84150785D01*
X69535978Y-84197815D01*
X69652501Y-84257187D01*
X69732393Y-84297895D01*
X69732396Y-84297896D01*
X69799525Y-84319707D01*
X69942049Y-84366015D01*
X70159778Y-84400500D01*
X70159779Y-84400500D01*
X70380221Y-84400500D01*
X70380222Y-84400500D01*
X70597951Y-84366015D01*
X70668205Y-84343187D01*
X70738044Y-84341192D01*
X70794202Y-84373437D01*
X73701284Y-87280520D01*
X73701286Y-87280521D01*
X73701290Y-87280524D01*
X73838209Y-87359573D01*
X73838212Y-87359575D01*
X73838216Y-87359577D01*
X73990943Y-87400501D01*
X73990945Y-87400501D01*
X74156654Y-87400501D01*
X74156670Y-87400500D01*
X93933331Y-87400500D01*
X93933347Y-87400501D01*
X93940943Y-87400501D01*
X94099054Y-87400501D01*
X94099057Y-87400501D01*
X94251785Y-87359577D01*
X94251787Y-87359575D01*
X94251789Y-87359575D01*
X94251790Y-87359574D01*
X94305723Y-87328436D01*
X94305724Y-87328435D01*
X94388716Y-87280520D01*
X94500520Y-87168716D01*
X94500520Y-87168714D01*
X94510724Y-87158511D01*
X94510728Y-87158506D01*
X95637819Y-86031415D01*
X95699142Y-85997930D01*
X95768834Y-86002914D01*
X95824767Y-86044786D01*
X95849184Y-86110250D01*
X95849500Y-86119096D01*
X95849500Y-86266286D01*
X95882753Y-86476239D01*
X95948444Y-86678414D01*
X96044951Y-86867820D01*
X96169890Y-87039786D01*
X96320213Y-87190109D01*
X96492182Y-87315050D01*
X96500946Y-87319516D01*
X96551742Y-87367491D01*
X96568536Y-87435312D01*
X96545998Y-87501447D01*
X96500946Y-87540484D01*
X96492182Y-87544949D01*
X96320213Y-87669890D01*
X96169890Y-87820213D01*
X96044951Y-87992179D01*
X95948444Y-88181585D01*
X95882753Y-88383760D01*
X95849500Y-88593713D01*
X95849500Y-88806286D01*
X95873177Y-88955781D01*
X95882754Y-89016243D01*
X95943144Y-89202104D01*
X95948444Y-89218414D01*
X96044951Y-89407820D01*
X96169890Y-89579786D01*
X96320213Y-89730109D01*
X96492182Y-89855050D01*
X96500946Y-89859516D01*
X96551742Y-89907491D01*
X96568536Y-89975312D01*
X96545998Y-90041447D01*
X96500946Y-90080484D01*
X96492182Y-90084949D01*
X96320213Y-90209890D01*
X96169890Y-90360213D01*
X96044951Y-90532179D01*
X95948444Y-90721585D01*
X95882753Y-90923760D01*
X95849500Y-91133713D01*
X95849500Y-91346286D01*
X95877910Y-91525663D01*
X95882754Y-91556243D01*
X95910648Y-91642093D01*
X95948444Y-91758414D01*
X96044951Y-91947820D01*
X96169890Y-92119786D01*
X96320213Y-92270109D01*
X96492179Y-92395048D01*
X96492181Y-92395049D01*
X96492184Y-92395051D01*
X96501493Y-92399794D01*
X96552290Y-92447766D01*
X96569087Y-92515587D01*
X96546552Y-92581722D01*
X96501505Y-92620760D01*
X96492446Y-92625376D01*
X96492440Y-92625380D01*
X96438282Y-92664727D01*
X96438282Y-92664728D01*
X97070591Y-93297037D01*
X97007007Y-93314075D01*
X96892993Y-93379901D01*
X96799901Y-93472993D01*
X96734075Y-93587007D01*
X96717037Y-93650591D01*
X96084728Y-93018282D01*
X96084727Y-93018282D01*
X96045380Y-93072439D01*
X95948904Y-93261782D01*
X95883242Y-93463869D01*
X95883242Y-93463872D01*
X95850000Y-93673753D01*
X95850000Y-93886246D01*
X95883242Y-94096127D01*
X95883242Y-94096130D01*
X95948904Y-94298217D01*
X96045375Y-94487550D01*
X96084728Y-94541716D01*
X96717037Y-93909408D01*
X96734075Y-93972993D01*
X96799901Y-94087007D01*
X96892993Y-94180099D01*
X97007007Y-94245925D01*
X97070590Y-94262962D01*
X96438282Y-94895269D01*
X96438282Y-94895270D01*
X96492449Y-94934624D01*
X96681782Y-95031095D01*
X96883870Y-95096757D01*
X97093754Y-95130000D01*
X97306246Y-95130000D01*
X97516127Y-95096757D01*
X97516130Y-95096757D01*
X97718217Y-95031095D01*
X97907554Y-94934622D01*
X97961716Y-94895270D01*
X97961717Y-94895270D01*
X97329408Y-94262962D01*
X97392993Y-94245925D01*
X97507007Y-94180099D01*
X97600099Y-94087007D01*
X97665925Y-93972993D01*
X97682962Y-93909408D01*
X98315269Y-94541716D01*
X98365771Y-94537742D01*
X98434148Y-94552106D01*
X98483905Y-94601157D01*
X98499500Y-94661360D01*
X98499500Y-126613568D01*
X98479815Y-126680607D01*
X98427011Y-126726362D01*
X98357853Y-126736306D01*
X98301190Y-126712835D01*
X98292334Y-126706206D01*
X98292328Y-126706202D01*
X98157482Y-126655908D01*
X98157483Y-126655908D01*
X98097883Y-126649501D01*
X98097881Y-126649500D01*
X98097873Y-126649500D01*
X98097864Y-126649500D01*
X96302129Y-126649500D01*
X96302123Y-126649501D01*
X96242516Y-126655908D01*
X96107671Y-126706202D01*
X96107664Y-126706206D01*
X95992455Y-126792452D01*
X95992452Y-126792455D01*
X95906206Y-126907664D01*
X95906202Y-126907671D01*
X95855908Y-127042517D01*
X95849501Y-127102116D01*
X95849500Y-127102135D01*
X95849500Y-128897870D01*
X95849501Y-128897876D01*
X95855908Y-128957483D01*
X95906202Y-129092328D01*
X95906206Y-129092335D01*
X95992452Y-129207544D01*
X95992455Y-129207547D01*
X96107664Y-129293793D01*
X96107671Y-129293797D01*
X96239082Y-129342810D01*
X96295016Y-129384681D01*
X96319433Y-129450145D01*
X96304582Y-129518418D01*
X96283431Y-129546673D01*
X96169889Y-129660215D01*
X96044951Y-129832179D01*
X95948444Y-130021585D01*
X95882753Y-130223760D01*
X95850950Y-130424558D01*
X95849500Y-130433713D01*
X95849500Y-130646287D01*
X95882754Y-130856243D01*
X95915769Y-130957853D01*
X95948444Y-131058414D01*
X96044951Y-131247820D01*
X96169890Y-131419786D01*
X96320213Y-131570109D01*
X96492182Y-131695050D01*
X96500946Y-131699516D01*
X96551742Y-131747491D01*
X96568536Y-131815312D01*
X96545998Y-131881447D01*
X96500946Y-131920484D01*
X96492182Y-131924949D01*
X96320213Y-132049890D01*
X96169890Y-132200213D01*
X96044951Y-132372179D01*
X95948444Y-132561585D01*
X95882753Y-132763760D01*
X95849500Y-132973713D01*
X95849500Y-133186286D01*
X95873561Y-133338205D01*
X95882754Y-133396243D01*
X95924727Y-133525423D01*
X95948444Y-133598414D01*
X96044951Y-133787820D01*
X96169890Y-133959786D01*
X96320213Y-134110109D01*
X96492182Y-134235050D01*
X96500946Y-134239516D01*
X96551742Y-134287491D01*
X96568536Y-134355312D01*
X96545998Y-134421447D01*
X96500946Y-134460484D01*
X96492182Y-134464949D01*
X96320213Y-134589890D01*
X96169890Y-134740213D01*
X96044951Y-134912179D01*
X95948444Y-135101585D01*
X95882753Y-135303760D01*
X95849500Y-135513713D01*
X95849500Y-135726286D01*
X95882754Y-135936244D01*
X95882754Y-135936247D01*
X95896491Y-135978523D01*
X95898486Y-136048364D01*
X95866241Y-136104522D01*
X93907584Y-138063181D01*
X93846261Y-138096666D01*
X93819903Y-138099500D01*
X74270097Y-138099500D01*
X74203058Y-138079815D01*
X74182416Y-138063181D01*
X71643438Y-135524203D01*
X71609953Y-135462880D01*
X71613187Y-135398205D01*
X71636015Y-135327951D01*
X71670500Y-135110222D01*
X71670500Y-134889778D01*
X71636015Y-134672049D01*
X71618469Y-134618048D01*
X77339500Y-134618048D01*
X77339500Y-135381951D01*
X77366013Y-135583333D01*
X77371334Y-135623744D01*
X77371335Y-135623746D01*
X77434456Y-135859320D01*
X77434459Y-135859330D01*
X77527786Y-136084640D01*
X77527791Y-136084651D01*
X77649727Y-136295848D01*
X77649738Y-136295864D01*
X77798199Y-136489343D01*
X77798205Y-136489350D01*
X77970649Y-136661794D01*
X77970656Y-136661800D01*
X78031079Y-136708164D01*
X78164144Y-136810268D01*
X78164151Y-136810272D01*
X78375348Y-136932208D01*
X78375353Y-136932210D01*
X78375356Y-136932212D01*
X78600679Y-137025544D01*
X78836256Y-137088666D01*
X79078056Y-137120500D01*
X79078063Y-137120500D01*
X79321937Y-137120500D01*
X79321944Y-137120500D01*
X79563744Y-137088666D01*
X79799321Y-137025544D01*
X80024644Y-136932212D01*
X80235856Y-136810268D01*
X80429345Y-136661799D01*
X80601799Y-136489345D01*
X80750268Y-136295856D01*
X80872212Y-136084644D01*
X80965544Y-135859321D01*
X81028666Y-135623744D01*
X81060500Y-135381944D01*
X81060500Y-134618056D01*
X81060499Y-134618048D01*
X86939500Y-134618048D01*
X86939500Y-135381951D01*
X86966013Y-135583333D01*
X86971334Y-135623744D01*
X86971335Y-135623746D01*
X87034456Y-135859320D01*
X87034459Y-135859330D01*
X87127786Y-136084640D01*
X87127791Y-136084651D01*
X87249727Y-136295848D01*
X87249738Y-136295864D01*
X87398199Y-136489343D01*
X87398205Y-136489350D01*
X87570649Y-136661794D01*
X87570656Y-136661800D01*
X87631079Y-136708164D01*
X87764144Y-136810268D01*
X87764151Y-136810272D01*
X87975348Y-136932208D01*
X87975353Y-136932210D01*
X87975356Y-136932212D01*
X88200679Y-137025544D01*
X88436256Y-137088666D01*
X88678056Y-137120500D01*
X88678063Y-137120500D01*
X88921937Y-137120500D01*
X88921944Y-137120500D01*
X89163744Y-137088666D01*
X89399321Y-137025544D01*
X89624644Y-136932212D01*
X89835856Y-136810268D01*
X90029345Y-136661799D01*
X90201799Y-136489345D01*
X90350268Y-136295856D01*
X90472212Y-136084644D01*
X90565544Y-135859321D01*
X90628666Y-135623744D01*
X90660500Y-135381944D01*
X90660500Y-134618056D01*
X90628666Y-134376256D01*
X90565544Y-134140679D01*
X90552881Y-134110109D01*
X90499948Y-133982317D01*
X90472212Y-133915356D01*
X90472210Y-133915353D01*
X90472208Y-133915348D01*
X90350272Y-133704151D01*
X90350268Y-133704144D01*
X90201799Y-133510655D01*
X90201794Y-133510649D01*
X90029350Y-133338205D01*
X90029343Y-133338199D01*
X89835864Y-133189738D01*
X89835862Y-133189736D01*
X89835856Y-133189732D01*
X89835851Y-133189729D01*
X89835848Y-133189727D01*
X89624651Y-133067791D01*
X89624640Y-133067786D01*
X89399330Y-132974459D01*
X89399323Y-132974457D01*
X89399321Y-132974456D01*
X89163744Y-132911334D01*
X89123333Y-132906013D01*
X88921951Y-132879500D01*
X88921944Y-132879500D01*
X88678056Y-132879500D01*
X88678048Y-132879500D01*
X88447896Y-132909801D01*
X88436256Y-132911334D01*
X88203452Y-132973713D01*
X88200679Y-132974456D01*
X88200669Y-132974459D01*
X87975359Y-133067786D01*
X87975348Y-133067791D01*
X87764151Y-133189727D01*
X87764135Y-133189738D01*
X87570656Y-133338199D01*
X87570649Y-133338205D01*
X87398205Y-133510649D01*
X87398199Y-133510656D01*
X87249738Y-133704135D01*
X87249727Y-133704151D01*
X87127791Y-133915348D01*
X87127786Y-133915359D01*
X87034459Y-134140669D01*
X87034456Y-134140679D01*
X86973428Y-134368443D01*
X86971335Y-134376253D01*
X86971333Y-134376264D01*
X86939500Y-134618048D01*
X81060499Y-134618048D01*
X81028666Y-134376256D01*
X80965544Y-134140679D01*
X80952881Y-134110109D01*
X80899948Y-133982317D01*
X80872212Y-133915356D01*
X80872210Y-133915353D01*
X80872208Y-133915348D01*
X80750272Y-133704151D01*
X80750268Y-133704144D01*
X80601799Y-133510655D01*
X80601794Y-133510649D01*
X80429350Y-133338205D01*
X80429343Y-133338199D01*
X80235864Y-133189738D01*
X80235862Y-133189736D01*
X80235856Y-133189732D01*
X80235851Y-133189729D01*
X80235848Y-133189727D01*
X80024651Y-133067791D01*
X80024640Y-133067786D01*
X79799330Y-132974459D01*
X79799323Y-132974457D01*
X79799321Y-132974456D01*
X79563744Y-132911334D01*
X79523333Y-132906013D01*
X79321951Y-132879500D01*
X79321944Y-132879500D01*
X79078056Y-132879500D01*
X79078048Y-132879500D01*
X78847896Y-132909801D01*
X78836256Y-132911334D01*
X78603452Y-132973713D01*
X78600679Y-132974456D01*
X78600669Y-132974459D01*
X78375359Y-133067786D01*
X78375348Y-133067791D01*
X78164151Y-133189727D01*
X78164135Y-133189738D01*
X77970656Y-133338199D01*
X77970649Y-133338205D01*
X77798205Y-133510649D01*
X77798199Y-133510656D01*
X77649738Y-133704135D01*
X77649727Y-133704151D01*
X77527791Y-133915348D01*
X77527786Y-133915359D01*
X77434459Y-134140669D01*
X77434456Y-134140679D01*
X77373428Y-134368443D01*
X77371335Y-134376253D01*
X77371333Y-134376264D01*
X77339500Y-134618048D01*
X71618469Y-134618048D01*
X71568726Y-134464951D01*
X71567897Y-134462399D01*
X71567895Y-134462393D01*
X71533237Y-134394375D01*
X71467815Y-134265978D01*
X71422864Y-134204108D01*
X71338247Y-134087641D01*
X71338243Y-134087636D01*
X71182363Y-133931756D01*
X71182358Y-133931752D01*
X71004025Y-133802187D01*
X71004024Y-133802186D01*
X71004022Y-133802185D01*
X70941096Y-133770122D01*
X70807606Y-133702104D01*
X70807603Y-133702103D01*
X70597952Y-133633985D01*
X70466114Y-133613104D01*
X70380222Y-133599500D01*
X70159778Y-133599500D01*
X70087201Y-133610995D01*
X69942047Y-133633985D01*
X69732396Y-133702103D01*
X69732393Y-133702104D01*
X69535974Y-133802187D01*
X69357641Y-133931752D01*
X69357636Y-133931756D01*
X69307075Y-133982317D01*
X69245752Y-134015801D01*
X69176060Y-134010816D01*
X69120127Y-133968945D01*
X69103213Y-133937968D01*
X69073354Y-133857913D01*
X69073350Y-133857906D01*
X68987190Y-133742812D01*
X68987187Y-133742809D01*
X68872093Y-133656649D01*
X68872086Y-133656645D01*
X68737379Y-133606403D01*
X68737372Y-133606401D01*
X68677844Y-133600000D01*
X67980000Y-133600000D01*
X67980000Y-134624722D01*
X67903694Y-134580667D01*
X67789244Y-134550000D01*
X67670756Y-134550000D01*
X67556306Y-134580667D01*
X67480000Y-134624722D01*
X67480000Y-133600000D01*
X66782155Y-133600000D01*
X66722627Y-133606401D01*
X66722620Y-133606403D01*
X66587913Y-133656645D01*
X66587906Y-133656649D01*
X66472812Y-133742809D01*
X66472809Y-133742812D01*
X66386649Y-133857906D01*
X66386645Y-133857913D01*
X66336403Y-133992620D01*
X66336401Y-133992627D01*
X66330000Y-134052155D01*
X66330000Y-134750000D01*
X67354722Y-134750000D01*
X67310667Y-134826306D01*
X67280000Y-134940756D01*
X67280000Y-135059244D01*
X67310667Y-135173694D01*
X67354722Y-135250000D01*
X66330000Y-135250000D01*
X66330000Y-135947844D01*
X66336401Y-136007372D01*
X66336403Y-136007379D01*
X66386645Y-136142086D01*
X66386649Y-136142093D01*
X66472809Y-136257187D01*
X66472812Y-136257190D01*
X66587906Y-136343350D01*
X66587913Y-136343354D01*
X66722620Y-136393596D01*
X66722627Y-136393598D01*
X66782155Y-136399999D01*
X66782172Y-136400000D01*
X67480000Y-136400000D01*
X67480000Y-135375277D01*
X67556306Y-135419333D01*
X67670756Y-135450000D01*
X67789244Y-135450000D01*
X67903694Y-135419333D01*
X67980000Y-135375277D01*
X67980000Y-136400000D01*
X68677828Y-136400000D01*
X68677844Y-136399999D01*
X68737372Y-136393598D01*
X68737379Y-136393596D01*
X68872086Y-136343354D01*
X68872093Y-136343350D01*
X68987187Y-136257190D01*
X68987190Y-136257187D01*
X69073350Y-136142093D01*
X69073354Y-136142086D01*
X69103213Y-136062031D01*
X69145084Y-136006097D01*
X69210548Y-135981680D01*
X69278821Y-135996531D01*
X69307076Y-136017683D01*
X69357636Y-136068243D01*
X69357641Y-136068247D01*
X69471246Y-136150785D01*
X69535978Y-136197815D01*
X69652501Y-136257187D01*
X69732393Y-136297895D01*
X69732396Y-136297896D01*
X69799525Y-136319707D01*
X69942049Y-136366015D01*
X70159778Y-136400500D01*
X70159779Y-136400500D01*
X70380221Y-136400500D01*
X70380222Y-136400500D01*
X70597951Y-136366015D01*
X70668205Y-136343187D01*
X70738044Y-136341192D01*
X70794203Y-136373438D01*
X73485139Y-139064374D01*
X73485149Y-139064385D01*
X73489479Y-139068715D01*
X73489480Y-139068716D01*
X73601284Y-139180520D01*
X73688095Y-139230639D01*
X73688097Y-139230641D01*
X73726151Y-139252611D01*
X73738215Y-139259577D01*
X73890943Y-139300500D01*
X74049057Y-139300500D01*
X94033331Y-139300500D01*
X94033347Y-139300501D01*
X94040943Y-139300501D01*
X94199054Y-139300501D01*
X94199057Y-139300501D01*
X94351785Y-139259577D01*
X94401904Y-139230639D01*
X94488716Y-139180520D01*
X94600520Y-139068716D01*
X94600520Y-139068714D01*
X94610728Y-139058507D01*
X94610729Y-139058504D01*
X95637820Y-138031414D01*
X95699142Y-137997930D01*
X95768834Y-138002914D01*
X95824767Y-138044786D01*
X95849184Y-138110250D01*
X95849500Y-138119096D01*
X95849500Y-138266286D01*
X95882753Y-138476239D01*
X95948444Y-138678414D01*
X96044951Y-138867820D01*
X96169890Y-139039786D01*
X96320213Y-139190109D01*
X96492182Y-139315050D01*
X96500946Y-139319516D01*
X96551742Y-139367491D01*
X96568536Y-139435312D01*
X96545998Y-139501447D01*
X96500946Y-139540484D01*
X96492182Y-139544949D01*
X96320213Y-139669890D01*
X96169890Y-139820213D01*
X96044951Y-139992179D01*
X95948444Y-140181585D01*
X95882753Y-140383760D01*
X95849500Y-140593713D01*
X95849500Y-140806286D01*
X95873177Y-140955781D01*
X95882754Y-141016243D01*
X95943144Y-141202104D01*
X95948444Y-141218414D01*
X96044951Y-141407820D01*
X96169890Y-141579786D01*
X96320213Y-141730109D01*
X96492182Y-141855050D01*
X96500946Y-141859516D01*
X96551742Y-141907491D01*
X96568536Y-141975312D01*
X96545998Y-142041447D01*
X96500946Y-142080484D01*
X96492182Y-142084949D01*
X96320213Y-142209890D01*
X96169890Y-142360213D01*
X96044951Y-142532179D01*
X95948444Y-142721585D01*
X95882753Y-142923760D01*
X95849500Y-143133713D01*
X95849500Y-143346286D01*
X95877910Y-143525663D01*
X95882754Y-143556243D01*
X95910648Y-143642093D01*
X95948444Y-143758414D01*
X96044951Y-143947820D01*
X96169890Y-144119786D01*
X96320213Y-144270109D01*
X96492179Y-144395048D01*
X96492181Y-144395049D01*
X96492184Y-144395051D01*
X96501493Y-144399794D01*
X96552290Y-144447766D01*
X96569087Y-144515587D01*
X96546552Y-144581722D01*
X96501505Y-144620760D01*
X96492446Y-144625376D01*
X96492440Y-144625380D01*
X96438282Y-144664727D01*
X96438282Y-144664728D01*
X97070591Y-145297037D01*
X97007007Y-145314075D01*
X96892993Y-145379901D01*
X96799901Y-145472993D01*
X96734075Y-145587007D01*
X96717037Y-145650591D01*
X96084728Y-145018282D01*
X96084727Y-145018282D01*
X96045380Y-145072439D01*
X95948904Y-145261782D01*
X95883242Y-145463869D01*
X95883242Y-145463872D01*
X95850000Y-145673753D01*
X95850000Y-145886246D01*
X95883242Y-146096127D01*
X95883242Y-146096130D01*
X95948904Y-146298217D01*
X96045375Y-146487550D01*
X96084728Y-146541716D01*
X96717037Y-145909408D01*
X96734075Y-145972993D01*
X96799901Y-146087007D01*
X96892993Y-146180099D01*
X97007007Y-146245925D01*
X97070590Y-146262962D01*
X96438282Y-146895269D01*
X96438282Y-146895270D01*
X96492449Y-146934624D01*
X96681782Y-147031095D01*
X96883870Y-147096757D01*
X97093754Y-147130000D01*
X97306246Y-147130000D01*
X97516127Y-147096757D01*
X97516130Y-147096757D01*
X97718217Y-147031095D01*
X97907554Y-146934622D01*
X97961716Y-146895270D01*
X97961717Y-146895270D01*
X97329408Y-146262962D01*
X97392993Y-146245925D01*
X97507007Y-146180099D01*
X97600099Y-146087007D01*
X97665925Y-145972993D01*
X97682962Y-145909408D01*
X98315269Y-146541716D01*
X98365771Y-146537742D01*
X98434148Y-146552106D01*
X98483905Y-146601157D01*
X98499500Y-146661360D01*
X98499500Y-149875500D01*
X98479815Y-149942539D01*
X98427011Y-149988294D01*
X98375500Y-149999500D01*
X65934108Y-149999500D01*
X65806812Y-150033608D01*
X65692686Y-150099500D01*
X65692683Y-150099502D01*
X65599502Y-150192683D01*
X65599500Y-150192686D01*
X65533608Y-150306812D01*
X65499500Y-150434108D01*
X65499500Y-182875500D01*
X65479815Y-182942539D01*
X65427011Y-182988294D01*
X65375500Y-182999500D01*
X51624500Y-182999500D01*
X51557461Y-182979815D01*
X51511706Y-182927011D01*
X51500500Y-182875500D01*
X51500500Y-180325441D01*
X56599500Y-180325441D01*
X56599500Y-180574558D01*
X56599501Y-180574575D01*
X56632017Y-180821561D01*
X56696498Y-181062207D01*
X56791830Y-181292361D01*
X56791837Y-181292376D01*
X56916400Y-181508126D01*
X57068060Y-181705774D01*
X57068066Y-181705781D01*
X57244218Y-181881933D01*
X57244225Y-181881939D01*
X57441873Y-182033599D01*
X57657623Y-182158162D01*
X57657638Y-182158169D01*
X57756825Y-182199253D01*
X57887793Y-182253502D01*
X58128435Y-182317982D01*
X58375435Y-182350500D01*
X58375442Y-182350500D01*
X58624558Y-182350500D01*
X58624565Y-182350500D01*
X58871565Y-182317982D01*
X59112207Y-182253502D01*
X59342373Y-182158164D01*
X59558127Y-182033599D01*
X59755776Y-181881938D01*
X59931938Y-181705776D01*
X60083599Y-181508127D01*
X60208164Y-181292373D01*
X60303502Y-181062207D01*
X60367982Y-180821565D01*
X60400500Y-180574565D01*
X60400500Y-180325435D01*
X60367982Y-180078435D01*
X60303502Y-179837793D01*
X60208164Y-179607627D01*
X60083599Y-179391873D01*
X59931938Y-179194224D01*
X59931933Y-179194218D01*
X59755781Y-179018066D01*
X59755774Y-179018060D01*
X59558126Y-178866400D01*
X59342376Y-178741837D01*
X59342361Y-178741830D01*
X59112207Y-178646498D01*
X58871561Y-178582017D01*
X58624575Y-178549501D01*
X58624570Y-178549500D01*
X58624565Y-178549500D01*
X58375435Y-178549500D01*
X58375429Y-178549500D01*
X58375424Y-178549501D01*
X58128438Y-178582017D01*
X57887792Y-178646498D01*
X57657638Y-178741830D01*
X57657623Y-178741837D01*
X57441873Y-178866400D01*
X57244225Y-179018060D01*
X57244218Y-179018066D01*
X57068066Y-179194218D01*
X57068060Y-179194225D01*
X56916400Y-179391873D01*
X56791837Y-179607623D01*
X56791830Y-179607638D01*
X56696498Y-179837792D01*
X56632017Y-180078438D01*
X56599501Y-180325424D01*
X56599500Y-180325441D01*
X51500500Y-180325441D01*
X51500500Y-175625441D01*
X56599500Y-175625441D01*
X56599500Y-175874558D01*
X56599501Y-175874575D01*
X56632017Y-176121561D01*
X56696498Y-176362207D01*
X56791830Y-176592361D01*
X56791837Y-176592376D01*
X56916400Y-176808126D01*
X57068060Y-177005774D01*
X57068066Y-177005781D01*
X57244218Y-177181933D01*
X57244225Y-177181939D01*
X57441873Y-177333599D01*
X57657623Y-177458162D01*
X57657638Y-177458169D01*
X57756825Y-177499253D01*
X57887793Y-177553502D01*
X58128435Y-177617982D01*
X58375435Y-177650500D01*
X58375442Y-177650500D01*
X58624558Y-177650500D01*
X58624565Y-177650500D01*
X58871565Y-177617982D01*
X59112207Y-177553502D01*
X59342373Y-177458164D01*
X59558127Y-177333599D01*
X59755776Y-177181938D01*
X59931938Y-177005776D01*
X60083599Y-176808127D01*
X60208164Y-176592373D01*
X60303502Y-176362207D01*
X60367982Y-176121565D01*
X60400500Y-175874565D01*
X60400500Y-175625435D01*
X60367982Y-175378435D01*
X60303502Y-175137793D01*
X60208164Y-174907627D01*
X60083599Y-174691873D01*
X59931938Y-174494224D01*
X59931933Y-174494218D01*
X59755781Y-174318066D01*
X59755774Y-174318060D01*
X59558126Y-174166400D01*
X59342376Y-174041837D01*
X59342361Y-174041830D01*
X59112207Y-173946498D01*
X58871561Y-173882017D01*
X58624575Y-173849501D01*
X58624570Y-173849500D01*
X58624565Y-173849500D01*
X58375435Y-173849500D01*
X58375429Y-173849500D01*
X58375424Y-173849501D01*
X58128438Y-173882017D01*
X57887792Y-173946498D01*
X57657638Y-174041830D01*
X57657623Y-174041837D01*
X57441873Y-174166400D01*
X57244225Y-174318060D01*
X57244218Y-174318066D01*
X57068066Y-174494218D01*
X57068060Y-174494225D01*
X56916400Y-174691873D01*
X56791837Y-174907623D01*
X56791830Y-174907638D01*
X56696498Y-175137792D01*
X56632017Y-175378438D01*
X56599501Y-175625424D01*
X56599500Y-175625441D01*
X51500500Y-175625441D01*
X51500500Y-170925441D01*
X56599500Y-170925441D01*
X56599500Y-171174558D01*
X56599501Y-171174575D01*
X56632017Y-171421561D01*
X56696498Y-171662207D01*
X56791830Y-171892361D01*
X56791837Y-171892376D01*
X56916400Y-172108126D01*
X57068060Y-172305774D01*
X57068066Y-172305781D01*
X57244218Y-172481933D01*
X57244225Y-172481939D01*
X57441873Y-172633599D01*
X57657623Y-172758162D01*
X57657638Y-172758169D01*
X57756825Y-172799253D01*
X57887793Y-172853502D01*
X58128435Y-172917982D01*
X58375435Y-172950500D01*
X58375442Y-172950500D01*
X58624558Y-172950500D01*
X58624565Y-172950500D01*
X58871565Y-172917982D01*
X59112207Y-172853502D01*
X59342373Y-172758164D01*
X59558127Y-172633599D01*
X59755776Y-172481938D01*
X59931938Y-172305776D01*
X60083599Y-172108127D01*
X60208164Y-171892373D01*
X60303502Y-171662207D01*
X60367982Y-171421565D01*
X60400500Y-171174565D01*
X60400500Y-170925435D01*
X60367982Y-170678435D01*
X60303502Y-170437793D01*
X60208164Y-170207627D01*
X60083599Y-169991873D01*
X59931938Y-169794224D01*
X59931933Y-169794218D01*
X59755781Y-169618066D01*
X59755774Y-169618060D01*
X59558126Y-169466400D01*
X59342376Y-169341837D01*
X59342361Y-169341830D01*
X59112207Y-169246498D01*
X58871561Y-169182017D01*
X58624575Y-169149501D01*
X58624570Y-169149500D01*
X58624565Y-169149500D01*
X58375435Y-169149500D01*
X58375429Y-169149500D01*
X58375424Y-169149501D01*
X58128438Y-169182017D01*
X57887792Y-169246498D01*
X57657638Y-169341830D01*
X57657623Y-169341837D01*
X57441873Y-169466400D01*
X57244225Y-169618060D01*
X57244218Y-169618066D01*
X57068066Y-169794218D01*
X57068060Y-169794225D01*
X56916400Y-169991873D01*
X56791837Y-170207623D01*
X56791830Y-170207638D01*
X56696498Y-170437792D01*
X56632017Y-170678438D01*
X56599501Y-170925424D01*
X56599500Y-170925441D01*
X51500500Y-170925441D01*
X51500500Y-163825441D01*
X56599500Y-163825441D01*
X56599500Y-164074558D01*
X56599501Y-164074575D01*
X56632017Y-164321561D01*
X56696498Y-164562207D01*
X56791830Y-164792361D01*
X56791837Y-164792376D01*
X56916400Y-165008126D01*
X57068060Y-165205774D01*
X57068066Y-165205781D01*
X57244218Y-165381933D01*
X57244225Y-165381939D01*
X57441873Y-165533599D01*
X57657623Y-165658162D01*
X57657638Y-165658169D01*
X57756825Y-165699253D01*
X57887793Y-165753502D01*
X58128435Y-165817982D01*
X58375435Y-165850500D01*
X58375442Y-165850500D01*
X58624558Y-165850500D01*
X58624565Y-165850500D01*
X58871565Y-165817982D01*
X59112207Y-165753502D01*
X59342373Y-165658164D01*
X59558127Y-165533599D01*
X59755776Y-165381938D01*
X59931938Y-165205776D01*
X60083599Y-165008127D01*
X60208164Y-164792373D01*
X60303502Y-164562207D01*
X60367982Y-164321565D01*
X60400500Y-164074565D01*
X60400500Y-163825435D01*
X60367982Y-163578435D01*
X60303502Y-163337793D01*
X60208164Y-163107627D01*
X60083599Y-162891873D01*
X59931938Y-162694224D01*
X59931933Y-162694218D01*
X59755781Y-162518066D01*
X59755774Y-162518060D01*
X59558126Y-162366400D01*
X59342376Y-162241837D01*
X59342361Y-162241830D01*
X59112207Y-162146498D01*
X58871561Y-162082017D01*
X58624575Y-162049501D01*
X58624570Y-162049500D01*
X58624565Y-162049500D01*
X58375435Y-162049500D01*
X58375429Y-162049500D01*
X58375424Y-162049501D01*
X58128438Y-162082017D01*
X57887792Y-162146498D01*
X57657638Y-162241830D01*
X57657623Y-162241837D01*
X57441873Y-162366400D01*
X57244225Y-162518060D01*
X57244218Y-162518066D01*
X57068066Y-162694218D01*
X57068060Y-162694225D01*
X56916400Y-162891873D01*
X56791837Y-163107623D01*
X56791830Y-163107638D01*
X56696498Y-163337792D01*
X56632017Y-163578438D01*
X56599501Y-163825424D01*
X56599500Y-163825441D01*
X51500500Y-163825441D01*
X51500500Y-159125441D01*
X56599500Y-159125441D01*
X56599500Y-159374558D01*
X56599501Y-159374575D01*
X56632017Y-159621561D01*
X56696498Y-159862207D01*
X56791830Y-160092361D01*
X56791837Y-160092376D01*
X56916400Y-160308126D01*
X57068060Y-160505774D01*
X57068066Y-160505781D01*
X57244218Y-160681933D01*
X57244225Y-160681939D01*
X57441873Y-160833599D01*
X57657623Y-160958162D01*
X57657638Y-160958169D01*
X57756825Y-160999253D01*
X57887793Y-161053502D01*
X58128435Y-161117982D01*
X58375435Y-161150500D01*
X58375442Y-161150500D01*
X58624558Y-161150500D01*
X58624565Y-161150500D01*
X58871565Y-161117982D01*
X59112207Y-161053502D01*
X59342373Y-160958164D01*
X59558127Y-160833599D01*
X59755776Y-160681938D01*
X59931938Y-160505776D01*
X60083599Y-160308127D01*
X60208164Y-160092373D01*
X60303502Y-159862207D01*
X60367982Y-159621565D01*
X60400500Y-159374565D01*
X60400500Y-159125435D01*
X60367982Y-158878435D01*
X60303502Y-158637793D01*
X60208164Y-158407627D01*
X60083599Y-158191873D01*
X59931938Y-157994224D01*
X59931933Y-157994218D01*
X59755781Y-157818066D01*
X59755774Y-157818060D01*
X59558126Y-157666400D01*
X59342376Y-157541837D01*
X59342361Y-157541830D01*
X59112207Y-157446498D01*
X58871561Y-157382017D01*
X58624575Y-157349501D01*
X58624570Y-157349500D01*
X58624565Y-157349500D01*
X58375435Y-157349500D01*
X58375429Y-157349500D01*
X58375424Y-157349501D01*
X58128438Y-157382017D01*
X57887792Y-157446498D01*
X57657638Y-157541830D01*
X57657623Y-157541837D01*
X57441873Y-157666400D01*
X57244225Y-157818060D01*
X57244218Y-157818066D01*
X57068066Y-157994218D01*
X57068060Y-157994225D01*
X56916400Y-158191873D01*
X56791837Y-158407623D01*
X56791830Y-158407638D01*
X56696498Y-158637792D01*
X56632017Y-158878438D01*
X56599501Y-159125424D01*
X56599500Y-159125441D01*
X51500500Y-159125441D01*
X51500500Y-154425441D01*
X56599500Y-154425441D01*
X56599500Y-154674558D01*
X56599501Y-154674575D01*
X56632017Y-154921561D01*
X56696498Y-155162207D01*
X56791830Y-155392361D01*
X56791837Y-155392376D01*
X56916400Y-155608126D01*
X57068060Y-155805774D01*
X57068066Y-155805781D01*
X57244218Y-155981933D01*
X57244225Y-155981939D01*
X57441873Y-156133599D01*
X57657623Y-156258162D01*
X57657638Y-156258169D01*
X57756825Y-156299253D01*
X57887793Y-156353502D01*
X58128435Y-156417982D01*
X58375435Y-156450500D01*
X58375442Y-156450500D01*
X58624558Y-156450500D01*
X58624565Y-156450500D01*
X58871565Y-156417982D01*
X59112207Y-156353502D01*
X59342373Y-156258164D01*
X59558127Y-156133599D01*
X59755776Y-155981938D01*
X59931938Y-155805776D01*
X60083599Y-155608127D01*
X60208164Y-155392373D01*
X60303502Y-155162207D01*
X60367982Y-154921565D01*
X60400500Y-154674565D01*
X60400500Y-154425435D01*
X60367982Y-154178435D01*
X60303502Y-153937793D01*
X60208164Y-153707627D01*
X60083599Y-153491873D01*
X59931938Y-153294224D01*
X59931933Y-153294218D01*
X59755781Y-153118066D01*
X59755774Y-153118060D01*
X59558126Y-152966400D01*
X59342376Y-152841837D01*
X59342361Y-152841830D01*
X59112207Y-152746498D01*
X58871561Y-152682017D01*
X58624575Y-152649501D01*
X58624570Y-152649500D01*
X58624565Y-152649500D01*
X58375435Y-152649500D01*
X58375429Y-152649500D01*
X58375424Y-152649501D01*
X58128438Y-152682017D01*
X57887792Y-152746498D01*
X57657638Y-152841830D01*
X57657623Y-152841837D01*
X57441873Y-152966400D01*
X57244225Y-153118060D01*
X57244218Y-153118066D01*
X57068066Y-153294218D01*
X57068060Y-153294225D01*
X56916400Y-153491873D01*
X56791837Y-153707623D01*
X56791830Y-153707638D01*
X56696498Y-153937792D01*
X56632017Y-154178438D01*
X56599501Y-154425424D01*
X56599500Y-154425441D01*
X51500500Y-154425441D01*
X51500500Y-130175441D01*
X54186500Y-130175441D01*
X54186500Y-130424558D01*
X54186501Y-130424575D01*
X54219017Y-130671561D01*
X54283498Y-130912207D01*
X54378830Y-131142361D01*
X54378837Y-131142376D01*
X54503400Y-131358126D01*
X54655060Y-131555774D01*
X54655066Y-131555781D01*
X54831218Y-131731933D01*
X54831225Y-131731939D01*
X55028873Y-131883599D01*
X55244623Y-132008162D01*
X55244638Y-132008169D01*
X55305552Y-132033400D01*
X55474793Y-132103502D01*
X55715435Y-132167982D01*
X55962435Y-132200500D01*
X55962442Y-132200500D01*
X56211558Y-132200500D01*
X56211565Y-132200500D01*
X56458565Y-132167982D01*
X56699207Y-132103502D01*
X56929373Y-132008164D01*
X57145127Y-131883599D01*
X57300015Y-131764748D01*
X57365183Y-131739556D01*
X57433627Y-131753594D01*
X57483617Y-131802408D01*
X57499500Y-131863126D01*
X57499500Y-132686902D01*
X57479815Y-132753941D01*
X57463181Y-132774583D01*
X56999665Y-133238098D01*
X56938342Y-133271583D01*
X56868650Y-133266599D01*
X56864553Y-133264986D01*
X56699207Y-133196498D01*
X56699205Y-133196497D01*
X56699204Y-133196497D01*
X56458561Y-133132017D01*
X56211575Y-133099501D01*
X56211570Y-133099500D01*
X56211565Y-133099500D01*
X55962435Y-133099500D01*
X55962429Y-133099500D01*
X55962424Y-133099501D01*
X55715438Y-133132017D01*
X55474792Y-133196498D01*
X55244638Y-133291830D01*
X55244623Y-133291837D01*
X55028873Y-133416400D01*
X54831225Y-133568060D01*
X54831218Y-133568066D01*
X54655066Y-133744218D01*
X54655060Y-133744225D01*
X54503400Y-133941873D01*
X54378837Y-134157623D01*
X54378830Y-134157638D01*
X54283498Y-134387792D01*
X54219017Y-134628438D01*
X54186501Y-134875424D01*
X54186500Y-134875441D01*
X54186500Y-135124558D01*
X54186501Y-135124575D01*
X54219017Y-135371561D01*
X54283498Y-135612207D01*
X54378830Y-135842361D01*
X54378837Y-135842376D01*
X54503400Y-136058126D01*
X54655060Y-136255774D01*
X54655066Y-136255781D01*
X54831218Y-136431933D01*
X54831225Y-136431939D01*
X55028873Y-136583599D01*
X55244623Y-136708162D01*
X55244638Y-136708169D01*
X55317297Y-136738265D01*
X55474793Y-136803502D01*
X55715435Y-136867982D01*
X55962435Y-136900500D01*
X55962442Y-136900500D01*
X56211558Y-136900500D01*
X56211565Y-136900500D01*
X56458565Y-136867982D01*
X56699207Y-136803502D01*
X56929373Y-136708164D01*
X57145127Y-136583599D01*
X57342776Y-136431938D01*
X57518938Y-136255776D01*
X57670599Y-136058127D01*
X57795164Y-135842373D01*
X57890502Y-135612207D01*
X57954982Y-135371565D01*
X57954982Y-135371560D01*
X57955725Y-135368790D01*
X57992090Y-135309129D01*
X58054937Y-135278600D01*
X58124313Y-135286895D01*
X58178190Y-135331380D01*
X58199465Y-135397932D01*
X58199500Y-135400883D01*
X58199500Y-136686902D01*
X58179815Y-136753941D01*
X58163181Y-136774583D01*
X56999665Y-137938098D01*
X56938342Y-137971583D01*
X56868650Y-137966599D01*
X56864553Y-137964986D01*
X56699207Y-137896498D01*
X56699205Y-137896497D01*
X56699204Y-137896497D01*
X56458561Y-137832017D01*
X56211575Y-137799501D01*
X56211570Y-137799500D01*
X56211565Y-137799500D01*
X55962435Y-137799500D01*
X55962429Y-137799500D01*
X55962424Y-137799501D01*
X55715438Y-137832017D01*
X55474792Y-137896498D01*
X55244638Y-137991830D01*
X55244623Y-137991837D01*
X55028873Y-138116400D01*
X54831225Y-138268060D01*
X54831218Y-138268066D01*
X54655066Y-138444218D01*
X54655060Y-138444225D01*
X54503400Y-138641873D01*
X54378837Y-138857623D01*
X54378830Y-138857638D01*
X54283498Y-139087792D01*
X54219017Y-139328438D01*
X54186501Y-139575424D01*
X54186500Y-139575441D01*
X54186500Y-139824558D01*
X54186501Y-139824575D01*
X54219017Y-140071561D01*
X54283498Y-140312207D01*
X54378830Y-140542361D01*
X54378837Y-140542376D01*
X54503400Y-140758126D01*
X54655060Y-140955774D01*
X54655066Y-140955781D01*
X54831218Y-141131933D01*
X54831225Y-141131939D01*
X55028873Y-141283599D01*
X55244623Y-141408162D01*
X55244638Y-141408169D01*
X55321027Y-141439810D01*
X55474793Y-141503502D01*
X55715435Y-141567982D01*
X55962435Y-141600500D01*
X55962442Y-141600500D01*
X56211558Y-141600500D01*
X56211565Y-141600500D01*
X56458565Y-141567982D01*
X56699207Y-141503502D01*
X56922781Y-141410894D01*
X56929361Y-141408169D01*
X56929361Y-141408168D01*
X56929373Y-141408164D01*
X57145127Y-141283599D01*
X57342776Y-141131938D01*
X57518938Y-140955776D01*
X57670599Y-140758127D01*
X57795164Y-140542373D01*
X57890502Y-140312207D01*
X57954982Y-140071565D01*
X57987500Y-139824565D01*
X57987500Y-139575441D01*
X59012500Y-139575441D01*
X59012500Y-139824558D01*
X59012501Y-139824575D01*
X59045017Y-140071561D01*
X59109498Y-140312207D01*
X59204830Y-140542361D01*
X59204837Y-140542376D01*
X59329400Y-140758126D01*
X59481060Y-140955774D01*
X59481066Y-140955781D01*
X59657218Y-141131933D01*
X59657225Y-141131939D01*
X59854873Y-141283599D01*
X60070623Y-141408162D01*
X60070638Y-141408169D01*
X60147027Y-141439810D01*
X60300793Y-141503502D01*
X60541435Y-141567982D01*
X60788435Y-141600500D01*
X60788442Y-141600500D01*
X61037558Y-141600500D01*
X61037565Y-141600500D01*
X61284565Y-141567982D01*
X61343632Y-141552155D01*
X80100000Y-141552155D01*
X80100000Y-142250000D01*
X81066988Y-142250000D01*
X81034075Y-142307007D01*
X81000000Y-142434174D01*
X81000000Y-142565826D01*
X81034075Y-142692993D01*
X81066988Y-142750000D01*
X80100000Y-142750000D01*
X80100000Y-143447844D01*
X80106401Y-143507372D01*
X80106403Y-143507379D01*
X80156645Y-143642086D01*
X80156649Y-143642093D01*
X80242809Y-143757187D01*
X80242812Y-143757190D01*
X80357906Y-143843350D01*
X80357913Y-143843354D01*
X80492620Y-143893596D01*
X80492627Y-143893598D01*
X80552155Y-143899999D01*
X80552172Y-143900000D01*
X81250000Y-143900000D01*
X81250000Y-142933012D01*
X81307007Y-142965925D01*
X81434174Y-143000000D01*
X81565826Y-143000000D01*
X81692993Y-142965925D01*
X81750000Y-142933012D01*
X81750000Y-143900000D01*
X82447828Y-143900000D01*
X82447844Y-143899999D01*
X82507372Y-143893598D01*
X82507379Y-143893596D01*
X82642086Y-143843354D01*
X82642093Y-143843350D01*
X82757187Y-143757190D01*
X82757190Y-143757187D01*
X82843350Y-143642093D01*
X82843353Y-143642088D01*
X82862345Y-143591166D01*
X82904215Y-143535232D01*
X82969679Y-143510813D01*
X83037952Y-143525663D01*
X83066209Y-143546816D01*
X83087636Y-143568243D01*
X83087641Y-143568247D01*
X83243192Y-143681260D01*
X83265978Y-143697815D01*
X83382501Y-143757187D01*
X83462393Y-143797895D01*
X83462396Y-143797896D01*
X83567221Y-143831955D01*
X83672049Y-143866015D01*
X83889778Y-143900500D01*
X83889779Y-143900500D01*
X84110221Y-143900500D01*
X84110222Y-143900500D01*
X84327951Y-143866015D01*
X84537606Y-143797895D01*
X84734022Y-143697815D01*
X84912365Y-143568242D01*
X85068242Y-143412365D01*
X85149682Y-143300270D01*
X85205011Y-143257606D01*
X85274624Y-143251627D01*
X85336420Y-143284232D01*
X85350313Y-143300265D01*
X85383750Y-143346287D01*
X85431758Y-143412365D01*
X85587636Y-143568243D01*
X85587641Y-143568247D01*
X85743192Y-143681260D01*
X85765978Y-143697815D01*
X85882501Y-143757187D01*
X85962393Y-143797895D01*
X85962396Y-143797896D01*
X86067221Y-143831955D01*
X86172049Y-143866015D01*
X86389778Y-143900500D01*
X86389779Y-143900500D01*
X86610221Y-143900500D01*
X86610222Y-143900500D01*
X86827951Y-143866015D01*
X87037606Y-143797895D01*
X87234022Y-143697815D01*
X87412365Y-143568242D01*
X87568242Y-143412365D01*
X87697815Y-143234022D01*
X87797895Y-143037606D01*
X87866015Y-142827951D01*
X87900500Y-142610222D01*
X87900500Y-142389778D01*
X87866015Y-142172049D01*
X87831955Y-142067221D01*
X87797896Y-141962396D01*
X87797895Y-141962393D01*
X87763237Y-141894375D01*
X87697815Y-141765978D01*
X87649681Y-141699727D01*
X87568247Y-141587641D01*
X87568243Y-141587636D01*
X87412363Y-141431756D01*
X87412358Y-141431752D01*
X87234025Y-141302187D01*
X87234024Y-141302186D01*
X87234022Y-141302185D01*
X87171096Y-141270122D01*
X87037606Y-141202104D01*
X87037603Y-141202103D01*
X86827952Y-141133985D01*
X86719086Y-141116742D01*
X86610222Y-141099500D01*
X86389778Y-141099500D01*
X86317201Y-141110995D01*
X86172047Y-141133985D01*
X85962396Y-141202103D01*
X85962393Y-141202104D01*
X85765974Y-141302187D01*
X85587641Y-141431752D01*
X85587636Y-141431756D01*
X85431756Y-141587636D01*
X85431752Y-141587641D01*
X85350318Y-141699727D01*
X85294989Y-141742393D01*
X85225375Y-141748372D01*
X85163580Y-141715767D01*
X85149682Y-141699727D01*
X85068247Y-141587641D01*
X85068243Y-141587636D01*
X84912363Y-141431756D01*
X84912358Y-141431752D01*
X84734025Y-141302187D01*
X84734024Y-141302186D01*
X84734022Y-141302185D01*
X84671096Y-141270122D01*
X84537606Y-141202104D01*
X84537603Y-141202103D01*
X84327952Y-141133985D01*
X84219086Y-141116742D01*
X84110222Y-141099500D01*
X83889778Y-141099500D01*
X83817201Y-141110995D01*
X83672047Y-141133985D01*
X83462396Y-141202103D01*
X83462393Y-141202104D01*
X83265974Y-141302187D01*
X83087641Y-141431752D01*
X83087635Y-141431757D01*
X83066207Y-141453185D01*
X83004884Y-141486669D01*
X82935192Y-141481683D01*
X82879259Y-141439810D01*
X82862346Y-141408834D01*
X82843355Y-141357915D01*
X82843350Y-141357906D01*
X82757190Y-141242812D01*
X82757187Y-141242809D01*
X82642093Y-141156649D01*
X82642086Y-141156645D01*
X82507379Y-141106403D01*
X82507372Y-141106401D01*
X82447844Y-141100000D01*
X81750000Y-141100000D01*
X81750000Y-142066988D01*
X81692993Y-142034075D01*
X81565826Y-142000000D01*
X81434174Y-142000000D01*
X81307007Y-142034075D01*
X81250000Y-142066988D01*
X81250000Y-141100000D01*
X80552155Y-141100000D01*
X80492627Y-141106401D01*
X80492620Y-141106403D01*
X80357913Y-141156645D01*
X80357906Y-141156649D01*
X80242812Y-141242809D01*
X80242809Y-141242812D01*
X80156649Y-141357906D01*
X80156645Y-141357913D01*
X80106403Y-141492620D01*
X80106401Y-141492627D01*
X80100000Y-141552155D01*
X61343632Y-141552155D01*
X61525207Y-141503502D01*
X61678973Y-141439810D01*
X61692300Y-141434290D01*
X61755361Y-141408169D01*
X61755361Y-141408168D01*
X61755373Y-141408164D01*
X61971127Y-141283599D01*
X62168776Y-141131938D01*
X62344938Y-140955776D01*
X62496599Y-140758127D01*
X62621164Y-140542373D01*
X62716502Y-140312207D01*
X62780982Y-140071565D01*
X62813500Y-139824565D01*
X62813500Y-139575435D01*
X62780982Y-139328435D01*
X62716502Y-139087793D01*
X62625386Y-138867820D01*
X62621169Y-138857638D01*
X62621162Y-138857623D01*
X62496599Y-138641873D01*
X62344939Y-138444225D01*
X62344933Y-138444218D01*
X62168781Y-138268066D01*
X62168774Y-138268060D01*
X61971126Y-138116400D01*
X61755376Y-137991837D01*
X61755361Y-137991830D01*
X61525207Y-137896498D01*
X61284561Y-137832017D01*
X61037575Y-137799501D01*
X61037570Y-137799500D01*
X61037565Y-137799500D01*
X60788435Y-137799500D01*
X60788429Y-137799500D01*
X60788424Y-137799501D01*
X60541438Y-137832017D01*
X60300792Y-137896498D01*
X60070638Y-137991830D01*
X60070623Y-137991837D01*
X59854873Y-138116400D01*
X59657225Y-138268060D01*
X59657218Y-138268066D01*
X59481066Y-138444218D01*
X59481060Y-138444225D01*
X59329400Y-138641873D01*
X59204837Y-138857623D01*
X59204830Y-138857638D01*
X59109498Y-139087792D01*
X59045017Y-139328438D01*
X59012501Y-139575424D01*
X59012500Y-139575441D01*
X57987500Y-139575441D01*
X57987500Y-139575435D01*
X57954982Y-139328435D01*
X57890502Y-139087793D01*
X57822020Y-138922465D01*
X57814552Y-138852996D01*
X57845827Y-138790517D01*
X57848873Y-138787360D01*
X59158506Y-137477728D01*
X59158511Y-137477724D01*
X59168714Y-137467520D01*
X59168716Y-137467520D01*
X59280520Y-137355716D01*
X59359577Y-137218784D01*
X59400500Y-137066057D01*
X59400500Y-136474577D01*
X59420185Y-136407538D01*
X59472989Y-136361783D01*
X59542147Y-136351839D01*
X59605703Y-136380864D01*
X59612181Y-136386896D01*
X59657218Y-136431933D01*
X59657225Y-136431939D01*
X59854873Y-136583599D01*
X60070623Y-136708162D01*
X60070638Y-136708169D01*
X60143297Y-136738265D01*
X60300793Y-136803502D01*
X60541435Y-136867982D01*
X60788435Y-136900500D01*
X60788442Y-136900500D01*
X61037558Y-136900500D01*
X61037565Y-136900500D01*
X61284565Y-136867982D01*
X61525207Y-136803502D01*
X61755373Y-136708164D01*
X61971127Y-136583599D01*
X62168776Y-136431938D01*
X62344938Y-136255776D01*
X62496599Y-136058127D01*
X62621164Y-135842373D01*
X62716502Y-135612207D01*
X62780982Y-135371565D01*
X62813500Y-135124565D01*
X62813500Y-134875435D01*
X62780982Y-134628435D01*
X62716502Y-134387793D01*
X62648020Y-134222464D01*
X62645883Y-134202589D01*
X62638898Y-134183860D01*
X62642225Y-134168563D01*
X62640552Y-134152997D01*
X62649500Y-134135119D01*
X62653750Y-134115587D01*
X62670435Y-134093298D01*
X62671827Y-134090518D01*
X62674872Y-134087362D01*
X64425417Y-132336819D01*
X64486740Y-132303334D01*
X64513098Y-132300500D01*
X84323331Y-132300500D01*
X84323347Y-132300501D01*
X84330943Y-132300501D01*
X84489054Y-132300501D01*
X84489057Y-132300501D01*
X84641785Y-132259577D01*
X84691904Y-132230639D01*
X84778716Y-132180520D01*
X84890520Y-132068716D01*
X84890520Y-132068714D01*
X84900728Y-132058507D01*
X84900730Y-132058504D01*
X87365158Y-129594075D01*
X87426479Y-129560592D01*
X87491151Y-129563825D01*
X87505466Y-129568477D01*
X87707648Y-129600500D01*
X87707649Y-129600500D01*
X87912351Y-129600500D01*
X87912352Y-129600500D01*
X88114534Y-129568477D01*
X88309219Y-129505220D01*
X88491610Y-129412287D01*
X88587238Y-129342810D01*
X88657213Y-129291971D01*
X88657215Y-129291968D01*
X88657219Y-129291966D01*
X88801966Y-129147219D01*
X88801968Y-129147215D01*
X88801971Y-129147213D01*
X88876795Y-129044225D01*
X88922287Y-128981610D01*
X89015220Y-128799219D01*
X89078477Y-128604534D01*
X89110500Y-128402352D01*
X89110500Y-128197648D01*
X89078477Y-127995466D01*
X89015220Y-127800781D01*
X89015218Y-127800778D01*
X89015218Y-127800776D01*
X88981503Y-127734607D01*
X88922287Y-127618390D01*
X88914556Y-127607749D01*
X88801971Y-127452786D01*
X88657213Y-127308028D01*
X88491613Y-127187715D01*
X88491612Y-127187714D01*
X88491610Y-127187713D01*
X88434653Y-127158691D01*
X88309223Y-127094781D01*
X88114534Y-127031522D01*
X88012335Y-127015336D01*
X87949200Y-126985407D01*
X87912269Y-126926095D01*
X87913267Y-126856233D01*
X87944050Y-126805184D01*
X94281713Y-120467521D01*
X94281716Y-120467520D01*
X94393520Y-120355716D01*
X94443639Y-120268904D01*
X94472577Y-120218785D01*
X94513501Y-120066057D01*
X94513501Y-119907943D01*
X94513501Y-119900348D01*
X94513500Y-119900330D01*
X94513500Y-115591205D01*
X94533185Y-115524166D01*
X94585989Y-115478411D01*
X94590048Y-115476644D01*
X94755361Y-115408169D01*
X94755361Y-115408168D01*
X94755373Y-115408164D01*
X94971127Y-115283599D01*
X95168776Y-115131938D01*
X95344938Y-114955776D01*
X95496599Y-114758127D01*
X95621164Y-114542373D01*
X95716502Y-114312207D01*
X95780982Y-114071565D01*
X95813500Y-113824565D01*
X95813500Y-113575435D01*
X95780982Y-113328435D01*
X95716502Y-113087793D01*
X95646316Y-112918349D01*
X95621169Y-112857638D01*
X95621162Y-112857623D01*
X95496599Y-112641873D01*
X95344939Y-112444225D01*
X95344933Y-112444218D01*
X95168781Y-112268066D01*
X95168774Y-112268060D01*
X94971126Y-112116400D01*
X94755376Y-111991837D01*
X94755361Y-111991830D01*
X94525207Y-111896498D01*
X94284561Y-111832017D01*
X94037575Y-111799501D01*
X94037570Y-111799500D01*
X94037565Y-111799500D01*
X93788435Y-111799500D01*
X93788429Y-111799500D01*
X93788424Y-111799501D01*
X93541438Y-111832017D01*
X93300792Y-111896498D01*
X93070638Y-111991830D01*
X93070623Y-111991837D01*
X92854873Y-112116400D01*
X92657225Y-112268060D01*
X92657218Y-112268066D01*
X92481066Y-112444218D01*
X92481060Y-112444225D01*
X92329400Y-112641873D01*
X92204837Y-112857623D01*
X92204830Y-112857638D01*
X92109498Y-113087792D01*
X92045017Y-113328438D01*
X92012501Y-113575424D01*
X92012500Y-113575441D01*
X92012500Y-113824558D01*
X92012501Y-113824575D01*
X92045017Y-114071561D01*
X92109498Y-114312207D01*
X92204830Y-114542361D01*
X92204837Y-114542376D01*
X92329400Y-114758126D01*
X92481060Y-114955774D01*
X92481066Y-114955781D01*
X92657218Y-115131933D01*
X92657225Y-115131939D01*
X92854873Y-115283599D01*
X93070623Y-115408162D01*
X93070638Y-115408169D01*
X93235952Y-115476644D01*
X93290356Y-115520485D01*
X93312421Y-115586779D01*
X93312500Y-115591205D01*
X93312500Y-119686903D01*
X93292815Y-119753942D01*
X93276181Y-119774584D01*
X82387584Y-130663181D01*
X82326261Y-130696666D01*
X82299903Y-130699500D01*
X64500098Y-130699500D01*
X64433059Y-130679815D01*
X64412417Y-130663181D01*
X63687590Y-129938355D01*
X63687588Y-129938352D01*
X63568717Y-129819481D01*
X63568716Y-129819480D01*
X63469839Y-129762394D01*
X63469838Y-129762393D01*
X63431783Y-129740422D01*
X63363967Y-129722251D01*
X63279057Y-129699499D01*
X63120943Y-129699499D01*
X63113347Y-129699499D01*
X63113331Y-129699500D01*
X62804205Y-129699500D01*
X62737166Y-129679815D01*
X62691411Y-129627011D01*
X62689644Y-129622952D01*
X62621169Y-129457638D01*
X62621162Y-129457623D01*
X62496599Y-129241873D01*
X62344939Y-129044225D01*
X62344933Y-129044218D01*
X62168781Y-128868066D01*
X62168774Y-128868060D01*
X61971126Y-128716400D01*
X61755376Y-128591837D01*
X61755361Y-128591830D01*
X61525207Y-128496498D01*
X61409458Y-128465483D01*
X61284565Y-128432018D01*
X61284564Y-128432017D01*
X61284561Y-128432017D01*
X61037575Y-128399501D01*
X61037570Y-128399500D01*
X61037565Y-128399500D01*
X60788435Y-128399500D01*
X60788429Y-128399500D01*
X60788424Y-128399501D01*
X60541438Y-128432017D01*
X60300792Y-128496498D01*
X60070638Y-128591830D01*
X60070623Y-128591837D01*
X59854873Y-128716400D01*
X59657225Y-128868060D01*
X59657218Y-128868066D01*
X59481066Y-129044218D01*
X59481060Y-129044225D01*
X59329400Y-129241873D01*
X59204837Y-129457623D01*
X59204830Y-129457638D01*
X59109498Y-129687792D01*
X59045017Y-129928438D01*
X59012501Y-130175424D01*
X59012500Y-130175435D01*
X59012500Y-130424565D01*
X59045018Y-130671565D01*
X59109498Y-130912207D01*
X59170058Y-131058412D01*
X59177978Y-131077531D01*
X59185447Y-131147001D01*
X59154172Y-131209480D01*
X59151098Y-131212665D01*
X58912181Y-131451583D01*
X58850858Y-131485068D01*
X58781167Y-131480084D01*
X58725233Y-131438213D01*
X58700816Y-131372748D01*
X58700500Y-131363902D01*
X58700500Y-127200096D01*
X58720185Y-127133057D01*
X58736814Y-127112420D01*
X67975797Y-117873436D01*
X68037118Y-117839953D01*
X68101794Y-117843188D01*
X68172049Y-117866015D01*
X68389778Y-117900500D01*
X68389779Y-117900500D01*
X68610221Y-117900500D01*
X68610222Y-117900500D01*
X68827951Y-117866015D01*
X69037606Y-117797895D01*
X69234022Y-117697815D01*
X69412365Y-117568242D01*
X69568242Y-117412365D01*
X69697815Y-117234022D01*
X69797895Y-117037606D01*
X69866015Y-116827951D01*
X69900500Y-116610222D01*
X69900500Y-116389778D01*
X69866015Y-116172049D01*
X69797895Y-115962394D01*
X69797895Y-115962393D01*
X69763237Y-115894375D01*
X69697815Y-115765978D01*
X69649681Y-115699727D01*
X69568247Y-115587641D01*
X69568243Y-115587636D01*
X69412363Y-115431756D01*
X69412358Y-115431752D01*
X69234025Y-115302187D01*
X69234024Y-115302186D01*
X69234022Y-115302185D01*
X69171096Y-115270122D01*
X69037606Y-115202104D01*
X69037603Y-115202103D01*
X68827952Y-115133985D01*
X68719086Y-115116742D01*
X68610222Y-115099500D01*
X68389778Y-115099500D01*
X68317201Y-115110995D01*
X68172047Y-115133985D01*
X67962396Y-115202103D01*
X67962393Y-115202104D01*
X67765974Y-115302187D01*
X67587641Y-115431752D01*
X67587636Y-115431756D01*
X67431756Y-115587636D01*
X67431752Y-115587641D01*
X67350318Y-115699727D01*
X67294989Y-115742393D01*
X67225375Y-115748372D01*
X67163580Y-115715767D01*
X67149682Y-115699727D01*
X67068247Y-115587641D01*
X67068243Y-115587636D01*
X66912363Y-115431756D01*
X66912358Y-115431752D01*
X66734025Y-115302187D01*
X66734024Y-115302186D01*
X66734022Y-115302185D01*
X66671096Y-115270122D01*
X66537606Y-115202104D01*
X66537603Y-115202103D01*
X66327952Y-115133985D01*
X66219086Y-115116742D01*
X66110222Y-115099500D01*
X65889778Y-115099500D01*
X65817201Y-115110995D01*
X65672047Y-115133985D01*
X65462396Y-115202103D01*
X65462393Y-115202104D01*
X65265974Y-115302187D01*
X65087641Y-115431752D01*
X65087635Y-115431757D01*
X65066207Y-115453185D01*
X65004884Y-115486669D01*
X64935192Y-115481683D01*
X64879259Y-115439810D01*
X64862346Y-115408834D01*
X64843355Y-115357915D01*
X64843350Y-115357906D01*
X64757190Y-115242812D01*
X64757187Y-115242809D01*
X64642093Y-115156649D01*
X64642086Y-115156645D01*
X64507379Y-115106403D01*
X64507372Y-115106401D01*
X64447844Y-115100000D01*
X63750000Y-115100000D01*
X63750000Y-116066988D01*
X63692993Y-116034075D01*
X63565826Y-116000000D01*
X63434174Y-116000000D01*
X63307007Y-116034075D01*
X63250000Y-116066988D01*
X63250000Y-115100000D01*
X62552155Y-115100000D01*
X62492627Y-115106401D01*
X62492620Y-115106403D01*
X62357913Y-115156645D01*
X62357906Y-115156649D01*
X62242812Y-115242809D01*
X62242809Y-115242812D01*
X62156649Y-115357906D01*
X62156645Y-115357913D01*
X62106403Y-115492620D01*
X62106401Y-115492627D01*
X62100000Y-115552155D01*
X62100000Y-116250000D01*
X63066988Y-116250000D01*
X63034075Y-116307007D01*
X63000000Y-116434174D01*
X63000000Y-116565826D01*
X63034075Y-116692993D01*
X63066988Y-116750000D01*
X62100000Y-116750000D01*
X62100000Y-117447844D01*
X62106401Y-117507372D01*
X62106403Y-117507379D01*
X62156645Y-117642086D01*
X62156649Y-117642093D01*
X62242809Y-117757187D01*
X62242812Y-117757190D01*
X62357906Y-117843350D01*
X62357913Y-117843354D01*
X62492620Y-117893596D01*
X62492627Y-117893598D01*
X62552155Y-117899999D01*
X62552172Y-117900000D01*
X63250000Y-117900000D01*
X63250000Y-116933012D01*
X63307007Y-116965925D01*
X63434174Y-117000000D01*
X63565826Y-117000000D01*
X63692993Y-116965925D01*
X63750000Y-116933012D01*
X63750000Y-117900000D01*
X64447828Y-117900000D01*
X64447844Y-117899999D01*
X64507372Y-117893598D01*
X64507379Y-117893596D01*
X64642086Y-117843354D01*
X64642093Y-117843350D01*
X64757187Y-117757190D01*
X64757190Y-117757187D01*
X64843350Y-117642093D01*
X64843353Y-117642088D01*
X64862345Y-117591166D01*
X64904215Y-117535232D01*
X64969679Y-117510813D01*
X65037952Y-117525663D01*
X65066209Y-117546816D01*
X65087636Y-117568243D01*
X65087641Y-117568247D01*
X65243192Y-117681260D01*
X65265978Y-117697815D01*
X65394375Y-117763237D01*
X65462393Y-117797895D01*
X65462396Y-117797896D01*
X65529525Y-117819707D01*
X65672049Y-117866015D01*
X65889778Y-117900500D01*
X65889779Y-117900500D01*
X65950902Y-117900500D01*
X66017941Y-117920185D01*
X66063696Y-117972989D01*
X66073640Y-118042147D01*
X66044615Y-118105703D01*
X66038583Y-118112181D01*
X57619481Y-126531282D01*
X57619479Y-126531285D01*
X57569361Y-126618094D01*
X57569359Y-126618096D01*
X57540425Y-126668209D01*
X57540424Y-126668210D01*
X57530244Y-126706202D01*
X57499499Y-126820943D01*
X57499499Y-126820945D01*
X57499499Y-126989046D01*
X57499500Y-126989059D01*
X57499500Y-128736873D01*
X57479815Y-128803912D01*
X57427011Y-128849667D01*
X57357853Y-128859611D01*
X57300014Y-128835249D01*
X57145126Y-128716400D01*
X56929376Y-128591837D01*
X56929361Y-128591830D01*
X56699207Y-128496498D01*
X56583458Y-128465483D01*
X56458565Y-128432018D01*
X56458564Y-128432017D01*
X56458561Y-128432017D01*
X56211575Y-128399501D01*
X56211570Y-128399500D01*
X56211565Y-128399500D01*
X55962435Y-128399500D01*
X55962429Y-128399500D01*
X55962424Y-128399501D01*
X55715438Y-128432017D01*
X55474792Y-128496498D01*
X55244638Y-128591830D01*
X55244623Y-128591837D01*
X55028873Y-128716400D01*
X54831225Y-128868060D01*
X54831218Y-128868066D01*
X54655066Y-129044218D01*
X54655060Y-129044225D01*
X54503400Y-129241873D01*
X54378837Y-129457623D01*
X54378830Y-129457638D01*
X54283498Y-129687792D01*
X54219017Y-129928438D01*
X54186501Y-130175424D01*
X54186500Y-130175441D01*
X51500500Y-130175441D01*
X51500500Y-120665295D01*
X51520185Y-120598256D01*
X51572989Y-120552501D01*
X51634230Y-120541677D01*
X51634728Y-120541716D01*
X52267037Y-119909408D01*
X52284075Y-119972993D01*
X52349901Y-120087007D01*
X52442993Y-120180099D01*
X52557007Y-120245925D01*
X52620590Y-120262962D01*
X51988282Y-120895269D01*
X51988282Y-120895270D01*
X52042449Y-120934624D01*
X52231782Y-121031095D01*
X52433870Y-121096757D01*
X52643754Y-121130000D01*
X52856246Y-121130000D01*
X53066127Y-121096757D01*
X53066130Y-121096757D01*
X53268217Y-121031095D01*
X53457554Y-120934622D01*
X53511716Y-120895270D01*
X53511717Y-120895270D01*
X52879408Y-120262962D01*
X52942993Y-120245925D01*
X53057007Y-120180099D01*
X53150099Y-120087007D01*
X53215925Y-119972993D01*
X53232962Y-119909408D01*
X53865270Y-120541717D01*
X53865270Y-120541716D01*
X53904622Y-120487554D01*
X54001095Y-120298217D01*
X54066757Y-120096130D01*
X54066757Y-120096127D01*
X54100000Y-119886246D01*
X54100000Y-119673753D01*
X54066757Y-119463872D01*
X54066757Y-119463869D01*
X54001095Y-119261782D01*
X53904624Y-119072449D01*
X53865270Y-119018282D01*
X53865269Y-119018282D01*
X53232962Y-119650590D01*
X53215925Y-119587007D01*
X53150099Y-119472993D01*
X53057007Y-119379901D01*
X52942993Y-119314075D01*
X52879409Y-119297037D01*
X53511716Y-118664728D01*
X53457550Y-118625375D01*
X53447954Y-118620486D01*
X53397157Y-118572512D01*
X53380361Y-118504692D01*
X53402897Y-118438556D01*
X53447954Y-118399514D01*
X53457554Y-118394622D01*
X53511716Y-118355270D01*
X53511717Y-118355270D01*
X52879408Y-117722962D01*
X52942993Y-117705925D01*
X53057007Y-117640099D01*
X53150099Y-117547007D01*
X53215925Y-117432993D01*
X53232962Y-117369408D01*
X53865270Y-118001717D01*
X53865270Y-118001716D01*
X53904622Y-117947554D01*
X54001095Y-117758217D01*
X54066757Y-117556130D01*
X54066757Y-117556127D01*
X54100000Y-117346246D01*
X54100000Y-117133753D01*
X54066757Y-116923872D01*
X54066757Y-116923869D01*
X54006026Y-116736956D01*
X54006025Y-116736954D01*
X54001096Y-116721785D01*
X53904624Y-116532449D01*
X53865270Y-116478282D01*
X53865269Y-116478282D01*
X53232962Y-117110590D01*
X53215925Y-117047007D01*
X53150099Y-116932993D01*
X53057007Y-116839901D01*
X52942993Y-116774075D01*
X52879409Y-116757037D01*
X53511716Y-116124728D01*
X53457547Y-116085373D01*
X53457547Y-116085372D01*
X53448500Y-116080763D01*
X53397706Y-116032788D01*
X53380912Y-115964966D01*
X53403451Y-115898832D01*
X53448508Y-115859793D01*
X53457816Y-115855051D01*
X53537007Y-115797515D01*
X53629786Y-115730109D01*
X53629788Y-115730106D01*
X53629792Y-115730104D01*
X53780104Y-115579792D01*
X53905051Y-115407816D01*
X54001557Y-115218412D01*
X54067246Y-115016243D01*
X54100500Y-114806287D01*
X54100500Y-114593713D01*
X54067246Y-114383757D01*
X54001557Y-114181588D01*
X53905051Y-113992184D01*
X53905049Y-113992181D01*
X53905048Y-113992179D01*
X53780109Y-113820213D01*
X53629786Y-113669890D01*
X53457820Y-113544951D01*
X53457115Y-113544591D01*
X53449054Y-113540485D01*
X53398259Y-113492512D01*
X53381463Y-113424692D01*
X53403999Y-113358556D01*
X53449054Y-113319515D01*
X53457816Y-113315051D01*
X53479789Y-113299086D01*
X53629786Y-113190109D01*
X53629788Y-113190106D01*
X53629792Y-113190104D01*
X53780104Y-113039792D01*
X53780106Y-113039788D01*
X53780109Y-113039786D01*
X53905048Y-112867820D01*
X53905047Y-112867820D01*
X53905051Y-112867816D01*
X54001557Y-112678412D01*
X54067246Y-112476243D01*
X54100500Y-112266287D01*
X54100500Y-112119098D01*
X54120185Y-112052059D01*
X54172989Y-112006304D01*
X54242147Y-111996360D01*
X54305703Y-112025385D01*
X54312181Y-112031417D01*
X56261284Y-113980520D01*
X56261286Y-113980521D01*
X56261290Y-113980524D01*
X56398209Y-114059573D01*
X56398216Y-114059577D01*
X56550943Y-114100501D01*
X56550945Y-114100501D01*
X56716654Y-114100501D01*
X56716670Y-114100500D01*
X70099903Y-114100500D01*
X70166942Y-114120185D01*
X70187584Y-114136819D01*
X79553181Y-123502416D01*
X79586666Y-123563739D01*
X79589500Y-123590097D01*
X79589500Y-127070397D01*
X79569815Y-127137436D01*
X79521800Y-127180879D01*
X79508389Y-127187712D01*
X79342786Y-127308028D01*
X79198028Y-127452786D01*
X79077715Y-127618386D01*
X78984781Y-127800776D01*
X78921522Y-127995465D01*
X78889500Y-128197648D01*
X78889500Y-128402352D01*
X78891451Y-128414667D01*
X78921522Y-128604534D01*
X78984781Y-128799223D01*
X79077715Y-128981613D01*
X79198028Y-129147213D01*
X79342786Y-129291971D01*
X79448580Y-129368833D01*
X79508390Y-129412287D01*
X79624607Y-129471503D01*
X79690776Y-129505218D01*
X79690778Y-129505218D01*
X79690781Y-129505220D01*
X79795137Y-129539127D01*
X79885465Y-129568477D01*
X79986557Y-129584488D01*
X80087648Y-129600500D01*
X80087649Y-129600500D01*
X80292351Y-129600500D01*
X80292352Y-129600500D01*
X80494534Y-129568477D01*
X80689219Y-129505220D01*
X80871610Y-129412287D01*
X80967238Y-129342810D01*
X81037213Y-129291971D01*
X81037215Y-129291968D01*
X81037219Y-129291966D01*
X81181966Y-129147219D01*
X81181968Y-129147215D01*
X81181971Y-129147213D01*
X81256795Y-129044225D01*
X81302287Y-128981610D01*
X81395220Y-128799219D01*
X81458477Y-128604534D01*
X81490500Y-128402352D01*
X81490500Y-128197648D01*
X81458477Y-127995466D01*
X81395220Y-127800781D01*
X81395218Y-127800778D01*
X81395218Y-127800776D01*
X81361503Y-127734607D01*
X81302287Y-127618390D01*
X81294556Y-127607749D01*
X81181971Y-127452786D01*
X81037213Y-127308028D01*
X80871610Y-127187712D01*
X80858200Y-127180879D01*
X80807406Y-127132903D01*
X80790500Y-127070397D01*
X80790500Y-123379060D01*
X80790501Y-123379047D01*
X80790501Y-123210944D01*
X80749576Y-123058214D01*
X80749573Y-123058209D01*
X80670524Y-122921290D01*
X80670518Y-122921282D01*
X70887590Y-113138355D01*
X70887588Y-113138352D01*
X70768717Y-113019481D01*
X70768716Y-113019480D01*
X70676047Y-112965978D01*
X70631785Y-112940423D01*
X70479057Y-112899499D01*
X70320943Y-112899499D01*
X70313347Y-112899499D01*
X70313331Y-112899500D01*
X56930098Y-112899500D01*
X56863059Y-112879815D01*
X56842417Y-112863181D01*
X54083757Y-110104522D01*
X54050272Y-110043199D01*
X54053507Y-109978523D01*
X54067246Y-109936243D01*
X54100500Y-109726287D01*
X54100500Y-109513713D01*
X54067246Y-109303757D01*
X54001557Y-109101588D01*
X53905051Y-108912184D01*
X53905049Y-108912181D01*
X53905048Y-108912179D01*
X53780109Y-108740213D01*
X53657944Y-108618048D01*
X59339500Y-108618048D01*
X59339500Y-109381951D01*
X59366013Y-109583333D01*
X59371334Y-109623744D01*
X59429912Y-109842361D01*
X59434456Y-109859320D01*
X59434459Y-109859330D01*
X59527786Y-110084640D01*
X59527791Y-110084651D01*
X59649727Y-110295848D01*
X59649738Y-110295864D01*
X59798199Y-110489343D01*
X59798205Y-110489350D01*
X59970649Y-110661794D01*
X59970656Y-110661800D01*
X60031079Y-110708164D01*
X60164144Y-110810268D01*
X60164151Y-110810272D01*
X60375348Y-110932208D01*
X60375353Y-110932210D01*
X60375356Y-110932212D01*
X60600679Y-111025544D01*
X60836256Y-111088666D01*
X61078056Y-111120500D01*
X61078063Y-111120500D01*
X61321937Y-111120500D01*
X61321944Y-111120500D01*
X61563744Y-111088666D01*
X61799321Y-111025544D01*
X62024644Y-110932212D01*
X62235856Y-110810268D01*
X62429345Y-110661799D01*
X62601799Y-110489345D01*
X62750268Y-110295856D01*
X62872212Y-110084644D01*
X62965544Y-109859321D01*
X63028666Y-109623744D01*
X63060500Y-109381944D01*
X63060500Y-108618056D01*
X63060499Y-108618048D01*
X68939500Y-108618048D01*
X68939500Y-109381951D01*
X68966013Y-109583333D01*
X68971334Y-109623744D01*
X69029912Y-109842361D01*
X69034456Y-109859320D01*
X69034459Y-109859330D01*
X69127786Y-110084640D01*
X69127791Y-110084651D01*
X69249727Y-110295848D01*
X69249738Y-110295864D01*
X69398199Y-110489343D01*
X69398205Y-110489350D01*
X69570649Y-110661794D01*
X69570656Y-110661800D01*
X69631079Y-110708164D01*
X69764144Y-110810268D01*
X69764151Y-110810272D01*
X69975348Y-110932208D01*
X69975353Y-110932210D01*
X69975356Y-110932212D01*
X70200679Y-111025544D01*
X70436256Y-111088666D01*
X70678056Y-111120500D01*
X70678063Y-111120500D01*
X70921937Y-111120500D01*
X70921944Y-111120500D01*
X71163744Y-111088666D01*
X71399321Y-111025544D01*
X71624644Y-110932212D01*
X71835856Y-110810268D01*
X72029345Y-110661799D01*
X72201799Y-110489345D01*
X72350268Y-110295856D01*
X72472212Y-110084644D01*
X72565544Y-109859321D01*
X72628666Y-109623744D01*
X72660500Y-109381944D01*
X72660500Y-108618056D01*
X72628666Y-108376256D01*
X72565544Y-108140679D01*
X72565539Y-108140669D01*
X72565538Y-108140663D01*
X72547164Y-108096303D01*
X72490617Y-107959789D01*
X72472212Y-107915356D01*
X72472209Y-107915351D01*
X72472208Y-107915348D01*
X72350272Y-107704151D01*
X72350268Y-107704144D01*
X72201799Y-107510655D01*
X72201794Y-107510649D01*
X72029350Y-107338205D01*
X72029343Y-107338199D01*
X71835864Y-107189738D01*
X71835862Y-107189736D01*
X71835856Y-107189732D01*
X71835851Y-107189729D01*
X71835848Y-107189727D01*
X71624651Y-107067791D01*
X71624640Y-107067786D01*
X71399330Y-106974459D01*
X71399323Y-106974457D01*
X71399321Y-106974456D01*
X71163744Y-106911334D01*
X71123333Y-106906013D01*
X70921951Y-106879500D01*
X70921944Y-106879500D01*
X70678056Y-106879500D01*
X70678048Y-106879500D01*
X70447896Y-106909801D01*
X70436256Y-106911334D01*
X70203452Y-106973713D01*
X70200679Y-106974456D01*
X70200669Y-106974459D01*
X69975359Y-107067786D01*
X69975348Y-107067791D01*
X69764151Y-107189727D01*
X69764135Y-107189738D01*
X69570656Y-107338199D01*
X69570649Y-107338205D01*
X69398205Y-107510649D01*
X69398199Y-107510656D01*
X69249738Y-107704135D01*
X69249727Y-107704151D01*
X69127791Y-107915348D01*
X69127786Y-107915359D01*
X69034459Y-108140669D01*
X69034456Y-108140679D01*
X68973428Y-108368443D01*
X68971335Y-108376253D01*
X68971333Y-108376264D01*
X68939500Y-108618048D01*
X63060499Y-108618048D01*
X63028666Y-108376256D01*
X62965544Y-108140679D01*
X62965537Y-108140663D01*
X62899948Y-107982317D01*
X62872212Y-107915356D01*
X62872210Y-107915353D01*
X62872208Y-107915348D01*
X62750272Y-107704151D01*
X62750268Y-107704144D01*
X62601799Y-107510655D01*
X62601794Y-107510649D01*
X62429350Y-107338205D01*
X62429343Y-107338199D01*
X62235864Y-107189738D01*
X62235862Y-107189736D01*
X62235856Y-107189732D01*
X62235851Y-107189729D01*
X62235848Y-107189727D01*
X62024651Y-107067791D01*
X62024640Y-107067786D01*
X61799330Y-106974459D01*
X61799323Y-106974457D01*
X61799321Y-106974456D01*
X61563744Y-106911334D01*
X61523333Y-106906013D01*
X61321951Y-106879500D01*
X61321944Y-106879500D01*
X61078056Y-106879500D01*
X61078048Y-106879500D01*
X60847896Y-106909801D01*
X60836256Y-106911334D01*
X60603452Y-106973713D01*
X60600679Y-106974456D01*
X60600669Y-106974459D01*
X60375359Y-107067786D01*
X60375348Y-107067791D01*
X60164151Y-107189727D01*
X60164135Y-107189738D01*
X59970656Y-107338199D01*
X59970649Y-107338205D01*
X59798205Y-107510649D01*
X59798199Y-107510656D01*
X59649738Y-107704135D01*
X59649727Y-107704151D01*
X59527791Y-107915348D01*
X59527786Y-107915359D01*
X59434459Y-108140669D01*
X59434456Y-108140679D01*
X59373428Y-108368443D01*
X59371335Y-108376253D01*
X59371333Y-108376264D01*
X59339500Y-108618048D01*
X53657944Y-108618048D01*
X53629786Y-108589890D01*
X53457820Y-108464951D01*
X53457115Y-108464591D01*
X53449054Y-108460485D01*
X53398259Y-108412512D01*
X53381463Y-108344692D01*
X53403999Y-108278556D01*
X53449054Y-108239515D01*
X53457816Y-108235051D01*
X53564382Y-108157627D01*
X53629786Y-108110109D01*
X53629788Y-108110106D01*
X53629792Y-108110104D01*
X53780104Y-107959792D01*
X53780106Y-107959788D01*
X53780109Y-107959786D01*
X53905048Y-107787820D01*
X53905047Y-107787820D01*
X53905051Y-107787816D01*
X54001557Y-107598412D01*
X54067246Y-107396243D01*
X54100500Y-107186287D01*
X54100500Y-106973713D01*
X54067246Y-106763757D01*
X54001557Y-106561588D01*
X53905051Y-106372184D01*
X53905049Y-106372181D01*
X53905048Y-106372179D01*
X53780109Y-106200213D01*
X53629786Y-106049890D01*
X53457820Y-105924951D01*
X53457115Y-105924591D01*
X53449054Y-105920485D01*
X53398259Y-105872512D01*
X53381463Y-105804692D01*
X53403999Y-105738556D01*
X53449054Y-105699515D01*
X53457816Y-105695051D01*
X53479789Y-105679086D01*
X53629786Y-105570109D01*
X53629788Y-105570106D01*
X53629792Y-105570104D01*
X53780104Y-105419792D01*
X53780106Y-105419788D01*
X53780109Y-105419786D01*
X53838661Y-105339193D01*
X53905051Y-105247816D01*
X53905349Y-105247230D01*
X53925235Y-105208205D01*
X53973209Y-105157409D01*
X54035719Y-105140500D01*
X55073331Y-105140500D01*
X55073347Y-105140501D01*
X55080943Y-105140501D01*
X55239054Y-105140501D01*
X55239057Y-105140501D01*
X55391785Y-105099577D01*
X55441904Y-105070639D01*
X55528716Y-105020520D01*
X55640520Y-104908716D01*
X55640520Y-104908714D01*
X55650728Y-104898507D01*
X55650729Y-104898504D01*
X58351586Y-102197648D01*
X60889500Y-102197648D01*
X60889500Y-102402351D01*
X60921522Y-102604534D01*
X60984781Y-102799223D01*
X61077715Y-102981613D01*
X61198028Y-103147213D01*
X61342786Y-103291971D01*
X61470762Y-103384949D01*
X61508390Y-103412287D01*
X61624607Y-103471503D01*
X61690776Y-103505218D01*
X61690778Y-103505218D01*
X61690781Y-103505220D01*
X61795137Y-103539127D01*
X61885465Y-103568477D01*
X61986557Y-103584488D01*
X62087648Y-103600500D01*
X62087649Y-103600500D01*
X62292351Y-103600500D01*
X62292352Y-103600500D01*
X62494534Y-103568477D01*
X62689219Y-103505220D01*
X62871610Y-103412287D01*
X63035309Y-103293354D01*
X63037213Y-103291971D01*
X63037215Y-103291968D01*
X63037219Y-103291966D01*
X63181966Y-103147219D01*
X63181968Y-103147215D01*
X63181971Y-103147213D01*
X63234732Y-103074590D01*
X63302287Y-102981610D01*
X63395220Y-102799219D01*
X63458477Y-102604534D01*
X63490500Y-102402352D01*
X63490500Y-102197648D01*
X68509500Y-102197648D01*
X68509500Y-102402351D01*
X68541522Y-102604534D01*
X68604781Y-102799223D01*
X68697715Y-102981613D01*
X68818028Y-103147213D01*
X68962786Y-103291971D01*
X69090762Y-103384949D01*
X69128390Y-103412287D01*
X69244607Y-103471503D01*
X69310776Y-103505218D01*
X69310778Y-103505218D01*
X69310781Y-103505220D01*
X69415137Y-103539127D01*
X69505465Y-103568477D01*
X69606557Y-103584488D01*
X69707648Y-103600500D01*
X69707649Y-103600500D01*
X69912351Y-103600500D01*
X69912352Y-103600500D01*
X70114534Y-103568477D01*
X70309219Y-103505220D01*
X70491610Y-103412287D01*
X70655309Y-103293354D01*
X70657213Y-103291971D01*
X70657215Y-103291968D01*
X70657219Y-103291966D01*
X70801966Y-103147219D01*
X70801968Y-103147215D01*
X70801971Y-103147213D01*
X70854732Y-103074590D01*
X70922287Y-102981610D01*
X71015220Y-102799219D01*
X71078477Y-102604534D01*
X71110500Y-102402352D01*
X71110500Y-102197648D01*
X71078477Y-101995466D01*
X71015220Y-101800781D01*
X71015218Y-101800778D01*
X71015218Y-101800776D01*
X70960299Y-101692993D01*
X70922287Y-101618390D01*
X70908854Y-101599901D01*
X70801971Y-101452786D01*
X70657213Y-101308028D01*
X70491613Y-101187715D01*
X70491612Y-101187714D01*
X70491610Y-101187713D01*
X70434653Y-101158691D01*
X70309223Y-101094781D01*
X70114534Y-101031522D01*
X69939995Y-101003878D01*
X69912352Y-100999500D01*
X69707648Y-100999500D01*
X69683329Y-101003351D01*
X69505465Y-101031522D01*
X69310776Y-101094781D01*
X69128386Y-101187715D01*
X68962786Y-101308028D01*
X68818028Y-101452786D01*
X68697715Y-101618386D01*
X68604781Y-101800776D01*
X68541522Y-101995465D01*
X68509500Y-102197648D01*
X63490500Y-102197648D01*
X63458477Y-101995466D01*
X63395220Y-101800781D01*
X63395218Y-101800778D01*
X63395218Y-101800776D01*
X63340299Y-101692993D01*
X63302287Y-101618390D01*
X63288854Y-101599901D01*
X63181971Y-101452786D01*
X63037213Y-101308028D01*
X62871613Y-101187715D01*
X62871612Y-101187714D01*
X62871610Y-101187713D01*
X62814653Y-101158691D01*
X62689223Y-101094781D01*
X62494534Y-101031522D01*
X62319995Y-101003878D01*
X62292352Y-100999500D01*
X62087648Y-100999500D01*
X62063329Y-101003351D01*
X61885465Y-101031522D01*
X61690776Y-101094781D01*
X61508386Y-101187715D01*
X61342786Y-101308028D01*
X61198028Y-101452786D01*
X61077715Y-101618386D01*
X60984781Y-101800776D01*
X60921522Y-101995465D01*
X60889500Y-102197648D01*
X58351586Y-102197648D01*
X61012416Y-99536819D01*
X61073739Y-99503334D01*
X61100097Y-99500500D01*
X73986903Y-99500500D01*
X74053942Y-99520185D01*
X74074584Y-99536819D01*
X81972335Y-107434571D01*
X82005820Y-107495894D01*
X82000836Y-107565586D01*
X81958964Y-107621519D01*
X81922972Y-107640183D01*
X81732396Y-107702103D01*
X81732393Y-107702104D01*
X81535974Y-107802187D01*
X81357641Y-107931752D01*
X81357636Y-107931756D01*
X81307075Y-107982317D01*
X81245752Y-108015801D01*
X81176060Y-108010816D01*
X81120127Y-107968945D01*
X81103213Y-107937968D01*
X81073354Y-107857913D01*
X81073350Y-107857906D01*
X80987190Y-107742812D01*
X80987187Y-107742809D01*
X80872093Y-107656649D01*
X80872086Y-107656645D01*
X80737379Y-107606403D01*
X80737372Y-107606401D01*
X80677844Y-107600000D01*
X79980000Y-107600000D01*
X79980000Y-108624722D01*
X79903694Y-108580667D01*
X79789244Y-108550000D01*
X79670756Y-108550000D01*
X79556306Y-108580667D01*
X79480000Y-108624722D01*
X79480000Y-107600000D01*
X78782155Y-107600000D01*
X78722627Y-107606401D01*
X78722620Y-107606403D01*
X78587913Y-107656645D01*
X78587906Y-107656649D01*
X78472812Y-107742809D01*
X78472809Y-107742812D01*
X78386649Y-107857906D01*
X78386645Y-107857913D01*
X78336403Y-107992620D01*
X78336401Y-107992627D01*
X78330000Y-108052155D01*
X78330000Y-108750000D01*
X79354722Y-108750000D01*
X79310667Y-108826306D01*
X79280000Y-108940756D01*
X79280000Y-109059244D01*
X79310667Y-109173694D01*
X79354722Y-109250000D01*
X78330000Y-109250000D01*
X78330000Y-109947844D01*
X78336401Y-110007372D01*
X78336403Y-110007379D01*
X78386645Y-110142086D01*
X78386649Y-110142093D01*
X78472809Y-110257187D01*
X78472812Y-110257190D01*
X78587906Y-110343350D01*
X78587913Y-110343354D01*
X78722620Y-110393596D01*
X78722627Y-110393598D01*
X78782155Y-110399999D01*
X78782172Y-110400000D01*
X79480000Y-110400000D01*
X79480000Y-109375277D01*
X79556306Y-109419333D01*
X79670756Y-109450000D01*
X79789244Y-109450000D01*
X79903694Y-109419333D01*
X79980000Y-109375277D01*
X79980000Y-110400000D01*
X80677828Y-110400000D01*
X80677844Y-110399999D01*
X80737372Y-110393598D01*
X80737379Y-110393596D01*
X80872086Y-110343354D01*
X80872093Y-110343350D01*
X80987187Y-110257190D01*
X80987190Y-110257187D01*
X81073350Y-110142093D01*
X81073354Y-110142086D01*
X81103213Y-110062031D01*
X81145084Y-110006097D01*
X81210548Y-109981680D01*
X81278821Y-109996531D01*
X81307076Y-110017683D01*
X81357636Y-110068243D01*
X81357641Y-110068247D01*
X81513192Y-110181260D01*
X81535978Y-110197815D01*
X81652501Y-110257187D01*
X81732393Y-110297895D01*
X81732396Y-110297896D01*
X81824483Y-110327816D01*
X81942049Y-110366015D01*
X82159778Y-110400500D01*
X82159779Y-110400500D01*
X82380221Y-110400500D01*
X82380222Y-110400500D01*
X82597951Y-110366015D01*
X82807606Y-110297895D01*
X83004022Y-110197815D01*
X83182365Y-110068242D01*
X83338242Y-109912365D01*
X83467815Y-109734022D01*
X83567895Y-109537606D01*
X83629817Y-109347026D01*
X83669252Y-109289352D01*
X83733611Y-109262153D01*
X83802457Y-109274067D01*
X83835428Y-109297664D01*
X87325098Y-112787334D01*
X87358583Y-112848657D01*
X87353599Y-112918349D01*
X87351978Y-112922467D01*
X87283498Y-113087792D01*
X87219017Y-113328438D01*
X87186501Y-113575424D01*
X87186500Y-113575441D01*
X87186500Y-113824558D01*
X87186501Y-113824575D01*
X87219017Y-114071561D01*
X87283498Y-114312207D01*
X87378830Y-114542361D01*
X87378837Y-114542376D01*
X87503400Y-114758126D01*
X87655060Y-114955774D01*
X87655066Y-114955781D01*
X87831218Y-115131933D01*
X87831225Y-115131939D01*
X88028873Y-115283599D01*
X88244623Y-115408162D01*
X88244638Y-115408169D01*
X88321027Y-115439810D01*
X88474793Y-115503502D01*
X88715435Y-115567982D01*
X88962435Y-115600500D01*
X88962442Y-115600500D01*
X89211558Y-115600500D01*
X89211565Y-115600500D01*
X89458565Y-115567982D01*
X89699207Y-115503502D01*
X89922781Y-115410894D01*
X89929361Y-115408169D01*
X89929361Y-115408168D01*
X89929373Y-115408164D01*
X90145127Y-115283599D01*
X90342776Y-115131938D01*
X90518938Y-114955776D01*
X90670599Y-114758127D01*
X90795164Y-114542373D01*
X90890502Y-114312207D01*
X90954982Y-114071565D01*
X90987500Y-113824565D01*
X90987500Y-113575435D01*
X90954982Y-113328435D01*
X90890502Y-113087793D01*
X90820316Y-112918349D01*
X90795169Y-112857638D01*
X90795162Y-112857623D01*
X90670599Y-112641873D01*
X90518939Y-112444225D01*
X90518933Y-112444218D01*
X90342781Y-112268066D01*
X90342774Y-112268060D01*
X90145126Y-112116400D01*
X89929376Y-111991837D01*
X89929361Y-111991830D01*
X89699207Y-111896498D01*
X89458561Y-111832017D01*
X89211575Y-111799501D01*
X89211570Y-111799500D01*
X89211565Y-111799500D01*
X88962435Y-111799500D01*
X88962429Y-111799500D01*
X88962424Y-111799501D01*
X88715438Y-111832017D01*
X88474792Y-111896498D01*
X88309467Y-111964978D01*
X88239998Y-111972447D01*
X88177519Y-111941172D01*
X88174334Y-111938098D01*
X85111677Y-108875441D01*
X87186500Y-108875441D01*
X87186500Y-109124558D01*
X87186501Y-109124575D01*
X87219017Y-109371561D01*
X87283498Y-109612207D01*
X87378830Y-109842361D01*
X87378837Y-109842376D01*
X87503400Y-110058126D01*
X87655060Y-110255774D01*
X87655066Y-110255781D01*
X87831218Y-110431933D01*
X87831225Y-110431939D01*
X88028873Y-110583599D01*
X88244623Y-110708162D01*
X88244638Y-110708169D01*
X88343825Y-110749253D01*
X88474793Y-110803502D01*
X88715435Y-110867982D01*
X88962435Y-110900500D01*
X88962442Y-110900500D01*
X89211558Y-110900500D01*
X89211565Y-110900500D01*
X89458565Y-110867982D01*
X89699207Y-110803502D01*
X89929373Y-110708164D01*
X90145127Y-110583599D01*
X90342776Y-110431938D01*
X90518938Y-110255776D01*
X90670599Y-110058127D01*
X90795164Y-109842373D01*
X90890502Y-109612207D01*
X90954982Y-109371565D01*
X90987500Y-109124565D01*
X90987500Y-108875441D01*
X92012500Y-108875441D01*
X92012500Y-109124558D01*
X92012501Y-109124575D01*
X92045017Y-109371561D01*
X92109498Y-109612207D01*
X92204830Y-109842361D01*
X92204837Y-109842376D01*
X92329400Y-110058126D01*
X92481060Y-110255774D01*
X92481066Y-110255781D01*
X92657218Y-110431933D01*
X92657225Y-110431939D01*
X92854873Y-110583599D01*
X93070623Y-110708162D01*
X93070638Y-110708169D01*
X93169825Y-110749253D01*
X93300793Y-110803502D01*
X93541435Y-110867982D01*
X93788435Y-110900500D01*
X93788442Y-110900500D01*
X94037558Y-110900500D01*
X94037565Y-110900500D01*
X94284565Y-110867982D01*
X94525207Y-110803502D01*
X94755373Y-110708164D01*
X94971127Y-110583599D01*
X95168776Y-110431938D01*
X95344938Y-110255776D01*
X95496599Y-110058127D01*
X95621164Y-109842373D01*
X95716502Y-109612207D01*
X95780982Y-109371565D01*
X95813500Y-109124565D01*
X95813500Y-108875435D01*
X95780982Y-108628435D01*
X95716502Y-108387793D01*
X95621164Y-108157627D01*
X95611373Y-108140669D01*
X95496599Y-107941873D01*
X95344939Y-107744225D01*
X95344933Y-107744218D01*
X95168781Y-107568066D01*
X95168774Y-107568060D01*
X94971126Y-107416400D01*
X94755376Y-107291837D01*
X94755361Y-107291830D01*
X94525207Y-107196498D01*
X94284561Y-107132017D01*
X94037575Y-107099501D01*
X94037570Y-107099500D01*
X94037565Y-107099500D01*
X93788435Y-107099500D01*
X93788429Y-107099500D01*
X93788424Y-107099501D01*
X93541438Y-107132017D01*
X93300792Y-107196498D01*
X93070638Y-107291830D01*
X93070623Y-107291837D01*
X92854873Y-107416400D01*
X92657225Y-107568060D01*
X92657218Y-107568066D01*
X92481066Y-107744218D01*
X92481060Y-107744225D01*
X92329400Y-107941873D01*
X92204837Y-108157623D01*
X92204830Y-108157638D01*
X92109498Y-108387792D01*
X92045017Y-108628438D01*
X92012501Y-108875424D01*
X92012500Y-108875441D01*
X90987500Y-108875441D01*
X90987500Y-108875435D01*
X90954982Y-108628435D01*
X90890502Y-108387793D01*
X90795164Y-108157627D01*
X90785373Y-108140669D01*
X90670599Y-107941873D01*
X90518939Y-107744225D01*
X90518933Y-107744218D01*
X90342781Y-107568066D01*
X90342774Y-107568060D01*
X90145126Y-107416400D01*
X89929376Y-107291837D01*
X89929361Y-107291830D01*
X89699207Y-107196498D01*
X89458561Y-107132017D01*
X89211575Y-107099501D01*
X89211570Y-107099500D01*
X89211565Y-107099500D01*
X88962435Y-107099500D01*
X88962429Y-107099500D01*
X88962424Y-107099501D01*
X88715438Y-107132017D01*
X88474792Y-107196498D01*
X88244638Y-107291830D01*
X88244623Y-107291837D01*
X88028873Y-107416400D01*
X87831225Y-107568060D01*
X87831218Y-107568066D01*
X87655066Y-107744218D01*
X87655060Y-107744225D01*
X87503400Y-107941873D01*
X87378837Y-108157623D01*
X87378830Y-108157638D01*
X87283498Y-108387792D01*
X87219017Y-108628438D01*
X87186501Y-108875424D01*
X87186500Y-108875441D01*
X85111677Y-108875441D01*
X80411702Y-104175466D01*
X87187000Y-104175466D01*
X87187000Y-104424533D01*
X87219508Y-104671463D01*
X87283973Y-104912049D01*
X87379283Y-105142148D01*
X87379288Y-105142159D01*
X87503813Y-105357841D01*
X87503819Y-105357849D01*
X87578400Y-105455045D01*
X88296521Y-104736923D01*
X88387924Y-104873717D01*
X88513283Y-104999076D01*
X88650074Y-105090477D01*
X87931953Y-105808598D01*
X88029150Y-105883180D01*
X88029158Y-105883186D01*
X88244840Y-106007711D01*
X88244851Y-106007716D01*
X88474950Y-106103026D01*
X88715536Y-106167491D01*
X88962466Y-106200000D01*
X89211534Y-106200000D01*
X89458463Y-106167491D01*
X89699049Y-106103026D01*
X89929148Y-106007716D01*
X89929159Y-106007711D01*
X90144855Y-105883178D01*
X90242045Y-105808600D01*
X90242045Y-105808597D01*
X89523924Y-105090477D01*
X89660717Y-104999076D01*
X89786076Y-104873717D01*
X89877477Y-104736924D01*
X90595597Y-105455045D01*
X90595600Y-105455045D01*
X90670178Y-105357855D01*
X90794711Y-105142159D01*
X90794716Y-105142148D01*
X90890026Y-104912049D01*
X90954491Y-104671463D01*
X90987000Y-104424533D01*
X90987000Y-104175466D01*
X92013000Y-104175466D01*
X92013000Y-104424533D01*
X92045508Y-104671463D01*
X92109973Y-104912049D01*
X92205283Y-105142148D01*
X92205288Y-105142159D01*
X92329813Y-105357841D01*
X92329819Y-105357849D01*
X92404400Y-105455045D01*
X93122521Y-104736923D01*
X93213924Y-104873717D01*
X93339283Y-104999076D01*
X93476074Y-105090477D01*
X92757953Y-105808598D01*
X92855150Y-105883180D01*
X92855158Y-105883186D01*
X93070840Y-106007711D01*
X93070851Y-106007716D01*
X93300950Y-106103026D01*
X93541536Y-106167491D01*
X93788466Y-106200000D01*
X94037534Y-106200000D01*
X94284463Y-106167491D01*
X94525049Y-106103026D01*
X94755148Y-106007716D01*
X94755159Y-106007711D01*
X94970855Y-105883178D01*
X95068045Y-105808600D01*
X95068045Y-105808597D01*
X94349924Y-105090477D01*
X94486717Y-104999076D01*
X94612076Y-104873717D01*
X94703477Y-104736925D01*
X95421597Y-105455045D01*
X95421600Y-105455045D01*
X95496178Y-105357855D01*
X95620711Y-105142159D01*
X95620716Y-105142148D01*
X95716026Y-104912049D01*
X95780491Y-104671463D01*
X95813000Y-104424533D01*
X95813000Y-104175466D01*
X95780491Y-103928536D01*
X95716026Y-103687950D01*
X95620716Y-103457851D01*
X95620711Y-103457840D01*
X95496186Y-103242158D01*
X95496180Y-103242150D01*
X95421598Y-103144953D01*
X94703477Y-103863074D01*
X94612076Y-103726283D01*
X94486717Y-103600924D01*
X94349923Y-103509521D01*
X95068045Y-102791400D01*
X94970849Y-102716819D01*
X94970841Y-102716813D01*
X94755159Y-102592288D01*
X94755148Y-102592283D01*
X94525049Y-102496973D01*
X94284463Y-102432508D01*
X94037534Y-102400000D01*
X93788466Y-102400000D01*
X93541536Y-102432508D01*
X93300950Y-102496973D01*
X93070851Y-102592283D01*
X93070847Y-102592285D01*
X92855143Y-102716823D01*
X92757953Y-102791399D01*
X92757953Y-102791400D01*
X93476075Y-103509522D01*
X93339283Y-103600924D01*
X93213924Y-103726283D01*
X93122522Y-103863075D01*
X92404400Y-103144953D01*
X92404399Y-103144953D01*
X92329823Y-103242143D01*
X92205285Y-103457847D01*
X92205283Y-103457851D01*
X92109973Y-103687950D01*
X92045508Y-103928536D01*
X92013000Y-104175466D01*
X90987000Y-104175466D01*
X90954491Y-103928536D01*
X90890026Y-103687950D01*
X90794716Y-103457851D01*
X90794711Y-103457840D01*
X90670186Y-103242158D01*
X90670180Y-103242150D01*
X90595598Y-103144953D01*
X89877477Y-103863074D01*
X89786076Y-103726283D01*
X89660717Y-103600924D01*
X89523923Y-103509521D01*
X90242045Y-102791400D01*
X90144849Y-102716819D01*
X90144841Y-102716813D01*
X89929159Y-102592288D01*
X89929148Y-102592283D01*
X89699049Y-102496973D01*
X89458463Y-102432508D01*
X89211534Y-102400000D01*
X88962466Y-102400000D01*
X88715536Y-102432508D01*
X88474950Y-102496973D01*
X88244851Y-102592283D01*
X88244847Y-102592285D01*
X88029143Y-102716823D01*
X87931953Y-102791399D01*
X87931953Y-102791400D01*
X88650075Y-103509522D01*
X88513283Y-103600924D01*
X88387924Y-103726283D01*
X88296522Y-103863075D01*
X87578400Y-103144953D01*
X87578399Y-103144953D01*
X87503823Y-103242143D01*
X87379285Y-103457847D01*
X87379283Y-103457851D01*
X87283973Y-103687950D01*
X87219508Y-103928536D01*
X87187000Y-104175466D01*
X80411702Y-104175466D01*
X79163270Y-102927034D01*
X74774590Y-98538355D01*
X74774588Y-98538352D01*
X74655717Y-98419481D01*
X74655716Y-98419480D01*
X74568904Y-98369360D01*
X74568904Y-98369359D01*
X74568900Y-98369358D01*
X74518785Y-98340423D01*
X74366057Y-98299499D01*
X74207943Y-98299499D01*
X74200347Y-98299499D01*
X74200331Y-98299500D01*
X60720940Y-98299500D01*
X60680019Y-98310464D01*
X60680019Y-98310465D01*
X60642751Y-98320451D01*
X60568214Y-98340423D01*
X60568209Y-98340426D01*
X60431290Y-98419475D01*
X60431282Y-98419481D01*
X60319478Y-98531286D01*
X54947584Y-103903181D01*
X54886261Y-103936666D01*
X54859903Y-103939500D01*
X54035719Y-103939500D01*
X53968680Y-103919815D01*
X53925235Y-103871795D01*
X53905052Y-103832185D01*
X53905051Y-103832184D01*
X53780109Y-103660213D01*
X53666181Y-103546285D01*
X53632696Y-103484962D01*
X53637680Y-103415270D01*
X53679552Y-103359337D01*
X53710529Y-103342422D01*
X53842086Y-103293354D01*
X53842093Y-103293350D01*
X53957187Y-103207190D01*
X53957190Y-103207187D01*
X54043350Y-103092093D01*
X54043354Y-103092086D01*
X54093596Y-102957379D01*
X54093598Y-102957372D01*
X54099999Y-102897844D01*
X54100000Y-102897827D01*
X54100000Y-102250000D01*
X53183012Y-102250000D01*
X53215925Y-102192993D01*
X53250000Y-102065826D01*
X53250000Y-101934174D01*
X53215925Y-101807007D01*
X53183012Y-101750000D01*
X54100000Y-101750000D01*
X54100000Y-101102172D01*
X54099999Y-101102155D01*
X54093598Y-101042627D01*
X54093596Y-101042620D01*
X54043354Y-100907913D01*
X54043350Y-100907906D01*
X53957190Y-100792812D01*
X53957187Y-100792809D01*
X53842093Y-100706649D01*
X53842086Y-100706645D01*
X53707379Y-100656403D01*
X53707372Y-100656401D01*
X53647844Y-100650000D01*
X53000000Y-100650000D01*
X53000000Y-101566988D01*
X52942993Y-101534075D01*
X52815826Y-101500000D01*
X52684174Y-101500000D01*
X52557007Y-101534075D01*
X52500000Y-101566988D01*
X52500000Y-100650000D01*
X51852155Y-100650000D01*
X51792627Y-100656401D01*
X51792617Y-100656403D01*
X51667832Y-100702945D01*
X51598141Y-100707929D01*
X51536818Y-100674443D01*
X51503334Y-100613120D01*
X51500500Y-100586763D01*
X51500500Y-78175441D01*
X54186500Y-78175441D01*
X54186500Y-78424558D01*
X54186501Y-78424575D01*
X54219017Y-78671561D01*
X54283498Y-78912207D01*
X54378830Y-79142361D01*
X54378837Y-79142376D01*
X54503400Y-79358126D01*
X54655060Y-79555774D01*
X54655066Y-79555781D01*
X54831218Y-79731933D01*
X54831225Y-79731939D01*
X55028873Y-79883599D01*
X55244623Y-80008162D01*
X55244638Y-80008169D01*
X55305552Y-80033400D01*
X55474793Y-80103502D01*
X55715435Y-80167982D01*
X55962435Y-80200500D01*
X55962442Y-80200500D01*
X56211558Y-80200500D01*
X56211565Y-80200500D01*
X56458565Y-80167982D01*
X56699207Y-80103502D01*
X56929373Y-80008164D01*
X57145127Y-79883599D01*
X57300015Y-79764748D01*
X57365183Y-79739556D01*
X57433627Y-79753594D01*
X57483617Y-79802408D01*
X57499500Y-79863126D01*
X57499500Y-80686902D01*
X57479815Y-80753941D01*
X57463181Y-80774583D01*
X56999665Y-81238098D01*
X56938342Y-81271583D01*
X56868650Y-81266599D01*
X56864553Y-81264986D01*
X56699207Y-81196498D01*
X56699205Y-81196497D01*
X56699204Y-81196497D01*
X56458561Y-81132017D01*
X56211575Y-81099501D01*
X56211570Y-81099500D01*
X56211565Y-81099500D01*
X55962435Y-81099500D01*
X55962429Y-81099500D01*
X55962424Y-81099501D01*
X55715438Y-81132017D01*
X55474792Y-81196498D01*
X55244638Y-81291830D01*
X55244623Y-81291837D01*
X55028873Y-81416400D01*
X54831225Y-81568060D01*
X54831218Y-81568066D01*
X54655066Y-81744218D01*
X54655060Y-81744225D01*
X54503400Y-81941873D01*
X54378837Y-82157623D01*
X54378830Y-82157638D01*
X54283498Y-82387792D01*
X54219017Y-82628438D01*
X54186501Y-82875424D01*
X54186500Y-82875441D01*
X54186500Y-83124558D01*
X54186501Y-83124575D01*
X54219017Y-83371561D01*
X54283498Y-83612207D01*
X54378830Y-83842361D01*
X54378837Y-83842376D01*
X54503400Y-84058126D01*
X54655060Y-84255774D01*
X54655066Y-84255781D01*
X54831218Y-84431933D01*
X54831225Y-84431939D01*
X55028873Y-84583599D01*
X55244623Y-84708162D01*
X55244638Y-84708169D01*
X55317297Y-84738265D01*
X55474793Y-84803502D01*
X55715435Y-84867982D01*
X55962435Y-84900500D01*
X55962442Y-84900500D01*
X56211558Y-84900500D01*
X56211565Y-84900500D01*
X56458565Y-84867982D01*
X56699207Y-84803502D01*
X56929373Y-84708164D01*
X57145127Y-84583599D01*
X57342776Y-84431938D01*
X57518938Y-84255776D01*
X57670599Y-84058127D01*
X57795164Y-83842373D01*
X57890502Y-83612207D01*
X57954982Y-83371565D01*
X57954982Y-83371560D01*
X57955725Y-83368790D01*
X57992090Y-83309129D01*
X58054937Y-83278600D01*
X58124313Y-83286895D01*
X58178190Y-83331380D01*
X58199465Y-83397932D01*
X58199500Y-83400883D01*
X58199500Y-84686902D01*
X58179815Y-84753941D01*
X58163181Y-84774583D01*
X56999665Y-85938098D01*
X56938342Y-85971583D01*
X56868650Y-85966599D01*
X56864553Y-85964986D01*
X56699207Y-85896498D01*
X56699205Y-85896497D01*
X56699204Y-85896497D01*
X56458561Y-85832017D01*
X56211575Y-85799501D01*
X56211570Y-85799500D01*
X56211565Y-85799500D01*
X55962435Y-85799500D01*
X55962429Y-85799500D01*
X55962424Y-85799501D01*
X55715438Y-85832017D01*
X55474792Y-85896498D01*
X55244638Y-85991830D01*
X55244623Y-85991837D01*
X55028873Y-86116400D01*
X54831225Y-86268060D01*
X54831218Y-86268066D01*
X54655066Y-86444218D01*
X54655060Y-86444225D01*
X54503400Y-86641873D01*
X54378837Y-86857623D01*
X54378830Y-86857638D01*
X54298890Y-87050633D01*
X54283498Y-87087793D01*
X54219018Y-87328435D01*
X54214918Y-87359575D01*
X54186501Y-87575424D01*
X54186500Y-87575441D01*
X54186500Y-87824558D01*
X54186501Y-87824575D01*
X54219017Y-88071561D01*
X54283498Y-88312207D01*
X54378830Y-88542361D01*
X54378837Y-88542376D01*
X54503400Y-88758126D01*
X54655060Y-88955774D01*
X54655066Y-88955781D01*
X54831218Y-89131933D01*
X54831225Y-89131939D01*
X55028873Y-89283599D01*
X55244623Y-89408162D01*
X55244638Y-89408169D01*
X55321027Y-89439810D01*
X55474793Y-89503502D01*
X55715435Y-89567982D01*
X55962435Y-89600500D01*
X55962442Y-89600500D01*
X56211558Y-89600500D01*
X56211565Y-89600500D01*
X56458565Y-89567982D01*
X56699207Y-89503502D01*
X56922781Y-89410894D01*
X56929361Y-89408169D01*
X56929361Y-89408168D01*
X56929373Y-89408164D01*
X57145127Y-89283599D01*
X57342776Y-89131938D01*
X57518938Y-88955776D01*
X57670599Y-88758127D01*
X57795164Y-88542373D01*
X57890502Y-88312207D01*
X57954982Y-88071565D01*
X57987500Y-87824565D01*
X57987500Y-87575441D01*
X59012500Y-87575441D01*
X59012500Y-87824558D01*
X59012501Y-87824575D01*
X59045017Y-88071561D01*
X59109498Y-88312207D01*
X59204830Y-88542361D01*
X59204837Y-88542376D01*
X59329400Y-88758126D01*
X59481060Y-88955774D01*
X59481066Y-88955781D01*
X59657218Y-89131933D01*
X59657225Y-89131939D01*
X59854873Y-89283599D01*
X60070623Y-89408162D01*
X60070638Y-89408169D01*
X60147027Y-89439810D01*
X60300793Y-89503502D01*
X60541435Y-89567982D01*
X60788435Y-89600500D01*
X60788442Y-89600500D01*
X61037558Y-89600500D01*
X61037565Y-89600500D01*
X61284565Y-89567982D01*
X61343632Y-89552155D01*
X80100000Y-89552155D01*
X80100000Y-90250000D01*
X81066988Y-90250000D01*
X81034075Y-90307007D01*
X81000000Y-90434174D01*
X81000000Y-90565826D01*
X81034075Y-90692993D01*
X81066988Y-90750000D01*
X80100000Y-90750000D01*
X80100000Y-91447844D01*
X80106401Y-91507372D01*
X80106403Y-91507379D01*
X80156645Y-91642086D01*
X80156649Y-91642093D01*
X80242809Y-91757187D01*
X80242812Y-91757190D01*
X80357906Y-91843350D01*
X80357913Y-91843354D01*
X80492620Y-91893596D01*
X80492627Y-91893598D01*
X80552155Y-91899999D01*
X80552172Y-91900000D01*
X81250000Y-91900000D01*
X81250000Y-90933012D01*
X81307007Y-90965925D01*
X81434174Y-91000000D01*
X81565826Y-91000000D01*
X81692993Y-90965925D01*
X81750000Y-90933012D01*
X81750000Y-91900000D01*
X82447828Y-91900000D01*
X82447844Y-91899999D01*
X82507372Y-91893598D01*
X82507379Y-91893596D01*
X82642086Y-91843354D01*
X82642093Y-91843350D01*
X82757187Y-91757190D01*
X82757190Y-91757187D01*
X82843350Y-91642093D01*
X82843353Y-91642088D01*
X82862345Y-91591166D01*
X82904215Y-91535232D01*
X82969679Y-91510813D01*
X83037952Y-91525663D01*
X83066209Y-91546816D01*
X83087636Y-91568243D01*
X83087641Y-91568247D01*
X83243192Y-91681260D01*
X83265978Y-91697815D01*
X83382501Y-91757187D01*
X83462393Y-91797895D01*
X83462396Y-91797896D01*
X83567221Y-91831955D01*
X83672049Y-91866015D01*
X83889778Y-91900500D01*
X83889779Y-91900500D01*
X84110221Y-91900500D01*
X84110222Y-91900500D01*
X84327951Y-91866015D01*
X84537606Y-91797895D01*
X84734022Y-91697815D01*
X84912365Y-91568242D01*
X85068242Y-91412365D01*
X85149682Y-91300270D01*
X85205011Y-91257606D01*
X85274624Y-91251627D01*
X85336420Y-91284232D01*
X85350313Y-91300265D01*
X85383750Y-91346287D01*
X85431758Y-91412365D01*
X85587636Y-91568243D01*
X85587641Y-91568247D01*
X85743192Y-91681260D01*
X85765978Y-91697815D01*
X85882501Y-91757187D01*
X85962393Y-91797895D01*
X85962396Y-91797896D01*
X86067221Y-91831955D01*
X86172049Y-91866015D01*
X86389778Y-91900500D01*
X86389779Y-91900500D01*
X86610221Y-91900500D01*
X86610222Y-91900500D01*
X86827951Y-91866015D01*
X87037606Y-91797895D01*
X87234022Y-91697815D01*
X87412365Y-91568242D01*
X87568242Y-91412365D01*
X87697815Y-91234022D01*
X87797895Y-91037606D01*
X87866015Y-90827951D01*
X87900500Y-90610222D01*
X87900500Y-90389778D01*
X87866015Y-90172049D01*
X87831955Y-90067221D01*
X87797896Y-89962396D01*
X87797895Y-89962393D01*
X87763237Y-89894375D01*
X87697815Y-89765978D01*
X87649681Y-89699727D01*
X87568247Y-89587641D01*
X87568243Y-89587636D01*
X87412363Y-89431756D01*
X87412358Y-89431752D01*
X87234025Y-89302187D01*
X87234024Y-89302186D01*
X87234022Y-89302185D01*
X87171096Y-89270122D01*
X87037606Y-89202104D01*
X87037603Y-89202103D01*
X86827952Y-89133985D01*
X86719086Y-89116742D01*
X86610222Y-89099500D01*
X86389778Y-89099500D01*
X86317201Y-89110995D01*
X86172047Y-89133985D01*
X85962396Y-89202103D01*
X85962393Y-89202104D01*
X85765974Y-89302187D01*
X85587641Y-89431752D01*
X85587636Y-89431756D01*
X85431756Y-89587636D01*
X85431752Y-89587641D01*
X85350318Y-89699727D01*
X85294989Y-89742393D01*
X85225375Y-89748372D01*
X85163580Y-89715767D01*
X85149682Y-89699727D01*
X85068247Y-89587641D01*
X85068243Y-89587636D01*
X84912363Y-89431756D01*
X84912358Y-89431752D01*
X84734025Y-89302187D01*
X84734024Y-89302186D01*
X84734022Y-89302185D01*
X84671096Y-89270122D01*
X84537606Y-89202104D01*
X84537603Y-89202103D01*
X84327952Y-89133985D01*
X84219086Y-89116742D01*
X84110222Y-89099500D01*
X83889778Y-89099500D01*
X83817201Y-89110995D01*
X83672047Y-89133985D01*
X83462396Y-89202103D01*
X83462393Y-89202104D01*
X83265974Y-89302187D01*
X83087641Y-89431752D01*
X83087635Y-89431757D01*
X83066207Y-89453185D01*
X83004884Y-89486669D01*
X82935192Y-89481683D01*
X82879259Y-89439810D01*
X82862346Y-89408834D01*
X82843355Y-89357915D01*
X82843350Y-89357906D01*
X82757190Y-89242812D01*
X82757187Y-89242809D01*
X82642093Y-89156649D01*
X82642086Y-89156645D01*
X82507379Y-89106403D01*
X82507372Y-89106401D01*
X82447844Y-89100000D01*
X81750000Y-89100000D01*
X81750000Y-90066988D01*
X81692993Y-90034075D01*
X81565826Y-90000000D01*
X81434174Y-90000000D01*
X81307007Y-90034075D01*
X81250000Y-90066988D01*
X81250000Y-89100000D01*
X80552155Y-89100000D01*
X80492627Y-89106401D01*
X80492620Y-89106403D01*
X80357913Y-89156645D01*
X80357906Y-89156649D01*
X80242812Y-89242809D01*
X80242809Y-89242812D01*
X80156649Y-89357906D01*
X80156645Y-89357913D01*
X80106403Y-89492620D01*
X80106401Y-89492627D01*
X80100000Y-89552155D01*
X61343632Y-89552155D01*
X61525207Y-89503502D01*
X61678973Y-89439810D01*
X61692300Y-89434290D01*
X61755361Y-89408169D01*
X61755361Y-89408168D01*
X61755373Y-89408164D01*
X61971127Y-89283599D01*
X62168776Y-89131938D01*
X62344938Y-88955776D01*
X62496599Y-88758127D01*
X62621164Y-88542373D01*
X62716502Y-88312207D01*
X62780982Y-88071565D01*
X62813500Y-87824565D01*
X62813500Y-87575435D01*
X62780982Y-87328435D01*
X62716502Y-87087793D01*
X62625386Y-86867820D01*
X62621169Y-86857638D01*
X62621162Y-86857623D01*
X62496599Y-86641873D01*
X62344939Y-86444225D01*
X62344933Y-86444218D01*
X62168781Y-86268066D01*
X62168774Y-86268060D01*
X61971126Y-86116400D01*
X61755376Y-85991837D01*
X61755361Y-85991830D01*
X61525207Y-85896498D01*
X61284561Y-85832017D01*
X61037575Y-85799501D01*
X61037570Y-85799500D01*
X61037565Y-85799500D01*
X60788435Y-85799500D01*
X60788429Y-85799500D01*
X60788424Y-85799501D01*
X60541438Y-85832017D01*
X60300792Y-85896498D01*
X60070638Y-85991830D01*
X60070623Y-85991837D01*
X59854873Y-86116400D01*
X59657225Y-86268060D01*
X59657218Y-86268066D01*
X59481066Y-86444218D01*
X59481060Y-86444225D01*
X59329400Y-86641873D01*
X59204837Y-86857623D01*
X59204830Y-86857638D01*
X59124890Y-87050633D01*
X59109498Y-87087793D01*
X59045018Y-87328435D01*
X59040918Y-87359575D01*
X59012501Y-87575424D01*
X59012500Y-87575441D01*
X57987500Y-87575441D01*
X57987500Y-87575435D01*
X57954982Y-87328435D01*
X57890502Y-87087793D01*
X57822020Y-86922465D01*
X57814552Y-86852996D01*
X57845827Y-86790517D01*
X57848873Y-86787360D01*
X59158506Y-85477728D01*
X59158511Y-85477724D01*
X59168714Y-85467520D01*
X59168716Y-85467520D01*
X59280520Y-85355716D01*
X59359577Y-85218784D01*
X59400500Y-85066057D01*
X59400500Y-84474577D01*
X59420185Y-84407538D01*
X59472989Y-84361783D01*
X59542147Y-84351839D01*
X59605703Y-84380864D01*
X59612181Y-84386896D01*
X59657218Y-84431933D01*
X59657225Y-84431939D01*
X59854873Y-84583599D01*
X60070623Y-84708162D01*
X60070638Y-84708169D01*
X60143297Y-84738265D01*
X60300793Y-84803502D01*
X60541435Y-84867982D01*
X60788435Y-84900500D01*
X60788442Y-84900500D01*
X61037558Y-84900500D01*
X61037565Y-84900500D01*
X61284565Y-84867982D01*
X61525207Y-84803502D01*
X61755373Y-84708164D01*
X61971127Y-84583599D01*
X62168776Y-84431938D01*
X62344938Y-84255776D01*
X62496599Y-84058127D01*
X62621164Y-83842373D01*
X62716502Y-83612207D01*
X62780982Y-83371565D01*
X62813500Y-83124565D01*
X62813500Y-82875435D01*
X62780982Y-82628435D01*
X62716502Y-82387793D01*
X62648020Y-82222465D01*
X62645883Y-82202588D01*
X62638898Y-82183859D01*
X62642225Y-82168562D01*
X62640552Y-82152996D01*
X62649500Y-82135118D01*
X62653750Y-82115586D01*
X62670435Y-82093297D01*
X62671827Y-82090517D01*
X62674872Y-82087361D01*
X65325416Y-79436819D01*
X65386739Y-79403334D01*
X65413097Y-79400500D01*
X85223331Y-79400500D01*
X85223347Y-79400501D01*
X85230943Y-79400501D01*
X85389054Y-79400501D01*
X85389057Y-79400501D01*
X85541785Y-79359577D01*
X85615289Y-79317139D01*
X85678716Y-79280520D01*
X85790520Y-79168716D01*
X85790520Y-79168714D01*
X85800724Y-79158511D01*
X85800728Y-79158506D01*
X87365158Y-77594075D01*
X87426479Y-77560592D01*
X87491151Y-77563825D01*
X87505466Y-77568477D01*
X87707648Y-77600500D01*
X87707649Y-77600500D01*
X87912351Y-77600500D01*
X87912352Y-77600500D01*
X88114534Y-77568477D01*
X88309219Y-77505220D01*
X88491610Y-77412287D01*
X88587238Y-77342810D01*
X88657213Y-77291971D01*
X88657215Y-77291968D01*
X88657219Y-77291966D01*
X88801966Y-77147219D01*
X88801968Y-77147215D01*
X88801971Y-77147213D01*
X88876795Y-77044225D01*
X88922287Y-76981610D01*
X89015220Y-76799219D01*
X89078477Y-76604534D01*
X89110500Y-76402352D01*
X89110500Y-76197648D01*
X89078477Y-75995466D01*
X89015220Y-75800781D01*
X89015218Y-75800778D01*
X89015218Y-75800776D01*
X88981503Y-75734607D01*
X88922287Y-75618390D01*
X88914556Y-75607749D01*
X88801971Y-75452786D01*
X88657213Y-75308028D01*
X88491613Y-75187715D01*
X88491612Y-75187714D01*
X88491610Y-75187713D01*
X88434653Y-75158691D01*
X88309223Y-75094781D01*
X88114534Y-75031522D01*
X87939995Y-75003878D01*
X87912352Y-74999500D01*
X87707648Y-74999500D01*
X87683329Y-75003351D01*
X87505465Y-75031522D01*
X87310776Y-75094781D01*
X87128386Y-75187715D01*
X86962786Y-75308028D01*
X86818028Y-75452786D01*
X86697715Y-75618386D01*
X86604781Y-75800776D01*
X86541522Y-75995465D01*
X86509500Y-76197648D01*
X86509500Y-76402351D01*
X86541522Y-76604534D01*
X86546173Y-76618848D01*
X86548165Y-76688690D01*
X86515921Y-76744842D01*
X85097584Y-78163181D01*
X85036261Y-78196666D01*
X85009903Y-78199500D01*
X65199669Y-78199500D01*
X65199653Y-78199499D01*
X65192057Y-78199499D01*
X65033943Y-78199499D01*
X64919397Y-78230192D01*
X64881214Y-78240423D01*
X64867808Y-78248164D01*
X64867805Y-78248165D01*
X64744290Y-78319475D01*
X64744282Y-78319481D01*
X64632478Y-78431286D01*
X61825665Y-81238098D01*
X61764342Y-81271583D01*
X61694650Y-81266599D01*
X61690553Y-81264986D01*
X61525207Y-81196498D01*
X61525205Y-81196497D01*
X61525204Y-81196497D01*
X61284561Y-81132017D01*
X61037575Y-81099501D01*
X61037570Y-81099500D01*
X61037565Y-81099500D01*
X60788435Y-81099500D01*
X60788429Y-81099500D01*
X60788424Y-81099501D01*
X60541438Y-81132017D01*
X60300792Y-81196498D01*
X60070638Y-81291830D01*
X60070623Y-81291837D01*
X59854873Y-81416400D01*
X59657225Y-81568060D01*
X59657218Y-81568066D01*
X59612181Y-81613104D01*
X59550858Y-81646589D01*
X59481166Y-81641605D01*
X59425233Y-81599733D01*
X59400816Y-81534269D01*
X59400500Y-81525423D01*
X59400500Y-80713096D01*
X59420185Y-80646057D01*
X59436815Y-80625419D01*
X60000334Y-80061899D01*
X60061655Y-80028416D01*
X60131346Y-80033400D01*
X60135455Y-80035016D01*
X60300793Y-80103502D01*
X60541435Y-80167982D01*
X60788435Y-80200500D01*
X60788442Y-80200500D01*
X61037558Y-80200500D01*
X61037565Y-80200500D01*
X61284565Y-80167982D01*
X61525207Y-80103502D01*
X61755373Y-80008164D01*
X61971127Y-79883599D01*
X62168776Y-79731938D01*
X62344938Y-79555776D01*
X62496599Y-79358127D01*
X62621164Y-79142373D01*
X62716502Y-78912207D01*
X62780982Y-78671565D01*
X62813500Y-78424565D01*
X62813500Y-78175435D01*
X62780982Y-77928435D01*
X62716502Y-77687793D01*
X62648020Y-77522464D01*
X62640552Y-77452997D01*
X62671827Y-77390518D01*
X62674872Y-77387362D01*
X63864587Y-76197648D01*
X78889500Y-76197648D01*
X78889500Y-76402351D01*
X78921522Y-76604534D01*
X78984781Y-76799223D01*
X79077715Y-76981613D01*
X79198028Y-77147213D01*
X79342786Y-77291971D01*
X79448580Y-77368833D01*
X79508390Y-77412287D01*
X79624607Y-77471503D01*
X79690776Y-77505218D01*
X79690778Y-77505218D01*
X79690781Y-77505220D01*
X79743862Y-77522467D01*
X79885465Y-77568477D01*
X79986557Y-77584488D01*
X80087648Y-77600500D01*
X80087649Y-77600500D01*
X80292351Y-77600500D01*
X80292352Y-77600500D01*
X80494534Y-77568477D01*
X80689219Y-77505220D01*
X80871610Y-77412287D01*
X80967238Y-77342810D01*
X81037213Y-77291971D01*
X81037215Y-77291968D01*
X81037219Y-77291966D01*
X81181966Y-77147219D01*
X81181968Y-77147215D01*
X81181971Y-77147213D01*
X81256795Y-77044225D01*
X81302287Y-76981610D01*
X81395220Y-76799219D01*
X81458477Y-76604534D01*
X81490500Y-76402352D01*
X81490500Y-76197648D01*
X81458477Y-75995466D01*
X81395220Y-75800781D01*
X81395218Y-75800778D01*
X81395218Y-75800776D01*
X81361503Y-75734607D01*
X81302287Y-75618390D01*
X81294556Y-75607749D01*
X81181971Y-75452786D01*
X81037213Y-75308028D01*
X80871613Y-75187715D01*
X80871612Y-75187714D01*
X80871610Y-75187713D01*
X80814653Y-75158691D01*
X80689223Y-75094781D01*
X80494534Y-75031522D01*
X80319995Y-75003878D01*
X80292352Y-74999500D01*
X80087648Y-74999500D01*
X80063329Y-75003351D01*
X79885465Y-75031522D01*
X79690776Y-75094781D01*
X79508386Y-75187715D01*
X79342786Y-75308028D01*
X79198028Y-75452786D01*
X79077715Y-75618386D01*
X78984781Y-75800776D01*
X78921522Y-75995465D01*
X78889500Y-76197648D01*
X63864587Y-76197648D01*
X66925417Y-73136819D01*
X66986740Y-73103334D01*
X67013098Y-73100500D01*
X83026331Y-73100500D01*
X83026347Y-73100501D01*
X83033943Y-73100501D01*
X83192054Y-73100501D01*
X83192057Y-73100501D01*
X83344785Y-73059577D01*
X83394904Y-73030639D01*
X83481716Y-72980520D01*
X83593520Y-72868716D01*
X83593520Y-72868714D01*
X83603728Y-72858507D01*
X83603730Y-72858504D01*
X93000334Y-63461899D01*
X93061655Y-63428416D01*
X93131347Y-63433400D01*
X93135455Y-63435016D01*
X93300793Y-63503502D01*
X93541435Y-63567982D01*
X93788435Y-63600500D01*
X93788442Y-63600500D01*
X94037558Y-63600500D01*
X94037565Y-63600500D01*
X94284565Y-63567982D01*
X94525207Y-63503502D01*
X94748781Y-63410894D01*
X94755361Y-63408169D01*
X94755361Y-63408168D01*
X94755373Y-63408164D01*
X94971127Y-63283599D01*
X95168776Y-63131938D01*
X95344938Y-62955776D01*
X95496599Y-62758127D01*
X95621164Y-62542373D01*
X95716502Y-62312207D01*
X95780982Y-62071565D01*
X95813500Y-61824565D01*
X95813500Y-61575435D01*
X95780982Y-61328435D01*
X95716502Y-61087793D01*
X95625386Y-60867820D01*
X95621169Y-60857638D01*
X95621162Y-60857623D01*
X95496599Y-60641873D01*
X95344939Y-60444225D01*
X95344933Y-60444218D01*
X95168781Y-60268066D01*
X95168774Y-60268060D01*
X94971126Y-60116400D01*
X94755376Y-59991837D01*
X94755361Y-59991830D01*
X94525207Y-59896498D01*
X94284565Y-59832018D01*
X94284564Y-59832017D01*
X94284561Y-59832017D01*
X94037575Y-59799501D01*
X94037570Y-59799500D01*
X94037565Y-59799500D01*
X93788435Y-59799500D01*
X93788429Y-59799500D01*
X93788424Y-59799501D01*
X93541438Y-59832017D01*
X93300792Y-59896498D01*
X93070638Y-59991830D01*
X93070623Y-59991837D01*
X92854873Y-60116400D01*
X92657225Y-60268060D01*
X92657218Y-60268066D01*
X92481066Y-60444218D01*
X92481060Y-60444225D01*
X92329400Y-60641873D01*
X92204837Y-60857623D01*
X92204830Y-60857638D01*
X92109498Y-61087792D01*
X92045017Y-61328438D01*
X92012501Y-61575424D01*
X92012500Y-61575441D01*
X92012500Y-61824558D01*
X92012501Y-61824575D01*
X92034566Y-61992179D01*
X92045018Y-62071565D01*
X92109498Y-62312207D01*
X92139136Y-62383760D01*
X92177978Y-62477531D01*
X92185447Y-62547001D01*
X92154172Y-62609480D01*
X92151098Y-62612665D01*
X82900584Y-71863181D01*
X82839261Y-71896666D01*
X82812903Y-71899500D01*
X66799670Y-71899500D01*
X66799654Y-71899499D01*
X66792058Y-71899499D01*
X66633943Y-71899499D01*
X66557579Y-71919961D01*
X66481214Y-71940423D01*
X66481209Y-71940426D01*
X66344290Y-72019475D01*
X66344282Y-72019481D01*
X61825665Y-76538097D01*
X61764342Y-76571582D01*
X61694650Y-76566598D01*
X61690532Y-76564977D01*
X61525207Y-76496498D01*
X61284561Y-76432017D01*
X61037575Y-76399501D01*
X61037570Y-76399500D01*
X61037565Y-76399500D01*
X60788435Y-76399500D01*
X60788429Y-76399500D01*
X60788424Y-76399501D01*
X60541438Y-76432017D01*
X60300792Y-76496498D01*
X60070638Y-76591830D01*
X60070623Y-76591837D01*
X59854873Y-76716400D01*
X59657225Y-76868060D01*
X59657218Y-76868066D01*
X59481066Y-77044218D01*
X59481060Y-77044225D01*
X59329400Y-77241873D01*
X59204837Y-77457623D01*
X59204830Y-77457638D01*
X59109498Y-77687792D01*
X59045017Y-77928438D01*
X59012501Y-78175424D01*
X59012500Y-78175441D01*
X59012500Y-78424558D01*
X59012501Y-78424575D01*
X59013384Y-78431284D01*
X59045018Y-78671565D01*
X59109498Y-78912207D01*
X59170058Y-79058412D01*
X59177978Y-79077531D01*
X59185447Y-79147001D01*
X59154172Y-79209480D01*
X59151098Y-79212665D01*
X58912181Y-79451583D01*
X58850858Y-79485068D01*
X58781167Y-79480084D01*
X58725233Y-79438213D01*
X58700816Y-79372748D01*
X58700500Y-79363902D01*
X58700500Y-75200096D01*
X58720185Y-75133057D01*
X58736814Y-75112420D01*
X67975797Y-65873436D01*
X68037118Y-65839953D01*
X68101794Y-65843188D01*
X68172049Y-65866015D01*
X68389778Y-65900500D01*
X68389779Y-65900500D01*
X68610221Y-65900500D01*
X68610222Y-65900500D01*
X68827951Y-65866015D01*
X69037606Y-65797895D01*
X69234022Y-65697815D01*
X69412365Y-65568242D01*
X69568242Y-65412365D01*
X69697815Y-65234022D01*
X69797895Y-65037606D01*
X69866015Y-64827951D01*
X69900500Y-64610222D01*
X69900500Y-64389778D01*
X69866015Y-64172049D01*
X69797895Y-63962394D01*
X69797895Y-63962393D01*
X69763237Y-63894375D01*
X69697815Y-63765978D01*
X69649681Y-63699727D01*
X69568247Y-63587641D01*
X69568243Y-63587636D01*
X69412363Y-63431756D01*
X69412358Y-63431752D01*
X69234025Y-63302187D01*
X69234024Y-63302186D01*
X69234022Y-63302185D01*
X69171096Y-63270122D01*
X69037606Y-63202104D01*
X69037603Y-63202103D01*
X68827952Y-63133985D01*
X68719086Y-63116742D01*
X68610222Y-63099500D01*
X68389778Y-63099500D01*
X68317201Y-63110995D01*
X68172047Y-63133985D01*
X67962396Y-63202103D01*
X67962393Y-63202104D01*
X67765974Y-63302187D01*
X67587641Y-63431752D01*
X67587636Y-63431756D01*
X67431756Y-63587636D01*
X67431752Y-63587641D01*
X67350318Y-63699727D01*
X67294989Y-63742393D01*
X67225375Y-63748372D01*
X67163580Y-63715767D01*
X67149682Y-63699727D01*
X67068247Y-63587641D01*
X67068243Y-63587636D01*
X66912363Y-63431756D01*
X66912358Y-63431752D01*
X66734025Y-63302187D01*
X66734024Y-63302186D01*
X66734022Y-63302185D01*
X66671096Y-63270122D01*
X66537606Y-63202104D01*
X66537603Y-63202103D01*
X66327952Y-63133985D01*
X66219086Y-63116742D01*
X66110222Y-63099500D01*
X65889778Y-63099500D01*
X65817201Y-63110995D01*
X65672047Y-63133985D01*
X65462396Y-63202103D01*
X65462393Y-63202104D01*
X65265974Y-63302187D01*
X65087641Y-63431752D01*
X65087635Y-63431757D01*
X65066207Y-63453185D01*
X65004884Y-63486669D01*
X64935192Y-63481683D01*
X64879259Y-63439810D01*
X64862346Y-63408834D01*
X64843355Y-63357915D01*
X64843350Y-63357906D01*
X64757190Y-63242812D01*
X64757187Y-63242809D01*
X64642093Y-63156649D01*
X64642086Y-63156645D01*
X64507379Y-63106403D01*
X64507372Y-63106401D01*
X64447844Y-63100000D01*
X63750000Y-63100000D01*
X63750000Y-64066988D01*
X63692993Y-64034075D01*
X63565826Y-64000000D01*
X63434174Y-64000000D01*
X63307007Y-64034075D01*
X63250000Y-64066988D01*
X63250000Y-63100000D01*
X62552155Y-63100000D01*
X62492627Y-63106401D01*
X62492620Y-63106403D01*
X62357913Y-63156645D01*
X62357906Y-63156649D01*
X62242812Y-63242809D01*
X62242809Y-63242812D01*
X62156649Y-63357906D01*
X62156645Y-63357913D01*
X62106403Y-63492620D01*
X62106401Y-63492627D01*
X62100000Y-63552155D01*
X62100000Y-64250000D01*
X63066988Y-64250000D01*
X63034075Y-64307007D01*
X63000000Y-64434174D01*
X63000000Y-64565826D01*
X63034075Y-64692993D01*
X63066988Y-64750000D01*
X62100000Y-64750000D01*
X62100000Y-65447844D01*
X62106401Y-65507372D01*
X62106403Y-65507379D01*
X62156645Y-65642086D01*
X62156649Y-65642093D01*
X62242809Y-65757187D01*
X62242812Y-65757190D01*
X62357906Y-65843350D01*
X62357913Y-65843354D01*
X62492620Y-65893596D01*
X62492627Y-65893598D01*
X62552155Y-65899999D01*
X62552172Y-65900000D01*
X63250000Y-65900000D01*
X63250000Y-64933012D01*
X63307007Y-64965925D01*
X63434174Y-65000000D01*
X63565826Y-65000000D01*
X63692993Y-64965925D01*
X63750000Y-64933012D01*
X63750000Y-65900000D01*
X64447828Y-65900000D01*
X64447844Y-65899999D01*
X64507372Y-65893598D01*
X64507379Y-65893596D01*
X64642086Y-65843354D01*
X64642093Y-65843350D01*
X64757187Y-65757190D01*
X64757190Y-65757187D01*
X64843350Y-65642093D01*
X64843353Y-65642088D01*
X64862345Y-65591166D01*
X64904215Y-65535232D01*
X64969679Y-65510813D01*
X65037952Y-65525663D01*
X65066209Y-65546816D01*
X65087636Y-65568243D01*
X65087641Y-65568247D01*
X65243192Y-65681260D01*
X65265978Y-65697815D01*
X65394375Y-65763237D01*
X65462393Y-65797895D01*
X65462396Y-65797896D01*
X65529525Y-65819707D01*
X65672049Y-65866015D01*
X65889778Y-65900500D01*
X65889779Y-65900500D01*
X65950902Y-65900500D01*
X66017941Y-65920185D01*
X66063696Y-65972989D01*
X66073640Y-66042147D01*
X66044615Y-66105703D01*
X66038583Y-66112181D01*
X57619481Y-74531282D01*
X57619479Y-74531285D01*
X57569361Y-74618094D01*
X57569359Y-74618096D01*
X57540425Y-74668209D01*
X57540424Y-74668210D01*
X57530244Y-74706202D01*
X57499499Y-74820943D01*
X57499499Y-74820945D01*
X57499499Y-74989046D01*
X57499500Y-74989059D01*
X57499500Y-76736873D01*
X57479815Y-76803912D01*
X57427011Y-76849667D01*
X57357853Y-76859611D01*
X57300014Y-76835249D01*
X57145126Y-76716400D01*
X56929376Y-76591837D01*
X56929361Y-76591830D01*
X56699207Y-76496498D01*
X56458561Y-76432017D01*
X56211575Y-76399501D01*
X56211570Y-76399500D01*
X56211565Y-76399500D01*
X55962435Y-76399500D01*
X55962429Y-76399500D01*
X55962424Y-76399501D01*
X55715438Y-76432017D01*
X55474792Y-76496498D01*
X55244638Y-76591830D01*
X55244623Y-76591837D01*
X55028873Y-76716400D01*
X54831225Y-76868060D01*
X54831218Y-76868066D01*
X54655066Y-77044218D01*
X54655060Y-77044225D01*
X54503400Y-77241873D01*
X54378837Y-77457623D01*
X54378830Y-77457638D01*
X54283498Y-77687792D01*
X54219017Y-77928438D01*
X54186501Y-78175424D01*
X54186500Y-78175441D01*
X51500500Y-78175441D01*
X51500500Y-68665295D01*
X51520185Y-68598256D01*
X51572989Y-68552501D01*
X51634230Y-68541677D01*
X51634728Y-68541716D01*
X52267037Y-67909408D01*
X52284075Y-67972993D01*
X52349901Y-68087007D01*
X52442993Y-68180099D01*
X52557007Y-68245925D01*
X52620590Y-68262962D01*
X51988282Y-68895269D01*
X51988282Y-68895270D01*
X52042449Y-68934624D01*
X52231782Y-69031095D01*
X52433870Y-69096757D01*
X52643754Y-69130000D01*
X52856246Y-69130000D01*
X53066127Y-69096757D01*
X53066130Y-69096757D01*
X53268217Y-69031095D01*
X53457554Y-68934622D01*
X53511716Y-68895270D01*
X53511717Y-68895270D01*
X52879408Y-68262962D01*
X52942993Y-68245925D01*
X53057007Y-68180099D01*
X53150099Y-68087007D01*
X53215925Y-67972993D01*
X53232962Y-67909408D01*
X53865270Y-68541717D01*
X53865270Y-68541716D01*
X53904622Y-68487554D01*
X54001095Y-68298217D01*
X54066757Y-68096130D01*
X54066757Y-68096127D01*
X54100000Y-67886246D01*
X54100000Y-67673753D01*
X54066757Y-67463872D01*
X54066757Y-67463869D01*
X54001095Y-67261782D01*
X53904624Y-67072449D01*
X53865270Y-67018282D01*
X53865269Y-67018282D01*
X53232962Y-67650590D01*
X53215925Y-67587007D01*
X53150099Y-67472993D01*
X53057007Y-67379901D01*
X52942993Y-67314075D01*
X52879409Y-67297037D01*
X53511716Y-66664728D01*
X53457550Y-66625375D01*
X53447954Y-66620486D01*
X53397157Y-66572512D01*
X53380361Y-66504692D01*
X53402897Y-66438556D01*
X53447954Y-66399514D01*
X53457554Y-66394622D01*
X53511716Y-66355270D01*
X53511717Y-66355270D01*
X52879408Y-65722962D01*
X52942993Y-65705925D01*
X53057007Y-65640099D01*
X53150099Y-65547007D01*
X53215925Y-65432993D01*
X53232962Y-65369408D01*
X53865270Y-66001717D01*
X53865270Y-66001716D01*
X53904622Y-65947554D01*
X54001095Y-65758217D01*
X54066757Y-65556130D01*
X54066757Y-65556127D01*
X54100000Y-65346246D01*
X54100000Y-65133753D01*
X54066757Y-64923872D01*
X54066757Y-64923869D01*
X54006026Y-64736956D01*
X54006025Y-64736954D01*
X54001096Y-64721785D01*
X53904624Y-64532449D01*
X53865270Y-64478282D01*
X53865269Y-64478282D01*
X53232962Y-65110590D01*
X53215925Y-65047007D01*
X53150099Y-64932993D01*
X53057007Y-64839901D01*
X52942993Y-64774075D01*
X52879409Y-64757037D01*
X53511716Y-64124728D01*
X53457547Y-64085373D01*
X53457547Y-64085372D01*
X53448500Y-64080763D01*
X53397706Y-64032788D01*
X53380912Y-63964966D01*
X53403451Y-63898832D01*
X53448508Y-63859793D01*
X53457816Y-63855051D01*
X53537007Y-63797515D01*
X53629786Y-63730109D01*
X53629788Y-63730106D01*
X53629792Y-63730104D01*
X53780104Y-63579792D01*
X53905051Y-63407816D01*
X54001557Y-63218412D01*
X54067246Y-63016243D01*
X54100500Y-62806287D01*
X54100500Y-62593713D01*
X54067246Y-62383757D01*
X54001557Y-62181588D01*
X53905051Y-61992184D01*
X53905049Y-61992181D01*
X53905048Y-61992179D01*
X53780109Y-61820213D01*
X53629990Y-61670094D01*
X53629792Y-61669896D01*
X53499785Y-61575441D01*
X87186500Y-61575441D01*
X87186500Y-61824558D01*
X87186501Y-61824575D01*
X87219017Y-62071561D01*
X87283498Y-62312207D01*
X87378830Y-62542361D01*
X87378837Y-62542376D01*
X87503400Y-62758126D01*
X87655060Y-62955774D01*
X87655066Y-62955781D01*
X87831218Y-63131933D01*
X87831225Y-63131939D01*
X88028873Y-63283599D01*
X88244623Y-63408162D01*
X88244638Y-63408169D01*
X88305552Y-63433400D01*
X88474793Y-63503502D01*
X88715435Y-63567982D01*
X88962435Y-63600500D01*
X88962442Y-63600500D01*
X89211558Y-63600500D01*
X89211565Y-63600500D01*
X89458565Y-63567982D01*
X89699207Y-63503502D01*
X89922781Y-63410894D01*
X89929361Y-63408169D01*
X89929361Y-63408168D01*
X89929373Y-63408164D01*
X90145127Y-63283599D01*
X90342776Y-63131938D01*
X90518938Y-62955776D01*
X90670599Y-62758127D01*
X90795164Y-62542373D01*
X90890502Y-62312207D01*
X90954982Y-62071565D01*
X90987500Y-61824565D01*
X90987500Y-61575435D01*
X90954982Y-61328435D01*
X90890502Y-61087793D01*
X90799386Y-60867820D01*
X90795169Y-60857638D01*
X90795162Y-60857623D01*
X90670599Y-60641873D01*
X90518939Y-60444225D01*
X90518933Y-60444218D01*
X90342781Y-60268066D01*
X90342774Y-60268060D01*
X90145126Y-60116400D01*
X89929376Y-59991837D01*
X89929361Y-59991830D01*
X89699207Y-59896498D01*
X89458565Y-59832018D01*
X89458564Y-59832017D01*
X89458561Y-59832017D01*
X89211575Y-59799501D01*
X89211570Y-59799500D01*
X89211565Y-59799500D01*
X88962435Y-59799500D01*
X88962429Y-59799500D01*
X88962424Y-59799501D01*
X88715438Y-59832017D01*
X88474792Y-59896498D01*
X88244638Y-59991830D01*
X88244623Y-59991837D01*
X88028873Y-60116400D01*
X87831225Y-60268060D01*
X87831218Y-60268066D01*
X87655066Y-60444218D01*
X87655060Y-60444225D01*
X87503400Y-60641873D01*
X87378837Y-60857623D01*
X87378830Y-60857638D01*
X87283498Y-61087792D01*
X87219017Y-61328438D01*
X87186501Y-61575424D01*
X87186500Y-61575441D01*
X53499785Y-61575441D01*
X53457816Y-61544949D01*
X53441055Y-61536409D01*
X53433726Y-61531223D01*
X53417395Y-61510585D01*
X53398259Y-61492512D01*
X53396055Y-61483616D01*
X53390371Y-61476432D01*
X53387790Y-61450241D01*
X53381463Y-61424692D01*
X53384418Y-61416018D01*
X53383520Y-61406899D01*
X53395509Y-61383469D01*
X53403999Y-61358556D01*
X53411652Y-61351924D01*
X53415349Y-61344701D01*
X53429448Y-61336504D01*
X53449054Y-61319515D01*
X53457816Y-61315051D01*
X53479789Y-61299086D01*
X53629786Y-61190109D01*
X53629788Y-61190106D01*
X53629792Y-61190104D01*
X53780104Y-61039792D01*
X53780106Y-61039788D01*
X53780109Y-61039786D01*
X53905048Y-60867820D01*
X53905047Y-60867820D01*
X53905051Y-60867816D01*
X54001557Y-60678412D01*
X54067246Y-60476243D01*
X54100500Y-60266287D01*
X54100500Y-60053713D01*
X54067246Y-59843757D01*
X54001557Y-59641588D01*
X53905051Y-59452184D01*
X53905049Y-59452181D01*
X53905048Y-59452179D01*
X53780109Y-59280213D01*
X53629786Y-59129890D01*
X53457820Y-59004951D01*
X53457115Y-59004591D01*
X53449054Y-59000485D01*
X53398259Y-58952512D01*
X53381463Y-58884692D01*
X53403999Y-58818556D01*
X53449054Y-58779515D01*
X53457816Y-58775051D01*
X53549879Y-58708164D01*
X53629786Y-58650109D01*
X53629788Y-58650106D01*
X53629792Y-58650104D01*
X53780104Y-58499792D01*
X53780106Y-58499788D01*
X53780109Y-58499786D01*
X53905048Y-58327820D01*
X53905047Y-58327820D01*
X53905051Y-58327816D01*
X54001557Y-58138412D01*
X54067246Y-57936243D01*
X54100500Y-57726287D01*
X54100500Y-57513713D01*
X54067246Y-57303757D01*
X54001557Y-57101588D01*
X53905051Y-56912184D01*
X53905049Y-56912181D01*
X53905048Y-56912179D01*
X53780109Y-56740213D01*
X53657944Y-56618048D01*
X59339500Y-56618048D01*
X59339500Y-57381951D01*
X59366013Y-57583333D01*
X59371334Y-57623744D01*
X59429912Y-57842361D01*
X59434456Y-57859320D01*
X59434459Y-57859330D01*
X59527786Y-58084640D01*
X59527791Y-58084651D01*
X59649727Y-58295848D01*
X59649738Y-58295864D01*
X59798199Y-58489343D01*
X59798205Y-58489350D01*
X59970649Y-58661794D01*
X59970656Y-58661800D01*
X60031079Y-58708164D01*
X60164144Y-58810268D01*
X60164151Y-58810272D01*
X60375348Y-58932208D01*
X60375353Y-58932210D01*
X60375356Y-58932212D01*
X60600679Y-59025544D01*
X60836256Y-59088666D01*
X61078056Y-59120500D01*
X61078063Y-59120500D01*
X61321937Y-59120500D01*
X61321944Y-59120500D01*
X61563744Y-59088666D01*
X61799321Y-59025544D01*
X62024644Y-58932212D01*
X62235856Y-58810268D01*
X62429345Y-58661799D01*
X62601799Y-58489345D01*
X62750268Y-58295856D01*
X62872212Y-58084644D01*
X62965544Y-57859321D01*
X63028666Y-57623744D01*
X63060500Y-57381944D01*
X63060500Y-56618056D01*
X63060499Y-56618048D01*
X68939500Y-56618048D01*
X68939500Y-57381951D01*
X68966013Y-57583333D01*
X68971334Y-57623744D01*
X69029912Y-57842361D01*
X69034456Y-57859320D01*
X69034459Y-57859330D01*
X69127786Y-58084640D01*
X69127791Y-58084651D01*
X69249727Y-58295848D01*
X69249738Y-58295864D01*
X69398199Y-58489343D01*
X69398205Y-58489350D01*
X69570649Y-58661794D01*
X69570656Y-58661800D01*
X69631079Y-58708164D01*
X69764144Y-58810268D01*
X69764151Y-58810272D01*
X69975348Y-58932208D01*
X69975353Y-58932210D01*
X69975356Y-58932212D01*
X70200679Y-59025544D01*
X70436256Y-59088666D01*
X70678056Y-59120500D01*
X70678063Y-59120500D01*
X70921937Y-59120500D01*
X70921944Y-59120500D01*
X71163744Y-59088666D01*
X71399321Y-59025544D01*
X71624644Y-58932212D01*
X71835856Y-58810268D01*
X72029345Y-58661799D01*
X72201799Y-58489345D01*
X72350268Y-58295856D01*
X72472212Y-58084644D01*
X72565544Y-57859321D01*
X72628666Y-57623744D01*
X72660500Y-57381944D01*
X72660500Y-56618056D01*
X72628666Y-56376256D01*
X72565544Y-56140679D01*
X72565539Y-56140669D01*
X72565538Y-56140663D01*
X72547164Y-56096303D01*
X72528877Y-56052155D01*
X78330000Y-56052155D01*
X78330000Y-56750000D01*
X79354722Y-56750000D01*
X79310667Y-56826306D01*
X79280000Y-56940756D01*
X79280000Y-57059244D01*
X79310667Y-57173694D01*
X79354722Y-57250000D01*
X78330000Y-57250000D01*
X78330000Y-57947844D01*
X78336401Y-58007372D01*
X78336403Y-58007379D01*
X78386645Y-58142086D01*
X78386649Y-58142093D01*
X78472809Y-58257187D01*
X78472812Y-58257190D01*
X78587906Y-58343350D01*
X78587913Y-58343354D01*
X78722620Y-58393596D01*
X78722627Y-58393598D01*
X78782155Y-58399999D01*
X78782172Y-58400000D01*
X79480000Y-58400000D01*
X79480000Y-57375277D01*
X79556306Y-57419333D01*
X79670756Y-57450000D01*
X79789244Y-57450000D01*
X79903694Y-57419333D01*
X79980000Y-57375277D01*
X79980000Y-58400000D01*
X80677828Y-58400000D01*
X80677844Y-58399999D01*
X80737372Y-58393598D01*
X80737379Y-58393596D01*
X80872086Y-58343354D01*
X80872093Y-58343350D01*
X80987187Y-58257190D01*
X80987190Y-58257187D01*
X81073350Y-58142093D01*
X81073354Y-58142086D01*
X81103213Y-58062031D01*
X81145084Y-58006097D01*
X81210548Y-57981680D01*
X81278821Y-57996531D01*
X81307076Y-58017683D01*
X81357636Y-58068243D01*
X81357641Y-58068247D01*
X81513192Y-58181260D01*
X81535978Y-58197815D01*
X81652501Y-58257187D01*
X81732393Y-58297895D01*
X81732396Y-58297896D01*
X81824483Y-58327816D01*
X81942049Y-58366015D01*
X82159778Y-58400500D01*
X82159779Y-58400500D01*
X82380221Y-58400500D01*
X82380222Y-58400500D01*
X82597951Y-58366015D01*
X82807606Y-58297895D01*
X83004022Y-58197815D01*
X83182365Y-58068242D01*
X83338242Y-57912365D01*
X83467815Y-57734022D01*
X83567895Y-57537606D01*
X83636015Y-57327951D01*
X83670500Y-57110222D01*
X83670500Y-56889778D01*
X83668229Y-56875441D01*
X87186500Y-56875441D01*
X87186500Y-57124558D01*
X87186501Y-57124575D01*
X87219017Y-57371561D01*
X87283498Y-57612207D01*
X87378830Y-57842361D01*
X87378837Y-57842376D01*
X87503400Y-58058126D01*
X87655060Y-58255774D01*
X87655066Y-58255781D01*
X87831218Y-58431933D01*
X87831225Y-58431939D01*
X88028873Y-58583599D01*
X88244623Y-58708162D01*
X88244638Y-58708169D01*
X88343825Y-58749253D01*
X88474793Y-58803502D01*
X88715435Y-58867982D01*
X88962435Y-58900500D01*
X88962442Y-58900500D01*
X89211558Y-58900500D01*
X89211565Y-58900500D01*
X89458565Y-58867982D01*
X89699207Y-58803502D01*
X89929373Y-58708164D01*
X90145127Y-58583599D01*
X90342776Y-58431938D01*
X90518938Y-58255776D01*
X90670599Y-58058127D01*
X90795164Y-57842373D01*
X90890502Y-57612207D01*
X90954982Y-57371565D01*
X90987500Y-57124565D01*
X90987500Y-56875441D01*
X92012500Y-56875441D01*
X92012500Y-57124558D01*
X92012501Y-57124575D01*
X92045017Y-57371561D01*
X92109498Y-57612207D01*
X92204830Y-57842361D01*
X92204837Y-57842376D01*
X92329400Y-58058126D01*
X92481060Y-58255774D01*
X92481066Y-58255781D01*
X92657218Y-58431933D01*
X92657225Y-58431939D01*
X92854873Y-58583599D01*
X93070623Y-58708162D01*
X93070638Y-58708169D01*
X93169825Y-58749253D01*
X93300793Y-58803502D01*
X93541435Y-58867982D01*
X93788435Y-58900500D01*
X93788442Y-58900500D01*
X94037558Y-58900500D01*
X94037565Y-58900500D01*
X94284565Y-58867982D01*
X94525207Y-58803502D01*
X94755373Y-58708164D01*
X94971127Y-58583599D01*
X95168776Y-58431938D01*
X95344938Y-58255776D01*
X95496599Y-58058127D01*
X95621164Y-57842373D01*
X95716502Y-57612207D01*
X95780982Y-57371565D01*
X95813500Y-57124565D01*
X95813500Y-56875435D01*
X95780982Y-56628435D01*
X95716502Y-56387793D01*
X95621164Y-56157627D01*
X95611373Y-56140669D01*
X95496599Y-55941873D01*
X95344939Y-55744225D01*
X95344933Y-55744218D01*
X95168781Y-55568066D01*
X95168774Y-55568060D01*
X94971126Y-55416400D01*
X94755376Y-55291837D01*
X94755361Y-55291830D01*
X94525207Y-55196498D01*
X94284561Y-55132017D01*
X94037575Y-55099501D01*
X94037570Y-55099500D01*
X94037565Y-55099500D01*
X93788435Y-55099500D01*
X93788429Y-55099500D01*
X93788424Y-55099501D01*
X93541438Y-55132017D01*
X93300792Y-55196498D01*
X93070638Y-55291830D01*
X93070623Y-55291837D01*
X92854873Y-55416400D01*
X92657225Y-55568060D01*
X92657218Y-55568066D01*
X92481066Y-55744218D01*
X92481060Y-55744225D01*
X92329400Y-55941873D01*
X92204837Y-56157623D01*
X92204830Y-56157638D01*
X92109498Y-56387792D01*
X92045017Y-56628438D01*
X92012501Y-56875424D01*
X92012500Y-56875441D01*
X90987500Y-56875441D01*
X90987500Y-56875435D01*
X90954982Y-56628435D01*
X90890502Y-56387793D01*
X90795164Y-56157627D01*
X90785373Y-56140669D01*
X90670599Y-55941873D01*
X90518939Y-55744225D01*
X90518933Y-55744218D01*
X90342781Y-55568066D01*
X90342774Y-55568060D01*
X90145126Y-55416400D01*
X89929376Y-55291837D01*
X89929361Y-55291830D01*
X89699207Y-55196498D01*
X89458561Y-55132017D01*
X89211575Y-55099501D01*
X89211570Y-55099500D01*
X89211565Y-55099500D01*
X88962435Y-55099500D01*
X88962429Y-55099500D01*
X88962424Y-55099501D01*
X88715438Y-55132017D01*
X88474792Y-55196498D01*
X88244638Y-55291830D01*
X88244623Y-55291837D01*
X88028873Y-55416400D01*
X87831225Y-55568060D01*
X87831218Y-55568066D01*
X87655066Y-55744218D01*
X87655060Y-55744225D01*
X87503400Y-55941873D01*
X87378837Y-56157623D01*
X87378830Y-56157638D01*
X87283498Y-56387792D01*
X87219017Y-56628438D01*
X87186501Y-56875424D01*
X87186500Y-56875441D01*
X83668229Y-56875441D01*
X83636015Y-56672049D01*
X83601955Y-56567221D01*
X83567896Y-56462396D01*
X83567895Y-56462393D01*
X83524005Y-56376256D01*
X83467815Y-56265978D01*
X83389091Y-56157623D01*
X83338247Y-56087641D01*
X83338243Y-56087636D01*
X83182363Y-55931756D01*
X83182358Y-55931752D01*
X83004025Y-55802187D01*
X83004024Y-55802186D01*
X83004022Y-55802185D01*
X82941096Y-55770122D01*
X82807606Y-55702104D01*
X82807603Y-55702103D01*
X82597952Y-55633985D01*
X82489086Y-55616742D01*
X82380222Y-55599500D01*
X82159778Y-55599500D01*
X82087201Y-55610995D01*
X81942047Y-55633985D01*
X81732396Y-55702103D01*
X81732393Y-55702104D01*
X81535974Y-55802187D01*
X81357641Y-55931752D01*
X81357636Y-55931756D01*
X81307075Y-55982317D01*
X81245752Y-56015801D01*
X81176060Y-56010816D01*
X81120127Y-55968945D01*
X81103213Y-55937968D01*
X81073354Y-55857913D01*
X81073350Y-55857906D01*
X80987190Y-55742812D01*
X80987187Y-55742809D01*
X80872093Y-55656649D01*
X80872086Y-55656645D01*
X80737379Y-55606403D01*
X80737372Y-55606401D01*
X80677844Y-55600000D01*
X79980000Y-55600000D01*
X79980000Y-56624722D01*
X79903694Y-56580667D01*
X79789244Y-56550000D01*
X79670756Y-56550000D01*
X79556306Y-56580667D01*
X79480000Y-56624722D01*
X79480000Y-55600000D01*
X78782155Y-55600000D01*
X78722627Y-55606401D01*
X78722620Y-55606403D01*
X78587913Y-55656645D01*
X78587906Y-55656649D01*
X78472812Y-55742809D01*
X78472809Y-55742812D01*
X78386649Y-55857906D01*
X78386645Y-55857913D01*
X78336403Y-55992620D01*
X78336401Y-55992627D01*
X78330000Y-56052155D01*
X72528877Y-56052155D01*
X72490617Y-55959789D01*
X72472212Y-55915356D01*
X72472209Y-55915351D01*
X72472208Y-55915348D01*
X72350272Y-55704151D01*
X72350268Y-55704144D01*
X72201799Y-55510655D01*
X72201794Y-55510649D01*
X72029350Y-55338205D01*
X72029343Y-55338199D01*
X71835864Y-55189738D01*
X71835862Y-55189736D01*
X71835856Y-55189732D01*
X71835851Y-55189729D01*
X71835848Y-55189727D01*
X71624651Y-55067791D01*
X71624640Y-55067786D01*
X71399330Y-54974459D01*
X71399323Y-54974457D01*
X71399321Y-54974456D01*
X71163744Y-54911334D01*
X71123333Y-54906013D01*
X70921951Y-54879500D01*
X70921944Y-54879500D01*
X70678056Y-54879500D01*
X70678048Y-54879500D01*
X70447896Y-54909801D01*
X70436256Y-54911334D01*
X70203452Y-54973713D01*
X70200679Y-54974456D01*
X70200669Y-54974459D01*
X69975359Y-55067786D01*
X69975348Y-55067791D01*
X69764151Y-55189727D01*
X69764135Y-55189738D01*
X69570656Y-55338199D01*
X69570649Y-55338205D01*
X69398205Y-55510649D01*
X69398199Y-55510656D01*
X69249738Y-55704135D01*
X69249727Y-55704151D01*
X69127791Y-55915348D01*
X69127786Y-55915359D01*
X69034459Y-56140669D01*
X69034456Y-56140679D01*
X68973428Y-56368443D01*
X68971335Y-56376253D01*
X68971333Y-56376264D01*
X68939500Y-56618048D01*
X63060499Y-56618048D01*
X63028666Y-56376256D01*
X62965544Y-56140679D01*
X62965537Y-56140663D01*
X62899948Y-55982317D01*
X62872212Y-55915356D01*
X62872210Y-55915353D01*
X62872208Y-55915348D01*
X62750272Y-55704151D01*
X62750268Y-55704144D01*
X62601799Y-55510655D01*
X62601794Y-55510649D01*
X62429350Y-55338205D01*
X62429343Y-55338199D01*
X62235864Y-55189738D01*
X62235862Y-55189736D01*
X62235856Y-55189732D01*
X62235851Y-55189729D01*
X62235848Y-55189727D01*
X62024651Y-55067791D01*
X62024640Y-55067786D01*
X61799330Y-54974459D01*
X61799323Y-54974457D01*
X61799321Y-54974456D01*
X61563744Y-54911334D01*
X61523333Y-54906013D01*
X61321951Y-54879500D01*
X61321944Y-54879500D01*
X61078056Y-54879500D01*
X61078048Y-54879500D01*
X60847896Y-54909801D01*
X60836256Y-54911334D01*
X60603452Y-54973713D01*
X60600679Y-54974456D01*
X60600669Y-54974459D01*
X60375359Y-55067786D01*
X60375348Y-55067791D01*
X60164151Y-55189727D01*
X60164135Y-55189738D01*
X59970656Y-55338199D01*
X59970649Y-55338205D01*
X59798205Y-55510649D01*
X59798199Y-55510656D01*
X59649738Y-55704135D01*
X59649727Y-55704151D01*
X59527791Y-55915348D01*
X59527786Y-55915359D01*
X59434459Y-56140669D01*
X59434456Y-56140679D01*
X59373428Y-56368443D01*
X59371335Y-56376253D01*
X59371333Y-56376264D01*
X59339500Y-56618048D01*
X53657944Y-56618048D01*
X53629786Y-56589890D01*
X53457820Y-56464951D01*
X53452805Y-56462396D01*
X53449054Y-56460485D01*
X53398259Y-56412512D01*
X53381463Y-56344692D01*
X53403999Y-56278556D01*
X53449054Y-56239515D01*
X53457816Y-56235051D01*
X53564382Y-56157627D01*
X53629786Y-56110109D01*
X53629788Y-56110106D01*
X53629792Y-56110104D01*
X53780104Y-55959792D01*
X53780106Y-55959788D01*
X53780109Y-55959786D01*
X53905048Y-55787820D01*
X53905047Y-55787820D01*
X53905051Y-55787816D01*
X54001557Y-55598412D01*
X54067246Y-55396243D01*
X54100500Y-55186287D01*
X54100500Y-54973713D01*
X54067246Y-54763757D01*
X54001557Y-54561588D01*
X53905051Y-54372184D01*
X53905049Y-54372181D01*
X53905048Y-54372179D01*
X53780109Y-54200213D01*
X53629786Y-54049890D01*
X53457820Y-53924951D01*
X53457115Y-53924591D01*
X53449054Y-53920485D01*
X53445449Y-53917079D01*
X53440659Y-53915789D01*
X53420298Y-53893326D01*
X53398259Y-53872512D01*
X53397066Y-53867696D01*
X53393735Y-53864021D01*
X53388750Y-53834118D01*
X53381463Y-53804692D01*
X53383062Y-53799996D01*
X53382247Y-53795102D01*
X53394222Y-53767247D01*
X53403999Y-53738556D01*
X53408419Y-53734225D01*
X53409843Y-53730914D01*
X53420549Y-53722340D01*
X53435993Y-53707210D01*
X53442285Y-53702964D01*
X53457816Y-53695051D01*
X53507354Y-53659059D01*
X53507364Y-53659053D01*
X53629785Y-53570109D01*
X53629783Y-53570109D01*
X53629792Y-53570104D01*
X53780104Y-53419792D01*
X53780106Y-53419788D01*
X53780109Y-53419786D01*
X53905048Y-53247820D01*
X53905047Y-53247820D01*
X53905051Y-53247816D01*
X54001557Y-53058412D01*
X54067246Y-52856243D01*
X54100500Y-52646287D01*
X54100500Y-52433713D01*
X54067246Y-52223757D01*
X54051555Y-52175466D01*
X87187000Y-52175466D01*
X87187000Y-52424533D01*
X87219508Y-52671463D01*
X87283973Y-52912049D01*
X87379283Y-53142148D01*
X87379288Y-53142159D01*
X87503813Y-53357841D01*
X87503819Y-53357849D01*
X87578400Y-53455045D01*
X88296521Y-52736923D01*
X88387924Y-52873717D01*
X88513283Y-52999076D01*
X88650074Y-53090477D01*
X87931953Y-53808598D01*
X88029150Y-53883180D01*
X88029158Y-53883186D01*
X88244840Y-54007711D01*
X88244851Y-54007716D01*
X88474950Y-54103026D01*
X88715536Y-54167491D01*
X88962466Y-54200000D01*
X89211534Y-54200000D01*
X89458463Y-54167491D01*
X89699049Y-54103026D01*
X89929148Y-54007716D01*
X89929159Y-54007711D01*
X90144855Y-53883178D01*
X90242045Y-53808600D01*
X90242045Y-53808597D01*
X89523924Y-53090477D01*
X89660717Y-52999076D01*
X89786076Y-52873717D01*
X89877477Y-52736924D01*
X90595597Y-53455045D01*
X90595600Y-53455045D01*
X90670178Y-53357855D01*
X90794711Y-53142159D01*
X90794716Y-53142148D01*
X90890026Y-52912049D01*
X90954491Y-52671463D01*
X90987000Y-52424533D01*
X90987000Y-52175466D01*
X92013000Y-52175466D01*
X92013000Y-52424533D01*
X92045508Y-52671463D01*
X92109973Y-52912049D01*
X92205283Y-53142148D01*
X92205288Y-53142159D01*
X92329813Y-53357841D01*
X92329819Y-53357849D01*
X92404400Y-53455045D01*
X93122521Y-52736923D01*
X93213924Y-52873717D01*
X93339283Y-52999076D01*
X93476074Y-53090477D01*
X92757953Y-53808598D01*
X92855150Y-53883180D01*
X92855158Y-53883186D01*
X93070840Y-54007711D01*
X93070851Y-54007716D01*
X93300950Y-54103026D01*
X93541536Y-54167491D01*
X93788466Y-54200000D01*
X94037534Y-54200000D01*
X94284463Y-54167491D01*
X94525049Y-54103026D01*
X94755148Y-54007716D01*
X94755159Y-54007711D01*
X94970855Y-53883178D01*
X95068045Y-53808600D01*
X95068045Y-53808597D01*
X94349924Y-53090477D01*
X94486717Y-52999076D01*
X94612076Y-52873717D01*
X94703477Y-52736925D01*
X95421597Y-53455045D01*
X95421600Y-53455045D01*
X95496178Y-53357855D01*
X95620711Y-53142159D01*
X95620716Y-53142148D01*
X95716026Y-52912049D01*
X95780491Y-52671463D01*
X95813000Y-52424533D01*
X95813000Y-52175466D01*
X95780491Y-51928536D01*
X95716026Y-51687950D01*
X95620716Y-51457851D01*
X95620711Y-51457840D01*
X95496186Y-51242158D01*
X95496180Y-51242150D01*
X95421598Y-51144953D01*
X94703477Y-51863074D01*
X94612076Y-51726283D01*
X94486717Y-51600924D01*
X94349923Y-51509521D01*
X95068045Y-50791400D01*
X94970849Y-50716819D01*
X94970841Y-50716813D01*
X94755159Y-50592288D01*
X94755148Y-50592283D01*
X94525049Y-50496973D01*
X94284463Y-50432508D01*
X94037534Y-50400000D01*
X93788466Y-50400000D01*
X93541536Y-50432508D01*
X93300950Y-50496973D01*
X93070851Y-50592283D01*
X93070847Y-50592285D01*
X92855143Y-50716823D01*
X92757953Y-50791399D01*
X92757953Y-50791400D01*
X93476075Y-51509522D01*
X93339283Y-51600924D01*
X93213924Y-51726283D01*
X93122522Y-51863075D01*
X92404400Y-51144953D01*
X92404399Y-51144953D01*
X92329823Y-51242143D01*
X92205285Y-51457847D01*
X92205283Y-51457851D01*
X92109973Y-51687950D01*
X92045508Y-51928536D01*
X92013000Y-52175466D01*
X90987000Y-52175466D01*
X90954491Y-51928536D01*
X90890026Y-51687950D01*
X90794716Y-51457851D01*
X90794711Y-51457840D01*
X90670186Y-51242158D01*
X90670180Y-51242150D01*
X90595598Y-51144953D01*
X89877477Y-51863074D01*
X89786076Y-51726283D01*
X89660717Y-51600924D01*
X89523923Y-51509521D01*
X90242045Y-50791400D01*
X90144849Y-50716819D01*
X90144841Y-50716813D01*
X89929159Y-50592288D01*
X89929148Y-50592283D01*
X89699049Y-50496973D01*
X89458463Y-50432508D01*
X89211534Y-50400000D01*
X88962466Y-50400000D01*
X88715536Y-50432508D01*
X88474950Y-50496973D01*
X88244851Y-50592283D01*
X88244847Y-50592285D01*
X88029143Y-50716823D01*
X87931953Y-50791399D01*
X87931953Y-50791400D01*
X88650075Y-51509522D01*
X88513283Y-51600924D01*
X88387924Y-51726283D01*
X88296522Y-51863075D01*
X87578400Y-51144953D01*
X87578399Y-51144953D01*
X87503823Y-51242143D01*
X87379285Y-51457847D01*
X87379283Y-51457851D01*
X87283973Y-51687950D01*
X87219508Y-51928536D01*
X87187000Y-52175466D01*
X54051555Y-52175466D01*
X54001557Y-52021588D01*
X53905051Y-51832184D01*
X53905049Y-51832181D01*
X53905048Y-51832179D01*
X53780109Y-51660213D01*
X53666181Y-51546285D01*
X53632696Y-51484962D01*
X53637680Y-51415270D01*
X53679552Y-51359337D01*
X53710529Y-51342422D01*
X53842086Y-51293354D01*
X53842093Y-51293350D01*
X53957187Y-51207190D01*
X53957190Y-51207187D01*
X54043350Y-51092093D01*
X54043354Y-51092086D01*
X54093596Y-50957379D01*
X54093598Y-50957372D01*
X54099999Y-50897844D01*
X54100000Y-50897827D01*
X54100000Y-50250000D01*
X53183012Y-50250000D01*
X53213237Y-50197648D01*
X60889500Y-50197648D01*
X60889500Y-50402351D01*
X60921522Y-50604534D01*
X60984781Y-50799223D01*
X61077715Y-50981613D01*
X61198028Y-51147213D01*
X61342786Y-51291971D01*
X61470762Y-51384949D01*
X61508390Y-51412287D01*
X61624607Y-51471503D01*
X61690776Y-51505218D01*
X61690778Y-51505218D01*
X61690781Y-51505220D01*
X61795137Y-51539127D01*
X61885465Y-51568477D01*
X61986557Y-51584488D01*
X62087648Y-51600500D01*
X62087649Y-51600500D01*
X62292351Y-51600500D01*
X62292352Y-51600500D01*
X62494534Y-51568477D01*
X62689219Y-51505220D01*
X62871610Y-51412287D01*
X63035309Y-51293354D01*
X63037213Y-51291971D01*
X63037215Y-51291968D01*
X63037219Y-51291966D01*
X63181966Y-51147219D01*
X63181968Y-51147215D01*
X63181971Y-51147213D01*
X63234732Y-51074590D01*
X63302287Y-50981610D01*
X63395220Y-50799219D01*
X63458477Y-50604534D01*
X63490500Y-50402352D01*
X63490500Y-50197648D01*
X68509500Y-50197648D01*
X68509500Y-50402351D01*
X68541522Y-50604534D01*
X68604781Y-50799223D01*
X68697715Y-50981613D01*
X68818028Y-51147213D01*
X68962786Y-51291971D01*
X69090762Y-51384949D01*
X69128390Y-51412287D01*
X69244607Y-51471503D01*
X69310776Y-51505218D01*
X69310778Y-51505218D01*
X69310781Y-51505220D01*
X69415137Y-51539127D01*
X69505465Y-51568477D01*
X69606557Y-51584488D01*
X69707648Y-51600500D01*
X69707649Y-51600500D01*
X69912351Y-51600500D01*
X69912352Y-51600500D01*
X70114534Y-51568477D01*
X70309219Y-51505220D01*
X70491610Y-51412287D01*
X70655309Y-51293354D01*
X70657213Y-51291971D01*
X70657215Y-51291968D01*
X70657219Y-51291966D01*
X70801966Y-51147219D01*
X70801968Y-51147215D01*
X70801971Y-51147213D01*
X70854732Y-51074590D01*
X70922287Y-50981610D01*
X71015220Y-50799219D01*
X71078477Y-50604534D01*
X71110500Y-50402352D01*
X71110500Y-50197648D01*
X71078477Y-49995466D01*
X71015220Y-49800781D01*
X71015218Y-49800778D01*
X71015218Y-49800776D01*
X70960299Y-49692993D01*
X70922287Y-49618390D01*
X70908854Y-49599901D01*
X70801971Y-49452786D01*
X70657213Y-49308028D01*
X70491613Y-49187715D01*
X70491612Y-49187714D01*
X70491610Y-49187713D01*
X70434653Y-49158691D01*
X70309223Y-49094781D01*
X70114534Y-49031522D01*
X69939995Y-49003878D01*
X69912352Y-48999500D01*
X69707648Y-48999500D01*
X69683329Y-49003351D01*
X69505465Y-49031522D01*
X69310776Y-49094781D01*
X69128386Y-49187715D01*
X68962786Y-49308028D01*
X68818028Y-49452786D01*
X68697715Y-49618386D01*
X68604781Y-49800776D01*
X68541522Y-49995465D01*
X68509500Y-50197648D01*
X63490500Y-50197648D01*
X63458477Y-49995466D01*
X63395220Y-49800781D01*
X63395218Y-49800778D01*
X63395218Y-49800776D01*
X63340299Y-49692993D01*
X63302287Y-49618390D01*
X63288854Y-49599901D01*
X63181971Y-49452786D01*
X63037213Y-49308028D01*
X62871613Y-49187715D01*
X62871612Y-49187714D01*
X62871610Y-49187713D01*
X62814653Y-49158691D01*
X62689223Y-49094781D01*
X62494534Y-49031522D01*
X62319995Y-49003878D01*
X62292352Y-48999500D01*
X62087648Y-48999500D01*
X62063329Y-49003351D01*
X61885465Y-49031522D01*
X61690776Y-49094781D01*
X61508386Y-49187715D01*
X61342786Y-49308028D01*
X61198028Y-49452786D01*
X61077715Y-49618386D01*
X60984781Y-49800776D01*
X60921522Y-49995465D01*
X60889500Y-50197648D01*
X53213237Y-50197648D01*
X53215925Y-50192993D01*
X53250000Y-50065826D01*
X53250000Y-49934174D01*
X53215925Y-49807007D01*
X53183012Y-49750000D01*
X54100000Y-49750000D01*
X54100000Y-49102172D01*
X54099999Y-49102155D01*
X54093598Y-49042627D01*
X54093596Y-49042620D01*
X54043354Y-48907913D01*
X54043350Y-48907906D01*
X53957190Y-48792812D01*
X53957187Y-48792809D01*
X53842093Y-48706649D01*
X53842086Y-48706645D01*
X53707379Y-48656403D01*
X53707372Y-48656401D01*
X53647844Y-48650000D01*
X53000000Y-48650000D01*
X53000000Y-49566988D01*
X52942993Y-49534075D01*
X52815826Y-49500000D01*
X52684174Y-49500000D01*
X52557007Y-49534075D01*
X52500000Y-49566988D01*
X52500000Y-48650000D01*
X51852155Y-48650000D01*
X51792627Y-48656401D01*
X51792617Y-48656403D01*
X51667832Y-48702945D01*
X51598141Y-48707929D01*
X51536818Y-48674443D01*
X51503334Y-48613120D01*
X51500500Y-48586763D01*
X51500500Y-43124500D01*
X51520185Y-43057461D01*
X51572989Y-43011706D01*
X51624500Y-43000500D01*
X98375500Y-43000500D01*
X98442539Y-43020185D01*
G37*
%TD.AperFunction*%
%TA.AperFunction,Conductor*%
G36*
X98461920Y-144041708D02*
G01*
X98496277Y-144102547D01*
X98499500Y-144130633D01*
X98499500Y-144898639D01*
X98479815Y-144965678D01*
X98427011Y-145011433D01*
X98365771Y-145022257D01*
X98315269Y-145018282D01*
X97682962Y-145650590D01*
X97665925Y-145587007D01*
X97600099Y-145472993D01*
X97507007Y-145379901D01*
X97392993Y-145314075D01*
X97329409Y-145297037D01*
X97961716Y-144664728D01*
X97907547Y-144625373D01*
X97907547Y-144625372D01*
X97898500Y-144620763D01*
X97847706Y-144572788D01*
X97830912Y-144504966D01*
X97853451Y-144438832D01*
X97898508Y-144399793D01*
X97907816Y-144395051D01*
X97987007Y-144337515D01*
X98079786Y-144270109D01*
X98079788Y-144270106D01*
X98079792Y-144270104D01*
X98230104Y-144119792D01*
X98275181Y-144057747D01*
X98330511Y-144015082D01*
X98400124Y-144009103D01*
X98461920Y-144041708D01*
G37*
%TD.AperFunction*%
%TA.AperFunction,Conductor*%
G36*
X52284075Y-117432993D02*
G01*
X52349901Y-117547007D01*
X52442993Y-117640099D01*
X52557007Y-117705925D01*
X52620590Y-117722962D01*
X51988282Y-118355269D01*
X51988282Y-118355270D01*
X52042452Y-118394626D01*
X52052048Y-118399516D01*
X52102844Y-118447491D01*
X52119638Y-118515312D01*
X52097100Y-118581447D01*
X52052051Y-118620483D01*
X52042440Y-118625380D01*
X51988282Y-118664727D01*
X51988282Y-118664728D01*
X52620591Y-119297037D01*
X52557007Y-119314075D01*
X52442993Y-119379901D01*
X52349901Y-119472993D01*
X52284075Y-119587007D01*
X52267037Y-119650591D01*
X51634727Y-119018281D01*
X51634228Y-119018321D01*
X51565851Y-119003956D01*
X51516095Y-118954905D01*
X51500500Y-118894703D01*
X51500500Y-118125295D01*
X51520185Y-118058256D01*
X51572989Y-118012501D01*
X51634230Y-118001677D01*
X51634728Y-118001716D01*
X52267037Y-117369408D01*
X52284075Y-117432993D01*
G37*
%TD.AperFunction*%
%TA.AperFunction,Conductor*%
G36*
X51705703Y-115565316D02*
G01*
X51718786Y-115578493D01*
X51719893Y-115579789D01*
X51870213Y-115730109D01*
X52042179Y-115855048D01*
X52042181Y-115855049D01*
X52042184Y-115855051D01*
X52051493Y-115859794D01*
X52102290Y-115907766D01*
X52119087Y-115975587D01*
X52096552Y-116041722D01*
X52051505Y-116080760D01*
X52042446Y-116085376D01*
X52042440Y-116085380D01*
X51988282Y-116124727D01*
X51988282Y-116124728D01*
X52620591Y-116757037D01*
X52557007Y-116774075D01*
X52442993Y-116839901D01*
X52349901Y-116932993D01*
X52284075Y-117047007D01*
X52267037Y-117110591D01*
X51634727Y-116478281D01*
X51634228Y-116478321D01*
X51565851Y-116463956D01*
X51516095Y-116414905D01*
X51500500Y-116354703D01*
X51500500Y-115659029D01*
X51520185Y-115591990D01*
X51572989Y-115546235D01*
X51642147Y-115536291D01*
X51705703Y-115565316D01*
G37*
%TD.AperFunction*%
%TA.AperFunction,Conductor*%
G36*
X98461920Y-92041708D02*
G01*
X98496277Y-92102547D01*
X98499500Y-92130633D01*
X98499500Y-92898639D01*
X98479815Y-92965678D01*
X98427011Y-93011433D01*
X98365771Y-93022257D01*
X98315269Y-93018282D01*
X97682962Y-93650590D01*
X97665925Y-93587007D01*
X97600099Y-93472993D01*
X97507007Y-93379901D01*
X97392993Y-93314075D01*
X97329409Y-93297037D01*
X97961716Y-92664728D01*
X97907547Y-92625373D01*
X97907547Y-92625372D01*
X97898500Y-92620763D01*
X97847706Y-92572788D01*
X97830912Y-92504966D01*
X97853451Y-92438832D01*
X97898508Y-92399793D01*
X97907816Y-92395051D01*
X97987007Y-92337515D01*
X98079786Y-92270109D01*
X98079788Y-92270106D01*
X98079792Y-92270104D01*
X98230104Y-92119792D01*
X98275181Y-92057747D01*
X98330511Y-92015082D01*
X98400124Y-92009103D01*
X98461920Y-92041708D01*
G37*
%TD.AperFunction*%
%TA.AperFunction,Conductor*%
G36*
X52284075Y-65432993D02*
G01*
X52349901Y-65547007D01*
X52442993Y-65640099D01*
X52557007Y-65705925D01*
X52620590Y-65722962D01*
X51988282Y-66355269D01*
X51988282Y-66355270D01*
X52042452Y-66394626D01*
X52052048Y-66399516D01*
X52102844Y-66447491D01*
X52119638Y-66515312D01*
X52097100Y-66581447D01*
X52052051Y-66620483D01*
X52042440Y-66625380D01*
X51988282Y-66664727D01*
X51988282Y-66664728D01*
X52620591Y-67297037D01*
X52557007Y-67314075D01*
X52442993Y-67379901D01*
X52349901Y-67472993D01*
X52284075Y-67587007D01*
X52267037Y-67650591D01*
X51634727Y-67018281D01*
X51634228Y-67018321D01*
X51565851Y-67003956D01*
X51516095Y-66954905D01*
X51500500Y-66894703D01*
X51500500Y-66125295D01*
X51520185Y-66058256D01*
X51572989Y-66012501D01*
X51634230Y-66001677D01*
X51634728Y-66001716D01*
X52267037Y-65369408D01*
X52284075Y-65432993D01*
G37*
%TD.AperFunction*%
%TA.AperFunction,Conductor*%
G36*
X51705703Y-63565316D02*
G01*
X51718786Y-63578493D01*
X51719893Y-63579789D01*
X51870213Y-63730109D01*
X52042179Y-63855048D01*
X52042181Y-63855049D01*
X52042184Y-63855051D01*
X52051493Y-63859794D01*
X52102290Y-63907766D01*
X52119087Y-63975587D01*
X52096552Y-64041722D01*
X52051505Y-64080760D01*
X52042446Y-64085376D01*
X52042440Y-64085380D01*
X51988282Y-64124727D01*
X51988282Y-64124728D01*
X52620591Y-64757037D01*
X52557007Y-64774075D01*
X52442993Y-64839901D01*
X52349901Y-64932993D01*
X52284075Y-65047007D01*
X52267037Y-65110591D01*
X51634727Y-64478281D01*
X51634228Y-64478321D01*
X51565851Y-64463956D01*
X51516095Y-64414905D01*
X51500500Y-64354703D01*
X51500500Y-63659029D01*
X51520185Y-63591990D01*
X51572989Y-63546235D01*
X51642147Y-63536291D01*
X51705703Y-63565316D01*
G37*
%TD.AperFunction*%
%TD*%
M02*
