%TF.GenerationSoftware,KiCad,Pcbnew,9.0.7*%
%TF.CreationDate,2026-02-21T19:46:41+01:00*%
%TF.ProjectId,DMH_Slew_PCB_2_v3,444d485f-536c-4657-975f-5043425f325f,1*%
%TF.SameCoordinates,Original*%
%TF.FileFunction,Legend,Top*%
%TF.FilePolarity,Positive*%
%FSLAX46Y46*%
G04 Gerber Fmt 4.6, Leading zero omitted, Abs format (unit mm)*
G04 Created by KiCad (PCBNEW 9.0.7) date 2026-02-21 19:46:41*
%MOMM*%
%LPD*%
G01*
G04 APERTURE LIST*
%ADD10C,0.150000*%
%ADD11C,0.120000*%
%ADD12C,2.800000*%
%ADD13R,1.800000X1.800000*%
%ADD14C,1.800000*%
%ADD15C,1.600000*%
%ADD16O,2.720000X3.240000*%
%ADD17R,1.700000X1.700000*%
%ADD18C,1.700000*%
G04 APERTURE END LIST*
D10*
X57166667Y-168707200D02*
X57309524Y-168754819D01*
X57309524Y-168754819D02*
X57547619Y-168754819D01*
X57547619Y-168754819D02*
X57642857Y-168707200D01*
X57642857Y-168707200D02*
X57690476Y-168659580D01*
X57690476Y-168659580D02*
X57738095Y-168564342D01*
X57738095Y-168564342D02*
X57738095Y-168469104D01*
X57738095Y-168469104D02*
X57690476Y-168373866D01*
X57690476Y-168373866D02*
X57642857Y-168326247D01*
X57642857Y-168326247D02*
X57547619Y-168278628D01*
X57547619Y-168278628D02*
X57357143Y-168231009D01*
X57357143Y-168231009D02*
X57261905Y-168183390D01*
X57261905Y-168183390D02*
X57214286Y-168135771D01*
X57214286Y-168135771D02*
X57166667Y-168040533D01*
X57166667Y-168040533D02*
X57166667Y-167945295D01*
X57166667Y-167945295D02*
X57214286Y-167850057D01*
X57214286Y-167850057D02*
X57261905Y-167802438D01*
X57261905Y-167802438D02*
X57357143Y-167754819D01*
X57357143Y-167754819D02*
X57595238Y-167754819D01*
X57595238Y-167754819D02*
X57738095Y-167802438D01*
X58071429Y-167754819D02*
X58309524Y-168754819D01*
X58309524Y-168754819D02*
X58500000Y-168040533D01*
X58500000Y-168040533D02*
X58690476Y-168754819D01*
X58690476Y-168754819D02*
X58928572Y-167754819D01*
X59738095Y-167754819D02*
X59547619Y-167754819D01*
X59547619Y-167754819D02*
X59452381Y-167802438D01*
X59452381Y-167802438D02*
X59404762Y-167850057D01*
X59404762Y-167850057D02*
X59309524Y-167992914D01*
X59309524Y-167992914D02*
X59261905Y-168183390D01*
X59261905Y-168183390D02*
X59261905Y-168564342D01*
X59261905Y-168564342D02*
X59309524Y-168659580D01*
X59309524Y-168659580D02*
X59357143Y-168707200D01*
X59357143Y-168707200D02*
X59452381Y-168754819D01*
X59452381Y-168754819D02*
X59642857Y-168754819D01*
X59642857Y-168754819D02*
X59738095Y-168707200D01*
X59738095Y-168707200D02*
X59785714Y-168659580D01*
X59785714Y-168659580D02*
X59833333Y-168564342D01*
X59833333Y-168564342D02*
X59833333Y-168326247D01*
X59833333Y-168326247D02*
X59785714Y-168231009D01*
X59785714Y-168231009D02*
X59738095Y-168183390D01*
X59738095Y-168183390D02*
X59642857Y-168135771D01*
X59642857Y-168135771D02*
X59452381Y-168135771D01*
X59452381Y-168135771D02*
X59357143Y-168183390D01*
X59357143Y-168183390D02*
X59309524Y-168231009D01*
X59309524Y-168231009D02*
X59261905Y-168326247D01*
X54107200Y-180795238D02*
X54154819Y-180652381D01*
X54154819Y-180652381D02*
X54154819Y-180414286D01*
X54154819Y-180414286D02*
X54107200Y-180319048D01*
X54107200Y-180319048D02*
X54059580Y-180271429D01*
X54059580Y-180271429D02*
X53964342Y-180223810D01*
X53964342Y-180223810D02*
X53869104Y-180223810D01*
X53869104Y-180223810D02*
X53773866Y-180271429D01*
X53773866Y-180271429D02*
X53726247Y-180319048D01*
X53726247Y-180319048D02*
X53678628Y-180414286D01*
X53678628Y-180414286D02*
X53631009Y-180604762D01*
X53631009Y-180604762D02*
X53583390Y-180700000D01*
X53583390Y-180700000D02*
X53535771Y-180747619D01*
X53535771Y-180747619D02*
X53440533Y-180795238D01*
X53440533Y-180795238D02*
X53345295Y-180795238D01*
X53345295Y-180795238D02*
X53250057Y-180747619D01*
X53250057Y-180747619D02*
X53202438Y-180700000D01*
X53202438Y-180700000D02*
X53154819Y-180604762D01*
X53154819Y-180604762D02*
X53154819Y-180366667D01*
X53154819Y-180366667D02*
X53202438Y-180223810D01*
X54154819Y-179795238D02*
X53154819Y-179795238D01*
X53154819Y-179795238D02*
X53154819Y-179414286D01*
X53154819Y-179414286D02*
X53202438Y-179319048D01*
X53202438Y-179319048D02*
X53250057Y-179271429D01*
X53250057Y-179271429D02*
X53345295Y-179223810D01*
X53345295Y-179223810D02*
X53488152Y-179223810D01*
X53488152Y-179223810D02*
X53583390Y-179271429D01*
X53583390Y-179271429D02*
X53631009Y-179319048D01*
X53631009Y-179319048D02*
X53678628Y-179414286D01*
X53678628Y-179414286D02*
X53678628Y-179795238D01*
X54154819Y-178795238D02*
X53154819Y-178795238D01*
X53154819Y-178795238D02*
X53154819Y-178557143D01*
X53154819Y-178557143D02*
X53202438Y-178414286D01*
X53202438Y-178414286D02*
X53297676Y-178319048D01*
X53297676Y-178319048D02*
X53392914Y-178271429D01*
X53392914Y-178271429D02*
X53583390Y-178223810D01*
X53583390Y-178223810D02*
X53726247Y-178223810D01*
X53726247Y-178223810D02*
X53916723Y-178271429D01*
X53916723Y-178271429D02*
X54011961Y-178319048D01*
X54011961Y-178319048D02*
X54107200Y-178414286D01*
X54107200Y-178414286D02*
X54154819Y-178557143D01*
X54154819Y-178557143D02*
X54154819Y-178795238D01*
X53154819Y-177938095D02*
X53154819Y-177366667D01*
X54154819Y-177652381D02*
X53154819Y-177652381D01*
X54250057Y-177271429D02*
X54250057Y-176509524D01*
X53154819Y-176080952D02*
X53154819Y-175890476D01*
X53154819Y-175890476D02*
X53202438Y-175795238D01*
X53202438Y-175795238D02*
X53297676Y-175700000D01*
X53297676Y-175700000D02*
X53488152Y-175652381D01*
X53488152Y-175652381D02*
X53821485Y-175652381D01*
X53821485Y-175652381D02*
X54011961Y-175700000D01*
X54011961Y-175700000D02*
X54107200Y-175795238D01*
X54107200Y-175795238D02*
X54154819Y-175890476D01*
X54154819Y-175890476D02*
X54154819Y-176080952D01*
X54154819Y-176080952D02*
X54107200Y-176176190D01*
X54107200Y-176176190D02*
X54011961Y-176271428D01*
X54011961Y-176271428D02*
X53821485Y-176319047D01*
X53821485Y-176319047D02*
X53488152Y-176319047D01*
X53488152Y-176319047D02*
X53297676Y-176271428D01*
X53297676Y-176271428D02*
X53202438Y-176176190D01*
X53202438Y-176176190D02*
X53154819Y-176080952D01*
X53488152Y-175223809D02*
X54154819Y-175223809D01*
X53583390Y-175223809D02*
X53535771Y-175176190D01*
X53535771Y-175176190D02*
X53488152Y-175080952D01*
X53488152Y-175080952D02*
X53488152Y-174938095D01*
X53488152Y-174938095D02*
X53535771Y-174842857D01*
X53535771Y-174842857D02*
X53631009Y-174795238D01*
X53631009Y-174795238D02*
X54154819Y-174795238D01*
X53154819Y-174128571D02*
X53154819Y-173938095D01*
X53154819Y-173938095D02*
X53202438Y-173842857D01*
X53202438Y-173842857D02*
X53297676Y-173747619D01*
X53297676Y-173747619D02*
X53488152Y-173700000D01*
X53488152Y-173700000D02*
X53821485Y-173700000D01*
X53821485Y-173700000D02*
X54011961Y-173747619D01*
X54011961Y-173747619D02*
X54107200Y-173842857D01*
X54107200Y-173842857D02*
X54154819Y-173938095D01*
X54154819Y-173938095D02*
X54154819Y-174128571D01*
X54154819Y-174128571D02*
X54107200Y-174223809D01*
X54107200Y-174223809D02*
X54011961Y-174319047D01*
X54011961Y-174319047D02*
X53821485Y-174366666D01*
X53821485Y-174366666D02*
X53488152Y-174366666D01*
X53488152Y-174366666D02*
X53297676Y-174319047D01*
X53297676Y-174319047D02*
X53202438Y-174223809D01*
X53202438Y-174223809D02*
X53154819Y-174128571D01*
X53488152Y-173414285D02*
X53488152Y-173033333D01*
X54154819Y-173271428D02*
X53297676Y-173271428D01*
X53297676Y-173271428D02*
X53202438Y-173223809D01*
X53202438Y-173223809D02*
X53154819Y-173128571D01*
X53154819Y-173128571D02*
X53154819Y-173033333D01*
X53488152Y-172842856D02*
X53488152Y-172461904D01*
X54154819Y-172699999D02*
X53297676Y-172699999D01*
X53297676Y-172699999D02*
X53202438Y-172652380D01*
X53202438Y-172652380D02*
X53154819Y-172557142D01*
X53154819Y-172557142D02*
X53154819Y-172461904D01*
X53154819Y-171938094D02*
X53154819Y-171747618D01*
X53154819Y-171747618D02*
X53202438Y-171652380D01*
X53202438Y-171652380D02*
X53297676Y-171557142D01*
X53297676Y-171557142D02*
X53488152Y-171509523D01*
X53488152Y-171509523D02*
X53821485Y-171509523D01*
X53821485Y-171509523D02*
X54011961Y-171557142D01*
X54011961Y-171557142D02*
X54107200Y-171652380D01*
X54107200Y-171652380D02*
X54154819Y-171747618D01*
X54154819Y-171747618D02*
X54154819Y-171938094D01*
X54154819Y-171938094D02*
X54107200Y-172033332D01*
X54107200Y-172033332D02*
X54011961Y-172128570D01*
X54011961Y-172128570D02*
X53821485Y-172176189D01*
X53821485Y-172176189D02*
X53488152Y-172176189D01*
X53488152Y-172176189D02*
X53297676Y-172128570D01*
X53297676Y-172128570D02*
X53202438Y-172033332D01*
X53202438Y-172033332D02*
X53154819Y-171938094D01*
X53488152Y-171080951D02*
X54154819Y-171080951D01*
X53583390Y-171080951D02*
X53535771Y-171033332D01*
X53535771Y-171033332D02*
X53488152Y-170938094D01*
X53488152Y-170938094D02*
X53488152Y-170795237D01*
X53488152Y-170795237D02*
X53535771Y-170699999D01*
X53535771Y-170699999D02*
X53631009Y-170652380D01*
X53631009Y-170652380D02*
X54154819Y-170652380D01*
X63454819Y-178163095D02*
X62978628Y-178436905D01*
X63454819Y-178734524D02*
X62454819Y-178609524D01*
X62454819Y-178609524D02*
X62454819Y-178228571D01*
X62454819Y-178228571D02*
X62502438Y-178139286D01*
X62502438Y-178139286D02*
X62550057Y-178097619D01*
X62550057Y-178097619D02*
X62645295Y-178061905D01*
X62645295Y-178061905D02*
X62788152Y-178079762D01*
X62788152Y-178079762D02*
X62883390Y-178139286D01*
X62883390Y-178139286D02*
X62931009Y-178192857D01*
X62931009Y-178192857D02*
X62978628Y-178294047D01*
X62978628Y-178294047D02*
X62978628Y-178675000D01*
X63454819Y-177305952D02*
X62931009Y-177240476D01*
X62931009Y-177240476D02*
X62835771Y-177276190D01*
X62835771Y-177276190D02*
X62788152Y-177365476D01*
X62788152Y-177365476D02*
X62788152Y-177555952D01*
X62788152Y-177555952D02*
X62835771Y-177657143D01*
X63407200Y-177300000D02*
X63454819Y-177401190D01*
X63454819Y-177401190D02*
X63454819Y-177639286D01*
X63454819Y-177639286D02*
X63407200Y-177728571D01*
X63407200Y-177728571D02*
X63311961Y-177764286D01*
X63311961Y-177764286D02*
X63216723Y-177752381D01*
X63216723Y-177752381D02*
X63121485Y-177692857D01*
X63121485Y-177692857D02*
X63073866Y-177591667D01*
X63073866Y-177591667D02*
X63073866Y-177353571D01*
X63073866Y-177353571D02*
X63026247Y-177252381D01*
X62788152Y-176746428D02*
X63454819Y-176829762D01*
X62883390Y-176758333D02*
X62835771Y-176704762D01*
X62835771Y-176704762D02*
X62788152Y-176603571D01*
X62788152Y-176603571D02*
X62788152Y-176460714D01*
X62788152Y-176460714D02*
X62835771Y-176371428D01*
X62835771Y-176371428D02*
X62931009Y-176335714D01*
X62931009Y-176335714D02*
X63454819Y-176401190D01*
X62788152Y-175413095D02*
X63597676Y-175514285D01*
X63597676Y-175514285D02*
X63692914Y-175573809D01*
X63692914Y-175573809D02*
X63740533Y-175627381D01*
X63740533Y-175627381D02*
X63788152Y-175728571D01*
X63788152Y-175728571D02*
X63788152Y-175871428D01*
X63788152Y-175871428D02*
X63740533Y-175960714D01*
X63407200Y-175490476D02*
X63454819Y-175591666D01*
X63454819Y-175591666D02*
X63454819Y-175782143D01*
X63454819Y-175782143D02*
X63407200Y-175871428D01*
X63407200Y-175871428D02*
X63359580Y-175913095D01*
X63359580Y-175913095D02*
X63264342Y-175948809D01*
X63264342Y-175948809D02*
X62978628Y-175913095D01*
X62978628Y-175913095D02*
X62883390Y-175853571D01*
X62883390Y-175853571D02*
X62835771Y-175800000D01*
X62835771Y-175800000D02*
X62788152Y-175698809D01*
X62788152Y-175698809D02*
X62788152Y-175508333D01*
X62788152Y-175508333D02*
X62835771Y-175419047D01*
X63407200Y-174633333D02*
X63454819Y-174734523D01*
X63454819Y-174734523D02*
X63454819Y-174925000D01*
X63454819Y-174925000D02*
X63407200Y-175014285D01*
X63407200Y-175014285D02*
X63311961Y-175050000D01*
X63311961Y-175050000D02*
X62931009Y-175002381D01*
X62931009Y-175002381D02*
X62835771Y-174942857D01*
X62835771Y-174942857D02*
X62788152Y-174841666D01*
X62788152Y-174841666D02*
X62788152Y-174651190D01*
X62788152Y-174651190D02*
X62835771Y-174561904D01*
X62835771Y-174561904D02*
X62931009Y-174526190D01*
X62931009Y-174526190D02*
X63026247Y-174538095D01*
X63026247Y-174538095D02*
X63121485Y-175026190D01*
X62931009Y-173002380D02*
X62978628Y-172865475D01*
X62978628Y-172865475D02*
X63026247Y-172823809D01*
X63026247Y-172823809D02*
X63121485Y-172788094D01*
X63121485Y-172788094D02*
X63264342Y-172805952D01*
X63264342Y-172805952D02*
X63359580Y-172865475D01*
X63359580Y-172865475D02*
X63407200Y-172919047D01*
X63407200Y-172919047D02*
X63454819Y-173020237D01*
X63454819Y-173020237D02*
X63454819Y-173401190D01*
X63454819Y-173401190D02*
X62454819Y-173276190D01*
X62454819Y-173276190D02*
X62454819Y-172942856D01*
X62454819Y-172942856D02*
X62502438Y-172853571D01*
X62502438Y-172853571D02*
X62550057Y-172811904D01*
X62550057Y-172811904D02*
X62645295Y-172776190D01*
X62645295Y-172776190D02*
X62740533Y-172788094D01*
X62740533Y-172788094D02*
X62835771Y-172847618D01*
X62835771Y-172847618D02*
X62883390Y-172901190D01*
X62883390Y-172901190D02*
X62931009Y-173002380D01*
X62931009Y-173002380D02*
X62931009Y-173335713D01*
X68261905Y-132494819D02*
X68261905Y-131494819D01*
X68261905Y-131494819D02*
X68500000Y-131494819D01*
X68500000Y-131494819D02*
X68642857Y-131542438D01*
X68642857Y-131542438D02*
X68738095Y-131637676D01*
X68738095Y-131637676D02*
X68785714Y-131732914D01*
X68785714Y-131732914D02*
X68833333Y-131923390D01*
X68833333Y-131923390D02*
X68833333Y-132066247D01*
X68833333Y-132066247D02*
X68785714Y-132256723D01*
X68785714Y-132256723D02*
X68738095Y-132351961D01*
X68738095Y-132351961D02*
X68642857Y-132447200D01*
X68642857Y-132447200D02*
X68500000Y-132494819D01*
X68500000Y-132494819D02*
X68261905Y-132494819D01*
X69309524Y-132494819D02*
X69500000Y-132494819D01*
X69500000Y-132494819D02*
X69595238Y-132447200D01*
X69595238Y-132447200D02*
X69642857Y-132399580D01*
X69642857Y-132399580D02*
X69738095Y-132256723D01*
X69738095Y-132256723D02*
X69785714Y-132066247D01*
X69785714Y-132066247D02*
X69785714Y-131685295D01*
X69785714Y-131685295D02*
X69738095Y-131590057D01*
X69738095Y-131590057D02*
X69690476Y-131542438D01*
X69690476Y-131542438D02*
X69595238Y-131494819D01*
X69595238Y-131494819D02*
X69404762Y-131494819D01*
X69404762Y-131494819D02*
X69309524Y-131542438D01*
X69309524Y-131542438D02*
X69261905Y-131590057D01*
X69261905Y-131590057D02*
X69214286Y-131685295D01*
X69214286Y-131685295D02*
X69214286Y-131923390D01*
X69214286Y-131923390D02*
X69261905Y-132018628D01*
X69261905Y-132018628D02*
X69309524Y-132066247D01*
X69309524Y-132066247D02*
X69404762Y-132113866D01*
X69404762Y-132113866D02*
X69595238Y-132113866D01*
X69595238Y-132113866D02*
X69690476Y-132066247D01*
X69690476Y-132066247D02*
X69738095Y-132018628D01*
X69738095Y-132018628D02*
X69785714Y-131923390D01*
X66666666Y-138414819D02*
X66190476Y-138414819D01*
X66190476Y-138414819D02*
X66190476Y-137414819D01*
X67000000Y-137891009D02*
X67333333Y-137891009D01*
X67476190Y-138414819D02*
X67000000Y-138414819D01*
X67000000Y-138414819D02*
X67000000Y-137414819D01*
X67000000Y-137414819D02*
X67476190Y-137414819D01*
X67904762Y-138414819D02*
X67904762Y-137414819D01*
X67904762Y-137414819D02*
X68142857Y-137414819D01*
X68142857Y-137414819D02*
X68285714Y-137462438D01*
X68285714Y-137462438D02*
X68380952Y-137557676D01*
X68380952Y-137557676D02*
X68428571Y-137652914D01*
X68428571Y-137652914D02*
X68476190Y-137843390D01*
X68476190Y-137843390D02*
X68476190Y-137986247D01*
X68476190Y-137986247D02*
X68428571Y-138176723D01*
X68428571Y-138176723D02*
X68380952Y-138271961D01*
X68380952Y-138271961D02*
X68285714Y-138367200D01*
X68285714Y-138367200D02*
X68142857Y-138414819D01*
X68142857Y-138414819D02*
X67904762Y-138414819D01*
X68666667Y-138510057D02*
X69428571Y-138510057D01*
X70000000Y-137891009D02*
X70142857Y-137938628D01*
X70142857Y-137938628D02*
X70190476Y-137986247D01*
X70190476Y-137986247D02*
X70238095Y-138081485D01*
X70238095Y-138081485D02*
X70238095Y-138224342D01*
X70238095Y-138224342D02*
X70190476Y-138319580D01*
X70190476Y-138319580D02*
X70142857Y-138367200D01*
X70142857Y-138367200D02*
X70047619Y-138414819D01*
X70047619Y-138414819D02*
X69666667Y-138414819D01*
X69666667Y-138414819D02*
X69666667Y-137414819D01*
X69666667Y-137414819D02*
X70000000Y-137414819D01*
X70000000Y-137414819D02*
X70095238Y-137462438D01*
X70095238Y-137462438D02*
X70142857Y-137510057D01*
X70142857Y-137510057D02*
X70190476Y-137605295D01*
X70190476Y-137605295D02*
X70190476Y-137700533D01*
X70190476Y-137700533D02*
X70142857Y-137795771D01*
X70142857Y-137795771D02*
X70095238Y-137843390D01*
X70095238Y-137843390D02*
X70000000Y-137891009D01*
X70000000Y-137891009D02*
X69666667Y-137891009D01*
X70428572Y-138510057D02*
X71190476Y-138510057D01*
X71619048Y-137938628D02*
X71619048Y-138414819D01*
X71285715Y-137414819D02*
X71619048Y-137938628D01*
X71619048Y-137938628D02*
X71952381Y-137414819D01*
X57166667Y-146407200D02*
X57309524Y-146454819D01*
X57309524Y-146454819D02*
X57547619Y-146454819D01*
X57547619Y-146454819D02*
X57642857Y-146407200D01*
X57642857Y-146407200D02*
X57690476Y-146359580D01*
X57690476Y-146359580D02*
X57738095Y-146264342D01*
X57738095Y-146264342D02*
X57738095Y-146169104D01*
X57738095Y-146169104D02*
X57690476Y-146073866D01*
X57690476Y-146073866D02*
X57642857Y-146026247D01*
X57642857Y-146026247D02*
X57547619Y-145978628D01*
X57547619Y-145978628D02*
X57357143Y-145931009D01*
X57357143Y-145931009D02*
X57261905Y-145883390D01*
X57261905Y-145883390D02*
X57214286Y-145835771D01*
X57214286Y-145835771D02*
X57166667Y-145740533D01*
X57166667Y-145740533D02*
X57166667Y-145645295D01*
X57166667Y-145645295D02*
X57214286Y-145550057D01*
X57214286Y-145550057D02*
X57261905Y-145502438D01*
X57261905Y-145502438D02*
X57357143Y-145454819D01*
X57357143Y-145454819D02*
X57595238Y-145454819D01*
X57595238Y-145454819D02*
X57738095Y-145502438D01*
X58071429Y-145454819D02*
X58309524Y-146454819D01*
X58309524Y-146454819D02*
X58500000Y-145740533D01*
X58500000Y-145740533D02*
X58690476Y-146454819D01*
X58690476Y-146454819D02*
X58928572Y-145454819D01*
X59738095Y-145788152D02*
X59738095Y-146454819D01*
X59500000Y-145407200D02*
X59261905Y-146121485D01*
X59261905Y-146121485D02*
X59880952Y-146121485D01*
X53166666Y-144807200D02*
X53309523Y-144854819D01*
X53309523Y-144854819D02*
X53547618Y-144854819D01*
X53547618Y-144854819D02*
X53642856Y-144807200D01*
X53642856Y-144807200D02*
X53690475Y-144759580D01*
X53690475Y-144759580D02*
X53738094Y-144664342D01*
X53738094Y-144664342D02*
X53738094Y-144569104D01*
X53738094Y-144569104D02*
X53690475Y-144473866D01*
X53690475Y-144473866D02*
X53642856Y-144426247D01*
X53642856Y-144426247D02*
X53547618Y-144378628D01*
X53547618Y-144378628D02*
X53357142Y-144331009D01*
X53357142Y-144331009D02*
X53261904Y-144283390D01*
X53261904Y-144283390D02*
X53214285Y-144235771D01*
X53214285Y-144235771D02*
X53166666Y-144140533D01*
X53166666Y-144140533D02*
X53166666Y-144045295D01*
X53166666Y-144045295D02*
X53214285Y-143950057D01*
X53214285Y-143950057D02*
X53261904Y-143902438D01*
X53261904Y-143902438D02*
X53357142Y-143854819D01*
X53357142Y-143854819D02*
X53595237Y-143854819D01*
X53595237Y-143854819D02*
X53738094Y-143902438D01*
X54071428Y-143854819D02*
X54309523Y-144854819D01*
X54309523Y-144854819D02*
X54499999Y-144140533D01*
X54499999Y-144140533D02*
X54690475Y-144854819D01*
X54690475Y-144854819D02*
X54928571Y-143854819D01*
X55071428Y-144950057D02*
X55833332Y-144950057D01*
X56071428Y-144854819D02*
X56071428Y-143854819D01*
X56071428Y-143854819D02*
X56309523Y-143854819D01*
X56309523Y-143854819D02*
X56452380Y-143902438D01*
X56452380Y-143902438D02*
X56547618Y-143997676D01*
X56547618Y-143997676D02*
X56595237Y-144092914D01*
X56595237Y-144092914D02*
X56642856Y-144283390D01*
X56642856Y-144283390D02*
X56642856Y-144426247D01*
X56642856Y-144426247D02*
X56595237Y-144616723D01*
X56595237Y-144616723D02*
X56547618Y-144711961D01*
X56547618Y-144711961D02*
X56452380Y-144807200D01*
X56452380Y-144807200D02*
X56309523Y-144854819D01*
X56309523Y-144854819D02*
X56071428Y-144854819D01*
X57071428Y-144854819D02*
X57071428Y-143854819D01*
X57071428Y-143854819D02*
X57452380Y-143854819D01*
X57452380Y-143854819D02*
X57547618Y-143902438D01*
X57547618Y-143902438D02*
X57595237Y-143950057D01*
X57595237Y-143950057D02*
X57642856Y-144045295D01*
X57642856Y-144045295D02*
X57642856Y-144188152D01*
X57642856Y-144188152D02*
X57595237Y-144283390D01*
X57595237Y-144283390D02*
X57547618Y-144331009D01*
X57547618Y-144331009D02*
X57452380Y-144378628D01*
X57452380Y-144378628D02*
X57071428Y-144378628D01*
X58071428Y-144854819D02*
X58071428Y-143854819D01*
X58071428Y-143854819D02*
X58309523Y-143854819D01*
X58309523Y-143854819D02*
X58452380Y-143902438D01*
X58452380Y-143902438D02*
X58547618Y-143997676D01*
X58547618Y-143997676D02*
X58595237Y-144092914D01*
X58595237Y-144092914D02*
X58642856Y-144283390D01*
X58642856Y-144283390D02*
X58642856Y-144426247D01*
X58642856Y-144426247D02*
X58595237Y-144616723D01*
X58595237Y-144616723D02*
X58547618Y-144711961D01*
X58547618Y-144711961D02*
X58452380Y-144807200D01*
X58452380Y-144807200D02*
X58309523Y-144854819D01*
X58309523Y-144854819D02*
X58071428Y-144854819D01*
X58928571Y-143854819D02*
X59499999Y-143854819D01*
X59214285Y-144854819D02*
X59214285Y-143854819D01*
X59595238Y-144950057D02*
X60357142Y-144950057D01*
X60500000Y-143854819D02*
X61119047Y-143854819D01*
X61119047Y-143854819D02*
X60785714Y-144235771D01*
X60785714Y-144235771D02*
X60928571Y-144235771D01*
X60928571Y-144235771D02*
X61023809Y-144283390D01*
X61023809Y-144283390D02*
X61071428Y-144331009D01*
X61071428Y-144331009D02*
X61119047Y-144426247D01*
X61119047Y-144426247D02*
X61119047Y-144664342D01*
X61119047Y-144664342D02*
X61071428Y-144759580D01*
X61071428Y-144759580D02*
X61023809Y-144807200D01*
X61023809Y-144807200D02*
X60928571Y-144854819D01*
X60928571Y-144854819D02*
X60642857Y-144854819D01*
X60642857Y-144854819D02*
X60547619Y-144807200D01*
X60547619Y-144807200D02*
X60500000Y-144759580D01*
X61452381Y-144188152D02*
X61642857Y-144854819D01*
X61642857Y-144854819D02*
X61833333Y-144378628D01*
X61833333Y-144378628D02*
X62023809Y-144854819D01*
X62023809Y-144854819D02*
X62214285Y-144188152D01*
X63023809Y-144854819D02*
X63023809Y-144331009D01*
X63023809Y-144331009D02*
X62976190Y-144235771D01*
X62976190Y-144235771D02*
X62880952Y-144188152D01*
X62880952Y-144188152D02*
X62690476Y-144188152D01*
X62690476Y-144188152D02*
X62595238Y-144235771D01*
X63023809Y-144807200D02*
X62928571Y-144854819D01*
X62928571Y-144854819D02*
X62690476Y-144854819D01*
X62690476Y-144854819D02*
X62595238Y-144807200D01*
X62595238Y-144807200D02*
X62547619Y-144711961D01*
X62547619Y-144711961D02*
X62547619Y-144616723D01*
X62547619Y-144616723D02*
X62595238Y-144521485D01*
X62595238Y-144521485D02*
X62690476Y-144473866D01*
X62690476Y-144473866D02*
X62928571Y-144473866D01*
X62928571Y-144473866D02*
X63023809Y-144426247D01*
X63404762Y-144188152D02*
X63642857Y-144854819D01*
X63880952Y-144188152D02*
X63642857Y-144854819D01*
X63642857Y-144854819D02*
X63547619Y-145092914D01*
X63547619Y-145092914D02*
X63500000Y-145140533D01*
X63500000Y-145140533D02*
X63404762Y-145188152D01*
X55505952Y-143059580D02*
X55452380Y-143107200D01*
X55452380Y-143107200D02*
X55303571Y-143154819D01*
X55303571Y-143154819D02*
X55208333Y-143154819D01*
X55208333Y-143154819D02*
X55071428Y-143107200D01*
X55071428Y-143107200D02*
X54988095Y-143011961D01*
X54988095Y-143011961D02*
X54952380Y-142916723D01*
X54952380Y-142916723D02*
X54928571Y-142726247D01*
X54928571Y-142726247D02*
X54946428Y-142583390D01*
X54946428Y-142583390D02*
X55017856Y-142392914D01*
X55017856Y-142392914D02*
X55077380Y-142297676D01*
X55077380Y-142297676D02*
X55184523Y-142202438D01*
X55184523Y-142202438D02*
X55333333Y-142154819D01*
X55333333Y-142154819D02*
X55428571Y-142154819D01*
X55428571Y-142154819D02*
X55565476Y-142202438D01*
X55565476Y-142202438D02*
X55607142Y-142250057D01*
X55904761Y-142154819D02*
X56113095Y-143154819D01*
X56113095Y-143154819D02*
X56571428Y-142154819D01*
X57940476Y-142631009D02*
X58077381Y-142678628D01*
X58077381Y-142678628D02*
X58119047Y-142726247D01*
X58119047Y-142726247D02*
X58154762Y-142821485D01*
X58154762Y-142821485D02*
X58136904Y-142964342D01*
X58136904Y-142964342D02*
X58077381Y-143059580D01*
X58077381Y-143059580D02*
X58023809Y-143107200D01*
X58023809Y-143107200D02*
X57922619Y-143154819D01*
X57922619Y-143154819D02*
X57541666Y-143154819D01*
X57541666Y-143154819D02*
X57666666Y-142154819D01*
X57666666Y-142154819D02*
X58000000Y-142154819D01*
X58000000Y-142154819D02*
X58089285Y-142202438D01*
X58089285Y-142202438D02*
X58130952Y-142250057D01*
X58130952Y-142250057D02*
X58166666Y-142345295D01*
X58166666Y-142345295D02*
X58154762Y-142440533D01*
X58154762Y-142440533D02*
X58095238Y-142535771D01*
X58095238Y-142535771D02*
X58041666Y-142583390D01*
X58041666Y-142583390D02*
X57940476Y-142631009D01*
X57940476Y-142631009D02*
X57607143Y-142631009D01*
X59303571Y-143154819D02*
X59428571Y-142154819D01*
X59428571Y-142154819D02*
X59666667Y-142154819D01*
X59666667Y-142154819D02*
X59803571Y-142202438D01*
X59803571Y-142202438D02*
X59886905Y-142297676D01*
X59886905Y-142297676D02*
X59922619Y-142392914D01*
X59922619Y-142392914D02*
X59946429Y-142583390D01*
X59946429Y-142583390D02*
X59928571Y-142726247D01*
X59928571Y-142726247D02*
X59857143Y-142916723D01*
X59857143Y-142916723D02*
X59797619Y-143011961D01*
X59797619Y-143011961D02*
X59690476Y-143107200D01*
X59690476Y-143107200D02*
X59541667Y-143154819D01*
X59541667Y-143154819D02*
X59303571Y-143154819D01*
X60690476Y-143107200D02*
X60589286Y-143154819D01*
X60589286Y-143154819D02*
X60398809Y-143154819D01*
X60398809Y-143154819D02*
X60309524Y-143107200D01*
X60309524Y-143107200D02*
X60273809Y-143011961D01*
X60273809Y-143011961D02*
X60321429Y-142631009D01*
X60321429Y-142631009D02*
X60380952Y-142535771D01*
X60380952Y-142535771D02*
X60482143Y-142488152D01*
X60482143Y-142488152D02*
X60672619Y-142488152D01*
X60672619Y-142488152D02*
X60761905Y-142535771D01*
X60761905Y-142535771D02*
X60797619Y-142631009D01*
X60797619Y-142631009D02*
X60785714Y-142726247D01*
X60785714Y-142726247D02*
X60297619Y-142821485D01*
X61119048Y-143107200D02*
X61208333Y-143154819D01*
X61208333Y-143154819D02*
X61398810Y-143154819D01*
X61398810Y-143154819D02*
X61500000Y-143107200D01*
X61500000Y-143107200D02*
X61559524Y-143011961D01*
X61559524Y-143011961D02*
X61565476Y-142964342D01*
X61565476Y-142964342D02*
X61529762Y-142869104D01*
X61529762Y-142869104D02*
X61440476Y-142821485D01*
X61440476Y-142821485D02*
X61297619Y-142821485D01*
X61297619Y-142821485D02*
X61208333Y-142773866D01*
X61208333Y-142773866D02*
X61172619Y-142678628D01*
X61172619Y-142678628D02*
X61178572Y-142631009D01*
X61178572Y-142631009D02*
X61238095Y-142535771D01*
X61238095Y-142535771D02*
X61339286Y-142488152D01*
X61339286Y-142488152D02*
X61482143Y-142488152D01*
X61482143Y-142488152D02*
X61571429Y-142535771D01*
X61910715Y-142488152D02*
X62291667Y-142488152D01*
X62095238Y-142154819D02*
X61988096Y-143011961D01*
X61988096Y-143011961D02*
X62023810Y-143107200D01*
X62023810Y-143107200D02*
X62113096Y-143154819D01*
X62113096Y-143154819D02*
X62208334Y-143154819D01*
X90166667Y-68407200D02*
X90309524Y-68454819D01*
X90309524Y-68454819D02*
X90547619Y-68454819D01*
X90547619Y-68454819D02*
X90642857Y-68407200D01*
X90642857Y-68407200D02*
X90690476Y-68359580D01*
X90690476Y-68359580D02*
X90738095Y-68264342D01*
X90738095Y-68264342D02*
X90738095Y-68169104D01*
X90738095Y-68169104D02*
X90690476Y-68073866D01*
X90690476Y-68073866D02*
X90642857Y-68026247D01*
X90642857Y-68026247D02*
X90547619Y-67978628D01*
X90547619Y-67978628D02*
X90357143Y-67931009D01*
X90357143Y-67931009D02*
X90261905Y-67883390D01*
X90261905Y-67883390D02*
X90214286Y-67835771D01*
X90214286Y-67835771D02*
X90166667Y-67740533D01*
X90166667Y-67740533D02*
X90166667Y-67645295D01*
X90166667Y-67645295D02*
X90214286Y-67550057D01*
X90214286Y-67550057D02*
X90261905Y-67502438D01*
X90261905Y-67502438D02*
X90357143Y-67454819D01*
X90357143Y-67454819D02*
X90595238Y-67454819D01*
X90595238Y-67454819D02*
X90738095Y-67502438D01*
X91071429Y-67454819D02*
X91309524Y-68454819D01*
X91309524Y-68454819D02*
X91500000Y-67740533D01*
X91500000Y-67740533D02*
X91690476Y-68454819D01*
X91690476Y-68454819D02*
X91928572Y-67454819D01*
X92261905Y-67550057D02*
X92309524Y-67502438D01*
X92309524Y-67502438D02*
X92404762Y-67454819D01*
X92404762Y-67454819D02*
X92642857Y-67454819D01*
X92642857Y-67454819D02*
X92738095Y-67502438D01*
X92738095Y-67502438D02*
X92785714Y-67550057D01*
X92785714Y-67550057D02*
X92833333Y-67645295D01*
X92833333Y-67645295D02*
X92833333Y-67740533D01*
X92833333Y-67740533D02*
X92785714Y-67883390D01*
X92785714Y-67883390D02*
X92214286Y-68454819D01*
X92214286Y-68454819D02*
X92833333Y-68454819D01*
X88380952Y-66807200D02*
X88523809Y-66854819D01*
X88523809Y-66854819D02*
X88761904Y-66854819D01*
X88761904Y-66854819D02*
X88857142Y-66807200D01*
X88857142Y-66807200D02*
X88904761Y-66759580D01*
X88904761Y-66759580D02*
X88952380Y-66664342D01*
X88952380Y-66664342D02*
X88952380Y-66569104D01*
X88952380Y-66569104D02*
X88904761Y-66473866D01*
X88904761Y-66473866D02*
X88857142Y-66426247D01*
X88857142Y-66426247D02*
X88761904Y-66378628D01*
X88761904Y-66378628D02*
X88571428Y-66331009D01*
X88571428Y-66331009D02*
X88476190Y-66283390D01*
X88476190Y-66283390D02*
X88428571Y-66235771D01*
X88428571Y-66235771D02*
X88380952Y-66140533D01*
X88380952Y-66140533D02*
X88380952Y-66045295D01*
X88380952Y-66045295D02*
X88428571Y-65950057D01*
X88428571Y-65950057D02*
X88476190Y-65902438D01*
X88476190Y-65902438D02*
X88571428Y-65854819D01*
X88571428Y-65854819D02*
X88809523Y-65854819D01*
X88809523Y-65854819D02*
X88952380Y-65902438D01*
X89285714Y-65854819D02*
X89523809Y-66854819D01*
X89523809Y-66854819D02*
X89714285Y-66140533D01*
X89714285Y-66140533D02*
X89904761Y-66854819D01*
X89904761Y-66854819D02*
X90142857Y-65854819D01*
X90285714Y-66950057D02*
X91047618Y-66950057D01*
X91285714Y-66854819D02*
X91285714Y-65854819D01*
X91285714Y-65854819D02*
X91523809Y-65854819D01*
X91523809Y-65854819D02*
X91666666Y-65902438D01*
X91666666Y-65902438D02*
X91761904Y-65997676D01*
X91761904Y-65997676D02*
X91809523Y-66092914D01*
X91809523Y-66092914D02*
X91857142Y-66283390D01*
X91857142Y-66283390D02*
X91857142Y-66426247D01*
X91857142Y-66426247D02*
X91809523Y-66616723D01*
X91809523Y-66616723D02*
X91761904Y-66711961D01*
X91761904Y-66711961D02*
X91666666Y-66807200D01*
X91666666Y-66807200D02*
X91523809Y-66854819D01*
X91523809Y-66854819D02*
X91285714Y-66854819D01*
X92285714Y-66854819D02*
X92285714Y-65854819D01*
X92285714Y-65854819D02*
X92666666Y-65854819D01*
X92666666Y-65854819D02*
X92761904Y-65902438D01*
X92761904Y-65902438D02*
X92809523Y-65950057D01*
X92809523Y-65950057D02*
X92857142Y-66045295D01*
X92857142Y-66045295D02*
X92857142Y-66188152D01*
X92857142Y-66188152D02*
X92809523Y-66283390D01*
X92809523Y-66283390D02*
X92761904Y-66331009D01*
X92761904Y-66331009D02*
X92666666Y-66378628D01*
X92666666Y-66378628D02*
X92285714Y-66378628D01*
X93285714Y-66854819D02*
X93285714Y-65854819D01*
X93285714Y-65854819D02*
X93523809Y-65854819D01*
X93523809Y-65854819D02*
X93666666Y-65902438D01*
X93666666Y-65902438D02*
X93761904Y-65997676D01*
X93761904Y-65997676D02*
X93809523Y-66092914D01*
X93809523Y-66092914D02*
X93857142Y-66283390D01*
X93857142Y-66283390D02*
X93857142Y-66426247D01*
X93857142Y-66426247D02*
X93809523Y-66616723D01*
X93809523Y-66616723D02*
X93761904Y-66711961D01*
X93761904Y-66711961D02*
X93666666Y-66807200D01*
X93666666Y-66807200D02*
X93523809Y-66854819D01*
X93523809Y-66854819D02*
X93285714Y-66854819D01*
X94142857Y-65854819D02*
X94714285Y-65854819D01*
X94428571Y-66854819D02*
X94428571Y-65854819D01*
X88470238Y-65154819D02*
X87994047Y-65154819D01*
X87994047Y-65154819D02*
X88119047Y-64154819D01*
X88803571Y-65154819D02*
X88886905Y-64488152D01*
X88928571Y-64154819D02*
X88875000Y-64202438D01*
X88875000Y-64202438D02*
X88916667Y-64250057D01*
X88916667Y-64250057D02*
X88970238Y-64202438D01*
X88970238Y-64202438D02*
X88928571Y-64154819D01*
X88928571Y-64154819D02*
X88916667Y-64250057D01*
X89363095Y-64488152D02*
X89279761Y-65154819D01*
X89351190Y-64583390D02*
X89404761Y-64535771D01*
X89404761Y-64535771D02*
X89505952Y-64488152D01*
X89505952Y-64488152D02*
X89648809Y-64488152D01*
X89648809Y-64488152D02*
X89738095Y-64535771D01*
X89738095Y-64535771D02*
X89773809Y-64631009D01*
X89773809Y-64631009D02*
X89708333Y-65154819D01*
X91029761Y-64107200D02*
X90011904Y-65392914D01*
X91708333Y-65154819D02*
X91232142Y-65154819D01*
X91232142Y-65154819D02*
X91357142Y-64154819D01*
X92184524Y-65154819D02*
X92095238Y-65107200D01*
X92095238Y-65107200D02*
X92053571Y-65059580D01*
X92053571Y-65059580D02*
X92017857Y-64964342D01*
X92017857Y-64964342D02*
X92053571Y-64678628D01*
X92053571Y-64678628D02*
X92113095Y-64583390D01*
X92113095Y-64583390D02*
X92166666Y-64535771D01*
X92166666Y-64535771D02*
X92267857Y-64488152D01*
X92267857Y-64488152D02*
X92410714Y-64488152D01*
X92410714Y-64488152D02*
X92500000Y-64535771D01*
X92500000Y-64535771D02*
X92541666Y-64583390D01*
X92541666Y-64583390D02*
X92577381Y-64678628D01*
X92577381Y-64678628D02*
X92541666Y-64964342D01*
X92541666Y-64964342D02*
X92482143Y-65059580D01*
X92482143Y-65059580D02*
X92428571Y-65107200D01*
X92428571Y-65107200D02*
X92327381Y-65154819D01*
X92327381Y-65154819D02*
X92184524Y-65154819D01*
X93458333Y-64488152D02*
X93357143Y-65297676D01*
X93357143Y-65297676D02*
X93297619Y-65392914D01*
X93297619Y-65392914D02*
X93244047Y-65440533D01*
X93244047Y-65440533D02*
X93142857Y-65488152D01*
X93142857Y-65488152D02*
X93000000Y-65488152D01*
X93000000Y-65488152D02*
X92910714Y-65440533D01*
X93380952Y-65107200D02*
X93279762Y-65154819D01*
X93279762Y-65154819D02*
X93089286Y-65154819D01*
X93089286Y-65154819D02*
X93000000Y-65107200D01*
X93000000Y-65107200D02*
X92958333Y-65059580D01*
X92958333Y-65059580D02*
X92922619Y-64964342D01*
X92922619Y-64964342D02*
X92958333Y-64678628D01*
X92958333Y-64678628D02*
X93017857Y-64583390D01*
X93017857Y-64583390D02*
X93071428Y-64535771D01*
X93071428Y-64535771D02*
X93172619Y-64488152D01*
X93172619Y-64488152D02*
X93363095Y-64488152D01*
X93363095Y-64488152D02*
X93452381Y-64535771D01*
X94601191Y-64869104D02*
X95077381Y-64869104D01*
X94470238Y-65154819D02*
X94928572Y-64154819D01*
X94928572Y-64154819D02*
X95136905Y-65154819D01*
X65357142Y-100384819D02*
X65023809Y-99908628D01*
X64785714Y-100384819D02*
X64785714Y-99384819D01*
X64785714Y-99384819D02*
X65166666Y-99384819D01*
X65166666Y-99384819D02*
X65261904Y-99432438D01*
X65261904Y-99432438D02*
X65309523Y-99480057D01*
X65309523Y-99480057D02*
X65357142Y-99575295D01*
X65357142Y-99575295D02*
X65357142Y-99718152D01*
X65357142Y-99718152D02*
X65309523Y-99813390D01*
X65309523Y-99813390D02*
X65261904Y-99861009D01*
X65261904Y-99861009D02*
X65166666Y-99908628D01*
X65166666Y-99908628D02*
X64785714Y-99908628D01*
X66261904Y-99384819D02*
X65785714Y-99384819D01*
X65785714Y-99384819D02*
X65738095Y-99861009D01*
X65738095Y-99861009D02*
X65785714Y-99813390D01*
X65785714Y-99813390D02*
X65880952Y-99765771D01*
X65880952Y-99765771D02*
X66119047Y-99765771D01*
X66119047Y-99765771D02*
X66214285Y-99813390D01*
X66214285Y-99813390D02*
X66261904Y-99861009D01*
X66261904Y-99861009D02*
X66309523Y-99956247D01*
X66309523Y-99956247D02*
X66309523Y-100194342D01*
X66309523Y-100194342D02*
X66261904Y-100289580D01*
X66261904Y-100289580D02*
X66214285Y-100337200D01*
X66214285Y-100337200D02*
X66119047Y-100384819D01*
X66119047Y-100384819D02*
X65880952Y-100384819D01*
X65880952Y-100384819D02*
X65785714Y-100337200D01*
X65785714Y-100337200D02*
X65738095Y-100289580D01*
X66642857Y-99384819D02*
X67261904Y-99384819D01*
X67261904Y-99384819D02*
X66928571Y-99765771D01*
X66928571Y-99765771D02*
X67071428Y-99765771D01*
X67071428Y-99765771D02*
X67166666Y-99813390D01*
X67166666Y-99813390D02*
X67214285Y-99861009D01*
X67214285Y-99861009D02*
X67261904Y-99956247D01*
X67261904Y-99956247D02*
X67261904Y-100194342D01*
X67261904Y-100194342D02*
X67214285Y-100289580D01*
X67214285Y-100289580D02*
X67166666Y-100337200D01*
X67166666Y-100337200D02*
X67071428Y-100384819D01*
X67071428Y-100384819D02*
X66785714Y-100384819D01*
X66785714Y-100384819D02*
X66690476Y-100337200D01*
X66690476Y-100337200D02*
X66642857Y-100289580D01*
X65357142Y-101754819D02*
X64880952Y-101754819D01*
X64880952Y-101754819D02*
X64833333Y-102231009D01*
X64833333Y-102231009D02*
X64880952Y-102183390D01*
X64880952Y-102183390D02*
X64976190Y-102135771D01*
X64976190Y-102135771D02*
X65214285Y-102135771D01*
X65214285Y-102135771D02*
X65309523Y-102183390D01*
X65309523Y-102183390D02*
X65357142Y-102231009D01*
X65357142Y-102231009D02*
X65404761Y-102326247D01*
X65404761Y-102326247D02*
X65404761Y-102564342D01*
X65404761Y-102564342D02*
X65357142Y-102659580D01*
X65357142Y-102659580D02*
X65309523Y-102707200D01*
X65309523Y-102707200D02*
X65214285Y-102754819D01*
X65214285Y-102754819D02*
X64976190Y-102754819D01*
X64976190Y-102754819D02*
X64880952Y-102707200D01*
X64880952Y-102707200D02*
X64833333Y-102659580D01*
X66261904Y-101754819D02*
X66071428Y-101754819D01*
X66071428Y-101754819D02*
X65976190Y-101802438D01*
X65976190Y-101802438D02*
X65928571Y-101850057D01*
X65928571Y-101850057D02*
X65833333Y-101992914D01*
X65833333Y-101992914D02*
X65785714Y-102183390D01*
X65785714Y-102183390D02*
X65785714Y-102564342D01*
X65785714Y-102564342D02*
X65833333Y-102659580D01*
X65833333Y-102659580D02*
X65880952Y-102707200D01*
X65880952Y-102707200D02*
X65976190Y-102754819D01*
X65976190Y-102754819D02*
X66166666Y-102754819D01*
X66166666Y-102754819D02*
X66261904Y-102707200D01*
X66261904Y-102707200D02*
X66309523Y-102659580D01*
X66309523Y-102659580D02*
X66357142Y-102564342D01*
X66357142Y-102564342D02*
X66357142Y-102326247D01*
X66357142Y-102326247D02*
X66309523Y-102231009D01*
X66309523Y-102231009D02*
X66261904Y-102183390D01*
X66261904Y-102183390D02*
X66166666Y-102135771D01*
X66166666Y-102135771D02*
X65976190Y-102135771D01*
X65976190Y-102135771D02*
X65880952Y-102183390D01*
X65880952Y-102183390D02*
X65833333Y-102231009D01*
X65833333Y-102231009D02*
X65785714Y-102326247D01*
X66785714Y-102754819D02*
X66785714Y-101754819D01*
X66880952Y-102373866D02*
X67166666Y-102754819D01*
X67166666Y-102088152D02*
X66785714Y-102469104D01*
X83357142Y-126384819D02*
X83023809Y-125908628D01*
X82785714Y-126384819D02*
X82785714Y-125384819D01*
X82785714Y-125384819D02*
X83166666Y-125384819D01*
X83166666Y-125384819D02*
X83261904Y-125432438D01*
X83261904Y-125432438D02*
X83309523Y-125480057D01*
X83309523Y-125480057D02*
X83357142Y-125575295D01*
X83357142Y-125575295D02*
X83357142Y-125718152D01*
X83357142Y-125718152D02*
X83309523Y-125813390D01*
X83309523Y-125813390D02*
X83261904Y-125861009D01*
X83261904Y-125861009D02*
X83166666Y-125908628D01*
X83166666Y-125908628D02*
X82785714Y-125908628D01*
X84214285Y-125718152D02*
X84214285Y-126384819D01*
X83976190Y-125337200D02*
X83738095Y-126051485D01*
X83738095Y-126051485D02*
X84357142Y-126051485D01*
X85261904Y-126384819D02*
X84690476Y-126384819D01*
X84976190Y-126384819D02*
X84976190Y-125384819D01*
X84976190Y-125384819D02*
X84880952Y-125527676D01*
X84880952Y-125527676D02*
X84785714Y-125622914D01*
X84785714Y-125622914D02*
X84690476Y-125670533D01*
X83357142Y-127754819D02*
X82880952Y-127754819D01*
X82880952Y-127754819D02*
X82833333Y-128231009D01*
X82833333Y-128231009D02*
X82880952Y-128183390D01*
X82880952Y-128183390D02*
X82976190Y-128135771D01*
X82976190Y-128135771D02*
X83214285Y-128135771D01*
X83214285Y-128135771D02*
X83309523Y-128183390D01*
X83309523Y-128183390D02*
X83357142Y-128231009D01*
X83357142Y-128231009D02*
X83404761Y-128326247D01*
X83404761Y-128326247D02*
X83404761Y-128564342D01*
X83404761Y-128564342D02*
X83357142Y-128659580D01*
X83357142Y-128659580D02*
X83309523Y-128707200D01*
X83309523Y-128707200D02*
X83214285Y-128754819D01*
X83214285Y-128754819D02*
X82976190Y-128754819D01*
X82976190Y-128754819D02*
X82880952Y-128707200D01*
X82880952Y-128707200D02*
X82833333Y-128659580D01*
X84261904Y-127754819D02*
X84071428Y-127754819D01*
X84071428Y-127754819D02*
X83976190Y-127802438D01*
X83976190Y-127802438D02*
X83928571Y-127850057D01*
X83928571Y-127850057D02*
X83833333Y-127992914D01*
X83833333Y-127992914D02*
X83785714Y-128183390D01*
X83785714Y-128183390D02*
X83785714Y-128564342D01*
X83785714Y-128564342D02*
X83833333Y-128659580D01*
X83833333Y-128659580D02*
X83880952Y-128707200D01*
X83880952Y-128707200D02*
X83976190Y-128754819D01*
X83976190Y-128754819D02*
X84166666Y-128754819D01*
X84166666Y-128754819D02*
X84261904Y-128707200D01*
X84261904Y-128707200D02*
X84309523Y-128659580D01*
X84309523Y-128659580D02*
X84357142Y-128564342D01*
X84357142Y-128564342D02*
X84357142Y-128326247D01*
X84357142Y-128326247D02*
X84309523Y-128231009D01*
X84309523Y-128231009D02*
X84261904Y-128183390D01*
X84261904Y-128183390D02*
X84166666Y-128135771D01*
X84166666Y-128135771D02*
X83976190Y-128135771D01*
X83976190Y-128135771D02*
X83880952Y-128183390D01*
X83880952Y-128183390D02*
X83833333Y-128231009D01*
X83833333Y-128231009D02*
X83785714Y-128326247D01*
X84785714Y-128754819D02*
X84785714Y-127754819D01*
X84880952Y-128373866D02*
X85166666Y-128754819D01*
X85166666Y-128088152D02*
X84785714Y-128469104D01*
X83833333Y-74384819D02*
X83500000Y-73908628D01*
X83261905Y-74384819D02*
X83261905Y-73384819D01*
X83261905Y-73384819D02*
X83642857Y-73384819D01*
X83642857Y-73384819D02*
X83738095Y-73432438D01*
X83738095Y-73432438D02*
X83785714Y-73480057D01*
X83785714Y-73480057D02*
X83833333Y-73575295D01*
X83833333Y-73575295D02*
X83833333Y-73718152D01*
X83833333Y-73718152D02*
X83785714Y-73813390D01*
X83785714Y-73813390D02*
X83738095Y-73861009D01*
X83738095Y-73861009D02*
X83642857Y-73908628D01*
X83642857Y-73908628D02*
X83261905Y-73908628D01*
X84166667Y-73384819D02*
X84785714Y-73384819D01*
X84785714Y-73384819D02*
X84452381Y-73765771D01*
X84452381Y-73765771D02*
X84595238Y-73765771D01*
X84595238Y-73765771D02*
X84690476Y-73813390D01*
X84690476Y-73813390D02*
X84738095Y-73861009D01*
X84738095Y-73861009D02*
X84785714Y-73956247D01*
X84785714Y-73956247D02*
X84785714Y-74194342D01*
X84785714Y-74194342D02*
X84738095Y-74289580D01*
X84738095Y-74289580D02*
X84690476Y-74337200D01*
X84690476Y-74337200D02*
X84595238Y-74384819D01*
X84595238Y-74384819D02*
X84309524Y-74384819D01*
X84309524Y-74384819D02*
X84214286Y-74337200D01*
X84214286Y-74337200D02*
X84166667Y-74289580D01*
X83357142Y-75754819D02*
X82880952Y-75754819D01*
X82880952Y-75754819D02*
X82833333Y-76231009D01*
X82833333Y-76231009D02*
X82880952Y-76183390D01*
X82880952Y-76183390D02*
X82976190Y-76135771D01*
X82976190Y-76135771D02*
X83214285Y-76135771D01*
X83214285Y-76135771D02*
X83309523Y-76183390D01*
X83309523Y-76183390D02*
X83357142Y-76231009D01*
X83357142Y-76231009D02*
X83404761Y-76326247D01*
X83404761Y-76326247D02*
X83404761Y-76564342D01*
X83404761Y-76564342D02*
X83357142Y-76659580D01*
X83357142Y-76659580D02*
X83309523Y-76707200D01*
X83309523Y-76707200D02*
X83214285Y-76754819D01*
X83214285Y-76754819D02*
X82976190Y-76754819D01*
X82976190Y-76754819D02*
X82880952Y-76707200D01*
X82880952Y-76707200D02*
X82833333Y-76659580D01*
X84261904Y-75754819D02*
X84071428Y-75754819D01*
X84071428Y-75754819D02*
X83976190Y-75802438D01*
X83976190Y-75802438D02*
X83928571Y-75850057D01*
X83928571Y-75850057D02*
X83833333Y-75992914D01*
X83833333Y-75992914D02*
X83785714Y-76183390D01*
X83785714Y-76183390D02*
X83785714Y-76564342D01*
X83785714Y-76564342D02*
X83833333Y-76659580D01*
X83833333Y-76659580D02*
X83880952Y-76707200D01*
X83880952Y-76707200D02*
X83976190Y-76754819D01*
X83976190Y-76754819D02*
X84166666Y-76754819D01*
X84166666Y-76754819D02*
X84261904Y-76707200D01*
X84261904Y-76707200D02*
X84309523Y-76659580D01*
X84309523Y-76659580D02*
X84357142Y-76564342D01*
X84357142Y-76564342D02*
X84357142Y-76326247D01*
X84357142Y-76326247D02*
X84309523Y-76231009D01*
X84309523Y-76231009D02*
X84261904Y-76183390D01*
X84261904Y-76183390D02*
X84166666Y-76135771D01*
X84166666Y-76135771D02*
X83976190Y-76135771D01*
X83976190Y-76135771D02*
X83880952Y-76183390D01*
X83880952Y-76183390D02*
X83833333Y-76231009D01*
X83833333Y-76231009D02*
X83785714Y-76326247D01*
X84785714Y-76754819D02*
X84785714Y-75754819D01*
X84880952Y-76373866D02*
X85166666Y-76754819D01*
X85166666Y-76088152D02*
X84785714Y-76469104D01*
X60754819Y-114195238D02*
X60278628Y-114528571D01*
X60754819Y-114766666D02*
X59754819Y-114766666D01*
X59754819Y-114766666D02*
X59754819Y-114385714D01*
X59754819Y-114385714D02*
X59802438Y-114290476D01*
X59802438Y-114290476D02*
X59850057Y-114242857D01*
X59850057Y-114242857D02*
X59945295Y-114195238D01*
X59945295Y-114195238D02*
X60088152Y-114195238D01*
X60088152Y-114195238D02*
X60183390Y-114242857D01*
X60183390Y-114242857D02*
X60231009Y-114290476D01*
X60231009Y-114290476D02*
X60278628Y-114385714D01*
X60278628Y-114385714D02*
X60278628Y-114766666D01*
X59754819Y-113909523D02*
X60754819Y-113576190D01*
X60754819Y-113576190D02*
X59754819Y-113242857D01*
X60088152Y-112480952D02*
X60754819Y-112480952D01*
X59707200Y-112719047D02*
X60421485Y-112957142D01*
X60421485Y-112957142D02*
X60421485Y-112338095D01*
X72254819Y-114871428D02*
X72254819Y-115442856D01*
X72254819Y-115157142D02*
X71254819Y-115157142D01*
X71254819Y-115157142D02*
X71397676Y-115252380D01*
X71397676Y-115252380D02*
X71492914Y-115347618D01*
X71492914Y-115347618D02*
X71540533Y-115442856D01*
X71254819Y-114252380D02*
X71254819Y-114157142D01*
X71254819Y-114157142D02*
X71302438Y-114061904D01*
X71302438Y-114061904D02*
X71350057Y-114014285D01*
X71350057Y-114014285D02*
X71445295Y-113966666D01*
X71445295Y-113966666D02*
X71635771Y-113919047D01*
X71635771Y-113919047D02*
X71873866Y-113919047D01*
X71873866Y-113919047D02*
X72064342Y-113966666D01*
X72064342Y-113966666D02*
X72159580Y-114014285D01*
X72159580Y-114014285D02*
X72207200Y-114061904D01*
X72207200Y-114061904D02*
X72254819Y-114157142D01*
X72254819Y-114157142D02*
X72254819Y-114252380D01*
X72254819Y-114252380D02*
X72207200Y-114347618D01*
X72207200Y-114347618D02*
X72159580Y-114395237D01*
X72159580Y-114395237D02*
X72064342Y-114442856D01*
X72064342Y-114442856D02*
X71873866Y-114490475D01*
X71873866Y-114490475D02*
X71635771Y-114490475D01*
X71635771Y-114490475D02*
X71445295Y-114442856D01*
X71445295Y-114442856D02*
X71350057Y-114395237D01*
X71350057Y-114395237D02*
X71302438Y-114347618D01*
X71302438Y-114347618D02*
X71254819Y-114252380D01*
X71254819Y-113299999D02*
X71254819Y-113204761D01*
X71254819Y-113204761D02*
X71302438Y-113109523D01*
X71302438Y-113109523D02*
X71350057Y-113061904D01*
X71350057Y-113061904D02*
X71445295Y-113014285D01*
X71445295Y-113014285D02*
X71635771Y-112966666D01*
X71635771Y-112966666D02*
X71873866Y-112966666D01*
X71873866Y-112966666D02*
X72064342Y-113014285D01*
X72064342Y-113014285D02*
X72159580Y-113061904D01*
X72159580Y-113061904D02*
X72207200Y-113109523D01*
X72207200Y-113109523D02*
X72254819Y-113204761D01*
X72254819Y-113204761D02*
X72254819Y-113299999D01*
X72254819Y-113299999D02*
X72207200Y-113395237D01*
X72207200Y-113395237D02*
X72159580Y-113442856D01*
X72159580Y-113442856D02*
X72064342Y-113490475D01*
X72064342Y-113490475D02*
X71873866Y-113538094D01*
X71873866Y-113538094D02*
X71635771Y-113538094D01*
X71635771Y-113538094D02*
X71445295Y-113490475D01*
X71445295Y-113490475D02*
X71350057Y-113442856D01*
X71350057Y-113442856D02*
X71302438Y-113395237D01*
X71302438Y-113395237D02*
X71254819Y-113299999D01*
X72254819Y-112538094D02*
X71254819Y-112538094D01*
X71873866Y-112442856D02*
X72254819Y-112157142D01*
X71588152Y-112157142D02*
X71969104Y-112538094D01*
X64351190Y-118954819D02*
X64077380Y-118478628D01*
X63779761Y-118954819D02*
X63904761Y-117954819D01*
X63904761Y-117954819D02*
X64285714Y-117954819D01*
X64285714Y-117954819D02*
X64374999Y-118002438D01*
X64374999Y-118002438D02*
X64416666Y-118050057D01*
X64416666Y-118050057D02*
X64452380Y-118145295D01*
X64452380Y-118145295D02*
X64434523Y-118288152D01*
X64434523Y-118288152D02*
X64374999Y-118383390D01*
X64374999Y-118383390D02*
X64321428Y-118431009D01*
X64321428Y-118431009D02*
X64220238Y-118478628D01*
X64220238Y-118478628D02*
X63839285Y-118478628D01*
X64779761Y-118954819D02*
X64863095Y-118288152D01*
X64904761Y-117954819D02*
X64851190Y-118002438D01*
X64851190Y-118002438D02*
X64892857Y-118050057D01*
X64892857Y-118050057D02*
X64946428Y-118002438D01*
X64946428Y-118002438D02*
X64904761Y-117954819D01*
X64904761Y-117954819D02*
X64892857Y-118050057D01*
X65214285Y-118907200D02*
X65303570Y-118954819D01*
X65303570Y-118954819D02*
X65494047Y-118954819D01*
X65494047Y-118954819D02*
X65595237Y-118907200D01*
X65595237Y-118907200D02*
X65654761Y-118811961D01*
X65654761Y-118811961D02*
X65660713Y-118764342D01*
X65660713Y-118764342D02*
X65624999Y-118669104D01*
X65624999Y-118669104D02*
X65535713Y-118621485D01*
X65535713Y-118621485D02*
X65392856Y-118621485D01*
X65392856Y-118621485D02*
X65303570Y-118573866D01*
X65303570Y-118573866D02*
X65267856Y-118478628D01*
X65267856Y-118478628D02*
X65273809Y-118431009D01*
X65273809Y-118431009D02*
X65333332Y-118335771D01*
X65333332Y-118335771D02*
X65434523Y-118288152D01*
X65434523Y-118288152D02*
X65577380Y-118288152D01*
X65577380Y-118288152D02*
X65666666Y-118335771D01*
X66452380Y-118907200D02*
X66351190Y-118954819D01*
X66351190Y-118954819D02*
X66160713Y-118954819D01*
X66160713Y-118954819D02*
X66071428Y-118907200D01*
X66071428Y-118907200D02*
X66035713Y-118811961D01*
X66035713Y-118811961D02*
X66083333Y-118431009D01*
X66083333Y-118431009D02*
X66142856Y-118335771D01*
X66142856Y-118335771D02*
X66244047Y-118288152D01*
X66244047Y-118288152D02*
X66434523Y-118288152D01*
X66434523Y-118288152D02*
X66523809Y-118335771D01*
X66523809Y-118335771D02*
X66559523Y-118431009D01*
X66559523Y-118431009D02*
X66547618Y-118526247D01*
X66547618Y-118526247D02*
X66059523Y-118621485D01*
X68083333Y-118431009D02*
X68220238Y-118478628D01*
X68220238Y-118478628D02*
X68261904Y-118526247D01*
X68261904Y-118526247D02*
X68297619Y-118621485D01*
X68297619Y-118621485D02*
X68279761Y-118764342D01*
X68279761Y-118764342D02*
X68220238Y-118859580D01*
X68220238Y-118859580D02*
X68166666Y-118907200D01*
X68166666Y-118907200D02*
X68065476Y-118954819D01*
X68065476Y-118954819D02*
X67684523Y-118954819D01*
X67684523Y-118954819D02*
X67809523Y-117954819D01*
X67809523Y-117954819D02*
X68142857Y-117954819D01*
X68142857Y-117954819D02*
X68232142Y-118002438D01*
X68232142Y-118002438D02*
X68273809Y-118050057D01*
X68273809Y-118050057D02*
X68309523Y-118145295D01*
X68309523Y-118145295D02*
X68297619Y-118240533D01*
X68297619Y-118240533D02*
X68238095Y-118335771D01*
X68238095Y-118335771D02*
X68184523Y-118383390D01*
X68184523Y-118383390D02*
X68083333Y-118431009D01*
X68083333Y-118431009D02*
X67750000Y-118431009D01*
X68261905Y-80494819D02*
X68261905Y-79494819D01*
X68261905Y-79494819D02*
X68500000Y-79494819D01*
X68500000Y-79494819D02*
X68642857Y-79542438D01*
X68642857Y-79542438D02*
X68738095Y-79637676D01*
X68738095Y-79637676D02*
X68785714Y-79732914D01*
X68785714Y-79732914D02*
X68833333Y-79923390D01*
X68833333Y-79923390D02*
X68833333Y-80066247D01*
X68833333Y-80066247D02*
X68785714Y-80256723D01*
X68785714Y-80256723D02*
X68738095Y-80351961D01*
X68738095Y-80351961D02*
X68642857Y-80447200D01*
X68642857Y-80447200D02*
X68500000Y-80494819D01*
X68500000Y-80494819D02*
X68261905Y-80494819D01*
X69738095Y-79494819D02*
X69261905Y-79494819D01*
X69261905Y-79494819D02*
X69214286Y-79971009D01*
X69214286Y-79971009D02*
X69261905Y-79923390D01*
X69261905Y-79923390D02*
X69357143Y-79875771D01*
X69357143Y-79875771D02*
X69595238Y-79875771D01*
X69595238Y-79875771D02*
X69690476Y-79923390D01*
X69690476Y-79923390D02*
X69738095Y-79971009D01*
X69738095Y-79971009D02*
X69785714Y-80066247D01*
X69785714Y-80066247D02*
X69785714Y-80304342D01*
X69785714Y-80304342D02*
X69738095Y-80399580D01*
X69738095Y-80399580D02*
X69690476Y-80447200D01*
X69690476Y-80447200D02*
X69595238Y-80494819D01*
X69595238Y-80494819D02*
X69357143Y-80494819D01*
X69357143Y-80494819D02*
X69261905Y-80447200D01*
X69261905Y-80447200D02*
X69214286Y-80399580D01*
X66738094Y-86414819D02*
X66261904Y-86414819D01*
X66261904Y-86414819D02*
X66261904Y-85414819D01*
X67071428Y-85891009D02*
X67404761Y-85891009D01*
X67547618Y-86414819D02*
X67071428Y-86414819D01*
X67071428Y-86414819D02*
X67071428Y-85414819D01*
X67071428Y-85414819D02*
X67547618Y-85414819D01*
X67976190Y-86414819D02*
X67976190Y-85414819D01*
X67976190Y-85414819D02*
X68214285Y-85414819D01*
X68214285Y-85414819D02*
X68357142Y-85462438D01*
X68357142Y-85462438D02*
X68452380Y-85557676D01*
X68452380Y-85557676D02*
X68499999Y-85652914D01*
X68499999Y-85652914D02*
X68547618Y-85843390D01*
X68547618Y-85843390D02*
X68547618Y-85986247D01*
X68547618Y-85986247D02*
X68499999Y-86176723D01*
X68499999Y-86176723D02*
X68452380Y-86271961D01*
X68452380Y-86271961D02*
X68357142Y-86367200D01*
X68357142Y-86367200D02*
X68214285Y-86414819D01*
X68214285Y-86414819D02*
X67976190Y-86414819D01*
X68738095Y-86510057D02*
X69499999Y-86510057D01*
X69690476Y-86129104D02*
X70166666Y-86129104D01*
X69595238Y-86414819D02*
X69928571Y-85414819D01*
X69928571Y-85414819D02*
X70261904Y-86414819D01*
X70357143Y-86510057D02*
X71119047Y-86510057D01*
X71547619Y-85938628D02*
X71547619Y-86414819D01*
X71214286Y-85414819D02*
X71547619Y-85938628D01*
X71547619Y-85938628D02*
X71880952Y-85414819D01*
X80261905Y-54494819D02*
X80261905Y-53494819D01*
X80261905Y-53494819D02*
X80500000Y-53494819D01*
X80500000Y-53494819D02*
X80642857Y-53542438D01*
X80642857Y-53542438D02*
X80738095Y-53637676D01*
X80738095Y-53637676D02*
X80785714Y-53732914D01*
X80785714Y-53732914D02*
X80833333Y-53923390D01*
X80833333Y-53923390D02*
X80833333Y-54066247D01*
X80833333Y-54066247D02*
X80785714Y-54256723D01*
X80785714Y-54256723D02*
X80738095Y-54351961D01*
X80738095Y-54351961D02*
X80642857Y-54447200D01*
X80642857Y-54447200D02*
X80500000Y-54494819D01*
X80500000Y-54494819D02*
X80261905Y-54494819D01*
X81690476Y-53494819D02*
X81500000Y-53494819D01*
X81500000Y-53494819D02*
X81404762Y-53542438D01*
X81404762Y-53542438D02*
X81357143Y-53590057D01*
X81357143Y-53590057D02*
X81261905Y-53732914D01*
X81261905Y-53732914D02*
X81214286Y-53923390D01*
X81214286Y-53923390D02*
X81214286Y-54304342D01*
X81214286Y-54304342D02*
X81261905Y-54399580D01*
X81261905Y-54399580D02*
X81309524Y-54447200D01*
X81309524Y-54447200D02*
X81404762Y-54494819D01*
X81404762Y-54494819D02*
X81595238Y-54494819D01*
X81595238Y-54494819D02*
X81690476Y-54447200D01*
X81690476Y-54447200D02*
X81738095Y-54399580D01*
X81738095Y-54399580D02*
X81785714Y-54304342D01*
X81785714Y-54304342D02*
X81785714Y-54066247D01*
X81785714Y-54066247D02*
X81738095Y-53971009D01*
X81738095Y-53971009D02*
X81690476Y-53923390D01*
X81690476Y-53923390D02*
X81595238Y-53875771D01*
X81595238Y-53875771D02*
X81404762Y-53875771D01*
X81404762Y-53875771D02*
X81309524Y-53923390D01*
X81309524Y-53923390D02*
X81261905Y-53971009D01*
X81261905Y-53971009D02*
X81214286Y-54066247D01*
X78666666Y-60414819D02*
X78190476Y-60414819D01*
X78190476Y-60414819D02*
X78190476Y-59414819D01*
X79000000Y-59891009D02*
X79333333Y-59891009D01*
X79476190Y-60414819D02*
X79000000Y-60414819D01*
X79000000Y-60414819D02*
X79000000Y-59414819D01*
X79000000Y-59414819D02*
X79476190Y-59414819D01*
X79904762Y-60414819D02*
X79904762Y-59414819D01*
X79904762Y-59414819D02*
X80142857Y-59414819D01*
X80142857Y-59414819D02*
X80285714Y-59462438D01*
X80285714Y-59462438D02*
X80380952Y-59557676D01*
X80380952Y-59557676D02*
X80428571Y-59652914D01*
X80428571Y-59652914D02*
X80476190Y-59843390D01*
X80476190Y-59843390D02*
X80476190Y-59986247D01*
X80476190Y-59986247D02*
X80428571Y-60176723D01*
X80428571Y-60176723D02*
X80380952Y-60271961D01*
X80380952Y-60271961D02*
X80285714Y-60367200D01*
X80285714Y-60367200D02*
X80142857Y-60414819D01*
X80142857Y-60414819D02*
X79904762Y-60414819D01*
X80666667Y-60510057D02*
X81428571Y-60510057D01*
X81619048Y-60129104D02*
X82095238Y-60129104D01*
X81523810Y-60414819D02*
X81857143Y-59414819D01*
X81857143Y-59414819D02*
X82190476Y-60414819D01*
X82285715Y-60510057D02*
X83047619Y-60510057D01*
X83857143Y-60414819D02*
X83523810Y-59938628D01*
X83285715Y-60414819D02*
X83285715Y-59414819D01*
X83285715Y-59414819D02*
X83666667Y-59414819D01*
X83666667Y-59414819D02*
X83761905Y-59462438D01*
X83761905Y-59462438D02*
X83809524Y-59510057D01*
X83809524Y-59510057D02*
X83857143Y-59605295D01*
X83857143Y-59605295D02*
X83857143Y-59748152D01*
X83857143Y-59748152D02*
X83809524Y-59843390D01*
X83809524Y-59843390D02*
X83761905Y-59891009D01*
X83761905Y-59891009D02*
X83666667Y-59938628D01*
X83666667Y-59938628D02*
X83285715Y-59938628D01*
X78754819Y-88195238D02*
X78278628Y-88528571D01*
X78754819Y-88766666D02*
X77754819Y-88766666D01*
X77754819Y-88766666D02*
X77754819Y-88385714D01*
X77754819Y-88385714D02*
X77802438Y-88290476D01*
X77802438Y-88290476D02*
X77850057Y-88242857D01*
X77850057Y-88242857D02*
X77945295Y-88195238D01*
X77945295Y-88195238D02*
X78088152Y-88195238D01*
X78088152Y-88195238D02*
X78183390Y-88242857D01*
X78183390Y-88242857D02*
X78231009Y-88290476D01*
X78231009Y-88290476D02*
X78278628Y-88385714D01*
X78278628Y-88385714D02*
X78278628Y-88766666D01*
X77754819Y-87909523D02*
X78754819Y-87576190D01*
X78754819Y-87576190D02*
X77754819Y-87242857D01*
X78754819Y-86385714D02*
X78754819Y-86957142D01*
X78754819Y-86671428D02*
X77754819Y-86671428D01*
X77754819Y-86671428D02*
X77897676Y-86766666D01*
X77897676Y-86766666D02*
X77992914Y-86861904D01*
X77992914Y-86861904D02*
X78040533Y-86957142D01*
X90254819Y-88871428D02*
X90254819Y-89442856D01*
X90254819Y-89157142D02*
X89254819Y-89157142D01*
X89254819Y-89157142D02*
X89397676Y-89252380D01*
X89397676Y-89252380D02*
X89492914Y-89347618D01*
X89492914Y-89347618D02*
X89540533Y-89442856D01*
X89254819Y-88252380D02*
X89254819Y-88157142D01*
X89254819Y-88157142D02*
X89302438Y-88061904D01*
X89302438Y-88061904D02*
X89350057Y-88014285D01*
X89350057Y-88014285D02*
X89445295Y-87966666D01*
X89445295Y-87966666D02*
X89635771Y-87919047D01*
X89635771Y-87919047D02*
X89873866Y-87919047D01*
X89873866Y-87919047D02*
X90064342Y-87966666D01*
X90064342Y-87966666D02*
X90159580Y-88014285D01*
X90159580Y-88014285D02*
X90207200Y-88061904D01*
X90207200Y-88061904D02*
X90254819Y-88157142D01*
X90254819Y-88157142D02*
X90254819Y-88252380D01*
X90254819Y-88252380D02*
X90207200Y-88347618D01*
X90207200Y-88347618D02*
X90159580Y-88395237D01*
X90159580Y-88395237D02*
X90064342Y-88442856D01*
X90064342Y-88442856D02*
X89873866Y-88490475D01*
X89873866Y-88490475D02*
X89635771Y-88490475D01*
X89635771Y-88490475D02*
X89445295Y-88442856D01*
X89445295Y-88442856D02*
X89350057Y-88395237D01*
X89350057Y-88395237D02*
X89302438Y-88347618D01*
X89302438Y-88347618D02*
X89254819Y-88252380D01*
X89254819Y-87299999D02*
X89254819Y-87204761D01*
X89254819Y-87204761D02*
X89302438Y-87109523D01*
X89302438Y-87109523D02*
X89350057Y-87061904D01*
X89350057Y-87061904D02*
X89445295Y-87014285D01*
X89445295Y-87014285D02*
X89635771Y-86966666D01*
X89635771Y-86966666D02*
X89873866Y-86966666D01*
X89873866Y-86966666D02*
X90064342Y-87014285D01*
X90064342Y-87014285D02*
X90159580Y-87061904D01*
X90159580Y-87061904D02*
X90207200Y-87109523D01*
X90207200Y-87109523D02*
X90254819Y-87204761D01*
X90254819Y-87204761D02*
X90254819Y-87299999D01*
X90254819Y-87299999D02*
X90207200Y-87395237D01*
X90207200Y-87395237D02*
X90159580Y-87442856D01*
X90159580Y-87442856D02*
X90064342Y-87490475D01*
X90064342Y-87490475D02*
X89873866Y-87538094D01*
X89873866Y-87538094D02*
X89635771Y-87538094D01*
X89635771Y-87538094D02*
X89445295Y-87490475D01*
X89445295Y-87490475D02*
X89350057Y-87442856D01*
X89350057Y-87442856D02*
X89302438Y-87395237D01*
X89302438Y-87395237D02*
X89254819Y-87299999D01*
X90254819Y-86538094D02*
X89254819Y-86538094D01*
X89873866Y-86442856D02*
X90254819Y-86157142D01*
X89588152Y-86157142D02*
X89969104Y-86538094D01*
X82416666Y-92431009D02*
X82083333Y-92431009D01*
X82017856Y-92954819D02*
X82142856Y-91954819D01*
X82142856Y-91954819D02*
X82619047Y-91954819D01*
X83303571Y-92954819D02*
X83369047Y-92431009D01*
X83369047Y-92431009D02*
X83333333Y-92335771D01*
X83333333Y-92335771D02*
X83244047Y-92288152D01*
X83244047Y-92288152D02*
X83053571Y-92288152D01*
X83053571Y-92288152D02*
X82952380Y-92335771D01*
X83309523Y-92907200D02*
X83208333Y-92954819D01*
X83208333Y-92954819D02*
X82970237Y-92954819D01*
X82970237Y-92954819D02*
X82880952Y-92907200D01*
X82880952Y-92907200D02*
X82845237Y-92811961D01*
X82845237Y-92811961D02*
X82857142Y-92716723D01*
X82857142Y-92716723D02*
X82916666Y-92621485D01*
X82916666Y-92621485D02*
X83017857Y-92573866D01*
X83017857Y-92573866D02*
X83255952Y-92573866D01*
X83255952Y-92573866D02*
X83357142Y-92526247D01*
X83922619Y-92954819D02*
X83833333Y-92907200D01*
X83833333Y-92907200D02*
X83797619Y-92811961D01*
X83797619Y-92811961D02*
X83904761Y-91954819D01*
X84446429Y-92954819D02*
X84357143Y-92907200D01*
X84357143Y-92907200D02*
X84321429Y-92811961D01*
X84321429Y-92811961D02*
X84428571Y-91954819D01*
X85577382Y-92669104D02*
X86053572Y-92669104D01*
X85446429Y-92954819D02*
X85904763Y-91954819D01*
X85904763Y-91954819D02*
X86113096Y-92954819D01*
X57166667Y-94407200D02*
X57309524Y-94454819D01*
X57309524Y-94454819D02*
X57547619Y-94454819D01*
X57547619Y-94454819D02*
X57642857Y-94407200D01*
X57642857Y-94407200D02*
X57690476Y-94359580D01*
X57690476Y-94359580D02*
X57738095Y-94264342D01*
X57738095Y-94264342D02*
X57738095Y-94169104D01*
X57738095Y-94169104D02*
X57690476Y-94073866D01*
X57690476Y-94073866D02*
X57642857Y-94026247D01*
X57642857Y-94026247D02*
X57547619Y-93978628D01*
X57547619Y-93978628D02*
X57357143Y-93931009D01*
X57357143Y-93931009D02*
X57261905Y-93883390D01*
X57261905Y-93883390D02*
X57214286Y-93835771D01*
X57214286Y-93835771D02*
X57166667Y-93740533D01*
X57166667Y-93740533D02*
X57166667Y-93645295D01*
X57166667Y-93645295D02*
X57214286Y-93550057D01*
X57214286Y-93550057D02*
X57261905Y-93502438D01*
X57261905Y-93502438D02*
X57357143Y-93454819D01*
X57357143Y-93454819D02*
X57595238Y-93454819D01*
X57595238Y-93454819D02*
X57738095Y-93502438D01*
X58071429Y-93454819D02*
X58309524Y-94454819D01*
X58309524Y-94454819D02*
X58500000Y-93740533D01*
X58500000Y-93740533D02*
X58690476Y-94454819D01*
X58690476Y-94454819D02*
X58928572Y-93454819D01*
X59833333Y-94454819D02*
X59261905Y-94454819D01*
X59547619Y-94454819D02*
X59547619Y-93454819D01*
X59547619Y-93454819D02*
X59452381Y-93597676D01*
X59452381Y-93597676D02*
X59357143Y-93692914D01*
X59357143Y-93692914D02*
X59261905Y-93740533D01*
X53166666Y-92907200D02*
X53309523Y-92954819D01*
X53309523Y-92954819D02*
X53547618Y-92954819D01*
X53547618Y-92954819D02*
X53642856Y-92907200D01*
X53642856Y-92907200D02*
X53690475Y-92859580D01*
X53690475Y-92859580D02*
X53738094Y-92764342D01*
X53738094Y-92764342D02*
X53738094Y-92669104D01*
X53738094Y-92669104D02*
X53690475Y-92573866D01*
X53690475Y-92573866D02*
X53642856Y-92526247D01*
X53642856Y-92526247D02*
X53547618Y-92478628D01*
X53547618Y-92478628D02*
X53357142Y-92431009D01*
X53357142Y-92431009D02*
X53261904Y-92383390D01*
X53261904Y-92383390D02*
X53214285Y-92335771D01*
X53214285Y-92335771D02*
X53166666Y-92240533D01*
X53166666Y-92240533D02*
X53166666Y-92145295D01*
X53166666Y-92145295D02*
X53214285Y-92050057D01*
X53214285Y-92050057D02*
X53261904Y-92002438D01*
X53261904Y-92002438D02*
X53357142Y-91954819D01*
X53357142Y-91954819D02*
X53595237Y-91954819D01*
X53595237Y-91954819D02*
X53738094Y-92002438D01*
X54071428Y-91954819D02*
X54309523Y-92954819D01*
X54309523Y-92954819D02*
X54499999Y-92240533D01*
X54499999Y-92240533D02*
X54690475Y-92954819D01*
X54690475Y-92954819D02*
X54928571Y-91954819D01*
X55071428Y-93050057D02*
X55833332Y-93050057D01*
X56071428Y-92954819D02*
X56071428Y-91954819D01*
X56071428Y-91954819D02*
X56309523Y-91954819D01*
X56309523Y-91954819D02*
X56452380Y-92002438D01*
X56452380Y-92002438D02*
X56547618Y-92097676D01*
X56547618Y-92097676D02*
X56595237Y-92192914D01*
X56595237Y-92192914D02*
X56642856Y-92383390D01*
X56642856Y-92383390D02*
X56642856Y-92526247D01*
X56642856Y-92526247D02*
X56595237Y-92716723D01*
X56595237Y-92716723D02*
X56547618Y-92811961D01*
X56547618Y-92811961D02*
X56452380Y-92907200D01*
X56452380Y-92907200D02*
X56309523Y-92954819D01*
X56309523Y-92954819D02*
X56071428Y-92954819D01*
X57071428Y-92954819D02*
X57071428Y-91954819D01*
X57071428Y-91954819D02*
X57452380Y-91954819D01*
X57452380Y-91954819D02*
X57547618Y-92002438D01*
X57547618Y-92002438D02*
X57595237Y-92050057D01*
X57595237Y-92050057D02*
X57642856Y-92145295D01*
X57642856Y-92145295D02*
X57642856Y-92288152D01*
X57642856Y-92288152D02*
X57595237Y-92383390D01*
X57595237Y-92383390D02*
X57547618Y-92431009D01*
X57547618Y-92431009D02*
X57452380Y-92478628D01*
X57452380Y-92478628D02*
X57071428Y-92478628D01*
X58071428Y-92954819D02*
X58071428Y-91954819D01*
X58071428Y-91954819D02*
X58309523Y-91954819D01*
X58309523Y-91954819D02*
X58452380Y-92002438D01*
X58452380Y-92002438D02*
X58547618Y-92097676D01*
X58547618Y-92097676D02*
X58595237Y-92192914D01*
X58595237Y-92192914D02*
X58642856Y-92383390D01*
X58642856Y-92383390D02*
X58642856Y-92526247D01*
X58642856Y-92526247D02*
X58595237Y-92716723D01*
X58595237Y-92716723D02*
X58547618Y-92811961D01*
X58547618Y-92811961D02*
X58452380Y-92907200D01*
X58452380Y-92907200D02*
X58309523Y-92954819D01*
X58309523Y-92954819D02*
X58071428Y-92954819D01*
X58928571Y-91954819D02*
X59499999Y-91954819D01*
X59214285Y-92954819D02*
X59214285Y-91954819D01*
X59595238Y-93050057D02*
X60357142Y-93050057D01*
X60500000Y-91954819D02*
X61119047Y-91954819D01*
X61119047Y-91954819D02*
X60785714Y-92335771D01*
X60785714Y-92335771D02*
X60928571Y-92335771D01*
X60928571Y-92335771D02*
X61023809Y-92383390D01*
X61023809Y-92383390D02*
X61071428Y-92431009D01*
X61071428Y-92431009D02*
X61119047Y-92526247D01*
X61119047Y-92526247D02*
X61119047Y-92764342D01*
X61119047Y-92764342D02*
X61071428Y-92859580D01*
X61071428Y-92859580D02*
X61023809Y-92907200D01*
X61023809Y-92907200D02*
X60928571Y-92954819D01*
X60928571Y-92954819D02*
X60642857Y-92954819D01*
X60642857Y-92954819D02*
X60547619Y-92907200D01*
X60547619Y-92907200D02*
X60500000Y-92859580D01*
X61452381Y-92288152D02*
X61642857Y-92954819D01*
X61642857Y-92954819D02*
X61833333Y-92478628D01*
X61833333Y-92478628D02*
X62023809Y-92954819D01*
X62023809Y-92954819D02*
X62214285Y-92288152D01*
X63023809Y-92954819D02*
X63023809Y-92431009D01*
X63023809Y-92431009D02*
X62976190Y-92335771D01*
X62976190Y-92335771D02*
X62880952Y-92288152D01*
X62880952Y-92288152D02*
X62690476Y-92288152D01*
X62690476Y-92288152D02*
X62595238Y-92335771D01*
X63023809Y-92907200D02*
X62928571Y-92954819D01*
X62928571Y-92954819D02*
X62690476Y-92954819D01*
X62690476Y-92954819D02*
X62595238Y-92907200D01*
X62595238Y-92907200D02*
X62547619Y-92811961D01*
X62547619Y-92811961D02*
X62547619Y-92716723D01*
X62547619Y-92716723D02*
X62595238Y-92621485D01*
X62595238Y-92621485D02*
X62690476Y-92573866D01*
X62690476Y-92573866D02*
X62928571Y-92573866D01*
X62928571Y-92573866D02*
X63023809Y-92526247D01*
X63404762Y-92288152D02*
X63642857Y-92954819D01*
X63880952Y-92288152D02*
X63642857Y-92954819D01*
X63642857Y-92954819D02*
X63547619Y-93192914D01*
X63547619Y-93192914D02*
X63500000Y-93240533D01*
X63500000Y-93240533D02*
X63404762Y-93288152D01*
X55577380Y-91059580D02*
X55523808Y-91107200D01*
X55523808Y-91107200D02*
X55374999Y-91154819D01*
X55374999Y-91154819D02*
X55279761Y-91154819D01*
X55279761Y-91154819D02*
X55142856Y-91107200D01*
X55142856Y-91107200D02*
X55059523Y-91011961D01*
X55059523Y-91011961D02*
X55023808Y-90916723D01*
X55023808Y-90916723D02*
X54999999Y-90726247D01*
X54999999Y-90726247D02*
X55017856Y-90583390D01*
X55017856Y-90583390D02*
X55089284Y-90392914D01*
X55089284Y-90392914D02*
X55148808Y-90297676D01*
X55148808Y-90297676D02*
X55255951Y-90202438D01*
X55255951Y-90202438D02*
X55404761Y-90154819D01*
X55404761Y-90154819D02*
X55499999Y-90154819D01*
X55499999Y-90154819D02*
X55636904Y-90202438D01*
X55636904Y-90202438D02*
X55678570Y-90250057D01*
X55976189Y-90154819D02*
X56184523Y-91154819D01*
X56184523Y-91154819D02*
X56642856Y-90154819D01*
X57601190Y-90869104D02*
X58077380Y-90869104D01*
X57470237Y-91154819D02*
X57928571Y-90154819D01*
X57928571Y-90154819D02*
X58136904Y-91154819D01*
X59232142Y-91154819D02*
X59357142Y-90154819D01*
X59357142Y-90154819D02*
X59595238Y-90154819D01*
X59595238Y-90154819D02*
X59732142Y-90202438D01*
X59732142Y-90202438D02*
X59815476Y-90297676D01*
X59815476Y-90297676D02*
X59851190Y-90392914D01*
X59851190Y-90392914D02*
X59875000Y-90583390D01*
X59875000Y-90583390D02*
X59857142Y-90726247D01*
X59857142Y-90726247D02*
X59785714Y-90916723D01*
X59785714Y-90916723D02*
X59726190Y-91011961D01*
X59726190Y-91011961D02*
X59619047Y-91107200D01*
X59619047Y-91107200D02*
X59470238Y-91154819D01*
X59470238Y-91154819D02*
X59232142Y-91154819D01*
X60619047Y-91107200D02*
X60517857Y-91154819D01*
X60517857Y-91154819D02*
X60327380Y-91154819D01*
X60327380Y-91154819D02*
X60238095Y-91107200D01*
X60238095Y-91107200D02*
X60202380Y-91011961D01*
X60202380Y-91011961D02*
X60250000Y-90631009D01*
X60250000Y-90631009D02*
X60309523Y-90535771D01*
X60309523Y-90535771D02*
X60410714Y-90488152D01*
X60410714Y-90488152D02*
X60601190Y-90488152D01*
X60601190Y-90488152D02*
X60690476Y-90535771D01*
X60690476Y-90535771D02*
X60726190Y-90631009D01*
X60726190Y-90631009D02*
X60714285Y-90726247D01*
X60714285Y-90726247D02*
X60226190Y-90821485D01*
X61047619Y-91107200D02*
X61136904Y-91154819D01*
X61136904Y-91154819D02*
X61327381Y-91154819D01*
X61327381Y-91154819D02*
X61428571Y-91107200D01*
X61428571Y-91107200D02*
X61488095Y-91011961D01*
X61488095Y-91011961D02*
X61494047Y-90964342D01*
X61494047Y-90964342D02*
X61458333Y-90869104D01*
X61458333Y-90869104D02*
X61369047Y-90821485D01*
X61369047Y-90821485D02*
X61226190Y-90821485D01*
X61226190Y-90821485D02*
X61136904Y-90773866D01*
X61136904Y-90773866D02*
X61101190Y-90678628D01*
X61101190Y-90678628D02*
X61107143Y-90631009D01*
X61107143Y-90631009D02*
X61166666Y-90535771D01*
X61166666Y-90535771D02*
X61267857Y-90488152D01*
X61267857Y-90488152D02*
X61410714Y-90488152D01*
X61410714Y-90488152D02*
X61500000Y-90535771D01*
X61839286Y-90488152D02*
X62220238Y-90488152D01*
X62023809Y-90154819D02*
X61916667Y-91011961D01*
X61916667Y-91011961D02*
X61952381Y-91107200D01*
X61952381Y-91107200D02*
X62041667Y-91154819D01*
X62041667Y-91154819D02*
X62136905Y-91154819D01*
X78754819Y-140195238D02*
X78278628Y-140528571D01*
X78754819Y-140766666D02*
X77754819Y-140766666D01*
X77754819Y-140766666D02*
X77754819Y-140385714D01*
X77754819Y-140385714D02*
X77802438Y-140290476D01*
X77802438Y-140290476D02*
X77850057Y-140242857D01*
X77850057Y-140242857D02*
X77945295Y-140195238D01*
X77945295Y-140195238D02*
X78088152Y-140195238D01*
X78088152Y-140195238D02*
X78183390Y-140242857D01*
X78183390Y-140242857D02*
X78231009Y-140290476D01*
X78231009Y-140290476D02*
X78278628Y-140385714D01*
X78278628Y-140385714D02*
X78278628Y-140766666D01*
X77754819Y-139909523D02*
X78754819Y-139576190D01*
X78754819Y-139576190D02*
X77754819Y-139242857D01*
X77754819Y-139004761D02*
X77754819Y-138385714D01*
X77754819Y-138385714D02*
X78135771Y-138719047D01*
X78135771Y-138719047D02*
X78135771Y-138576190D01*
X78135771Y-138576190D02*
X78183390Y-138480952D01*
X78183390Y-138480952D02*
X78231009Y-138433333D01*
X78231009Y-138433333D02*
X78326247Y-138385714D01*
X78326247Y-138385714D02*
X78564342Y-138385714D01*
X78564342Y-138385714D02*
X78659580Y-138433333D01*
X78659580Y-138433333D02*
X78707200Y-138480952D01*
X78707200Y-138480952D02*
X78754819Y-138576190D01*
X78754819Y-138576190D02*
X78754819Y-138861904D01*
X78754819Y-138861904D02*
X78707200Y-138957142D01*
X78707200Y-138957142D02*
X78659580Y-139004761D01*
X90254819Y-140871428D02*
X90254819Y-141442856D01*
X90254819Y-141157142D02*
X89254819Y-141157142D01*
X89254819Y-141157142D02*
X89397676Y-141252380D01*
X89397676Y-141252380D02*
X89492914Y-141347618D01*
X89492914Y-141347618D02*
X89540533Y-141442856D01*
X89254819Y-140252380D02*
X89254819Y-140157142D01*
X89254819Y-140157142D02*
X89302438Y-140061904D01*
X89302438Y-140061904D02*
X89350057Y-140014285D01*
X89350057Y-140014285D02*
X89445295Y-139966666D01*
X89445295Y-139966666D02*
X89635771Y-139919047D01*
X89635771Y-139919047D02*
X89873866Y-139919047D01*
X89873866Y-139919047D02*
X90064342Y-139966666D01*
X90064342Y-139966666D02*
X90159580Y-140014285D01*
X90159580Y-140014285D02*
X90207200Y-140061904D01*
X90207200Y-140061904D02*
X90254819Y-140157142D01*
X90254819Y-140157142D02*
X90254819Y-140252380D01*
X90254819Y-140252380D02*
X90207200Y-140347618D01*
X90207200Y-140347618D02*
X90159580Y-140395237D01*
X90159580Y-140395237D02*
X90064342Y-140442856D01*
X90064342Y-140442856D02*
X89873866Y-140490475D01*
X89873866Y-140490475D02*
X89635771Y-140490475D01*
X89635771Y-140490475D02*
X89445295Y-140442856D01*
X89445295Y-140442856D02*
X89350057Y-140395237D01*
X89350057Y-140395237D02*
X89302438Y-140347618D01*
X89302438Y-140347618D02*
X89254819Y-140252380D01*
X89254819Y-139299999D02*
X89254819Y-139204761D01*
X89254819Y-139204761D02*
X89302438Y-139109523D01*
X89302438Y-139109523D02*
X89350057Y-139061904D01*
X89350057Y-139061904D02*
X89445295Y-139014285D01*
X89445295Y-139014285D02*
X89635771Y-138966666D01*
X89635771Y-138966666D02*
X89873866Y-138966666D01*
X89873866Y-138966666D02*
X90064342Y-139014285D01*
X90064342Y-139014285D02*
X90159580Y-139061904D01*
X90159580Y-139061904D02*
X90207200Y-139109523D01*
X90207200Y-139109523D02*
X90254819Y-139204761D01*
X90254819Y-139204761D02*
X90254819Y-139299999D01*
X90254819Y-139299999D02*
X90207200Y-139395237D01*
X90207200Y-139395237D02*
X90159580Y-139442856D01*
X90159580Y-139442856D02*
X90064342Y-139490475D01*
X90064342Y-139490475D02*
X89873866Y-139538094D01*
X89873866Y-139538094D02*
X89635771Y-139538094D01*
X89635771Y-139538094D02*
X89445295Y-139490475D01*
X89445295Y-139490475D02*
X89350057Y-139442856D01*
X89350057Y-139442856D02*
X89302438Y-139395237D01*
X89302438Y-139395237D02*
X89254819Y-139299999D01*
X90254819Y-138538094D02*
X89254819Y-138538094D01*
X89873866Y-138442856D02*
X90254819Y-138157142D01*
X89588152Y-138157142D02*
X89969104Y-138538094D01*
X82345237Y-144431009D02*
X82011904Y-144431009D01*
X81946427Y-144954819D02*
X82071427Y-143954819D01*
X82071427Y-143954819D02*
X82547618Y-143954819D01*
X83232142Y-144954819D02*
X83297618Y-144431009D01*
X83297618Y-144431009D02*
X83261904Y-144335771D01*
X83261904Y-144335771D02*
X83172618Y-144288152D01*
X83172618Y-144288152D02*
X82982142Y-144288152D01*
X82982142Y-144288152D02*
X82880951Y-144335771D01*
X83238094Y-144907200D02*
X83136904Y-144954819D01*
X83136904Y-144954819D02*
X82898808Y-144954819D01*
X82898808Y-144954819D02*
X82809523Y-144907200D01*
X82809523Y-144907200D02*
X82773808Y-144811961D01*
X82773808Y-144811961D02*
X82785713Y-144716723D01*
X82785713Y-144716723D02*
X82845237Y-144621485D01*
X82845237Y-144621485D02*
X82946428Y-144573866D01*
X82946428Y-144573866D02*
X83184523Y-144573866D01*
X83184523Y-144573866D02*
X83285713Y-144526247D01*
X83851190Y-144954819D02*
X83761904Y-144907200D01*
X83761904Y-144907200D02*
X83726190Y-144811961D01*
X83726190Y-144811961D02*
X83833332Y-143954819D01*
X84375000Y-144954819D02*
X84285714Y-144907200D01*
X84285714Y-144907200D02*
X84250000Y-144811961D01*
X84250000Y-144811961D02*
X84357142Y-143954819D01*
X85916667Y-144431009D02*
X86053572Y-144478628D01*
X86053572Y-144478628D02*
X86095238Y-144526247D01*
X86095238Y-144526247D02*
X86130953Y-144621485D01*
X86130953Y-144621485D02*
X86113095Y-144764342D01*
X86113095Y-144764342D02*
X86053572Y-144859580D01*
X86053572Y-144859580D02*
X86000000Y-144907200D01*
X86000000Y-144907200D02*
X85898810Y-144954819D01*
X85898810Y-144954819D02*
X85517857Y-144954819D01*
X85517857Y-144954819D02*
X85642857Y-143954819D01*
X85642857Y-143954819D02*
X85976191Y-143954819D01*
X85976191Y-143954819D02*
X86065476Y-144002438D01*
X86065476Y-144002438D02*
X86107143Y-144050057D01*
X86107143Y-144050057D02*
X86142857Y-144145295D01*
X86142857Y-144145295D02*
X86130953Y-144240533D01*
X86130953Y-144240533D02*
X86071429Y-144335771D01*
X86071429Y-144335771D02*
X86017857Y-144383390D01*
X86017857Y-144383390D02*
X85916667Y-144431009D01*
X85916667Y-144431009D02*
X85583334Y-144431009D01*
X57166667Y-152207200D02*
X57309524Y-152254819D01*
X57309524Y-152254819D02*
X57547619Y-152254819D01*
X57547619Y-152254819D02*
X57642857Y-152207200D01*
X57642857Y-152207200D02*
X57690476Y-152159580D01*
X57690476Y-152159580D02*
X57738095Y-152064342D01*
X57738095Y-152064342D02*
X57738095Y-151969104D01*
X57738095Y-151969104D02*
X57690476Y-151873866D01*
X57690476Y-151873866D02*
X57642857Y-151826247D01*
X57642857Y-151826247D02*
X57547619Y-151778628D01*
X57547619Y-151778628D02*
X57357143Y-151731009D01*
X57357143Y-151731009D02*
X57261905Y-151683390D01*
X57261905Y-151683390D02*
X57214286Y-151635771D01*
X57214286Y-151635771D02*
X57166667Y-151540533D01*
X57166667Y-151540533D02*
X57166667Y-151445295D01*
X57166667Y-151445295D02*
X57214286Y-151350057D01*
X57214286Y-151350057D02*
X57261905Y-151302438D01*
X57261905Y-151302438D02*
X57357143Y-151254819D01*
X57357143Y-151254819D02*
X57595238Y-151254819D01*
X57595238Y-151254819D02*
X57738095Y-151302438D01*
X58071429Y-151254819D02*
X58309524Y-152254819D01*
X58309524Y-152254819D02*
X58500000Y-151540533D01*
X58500000Y-151540533D02*
X58690476Y-152254819D01*
X58690476Y-152254819D02*
X58928572Y-151254819D01*
X59214286Y-151254819D02*
X59833333Y-151254819D01*
X59833333Y-151254819D02*
X59500000Y-151635771D01*
X59500000Y-151635771D02*
X59642857Y-151635771D01*
X59642857Y-151635771D02*
X59738095Y-151683390D01*
X59738095Y-151683390D02*
X59785714Y-151731009D01*
X59785714Y-151731009D02*
X59833333Y-151826247D01*
X59833333Y-151826247D02*
X59833333Y-152064342D01*
X59833333Y-152064342D02*
X59785714Y-152159580D01*
X59785714Y-152159580D02*
X59738095Y-152207200D01*
X59738095Y-152207200D02*
X59642857Y-152254819D01*
X59642857Y-152254819D02*
X59357143Y-152254819D01*
X59357143Y-152254819D02*
X59261905Y-152207200D01*
X59261905Y-152207200D02*
X59214286Y-152159580D01*
X54107200Y-164295238D02*
X54154819Y-164152381D01*
X54154819Y-164152381D02*
X54154819Y-163914286D01*
X54154819Y-163914286D02*
X54107200Y-163819048D01*
X54107200Y-163819048D02*
X54059580Y-163771429D01*
X54059580Y-163771429D02*
X53964342Y-163723810D01*
X53964342Y-163723810D02*
X53869104Y-163723810D01*
X53869104Y-163723810D02*
X53773866Y-163771429D01*
X53773866Y-163771429D02*
X53726247Y-163819048D01*
X53726247Y-163819048D02*
X53678628Y-163914286D01*
X53678628Y-163914286D02*
X53631009Y-164104762D01*
X53631009Y-164104762D02*
X53583390Y-164200000D01*
X53583390Y-164200000D02*
X53535771Y-164247619D01*
X53535771Y-164247619D02*
X53440533Y-164295238D01*
X53440533Y-164295238D02*
X53345295Y-164295238D01*
X53345295Y-164295238D02*
X53250057Y-164247619D01*
X53250057Y-164247619D02*
X53202438Y-164200000D01*
X53202438Y-164200000D02*
X53154819Y-164104762D01*
X53154819Y-164104762D02*
X53154819Y-163866667D01*
X53154819Y-163866667D02*
X53202438Y-163723810D01*
X54154819Y-163295238D02*
X53154819Y-163295238D01*
X53154819Y-163295238D02*
X53154819Y-162914286D01*
X53154819Y-162914286D02*
X53202438Y-162819048D01*
X53202438Y-162819048D02*
X53250057Y-162771429D01*
X53250057Y-162771429D02*
X53345295Y-162723810D01*
X53345295Y-162723810D02*
X53488152Y-162723810D01*
X53488152Y-162723810D02*
X53583390Y-162771429D01*
X53583390Y-162771429D02*
X53631009Y-162819048D01*
X53631009Y-162819048D02*
X53678628Y-162914286D01*
X53678628Y-162914286D02*
X53678628Y-163295238D01*
X54154819Y-162295238D02*
X53154819Y-162295238D01*
X53154819Y-162295238D02*
X53154819Y-162057143D01*
X53154819Y-162057143D02*
X53202438Y-161914286D01*
X53202438Y-161914286D02*
X53297676Y-161819048D01*
X53297676Y-161819048D02*
X53392914Y-161771429D01*
X53392914Y-161771429D02*
X53583390Y-161723810D01*
X53583390Y-161723810D02*
X53726247Y-161723810D01*
X53726247Y-161723810D02*
X53916723Y-161771429D01*
X53916723Y-161771429D02*
X54011961Y-161819048D01*
X54011961Y-161819048D02*
X54107200Y-161914286D01*
X54107200Y-161914286D02*
X54154819Y-162057143D01*
X54154819Y-162057143D02*
X54154819Y-162295238D01*
X53154819Y-161438095D02*
X53154819Y-160866667D01*
X54154819Y-161152381D02*
X53154819Y-161152381D01*
X54250057Y-160771429D02*
X54250057Y-160009524D01*
X53154819Y-159580952D02*
X53154819Y-159390476D01*
X53154819Y-159390476D02*
X53202438Y-159295238D01*
X53202438Y-159295238D02*
X53297676Y-159200000D01*
X53297676Y-159200000D02*
X53488152Y-159152381D01*
X53488152Y-159152381D02*
X53821485Y-159152381D01*
X53821485Y-159152381D02*
X54011961Y-159200000D01*
X54011961Y-159200000D02*
X54107200Y-159295238D01*
X54107200Y-159295238D02*
X54154819Y-159390476D01*
X54154819Y-159390476D02*
X54154819Y-159580952D01*
X54154819Y-159580952D02*
X54107200Y-159676190D01*
X54107200Y-159676190D02*
X54011961Y-159771428D01*
X54011961Y-159771428D02*
X53821485Y-159819047D01*
X53821485Y-159819047D02*
X53488152Y-159819047D01*
X53488152Y-159819047D02*
X53297676Y-159771428D01*
X53297676Y-159771428D02*
X53202438Y-159676190D01*
X53202438Y-159676190D02*
X53154819Y-159580952D01*
X53488152Y-158723809D02*
X54154819Y-158723809D01*
X53583390Y-158723809D02*
X53535771Y-158676190D01*
X53535771Y-158676190D02*
X53488152Y-158580952D01*
X53488152Y-158580952D02*
X53488152Y-158438095D01*
X53488152Y-158438095D02*
X53535771Y-158342857D01*
X53535771Y-158342857D02*
X53631009Y-158295238D01*
X53631009Y-158295238D02*
X54154819Y-158295238D01*
X53154819Y-157628571D02*
X53154819Y-157438095D01*
X53154819Y-157438095D02*
X53202438Y-157342857D01*
X53202438Y-157342857D02*
X53297676Y-157247619D01*
X53297676Y-157247619D02*
X53488152Y-157200000D01*
X53488152Y-157200000D02*
X53821485Y-157200000D01*
X53821485Y-157200000D02*
X54011961Y-157247619D01*
X54011961Y-157247619D02*
X54107200Y-157342857D01*
X54107200Y-157342857D02*
X54154819Y-157438095D01*
X54154819Y-157438095D02*
X54154819Y-157628571D01*
X54154819Y-157628571D02*
X54107200Y-157723809D01*
X54107200Y-157723809D02*
X54011961Y-157819047D01*
X54011961Y-157819047D02*
X53821485Y-157866666D01*
X53821485Y-157866666D02*
X53488152Y-157866666D01*
X53488152Y-157866666D02*
X53297676Y-157819047D01*
X53297676Y-157819047D02*
X53202438Y-157723809D01*
X53202438Y-157723809D02*
X53154819Y-157628571D01*
X53488152Y-156914285D02*
X53488152Y-156533333D01*
X54154819Y-156771428D02*
X53297676Y-156771428D01*
X53297676Y-156771428D02*
X53202438Y-156723809D01*
X53202438Y-156723809D02*
X53154819Y-156628571D01*
X53154819Y-156628571D02*
X53154819Y-156533333D01*
X53488152Y-156342856D02*
X53488152Y-155961904D01*
X54154819Y-156199999D02*
X53297676Y-156199999D01*
X53297676Y-156199999D02*
X53202438Y-156152380D01*
X53202438Y-156152380D02*
X53154819Y-156057142D01*
X53154819Y-156057142D02*
X53154819Y-155961904D01*
X53154819Y-155438094D02*
X53154819Y-155247618D01*
X53154819Y-155247618D02*
X53202438Y-155152380D01*
X53202438Y-155152380D02*
X53297676Y-155057142D01*
X53297676Y-155057142D02*
X53488152Y-155009523D01*
X53488152Y-155009523D02*
X53821485Y-155009523D01*
X53821485Y-155009523D02*
X54011961Y-155057142D01*
X54011961Y-155057142D02*
X54107200Y-155152380D01*
X54107200Y-155152380D02*
X54154819Y-155247618D01*
X54154819Y-155247618D02*
X54154819Y-155438094D01*
X54154819Y-155438094D02*
X54107200Y-155533332D01*
X54107200Y-155533332D02*
X54011961Y-155628570D01*
X54011961Y-155628570D02*
X53821485Y-155676189D01*
X53821485Y-155676189D02*
X53488152Y-155676189D01*
X53488152Y-155676189D02*
X53297676Y-155628570D01*
X53297676Y-155628570D02*
X53202438Y-155533332D01*
X53202438Y-155533332D02*
X53154819Y-155438094D01*
X53488152Y-154580951D02*
X54154819Y-154580951D01*
X53583390Y-154580951D02*
X53535771Y-154533332D01*
X53535771Y-154533332D02*
X53488152Y-154438094D01*
X53488152Y-154438094D02*
X53488152Y-154295237D01*
X53488152Y-154295237D02*
X53535771Y-154199999D01*
X53535771Y-154199999D02*
X53631009Y-154152380D01*
X53631009Y-154152380D02*
X54154819Y-154152380D01*
X63454819Y-161591666D02*
X62978628Y-161865476D01*
X63454819Y-162163095D02*
X62454819Y-162038095D01*
X62454819Y-162038095D02*
X62454819Y-161657142D01*
X62454819Y-161657142D02*
X62502438Y-161567857D01*
X62502438Y-161567857D02*
X62550057Y-161526190D01*
X62550057Y-161526190D02*
X62645295Y-161490476D01*
X62645295Y-161490476D02*
X62788152Y-161508333D01*
X62788152Y-161508333D02*
X62883390Y-161567857D01*
X62883390Y-161567857D02*
X62931009Y-161621428D01*
X62931009Y-161621428D02*
X62978628Y-161722618D01*
X62978628Y-161722618D02*
X62978628Y-162103571D01*
X63454819Y-160734523D02*
X62931009Y-160669047D01*
X62931009Y-160669047D02*
X62835771Y-160704761D01*
X62835771Y-160704761D02*
X62788152Y-160794047D01*
X62788152Y-160794047D02*
X62788152Y-160984523D01*
X62788152Y-160984523D02*
X62835771Y-161085714D01*
X63407200Y-160728571D02*
X63454819Y-160829761D01*
X63454819Y-160829761D02*
X63454819Y-161067857D01*
X63454819Y-161067857D02*
X63407200Y-161157142D01*
X63407200Y-161157142D02*
X63311961Y-161192857D01*
X63311961Y-161192857D02*
X63216723Y-161180952D01*
X63216723Y-161180952D02*
X63121485Y-161121428D01*
X63121485Y-161121428D02*
X63073866Y-161020238D01*
X63073866Y-161020238D02*
X63073866Y-160782142D01*
X63073866Y-160782142D02*
X63026247Y-160680952D01*
X62788152Y-160174999D02*
X63454819Y-160258333D01*
X62883390Y-160186904D02*
X62835771Y-160133333D01*
X62835771Y-160133333D02*
X62788152Y-160032142D01*
X62788152Y-160032142D02*
X62788152Y-159889285D01*
X62788152Y-159889285D02*
X62835771Y-159799999D01*
X62835771Y-159799999D02*
X62931009Y-159764285D01*
X62931009Y-159764285D02*
X63454819Y-159829761D01*
X62788152Y-158841666D02*
X63597676Y-158942856D01*
X63597676Y-158942856D02*
X63692914Y-159002380D01*
X63692914Y-159002380D02*
X63740533Y-159055952D01*
X63740533Y-159055952D02*
X63788152Y-159157142D01*
X63788152Y-159157142D02*
X63788152Y-159299999D01*
X63788152Y-159299999D02*
X63740533Y-159389285D01*
X63407200Y-158919047D02*
X63454819Y-159020237D01*
X63454819Y-159020237D02*
X63454819Y-159210714D01*
X63454819Y-159210714D02*
X63407200Y-159299999D01*
X63407200Y-159299999D02*
X63359580Y-159341666D01*
X63359580Y-159341666D02*
X63264342Y-159377380D01*
X63264342Y-159377380D02*
X62978628Y-159341666D01*
X62978628Y-159341666D02*
X62883390Y-159282142D01*
X62883390Y-159282142D02*
X62835771Y-159228571D01*
X62835771Y-159228571D02*
X62788152Y-159127380D01*
X62788152Y-159127380D02*
X62788152Y-158936904D01*
X62788152Y-158936904D02*
X62835771Y-158847618D01*
X63407200Y-158061904D02*
X63454819Y-158163094D01*
X63454819Y-158163094D02*
X63454819Y-158353571D01*
X63454819Y-158353571D02*
X63407200Y-158442856D01*
X63407200Y-158442856D02*
X63311961Y-158478571D01*
X63311961Y-158478571D02*
X62931009Y-158430952D01*
X62931009Y-158430952D02*
X62835771Y-158371428D01*
X62835771Y-158371428D02*
X62788152Y-158270237D01*
X62788152Y-158270237D02*
X62788152Y-158079761D01*
X62788152Y-158079761D02*
X62835771Y-157990475D01*
X62835771Y-157990475D02*
X62931009Y-157954761D01*
X62931009Y-157954761D02*
X63026247Y-157966666D01*
X63026247Y-157966666D02*
X63121485Y-158454761D01*
X63169104Y-156841665D02*
X63169104Y-156365475D01*
X63454819Y-156972618D02*
X62454819Y-156514284D01*
X62454819Y-156514284D02*
X63454819Y-156305951D01*
X65833333Y-48384819D02*
X65500000Y-47908628D01*
X65261905Y-48384819D02*
X65261905Y-47384819D01*
X65261905Y-47384819D02*
X65642857Y-47384819D01*
X65642857Y-47384819D02*
X65738095Y-47432438D01*
X65738095Y-47432438D02*
X65785714Y-47480057D01*
X65785714Y-47480057D02*
X65833333Y-47575295D01*
X65833333Y-47575295D02*
X65833333Y-47718152D01*
X65833333Y-47718152D02*
X65785714Y-47813390D01*
X65785714Y-47813390D02*
X65738095Y-47861009D01*
X65738095Y-47861009D02*
X65642857Y-47908628D01*
X65642857Y-47908628D02*
X65261905Y-47908628D01*
X66690476Y-47718152D02*
X66690476Y-48384819D01*
X66452381Y-47337200D02*
X66214286Y-48051485D01*
X66214286Y-48051485D02*
X66833333Y-48051485D01*
X65357142Y-49754819D02*
X64880952Y-49754819D01*
X64880952Y-49754819D02*
X64833333Y-50231009D01*
X64833333Y-50231009D02*
X64880952Y-50183390D01*
X64880952Y-50183390D02*
X64976190Y-50135771D01*
X64976190Y-50135771D02*
X65214285Y-50135771D01*
X65214285Y-50135771D02*
X65309523Y-50183390D01*
X65309523Y-50183390D02*
X65357142Y-50231009D01*
X65357142Y-50231009D02*
X65404761Y-50326247D01*
X65404761Y-50326247D02*
X65404761Y-50564342D01*
X65404761Y-50564342D02*
X65357142Y-50659580D01*
X65357142Y-50659580D02*
X65309523Y-50707200D01*
X65309523Y-50707200D02*
X65214285Y-50754819D01*
X65214285Y-50754819D02*
X64976190Y-50754819D01*
X64976190Y-50754819D02*
X64880952Y-50707200D01*
X64880952Y-50707200D02*
X64833333Y-50659580D01*
X66261904Y-49754819D02*
X66071428Y-49754819D01*
X66071428Y-49754819D02*
X65976190Y-49802438D01*
X65976190Y-49802438D02*
X65928571Y-49850057D01*
X65928571Y-49850057D02*
X65833333Y-49992914D01*
X65833333Y-49992914D02*
X65785714Y-50183390D01*
X65785714Y-50183390D02*
X65785714Y-50564342D01*
X65785714Y-50564342D02*
X65833333Y-50659580D01*
X65833333Y-50659580D02*
X65880952Y-50707200D01*
X65880952Y-50707200D02*
X65976190Y-50754819D01*
X65976190Y-50754819D02*
X66166666Y-50754819D01*
X66166666Y-50754819D02*
X66261904Y-50707200D01*
X66261904Y-50707200D02*
X66309523Y-50659580D01*
X66309523Y-50659580D02*
X66357142Y-50564342D01*
X66357142Y-50564342D02*
X66357142Y-50326247D01*
X66357142Y-50326247D02*
X66309523Y-50231009D01*
X66309523Y-50231009D02*
X66261904Y-50183390D01*
X66261904Y-50183390D02*
X66166666Y-50135771D01*
X66166666Y-50135771D02*
X65976190Y-50135771D01*
X65976190Y-50135771D02*
X65880952Y-50183390D01*
X65880952Y-50183390D02*
X65833333Y-50231009D01*
X65833333Y-50231009D02*
X65785714Y-50326247D01*
X66785714Y-50754819D02*
X66785714Y-49754819D01*
X66880952Y-50373866D02*
X67166666Y-50754819D01*
X67166666Y-50088152D02*
X66785714Y-50469104D01*
X90166667Y-120407200D02*
X90309524Y-120454819D01*
X90309524Y-120454819D02*
X90547619Y-120454819D01*
X90547619Y-120454819D02*
X90642857Y-120407200D01*
X90642857Y-120407200D02*
X90690476Y-120359580D01*
X90690476Y-120359580D02*
X90738095Y-120264342D01*
X90738095Y-120264342D02*
X90738095Y-120169104D01*
X90738095Y-120169104D02*
X90690476Y-120073866D01*
X90690476Y-120073866D02*
X90642857Y-120026247D01*
X90642857Y-120026247D02*
X90547619Y-119978628D01*
X90547619Y-119978628D02*
X90357143Y-119931009D01*
X90357143Y-119931009D02*
X90261905Y-119883390D01*
X90261905Y-119883390D02*
X90214286Y-119835771D01*
X90214286Y-119835771D02*
X90166667Y-119740533D01*
X90166667Y-119740533D02*
X90166667Y-119645295D01*
X90166667Y-119645295D02*
X90214286Y-119550057D01*
X90214286Y-119550057D02*
X90261905Y-119502438D01*
X90261905Y-119502438D02*
X90357143Y-119454819D01*
X90357143Y-119454819D02*
X90595238Y-119454819D01*
X90595238Y-119454819D02*
X90738095Y-119502438D01*
X91071429Y-119454819D02*
X91309524Y-120454819D01*
X91309524Y-120454819D02*
X91500000Y-119740533D01*
X91500000Y-119740533D02*
X91690476Y-120454819D01*
X91690476Y-120454819D02*
X91928572Y-119454819D01*
X92785714Y-119454819D02*
X92309524Y-119454819D01*
X92309524Y-119454819D02*
X92261905Y-119931009D01*
X92261905Y-119931009D02*
X92309524Y-119883390D01*
X92309524Y-119883390D02*
X92404762Y-119835771D01*
X92404762Y-119835771D02*
X92642857Y-119835771D01*
X92642857Y-119835771D02*
X92738095Y-119883390D01*
X92738095Y-119883390D02*
X92785714Y-119931009D01*
X92785714Y-119931009D02*
X92833333Y-120026247D01*
X92833333Y-120026247D02*
X92833333Y-120264342D01*
X92833333Y-120264342D02*
X92785714Y-120359580D01*
X92785714Y-120359580D02*
X92738095Y-120407200D01*
X92738095Y-120407200D02*
X92642857Y-120454819D01*
X92642857Y-120454819D02*
X92404762Y-120454819D01*
X92404762Y-120454819D02*
X92309524Y-120407200D01*
X92309524Y-120407200D02*
X92261905Y-120359580D01*
X88380952Y-118807200D02*
X88523809Y-118854819D01*
X88523809Y-118854819D02*
X88761904Y-118854819D01*
X88761904Y-118854819D02*
X88857142Y-118807200D01*
X88857142Y-118807200D02*
X88904761Y-118759580D01*
X88904761Y-118759580D02*
X88952380Y-118664342D01*
X88952380Y-118664342D02*
X88952380Y-118569104D01*
X88952380Y-118569104D02*
X88904761Y-118473866D01*
X88904761Y-118473866D02*
X88857142Y-118426247D01*
X88857142Y-118426247D02*
X88761904Y-118378628D01*
X88761904Y-118378628D02*
X88571428Y-118331009D01*
X88571428Y-118331009D02*
X88476190Y-118283390D01*
X88476190Y-118283390D02*
X88428571Y-118235771D01*
X88428571Y-118235771D02*
X88380952Y-118140533D01*
X88380952Y-118140533D02*
X88380952Y-118045295D01*
X88380952Y-118045295D02*
X88428571Y-117950057D01*
X88428571Y-117950057D02*
X88476190Y-117902438D01*
X88476190Y-117902438D02*
X88571428Y-117854819D01*
X88571428Y-117854819D02*
X88809523Y-117854819D01*
X88809523Y-117854819D02*
X88952380Y-117902438D01*
X89285714Y-117854819D02*
X89523809Y-118854819D01*
X89523809Y-118854819D02*
X89714285Y-118140533D01*
X89714285Y-118140533D02*
X89904761Y-118854819D01*
X89904761Y-118854819D02*
X90142857Y-117854819D01*
X90285714Y-118950057D02*
X91047618Y-118950057D01*
X91285714Y-118854819D02*
X91285714Y-117854819D01*
X91285714Y-117854819D02*
X91523809Y-117854819D01*
X91523809Y-117854819D02*
X91666666Y-117902438D01*
X91666666Y-117902438D02*
X91761904Y-117997676D01*
X91761904Y-117997676D02*
X91809523Y-118092914D01*
X91809523Y-118092914D02*
X91857142Y-118283390D01*
X91857142Y-118283390D02*
X91857142Y-118426247D01*
X91857142Y-118426247D02*
X91809523Y-118616723D01*
X91809523Y-118616723D02*
X91761904Y-118711961D01*
X91761904Y-118711961D02*
X91666666Y-118807200D01*
X91666666Y-118807200D02*
X91523809Y-118854819D01*
X91523809Y-118854819D02*
X91285714Y-118854819D01*
X92285714Y-118854819D02*
X92285714Y-117854819D01*
X92285714Y-117854819D02*
X92666666Y-117854819D01*
X92666666Y-117854819D02*
X92761904Y-117902438D01*
X92761904Y-117902438D02*
X92809523Y-117950057D01*
X92809523Y-117950057D02*
X92857142Y-118045295D01*
X92857142Y-118045295D02*
X92857142Y-118188152D01*
X92857142Y-118188152D02*
X92809523Y-118283390D01*
X92809523Y-118283390D02*
X92761904Y-118331009D01*
X92761904Y-118331009D02*
X92666666Y-118378628D01*
X92666666Y-118378628D02*
X92285714Y-118378628D01*
X93285714Y-118854819D02*
X93285714Y-117854819D01*
X93285714Y-117854819D02*
X93523809Y-117854819D01*
X93523809Y-117854819D02*
X93666666Y-117902438D01*
X93666666Y-117902438D02*
X93761904Y-117997676D01*
X93761904Y-117997676D02*
X93809523Y-118092914D01*
X93809523Y-118092914D02*
X93857142Y-118283390D01*
X93857142Y-118283390D02*
X93857142Y-118426247D01*
X93857142Y-118426247D02*
X93809523Y-118616723D01*
X93809523Y-118616723D02*
X93761904Y-118711961D01*
X93761904Y-118711961D02*
X93666666Y-118807200D01*
X93666666Y-118807200D02*
X93523809Y-118854819D01*
X93523809Y-118854819D02*
X93285714Y-118854819D01*
X94142857Y-117854819D02*
X94714285Y-117854819D01*
X94428571Y-118854819D02*
X94428571Y-117854819D01*
X88398809Y-117154819D02*
X87922618Y-117154819D01*
X87922618Y-117154819D02*
X88047618Y-116154819D01*
X88732142Y-117154819D02*
X88815476Y-116488152D01*
X88857142Y-116154819D02*
X88803571Y-116202438D01*
X88803571Y-116202438D02*
X88845238Y-116250057D01*
X88845238Y-116250057D02*
X88898809Y-116202438D01*
X88898809Y-116202438D02*
X88857142Y-116154819D01*
X88857142Y-116154819D02*
X88845238Y-116250057D01*
X89291666Y-116488152D02*
X89208332Y-117154819D01*
X89279761Y-116583390D02*
X89333332Y-116535771D01*
X89333332Y-116535771D02*
X89434523Y-116488152D01*
X89434523Y-116488152D02*
X89577380Y-116488152D01*
X89577380Y-116488152D02*
X89666666Y-116535771D01*
X89666666Y-116535771D02*
X89702380Y-116631009D01*
X89702380Y-116631009D02*
X89636904Y-117154819D01*
X90958332Y-116107200D02*
X89940475Y-117392914D01*
X91636904Y-117154819D02*
X91160713Y-117154819D01*
X91160713Y-117154819D02*
X91285713Y-116154819D01*
X92113095Y-117154819D02*
X92023809Y-117107200D01*
X92023809Y-117107200D02*
X91982142Y-117059580D01*
X91982142Y-117059580D02*
X91946428Y-116964342D01*
X91946428Y-116964342D02*
X91982142Y-116678628D01*
X91982142Y-116678628D02*
X92041666Y-116583390D01*
X92041666Y-116583390D02*
X92095237Y-116535771D01*
X92095237Y-116535771D02*
X92196428Y-116488152D01*
X92196428Y-116488152D02*
X92339285Y-116488152D01*
X92339285Y-116488152D02*
X92428571Y-116535771D01*
X92428571Y-116535771D02*
X92470237Y-116583390D01*
X92470237Y-116583390D02*
X92505952Y-116678628D01*
X92505952Y-116678628D02*
X92470237Y-116964342D01*
X92470237Y-116964342D02*
X92410714Y-117059580D01*
X92410714Y-117059580D02*
X92357142Y-117107200D01*
X92357142Y-117107200D02*
X92255952Y-117154819D01*
X92255952Y-117154819D02*
X92113095Y-117154819D01*
X93386904Y-116488152D02*
X93285714Y-117297676D01*
X93285714Y-117297676D02*
X93226190Y-117392914D01*
X93226190Y-117392914D02*
X93172618Y-117440533D01*
X93172618Y-117440533D02*
X93071428Y-117488152D01*
X93071428Y-117488152D02*
X92928571Y-117488152D01*
X92928571Y-117488152D02*
X92839285Y-117440533D01*
X93309523Y-117107200D02*
X93208333Y-117154819D01*
X93208333Y-117154819D02*
X93017857Y-117154819D01*
X93017857Y-117154819D02*
X92928571Y-117107200D01*
X92928571Y-117107200D02*
X92886904Y-117059580D01*
X92886904Y-117059580D02*
X92851190Y-116964342D01*
X92851190Y-116964342D02*
X92886904Y-116678628D01*
X92886904Y-116678628D02*
X92946428Y-116583390D01*
X92946428Y-116583390D02*
X92999999Y-116535771D01*
X92999999Y-116535771D02*
X93101190Y-116488152D01*
X93101190Y-116488152D02*
X93291666Y-116488152D01*
X93291666Y-116488152D02*
X93380952Y-116535771D01*
X94940476Y-116631009D02*
X95077381Y-116678628D01*
X95077381Y-116678628D02*
X95119047Y-116726247D01*
X95119047Y-116726247D02*
X95154762Y-116821485D01*
X95154762Y-116821485D02*
X95136904Y-116964342D01*
X95136904Y-116964342D02*
X95077381Y-117059580D01*
X95077381Y-117059580D02*
X95023809Y-117107200D01*
X95023809Y-117107200D02*
X94922619Y-117154819D01*
X94922619Y-117154819D02*
X94541666Y-117154819D01*
X94541666Y-117154819D02*
X94666666Y-116154819D01*
X94666666Y-116154819D02*
X95000000Y-116154819D01*
X95000000Y-116154819D02*
X95089285Y-116202438D01*
X95089285Y-116202438D02*
X95130952Y-116250057D01*
X95130952Y-116250057D02*
X95166666Y-116345295D01*
X95166666Y-116345295D02*
X95154762Y-116440533D01*
X95154762Y-116440533D02*
X95095238Y-116535771D01*
X95095238Y-116535771D02*
X95041666Y-116583390D01*
X95041666Y-116583390D02*
X94940476Y-116631009D01*
X94940476Y-116631009D02*
X94607143Y-116631009D01*
X79785714Y-106494819D02*
X79785714Y-105494819D01*
X79785714Y-105494819D02*
X80023809Y-105494819D01*
X80023809Y-105494819D02*
X80166666Y-105542438D01*
X80166666Y-105542438D02*
X80261904Y-105637676D01*
X80261904Y-105637676D02*
X80309523Y-105732914D01*
X80309523Y-105732914D02*
X80357142Y-105923390D01*
X80357142Y-105923390D02*
X80357142Y-106066247D01*
X80357142Y-106066247D02*
X80309523Y-106256723D01*
X80309523Y-106256723D02*
X80261904Y-106351961D01*
X80261904Y-106351961D02*
X80166666Y-106447200D01*
X80166666Y-106447200D02*
X80023809Y-106494819D01*
X80023809Y-106494819D02*
X79785714Y-106494819D01*
X81309523Y-106494819D02*
X80738095Y-106494819D01*
X81023809Y-106494819D02*
X81023809Y-105494819D01*
X81023809Y-105494819D02*
X80928571Y-105637676D01*
X80928571Y-105637676D02*
X80833333Y-105732914D01*
X80833333Y-105732914D02*
X80738095Y-105780533D01*
X81928571Y-105494819D02*
X82023809Y-105494819D01*
X82023809Y-105494819D02*
X82119047Y-105542438D01*
X82119047Y-105542438D02*
X82166666Y-105590057D01*
X82166666Y-105590057D02*
X82214285Y-105685295D01*
X82214285Y-105685295D02*
X82261904Y-105875771D01*
X82261904Y-105875771D02*
X82261904Y-106113866D01*
X82261904Y-106113866D02*
X82214285Y-106304342D01*
X82214285Y-106304342D02*
X82166666Y-106399580D01*
X82166666Y-106399580D02*
X82119047Y-106447200D01*
X82119047Y-106447200D02*
X82023809Y-106494819D01*
X82023809Y-106494819D02*
X81928571Y-106494819D01*
X81928571Y-106494819D02*
X81833333Y-106447200D01*
X81833333Y-106447200D02*
X81785714Y-106399580D01*
X81785714Y-106399580D02*
X81738095Y-106304342D01*
X81738095Y-106304342D02*
X81690476Y-106113866D01*
X81690476Y-106113866D02*
X81690476Y-105875771D01*
X81690476Y-105875771D02*
X81738095Y-105685295D01*
X81738095Y-105685295D02*
X81785714Y-105590057D01*
X81785714Y-105590057D02*
X81833333Y-105542438D01*
X81833333Y-105542438D02*
X81928571Y-105494819D01*
X78595237Y-112414819D02*
X78119047Y-112414819D01*
X78119047Y-112414819D02*
X78119047Y-111414819D01*
X78928571Y-111891009D02*
X79261904Y-111891009D01*
X79404761Y-112414819D02*
X78928571Y-112414819D01*
X78928571Y-112414819D02*
X78928571Y-111414819D01*
X78928571Y-111414819D02*
X79404761Y-111414819D01*
X79833333Y-112414819D02*
X79833333Y-111414819D01*
X79833333Y-111414819D02*
X80071428Y-111414819D01*
X80071428Y-111414819D02*
X80214285Y-111462438D01*
X80214285Y-111462438D02*
X80309523Y-111557676D01*
X80309523Y-111557676D02*
X80357142Y-111652914D01*
X80357142Y-111652914D02*
X80404761Y-111843390D01*
X80404761Y-111843390D02*
X80404761Y-111986247D01*
X80404761Y-111986247D02*
X80357142Y-112176723D01*
X80357142Y-112176723D02*
X80309523Y-112271961D01*
X80309523Y-112271961D02*
X80214285Y-112367200D01*
X80214285Y-112367200D02*
X80071428Y-112414819D01*
X80071428Y-112414819D02*
X79833333Y-112414819D01*
X80595238Y-112510057D02*
X81357142Y-112510057D01*
X81928571Y-111891009D02*
X82071428Y-111938628D01*
X82071428Y-111938628D02*
X82119047Y-111986247D01*
X82119047Y-111986247D02*
X82166666Y-112081485D01*
X82166666Y-112081485D02*
X82166666Y-112224342D01*
X82166666Y-112224342D02*
X82119047Y-112319580D01*
X82119047Y-112319580D02*
X82071428Y-112367200D01*
X82071428Y-112367200D02*
X81976190Y-112414819D01*
X81976190Y-112414819D02*
X81595238Y-112414819D01*
X81595238Y-112414819D02*
X81595238Y-111414819D01*
X81595238Y-111414819D02*
X81928571Y-111414819D01*
X81928571Y-111414819D02*
X82023809Y-111462438D01*
X82023809Y-111462438D02*
X82071428Y-111510057D01*
X82071428Y-111510057D02*
X82119047Y-111605295D01*
X82119047Y-111605295D02*
X82119047Y-111700533D01*
X82119047Y-111700533D02*
X82071428Y-111795771D01*
X82071428Y-111795771D02*
X82023809Y-111843390D01*
X82023809Y-111843390D02*
X81928571Y-111891009D01*
X81928571Y-111891009D02*
X81595238Y-111891009D01*
X82357143Y-112510057D02*
X83119047Y-112510057D01*
X83928571Y-112414819D02*
X83595238Y-111938628D01*
X83357143Y-112414819D02*
X83357143Y-111414819D01*
X83357143Y-111414819D02*
X83738095Y-111414819D01*
X83738095Y-111414819D02*
X83833333Y-111462438D01*
X83833333Y-111462438D02*
X83880952Y-111510057D01*
X83880952Y-111510057D02*
X83928571Y-111605295D01*
X83928571Y-111605295D02*
X83928571Y-111748152D01*
X83928571Y-111748152D02*
X83880952Y-111843390D01*
X83880952Y-111843390D02*
X83833333Y-111891009D01*
X83833333Y-111891009D02*
X83738095Y-111938628D01*
X83738095Y-111938628D02*
X83357143Y-111938628D01*
X60754819Y-62195238D02*
X60278628Y-62528571D01*
X60754819Y-62766666D02*
X59754819Y-62766666D01*
X59754819Y-62766666D02*
X59754819Y-62385714D01*
X59754819Y-62385714D02*
X59802438Y-62290476D01*
X59802438Y-62290476D02*
X59850057Y-62242857D01*
X59850057Y-62242857D02*
X59945295Y-62195238D01*
X59945295Y-62195238D02*
X60088152Y-62195238D01*
X60088152Y-62195238D02*
X60183390Y-62242857D01*
X60183390Y-62242857D02*
X60231009Y-62290476D01*
X60231009Y-62290476D02*
X60278628Y-62385714D01*
X60278628Y-62385714D02*
X60278628Y-62766666D01*
X59754819Y-61909523D02*
X60754819Y-61576190D01*
X60754819Y-61576190D02*
X59754819Y-61242857D01*
X59850057Y-60957142D02*
X59802438Y-60909523D01*
X59802438Y-60909523D02*
X59754819Y-60814285D01*
X59754819Y-60814285D02*
X59754819Y-60576190D01*
X59754819Y-60576190D02*
X59802438Y-60480952D01*
X59802438Y-60480952D02*
X59850057Y-60433333D01*
X59850057Y-60433333D02*
X59945295Y-60385714D01*
X59945295Y-60385714D02*
X60040533Y-60385714D01*
X60040533Y-60385714D02*
X60183390Y-60433333D01*
X60183390Y-60433333D02*
X60754819Y-61004761D01*
X60754819Y-61004761D02*
X60754819Y-60385714D01*
X72254819Y-62871428D02*
X72254819Y-63442856D01*
X72254819Y-63157142D02*
X71254819Y-63157142D01*
X71254819Y-63157142D02*
X71397676Y-63252380D01*
X71397676Y-63252380D02*
X71492914Y-63347618D01*
X71492914Y-63347618D02*
X71540533Y-63442856D01*
X71254819Y-62252380D02*
X71254819Y-62157142D01*
X71254819Y-62157142D02*
X71302438Y-62061904D01*
X71302438Y-62061904D02*
X71350057Y-62014285D01*
X71350057Y-62014285D02*
X71445295Y-61966666D01*
X71445295Y-61966666D02*
X71635771Y-61919047D01*
X71635771Y-61919047D02*
X71873866Y-61919047D01*
X71873866Y-61919047D02*
X72064342Y-61966666D01*
X72064342Y-61966666D02*
X72159580Y-62014285D01*
X72159580Y-62014285D02*
X72207200Y-62061904D01*
X72207200Y-62061904D02*
X72254819Y-62157142D01*
X72254819Y-62157142D02*
X72254819Y-62252380D01*
X72254819Y-62252380D02*
X72207200Y-62347618D01*
X72207200Y-62347618D02*
X72159580Y-62395237D01*
X72159580Y-62395237D02*
X72064342Y-62442856D01*
X72064342Y-62442856D02*
X71873866Y-62490475D01*
X71873866Y-62490475D02*
X71635771Y-62490475D01*
X71635771Y-62490475D02*
X71445295Y-62442856D01*
X71445295Y-62442856D02*
X71350057Y-62395237D01*
X71350057Y-62395237D02*
X71302438Y-62347618D01*
X71302438Y-62347618D02*
X71254819Y-62252380D01*
X71254819Y-61299999D02*
X71254819Y-61204761D01*
X71254819Y-61204761D02*
X71302438Y-61109523D01*
X71302438Y-61109523D02*
X71350057Y-61061904D01*
X71350057Y-61061904D02*
X71445295Y-61014285D01*
X71445295Y-61014285D02*
X71635771Y-60966666D01*
X71635771Y-60966666D02*
X71873866Y-60966666D01*
X71873866Y-60966666D02*
X72064342Y-61014285D01*
X72064342Y-61014285D02*
X72159580Y-61061904D01*
X72159580Y-61061904D02*
X72207200Y-61109523D01*
X72207200Y-61109523D02*
X72254819Y-61204761D01*
X72254819Y-61204761D02*
X72254819Y-61299999D01*
X72254819Y-61299999D02*
X72207200Y-61395237D01*
X72207200Y-61395237D02*
X72159580Y-61442856D01*
X72159580Y-61442856D02*
X72064342Y-61490475D01*
X72064342Y-61490475D02*
X71873866Y-61538094D01*
X71873866Y-61538094D02*
X71635771Y-61538094D01*
X71635771Y-61538094D02*
X71445295Y-61490475D01*
X71445295Y-61490475D02*
X71350057Y-61442856D01*
X71350057Y-61442856D02*
X71302438Y-61395237D01*
X71302438Y-61395237D02*
X71254819Y-61299999D01*
X72254819Y-60538094D02*
X71254819Y-60538094D01*
X71873866Y-60442856D02*
X72254819Y-60157142D01*
X71588152Y-60157142D02*
X71969104Y-60538094D01*
X64422619Y-66954819D02*
X64148809Y-66478628D01*
X63851190Y-66954819D02*
X63976190Y-65954819D01*
X63976190Y-65954819D02*
X64357143Y-65954819D01*
X64357143Y-65954819D02*
X64446428Y-66002438D01*
X64446428Y-66002438D02*
X64488095Y-66050057D01*
X64488095Y-66050057D02*
X64523809Y-66145295D01*
X64523809Y-66145295D02*
X64505952Y-66288152D01*
X64505952Y-66288152D02*
X64446428Y-66383390D01*
X64446428Y-66383390D02*
X64392857Y-66431009D01*
X64392857Y-66431009D02*
X64291667Y-66478628D01*
X64291667Y-66478628D02*
X63910714Y-66478628D01*
X64851190Y-66954819D02*
X64934524Y-66288152D01*
X64976190Y-65954819D02*
X64922619Y-66002438D01*
X64922619Y-66002438D02*
X64964286Y-66050057D01*
X64964286Y-66050057D02*
X65017857Y-66002438D01*
X65017857Y-66002438D02*
X64976190Y-65954819D01*
X64976190Y-65954819D02*
X64964286Y-66050057D01*
X65285714Y-66907200D02*
X65374999Y-66954819D01*
X65374999Y-66954819D02*
X65565476Y-66954819D01*
X65565476Y-66954819D02*
X65666666Y-66907200D01*
X65666666Y-66907200D02*
X65726190Y-66811961D01*
X65726190Y-66811961D02*
X65732142Y-66764342D01*
X65732142Y-66764342D02*
X65696428Y-66669104D01*
X65696428Y-66669104D02*
X65607142Y-66621485D01*
X65607142Y-66621485D02*
X65464285Y-66621485D01*
X65464285Y-66621485D02*
X65374999Y-66573866D01*
X65374999Y-66573866D02*
X65339285Y-66478628D01*
X65339285Y-66478628D02*
X65345238Y-66431009D01*
X65345238Y-66431009D02*
X65404761Y-66335771D01*
X65404761Y-66335771D02*
X65505952Y-66288152D01*
X65505952Y-66288152D02*
X65648809Y-66288152D01*
X65648809Y-66288152D02*
X65738095Y-66335771D01*
X66523809Y-66907200D02*
X66422619Y-66954819D01*
X66422619Y-66954819D02*
X66232142Y-66954819D01*
X66232142Y-66954819D02*
X66142857Y-66907200D01*
X66142857Y-66907200D02*
X66107142Y-66811961D01*
X66107142Y-66811961D02*
X66154762Y-66431009D01*
X66154762Y-66431009D02*
X66214285Y-66335771D01*
X66214285Y-66335771D02*
X66315476Y-66288152D01*
X66315476Y-66288152D02*
X66505952Y-66288152D01*
X66505952Y-66288152D02*
X66595238Y-66335771D01*
X66595238Y-66335771D02*
X66630952Y-66431009D01*
X66630952Y-66431009D02*
X66619047Y-66526247D01*
X66619047Y-66526247D02*
X66130952Y-66621485D01*
X67744048Y-66669104D02*
X68220238Y-66669104D01*
X67613095Y-66954819D02*
X68071429Y-65954819D01*
X68071429Y-65954819D02*
X68279762Y-66954819D01*
%TO.C,SW6*%
D11*
X54900000Y-169150000D02*
X62100000Y-169150000D01*
X62100000Y-182350000D01*
X54900000Y-182350000D01*
X54900000Y-169150000D01*
%TO.C,D9*%
X67440000Y-133764000D02*
X67440000Y-133920000D01*
X67440000Y-136080000D02*
X67440000Y-136236000D01*
X67440000Y-133764484D02*
G75*
G02*
X70671437Y-133920000I1560000J-1235516D01*
G01*
X67959039Y-133920000D02*
G75*
G02*
X70040961Y-133920000I1040961J-1080000D01*
G01*
X70040961Y-136080000D02*
G75*
G02*
X67959039Y-136080000I-1040961J1080000D01*
G01*
X70671437Y-136080000D02*
G75*
G02*
X67440000Y-136235516I-1671437J1080000D01*
G01*
%TO.C,SW4*%
X52300000Y-128200000D02*
X64700000Y-128200000D01*
X64700000Y-141800000D01*
X52300000Y-141800000D01*
X52300000Y-128200000D01*
%TO.C,SW2*%
X85300000Y-50200000D02*
X97700000Y-50200000D01*
X97700000Y-63800000D01*
X85300000Y-63800000D01*
X85300000Y-50200000D01*
%TO.C,R53*%
X62730000Y-100930000D02*
X69270000Y-100930000D01*
X62730000Y-101260000D02*
X62730000Y-100930000D01*
X62730000Y-103340000D02*
X62730000Y-103670000D01*
X62730000Y-103670000D02*
X69270000Y-103670000D01*
X69270000Y-100930000D02*
X69270000Y-101260000D01*
X69270000Y-103670000D02*
X69270000Y-103340000D01*
%TO.C,R41*%
X80730000Y-126930000D02*
X87270000Y-126930000D01*
X80730000Y-127260000D02*
X80730000Y-126930000D01*
X80730000Y-129340000D02*
X80730000Y-129670000D01*
X80730000Y-129670000D02*
X87270000Y-129670000D01*
X87270000Y-126930000D02*
X87270000Y-127260000D01*
X87270000Y-129670000D02*
X87270000Y-129340000D01*
%TO.C,R3*%
X80730000Y-74930000D02*
X87270000Y-74930000D01*
X80730000Y-75260000D02*
X80730000Y-74930000D01*
X80730000Y-77340000D02*
X80730000Y-77670000D01*
X80730000Y-77670000D02*
X87270000Y-77670000D01*
X87270000Y-74930000D02*
X87270000Y-75260000D01*
X87270000Y-77670000D02*
X87270000Y-77340000D01*
%TO.C,RV4*%
X61120000Y-115620000D02*
X61120000Y-110900000D01*
X61130000Y-107090000D02*
X61130000Y-104030000D01*
X62310000Y-115620000D02*
X61130000Y-115620000D01*
X65210000Y-115620000D02*
X64680000Y-115620000D01*
X67660000Y-115620000D02*
X66830000Y-115620000D01*
X70870000Y-104030000D02*
X61130000Y-104030000D01*
X70870000Y-107090000D02*
X70870000Y-104030000D01*
X70870000Y-115620000D02*
X69380000Y-115620000D01*
X70870000Y-115620000D02*
X70870000Y-110900000D01*
%TO.C,D5*%
X67440000Y-81764000D02*
X67440000Y-81920000D01*
X67440000Y-84080000D02*
X67440000Y-84236000D01*
X67440000Y-81764484D02*
G75*
G02*
X70671437Y-81920000I1560000J-1235516D01*
G01*
X67959039Y-81920000D02*
G75*
G02*
X70040961Y-81920000I1040961J-1080000D01*
G01*
X70040961Y-84080000D02*
G75*
G02*
X67959039Y-84080000I-1040961J1080000D01*
G01*
X70671437Y-84080000D02*
G75*
G02*
X67440000Y-84235516I-1671437J1080000D01*
G01*
%TO.C,D6*%
X79440000Y-55764000D02*
X79440000Y-55920000D01*
X79440000Y-58080000D02*
X79440000Y-58236000D01*
X79440000Y-55764484D02*
G75*
G02*
X82671437Y-55920000I1560000J-1235516D01*
G01*
X79959039Y-55920000D02*
G75*
G02*
X82040961Y-55920000I1040961J-1080000D01*
G01*
X82040961Y-58080000D02*
G75*
G02*
X79959039Y-58080000I-1040961J1080000D01*
G01*
X82671437Y-58080000D02*
G75*
G02*
X79440000Y-58235516I-1671437J1080000D01*
G01*
%TO.C,RV1*%
X79120000Y-89620000D02*
X79120000Y-84900000D01*
X79130000Y-81090000D02*
X79130000Y-78030000D01*
X80310000Y-89620000D02*
X79130000Y-89620000D01*
X83210000Y-89620000D02*
X82680000Y-89620000D01*
X85660000Y-89620000D02*
X84830000Y-89620000D01*
X88870000Y-78030000D02*
X79130000Y-78030000D01*
X88870000Y-81090000D02*
X88870000Y-78030000D01*
X88870000Y-89620000D02*
X87380000Y-89620000D01*
X88870000Y-89620000D02*
X88870000Y-84900000D01*
%TO.C,SW1*%
X52300000Y-76200000D02*
X64700000Y-76200000D01*
X64700000Y-89800000D01*
X52300000Y-89800000D01*
X52300000Y-76200000D01*
%TO.C,RV3*%
X79120000Y-141620000D02*
X79120000Y-136900000D01*
X79130000Y-133090000D02*
X79130000Y-130030000D01*
X80310000Y-141620000D02*
X79130000Y-141620000D01*
X83210000Y-141620000D02*
X82680000Y-141620000D01*
X85660000Y-141620000D02*
X84830000Y-141620000D01*
X88870000Y-130030000D02*
X79130000Y-130030000D01*
X88870000Y-133090000D02*
X88870000Y-130030000D01*
X88870000Y-141620000D02*
X87380000Y-141620000D01*
X88870000Y-141620000D02*
X88870000Y-136900000D01*
%TO.C,SW3*%
X54900000Y-152650000D02*
X62100000Y-152650000D01*
X62100000Y-165850000D01*
X54900000Y-165850000D01*
X54900000Y-152650000D01*
%TO.C,R4*%
X62730000Y-48930000D02*
X69270000Y-48930000D01*
X62730000Y-49260000D02*
X62730000Y-48930000D01*
X62730000Y-51340000D02*
X62730000Y-51670000D01*
X62730000Y-51670000D02*
X69270000Y-51670000D01*
X69270000Y-48930000D02*
X69270000Y-49260000D01*
X69270000Y-51670000D02*
X69270000Y-51340000D01*
%TO.C,SW5*%
X85300000Y-102200000D02*
X97700000Y-102200000D01*
X97700000Y-115800000D01*
X85300000Y-115800000D01*
X85300000Y-102200000D01*
%TO.C,D10*%
X79440000Y-107764000D02*
X79440000Y-107920000D01*
X79440000Y-110080000D02*
X79440000Y-110236000D01*
X79440000Y-107764484D02*
G75*
G02*
X82671437Y-107920000I1560000J-1235516D01*
G01*
X79959039Y-107920000D02*
G75*
G02*
X82040961Y-107920000I1040961J-1080000D01*
G01*
X82040961Y-110080000D02*
G75*
G02*
X79959039Y-110080000I-1040961J1080000D01*
G01*
X82671437Y-110080000D02*
G75*
G02*
X79440000Y-110235516I-1671437J1080000D01*
G01*
%TO.C,RV2*%
X61120000Y-63620000D02*
X61120000Y-58900000D01*
X61130000Y-55090000D02*
X61130000Y-52030000D01*
X62310000Y-63620000D02*
X61130000Y-63620000D01*
X65210000Y-63620000D02*
X64680000Y-63620000D01*
X67660000Y-63620000D02*
X66830000Y-63620000D01*
X70870000Y-52030000D02*
X61130000Y-52030000D01*
X70870000Y-55090000D02*
X70870000Y-52030000D01*
X70870000Y-63620000D02*
X69380000Y-63620000D01*
X70870000Y-63620000D02*
X70870000Y-58900000D01*
%TD*%
%LPC*%
D12*
%TO.C,SW6*%
X58500000Y-180450000D03*
X58500000Y-175750000D03*
X58500000Y-171050000D03*
%TD*%
D13*
%TO.C,D9*%
X67730000Y-135000000D03*
D14*
X70270000Y-135000000D03*
%TD*%
D12*
%TO.C,SW4*%
X56087000Y-139700000D03*
X56087000Y-135000000D03*
X56087000Y-130300000D03*
X60913000Y-139700000D03*
X60913000Y-135000000D03*
X60913000Y-130300000D03*
%TD*%
%TO.C,SW2*%
X89087000Y-61700000D03*
X89087000Y-57000000D03*
X89087000Y-52300000D03*
X93913000Y-61700000D03*
X93913000Y-57000000D03*
X93913000Y-52300000D03*
%TD*%
D15*
%TO.C,R53*%
X62190000Y-102300000D03*
X69810000Y-102300000D03*
%TD*%
%TO.C,R41*%
X80190000Y-128300000D03*
X87810000Y-128300000D03*
%TD*%
%TO.C,R3*%
X80190000Y-76300000D03*
X87810000Y-76300000D03*
%TD*%
D16*
%TO.C,RV4*%
X61200000Y-109000000D03*
X70800000Y-109000000D03*
D13*
X63500000Y-116500000D03*
D14*
X66000000Y-116500000D03*
X68500000Y-116500000D03*
%TD*%
D13*
%TO.C,D5*%
X67730000Y-83000000D03*
D14*
X70270000Y-83000000D03*
%TD*%
D13*
%TO.C,D6*%
X79730000Y-57000000D03*
D14*
X82270000Y-57000000D03*
%TD*%
D16*
%TO.C,RV1*%
X79200000Y-83000000D03*
X88800000Y-83000000D03*
D13*
X81500000Y-90500000D03*
D14*
X84000000Y-90500000D03*
X86500000Y-90500000D03*
%TD*%
D12*
%TO.C,SW1*%
X56087000Y-87700000D03*
X56087000Y-83000000D03*
X56087000Y-78300000D03*
X60913000Y-87700000D03*
X60913000Y-83000000D03*
X60913000Y-78300000D03*
%TD*%
D16*
%TO.C,RV3*%
X79200000Y-135000000D03*
X88800000Y-135000000D03*
D13*
X81500000Y-142500000D03*
D14*
X84000000Y-142500000D03*
X86500000Y-142500000D03*
%TD*%
D12*
%TO.C,SW3*%
X58500000Y-163950000D03*
X58500000Y-159250000D03*
X58500000Y-154550000D03*
%TD*%
D15*
%TO.C,R4*%
X62190000Y-50300000D03*
X69810000Y-50300000D03*
%TD*%
D12*
%TO.C,SW5*%
X89087000Y-113700000D03*
X89087000Y-109000000D03*
X89087000Y-104300000D03*
X93913000Y-113700000D03*
X93913000Y-109000000D03*
X93913000Y-104300000D03*
%TD*%
D13*
%TO.C,D10*%
X79730000Y-109000000D03*
D14*
X82270000Y-109000000D03*
%TD*%
D16*
%TO.C,RV2*%
X61200000Y-57000000D03*
X70800000Y-57000000D03*
D13*
X63500000Y-64500000D03*
D14*
X66000000Y-64500000D03*
X68500000Y-64500000D03*
%TD*%
D17*
%TO.C,J29*%
X52750000Y-102000000D03*
D18*
X52750000Y-104540000D03*
X52750000Y-107080000D03*
X52750000Y-109620000D03*
X52750000Y-112160000D03*
X52750000Y-114700000D03*
X52750000Y-117240000D03*
X52750000Y-119780000D03*
%TD*%
D17*
%TO.C,J30*%
X97200000Y-128000000D03*
D18*
X97200000Y-130540000D03*
X97200000Y-133080000D03*
X97200000Y-135620000D03*
X97200000Y-138160000D03*
X97200000Y-140700000D03*
X97200000Y-143240000D03*
X97200000Y-145780000D03*
%TD*%
D17*
%TO.C,J20*%
X97200000Y-76000000D03*
D18*
X97200000Y-78540000D03*
X97200000Y-81080000D03*
X97200000Y-83620000D03*
X97200000Y-86160000D03*
X97200000Y-88700000D03*
X97200000Y-91240000D03*
X97200000Y-93780000D03*
%TD*%
D17*
%TO.C,J19*%
X52750000Y-50000000D03*
D18*
X52750000Y-52540000D03*
X52750000Y-55080000D03*
X52750000Y-57620000D03*
X52750000Y-60160000D03*
X52750000Y-62700000D03*
X52750000Y-65240000D03*
X52750000Y-67780000D03*
%TD*%
%LPD*%
M02*
