%TF.GenerationSoftware,KiCad,Pcbnew,9.0.7*%
%TF.CreationDate,2026-04-06T21:47:22+02:00*%
%TF.ProjectId,DMH_Slew_PCB_2_v3,444d485f-536c-4657-975f-5043425f325f,1*%
%TF.SameCoordinates,Original*%
%TF.FileFunction,Copper,L1,Top*%
%TF.FilePolarity,Positive*%
%FSLAX46Y46*%
G04 Gerber Fmt 4.6, Leading zero omitted, Abs format (unit mm)*
G04 Created by KiCad (PCBNEW 9.0.7) date 2026-04-06 21:47:22*
%MOMM*%
%LPD*%
G01*
G04 APERTURE LIST*
%TA.AperFunction,ComponentPad*%
%ADD10C,2.800000*%
%TD*%
%TA.AperFunction,ComponentPad*%
%ADD11R,1.800000X1.800000*%
%TD*%
%TA.AperFunction,ComponentPad*%
%ADD12C,1.800000*%
%TD*%
%TA.AperFunction,ComponentPad*%
%ADD13C,1.600000*%
%TD*%
%TA.AperFunction,ComponentPad*%
%ADD14O,2.720000X3.240000*%
%TD*%
%TA.AperFunction,ComponentPad*%
%ADD15R,1.700000X1.700000*%
%TD*%
%TA.AperFunction,ComponentPad*%
%ADD16C,1.700000*%
%TD*%
%TA.AperFunction,Conductor*%
%ADD17C,0.200000*%
%TD*%
%TA.AperFunction,Conductor*%
%ADD18C,1.000000*%
%TD*%
G04 APERTURE END LIST*
D10*
%TO.P,SW6,1,A*%
%TO.N,B_Rng_Sw_p1_C*%
X58500000Y-139700000D03*
%TO.P,SW6,2,B*%
%TO.N,B_Out_Jack_C*%
X58500000Y-135000000D03*
%TO.P,SW6,3,C*%
%TO.N,B_Rng_Sw_p3_C*%
X58500000Y-130300000D03*
%TD*%
D11*
%TO.P,D9,1,K*%
%TO.N,GND*%
X67730000Y-135000000D03*
D12*
%TO.P,D9,2,A*%
%TO.N,B_F_LED_C*%
X70270000Y-135000000D03*
%TD*%
D10*
%TO.P,SW4,1,A*%
%TO.N,+10V*%
X56087000Y-180450000D03*
%TO.P,SW4,2,B*%
%TO.N,Net-(R53-Pad2)*%
X56087000Y-175750000D03*
%TO.P,SW4,3,C*%
%TO.N,B_CV_Buff_C*%
X56087000Y-171050000D03*
%TO.P,SW4,4,A*%
X60913000Y-180450000D03*
%TO.P,SW4,5,B*%
%TO.N,Net-(R41-Pad2)*%
X60913000Y-175750000D03*
%TO.P,SW4,6,C*%
%TO.N,+10V*%
X60913000Y-171050000D03*
%TD*%
%TO.P,SW2,1,A*%
%TO.N,A_Diff_Amp_C*%
X89087000Y-61700000D03*
%TO.P,SW2,2,B*%
%TO.N,A_LinLog_Sw_p2_C*%
X89087000Y-57000000D03*
%TO.P,SW2,3,C*%
%TO.N,GND*%
X89087000Y-52300000D03*
%TO.P,SW2,4,A*%
%TO.N,+10V*%
X93913000Y-61700000D03*
%TO.P,SW2,5,B*%
%TO.N,A_LinLog_Sw_p5_C*%
X93913000Y-57000000D03*
%TO.P,SW2,6,C*%
%TO.N,GND*%
X93913000Y-52300000D03*
%TD*%
D13*
%TO.P,R53,1*%
%TO.N,B_Rise_CV_C*%
X62190000Y-102300000D03*
%TO.P,R53,2*%
%TO.N,Net-(R53-Pad2)*%
X69810000Y-102300000D03*
%TD*%
%TO.P,R41,1*%
%TO.N,B_Fall_CV_C*%
X80190000Y-128300000D03*
%TO.P,R41,2*%
%TO.N,Net-(R41-Pad2)*%
X87810000Y-128300000D03*
%TD*%
%TO.P,R3,1*%
%TO.N,A_Fall_CV_C*%
X80190000Y-76300000D03*
%TO.P,R3,2*%
%TO.N,Net-(R3-Pad2)*%
X87810000Y-76300000D03*
%TD*%
D14*
%TO.P,RV4,*%
%TO.N,*%
X61200000Y-109000000D03*
X70800000Y-109000000D03*
D11*
%TO.P,RV4,1,1*%
%TO.N,GND*%
X63500000Y-116500000D03*
D12*
%TO.P,RV4,2,2*%
%TO.N,B_Rise_CV_C*%
X66000000Y-116500000D03*
%TO.P,RV4,3,3*%
%TO.N,Net-(R53-Pad2)*%
X68500000Y-116500000D03*
%TD*%
D11*
%TO.P,D5,1,K*%
%TO.N,GND*%
X67730000Y-83000000D03*
D12*
%TO.P,D5,2,A*%
%TO.N,A_F_LED_C*%
X70270000Y-83000000D03*
%TD*%
D11*
%TO.P,D6,1,K*%
%TO.N,GND*%
X79730000Y-57000000D03*
D12*
%TO.P,D6,2,A*%
%TO.N,A_R_LED_C*%
X82270000Y-57000000D03*
%TD*%
D14*
%TO.P,RV1,*%
%TO.N,*%
X79200000Y-83000000D03*
X88800000Y-83000000D03*
D11*
%TO.P,RV1,1,1*%
%TO.N,GND*%
X81500000Y-90500000D03*
D12*
%TO.P,RV1,2,2*%
%TO.N,A_Fall_CV_C*%
X84000000Y-90500000D03*
%TO.P,RV1,3,3*%
%TO.N,Net-(R3-Pad2)*%
X86500000Y-90500000D03*
%TD*%
D10*
%TO.P,SW1,1,A*%
%TO.N,+10V*%
X56087000Y-163950000D03*
%TO.P,SW1,2,B*%
%TO.N,Net-(R4-Pad2)*%
X56087000Y-159250000D03*
%TO.P,SW1,3,C*%
%TO.N,A_CV_Buff_C*%
X56087000Y-154550000D03*
%TO.P,SW1,4,A*%
X60913000Y-163950000D03*
%TO.P,SW1,5,B*%
%TO.N,Net-(R3-Pad2)*%
X60913000Y-159250000D03*
%TO.P,SW1,6,C*%
%TO.N,+10V*%
X60913000Y-154550000D03*
%TD*%
D14*
%TO.P,RV3,*%
%TO.N,*%
X79200000Y-135000000D03*
X88800000Y-135000000D03*
D11*
%TO.P,RV3,1,1*%
%TO.N,GND*%
X81500000Y-142500000D03*
D12*
%TO.P,RV3,2,2*%
%TO.N,B_Fall_CV_C*%
X84000000Y-142500000D03*
%TO.P,RV3,3,3*%
%TO.N,Net-(R41-Pad2)*%
X86500000Y-142500000D03*
%TD*%
D10*
%TO.P,SW3,1,A*%
%TO.N,A_Rng_Sw_p1_C*%
X58500000Y-87700000D03*
%TO.P,SW3,2,B*%
%TO.N,A_Out_Jack_C*%
X58500000Y-83000000D03*
%TO.P,SW3,3,C*%
%TO.N,A_Rng_Sw_p3_C*%
X58500000Y-78300000D03*
%TD*%
D13*
%TO.P,R4,1*%
%TO.N,A_Rise_CV_C*%
X62190000Y-50300000D03*
%TO.P,R4,2*%
%TO.N,Net-(R4-Pad2)*%
X69810000Y-50300000D03*
%TD*%
D10*
%TO.P,SW5,1,A*%
%TO.N,B_Diff_Amp_C*%
X89087000Y-113700000D03*
%TO.P,SW5,2,B*%
%TO.N,B_LinLog_Sw_p2_C*%
X89087000Y-109000000D03*
%TO.P,SW5,3,C*%
%TO.N,GND*%
X89087000Y-104300000D03*
%TO.P,SW5,4,A*%
%TO.N,+10V*%
X93913000Y-113700000D03*
%TO.P,SW5,5,B*%
%TO.N,B_LinLog_Sw_p5_C*%
X93913000Y-109000000D03*
%TO.P,SW5,6,C*%
%TO.N,GND*%
X93913000Y-104300000D03*
%TD*%
D11*
%TO.P,D10,1,K*%
%TO.N,GND*%
X79730000Y-109000000D03*
D12*
%TO.P,D10,2,A*%
%TO.N,B_R_LED_C*%
X82270000Y-109000000D03*
%TD*%
D14*
%TO.P,RV2,*%
%TO.N,*%
X61200000Y-57000000D03*
X70800000Y-57000000D03*
D11*
%TO.P,RV2,1,1*%
%TO.N,GND*%
X63500000Y-64500000D03*
D12*
%TO.P,RV2,2,2*%
%TO.N,A_Rise_CV_C*%
X66000000Y-64500000D03*
%TO.P,RV2,3,3*%
%TO.N,Net-(R4-Pad2)*%
X68500000Y-64500000D03*
%TD*%
D15*
%TO.P,J29,1,Pin_1*%
%TO.N,GND*%
X52750000Y-102000000D03*
D16*
%TO.P,J29,2,Pin_2*%
%TO.N,B_Diff_Amp_C*%
X52750000Y-104540000D03*
%TO.P,J29,3,Pin_3*%
%TO.N,B_Rise_CV_C*%
X52750000Y-107080000D03*
%TO.P,J29,4,Pin_4*%
%TO.N,B_Fall_CV_C*%
X52750000Y-109620000D03*
%TO.P,J29,5,Pin_5*%
%TO.N,+10V*%
X52750000Y-112160000D03*
%TO.P,J29,6,Pin_6*%
%TO.N,B_CV_Buff_C*%
X52750000Y-114700000D03*
%TO.P,J29,7,Pin_7*%
%TO.N,GND*%
X52750000Y-117240000D03*
%TO.P,J29,8,Pin_8*%
X52750000Y-119780000D03*
%TD*%
D15*
%TO.P,J30,1,Pin_1*%
%TO.N,B_LinLog_Sw_p5_C*%
X97200000Y-128000000D03*
D16*
%TO.P,J30,2,Pin_2*%
%TO.N,B_LinLog_Sw_p2_C*%
X97200000Y-130540000D03*
%TO.P,J30,3,Pin_3*%
%TO.N,B_R_LED_C*%
X97200000Y-133080000D03*
%TO.P,J30,4,Pin_4*%
%TO.N,B_F_LED_C*%
X97200000Y-135620000D03*
%TO.P,J30,5,Pin_5*%
%TO.N,B_Rng_Sw_p3_C*%
X97200000Y-138160000D03*
%TO.P,J30,6,Pin_6*%
%TO.N,B_Out_Jack_C*%
X97200000Y-140700000D03*
%TO.P,J30,7,Pin_7*%
%TO.N,B_Rng_Sw_p1_C*%
X97200000Y-143240000D03*
%TO.P,J30,8,Pin_8*%
%TO.N,GND*%
X97200000Y-145780000D03*
%TD*%
D15*
%TO.P,J20,1,Pin_1*%
%TO.N,A_LinLog_Sw_p5_C*%
X97200000Y-76000000D03*
D16*
%TO.P,J20,2,Pin_2*%
%TO.N,A_LinLog_Sw_p2_C*%
X97200000Y-78540000D03*
%TO.P,J20,3,Pin_3*%
%TO.N,A_R_LED_C*%
X97200000Y-81080000D03*
%TO.P,J20,4,Pin_4*%
%TO.N,A_F_LED_C*%
X97200000Y-83620000D03*
%TO.P,J20,5,Pin_5*%
%TO.N,A_Rng_Sw_p3_C*%
X97200000Y-86160000D03*
%TO.P,J20,6,Pin_6*%
%TO.N,A_Out_Jack_C*%
X97200000Y-88700000D03*
%TO.P,J20,7,Pin_7*%
%TO.N,A_Rng_Sw_p1_C*%
X97200000Y-91240000D03*
%TO.P,J20,8,Pin_8*%
%TO.N,GND*%
X97200000Y-93780000D03*
%TD*%
D15*
%TO.P,J19,1,Pin_1*%
%TO.N,GND*%
X52750000Y-50000000D03*
D16*
%TO.P,J19,2,Pin_2*%
%TO.N,A_Diff_Amp_C*%
X52750000Y-52540000D03*
%TO.P,J19,3,Pin_3*%
%TO.N,A_Rise_CV_C*%
X52750000Y-55080000D03*
%TO.P,J19,4,Pin_4*%
%TO.N,A_Fall_CV_C*%
X52750000Y-57620000D03*
%TO.P,J19,5,Pin_5*%
%TO.N,+10V*%
X52750000Y-60160000D03*
%TO.P,J19,6,Pin_6*%
%TO.N,A_CV_Buff_C*%
X52750000Y-62700000D03*
%TO.P,J19,7,Pin_7*%
%TO.N,GND*%
X52750000Y-65240000D03*
%TO.P,J19,8,Pin_8*%
X52750000Y-67780000D03*
%TD*%
D17*
%TO.N,Net-(R3-Pad2)*%
X75700000Y-145931900D02*
X75700000Y-120800000D01*
X73833900Y-147798000D02*
X75700000Y-145931900D01*
X64969100Y-147798000D02*
X73833900Y-147798000D01*
X63300000Y-149467100D02*
X64969100Y-147798000D01*
X74000000Y-103000000D02*
X86500000Y-90500000D01*
X75700000Y-120800000D02*
X74000000Y-119100000D01*
X63300000Y-156863000D02*
X63300000Y-149467100D01*
X74000000Y-119100000D02*
X74000000Y-103000000D01*
X60913000Y-159250000D02*
X63300000Y-156863000D01*
%TO.N,Net-(R41-Pad2)*%
X80801000Y-148199000D02*
X86500000Y-142500000D01*
X63701000Y-149633200D02*
X65135200Y-148199000D01*
X63701000Y-172962000D02*
X63701000Y-149633200D01*
X60913000Y-175750000D02*
X63701000Y-172962000D01*
X65135200Y-148199000D02*
X80801000Y-148199000D01*
D18*
%TO.N,+10V*%
X93913000Y-88988000D02*
X93913000Y-61700000D01*
X76501000Y-106400000D02*
X93913000Y-88988000D01*
X76501000Y-111901000D02*
X76501000Y-106400000D01*
X81900000Y-117300000D02*
X76501000Y-111901000D01*
X90313000Y-117300000D02*
X81900000Y-117300000D01*
X93913000Y-113700000D02*
X90313000Y-117300000D01*
X60913000Y-168776000D02*
X60913000Y-171050000D01*
X56087000Y-163950000D02*
X60913000Y-168776000D01*
D17*
%TO.N,Net-(R53-Pad2)*%
X75299000Y-123299000D02*
X68500000Y-116500000D01*
X75299000Y-145765800D02*
X75299000Y-123299000D01*
X73667800Y-147397000D02*
X75299000Y-145765800D01*
X64803000Y-147397000D02*
X73667800Y-147397000D01*
X58500000Y-153700000D02*
X64803000Y-147397000D01*
X58500000Y-160200000D02*
X58500000Y-153700000D01*
X55500000Y-161600000D02*
X57100000Y-161600000D01*
X54101000Y-165101000D02*
X54101000Y-162999000D01*
X54101000Y-162999000D02*
X55500000Y-161600000D01*
X58100000Y-169100000D02*
X54101000Y-165101000D01*
X58100000Y-171600000D02*
X58100000Y-169100000D01*
X56087000Y-173613000D02*
X58100000Y-171600000D01*
X57100000Y-161600000D02*
X58500000Y-160200000D01*
X56087000Y-175750000D02*
X56087000Y-173613000D01*
D18*
%TO.N,+10V*%
X58500000Y-173463000D02*
X60913000Y-171050000D01*
X58500000Y-178037000D02*
X58500000Y-173463000D01*
X56087000Y-180450000D02*
X58500000Y-178037000D01*
D17*
%TO.N,GND*%
X89087000Y-51977000D02*
X89087000Y-52300000D01*
%TO.N,A_R_LED_C*%
X95599000Y-74433900D02*
X95599000Y-79479000D01*
X95306850Y-59528050D02*
X96398000Y-60619200D01*
X82270000Y-57000000D02*
X84798050Y-59528050D01*
X96398000Y-60619200D02*
X96398000Y-73634900D01*
X84798050Y-59528050D02*
X95306850Y-59528050D01*
X95599000Y-79479000D02*
X97200000Y-81080000D01*
X96398000Y-73634900D02*
X95599000Y-74433900D01*
%TO.N,B_R_LED_C*%
X84684000Y-111414000D02*
X95192800Y-111414000D01*
X96398000Y-112619200D02*
X96398000Y-125534900D01*
X95648000Y-126284900D02*
X95648000Y-131528000D01*
X95192800Y-111414000D02*
X96398000Y-112619200D01*
X96398000Y-125534900D02*
X95648000Y-126284900D01*
X82270000Y-109000000D02*
X84684000Y-111414000D01*
X95648000Y-131528000D02*
X97200000Y-133080000D01*
%TO.N,A_Fall_CV_C*%
X84000000Y-90500000D02*
X84000000Y-80110000D01*
X84000000Y-80110000D02*
X80190000Y-76300000D01*
%TO.N,A_CV_Buff_C*%
X56087000Y-149980100D02*
X59472100Y-146595000D01*
X73335600Y-146595000D02*
X74497000Y-145433600D01*
X74497000Y-145433600D02*
X74497000Y-127997000D01*
X56087000Y-154550000D02*
X56087000Y-149980100D01*
X59472100Y-146595000D02*
X73335600Y-146595000D01*
X64701000Y-118201000D02*
X64701000Y-74651000D01*
X74497000Y-127997000D02*
X64701000Y-118201000D01*
X64701000Y-74651000D02*
X52750000Y-62700000D01*
%TO.N,A_Rise_CV_C*%
X52750000Y-55080000D02*
X57410000Y-55080000D01*
X57410000Y-55080000D02*
X62190000Y-50300000D01*
%TO.N,A_LinLog_Sw_p5_C*%
X97200000Y-60287000D02*
X97200000Y-76000000D01*
X93913000Y-57000000D02*
X97200000Y-60287000D01*
%TO.N,A_LinLog_Sw_p2_C*%
X96799000Y-73801000D02*
X96000000Y-74600000D01*
X96000000Y-74600000D02*
X96000000Y-77340000D01*
X95472950Y-59127050D02*
X96799000Y-60453100D01*
X91214050Y-59127050D02*
X95472950Y-59127050D01*
X89087000Y-57000000D02*
X91214050Y-59127050D01*
X96799000Y-60453100D02*
X96799000Y-73801000D01*
X96000000Y-77340000D02*
X97200000Y-78540000D01*
%TO.N,B_CV_Buff_C*%
X53700000Y-151800000D02*
X59306000Y-146194000D01*
X74096000Y-145267500D02*
X74096000Y-136046000D01*
X56087000Y-171050000D02*
X53700000Y-168663000D01*
X53700000Y-168663000D02*
X53700000Y-151800000D01*
X74096000Y-136046000D02*
X52750000Y-114700000D01*
X73169500Y-146194000D02*
X74096000Y-145267500D01*
X59306000Y-146194000D02*
X73169500Y-146194000D01*
%TO.N,B_Rise_CV_C*%
X57410000Y-107080000D02*
X62190000Y-102300000D01*
X52750000Y-107080000D02*
X57410000Y-107080000D01*
%TO.N,B_Fall_CV_C*%
X80190000Y-128300000D02*
X84000000Y-132110000D01*
X84000000Y-132110000D02*
X84000000Y-142500000D01*
%TO.N,B_LinLog_Sw_p5_C*%
X93913000Y-109000000D02*
X97200000Y-112287000D01*
X97200000Y-112287000D02*
X97200000Y-128000000D01*
%TO.N,B_LinLog_Sw_p2_C*%
X96049000Y-129389000D02*
X97200000Y-130540000D01*
X95358900Y-111013000D02*
X96799000Y-112453100D01*
X89087000Y-109000000D02*
X91100000Y-111013000D01*
X96049000Y-126451000D02*
X96049000Y-129389000D01*
X96799000Y-125701000D02*
X96049000Y-126451000D01*
X96799000Y-112453100D02*
X96799000Y-125701000D01*
X91100000Y-111013000D02*
X95358900Y-111013000D01*
%TO.N,Net-(R3-Pad2)*%
X86500000Y-77610000D02*
X87810000Y-76300000D01*
X86500000Y-90500000D02*
X86500000Y-77610000D01*
%TO.N,Net-(R4-Pad2)*%
X58099000Y-157238000D02*
X58099000Y-153533900D01*
X73600000Y-91000000D02*
X73600000Y-69600000D01*
X64636900Y-146996000D02*
X73501700Y-146996000D01*
X73501700Y-146996000D02*
X74898000Y-145599700D01*
X74898000Y-145599700D02*
X74898000Y-125798000D01*
X67299000Y-118199000D02*
X67299000Y-97301000D01*
X74898000Y-125798000D02*
X67299000Y-118199000D01*
X67299000Y-97301000D02*
X73600000Y-91000000D01*
X73600000Y-69600000D02*
X68500000Y-64500000D01*
X56087000Y-159250000D02*
X58099000Y-157238000D01*
X58099000Y-153533900D02*
X64636900Y-146996000D01*
%TO.N,Net-(R41-Pad2)*%
X86500000Y-129610000D02*
X87810000Y-128300000D01*
X86500000Y-142500000D02*
X86500000Y-129610000D01*
%TD*%
%TA.AperFunction,Conductor*%
%TO.N,GND*%
G36*
X98442539Y-43020185D02*
G01*
X98488294Y-43072989D01*
X98499500Y-43124500D01*
X98499500Y-74613568D01*
X98479815Y-74680607D01*
X98427011Y-74726362D01*
X98357853Y-74736306D01*
X98301190Y-74712835D01*
X98292334Y-74706206D01*
X98292328Y-74706202D01*
X98157482Y-74655908D01*
X98157483Y-74655908D01*
X98097883Y-74649501D01*
X98097881Y-74649500D01*
X98097873Y-74649500D01*
X98097865Y-74649500D01*
X97924500Y-74649500D01*
X97857461Y-74629815D01*
X97811706Y-74577011D01*
X97800500Y-74525500D01*
X97800500Y-60376059D01*
X97800501Y-60376046D01*
X97800501Y-60207945D01*
X97800501Y-60207943D01*
X97759577Y-60055215D01*
X97722985Y-59991836D01*
X97680520Y-59918284D01*
X97568716Y-59806480D01*
X97568715Y-59806479D01*
X97564385Y-59802149D01*
X97564374Y-59802139D01*
X95674901Y-57912666D01*
X95641416Y-57851343D01*
X95646400Y-57781651D01*
X95648000Y-57777583D01*
X95716502Y-57612207D01*
X95780982Y-57371565D01*
X95813500Y-57124565D01*
X95813500Y-56875435D01*
X95780982Y-56628435D01*
X95716502Y-56387793D01*
X95621164Y-56157627D01*
X95611373Y-56140669D01*
X95496599Y-55941873D01*
X95344939Y-55744225D01*
X95344933Y-55744218D01*
X95168781Y-55568066D01*
X95168774Y-55568060D01*
X94971126Y-55416400D01*
X94755376Y-55291837D01*
X94755361Y-55291830D01*
X94525207Y-55196498D01*
X94284561Y-55132017D01*
X94037575Y-55099501D01*
X94037570Y-55099500D01*
X94037565Y-55099500D01*
X93788435Y-55099500D01*
X93788429Y-55099500D01*
X93788424Y-55099501D01*
X93541438Y-55132017D01*
X93300792Y-55196498D01*
X93070638Y-55291830D01*
X93070623Y-55291837D01*
X92854873Y-55416400D01*
X92657225Y-55568060D01*
X92657218Y-55568066D01*
X92481066Y-55744218D01*
X92481060Y-55744225D01*
X92329400Y-55941873D01*
X92204837Y-56157623D01*
X92204830Y-56157638D01*
X92109498Y-56387792D01*
X92045017Y-56628438D01*
X92012501Y-56875424D01*
X92012500Y-56875441D01*
X92012500Y-57124558D01*
X92012501Y-57124575D01*
X92045017Y-57371561D01*
X92109498Y-57612207D01*
X92204830Y-57842361D01*
X92204837Y-57842376D01*
X92329400Y-58058126D01*
X92481060Y-58255774D01*
X92481066Y-58255781D01*
X92540154Y-58314869D01*
X92573639Y-58376192D01*
X92568655Y-58445884D01*
X92526783Y-58501817D01*
X92461319Y-58526234D01*
X92452473Y-58526550D01*
X91514147Y-58526550D01*
X91447108Y-58506865D01*
X91426466Y-58490231D01*
X90848901Y-57912666D01*
X90815416Y-57851343D01*
X90820400Y-57781651D01*
X90822000Y-57777583D01*
X90890502Y-57612207D01*
X90954982Y-57371565D01*
X90987500Y-57124565D01*
X90987500Y-56875435D01*
X90954982Y-56628435D01*
X90890502Y-56387793D01*
X90795164Y-56157627D01*
X90785373Y-56140669D01*
X90670599Y-55941873D01*
X90518939Y-55744225D01*
X90518933Y-55744218D01*
X90342781Y-55568066D01*
X90342774Y-55568060D01*
X90145126Y-55416400D01*
X89929376Y-55291837D01*
X89929361Y-55291830D01*
X89699207Y-55196498D01*
X89458561Y-55132017D01*
X89211575Y-55099501D01*
X89211570Y-55099500D01*
X89211565Y-55099500D01*
X88962435Y-55099500D01*
X88962429Y-55099500D01*
X88962424Y-55099501D01*
X88715438Y-55132017D01*
X88474792Y-55196498D01*
X88244638Y-55291830D01*
X88244623Y-55291837D01*
X88028873Y-55416400D01*
X87831225Y-55568060D01*
X87831218Y-55568066D01*
X87655066Y-55744218D01*
X87655060Y-55744225D01*
X87503400Y-55941873D01*
X87378837Y-56157623D01*
X87378830Y-56157638D01*
X87283498Y-56387792D01*
X87219017Y-56628438D01*
X87186501Y-56875424D01*
X87186500Y-56875441D01*
X87186500Y-57124558D01*
X87186501Y-57124575D01*
X87219017Y-57371561D01*
X87283498Y-57612207D01*
X87378830Y-57842361D01*
X87378837Y-57842376D01*
X87503400Y-58058126D01*
X87655060Y-58255774D01*
X87655066Y-58255781D01*
X87831218Y-58431933D01*
X87831225Y-58431939D01*
X88028873Y-58583599D01*
X88223840Y-58696163D01*
X88272055Y-58746730D01*
X88285279Y-58815337D01*
X88259311Y-58880201D01*
X88202397Y-58920730D01*
X88161840Y-58927550D01*
X85098148Y-58927550D01*
X85031109Y-58907865D01*
X85010467Y-58891231D01*
X83643438Y-57524203D01*
X83609953Y-57462880D01*
X83613187Y-57398205D01*
X83636015Y-57327951D01*
X83670500Y-57110222D01*
X83670500Y-56889778D01*
X83636015Y-56672049D01*
X83601955Y-56567221D01*
X83567896Y-56462396D01*
X83567895Y-56462393D01*
X83524005Y-56376256D01*
X83467815Y-56265978D01*
X83389091Y-56157623D01*
X83338247Y-56087641D01*
X83338243Y-56087636D01*
X83182363Y-55931756D01*
X83182358Y-55931752D01*
X83004025Y-55802187D01*
X83004024Y-55802186D01*
X83004022Y-55802185D01*
X82941096Y-55770122D01*
X82807606Y-55702104D01*
X82807603Y-55702103D01*
X82597952Y-55633985D01*
X82489086Y-55616742D01*
X82380222Y-55599500D01*
X82159778Y-55599500D01*
X82087201Y-55610995D01*
X81942047Y-55633985D01*
X81732396Y-55702103D01*
X81732393Y-55702104D01*
X81535974Y-55802187D01*
X81357641Y-55931752D01*
X81357636Y-55931756D01*
X81307075Y-55982317D01*
X81245752Y-56015801D01*
X81176060Y-56010816D01*
X81120127Y-55968945D01*
X81103213Y-55937968D01*
X81073354Y-55857913D01*
X81073350Y-55857906D01*
X80987190Y-55742812D01*
X80987187Y-55742809D01*
X80872093Y-55656649D01*
X80872086Y-55656645D01*
X80737379Y-55606403D01*
X80737372Y-55606401D01*
X80677844Y-55600000D01*
X79980000Y-55600000D01*
X79980000Y-56624722D01*
X79903694Y-56580667D01*
X79789244Y-56550000D01*
X79670756Y-56550000D01*
X79556306Y-56580667D01*
X79480000Y-56624722D01*
X79480000Y-55600000D01*
X78782155Y-55600000D01*
X78722627Y-55606401D01*
X78722620Y-55606403D01*
X78587913Y-55656645D01*
X78587906Y-55656649D01*
X78472812Y-55742809D01*
X78472809Y-55742812D01*
X78386649Y-55857906D01*
X78386645Y-55857913D01*
X78336403Y-55992620D01*
X78336401Y-55992627D01*
X78330000Y-56052155D01*
X78330000Y-56750000D01*
X79354722Y-56750000D01*
X79310667Y-56826306D01*
X79280000Y-56940756D01*
X79280000Y-57059244D01*
X79310667Y-57173694D01*
X79354722Y-57250000D01*
X78330000Y-57250000D01*
X78330000Y-57947844D01*
X78336401Y-58007372D01*
X78336403Y-58007379D01*
X78386645Y-58142086D01*
X78386649Y-58142093D01*
X78472809Y-58257187D01*
X78472812Y-58257190D01*
X78587906Y-58343350D01*
X78587913Y-58343354D01*
X78722620Y-58393596D01*
X78722627Y-58393598D01*
X78782155Y-58399999D01*
X78782172Y-58400000D01*
X79480000Y-58400000D01*
X79480000Y-57375277D01*
X79556306Y-57419333D01*
X79670756Y-57450000D01*
X79789244Y-57450000D01*
X79903694Y-57419333D01*
X79980000Y-57375277D01*
X79980000Y-58400000D01*
X80677828Y-58400000D01*
X80677844Y-58399999D01*
X80737372Y-58393598D01*
X80737379Y-58393596D01*
X80872086Y-58343354D01*
X80872093Y-58343350D01*
X80987187Y-58257190D01*
X80987190Y-58257187D01*
X81073350Y-58142093D01*
X81073354Y-58142086D01*
X81103213Y-58062031D01*
X81145084Y-58006097D01*
X81210548Y-57981680D01*
X81278821Y-57996531D01*
X81307076Y-58017683D01*
X81357636Y-58068243D01*
X81357641Y-58068247D01*
X81513192Y-58181260D01*
X81535978Y-58197815D01*
X81652501Y-58257187D01*
X81732393Y-58297895D01*
X81732396Y-58297896D01*
X81784635Y-58314869D01*
X81942049Y-58366015D01*
X82159778Y-58400500D01*
X82159779Y-58400500D01*
X82380221Y-58400500D01*
X82380222Y-58400500D01*
X82597951Y-58366015D01*
X82668205Y-58343187D01*
X82738044Y-58341192D01*
X82794202Y-58373437D01*
X84429334Y-60008570D01*
X84429336Y-60008571D01*
X84429340Y-60008574D01*
X84510126Y-60055215D01*
X84566266Y-60087627D01*
X84718993Y-60128551D01*
X84718995Y-60128551D01*
X84884704Y-60128551D01*
X84884720Y-60128550D01*
X87671373Y-60128550D01*
X87738412Y-60148235D01*
X87784167Y-60201039D01*
X87794111Y-60270197D01*
X87765086Y-60333753D01*
X87759054Y-60340231D01*
X87655066Y-60444218D01*
X87655060Y-60444225D01*
X87503400Y-60641873D01*
X87378837Y-60857623D01*
X87378830Y-60857638D01*
X87283498Y-61087792D01*
X87219017Y-61328438D01*
X87186501Y-61575424D01*
X87186500Y-61575441D01*
X87186500Y-61824558D01*
X87186501Y-61824575D01*
X87219017Y-62071561D01*
X87283498Y-62312207D01*
X87378830Y-62542361D01*
X87378837Y-62542376D01*
X87503400Y-62758126D01*
X87655060Y-62955774D01*
X87655066Y-62955781D01*
X87831218Y-63131933D01*
X87831225Y-63131939D01*
X88028873Y-63283599D01*
X88244623Y-63408162D01*
X88244638Y-63408169D01*
X88321027Y-63439810D01*
X88474793Y-63503502D01*
X88715435Y-63567982D01*
X88962435Y-63600500D01*
X88962442Y-63600500D01*
X89211558Y-63600500D01*
X89211565Y-63600500D01*
X89458565Y-63567982D01*
X89699207Y-63503502D01*
X89922781Y-63410894D01*
X89929361Y-63408169D01*
X89929361Y-63408168D01*
X89929373Y-63408164D01*
X90145127Y-63283599D01*
X90342776Y-63131938D01*
X90518938Y-62955776D01*
X90670599Y-62758127D01*
X90795164Y-62542373D01*
X90890502Y-62312207D01*
X90954982Y-62071565D01*
X90987500Y-61824565D01*
X90987500Y-61575435D01*
X90954982Y-61328435D01*
X90890502Y-61087793D01*
X90799386Y-60867820D01*
X90795169Y-60857638D01*
X90795162Y-60857623D01*
X90670599Y-60641873D01*
X90518939Y-60444225D01*
X90518933Y-60444218D01*
X90414946Y-60340231D01*
X90381461Y-60278908D01*
X90386445Y-60209216D01*
X90428317Y-60153283D01*
X90493781Y-60128866D01*
X90502627Y-60128550D01*
X92497373Y-60128550D01*
X92564412Y-60148235D01*
X92610167Y-60201039D01*
X92620111Y-60270197D01*
X92591086Y-60333753D01*
X92585054Y-60340231D01*
X92481066Y-60444218D01*
X92481060Y-60444225D01*
X92329400Y-60641873D01*
X92204837Y-60857623D01*
X92204830Y-60857638D01*
X92109498Y-61087792D01*
X92045017Y-61328438D01*
X92012501Y-61575424D01*
X92012500Y-61575441D01*
X92012500Y-61824558D01*
X92012501Y-61824575D01*
X92045017Y-62071561D01*
X92109498Y-62312207D01*
X92204830Y-62542361D01*
X92204837Y-62542376D01*
X92329400Y-62758126D01*
X92481060Y-62955774D01*
X92481066Y-62955781D01*
X92657218Y-63131933D01*
X92657225Y-63131939D01*
X92801714Y-63242809D01*
X92854873Y-63283599D01*
X92854880Y-63283603D01*
X92857384Y-63285276D01*
X92857966Y-63285972D01*
X92858093Y-63286070D01*
X92858071Y-63286098D01*
X92902192Y-63338885D01*
X92912500Y-63388383D01*
X92912500Y-88522217D01*
X92892815Y-88589256D01*
X92876181Y-88609898D01*
X75863220Y-105622859D01*
X75863218Y-105622861D01*
X75793538Y-105692540D01*
X75723859Y-105762219D01*
X75614371Y-105926079D01*
X75614364Y-105926092D01*
X75538950Y-106108160D01*
X75538947Y-106108170D01*
X75500500Y-106301456D01*
X75500500Y-106301459D01*
X75500500Y-111999541D01*
X75500500Y-111999543D01*
X75500499Y-111999543D01*
X75538947Y-112192829D01*
X75538950Y-112192839D01*
X75614364Y-112374907D01*
X75614371Y-112374920D01*
X75723860Y-112538781D01*
X75723863Y-112538785D01*
X75867537Y-112682459D01*
X75867559Y-112682479D01*
X81119735Y-117934655D01*
X81119764Y-117934686D01*
X81262214Y-118077136D01*
X81262218Y-118077139D01*
X81426079Y-118186628D01*
X81426092Y-118186635D01*
X81554833Y-118239961D01*
X81608159Y-118262049D01*
X81608164Y-118262051D01*
X81688632Y-118278057D01*
X81698687Y-118280057D01*
X81801456Y-118300500D01*
X81801459Y-118300500D01*
X90411543Y-118300500D01*
X90476398Y-118287598D01*
X90524368Y-118278057D01*
X90604836Y-118262051D01*
X90658165Y-118239961D01*
X90786914Y-118186632D01*
X90950782Y-118077139D01*
X91090139Y-117937782D01*
X91090140Y-117937779D01*
X91097206Y-117930714D01*
X91097209Y-117930710D01*
X93426593Y-115601325D01*
X93487914Y-115567842D01*
X93538463Y-115567390D01*
X93541417Y-115567977D01*
X93541435Y-115567982D01*
X93788435Y-115600500D01*
X93788442Y-115600500D01*
X94037558Y-115600500D01*
X94037565Y-115600500D01*
X94284565Y-115567982D01*
X94525207Y-115503502D01*
X94755373Y-115408164D01*
X94971127Y-115283599D01*
X95168776Y-115131938D01*
X95344938Y-114955776D01*
X95496599Y-114758127D01*
X95566113Y-114637723D01*
X95616679Y-114589509D01*
X95685286Y-114576285D01*
X95750151Y-114602253D01*
X95790680Y-114659167D01*
X95797500Y-114699724D01*
X95797500Y-125234802D01*
X95777815Y-125301841D01*
X95761181Y-125322483D01*
X95167481Y-125916182D01*
X95167479Y-125916185D01*
X95117361Y-126002994D01*
X95117359Y-126002996D01*
X95088425Y-126053109D01*
X95088424Y-126053110D01*
X95076370Y-126098097D01*
X95047499Y-126205843D01*
X95047499Y-126205845D01*
X95047499Y-126373946D01*
X95047500Y-126373959D01*
X95047500Y-131441330D01*
X95047499Y-131441348D01*
X95047499Y-131607054D01*
X95047498Y-131607054D01*
X95083465Y-131741284D01*
X95088423Y-131759785D01*
X95106767Y-131791557D01*
X95117415Y-131810000D01*
X95167479Y-131896714D01*
X95167481Y-131896717D01*
X95286349Y-132015585D01*
X95286355Y-132015590D01*
X95866241Y-132595476D01*
X95899726Y-132656799D01*
X95896492Y-132721473D01*
X95882753Y-132763757D01*
X95849500Y-132973713D01*
X95849500Y-133186286D01*
X95873561Y-133338205D01*
X95882754Y-133396243D01*
X95935393Y-133558249D01*
X95948444Y-133598414D01*
X96044951Y-133787820D01*
X96169890Y-133959786D01*
X96320213Y-134110109D01*
X96492182Y-134235050D01*
X96500946Y-134239516D01*
X96551742Y-134287491D01*
X96568536Y-134355312D01*
X96545998Y-134421447D01*
X96500946Y-134460484D01*
X96492182Y-134464949D01*
X96320213Y-134589890D01*
X96169890Y-134740213D01*
X96044951Y-134912179D01*
X95948444Y-135101585D01*
X95882753Y-135303760D01*
X95849500Y-135513713D01*
X95849500Y-135726286D01*
X95878971Y-135912363D01*
X95882754Y-135936243D01*
X95930971Y-136084640D01*
X95948444Y-136138414D01*
X96044951Y-136327820D01*
X96169890Y-136499786D01*
X96320213Y-136650109D01*
X96492182Y-136775050D01*
X96500946Y-136779516D01*
X96551742Y-136827491D01*
X96568536Y-136895312D01*
X96545998Y-136961447D01*
X96500946Y-137000484D01*
X96492182Y-137004949D01*
X96320213Y-137129890D01*
X96169890Y-137280213D01*
X96044951Y-137452179D01*
X95948444Y-137641585D01*
X95882753Y-137843760D01*
X95849500Y-138053713D01*
X95849500Y-138266286D01*
X95882753Y-138476239D01*
X95948444Y-138678414D01*
X96044951Y-138867820D01*
X96169890Y-139039786D01*
X96320213Y-139190109D01*
X96492182Y-139315050D01*
X96500946Y-139319516D01*
X96551742Y-139367491D01*
X96568536Y-139435312D01*
X96545998Y-139501447D01*
X96500946Y-139540484D01*
X96492182Y-139544949D01*
X96320213Y-139669890D01*
X96169890Y-139820213D01*
X96044951Y-139992179D01*
X95948444Y-140181585D01*
X95882753Y-140383760D01*
X95849500Y-140593713D01*
X95849500Y-140806286D01*
X95873177Y-140955781D01*
X95882754Y-141016243D01*
X95912048Y-141106401D01*
X95948444Y-141218414D01*
X96044951Y-141407820D01*
X96169890Y-141579786D01*
X96320213Y-141730109D01*
X96492182Y-141855050D01*
X96500946Y-141859516D01*
X96551742Y-141907491D01*
X96568536Y-141975312D01*
X96545998Y-142041447D01*
X96500946Y-142080484D01*
X96492182Y-142084949D01*
X96320213Y-142209890D01*
X96169890Y-142360213D01*
X96044951Y-142532179D01*
X95948444Y-142721585D01*
X95882753Y-142923760D01*
X95849500Y-143133713D01*
X95849500Y-143346286D01*
X95877910Y-143525663D01*
X95882754Y-143556243D01*
X95910648Y-143642093D01*
X95948444Y-143758414D01*
X96044951Y-143947820D01*
X96169890Y-144119786D01*
X96320213Y-144270109D01*
X96492179Y-144395048D01*
X96492181Y-144395049D01*
X96492184Y-144395051D01*
X96501493Y-144399794D01*
X96552290Y-144447766D01*
X96569087Y-144515587D01*
X96546552Y-144581722D01*
X96501505Y-144620760D01*
X96492446Y-144625376D01*
X96492440Y-144625380D01*
X96438282Y-144664727D01*
X96438282Y-144664728D01*
X97070591Y-145297037D01*
X97007007Y-145314075D01*
X96892993Y-145379901D01*
X96799901Y-145472993D01*
X96734075Y-145587007D01*
X96717037Y-145650591D01*
X96084728Y-145018282D01*
X96084727Y-145018282D01*
X96045380Y-145072439D01*
X95948904Y-145261782D01*
X95883242Y-145463869D01*
X95883242Y-145463872D01*
X95850000Y-145673753D01*
X95850000Y-145886246D01*
X95883242Y-146096127D01*
X95883242Y-146096130D01*
X95948904Y-146298217D01*
X96045375Y-146487550D01*
X96084728Y-146541716D01*
X96717037Y-145909408D01*
X96734075Y-145972993D01*
X96799901Y-146087007D01*
X96892993Y-146180099D01*
X97007007Y-146245925D01*
X97070590Y-146262962D01*
X96438282Y-146895269D01*
X96438282Y-146895270D01*
X96492449Y-146934624D01*
X96681782Y-147031095D01*
X96883870Y-147096757D01*
X97093754Y-147130000D01*
X97306246Y-147130000D01*
X97516127Y-147096757D01*
X97516130Y-147096757D01*
X97718217Y-147031095D01*
X97907554Y-146934622D01*
X97961716Y-146895270D01*
X97961717Y-146895270D01*
X97329408Y-146262962D01*
X97392993Y-146245925D01*
X97507007Y-146180099D01*
X97600099Y-146087007D01*
X97665925Y-145972993D01*
X97682962Y-145909408D01*
X98315269Y-146541716D01*
X98365771Y-146537742D01*
X98434148Y-146552106D01*
X98483905Y-146601157D01*
X98499500Y-146661360D01*
X98499500Y-149875500D01*
X98479815Y-149942539D01*
X98427011Y-149988294D01*
X98375500Y-149999500D01*
X65934108Y-149999500D01*
X65806812Y-150033608D01*
X65692686Y-150099500D01*
X65692683Y-150099502D01*
X65599502Y-150192683D01*
X65599500Y-150192686D01*
X65533608Y-150306812D01*
X65499500Y-150434108D01*
X65499500Y-182875500D01*
X65479815Y-182942539D01*
X65427011Y-182988294D01*
X65375500Y-182999500D01*
X51624500Y-182999500D01*
X51557461Y-182979815D01*
X51511706Y-182927011D01*
X51500500Y-182875500D01*
X51500500Y-139575441D01*
X56599500Y-139575441D01*
X56599500Y-139824558D01*
X56599501Y-139824575D01*
X56632017Y-140071561D01*
X56696498Y-140312207D01*
X56791830Y-140542361D01*
X56791837Y-140542376D01*
X56916400Y-140758126D01*
X57068060Y-140955774D01*
X57068066Y-140955781D01*
X57244218Y-141131933D01*
X57244225Y-141131939D01*
X57441873Y-141283599D01*
X57657623Y-141408162D01*
X57657638Y-141408169D01*
X57734027Y-141439810D01*
X57887793Y-141503502D01*
X58128435Y-141567982D01*
X58375435Y-141600500D01*
X58375442Y-141600500D01*
X58624558Y-141600500D01*
X58624565Y-141600500D01*
X58871565Y-141567982D01*
X59112207Y-141503502D01*
X59335781Y-141410894D01*
X59342361Y-141408169D01*
X59342361Y-141408168D01*
X59342373Y-141408164D01*
X59558127Y-141283599D01*
X59755776Y-141131938D01*
X59931938Y-140955776D01*
X60083599Y-140758127D01*
X60208164Y-140542373D01*
X60303502Y-140312207D01*
X60367982Y-140071565D01*
X60400500Y-139824565D01*
X60400500Y-139575435D01*
X60367982Y-139328435D01*
X60303502Y-139087793D01*
X60212386Y-138867820D01*
X60208169Y-138857638D01*
X60208162Y-138857623D01*
X60083599Y-138641873D01*
X59931939Y-138444225D01*
X59931933Y-138444218D01*
X59755781Y-138268066D01*
X59755774Y-138268060D01*
X59558126Y-138116400D01*
X59342376Y-137991837D01*
X59342361Y-137991830D01*
X59112207Y-137896498D01*
X58871565Y-137832018D01*
X58871564Y-137832017D01*
X58871561Y-137832017D01*
X58624575Y-137799501D01*
X58624570Y-137799500D01*
X58624565Y-137799500D01*
X58375435Y-137799500D01*
X58375429Y-137799500D01*
X58375424Y-137799501D01*
X58128438Y-137832017D01*
X57887792Y-137896498D01*
X57657638Y-137991830D01*
X57657623Y-137991837D01*
X57441873Y-138116400D01*
X57244225Y-138268060D01*
X57244218Y-138268066D01*
X57068066Y-138444218D01*
X57068060Y-138444225D01*
X56916400Y-138641873D01*
X56791837Y-138857623D01*
X56791830Y-138857638D01*
X56696498Y-139087792D01*
X56632017Y-139328438D01*
X56599501Y-139575424D01*
X56599500Y-139575441D01*
X51500500Y-139575441D01*
X51500500Y-134875441D01*
X56599500Y-134875441D01*
X56599500Y-135124558D01*
X56599501Y-135124575D01*
X56632017Y-135371561D01*
X56696498Y-135612207D01*
X56791830Y-135842361D01*
X56791837Y-135842376D01*
X56916400Y-136058126D01*
X57068060Y-136255774D01*
X57068066Y-136255781D01*
X57244218Y-136431933D01*
X57244225Y-136431939D01*
X57441873Y-136583599D01*
X57657623Y-136708162D01*
X57657638Y-136708169D01*
X57756825Y-136749253D01*
X57887793Y-136803502D01*
X58128435Y-136867982D01*
X58375435Y-136900500D01*
X58375442Y-136900500D01*
X58624558Y-136900500D01*
X58624565Y-136900500D01*
X58871565Y-136867982D01*
X59112207Y-136803502D01*
X59342373Y-136708164D01*
X59558127Y-136583599D01*
X59755776Y-136431938D01*
X59931938Y-136255776D01*
X60083599Y-136058127D01*
X60208164Y-135842373D01*
X60303502Y-135612207D01*
X60367982Y-135371565D01*
X60400500Y-135124565D01*
X60400500Y-134875435D01*
X60367982Y-134628435D01*
X60303502Y-134387793D01*
X60208164Y-134157627D01*
X60198373Y-134140669D01*
X60181158Y-134110851D01*
X60083599Y-133941873D01*
X59931939Y-133744225D01*
X59931933Y-133744218D01*
X59755781Y-133568066D01*
X59755774Y-133568060D01*
X59558126Y-133416400D01*
X59342376Y-133291837D01*
X59342361Y-133291830D01*
X59112207Y-133196498D01*
X58871561Y-133132017D01*
X58624575Y-133099501D01*
X58624570Y-133099500D01*
X58624565Y-133099500D01*
X58375435Y-133099500D01*
X58375429Y-133099500D01*
X58375424Y-133099501D01*
X58128438Y-133132017D01*
X57887792Y-133196498D01*
X57657638Y-133291830D01*
X57657623Y-133291837D01*
X57441873Y-133416400D01*
X57244225Y-133568060D01*
X57244218Y-133568066D01*
X57068066Y-133744218D01*
X57068060Y-133744225D01*
X56916400Y-133941873D01*
X56791837Y-134157623D01*
X56791830Y-134157638D01*
X56696498Y-134387792D01*
X56632017Y-134628438D01*
X56599501Y-134875424D01*
X56599500Y-134875441D01*
X51500500Y-134875441D01*
X51500500Y-130175441D01*
X56599500Y-130175441D01*
X56599500Y-130424558D01*
X56599501Y-130424575D01*
X56632017Y-130671561D01*
X56696498Y-130912207D01*
X56791830Y-131142361D01*
X56791837Y-131142376D01*
X56916400Y-131358126D01*
X57068060Y-131555774D01*
X57068066Y-131555781D01*
X57244218Y-131731933D01*
X57244225Y-131731939D01*
X57441873Y-131883599D01*
X57657623Y-132008162D01*
X57657638Y-132008169D01*
X57756825Y-132049253D01*
X57887793Y-132103502D01*
X58128435Y-132167982D01*
X58375435Y-132200500D01*
X58375442Y-132200500D01*
X58624558Y-132200500D01*
X58624565Y-132200500D01*
X58871565Y-132167982D01*
X59112207Y-132103502D01*
X59342373Y-132008164D01*
X59558127Y-131883599D01*
X59755776Y-131731938D01*
X59931938Y-131555776D01*
X60083599Y-131358127D01*
X60208164Y-131142373D01*
X60303502Y-130912207D01*
X60367982Y-130671565D01*
X60400500Y-130424565D01*
X60400500Y-130175435D01*
X60367982Y-129928435D01*
X60303502Y-129687793D01*
X60227877Y-129505218D01*
X60208169Y-129457638D01*
X60208162Y-129457623D01*
X60083599Y-129241873D01*
X59931939Y-129044225D01*
X59931933Y-129044218D01*
X59755781Y-128868066D01*
X59755774Y-128868060D01*
X59558126Y-128716400D01*
X59342376Y-128591837D01*
X59342361Y-128591830D01*
X59112207Y-128496498D01*
X58871561Y-128432017D01*
X58624575Y-128399501D01*
X58624570Y-128399500D01*
X58624565Y-128399500D01*
X58375435Y-128399500D01*
X58375429Y-128399500D01*
X58375424Y-128399501D01*
X58128438Y-128432017D01*
X57887792Y-128496498D01*
X57657638Y-128591830D01*
X57657623Y-128591837D01*
X57441873Y-128716400D01*
X57244225Y-128868060D01*
X57244218Y-128868066D01*
X57068066Y-129044218D01*
X57068060Y-129044225D01*
X56916400Y-129241873D01*
X56791837Y-129457623D01*
X56791830Y-129457638D01*
X56696498Y-129687792D01*
X56632017Y-129928438D01*
X56599501Y-130175424D01*
X56599500Y-130175441D01*
X51500500Y-130175441D01*
X51500500Y-120665295D01*
X51520185Y-120598256D01*
X51572989Y-120552501D01*
X51634230Y-120541677D01*
X51634728Y-120541716D01*
X52267037Y-119909408D01*
X52284075Y-119972993D01*
X52349901Y-120087007D01*
X52442993Y-120180099D01*
X52557007Y-120245925D01*
X52620590Y-120262962D01*
X51988282Y-120895269D01*
X51988282Y-120895270D01*
X52042449Y-120934624D01*
X52231782Y-121031095D01*
X52433870Y-121096757D01*
X52643754Y-121130000D01*
X52856246Y-121130000D01*
X53066127Y-121096757D01*
X53066130Y-121096757D01*
X53268217Y-121031095D01*
X53457554Y-120934622D01*
X53511716Y-120895270D01*
X53511717Y-120895270D01*
X52879408Y-120262962D01*
X52942993Y-120245925D01*
X53057007Y-120180099D01*
X53150099Y-120087007D01*
X53215925Y-119972993D01*
X53232962Y-119909408D01*
X53865270Y-120541717D01*
X53865270Y-120541716D01*
X53904622Y-120487554D01*
X54001095Y-120298217D01*
X54066757Y-120096130D01*
X54066757Y-120096127D01*
X54100000Y-119886246D01*
X54100000Y-119673753D01*
X54066757Y-119463872D01*
X54066757Y-119463869D01*
X54001095Y-119261782D01*
X53904624Y-119072449D01*
X53865270Y-119018282D01*
X53865269Y-119018282D01*
X53232962Y-119650590D01*
X53215925Y-119587007D01*
X53150099Y-119472993D01*
X53057007Y-119379901D01*
X52942993Y-119314075D01*
X52879409Y-119297037D01*
X53511716Y-118664728D01*
X53457550Y-118625375D01*
X53447954Y-118620486D01*
X53397157Y-118572512D01*
X53380361Y-118504692D01*
X53402897Y-118438556D01*
X53447954Y-118399514D01*
X53457554Y-118394622D01*
X53511716Y-118355270D01*
X53511717Y-118355270D01*
X52879408Y-117722962D01*
X52942993Y-117705925D01*
X53057007Y-117640099D01*
X53150099Y-117547007D01*
X53215925Y-117432993D01*
X53232962Y-117369408D01*
X53865270Y-118001717D01*
X53865270Y-118001716D01*
X53904622Y-117947554D01*
X54001095Y-117758217D01*
X54066757Y-117556130D01*
X54066757Y-117556127D01*
X54100000Y-117346246D01*
X54100000Y-117198597D01*
X54119685Y-117131558D01*
X54172489Y-117085803D01*
X54241647Y-117075859D01*
X54305203Y-117104884D01*
X54311680Y-117110915D01*
X62486929Y-125286165D01*
X70609457Y-133408693D01*
X70642942Y-133470016D01*
X70637958Y-133539708D01*
X70596086Y-133595641D01*
X70530622Y-133620058D01*
X70502379Y-133618847D01*
X70380222Y-133599500D01*
X70159778Y-133599500D01*
X70100934Y-133608820D01*
X69942047Y-133633985D01*
X69732396Y-133702103D01*
X69732393Y-133702104D01*
X69535974Y-133802187D01*
X69357641Y-133931752D01*
X69357636Y-133931756D01*
X69307075Y-133982317D01*
X69245752Y-134015801D01*
X69176060Y-134010816D01*
X69120127Y-133968945D01*
X69103213Y-133937968D01*
X69073354Y-133857913D01*
X69073350Y-133857906D01*
X68987190Y-133742812D01*
X68987187Y-133742809D01*
X68872093Y-133656649D01*
X68872086Y-133656645D01*
X68737379Y-133606403D01*
X68737372Y-133606401D01*
X68677844Y-133600000D01*
X67980000Y-133600000D01*
X67980000Y-134624722D01*
X67903694Y-134580667D01*
X67789244Y-134550000D01*
X67670756Y-134550000D01*
X67556306Y-134580667D01*
X67480000Y-134624722D01*
X67480000Y-133600000D01*
X66782155Y-133600000D01*
X66722627Y-133606401D01*
X66722620Y-133606403D01*
X66587913Y-133656645D01*
X66587906Y-133656649D01*
X66472812Y-133742809D01*
X66472809Y-133742812D01*
X66386649Y-133857906D01*
X66386645Y-133857913D01*
X66336403Y-133992620D01*
X66336401Y-133992627D01*
X66330000Y-134052155D01*
X66330000Y-134750000D01*
X67354722Y-134750000D01*
X67310667Y-134826306D01*
X67280000Y-134940756D01*
X67280000Y-135059244D01*
X67310667Y-135173694D01*
X67354722Y-135250000D01*
X66330000Y-135250000D01*
X66330000Y-135947844D01*
X66336401Y-136007372D01*
X66336403Y-136007379D01*
X66386645Y-136142086D01*
X66386649Y-136142093D01*
X66472809Y-136257187D01*
X66472812Y-136257190D01*
X66587906Y-136343350D01*
X66587913Y-136343354D01*
X66722620Y-136393596D01*
X66722627Y-136393598D01*
X66782155Y-136399999D01*
X66782172Y-136400000D01*
X67480000Y-136400000D01*
X67480000Y-135375277D01*
X67556306Y-135419333D01*
X67670756Y-135450000D01*
X67789244Y-135450000D01*
X67903694Y-135419333D01*
X67980000Y-135375277D01*
X67980000Y-136400000D01*
X68677828Y-136400000D01*
X68677844Y-136399999D01*
X68737372Y-136393598D01*
X68737379Y-136393596D01*
X68872086Y-136343354D01*
X68872093Y-136343350D01*
X68987187Y-136257190D01*
X68987190Y-136257187D01*
X69073350Y-136142093D01*
X69073354Y-136142086D01*
X69103213Y-136062031D01*
X69145084Y-136006097D01*
X69210548Y-135981680D01*
X69278821Y-135996531D01*
X69307076Y-136017683D01*
X69357636Y-136068243D01*
X69357641Y-136068247D01*
X69513192Y-136181260D01*
X69535978Y-136197815D01*
X69652501Y-136257187D01*
X69732393Y-136297895D01*
X69732396Y-136297896D01*
X69799624Y-136319739D01*
X69942049Y-136366015D01*
X70159778Y-136400500D01*
X70159779Y-136400500D01*
X70380221Y-136400500D01*
X70380222Y-136400500D01*
X70597951Y-136366015D01*
X70807606Y-136297895D01*
X71004022Y-136197815D01*
X71182365Y-136068242D01*
X71338242Y-135912365D01*
X71467815Y-135734022D01*
X71567895Y-135537606D01*
X71636015Y-135327951D01*
X71670500Y-135110222D01*
X71670500Y-134889778D01*
X71651152Y-134767619D01*
X71660107Y-134698326D01*
X71705103Y-134644874D01*
X71771854Y-134624235D01*
X71839168Y-134642960D01*
X71861302Y-134660537D01*
X72504522Y-135303757D01*
X73459181Y-136258416D01*
X73492666Y-136319739D01*
X73495500Y-136346097D01*
X73495500Y-144967403D01*
X73475815Y-145034442D01*
X73459181Y-145055084D01*
X72957084Y-145557181D01*
X72895761Y-145590666D01*
X72869403Y-145593500D01*
X59385057Y-145593500D01*
X59226942Y-145593500D01*
X59074215Y-145634423D01*
X59074214Y-145634423D01*
X59074212Y-145634424D01*
X59074209Y-145634425D01*
X59024096Y-145663359D01*
X59024095Y-145663360D01*
X59006094Y-145673753D01*
X58937285Y-145713479D01*
X58937282Y-145713481D01*
X53219481Y-151431282D01*
X53219479Y-151431285D01*
X53169361Y-151518094D01*
X53169359Y-151518096D01*
X53140425Y-151568209D01*
X53140424Y-151568210D01*
X53140423Y-151568215D01*
X53099499Y-151720943D01*
X53099499Y-151720945D01*
X53099499Y-151889046D01*
X53099500Y-151889059D01*
X53099500Y-168576330D01*
X53099499Y-168576348D01*
X53099499Y-168742054D01*
X53099498Y-168742054D01*
X53140423Y-168894785D01*
X53169358Y-168944900D01*
X53169359Y-168944904D01*
X53169360Y-168944904D01*
X53213261Y-169020945D01*
X53219479Y-169031714D01*
X53219481Y-169031717D01*
X53338349Y-169150585D01*
X53338355Y-169150590D01*
X54325098Y-170137334D01*
X54358583Y-170198657D01*
X54353599Y-170268349D01*
X54351978Y-170272467D01*
X54283498Y-170437792D01*
X54219017Y-170678438D01*
X54186501Y-170925424D01*
X54186500Y-170925435D01*
X54186500Y-171174565D01*
X54219018Y-171421565D01*
X54236240Y-171485839D01*
X54283498Y-171662207D01*
X54378830Y-171892361D01*
X54378837Y-171892376D01*
X54503400Y-172108126D01*
X54655060Y-172305774D01*
X54655066Y-172305781D01*
X54831218Y-172481933D01*
X54831225Y-172481939D01*
X55028873Y-172633599D01*
X55244623Y-172758162D01*
X55244638Y-172758169D01*
X55363664Y-172807470D01*
X55474793Y-172853502D01*
X55679398Y-172908325D01*
X55684578Y-172911483D01*
X55690632Y-172911916D01*
X55714062Y-172929454D01*
X55739056Y-172944689D01*
X55741708Y-172950149D01*
X55746567Y-172953786D01*
X55756796Y-172981209D01*
X55769585Y-173007536D01*
X55768864Y-173013561D01*
X55770986Y-173019249D01*
X55764764Y-173047853D01*
X55761290Y-173076911D01*
X55757096Y-173083107D01*
X55756136Y-173087523D01*
X55734986Y-173115778D01*
X55718286Y-173132478D01*
X55606481Y-173244282D01*
X55606477Y-173244287D01*
X55556579Y-173330715D01*
X55556579Y-173330716D01*
X55527423Y-173381214D01*
X55527423Y-173381215D01*
X55486499Y-173533943D01*
X55486499Y-173533945D01*
X55486499Y-173702046D01*
X55486500Y-173702059D01*
X55486500Y-173858794D01*
X55466815Y-173925833D01*
X55414011Y-173971588D01*
X55409953Y-173973355D01*
X55244633Y-174041832D01*
X55244623Y-174041837D01*
X55028873Y-174166400D01*
X54831225Y-174318060D01*
X54831218Y-174318066D01*
X54655066Y-174494218D01*
X54655060Y-174494225D01*
X54503400Y-174691873D01*
X54378837Y-174907623D01*
X54378830Y-174907638D01*
X54283498Y-175137792D01*
X54219017Y-175378438D01*
X54186501Y-175625424D01*
X54186500Y-175625441D01*
X54186500Y-175874558D01*
X54186501Y-175874575D01*
X54219017Y-176121561D01*
X54283498Y-176362207D01*
X54378830Y-176592361D01*
X54378837Y-176592376D01*
X54503400Y-176808126D01*
X54655060Y-177005774D01*
X54655066Y-177005781D01*
X54831218Y-177181933D01*
X54831225Y-177181939D01*
X55028873Y-177333599D01*
X55244623Y-177458162D01*
X55244638Y-177458169D01*
X55343825Y-177499253D01*
X55474793Y-177553502D01*
X55715435Y-177617982D01*
X55962435Y-177650500D01*
X55962442Y-177650500D01*
X56211558Y-177650500D01*
X56211565Y-177650500D01*
X56458565Y-177617982D01*
X56699207Y-177553502D01*
X56929373Y-177458164D01*
X57145127Y-177333599D01*
X57300015Y-177214748D01*
X57365183Y-177189556D01*
X57433627Y-177203594D01*
X57483617Y-177252408D01*
X57499500Y-177313126D01*
X57499500Y-177571217D01*
X57479815Y-177638256D01*
X57463181Y-177658898D01*
X56573406Y-178548672D01*
X56512083Y-178582157D01*
X56461541Y-178582610D01*
X56458563Y-178582017D01*
X56211575Y-178549501D01*
X56211570Y-178549500D01*
X56211565Y-178549500D01*
X55962435Y-178549500D01*
X55962429Y-178549500D01*
X55962424Y-178549501D01*
X55715438Y-178582017D01*
X55474792Y-178646498D01*
X55244638Y-178741830D01*
X55244623Y-178741837D01*
X55028873Y-178866400D01*
X54831225Y-179018060D01*
X54831218Y-179018066D01*
X54655066Y-179194218D01*
X54655060Y-179194225D01*
X54503400Y-179391873D01*
X54378837Y-179607623D01*
X54378830Y-179607638D01*
X54283498Y-179837792D01*
X54219017Y-180078438D01*
X54186501Y-180325424D01*
X54186500Y-180325441D01*
X54186500Y-180574558D01*
X54186501Y-180574575D01*
X54219017Y-180821561D01*
X54283498Y-181062207D01*
X54378830Y-181292361D01*
X54378837Y-181292376D01*
X54503400Y-181508126D01*
X54655060Y-181705774D01*
X54655066Y-181705781D01*
X54831218Y-181881933D01*
X54831225Y-181881939D01*
X55028873Y-182033599D01*
X55244623Y-182158162D01*
X55244638Y-182158169D01*
X55343825Y-182199253D01*
X55474793Y-182253502D01*
X55715435Y-182317982D01*
X55962435Y-182350500D01*
X55962442Y-182350500D01*
X56211558Y-182350500D01*
X56211565Y-182350500D01*
X56458565Y-182317982D01*
X56699207Y-182253502D01*
X56929373Y-182158164D01*
X57145127Y-182033599D01*
X57342776Y-181881938D01*
X57518938Y-181705776D01*
X57670599Y-181508127D01*
X57795164Y-181292373D01*
X57890502Y-181062207D01*
X57954982Y-180821565D01*
X57987500Y-180574565D01*
X57987500Y-180325441D01*
X59012500Y-180325441D01*
X59012500Y-180574558D01*
X59012501Y-180574575D01*
X59045017Y-180821561D01*
X59109498Y-181062207D01*
X59204830Y-181292361D01*
X59204837Y-181292376D01*
X59329400Y-181508126D01*
X59481060Y-181705774D01*
X59481066Y-181705781D01*
X59657218Y-181881933D01*
X59657225Y-181881939D01*
X59854873Y-182033599D01*
X60070623Y-182158162D01*
X60070638Y-182158169D01*
X60169825Y-182199253D01*
X60300793Y-182253502D01*
X60541435Y-182317982D01*
X60788435Y-182350500D01*
X60788442Y-182350500D01*
X61037558Y-182350500D01*
X61037565Y-182350500D01*
X61284565Y-182317982D01*
X61525207Y-182253502D01*
X61755373Y-182158164D01*
X61971127Y-182033599D01*
X62168776Y-181881938D01*
X62344938Y-181705776D01*
X62496599Y-181508127D01*
X62621164Y-181292373D01*
X62716502Y-181062207D01*
X62780982Y-180821565D01*
X62813500Y-180574565D01*
X62813500Y-180325435D01*
X62780982Y-180078435D01*
X62716502Y-179837793D01*
X62621164Y-179607627D01*
X62496599Y-179391873D01*
X62344938Y-179194224D01*
X62344933Y-179194218D01*
X62168781Y-179018066D01*
X62168774Y-179018060D01*
X61971126Y-178866400D01*
X61755376Y-178741837D01*
X61755361Y-178741830D01*
X61525207Y-178646498D01*
X61286774Y-178582610D01*
X61284565Y-178582018D01*
X61284564Y-178582017D01*
X61284561Y-178582017D01*
X61037575Y-178549501D01*
X61037570Y-178549500D01*
X61037565Y-178549500D01*
X60788435Y-178549500D01*
X60788429Y-178549500D01*
X60788424Y-178549501D01*
X60541438Y-178582017D01*
X60300792Y-178646498D01*
X60070638Y-178741830D01*
X60070623Y-178741837D01*
X59854873Y-178866400D01*
X59657225Y-179018060D01*
X59657218Y-179018066D01*
X59481066Y-179194218D01*
X59481060Y-179194225D01*
X59329400Y-179391873D01*
X59204837Y-179607623D01*
X59204830Y-179607638D01*
X59109498Y-179837792D01*
X59045017Y-180078438D01*
X59012501Y-180325424D01*
X59012500Y-180325441D01*
X57987500Y-180325441D01*
X57987500Y-180325435D01*
X57954982Y-180078435D01*
X57954977Y-180078417D01*
X57954391Y-180075467D01*
X57954471Y-180074561D01*
X57954452Y-180074410D01*
X57954485Y-180074405D01*
X57960617Y-180005875D01*
X57988327Y-179963592D01*
X59277136Y-178674785D01*
X59277139Y-178674782D01*
X59339122Y-178582018D01*
X59360849Y-178549501D01*
X59386632Y-178510914D01*
X59462051Y-178328835D01*
X59500500Y-178135541D01*
X59500500Y-177313126D01*
X59520185Y-177246087D01*
X59572989Y-177200332D01*
X59642147Y-177190388D01*
X59699983Y-177214748D01*
X59828192Y-177313126D01*
X59854877Y-177333602D01*
X60070623Y-177458162D01*
X60070638Y-177458169D01*
X60169825Y-177499253D01*
X60300793Y-177553502D01*
X60541435Y-177617982D01*
X60788435Y-177650500D01*
X60788442Y-177650500D01*
X61037558Y-177650500D01*
X61037565Y-177650500D01*
X61284565Y-177617982D01*
X61525207Y-177553502D01*
X61755373Y-177458164D01*
X61971127Y-177333599D01*
X62168776Y-177181938D01*
X62344938Y-177005776D01*
X62496599Y-176808127D01*
X62621164Y-176592373D01*
X62716502Y-176362207D01*
X62780982Y-176121565D01*
X62813500Y-175874565D01*
X62813500Y-175625435D01*
X62780982Y-175378435D01*
X62716502Y-175137793D01*
X62648020Y-174972465D01*
X62640552Y-174902996D01*
X62671827Y-174840517D01*
X62674873Y-174837360D01*
X64059506Y-173452728D01*
X64059511Y-173452724D01*
X64069714Y-173442520D01*
X64069716Y-173442520D01*
X64181520Y-173330716D01*
X64260577Y-173193784D01*
X64301500Y-173041057D01*
X64301500Y-149933297D01*
X64321185Y-149866258D01*
X64337819Y-149845616D01*
X65347616Y-148835819D01*
X65408939Y-148802334D01*
X65435297Y-148799500D01*
X80714331Y-148799500D01*
X80714347Y-148799501D01*
X80721943Y-148799501D01*
X80880054Y-148799501D01*
X80880057Y-148799501D01*
X81032785Y-148758577D01*
X81082904Y-148729639D01*
X81169716Y-148679520D01*
X81281520Y-148567716D01*
X81281520Y-148567714D01*
X81291728Y-148557507D01*
X81291730Y-148557504D01*
X85975797Y-143873436D01*
X86037118Y-143839953D01*
X86101794Y-143843188D01*
X86172049Y-143866015D01*
X86389778Y-143900500D01*
X86389779Y-143900500D01*
X86610221Y-143900500D01*
X86610222Y-143900500D01*
X86827951Y-143866015D01*
X87037606Y-143797895D01*
X87234022Y-143697815D01*
X87412365Y-143568242D01*
X87568242Y-143412365D01*
X87697815Y-143234022D01*
X87797895Y-143037606D01*
X87866015Y-142827951D01*
X87900500Y-142610222D01*
X87900500Y-142389778D01*
X87866015Y-142172049D01*
X87831955Y-142067221D01*
X87797896Y-141962396D01*
X87797895Y-141962393D01*
X87763237Y-141894375D01*
X87697815Y-141765978D01*
X87649681Y-141699727D01*
X87568247Y-141587641D01*
X87568243Y-141587636D01*
X87412363Y-141431756D01*
X87412358Y-141431752D01*
X87234023Y-141302185D01*
X87168204Y-141268648D01*
X87117409Y-141220674D01*
X87100500Y-141158164D01*
X87100500Y-136466665D01*
X87120185Y-136399626D01*
X87172989Y-136353871D01*
X87242147Y-136343927D01*
X87305703Y-136372952D01*
X87322874Y-136391177D01*
X87330028Y-136400500D01*
X87398199Y-136489343D01*
X87398205Y-136489350D01*
X87570649Y-136661794D01*
X87570656Y-136661800D01*
X87631079Y-136708164D01*
X87764144Y-136810268D01*
X87764151Y-136810272D01*
X87975348Y-136932208D01*
X87975353Y-136932210D01*
X87975356Y-136932212D01*
X88200679Y-137025544D01*
X88436256Y-137088666D01*
X88678056Y-137120500D01*
X88678063Y-137120500D01*
X88921937Y-137120500D01*
X88921944Y-137120500D01*
X89163744Y-137088666D01*
X89399321Y-137025544D01*
X89624644Y-136932212D01*
X89835856Y-136810268D01*
X90029345Y-136661799D01*
X90201799Y-136489345D01*
X90350268Y-136295856D01*
X90472212Y-136084644D01*
X90565544Y-135859321D01*
X90628666Y-135623744D01*
X90660500Y-135381944D01*
X90660500Y-134618056D01*
X90628666Y-134376256D01*
X90565544Y-134140679D01*
X90552881Y-134110109D01*
X90499948Y-133982317D01*
X90472212Y-133915356D01*
X90472210Y-133915353D01*
X90472208Y-133915348D01*
X90350272Y-133704151D01*
X90350268Y-133704144D01*
X90285676Y-133619966D01*
X90201800Y-133510656D01*
X90201794Y-133510649D01*
X90029350Y-133338205D01*
X90029343Y-133338199D01*
X89835864Y-133189738D01*
X89835862Y-133189736D01*
X89835856Y-133189732D01*
X89835851Y-133189729D01*
X89835848Y-133189727D01*
X89624651Y-133067791D01*
X89624640Y-133067786D01*
X89399330Y-132974459D01*
X89399323Y-132974457D01*
X89399321Y-132974456D01*
X89163744Y-132911334D01*
X89123333Y-132906013D01*
X88921951Y-132879500D01*
X88921944Y-132879500D01*
X88678056Y-132879500D01*
X88678048Y-132879500D01*
X88447896Y-132909801D01*
X88436256Y-132911334D01*
X88203452Y-132973713D01*
X88200679Y-132974456D01*
X88200669Y-132974459D01*
X87975359Y-133067786D01*
X87975348Y-133067791D01*
X87764151Y-133189727D01*
X87764135Y-133189738D01*
X87570656Y-133338199D01*
X87570649Y-133338205D01*
X87398205Y-133510649D01*
X87398199Y-133510656D01*
X87322876Y-133608820D01*
X87266448Y-133650023D01*
X87196702Y-133654178D01*
X87135782Y-133619966D01*
X87103029Y-133558249D01*
X87100500Y-133533334D01*
X87100500Y-129910096D01*
X87120185Y-129843057D01*
X87136815Y-129822419D01*
X87365157Y-129594076D01*
X87426480Y-129560592D01*
X87491154Y-129563826D01*
X87505466Y-129568477D01*
X87707648Y-129600500D01*
X87707649Y-129600500D01*
X87912351Y-129600500D01*
X87912352Y-129600500D01*
X88114534Y-129568477D01*
X88309219Y-129505220D01*
X88491610Y-129412287D01*
X88586402Y-129343417D01*
X88657213Y-129291971D01*
X88657215Y-129291968D01*
X88657219Y-129291966D01*
X88801966Y-129147219D01*
X88801968Y-129147215D01*
X88801971Y-129147213D01*
X88876795Y-129044225D01*
X88922287Y-128981610D01*
X89015220Y-128799219D01*
X89078477Y-128604534D01*
X89110500Y-128402352D01*
X89110500Y-128197648D01*
X89078477Y-127995466D01*
X89015220Y-127800781D01*
X89015218Y-127800778D01*
X89015218Y-127800776D01*
X88981503Y-127734607D01*
X88922287Y-127618390D01*
X88914556Y-127607749D01*
X88801971Y-127452786D01*
X88657213Y-127308028D01*
X88491613Y-127187715D01*
X88491612Y-127187714D01*
X88491610Y-127187713D01*
X88434653Y-127158691D01*
X88309223Y-127094781D01*
X88114534Y-127031522D01*
X87939995Y-127003878D01*
X87912352Y-126999500D01*
X87707648Y-126999500D01*
X87683329Y-127003351D01*
X87505465Y-127031522D01*
X87310776Y-127094781D01*
X87128386Y-127187715D01*
X86962786Y-127308028D01*
X86818028Y-127452786D01*
X86697715Y-127618386D01*
X86604781Y-127800776D01*
X86541522Y-127995465D01*
X86509500Y-128197648D01*
X86509500Y-128402351D01*
X86541522Y-128604534D01*
X86546173Y-128618848D01*
X86548165Y-128688690D01*
X86515921Y-128744842D01*
X86131286Y-129129478D01*
X86019481Y-129241282D01*
X86019480Y-129241284D01*
X85979840Y-129309943D01*
X85940423Y-129378215D01*
X85899499Y-129530943D01*
X85899499Y-129530945D01*
X85899499Y-129699046D01*
X85899500Y-129699059D01*
X85899500Y-141158164D01*
X85879815Y-141225203D01*
X85831796Y-141268648D01*
X85765976Y-141302185D01*
X85587641Y-141431752D01*
X85587636Y-141431756D01*
X85431756Y-141587636D01*
X85431752Y-141587641D01*
X85350318Y-141699727D01*
X85294989Y-141742393D01*
X85225375Y-141748372D01*
X85163580Y-141715767D01*
X85149682Y-141699727D01*
X85068247Y-141587641D01*
X85068243Y-141587636D01*
X84912363Y-141431756D01*
X84912358Y-141431752D01*
X84734023Y-141302185D01*
X84668204Y-141268648D01*
X84617409Y-141220674D01*
X84600500Y-141158164D01*
X84600500Y-132199060D01*
X84600501Y-132199047D01*
X84600501Y-132030944D01*
X84596387Y-132015590D01*
X84559577Y-131878216D01*
X84520193Y-131810000D01*
X84480524Y-131741290D01*
X84480518Y-131741282D01*
X81484077Y-128744842D01*
X81450592Y-128683519D01*
X81453828Y-128618841D01*
X81458477Y-128604534D01*
X81490500Y-128402352D01*
X81490500Y-128197648D01*
X81458477Y-127995466D01*
X81395220Y-127800781D01*
X81395218Y-127800778D01*
X81395218Y-127800776D01*
X81361503Y-127734607D01*
X81302287Y-127618390D01*
X81294556Y-127607749D01*
X81181971Y-127452786D01*
X81037213Y-127308028D01*
X80871613Y-127187715D01*
X80871612Y-127187714D01*
X80871610Y-127187713D01*
X80814653Y-127158691D01*
X80689223Y-127094781D01*
X80494534Y-127031522D01*
X80319995Y-127003878D01*
X80292352Y-126999500D01*
X80087648Y-126999500D01*
X80063329Y-127003351D01*
X79885465Y-127031522D01*
X79690776Y-127094781D01*
X79508386Y-127187715D01*
X79342786Y-127308028D01*
X79198028Y-127452786D01*
X79077715Y-127618386D01*
X78984781Y-127800776D01*
X78921522Y-127995465D01*
X78889500Y-128197648D01*
X78889500Y-128402351D01*
X78921522Y-128604534D01*
X78984781Y-128799223D01*
X79077715Y-128981613D01*
X79198028Y-129147213D01*
X79342786Y-129291971D01*
X79470762Y-129384949D01*
X79508390Y-129412287D01*
X79624607Y-129471503D01*
X79690776Y-129505218D01*
X79690778Y-129505218D01*
X79690781Y-129505220D01*
X79795137Y-129539127D01*
X79885465Y-129568477D01*
X79986557Y-129584488D01*
X80087648Y-129600500D01*
X80087649Y-129600500D01*
X80292351Y-129600500D01*
X80292352Y-129600500D01*
X80494534Y-129568477D01*
X80508842Y-129563827D01*
X80578682Y-129561831D01*
X80634842Y-129594077D01*
X83363181Y-132322416D01*
X83396666Y-132383739D01*
X83399500Y-132410097D01*
X83399500Y-141158164D01*
X83379815Y-141225203D01*
X83331796Y-141268648D01*
X83265976Y-141302185D01*
X83087641Y-141431752D01*
X83087635Y-141431757D01*
X83066207Y-141453185D01*
X83004884Y-141486669D01*
X82935192Y-141481683D01*
X82879259Y-141439810D01*
X82862346Y-141408834D01*
X82843355Y-141357915D01*
X82843350Y-141357906D01*
X82757190Y-141242812D01*
X82757187Y-141242809D01*
X82642093Y-141156649D01*
X82642086Y-141156645D01*
X82507379Y-141106403D01*
X82507372Y-141106401D01*
X82447844Y-141100000D01*
X81750000Y-141100000D01*
X81750000Y-142066988D01*
X81692993Y-142034075D01*
X81565826Y-142000000D01*
X81434174Y-142000000D01*
X81307007Y-142034075D01*
X81250000Y-142066988D01*
X81250000Y-141100000D01*
X80552155Y-141100000D01*
X80492627Y-141106401D01*
X80492620Y-141106403D01*
X80357913Y-141156645D01*
X80357906Y-141156649D01*
X80242812Y-141242809D01*
X80242809Y-141242812D01*
X80156649Y-141357906D01*
X80156645Y-141357913D01*
X80106403Y-141492620D01*
X80106401Y-141492627D01*
X80100000Y-141552155D01*
X80100000Y-142250000D01*
X81066988Y-142250000D01*
X81034075Y-142307007D01*
X81000000Y-142434174D01*
X81000000Y-142565826D01*
X81034075Y-142692993D01*
X81066988Y-142750000D01*
X80100000Y-142750000D01*
X80100000Y-143447844D01*
X80106401Y-143507372D01*
X80106403Y-143507379D01*
X80156645Y-143642086D01*
X80156649Y-143642093D01*
X80242809Y-143757187D01*
X80242812Y-143757190D01*
X80357906Y-143843350D01*
X80357913Y-143843354D01*
X80492620Y-143893596D01*
X80492627Y-143893598D01*
X80552155Y-143899999D01*
X80552172Y-143900000D01*
X81250000Y-143900000D01*
X81250000Y-142933012D01*
X81307007Y-142965925D01*
X81434174Y-143000000D01*
X81565826Y-143000000D01*
X81692993Y-142965925D01*
X81750000Y-142933012D01*
X81750000Y-143900000D01*
X82447828Y-143900000D01*
X82447844Y-143899999D01*
X82507372Y-143893598D01*
X82507379Y-143893596D01*
X82642086Y-143843354D01*
X82642093Y-143843350D01*
X82757187Y-143757190D01*
X82757190Y-143757187D01*
X82843350Y-143642093D01*
X82843353Y-143642088D01*
X82862345Y-143591166D01*
X82904215Y-143535232D01*
X82969679Y-143510813D01*
X83037952Y-143525663D01*
X83066209Y-143546816D01*
X83087636Y-143568243D01*
X83087641Y-143568247D01*
X83243192Y-143681260D01*
X83265978Y-143697815D01*
X83382501Y-143757187D01*
X83462393Y-143797895D01*
X83462396Y-143797896D01*
X83529525Y-143819707D01*
X83672049Y-143866015D01*
X83889778Y-143900500D01*
X83889779Y-143900500D01*
X83950902Y-143900500D01*
X84017941Y-143920185D01*
X84063696Y-143972989D01*
X84073640Y-144042147D01*
X84044615Y-144105703D01*
X84038583Y-144112181D01*
X80588584Y-147562181D01*
X80527261Y-147595666D01*
X80500903Y-147598500D01*
X75181997Y-147598500D01*
X75114958Y-147578815D01*
X75069203Y-147526011D01*
X75059259Y-147456853D01*
X75088284Y-147393297D01*
X75094316Y-147386819D01*
X75285635Y-147195500D01*
X76058506Y-146422627D01*
X76058511Y-146422624D01*
X76068714Y-146412420D01*
X76068716Y-146412420D01*
X76180520Y-146300616D01*
X76238495Y-146200200D01*
X76259577Y-146163685D01*
X76300501Y-146010957D01*
X76300501Y-145852843D01*
X76300501Y-145845248D01*
X76300500Y-145845230D01*
X76300500Y-134618048D01*
X77339500Y-134618048D01*
X77339500Y-135381951D01*
X77366013Y-135583333D01*
X77371334Y-135623744D01*
X77429912Y-135842361D01*
X77434456Y-135859320D01*
X77434459Y-135859330D01*
X77527786Y-136084640D01*
X77527791Y-136084651D01*
X77649727Y-136295848D01*
X77649738Y-136295864D01*
X77798199Y-136489343D01*
X77798205Y-136489350D01*
X77970649Y-136661794D01*
X77970656Y-136661800D01*
X78031079Y-136708164D01*
X78164144Y-136810268D01*
X78164151Y-136810272D01*
X78375348Y-136932208D01*
X78375353Y-136932210D01*
X78375356Y-136932212D01*
X78600679Y-137025544D01*
X78836256Y-137088666D01*
X79078056Y-137120500D01*
X79078063Y-137120500D01*
X79321937Y-137120500D01*
X79321944Y-137120500D01*
X79563744Y-137088666D01*
X79799321Y-137025544D01*
X80024644Y-136932212D01*
X80235856Y-136810268D01*
X80429345Y-136661799D01*
X80601799Y-136489345D01*
X80750268Y-136295856D01*
X80872212Y-136084644D01*
X80965544Y-135859321D01*
X81028666Y-135623744D01*
X81060500Y-135381944D01*
X81060500Y-134618056D01*
X81028666Y-134376256D01*
X80965544Y-134140679D01*
X80952881Y-134110109D01*
X80899948Y-133982317D01*
X80872212Y-133915356D01*
X80872210Y-133915353D01*
X80872208Y-133915348D01*
X80750272Y-133704151D01*
X80750268Y-133704144D01*
X80685676Y-133619966D01*
X80601800Y-133510656D01*
X80601794Y-133510649D01*
X80429350Y-133338205D01*
X80429343Y-133338199D01*
X80235864Y-133189738D01*
X80235862Y-133189736D01*
X80235856Y-133189732D01*
X80235851Y-133189729D01*
X80235848Y-133189727D01*
X80024651Y-133067791D01*
X80024640Y-133067786D01*
X79799330Y-132974459D01*
X79799323Y-132974457D01*
X79799321Y-132974456D01*
X79563744Y-132911334D01*
X79523333Y-132906013D01*
X79321951Y-132879500D01*
X79321944Y-132879500D01*
X79078056Y-132879500D01*
X79078048Y-132879500D01*
X78847896Y-132909801D01*
X78836256Y-132911334D01*
X78603452Y-132973713D01*
X78600679Y-132974456D01*
X78600669Y-132974459D01*
X78375359Y-133067786D01*
X78375348Y-133067791D01*
X78164151Y-133189727D01*
X78164135Y-133189738D01*
X77970656Y-133338199D01*
X77970649Y-133338205D01*
X77798205Y-133510649D01*
X77798199Y-133510656D01*
X77649738Y-133704135D01*
X77649727Y-133704151D01*
X77527791Y-133915348D01*
X77527786Y-133915359D01*
X77434459Y-134140669D01*
X77434456Y-134140679D01*
X77373428Y-134368443D01*
X77371335Y-134376253D01*
X77371333Y-134376264D01*
X77339500Y-134618048D01*
X76300500Y-134618048D01*
X76300500Y-120720945D01*
X76300500Y-120720943D01*
X76259577Y-120568216D01*
X76259577Y-120568215D01*
X76259577Y-120568214D01*
X76230639Y-120518095D01*
X76230637Y-120518092D01*
X76180520Y-120431284D01*
X76068716Y-120319480D01*
X76068715Y-120319479D01*
X76064385Y-120315149D01*
X76064374Y-120315139D01*
X74636819Y-118887584D01*
X74603334Y-118826261D01*
X74600500Y-118799903D01*
X74600500Y-103300097D01*
X74620185Y-103233058D01*
X74636819Y-103212416D01*
X80299500Y-97549735D01*
X85975798Y-91873436D01*
X86037119Y-91839953D01*
X86101794Y-91843187D01*
X86138596Y-91855145D01*
X86172048Y-91866015D01*
X86280913Y-91883257D01*
X86389778Y-91900500D01*
X86389779Y-91900500D01*
X86610221Y-91900500D01*
X86610222Y-91900500D01*
X86827951Y-91866015D01*
X87037606Y-91797895D01*
X87234022Y-91697815D01*
X87412365Y-91568242D01*
X87568242Y-91412365D01*
X87697815Y-91234022D01*
X87797895Y-91037606D01*
X87866015Y-90827951D01*
X87900500Y-90610222D01*
X87900500Y-90389778D01*
X87866015Y-90172049D01*
X87831955Y-90067221D01*
X87797896Y-89962396D01*
X87797895Y-89962393D01*
X87763237Y-89894375D01*
X87697815Y-89765978D01*
X87595956Y-89625780D01*
X87568247Y-89587641D01*
X87568243Y-89587636D01*
X87412363Y-89431756D01*
X87412358Y-89431752D01*
X87234023Y-89302185D01*
X87168204Y-89268648D01*
X87117409Y-89220674D01*
X87100500Y-89158164D01*
X87100500Y-84466665D01*
X87120185Y-84399626D01*
X87172989Y-84353871D01*
X87242147Y-84343927D01*
X87305703Y-84372952D01*
X87322874Y-84391177D01*
X87330028Y-84400500D01*
X87398199Y-84489343D01*
X87398205Y-84489350D01*
X87570649Y-84661794D01*
X87570656Y-84661800D01*
X87631079Y-84708164D01*
X87764144Y-84810268D01*
X87764151Y-84810272D01*
X87975348Y-84932208D01*
X87975353Y-84932210D01*
X87975356Y-84932212D01*
X88200679Y-85025544D01*
X88436256Y-85088666D01*
X88678056Y-85120500D01*
X88678063Y-85120500D01*
X88921937Y-85120500D01*
X88921944Y-85120500D01*
X89163744Y-85088666D01*
X89399321Y-85025544D01*
X89624644Y-84932212D01*
X89835856Y-84810268D01*
X90029345Y-84661799D01*
X90201799Y-84489345D01*
X90350268Y-84295856D01*
X90472212Y-84084644D01*
X90565544Y-83859321D01*
X90628666Y-83623744D01*
X90660500Y-83381944D01*
X90660500Y-82618056D01*
X90628666Y-82376256D01*
X90565544Y-82140679D01*
X90552881Y-82110109D01*
X90499948Y-81982317D01*
X90472212Y-81915356D01*
X90472210Y-81915353D01*
X90472208Y-81915348D01*
X90350272Y-81704151D01*
X90350268Y-81704144D01*
X90285676Y-81619966D01*
X90201800Y-81510656D01*
X90201794Y-81510649D01*
X90029350Y-81338205D01*
X90029343Y-81338199D01*
X89835864Y-81189738D01*
X89835862Y-81189736D01*
X89835856Y-81189732D01*
X89835851Y-81189729D01*
X89835848Y-81189727D01*
X89624651Y-81067791D01*
X89624640Y-81067786D01*
X89399330Y-80974459D01*
X89399323Y-80974457D01*
X89399321Y-80974456D01*
X89163744Y-80911334D01*
X89123333Y-80906013D01*
X88921951Y-80879500D01*
X88921944Y-80879500D01*
X88678056Y-80879500D01*
X88678048Y-80879500D01*
X88447896Y-80909801D01*
X88436256Y-80911334D01*
X88203452Y-80973713D01*
X88200679Y-80974456D01*
X88200669Y-80974459D01*
X87975359Y-81067786D01*
X87975348Y-81067791D01*
X87764151Y-81189727D01*
X87764135Y-81189738D01*
X87570656Y-81338199D01*
X87570649Y-81338205D01*
X87398205Y-81510649D01*
X87398199Y-81510656D01*
X87322876Y-81608820D01*
X87266448Y-81650023D01*
X87196702Y-81654178D01*
X87135782Y-81619966D01*
X87103029Y-81558249D01*
X87100500Y-81533334D01*
X87100500Y-77910096D01*
X87120185Y-77843057D01*
X87136815Y-77822419D01*
X87365157Y-77594076D01*
X87426480Y-77560592D01*
X87491154Y-77563826D01*
X87505466Y-77568477D01*
X87707648Y-77600500D01*
X87707649Y-77600500D01*
X87912351Y-77600500D01*
X87912352Y-77600500D01*
X88114534Y-77568477D01*
X88309219Y-77505220D01*
X88491610Y-77412287D01*
X88607490Y-77328096D01*
X88657213Y-77291971D01*
X88657215Y-77291968D01*
X88657219Y-77291966D01*
X88801966Y-77147219D01*
X88801968Y-77147215D01*
X88801971Y-77147213D01*
X88876795Y-77044225D01*
X88922287Y-76981610D01*
X89015220Y-76799219D01*
X89078477Y-76604534D01*
X89110500Y-76402352D01*
X89110500Y-76197648D01*
X89078477Y-75995466D01*
X89015220Y-75800781D01*
X89015218Y-75800778D01*
X89015218Y-75800776D01*
X88981503Y-75734607D01*
X88922287Y-75618390D01*
X88914556Y-75607749D01*
X88801971Y-75452786D01*
X88657213Y-75308028D01*
X88491613Y-75187715D01*
X88491612Y-75187714D01*
X88491610Y-75187713D01*
X88434653Y-75158691D01*
X88309223Y-75094781D01*
X88114534Y-75031522D01*
X87939995Y-75003878D01*
X87912352Y-74999500D01*
X87707648Y-74999500D01*
X87683329Y-75003351D01*
X87505465Y-75031522D01*
X87310776Y-75094781D01*
X87128386Y-75187715D01*
X86962786Y-75308028D01*
X86818028Y-75452786D01*
X86697715Y-75618386D01*
X86604781Y-75800776D01*
X86541522Y-75995465D01*
X86509500Y-76197648D01*
X86509500Y-76402351D01*
X86541522Y-76604534D01*
X86546173Y-76618848D01*
X86548165Y-76688690D01*
X86515921Y-76744842D01*
X86131286Y-77129478D01*
X86019481Y-77241282D01*
X86019480Y-77241284D01*
X85969993Y-77327000D01*
X85969361Y-77328094D01*
X85969359Y-77328096D01*
X85940425Y-77378209D01*
X85940424Y-77378210D01*
X85931294Y-77412284D01*
X85899499Y-77530943D01*
X85899499Y-77530945D01*
X85899499Y-77699046D01*
X85899500Y-77699059D01*
X85899500Y-89158164D01*
X85879815Y-89225203D01*
X85831796Y-89268648D01*
X85765976Y-89302185D01*
X85587641Y-89431752D01*
X85587636Y-89431756D01*
X85431756Y-89587636D01*
X85431752Y-89587641D01*
X85350318Y-89699727D01*
X85294989Y-89742393D01*
X85225375Y-89748372D01*
X85163580Y-89715767D01*
X85149682Y-89699727D01*
X85068247Y-89587641D01*
X85068243Y-89587636D01*
X84912363Y-89431756D01*
X84912358Y-89431752D01*
X84734023Y-89302185D01*
X84668204Y-89268648D01*
X84617409Y-89220674D01*
X84600500Y-89158164D01*
X84600500Y-80199060D01*
X84600501Y-80199047D01*
X84600501Y-80030944D01*
X84600501Y-80030943D01*
X84559577Y-79878216D01*
X84520193Y-79810000D01*
X84480524Y-79741290D01*
X84480518Y-79741282D01*
X81484077Y-76744842D01*
X81450592Y-76683519D01*
X81453828Y-76618841D01*
X81458477Y-76604534D01*
X81490500Y-76402352D01*
X81490500Y-76197648D01*
X81458477Y-75995466D01*
X81395220Y-75800781D01*
X81395218Y-75800778D01*
X81395218Y-75800776D01*
X81361503Y-75734607D01*
X81302287Y-75618390D01*
X81294556Y-75607749D01*
X81181971Y-75452786D01*
X81037213Y-75308028D01*
X80871613Y-75187715D01*
X80871612Y-75187714D01*
X80871610Y-75187713D01*
X80814653Y-75158691D01*
X80689223Y-75094781D01*
X80494534Y-75031522D01*
X80319995Y-75003878D01*
X80292352Y-74999500D01*
X80087648Y-74999500D01*
X80063329Y-75003351D01*
X79885465Y-75031522D01*
X79690776Y-75094781D01*
X79508386Y-75187715D01*
X79342786Y-75308028D01*
X79198028Y-75452786D01*
X79077715Y-75618386D01*
X78984781Y-75800776D01*
X78921522Y-75995465D01*
X78889500Y-76197648D01*
X78889500Y-76402351D01*
X78921522Y-76604534D01*
X78984781Y-76799223D01*
X79077715Y-76981613D01*
X79198028Y-77147213D01*
X79342786Y-77291971D01*
X79470762Y-77384949D01*
X79508390Y-77412287D01*
X79624607Y-77471503D01*
X79690776Y-77505218D01*
X79690778Y-77505218D01*
X79690781Y-77505220D01*
X79795137Y-77539127D01*
X79885465Y-77568477D01*
X79986557Y-77584488D01*
X80087648Y-77600500D01*
X80087649Y-77600500D01*
X80292351Y-77600500D01*
X80292352Y-77600500D01*
X80494534Y-77568477D01*
X80508842Y-77563827D01*
X80578682Y-77561831D01*
X80634842Y-77594077D01*
X83363181Y-80322416D01*
X83396666Y-80383739D01*
X83399500Y-80410097D01*
X83399500Y-89158164D01*
X83379815Y-89225203D01*
X83331796Y-89268648D01*
X83265976Y-89302185D01*
X83087641Y-89431752D01*
X83087635Y-89431757D01*
X83066207Y-89453185D01*
X83004884Y-89486669D01*
X82935192Y-89481683D01*
X82879259Y-89439810D01*
X82862346Y-89408834D01*
X82843355Y-89357915D01*
X82843350Y-89357906D01*
X82757190Y-89242812D01*
X82757187Y-89242809D01*
X82642093Y-89156649D01*
X82642086Y-89156645D01*
X82507379Y-89106403D01*
X82507372Y-89106401D01*
X82447844Y-89100000D01*
X81750000Y-89100000D01*
X81750000Y-90066988D01*
X81692993Y-90034075D01*
X81565826Y-90000000D01*
X81434174Y-90000000D01*
X81307007Y-90034075D01*
X81250000Y-90066988D01*
X81250000Y-89100000D01*
X80552155Y-89100000D01*
X80492627Y-89106401D01*
X80492620Y-89106403D01*
X80357913Y-89156645D01*
X80357906Y-89156649D01*
X80242812Y-89242809D01*
X80242809Y-89242812D01*
X80156649Y-89357906D01*
X80156645Y-89357913D01*
X80106403Y-89492620D01*
X80106401Y-89492627D01*
X80100000Y-89552155D01*
X80100000Y-90250000D01*
X81066988Y-90250000D01*
X81034075Y-90307007D01*
X81000000Y-90434174D01*
X81000000Y-90565826D01*
X81034075Y-90692993D01*
X81066988Y-90750000D01*
X80100000Y-90750000D01*
X80100000Y-91447844D01*
X80106401Y-91507372D01*
X80106403Y-91507379D01*
X80156645Y-91642086D01*
X80156649Y-91642093D01*
X80242809Y-91757187D01*
X80242812Y-91757190D01*
X80357906Y-91843350D01*
X80357913Y-91843354D01*
X80492620Y-91893596D01*
X80492627Y-91893598D01*
X80552155Y-91899999D01*
X80552172Y-91900000D01*
X81250000Y-91900000D01*
X81250000Y-90933012D01*
X81307007Y-90965925D01*
X81434174Y-91000000D01*
X81565826Y-91000000D01*
X81692993Y-90965925D01*
X81750000Y-90933012D01*
X81750000Y-91900000D01*
X82447828Y-91900000D01*
X82447844Y-91899999D01*
X82507372Y-91893598D01*
X82507379Y-91893596D01*
X82642086Y-91843354D01*
X82642093Y-91843350D01*
X82757187Y-91757190D01*
X82757190Y-91757187D01*
X82843350Y-91642093D01*
X82843353Y-91642088D01*
X82862345Y-91591166D01*
X82904215Y-91535232D01*
X82969679Y-91510813D01*
X83037952Y-91525663D01*
X83066209Y-91546816D01*
X83087636Y-91568243D01*
X83087641Y-91568247D01*
X83243192Y-91681260D01*
X83265978Y-91697815D01*
X83382501Y-91757187D01*
X83462393Y-91797895D01*
X83462396Y-91797896D01*
X83529525Y-91819707D01*
X83672049Y-91866015D01*
X83889778Y-91900500D01*
X83889779Y-91900500D01*
X83950901Y-91900500D01*
X84017940Y-91920185D01*
X84063695Y-91972989D01*
X84073639Y-92042147D01*
X84044614Y-92105703D01*
X84038582Y-92112181D01*
X73634194Y-102516569D01*
X73634186Y-102516577D01*
X73631286Y-102519478D01*
X73631284Y-102519480D01*
X73519480Y-102631284D01*
X73497869Y-102668716D01*
X73491794Y-102679236D01*
X73491792Y-102679240D01*
X73470094Y-102716823D01*
X73440423Y-102768215D01*
X73399499Y-102920943D01*
X73399499Y-102920945D01*
X73399499Y-103089046D01*
X73399500Y-103089059D01*
X73399500Y-119013330D01*
X73399499Y-119013348D01*
X73399499Y-119179054D01*
X73399498Y-119179054D01*
X73440423Y-119331785D01*
X73469358Y-119381900D01*
X73469359Y-119381904D01*
X73469360Y-119381904D01*
X73516683Y-119463872D01*
X73519479Y-119468714D01*
X73519481Y-119468717D01*
X73638349Y-119587585D01*
X73638355Y-119587590D01*
X75063181Y-121012416D01*
X75096666Y-121073739D01*
X75099500Y-121100097D01*
X75099500Y-121950903D01*
X75079815Y-122017942D01*
X75027011Y-122063697D01*
X74957853Y-122073641D01*
X74894297Y-122044616D01*
X74887819Y-122038584D01*
X69873438Y-117024203D01*
X69839953Y-116962880D01*
X69843187Y-116898205D01*
X69866015Y-116827951D01*
X69900500Y-116610222D01*
X69900500Y-116389778D01*
X69866015Y-116172049D01*
X69797895Y-115962394D01*
X69797895Y-115962393D01*
X69763237Y-115894375D01*
X69697815Y-115765978D01*
X69671751Y-115730104D01*
X69568247Y-115587641D01*
X69568243Y-115587636D01*
X69412363Y-115431756D01*
X69412358Y-115431752D01*
X69234025Y-115302187D01*
X69234024Y-115302186D01*
X69234022Y-115302185D01*
X69171096Y-115270122D01*
X69037606Y-115202104D01*
X69037603Y-115202103D01*
X68827952Y-115133985D01*
X68719086Y-115116742D01*
X68610222Y-115099500D01*
X68389778Y-115099500D01*
X68346232Y-115106397D01*
X68172045Y-115133985D01*
X68061817Y-115169800D01*
X67991976Y-115171795D01*
X67932144Y-115135714D01*
X67901316Y-115073013D01*
X67899500Y-115051869D01*
X67899500Y-108618048D01*
X68939500Y-108618048D01*
X68939500Y-109381951D01*
X68966013Y-109583333D01*
X68971334Y-109623744D01*
X69032727Y-109852869D01*
X69034456Y-109859320D01*
X69034459Y-109859330D01*
X69127786Y-110084640D01*
X69127791Y-110084651D01*
X69249727Y-110295848D01*
X69249738Y-110295864D01*
X69398199Y-110489343D01*
X69398205Y-110489350D01*
X69570649Y-110661794D01*
X69570656Y-110661800D01*
X69631079Y-110708164D01*
X69764144Y-110810268D01*
X69764151Y-110810272D01*
X69975348Y-110932208D01*
X69975353Y-110932210D01*
X69975356Y-110932212D01*
X70200679Y-111025544D01*
X70436256Y-111088666D01*
X70678056Y-111120500D01*
X70678063Y-111120500D01*
X70921937Y-111120500D01*
X70921944Y-111120500D01*
X71163744Y-111088666D01*
X71399321Y-111025544D01*
X71624644Y-110932212D01*
X71835856Y-110810268D01*
X72029345Y-110661799D01*
X72201799Y-110489345D01*
X72350268Y-110295856D01*
X72472212Y-110084644D01*
X72565544Y-109859321D01*
X72628666Y-109623744D01*
X72660500Y-109381944D01*
X72660500Y-108618056D01*
X72628666Y-108376256D01*
X72565544Y-108140679D01*
X72552881Y-108110109D01*
X72499948Y-107982317D01*
X72472212Y-107915356D01*
X72472210Y-107915353D01*
X72472208Y-107915348D01*
X72350272Y-107704151D01*
X72350268Y-107704144D01*
X72201799Y-107510655D01*
X72201794Y-107510649D01*
X72029350Y-107338205D01*
X72029343Y-107338199D01*
X71835864Y-107189738D01*
X71835862Y-107189736D01*
X71835856Y-107189732D01*
X71835851Y-107189729D01*
X71835848Y-107189727D01*
X71624651Y-107067791D01*
X71624640Y-107067786D01*
X71399330Y-106974459D01*
X71399323Y-106974457D01*
X71399321Y-106974456D01*
X71163744Y-106911334D01*
X71123333Y-106906013D01*
X70921951Y-106879500D01*
X70921944Y-106879500D01*
X70678056Y-106879500D01*
X70678048Y-106879500D01*
X70447896Y-106909801D01*
X70436256Y-106911334D01*
X70200679Y-106974456D01*
X70200669Y-106974459D01*
X69975359Y-107067786D01*
X69975348Y-107067791D01*
X69764151Y-107189727D01*
X69764135Y-107189738D01*
X69570656Y-107338199D01*
X69570649Y-107338205D01*
X69398205Y-107510649D01*
X69398199Y-107510656D01*
X69249738Y-107704135D01*
X69249727Y-107704151D01*
X69127791Y-107915348D01*
X69127786Y-107915359D01*
X69034459Y-108140669D01*
X69034456Y-108140679D01*
X68973428Y-108368443D01*
X68971335Y-108376253D01*
X68971333Y-108376264D01*
X68939500Y-108618048D01*
X67899500Y-108618048D01*
X67899500Y-102197648D01*
X68509500Y-102197648D01*
X68509500Y-102402351D01*
X68541522Y-102604534D01*
X68604781Y-102799223D01*
X68697715Y-102981613D01*
X68818028Y-103147213D01*
X68962786Y-103291971D01*
X69090762Y-103384949D01*
X69128390Y-103412287D01*
X69244607Y-103471503D01*
X69310776Y-103505218D01*
X69310778Y-103505218D01*
X69310781Y-103505220D01*
X69415137Y-103539127D01*
X69505465Y-103568477D01*
X69606557Y-103584488D01*
X69707648Y-103600500D01*
X69707649Y-103600500D01*
X69912351Y-103600500D01*
X69912352Y-103600500D01*
X70114534Y-103568477D01*
X70309219Y-103505220D01*
X70491610Y-103412287D01*
X70655309Y-103293354D01*
X70657213Y-103291971D01*
X70657215Y-103291968D01*
X70657219Y-103291966D01*
X70801966Y-103147219D01*
X70801968Y-103147215D01*
X70801971Y-103147213D01*
X70854732Y-103074590D01*
X70922287Y-102981610D01*
X71015220Y-102799219D01*
X71078477Y-102604534D01*
X71110500Y-102402352D01*
X71110500Y-102197648D01*
X71078477Y-101995466D01*
X71015220Y-101800781D01*
X71015218Y-101800778D01*
X71015218Y-101800776D01*
X70960299Y-101692993D01*
X70922287Y-101618390D01*
X70908854Y-101599901D01*
X70801971Y-101452786D01*
X70657213Y-101308028D01*
X70491613Y-101187715D01*
X70491612Y-101187714D01*
X70491610Y-101187713D01*
X70434653Y-101158691D01*
X70309223Y-101094781D01*
X70114534Y-101031522D01*
X69939995Y-101003878D01*
X69912352Y-100999500D01*
X69707648Y-100999500D01*
X69683329Y-101003351D01*
X69505465Y-101031522D01*
X69310776Y-101094781D01*
X69128386Y-101187715D01*
X68962786Y-101308028D01*
X68818028Y-101452786D01*
X68697715Y-101618386D01*
X68604781Y-101800776D01*
X68541522Y-101995465D01*
X68509500Y-102197648D01*
X67899500Y-102197648D01*
X67899500Y-97601097D01*
X67919185Y-97534058D01*
X67935819Y-97513416D01*
X70961685Y-94487550D01*
X74080520Y-91368716D01*
X74159577Y-91231784D01*
X74200501Y-91079057D01*
X74200501Y-90920942D01*
X74200501Y-90913347D01*
X74200500Y-90913329D01*
X74200500Y-82618048D01*
X77339500Y-82618048D01*
X77339500Y-83381951D01*
X77366013Y-83583333D01*
X77371334Y-83623744D01*
X77429912Y-83842361D01*
X77434456Y-83859320D01*
X77434459Y-83859330D01*
X77527786Y-84084640D01*
X77527791Y-84084651D01*
X77649727Y-84295848D01*
X77649738Y-84295864D01*
X77798199Y-84489343D01*
X77798205Y-84489350D01*
X77970649Y-84661794D01*
X77970656Y-84661800D01*
X78031079Y-84708164D01*
X78164144Y-84810268D01*
X78164151Y-84810272D01*
X78375348Y-84932208D01*
X78375353Y-84932210D01*
X78375356Y-84932212D01*
X78600679Y-85025544D01*
X78836256Y-85088666D01*
X79078056Y-85120500D01*
X79078063Y-85120500D01*
X79321937Y-85120500D01*
X79321944Y-85120500D01*
X79563744Y-85088666D01*
X79799321Y-85025544D01*
X80024644Y-84932212D01*
X80235856Y-84810268D01*
X80429345Y-84661799D01*
X80601799Y-84489345D01*
X80750268Y-84295856D01*
X80872212Y-84084644D01*
X80965544Y-83859321D01*
X81028666Y-83623744D01*
X81060500Y-83381944D01*
X81060500Y-82618056D01*
X81028666Y-82376256D01*
X80965544Y-82140679D01*
X80952881Y-82110109D01*
X80899948Y-81982317D01*
X80872212Y-81915356D01*
X80872210Y-81915353D01*
X80872208Y-81915348D01*
X80750272Y-81704151D01*
X80750268Y-81704144D01*
X80685676Y-81619966D01*
X80601800Y-81510656D01*
X80601794Y-81510649D01*
X80429350Y-81338205D01*
X80429343Y-81338199D01*
X80235864Y-81189738D01*
X80235862Y-81189736D01*
X80235856Y-81189732D01*
X80235851Y-81189729D01*
X80235848Y-81189727D01*
X80024651Y-81067791D01*
X80024640Y-81067786D01*
X79799330Y-80974459D01*
X79799323Y-80974457D01*
X79799321Y-80974456D01*
X79563744Y-80911334D01*
X79523333Y-80906013D01*
X79321951Y-80879500D01*
X79321944Y-80879500D01*
X79078056Y-80879500D01*
X79078048Y-80879500D01*
X78847896Y-80909801D01*
X78836256Y-80911334D01*
X78603452Y-80973713D01*
X78600679Y-80974456D01*
X78600669Y-80974459D01*
X78375359Y-81067786D01*
X78375348Y-81067791D01*
X78164151Y-81189727D01*
X78164135Y-81189738D01*
X77970656Y-81338199D01*
X77970649Y-81338205D01*
X77798205Y-81510649D01*
X77798199Y-81510656D01*
X77649738Y-81704135D01*
X77649727Y-81704151D01*
X77527791Y-81915348D01*
X77527786Y-81915359D01*
X77434459Y-82140669D01*
X77434456Y-82140679D01*
X77373428Y-82368443D01*
X77371335Y-82376253D01*
X77371333Y-82376264D01*
X77339500Y-82618048D01*
X74200500Y-82618048D01*
X74200500Y-69520945D01*
X74200500Y-69520943D01*
X74159577Y-69368216D01*
X74159577Y-69368215D01*
X74159577Y-69368214D01*
X74130639Y-69318095D01*
X74130637Y-69318092D01*
X74080520Y-69231284D01*
X73968716Y-69119480D01*
X73968715Y-69119479D01*
X73964385Y-69115149D01*
X73964374Y-69115139D01*
X69873438Y-65024203D01*
X69839953Y-64962880D01*
X69843187Y-64898205D01*
X69866015Y-64827951D01*
X69900500Y-64610222D01*
X69900500Y-64389778D01*
X69866015Y-64172049D01*
X69797895Y-63962394D01*
X69797895Y-63962393D01*
X69763237Y-63894375D01*
X69697815Y-63765978D01*
X69649681Y-63699727D01*
X69568247Y-63587641D01*
X69568243Y-63587636D01*
X69412363Y-63431756D01*
X69412358Y-63431752D01*
X69234025Y-63302187D01*
X69234024Y-63302186D01*
X69234022Y-63302185D01*
X69171096Y-63270122D01*
X69037606Y-63202104D01*
X69037603Y-63202103D01*
X68827952Y-63133985D01*
X68719086Y-63116742D01*
X68610222Y-63099500D01*
X68389778Y-63099500D01*
X68317201Y-63110995D01*
X68172047Y-63133985D01*
X67962396Y-63202103D01*
X67962393Y-63202104D01*
X67765974Y-63302187D01*
X67587641Y-63431752D01*
X67587636Y-63431756D01*
X67431756Y-63587636D01*
X67431752Y-63587641D01*
X67350318Y-63699727D01*
X67294989Y-63742393D01*
X67225375Y-63748372D01*
X67163580Y-63715767D01*
X67149682Y-63699727D01*
X67068247Y-63587641D01*
X67068243Y-63587636D01*
X66912363Y-63431756D01*
X66912358Y-63431752D01*
X66734025Y-63302187D01*
X66734024Y-63302186D01*
X66734022Y-63302185D01*
X66671096Y-63270122D01*
X66537606Y-63202104D01*
X66537603Y-63202103D01*
X66327952Y-63133985D01*
X66219086Y-63116742D01*
X66110222Y-63099500D01*
X65889778Y-63099500D01*
X65817201Y-63110995D01*
X65672047Y-63133985D01*
X65462396Y-63202103D01*
X65462393Y-63202104D01*
X65265974Y-63302187D01*
X65087641Y-63431752D01*
X65087635Y-63431757D01*
X65066207Y-63453185D01*
X65004884Y-63486669D01*
X64935192Y-63481683D01*
X64879259Y-63439810D01*
X64862346Y-63408834D01*
X64843355Y-63357915D01*
X64843350Y-63357906D01*
X64757190Y-63242812D01*
X64757187Y-63242809D01*
X64642093Y-63156649D01*
X64642086Y-63156645D01*
X64507379Y-63106403D01*
X64507372Y-63106401D01*
X64447844Y-63100000D01*
X63750000Y-63100000D01*
X63750000Y-64066988D01*
X63692993Y-64034075D01*
X63565826Y-64000000D01*
X63434174Y-64000000D01*
X63307007Y-64034075D01*
X63250000Y-64066988D01*
X63250000Y-63100000D01*
X62552155Y-63100000D01*
X62492627Y-63106401D01*
X62492620Y-63106403D01*
X62357913Y-63156645D01*
X62357906Y-63156649D01*
X62242812Y-63242809D01*
X62242809Y-63242812D01*
X62156649Y-63357906D01*
X62156645Y-63357913D01*
X62106403Y-63492620D01*
X62106401Y-63492627D01*
X62100000Y-63552155D01*
X62100000Y-64250000D01*
X63066988Y-64250000D01*
X63034075Y-64307007D01*
X63000000Y-64434174D01*
X63000000Y-64565826D01*
X63034075Y-64692993D01*
X63066988Y-64750000D01*
X62100000Y-64750000D01*
X62100000Y-65447844D01*
X62106401Y-65507372D01*
X62106403Y-65507379D01*
X62156645Y-65642086D01*
X62156649Y-65642093D01*
X62242809Y-65757187D01*
X62242812Y-65757190D01*
X62357906Y-65843350D01*
X62357913Y-65843354D01*
X62492620Y-65893596D01*
X62492627Y-65893598D01*
X62552155Y-65899999D01*
X62552172Y-65900000D01*
X63250000Y-65900000D01*
X63250000Y-64933012D01*
X63307007Y-64965925D01*
X63434174Y-65000000D01*
X63565826Y-65000000D01*
X63692993Y-64965925D01*
X63750000Y-64933012D01*
X63750000Y-65900000D01*
X64447828Y-65900000D01*
X64447844Y-65899999D01*
X64507372Y-65893598D01*
X64507379Y-65893596D01*
X64642086Y-65843354D01*
X64642093Y-65843350D01*
X64757187Y-65757190D01*
X64757190Y-65757187D01*
X64843350Y-65642093D01*
X64843353Y-65642088D01*
X64862345Y-65591166D01*
X64904215Y-65535232D01*
X64969679Y-65510813D01*
X65037952Y-65525663D01*
X65066209Y-65546816D01*
X65087636Y-65568243D01*
X65087641Y-65568247D01*
X65243192Y-65681260D01*
X65265978Y-65697815D01*
X65394375Y-65763237D01*
X65462393Y-65797895D01*
X65462396Y-65797896D01*
X65529525Y-65819707D01*
X65672049Y-65866015D01*
X65889778Y-65900500D01*
X65889779Y-65900500D01*
X66110221Y-65900500D01*
X66110222Y-65900500D01*
X66327951Y-65866015D01*
X66537606Y-65797895D01*
X66734022Y-65697815D01*
X66912365Y-65568242D01*
X67068242Y-65412365D01*
X67149682Y-65300270D01*
X67205011Y-65257606D01*
X67274624Y-65251627D01*
X67336420Y-65284232D01*
X67350313Y-65300265D01*
X67431758Y-65412365D01*
X67587636Y-65568243D01*
X67587641Y-65568247D01*
X67743192Y-65681260D01*
X67765978Y-65697815D01*
X67894375Y-65763237D01*
X67962393Y-65797895D01*
X67962396Y-65797896D01*
X68029525Y-65819707D01*
X68172049Y-65866015D01*
X68389778Y-65900500D01*
X68389779Y-65900500D01*
X68610221Y-65900500D01*
X68610222Y-65900500D01*
X68827951Y-65866015D01*
X68898205Y-65843187D01*
X68968044Y-65841192D01*
X69024203Y-65873438D01*
X72963181Y-69812416D01*
X72996666Y-69873739D01*
X72999500Y-69900097D01*
X72999500Y-90699902D01*
X72979815Y-90766941D01*
X72963181Y-90787583D01*
X66818481Y-96932282D01*
X66818479Y-96932285D01*
X66768361Y-97019094D01*
X66768359Y-97019096D01*
X66739425Y-97069209D01*
X66739424Y-97069210D01*
X66739423Y-97069215D01*
X66698499Y-97221943D01*
X66698499Y-97221945D01*
X66698499Y-97390046D01*
X66698500Y-97390059D01*
X66698500Y-115083710D01*
X66678815Y-115150749D01*
X66626011Y-115196504D01*
X66556853Y-115206448D01*
X66536183Y-115201641D01*
X66327953Y-115133985D01*
X66327954Y-115133985D01*
X66164654Y-115108121D01*
X66110222Y-115099500D01*
X65889778Y-115099500D01*
X65846232Y-115106397D01*
X65672045Y-115133985D01*
X65463817Y-115201641D01*
X65393976Y-115203636D01*
X65334143Y-115167555D01*
X65303316Y-115104854D01*
X65301500Y-115083710D01*
X65301500Y-82052155D01*
X66330000Y-82052155D01*
X66330000Y-82750000D01*
X67354722Y-82750000D01*
X67310667Y-82826306D01*
X67280000Y-82940756D01*
X67280000Y-83059244D01*
X67310667Y-83173694D01*
X67354722Y-83250000D01*
X66330000Y-83250000D01*
X66330000Y-83947844D01*
X66336401Y-84007372D01*
X66336403Y-84007379D01*
X66386645Y-84142086D01*
X66386649Y-84142093D01*
X66472809Y-84257187D01*
X66472812Y-84257190D01*
X66587906Y-84343350D01*
X66587913Y-84343354D01*
X66722620Y-84393596D01*
X66722627Y-84393598D01*
X66782155Y-84399999D01*
X66782172Y-84400000D01*
X67480000Y-84400000D01*
X67480000Y-83375277D01*
X67556306Y-83419333D01*
X67670756Y-83450000D01*
X67789244Y-83450000D01*
X67903694Y-83419333D01*
X67980000Y-83375277D01*
X67980000Y-84400000D01*
X68677828Y-84400000D01*
X68677844Y-84399999D01*
X68737372Y-84393598D01*
X68737379Y-84393596D01*
X68872086Y-84343354D01*
X68872093Y-84343350D01*
X68987187Y-84257190D01*
X68987190Y-84257187D01*
X69073350Y-84142093D01*
X69073354Y-84142086D01*
X69103213Y-84062031D01*
X69145084Y-84006097D01*
X69210548Y-83981680D01*
X69278821Y-83996531D01*
X69307076Y-84017683D01*
X69357636Y-84068243D01*
X69357641Y-84068247D01*
X69513192Y-84181260D01*
X69535978Y-84197815D01*
X69652501Y-84257187D01*
X69732393Y-84297895D01*
X69732396Y-84297896D01*
X69824483Y-84327816D01*
X69942049Y-84366015D01*
X70159778Y-84400500D01*
X70159779Y-84400500D01*
X70380221Y-84400500D01*
X70380222Y-84400500D01*
X70597951Y-84366015D01*
X70807606Y-84297895D01*
X71004022Y-84197815D01*
X71182365Y-84068242D01*
X71338242Y-83912365D01*
X71467815Y-83734022D01*
X71567895Y-83537606D01*
X71636015Y-83327951D01*
X71670500Y-83110222D01*
X71670500Y-82889778D01*
X71636015Y-82672049D01*
X71601955Y-82567221D01*
X71567896Y-82462396D01*
X71567895Y-82462393D01*
X71524005Y-82376256D01*
X71467815Y-82265978D01*
X71389091Y-82157623D01*
X71338247Y-82087641D01*
X71338243Y-82087636D01*
X71182363Y-81931756D01*
X71182358Y-81931752D01*
X71004025Y-81802187D01*
X71004024Y-81802186D01*
X71004022Y-81802185D01*
X70941096Y-81770122D01*
X70807606Y-81702104D01*
X70807603Y-81702103D01*
X70597952Y-81633985D01*
X70439066Y-81608820D01*
X70380222Y-81599500D01*
X70159778Y-81599500D01*
X70100934Y-81608820D01*
X69942047Y-81633985D01*
X69732396Y-81702103D01*
X69732393Y-81702104D01*
X69535974Y-81802187D01*
X69357641Y-81931752D01*
X69357636Y-81931756D01*
X69307075Y-81982317D01*
X69245752Y-82015801D01*
X69176060Y-82010816D01*
X69120127Y-81968945D01*
X69103213Y-81937968D01*
X69073354Y-81857913D01*
X69073350Y-81857906D01*
X68987190Y-81742812D01*
X68987187Y-81742809D01*
X68872093Y-81656649D01*
X68872086Y-81656645D01*
X68737379Y-81606403D01*
X68737372Y-81606401D01*
X68677844Y-81600000D01*
X67980000Y-81600000D01*
X67980000Y-82624722D01*
X67903694Y-82580667D01*
X67789244Y-82550000D01*
X67670756Y-82550000D01*
X67556306Y-82580667D01*
X67480000Y-82624722D01*
X67480000Y-81600000D01*
X66782155Y-81600000D01*
X66722627Y-81606401D01*
X66722620Y-81606403D01*
X66587913Y-81656645D01*
X66587906Y-81656649D01*
X66472812Y-81742809D01*
X66472809Y-81742812D01*
X66386649Y-81857906D01*
X66386645Y-81857913D01*
X66336403Y-81992620D01*
X66336401Y-81992627D01*
X66330000Y-82052155D01*
X65301500Y-82052155D01*
X65301500Y-74571945D01*
X65301500Y-74571943D01*
X65260577Y-74419216D01*
X65260577Y-74419215D01*
X65226722Y-74360577D01*
X65181520Y-74282284D01*
X65069716Y-74170480D01*
X65069715Y-74170479D01*
X65065385Y-74166149D01*
X65065374Y-74166139D01*
X54083757Y-63184522D01*
X54050272Y-63123199D01*
X54053507Y-63058523D01*
X54067246Y-63016243D01*
X54100500Y-62806287D01*
X54100500Y-62593713D01*
X54067246Y-62383757D01*
X54001557Y-62181588D01*
X53905051Y-61992184D01*
X53905049Y-61992181D01*
X53905048Y-61992179D01*
X53780109Y-61820213D01*
X53629786Y-61669890D01*
X53457820Y-61544951D01*
X53457115Y-61544591D01*
X53449054Y-61540485D01*
X53398259Y-61492512D01*
X53381463Y-61424692D01*
X53403999Y-61358556D01*
X53449054Y-61319515D01*
X53457816Y-61315051D01*
X53479789Y-61299086D01*
X53629786Y-61190109D01*
X53629788Y-61190106D01*
X53629792Y-61190104D01*
X53780104Y-61039792D01*
X53780106Y-61039788D01*
X53780109Y-61039786D01*
X53889086Y-60889789D01*
X53905051Y-60867816D01*
X54001557Y-60678412D01*
X54067246Y-60476243D01*
X54100500Y-60266287D01*
X54100500Y-60053713D01*
X54067246Y-59843757D01*
X54001557Y-59641588D01*
X53905051Y-59452184D01*
X53905049Y-59452181D01*
X53905048Y-59452179D01*
X53780109Y-59280213D01*
X53629786Y-59129890D01*
X53457820Y-59004951D01*
X53457115Y-59004591D01*
X53449054Y-59000485D01*
X53398259Y-58952512D01*
X53381463Y-58884692D01*
X53403999Y-58818556D01*
X53449054Y-58779515D01*
X53457816Y-58775051D01*
X53566397Y-58696163D01*
X53629786Y-58650109D01*
X53629788Y-58650106D01*
X53629792Y-58650104D01*
X53780104Y-58499792D01*
X53780106Y-58499788D01*
X53780109Y-58499786D01*
X53905048Y-58327820D01*
X53905047Y-58327820D01*
X53905051Y-58327816D01*
X54001557Y-58138412D01*
X54067246Y-57936243D01*
X54100500Y-57726287D01*
X54100500Y-57513713D01*
X54067246Y-57303757D01*
X54001557Y-57101588D01*
X53905051Y-56912184D01*
X53905049Y-56912181D01*
X53905048Y-56912179D01*
X53780109Y-56740213D01*
X53657944Y-56618048D01*
X59339500Y-56618048D01*
X59339500Y-57381951D01*
X59366013Y-57583333D01*
X59371334Y-57623744D01*
X59432727Y-57852869D01*
X59434456Y-57859320D01*
X59434459Y-57859330D01*
X59527786Y-58084640D01*
X59527791Y-58084651D01*
X59649727Y-58295848D01*
X59649738Y-58295864D01*
X59798199Y-58489343D01*
X59798205Y-58489350D01*
X59970649Y-58661794D01*
X59970656Y-58661800D01*
X60031079Y-58708164D01*
X60164144Y-58810268D01*
X60164151Y-58810272D01*
X60375348Y-58932208D01*
X60375353Y-58932210D01*
X60375356Y-58932212D01*
X60600679Y-59025544D01*
X60836256Y-59088666D01*
X61078056Y-59120500D01*
X61078063Y-59120500D01*
X61321937Y-59120500D01*
X61321944Y-59120500D01*
X61563744Y-59088666D01*
X61799321Y-59025544D01*
X62024644Y-58932212D01*
X62235856Y-58810268D01*
X62429345Y-58661799D01*
X62601799Y-58489345D01*
X62750268Y-58295856D01*
X62872212Y-58084644D01*
X62965544Y-57859321D01*
X63028666Y-57623744D01*
X63060500Y-57381944D01*
X63060500Y-56618056D01*
X63060499Y-56618048D01*
X68939500Y-56618048D01*
X68939500Y-57381951D01*
X68966013Y-57583333D01*
X68971334Y-57623744D01*
X69032727Y-57852869D01*
X69034456Y-57859320D01*
X69034459Y-57859330D01*
X69127786Y-58084640D01*
X69127791Y-58084651D01*
X69249727Y-58295848D01*
X69249738Y-58295864D01*
X69398199Y-58489343D01*
X69398205Y-58489350D01*
X69570649Y-58661794D01*
X69570656Y-58661800D01*
X69631079Y-58708164D01*
X69764144Y-58810268D01*
X69764151Y-58810272D01*
X69975348Y-58932208D01*
X69975353Y-58932210D01*
X69975356Y-58932212D01*
X70200679Y-59025544D01*
X70436256Y-59088666D01*
X70678056Y-59120500D01*
X70678063Y-59120500D01*
X70921937Y-59120500D01*
X70921944Y-59120500D01*
X71163744Y-59088666D01*
X71399321Y-59025544D01*
X71624644Y-58932212D01*
X71835856Y-58810268D01*
X72029345Y-58661799D01*
X72201799Y-58489345D01*
X72350268Y-58295856D01*
X72472212Y-58084644D01*
X72565544Y-57859321D01*
X72628666Y-57623744D01*
X72660500Y-57381944D01*
X72660500Y-56618056D01*
X72628666Y-56376256D01*
X72565544Y-56140679D01*
X72565539Y-56140669D01*
X72565538Y-56140663D01*
X72547164Y-56096303D01*
X72490617Y-55959789D01*
X72472212Y-55915356D01*
X72472209Y-55915351D01*
X72472208Y-55915348D01*
X72350272Y-55704151D01*
X72350268Y-55704144D01*
X72201799Y-55510655D01*
X72201794Y-55510649D01*
X72029350Y-55338205D01*
X72029343Y-55338199D01*
X71835864Y-55189738D01*
X71835862Y-55189736D01*
X71835856Y-55189732D01*
X71835851Y-55189729D01*
X71835848Y-55189727D01*
X71624651Y-55067791D01*
X71624640Y-55067786D01*
X71399330Y-54974459D01*
X71399323Y-54974457D01*
X71399321Y-54974456D01*
X71163744Y-54911334D01*
X71123333Y-54906013D01*
X70921951Y-54879500D01*
X70921944Y-54879500D01*
X70678056Y-54879500D01*
X70678048Y-54879500D01*
X70447896Y-54909801D01*
X70436256Y-54911334D01*
X70200679Y-54974456D01*
X70200669Y-54974459D01*
X69975359Y-55067786D01*
X69975348Y-55067791D01*
X69764151Y-55189727D01*
X69764135Y-55189738D01*
X69570656Y-55338199D01*
X69570649Y-55338205D01*
X69398205Y-55510649D01*
X69398199Y-55510656D01*
X69249738Y-55704135D01*
X69249727Y-55704151D01*
X69127791Y-55915348D01*
X69127786Y-55915359D01*
X69034459Y-56140669D01*
X69034456Y-56140679D01*
X68973428Y-56368443D01*
X68971335Y-56376253D01*
X68971333Y-56376264D01*
X68939500Y-56618048D01*
X63060499Y-56618048D01*
X63028666Y-56376256D01*
X62965544Y-56140679D01*
X62965537Y-56140663D01*
X62899948Y-55982317D01*
X62872212Y-55915356D01*
X62872210Y-55915353D01*
X62872208Y-55915348D01*
X62750272Y-55704151D01*
X62750268Y-55704144D01*
X62601799Y-55510655D01*
X62601794Y-55510649D01*
X62429350Y-55338205D01*
X62429343Y-55338199D01*
X62235864Y-55189738D01*
X62235862Y-55189736D01*
X62235856Y-55189732D01*
X62235851Y-55189729D01*
X62235848Y-55189727D01*
X62024651Y-55067791D01*
X62024640Y-55067786D01*
X61799330Y-54974459D01*
X61799323Y-54974457D01*
X61799321Y-54974456D01*
X61563744Y-54911334D01*
X61523333Y-54906013D01*
X61321951Y-54879500D01*
X61321944Y-54879500D01*
X61078056Y-54879500D01*
X61078048Y-54879500D01*
X60847896Y-54909801D01*
X60836256Y-54911334D01*
X60600679Y-54974456D01*
X60600669Y-54974459D01*
X60375359Y-55067786D01*
X60375348Y-55067791D01*
X60164151Y-55189727D01*
X60164135Y-55189738D01*
X59970656Y-55338199D01*
X59970649Y-55338205D01*
X59798205Y-55510649D01*
X59798199Y-55510656D01*
X59649738Y-55704135D01*
X59649727Y-55704151D01*
X59527791Y-55915348D01*
X59527786Y-55915359D01*
X59434459Y-56140669D01*
X59434456Y-56140679D01*
X59373428Y-56368443D01*
X59371335Y-56376253D01*
X59371333Y-56376264D01*
X59339500Y-56618048D01*
X53657944Y-56618048D01*
X53629786Y-56589890D01*
X53457820Y-56464951D01*
X53452805Y-56462396D01*
X53449054Y-56460485D01*
X53398259Y-56412512D01*
X53381463Y-56344692D01*
X53403999Y-56278556D01*
X53449054Y-56239515D01*
X53457816Y-56235051D01*
X53564382Y-56157627D01*
X53629786Y-56110109D01*
X53629788Y-56110106D01*
X53629792Y-56110104D01*
X53780104Y-55959792D01*
X53780106Y-55959788D01*
X53780109Y-55959786D01*
X53854128Y-55857906D01*
X53905051Y-55787816D01*
X53905349Y-55787230D01*
X53925235Y-55748205D01*
X53973209Y-55697409D01*
X54035719Y-55680500D01*
X57323331Y-55680500D01*
X57323347Y-55680501D01*
X57330943Y-55680501D01*
X57489054Y-55680501D01*
X57489057Y-55680501D01*
X57641785Y-55639577D01*
X57711200Y-55599500D01*
X57778716Y-55560520D01*
X57890520Y-55448716D01*
X57890520Y-55448714D01*
X57900724Y-55438511D01*
X57900728Y-55438506D01*
X61163767Y-52175466D01*
X87187000Y-52175466D01*
X87187000Y-52424533D01*
X87219508Y-52671463D01*
X87283973Y-52912049D01*
X87379283Y-53142148D01*
X87379288Y-53142159D01*
X87503813Y-53357841D01*
X87503819Y-53357849D01*
X87578400Y-53455045D01*
X88296521Y-52736923D01*
X88387924Y-52873717D01*
X88513283Y-52999076D01*
X88650074Y-53090477D01*
X87931953Y-53808598D01*
X88029150Y-53883180D01*
X88029158Y-53883186D01*
X88244840Y-54007711D01*
X88244851Y-54007716D01*
X88474950Y-54103026D01*
X88715536Y-54167491D01*
X88962466Y-54200000D01*
X89211534Y-54200000D01*
X89458463Y-54167491D01*
X89699049Y-54103026D01*
X89929148Y-54007716D01*
X89929159Y-54007711D01*
X90144855Y-53883178D01*
X90242045Y-53808600D01*
X90242045Y-53808597D01*
X89523924Y-53090477D01*
X89660717Y-52999076D01*
X89786076Y-52873717D01*
X89877477Y-52736924D01*
X90595597Y-53455045D01*
X90595600Y-53455045D01*
X90670178Y-53357855D01*
X90794711Y-53142159D01*
X90794716Y-53142148D01*
X90890026Y-52912049D01*
X90954491Y-52671463D01*
X90987000Y-52424533D01*
X90987000Y-52175466D01*
X92013000Y-52175466D01*
X92013000Y-52424533D01*
X92045508Y-52671463D01*
X92109973Y-52912049D01*
X92205283Y-53142148D01*
X92205288Y-53142159D01*
X92329813Y-53357841D01*
X92329819Y-53357849D01*
X92404400Y-53455045D01*
X93122521Y-52736923D01*
X93213924Y-52873717D01*
X93339283Y-52999076D01*
X93476074Y-53090477D01*
X92757953Y-53808598D01*
X92855150Y-53883180D01*
X92855158Y-53883186D01*
X93070840Y-54007711D01*
X93070851Y-54007716D01*
X93300950Y-54103026D01*
X93541536Y-54167491D01*
X93788466Y-54200000D01*
X94037534Y-54200000D01*
X94284463Y-54167491D01*
X94525049Y-54103026D01*
X94755148Y-54007716D01*
X94755159Y-54007711D01*
X94970855Y-53883178D01*
X95068045Y-53808600D01*
X95068045Y-53808597D01*
X94349924Y-53090477D01*
X94486717Y-52999076D01*
X94612076Y-52873717D01*
X94703477Y-52736925D01*
X95421597Y-53455045D01*
X95421600Y-53455045D01*
X95496178Y-53357855D01*
X95620711Y-53142159D01*
X95620716Y-53142148D01*
X95716026Y-52912049D01*
X95780491Y-52671463D01*
X95813000Y-52424533D01*
X95813000Y-52175466D01*
X95780491Y-51928536D01*
X95716026Y-51687950D01*
X95620716Y-51457851D01*
X95620711Y-51457840D01*
X95496186Y-51242158D01*
X95496180Y-51242150D01*
X95421598Y-51144953D01*
X94703477Y-51863074D01*
X94612076Y-51726283D01*
X94486717Y-51600924D01*
X94349923Y-51509521D01*
X95068045Y-50791400D01*
X94970849Y-50716819D01*
X94970841Y-50716813D01*
X94755159Y-50592288D01*
X94755148Y-50592283D01*
X94525049Y-50496973D01*
X94284463Y-50432508D01*
X94037534Y-50400000D01*
X93788466Y-50400000D01*
X93541536Y-50432508D01*
X93300950Y-50496973D01*
X93070851Y-50592283D01*
X93070847Y-50592285D01*
X92855143Y-50716823D01*
X92757953Y-50791399D01*
X92757953Y-50791400D01*
X93476075Y-51509522D01*
X93339283Y-51600924D01*
X93213924Y-51726283D01*
X93122522Y-51863075D01*
X92404400Y-51144953D01*
X92404399Y-51144953D01*
X92329823Y-51242143D01*
X92205285Y-51457847D01*
X92205283Y-51457851D01*
X92109973Y-51687950D01*
X92045508Y-51928536D01*
X92013000Y-52175466D01*
X90987000Y-52175466D01*
X90954491Y-51928536D01*
X90890026Y-51687950D01*
X90794716Y-51457851D01*
X90794711Y-51457840D01*
X90670186Y-51242158D01*
X90670180Y-51242150D01*
X90595598Y-51144953D01*
X89877477Y-51863074D01*
X89786076Y-51726283D01*
X89660717Y-51600924D01*
X89523923Y-51509521D01*
X90242045Y-50791400D01*
X90144849Y-50716819D01*
X90144841Y-50716813D01*
X89929159Y-50592288D01*
X89929148Y-50592283D01*
X89699049Y-50496973D01*
X89458463Y-50432508D01*
X89211534Y-50400000D01*
X88962466Y-50400000D01*
X88715536Y-50432508D01*
X88474950Y-50496973D01*
X88244851Y-50592283D01*
X88244847Y-50592285D01*
X88029143Y-50716823D01*
X87931953Y-50791399D01*
X87931953Y-50791400D01*
X88650075Y-51509522D01*
X88513283Y-51600924D01*
X88387924Y-51726283D01*
X88296522Y-51863075D01*
X87578400Y-51144953D01*
X87578399Y-51144953D01*
X87503823Y-51242143D01*
X87379285Y-51457847D01*
X87379283Y-51457851D01*
X87283973Y-51687950D01*
X87219508Y-51928536D01*
X87187000Y-52175466D01*
X61163767Y-52175466D01*
X61745158Y-51594075D01*
X61806479Y-51560592D01*
X61871151Y-51563825D01*
X61885466Y-51568477D01*
X62087648Y-51600500D01*
X62087649Y-51600500D01*
X62292351Y-51600500D01*
X62292352Y-51600500D01*
X62494534Y-51568477D01*
X62689219Y-51505220D01*
X62871610Y-51412287D01*
X63035309Y-51293354D01*
X63037213Y-51291971D01*
X63037215Y-51291968D01*
X63037219Y-51291966D01*
X63181966Y-51147219D01*
X63181968Y-51147215D01*
X63181971Y-51147213D01*
X63234732Y-51074590D01*
X63302287Y-50981610D01*
X63395220Y-50799219D01*
X63458477Y-50604534D01*
X63490500Y-50402352D01*
X63490500Y-50197648D01*
X68509500Y-50197648D01*
X68509500Y-50402351D01*
X68541522Y-50604534D01*
X68604781Y-50799223D01*
X68697715Y-50981613D01*
X68818028Y-51147213D01*
X68962786Y-51291971D01*
X69090762Y-51384949D01*
X69128390Y-51412287D01*
X69244607Y-51471503D01*
X69310776Y-51505218D01*
X69310778Y-51505218D01*
X69310781Y-51505220D01*
X69415137Y-51539127D01*
X69505465Y-51568477D01*
X69606557Y-51584488D01*
X69707648Y-51600500D01*
X69707649Y-51600500D01*
X69912351Y-51600500D01*
X69912352Y-51600500D01*
X70114534Y-51568477D01*
X70309219Y-51505220D01*
X70491610Y-51412287D01*
X70655309Y-51293354D01*
X70657213Y-51291971D01*
X70657215Y-51291968D01*
X70657219Y-51291966D01*
X70801966Y-51147219D01*
X70801968Y-51147215D01*
X70801971Y-51147213D01*
X70854732Y-51074590D01*
X70922287Y-50981610D01*
X71015220Y-50799219D01*
X71078477Y-50604534D01*
X71110500Y-50402352D01*
X71110500Y-50197648D01*
X71078477Y-49995466D01*
X71015220Y-49800781D01*
X71015218Y-49800778D01*
X71015218Y-49800776D01*
X70960299Y-49692993D01*
X70922287Y-49618390D01*
X70908854Y-49599901D01*
X70801971Y-49452786D01*
X70657213Y-49308028D01*
X70491613Y-49187715D01*
X70491612Y-49187714D01*
X70491610Y-49187713D01*
X70434653Y-49158691D01*
X70309223Y-49094781D01*
X70114534Y-49031522D01*
X69939995Y-49003878D01*
X69912352Y-48999500D01*
X69707648Y-48999500D01*
X69683329Y-49003351D01*
X69505465Y-49031522D01*
X69310776Y-49094781D01*
X69128386Y-49187715D01*
X68962786Y-49308028D01*
X68818028Y-49452786D01*
X68697715Y-49618386D01*
X68604781Y-49800776D01*
X68541522Y-49995465D01*
X68509500Y-50197648D01*
X63490500Y-50197648D01*
X63458477Y-49995466D01*
X63395220Y-49800781D01*
X63395218Y-49800778D01*
X63395218Y-49800776D01*
X63340299Y-49692993D01*
X63302287Y-49618390D01*
X63288854Y-49599901D01*
X63181971Y-49452786D01*
X63037213Y-49308028D01*
X62871613Y-49187715D01*
X62871612Y-49187714D01*
X62871610Y-49187713D01*
X62814653Y-49158691D01*
X62689223Y-49094781D01*
X62494534Y-49031522D01*
X62319995Y-49003878D01*
X62292352Y-48999500D01*
X62087648Y-48999500D01*
X62063329Y-49003351D01*
X61885465Y-49031522D01*
X61690776Y-49094781D01*
X61508386Y-49187715D01*
X61342786Y-49308028D01*
X61198028Y-49452786D01*
X61077715Y-49618386D01*
X60984781Y-49800776D01*
X60921522Y-49995465D01*
X60889500Y-50197648D01*
X60889500Y-50402351D01*
X60921522Y-50604534D01*
X60926173Y-50618848D01*
X60928165Y-50688690D01*
X60895921Y-50744842D01*
X57197584Y-54443181D01*
X57136261Y-54476666D01*
X57109903Y-54479500D01*
X54035719Y-54479500D01*
X53968680Y-54459815D01*
X53925235Y-54411795D01*
X53905052Y-54372185D01*
X53905051Y-54372184D01*
X53780109Y-54200213D01*
X53629786Y-54049890D01*
X53457820Y-53924951D01*
X53457115Y-53924591D01*
X53449054Y-53920485D01*
X53398259Y-53872512D01*
X53381463Y-53804692D01*
X53403999Y-53738556D01*
X53449054Y-53699515D01*
X53457816Y-53695051D01*
X53479789Y-53679086D01*
X53629786Y-53570109D01*
X53629788Y-53570106D01*
X53629792Y-53570104D01*
X53780104Y-53419792D01*
X53780106Y-53419788D01*
X53780109Y-53419786D01*
X53905048Y-53247820D01*
X53905047Y-53247820D01*
X53905051Y-53247816D01*
X54001557Y-53058412D01*
X54067246Y-52856243D01*
X54100500Y-52646287D01*
X54100500Y-52433713D01*
X54067246Y-52223757D01*
X54001557Y-52021588D01*
X53905051Y-51832184D01*
X53905049Y-51832181D01*
X53905048Y-51832179D01*
X53780109Y-51660213D01*
X53666181Y-51546285D01*
X53632696Y-51484962D01*
X53637680Y-51415270D01*
X53679552Y-51359337D01*
X53710529Y-51342422D01*
X53842086Y-51293354D01*
X53842093Y-51293350D01*
X53957187Y-51207190D01*
X53957190Y-51207187D01*
X54043350Y-51092093D01*
X54043354Y-51092086D01*
X54093596Y-50957379D01*
X54093598Y-50957372D01*
X54099999Y-50897844D01*
X54100000Y-50897827D01*
X54100000Y-50250000D01*
X53183012Y-50250000D01*
X53215925Y-50192993D01*
X53250000Y-50065826D01*
X53250000Y-49934174D01*
X53215925Y-49807007D01*
X53183012Y-49750000D01*
X54100000Y-49750000D01*
X54100000Y-49102172D01*
X54099999Y-49102155D01*
X54093598Y-49042627D01*
X54093596Y-49042620D01*
X54043354Y-48907913D01*
X54043350Y-48907906D01*
X53957190Y-48792812D01*
X53957187Y-48792809D01*
X53842093Y-48706649D01*
X53842086Y-48706645D01*
X53707379Y-48656403D01*
X53707372Y-48656401D01*
X53647844Y-48650000D01*
X53000000Y-48650000D01*
X53000000Y-49566988D01*
X52942993Y-49534075D01*
X52815826Y-49500000D01*
X52684174Y-49500000D01*
X52557007Y-49534075D01*
X52500000Y-49566988D01*
X52500000Y-48650000D01*
X51852155Y-48650000D01*
X51792627Y-48656401D01*
X51792617Y-48656403D01*
X51667832Y-48702945D01*
X51598141Y-48707929D01*
X51536818Y-48674443D01*
X51503334Y-48613120D01*
X51500500Y-48586763D01*
X51500500Y-43124500D01*
X51520185Y-43057461D01*
X51572989Y-43011706D01*
X51624500Y-43000500D01*
X98375500Y-43000500D01*
X98442539Y-43020185D01*
G37*
%TD.AperFunction*%
%TA.AperFunction,Conductor*%
G36*
X98461920Y-144041708D02*
G01*
X98496277Y-144102547D01*
X98499500Y-144130633D01*
X98499500Y-144898639D01*
X98479815Y-144965678D01*
X98427011Y-145011433D01*
X98365771Y-145022257D01*
X98315269Y-145018282D01*
X97682962Y-145650590D01*
X97665925Y-145587007D01*
X97600099Y-145472993D01*
X97507007Y-145379901D01*
X97392993Y-145314075D01*
X97329409Y-145297037D01*
X97961716Y-144664728D01*
X97907547Y-144625373D01*
X97907547Y-144625372D01*
X97898500Y-144620763D01*
X97847706Y-144572788D01*
X97830912Y-144504966D01*
X97853451Y-144438832D01*
X97898508Y-144399793D01*
X97907816Y-144395051D01*
X97987007Y-144337515D01*
X98079786Y-144270109D01*
X98079788Y-144270106D01*
X98079792Y-144270104D01*
X98230104Y-144119792D01*
X98275181Y-144057747D01*
X98330511Y-144015082D01*
X98400124Y-144009103D01*
X98461920Y-144041708D01*
G37*
%TD.AperFunction*%
%TA.AperFunction,Conductor*%
G36*
X54305203Y-65104884D02*
G01*
X54311681Y-65110916D01*
X64064181Y-74863416D01*
X64097666Y-74924739D01*
X64100500Y-74951097D01*
X64100500Y-114976000D01*
X64080815Y-115043039D01*
X64028011Y-115088794D01*
X63976500Y-115100000D01*
X63750000Y-115100000D01*
X63750000Y-116066988D01*
X63692993Y-116034075D01*
X63565826Y-116000000D01*
X63434174Y-116000000D01*
X63307007Y-116034075D01*
X63250000Y-116066988D01*
X63250000Y-115100000D01*
X62552155Y-115100000D01*
X62492627Y-115106401D01*
X62492620Y-115106403D01*
X62357913Y-115156645D01*
X62357906Y-115156649D01*
X62242812Y-115242809D01*
X62242809Y-115242812D01*
X62156649Y-115357906D01*
X62156645Y-115357913D01*
X62106403Y-115492620D01*
X62106401Y-115492627D01*
X62100000Y-115552155D01*
X62100000Y-116250000D01*
X63066988Y-116250000D01*
X63034075Y-116307007D01*
X63000000Y-116434174D01*
X63000000Y-116565826D01*
X63034075Y-116692993D01*
X63066988Y-116750000D01*
X62100000Y-116750000D01*
X62100000Y-117447844D01*
X62106401Y-117507372D01*
X62106403Y-117507379D01*
X62156645Y-117642086D01*
X62156649Y-117642093D01*
X62242809Y-117757187D01*
X62242812Y-117757190D01*
X62357906Y-117843350D01*
X62357913Y-117843354D01*
X62492620Y-117893596D01*
X62492627Y-117893598D01*
X62552155Y-117899999D01*
X62552172Y-117900000D01*
X63250000Y-117900000D01*
X63250000Y-116933012D01*
X63307007Y-116965925D01*
X63434174Y-117000000D01*
X63565826Y-117000000D01*
X63692993Y-116965925D01*
X63750000Y-116933012D01*
X63750000Y-117900000D01*
X63976500Y-117900000D01*
X63985185Y-117902550D01*
X63994147Y-117901262D01*
X64018187Y-117912240D01*
X64043539Y-117919685D01*
X64049466Y-117926525D01*
X64057703Y-117930287D01*
X64071992Y-117952521D01*
X64089294Y-117972489D01*
X64091581Y-117983003D01*
X64095477Y-117989065D01*
X64100500Y-118024000D01*
X64100500Y-118114330D01*
X64100499Y-118114348D01*
X64100499Y-118280054D01*
X64100498Y-118280054D01*
X64141423Y-118432785D01*
X64170358Y-118482900D01*
X64170359Y-118482904D01*
X64170360Y-118482904D01*
X64220479Y-118569714D01*
X64220481Y-118569717D01*
X64339349Y-118688585D01*
X64339355Y-118688590D01*
X73860181Y-128209416D01*
X73893666Y-128270739D01*
X73896500Y-128297097D01*
X73896500Y-134697902D01*
X73876815Y-134764941D01*
X73824011Y-134810696D01*
X73754853Y-134820640D01*
X73691297Y-134791615D01*
X73684819Y-134785583D01*
X64703614Y-125804378D01*
X54083756Y-115184521D01*
X54050272Y-115123199D01*
X54053507Y-115058523D01*
X54067246Y-115016243D01*
X54100500Y-114806287D01*
X54100500Y-114593713D01*
X54067246Y-114383757D01*
X54001557Y-114181588D01*
X53905051Y-113992184D01*
X53905049Y-113992181D01*
X53905048Y-113992179D01*
X53780109Y-113820213D01*
X53629786Y-113669890D01*
X53457820Y-113544951D01*
X53457115Y-113544591D01*
X53449054Y-113540485D01*
X53398259Y-113492512D01*
X53381463Y-113424692D01*
X53403999Y-113358556D01*
X53449054Y-113319515D01*
X53457816Y-113315051D01*
X53479789Y-113299086D01*
X53629786Y-113190109D01*
X53629788Y-113190106D01*
X53629792Y-113190104D01*
X53780104Y-113039792D01*
X53780106Y-113039788D01*
X53780109Y-113039786D01*
X53889086Y-112889789D01*
X53905051Y-112867816D01*
X54001557Y-112678412D01*
X54067246Y-112476243D01*
X54100500Y-112266287D01*
X54100500Y-112053713D01*
X54067246Y-111843757D01*
X54001557Y-111641588D01*
X53905051Y-111452184D01*
X53905049Y-111452181D01*
X53905048Y-111452179D01*
X53780109Y-111280213D01*
X53629786Y-111129890D01*
X53457820Y-111004951D01*
X53457115Y-111004591D01*
X53449054Y-111000485D01*
X53398259Y-110952512D01*
X53381463Y-110884692D01*
X53403999Y-110818556D01*
X53449054Y-110779515D01*
X53457816Y-110775051D01*
X53559383Y-110701259D01*
X53629786Y-110650109D01*
X53629788Y-110650106D01*
X53629792Y-110650104D01*
X53780104Y-110499792D01*
X53780106Y-110499788D01*
X53780109Y-110499786D01*
X53905048Y-110327820D01*
X53905047Y-110327820D01*
X53905051Y-110327816D01*
X54001557Y-110138412D01*
X54067246Y-109936243D01*
X54100500Y-109726287D01*
X54100500Y-109513713D01*
X54067246Y-109303757D01*
X54001557Y-109101588D01*
X53905051Y-108912184D01*
X53905049Y-108912181D01*
X53905048Y-108912179D01*
X53780109Y-108740213D01*
X53657944Y-108618048D01*
X59339500Y-108618048D01*
X59339500Y-109381951D01*
X59366013Y-109583333D01*
X59371334Y-109623744D01*
X59432727Y-109852869D01*
X59434456Y-109859320D01*
X59434459Y-109859330D01*
X59527786Y-110084640D01*
X59527791Y-110084651D01*
X59649727Y-110295848D01*
X59649738Y-110295864D01*
X59798199Y-110489343D01*
X59798205Y-110489350D01*
X59970649Y-110661794D01*
X59970656Y-110661800D01*
X60031079Y-110708164D01*
X60164144Y-110810268D01*
X60164151Y-110810272D01*
X60375348Y-110932208D01*
X60375353Y-110932210D01*
X60375356Y-110932212D01*
X60600679Y-111025544D01*
X60836256Y-111088666D01*
X61078056Y-111120500D01*
X61078063Y-111120500D01*
X61321937Y-111120500D01*
X61321944Y-111120500D01*
X61563744Y-111088666D01*
X61799321Y-111025544D01*
X62024644Y-110932212D01*
X62235856Y-110810268D01*
X62429345Y-110661799D01*
X62601799Y-110489345D01*
X62750268Y-110295856D01*
X62872212Y-110084644D01*
X62965544Y-109859321D01*
X63028666Y-109623744D01*
X63060500Y-109381944D01*
X63060500Y-108618056D01*
X63028666Y-108376256D01*
X62965544Y-108140679D01*
X62952881Y-108110109D01*
X62899948Y-107982317D01*
X62872212Y-107915356D01*
X62872210Y-107915353D01*
X62872208Y-107915348D01*
X62750272Y-107704151D01*
X62750268Y-107704144D01*
X62601799Y-107510655D01*
X62601794Y-107510649D01*
X62429350Y-107338205D01*
X62429343Y-107338199D01*
X62235864Y-107189738D01*
X62235862Y-107189736D01*
X62235856Y-107189732D01*
X62235851Y-107189729D01*
X62235848Y-107189727D01*
X62024651Y-107067791D01*
X62024640Y-107067786D01*
X61799330Y-106974459D01*
X61799323Y-106974457D01*
X61799321Y-106974456D01*
X61563744Y-106911334D01*
X61523333Y-106906013D01*
X61321951Y-106879500D01*
X61321944Y-106879500D01*
X61078056Y-106879500D01*
X61078048Y-106879500D01*
X60847896Y-106909801D01*
X60836256Y-106911334D01*
X60600679Y-106974456D01*
X60600669Y-106974459D01*
X60375359Y-107067786D01*
X60375348Y-107067791D01*
X60164151Y-107189727D01*
X60164135Y-107189738D01*
X59970656Y-107338199D01*
X59970649Y-107338205D01*
X59798205Y-107510649D01*
X59798199Y-107510656D01*
X59649738Y-107704135D01*
X59649727Y-107704151D01*
X59527791Y-107915348D01*
X59527786Y-107915359D01*
X59434459Y-108140669D01*
X59434456Y-108140679D01*
X59373428Y-108368443D01*
X59371335Y-108376253D01*
X59371333Y-108376264D01*
X59339500Y-108618048D01*
X53657944Y-108618048D01*
X53629786Y-108589890D01*
X53457820Y-108464951D01*
X53452805Y-108462396D01*
X53449054Y-108460485D01*
X53398259Y-108412512D01*
X53381463Y-108344692D01*
X53403999Y-108278556D01*
X53449054Y-108239515D01*
X53457816Y-108235051D01*
X53564382Y-108157627D01*
X53629786Y-108110109D01*
X53629788Y-108110106D01*
X53629792Y-108110104D01*
X53780104Y-107959792D01*
X53780106Y-107959788D01*
X53780109Y-107959786D01*
X53854128Y-107857906D01*
X53905051Y-107787816D01*
X53905349Y-107787230D01*
X53925235Y-107748205D01*
X53973209Y-107697409D01*
X54035719Y-107680500D01*
X57323331Y-107680500D01*
X57323347Y-107680501D01*
X57330943Y-107680501D01*
X57489054Y-107680501D01*
X57489057Y-107680501D01*
X57641785Y-107639577D01*
X57711200Y-107599500D01*
X57778716Y-107560520D01*
X57890520Y-107448716D01*
X57890520Y-107448714D01*
X57900724Y-107438511D01*
X57900728Y-107438506D01*
X61745158Y-103594075D01*
X61806479Y-103560592D01*
X61871151Y-103563825D01*
X61885466Y-103568477D01*
X62087648Y-103600500D01*
X62087649Y-103600500D01*
X62292351Y-103600500D01*
X62292352Y-103600500D01*
X62494534Y-103568477D01*
X62689219Y-103505220D01*
X62871610Y-103412287D01*
X63035309Y-103293354D01*
X63037213Y-103291971D01*
X63037215Y-103291968D01*
X63037219Y-103291966D01*
X63181966Y-103147219D01*
X63181968Y-103147215D01*
X63181971Y-103147213D01*
X63234732Y-103074590D01*
X63302287Y-102981610D01*
X63395220Y-102799219D01*
X63458477Y-102604534D01*
X63490500Y-102402352D01*
X63490500Y-102197648D01*
X63458477Y-101995466D01*
X63395220Y-101800781D01*
X63395218Y-101800778D01*
X63395218Y-101800776D01*
X63340299Y-101692993D01*
X63302287Y-101618390D01*
X63288854Y-101599901D01*
X63181971Y-101452786D01*
X63037213Y-101308028D01*
X62871613Y-101187715D01*
X62871612Y-101187714D01*
X62871610Y-101187713D01*
X62814653Y-101158691D01*
X62689223Y-101094781D01*
X62494534Y-101031522D01*
X62319995Y-101003878D01*
X62292352Y-100999500D01*
X62087648Y-100999500D01*
X62063329Y-101003351D01*
X61885465Y-101031522D01*
X61690776Y-101094781D01*
X61508386Y-101187715D01*
X61342786Y-101308028D01*
X61198028Y-101452786D01*
X61077715Y-101618386D01*
X60984781Y-101800776D01*
X60921522Y-101995465D01*
X60889500Y-102197648D01*
X60889500Y-102402351D01*
X60921522Y-102604534D01*
X60926173Y-102618848D01*
X60928165Y-102688690D01*
X60895921Y-102744842D01*
X57197584Y-106443181D01*
X57136261Y-106476666D01*
X57109903Y-106479500D01*
X54035719Y-106479500D01*
X53968680Y-106459815D01*
X53925235Y-106411795D01*
X53905052Y-106372185D01*
X53905051Y-106372184D01*
X53780109Y-106200213D01*
X53629786Y-106049890D01*
X53457820Y-105924951D01*
X53457115Y-105924591D01*
X53449054Y-105920485D01*
X53398259Y-105872512D01*
X53381463Y-105804692D01*
X53403999Y-105738556D01*
X53449054Y-105699515D01*
X53457816Y-105695051D01*
X53479789Y-105679086D01*
X53629786Y-105570109D01*
X53629788Y-105570106D01*
X53629792Y-105570104D01*
X53780104Y-105419792D01*
X53780106Y-105419788D01*
X53780109Y-105419786D01*
X53905048Y-105247820D01*
X53905047Y-105247820D01*
X53905051Y-105247816D01*
X54001557Y-105058412D01*
X54067246Y-104856243D01*
X54100500Y-104646287D01*
X54100500Y-104433713D01*
X54067246Y-104223757D01*
X54001557Y-104021588D01*
X53905051Y-103832184D01*
X53905049Y-103832181D01*
X53905048Y-103832179D01*
X53780109Y-103660213D01*
X53666181Y-103546285D01*
X53632696Y-103484962D01*
X53637680Y-103415270D01*
X53679552Y-103359337D01*
X53710529Y-103342422D01*
X53842086Y-103293354D01*
X53842093Y-103293350D01*
X53957187Y-103207190D01*
X53957190Y-103207187D01*
X54043350Y-103092093D01*
X54043354Y-103092086D01*
X54093596Y-102957379D01*
X54093598Y-102957372D01*
X54099999Y-102897844D01*
X54100000Y-102897827D01*
X54100000Y-102250000D01*
X53183012Y-102250000D01*
X53215925Y-102192993D01*
X53250000Y-102065826D01*
X53250000Y-101934174D01*
X53215925Y-101807007D01*
X53183012Y-101750000D01*
X54100000Y-101750000D01*
X54100000Y-101102172D01*
X54099999Y-101102155D01*
X54093598Y-101042627D01*
X54093596Y-101042620D01*
X54043354Y-100907913D01*
X54043350Y-100907906D01*
X53957190Y-100792812D01*
X53957187Y-100792809D01*
X53842093Y-100706649D01*
X53842086Y-100706645D01*
X53707379Y-100656403D01*
X53707372Y-100656401D01*
X53647844Y-100650000D01*
X53000000Y-100650000D01*
X53000000Y-101566988D01*
X52942993Y-101534075D01*
X52815826Y-101500000D01*
X52684174Y-101500000D01*
X52557007Y-101534075D01*
X52500000Y-101566988D01*
X52500000Y-100650000D01*
X51852155Y-100650000D01*
X51792627Y-100656401D01*
X51792617Y-100656403D01*
X51667832Y-100702945D01*
X51598141Y-100707929D01*
X51536818Y-100674443D01*
X51503334Y-100613120D01*
X51500500Y-100586763D01*
X51500500Y-87575441D01*
X56599500Y-87575441D01*
X56599500Y-87824558D01*
X56599501Y-87824575D01*
X56632017Y-88071561D01*
X56696498Y-88312207D01*
X56791830Y-88542361D01*
X56791837Y-88542376D01*
X56916400Y-88758126D01*
X57068060Y-88955774D01*
X57068066Y-88955781D01*
X57244218Y-89131933D01*
X57244225Y-89131939D01*
X57441873Y-89283599D01*
X57657623Y-89408162D01*
X57657638Y-89408169D01*
X57734027Y-89439810D01*
X57887793Y-89503502D01*
X58128435Y-89567982D01*
X58375435Y-89600500D01*
X58375442Y-89600500D01*
X58624558Y-89600500D01*
X58624565Y-89600500D01*
X58871565Y-89567982D01*
X59112207Y-89503502D01*
X59335781Y-89410894D01*
X59342361Y-89408169D01*
X59342361Y-89408168D01*
X59342373Y-89408164D01*
X59558127Y-89283599D01*
X59755776Y-89131938D01*
X59931938Y-88955776D01*
X60083599Y-88758127D01*
X60208164Y-88542373D01*
X60303502Y-88312207D01*
X60367982Y-88071565D01*
X60400500Y-87824565D01*
X60400500Y-87575435D01*
X60367982Y-87328435D01*
X60303502Y-87087793D01*
X60212386Y-86867820D01*
X60208169Y-86857638D01*
X60208162Y-86857623D01*
X60083599Y-86641873D01*
X59931939Y-86444225D01*
X59931933Y-86444218D01*
X59755781Y-86268066D01*
X59755774Y-86268060D01*
X59558126Y-86116400D01*
X59342376Y-85991837D01*
X59342361Y-85991830D01*
X59112207Y-85896498D01*
X58871565Y-85832018D01*
X58871564Y-85832017D01*
X58871561Y-85832017D01*
X58624575Y-85799501D01*
X58624570Y-85799500D01*
X58624565Y-85799500D01*
X58375435Y-85799500D01*
X58375429Y-85799500D01*
X58375424Y-85799501D01*
X58128438Y-85832017D01*
X57887792Y-85896498D01*
X57657638Y-85991830D01*
X57657623Y-85991837D01*
X57441873Y-86116400D01*
X57244225Y-86268060D01*
X57244218Y-86268066D01*
X57068066Y-86444218D01*
X57068060Y-86444225D01*
X56916400Y-86641873D01*
X56791837Y-86857623D01*
X56791830Y-86857638D01*
X56696498Y-87087792D01*
X56632017Y-87328438D01*
X56599501Y-87575424D01*
X56599500Y-87575441D01*
X51500500Y-87575441D01*
X51500500Y-82875441D01*
X56599500Y-82875441D01*
X56599500Y-83124558D01*
X56599501Y-83124575D01*
X56632017Y-83371561D01*
X56696498Y-83612207D01*
X56791830Y-83842361D01*
X56791837Y-83842376D01*
X56916400Y-84058126D01*
X57068060Y-84255774D01*
X57068066Y-84255781D01*
X57244218Y-84431933D01*
X57244225Y-84431939D01*
X57441873Y-84583599D01*
X57657623Y-84708162D01*
X57657638Y-84708169D01*
X57756825Y-84749253D01*
X57887793Y-84803502D01*
X58128435Y-84867982D01*
X58375435Y-84900500D01*
X58375442Y-84900500D01*
X58624558Y-84900500D01*
X58624565Y-84900500D01*
X58871565Y-84867982D01*
X59112207Y-84803502D01*
X59342373Y-84708164D01*
X59558127Y-84583599D01*
X59755776Y-84431938D01*
X59931938Y-84255776D01*
X60083599Y-84058127D01*
X60208164Y-83842373D01*
X60303502Y-83612207D01*
X60367982Y-83371565D01*
X60400500Y-83124565D01*
X60400500Y-82875435D01*
X60367982Y-82628435D01*
X60303502Y-82387793D01*
X60208164Y-82157627D01*
X60198373Y-82140669D01*
X60083599Y-81941873D01*
X59931939Y-81744225D01*
X59931933Y-81744218D01*
X59755781Y-81568066D01*
X59755774Y-81568060D01*
X59558126Y-81416400D01*
X59342376Y-81291837D01*
X59342361Y-81291830D01*
X59112207Y-81196498D01*
X58871561Y-81132017D01*
X58624575Y-81099501D01*
X58624570Y-81099500D01*
X58624565Y-81099500D01*
X58375435Y-81099500D01*
X58375429Y-81099500D01*
X58375424Y-81099501D01*
X58128438Y-81132017D01*
X57887792Y-81196498D01*
X57657638Y-81291830D01*
X57657623Y-81291837D01*
X57441873Y-81416400D01*
X57244225Y-81568060D01*
X57244218Y-81568066D01*
X57068066Y-81744218D01*
X57068060Y-81744225D01*
X56916400Y-81941873D01*
X56791837Y-82157623D01*
X56791830Y-82157638D01*
X56696498Y-82387792D01*
X56632017Y-82628438D01*
X56599501Y-82875424D01*
X56599500Y-82875441D01*
X51500500Y-82875441D01*
X51500500Y-78175441D01*
X56599500Y-78175441D01*
X56599500Y-78424558D01*
X56599501Y-78424575D01*
X56632017Y-78671561D01*
X56696498Y-78912207D01*
X56791830Y-79142361D01*
X56791837Y-79142376D01*
X56916400Y-79358126D01*
X57068060Y-79555774D01*
X57068066Y-79555781D01*
X57244218Y-79731933D01*
X57244225Y-79731939D01*
X57441873Y-79883599D01*
X57657623Y-80008162D01*
X57657638Y-80008169D01*
X57756825Y-80049253D01*
X57887793Y-80103502D01*
X58128435Y-80167982D01*
X58375435Y-80200500D01*
X58375442Y-80200500D01*
X58624558Y-80200500D01*
X58624565Y-80200500D01*
X58871565Y-80167982D01*
X59112207Y-80103502D01*
X59342373Y-80008164D01*
X59558127Y-79883599D01*
X59755776Y-79731938D01*
X59931938Y-79555776D01*
X60083599Y-79358127D01*
X60208164Y-79142373D01*
X60303502Y-78912207D01*
X60367982Y-78671565D01*
X60400500Y-78424565D01*
X60400500Y-78175435D01*
X60367982Y-77928435D01*
X60303502Y-77687793D01*
X60227877Y-77505218D01*
X60208169Y-77457638D01*
X60208162Y-77457623D01*
X60083599Y-77241873D01*
X59931939Y-77044225D01*
X59931933Y-77044218D01*
X59755781Y-76868066D01*
X59755774Y-76868060D01*
X59558126Y-76716400D01*
X59342376Y-76591837D01*
X59342361Y-76591830D01*
X59112207Y-76496498D01*
X58871561Y-76432017D01*
X58624575Y-76399501D01*
X58624570Y-76399500D01*
X58624565Y-76399500D01*
X58375435Y-76399500D01*
X58375429Y-76399500D01*
X58375424Y-76399501D01*
X58128438Y-76432017D01*
X57887792Y-76496498D01*
X57657638Y-76591830D01*
X57657623Y-76591837D01*
X57441873Y-76716400D01*
X57244225Y-76868060D01*
X57244218Y-76868066D01*
X57068066Y-77044218D01*
X57068060Y-77044225D01*
X56916400Y-77241873D01*
X56791837Y-77457623D01*
X56791830Y-77457638D01*
X56696498Y-77687792D01*
X56632017Y-77928438D01*
X56599501Y-78175424D01*
X56599500Y-78175441D01*
X51500500Y-78175441D01*
X51500500Y-68665295D01*
X51520185Y-68598256D01*
X51572989Y-68552501D01*
X51634230Y-68541677D01*
X51634728Y-68541716D01*
X52267037Y-67909408D01*
X52284075Y-67972993D01*
X52349901Y-68087007D01*
X52442993Y-68180099D01*
X52557007Y-68245925D01*
X52620590Y-68262962D01*
X51988282Y-68895269D01*
X51988282Y-68895270D01*
X52042449Y-68934624D01*
X52231782Y-69031095D01*
X52433870Y-69096757D01*
X52643754Y-69130000D01*
X52856246Y-69130000D01*
X53066127Y-69096757D01*
X53066130Y-69096757D01*
X53268217Y-69031095D01*
X53457554Y-68934622D01*
X53511716Y-68895270D01*
X53511717Y-68895270D01*
X52879408Y-68262962D01*
X52942993Y-68245925D01*
X53057007Y-68180099D01*
X53150099Y-68087007D01*
X53215925Y-67972993D01*
X53232962Y-67909408D01*
X53865270Y-68541717D01*
X53865270Y-68541716D01*
X53904622Y-68487554D01*
X54001095Y-68298217D01*
X54066757Y-68096130D01*
X54066757Y-68096127D01*
X54100000Y-67886246D01*
X54100000Y-67673753D01*
X54066757Y-67463872D01*
X54066757Y-67463869D01*
X54001095Y-67261782D01*
X53904624Y-67072449D01*
X53865270Y-67018282D01*
X53865269Y-67018282D01*
X53232962Y-67650590D01*
X53215925Y-67587007D01*
X53150099Y-67472993D01*
X53057007Y-67379901D01*
X52942993Y-67314075D01*
X52879409Y-67297037D01*
X53511716Y-66664728D01*
X53457550Y-66625375D01*
X53447954Y-66620486D01*
X53397157Y-66572512D01*
X53380361Y-66504692D01*
X53402897Y-66438556D01*
X53447954Y-66399514D01*
X53457554Y-66394622D01*
X53511716Y-66355270D01*
X53511717Y-66355270D01*
X52879408Y-65722962D01*
X52942993Y-65705925D01*
X53057007Y-65640099D01*
X53150099Y-65547007D01*
X53215925Y-65432993D01*
X53232962Y-65369408D01*
X53865270Y-66001717D01*
X53865270Y-66001716D01*
X53904622Y-65947554D01*
X54001095Y-65758217D01*
X54066757Y-65556130D01*
X54066757Y-65556127D01*
X54100000Y-65346246D01*
X54100000Y-65198597D01*
X54119685Y-65131558D01*
X54172489Y-65085803D01*
X54241647Y-65075859D01*
X54305203Y-65104884D01*
G37*
%TD.AperFunction*%
%TA.AperFunction,Conductor*%
G36*
X95118703Y-79848385D02*
G01*
X95125181Y-79854417D01*
X95237349Y-79966585D01*
X95237355Y-79966590D01*
X95866241Y-80595476D01*
X95899726Y-80656799D01*
X95896492Y-80721473D01*
X95882753Y-80763757D01*
X95849500Y-80973713D01*
X95849500Y-81186286D01*
X95873561Y-81338205D01*
X95882754Y-81396243D01*
X95935393Y-81558249D01*
X95948444Y-81598414D01*
X96044951Y-81787820D01*
X96169890Y-81959786D01*
X96320213Y-82110109D01*
X96492182Y-82235050D01*
X96500946Y-82239516D01*
X96551742Y-82287491D01*
X96568536Y-82355312D01*
X96545998Y-82421447D01*
X96500946Y-82460484D01*
X96492182Y-82464949D01*
X96320213Y-82589890D01*
X96169890Y-82740213D01*
X96044951Y-82912179D01*
X95948444Y-83101585D01*
X95882753Y-83303760D01*
X95849500Y-83513713D01*
X95849500Y-83726286D01*
X95878971Y-83912363D01*
X95882754Y-83936243D01*
X95930971Y-84084640D01*
X95948444Y-84138414D01*
X96044951Y-84327820D01*
X96169890Y-84499786D01*
X96320213Y-84650109D01*
X96492182Y-84775050D01*
X96500946Y-84779516D01*
X96551742Y-84827491D01*
X96568536Y-84895312D01*
X96545998Y-84961447D01*
X96500946Y-85000484D01*
X96492182Y-85004949D01*
X96320213Y-85129890D01*
X96169890Y-85280213D01*
X96044951Y-85452179D01*
X95948444Y-85641585D01*
X95882753Y-85843760D01*
X95849500Y-86053713D01*
X95849500Y-86266286D01*
X95882753Y-86476239D01*
X95948444Y-86678414D01*
X96044951Y-86867820D01*
X96169890Y-87039786D01*
X96320213Y-87190109D01*
X96492182Y-87315050D01*
X96500946Y-87319516D01*
X96551742Y-87367491D01*
X96568536Y-87435312D01*
X96545998Y-87501447D01*
X96500946Y-87540484D01*
X96492182Y-87544949D01*
X96320213Y-87669890D01*
X96169890Y-87820213D01*
X96044951Y-87992179D01*
X95948444Y-88181585D01*
X95882753Y-88383760D01*
X95849500Y-88593713D01*
X95849500Y-88806286D01*
X95873177Y-88955781D01*
X95882754Y-89016243D01*
X95912048Y-89106401D01*
X95948444Y-89218414D01*
X96044951Y-89407820D01*
X96169890Y-89579786D01*
X96320213Y-89730109D01*
X96492182Y-89855050D01*
X96500946Y-89859516D01*
X96551742Y-89907491D01*
X96568536Y-89975312D01*
X96545998Y-90041447D01*
X96500946Y-90080484D01*
X96492182Y-90084949D01*
X96320213Y-90209890D01*
X96169890Y-90360213D01*
X96044951Y-90532179D01*
X95948444Y-90721585D01*
X95882753Y-90923760D01*
X95876075Y-90965925D01*
X95849500Y-91133713D01*
X95849500Y-91346287D01*
X95853053Y-91368717D01*
X95877910Y-91525663D01*
X95882754Y-91556243D01*
X95910648Y-91642093D01*
X95948444Y-91758414D01*
X96044951Y-91947820D01*
X96169890Y-92119786D01*
X96320213Y-92270109D01*
X96492179Y-92395048D01*
X96492181Y-92395049D01*
X96492184Y-92395051D01*
X96501493Y-92399794D01*
X96552290Y-92447766D01*
X96569087Y-92515587D01*
X96546552Y-92581722D01*
X96501505Y-92620760D01*
X96492446Y-92625376D01*
X96492440Y-92625380D01*
X96438282Y-92664727D01*
X96438282Y-92664728D01*
X97070591Y-93297037D01*
X97007007Y-93314075D01*
X96892993Y-93379901D01*
X96799901Y-93472993D01*
X96734075Y-93587007D01*
X96717037Y-93650591D01*
X96084728Y-93018282D01*
X96084727Y-93018282D01*
X96045380Y-93072439D01*
X95948904Y-93261782D01*
X95883242Y-93463869D01*
X95883242Y-93463872D01*
X95850000Y-93673753D01*
X95850000Y-93886246D01*
X95883242Y-94096127D01*
X95883242Y-94096130D01*
X95948904Y-94298217D01*
X96045375Y-94487550D01*
X96084728Y-94541716D01*
X96717037Y-93909408D01*
X96734075Y-93972993D01*
X96799901Y-94087007D01*
X96892993Y-94180099D01*
X97007007Y-94245925D01*
X97070590Y-94262962D01*
X96438282Y-94895269D01*
X96438282Y-94895270D01*
X96492449Y-94934624D01*
X96681782Y-95031095D01*
X96883870Y-95096757D01*
X97093754Y-95130000D01*
X97306246Y-95130000D01*
X97516127Y-95096757D01*
X97516130Y-95096757D01*
X97718217Y-95031095D01*
X97907554Y-94934622D01*
X97961716Y-94895270D01*
X97961717Y-94895270D01*
X97329408Y-94262962D01*
X97392993Y-94245925D01*
X97507007Y-94180099D01*
X97600099Y-94087007D01*
X97665925Y-93972993D01*
X97682962Y-93909408D01*
X98315269Y-94541716D01*
X98365771Y-94537742D01*
X98434148Y-94552106D01*
X98483905Y-94601157D01*
X98499500Y-94661360D01*
X98499500Y-126613568D01*
X98479815Y-126680607D01*
X98427011Y-126726362D01*
X98357853Y-126736306D01*
X98301190Y-126712835D01*
X98292334Y-126706206D01*
X98292328Y-126706202D01*
X98157482Y-126655908D01*
X98157483Y-126655908D01*
X98097883Y-126649501D01*
X98097881Y-126649500D01*
X98097873Y-126649500D01*
X98097865Y-126649500D01*
X97924500Y-126649500D01*
X97857461Y-126629815D01*
X97811706Y-126577011D01*
X97800500Y-126525500D01*
X97800500Y-112376059D01*
X97800501Y-112376046D01*
X97800501Y-112207945D01*
X97800501Y-112207943D01*
X97759577Y-112055215D01*
X97712443Y-111973577D01*
X97680520Y-111918284D01*
X97568716Y-111806480D01*
X97564385Y-111802149D01*
X97564374Y-111802139D01*
X95674901Y-109912666D01*
X95641416Y-109851343D01*
X95646400Y-109781651D01*
X95648000Y-109777583D01*
X95716502Y-109612207D01*
X95780982Y-109371565D01*
X95813500Y-109124565D01*
X95813500Y-108875435D01*
X95780982Y-108628435D01*
X95716502Y-108387793D01*
X95621164Y-108157627D01*
X95611373Y-108140669D01*
X95496599Y-107941873D01*
X95344939Y-107744225D01*
X95344933Y-107744218D01*
X95168781Y-107568066D01*
X95168774Y-107568060D01*
X94971126Y-107416400D01*
X94755376Y-107291837D01*
X94755361Y-107291830D01*
X94525207Y-107196498D01*
X94284561Y-107132017D01*
X94037575Y-107099501D01*
X94037570Y-107099500D01*
X94037565Y-107099500D01*
X93788435Y-107099500D01*
X93788429Y-107099500D01*
X93788424Y-107099501D01*
X93541438Y-107132017D01*
X93300792Y-107196498D01*
X93070638Y-107291830D01*
X93070623Y-107291837D01*
X92854873Y-107416400D01*
X92657225Y-107568060D01*
X92657218Y-107568066D01*
X92481066Y-107744218D01*
X92481060Y-107744225D01*
X92329400Y-107941873D01*
X92204837Y-108157623D01*
X92204830Y-108157638D01*
X92109498Y-108387792D01*
X92045017Y-108628438D01*
X92012501Y-108875424D01*
X92012500Y-108875441D01*
X92012500Y-109124558D01*
X92012501Y-109124575D01*
X92045017Y-109371561D01*
X92109498Y-109612207D01*
X92204830Y-109842361D01*
X92204837Y-109842376D01*
X92329400Y-110058126D01*
X92448249Y-110213014D01*
X92473443Y-110278183D01*
X92459404Y-110346628D01*
X92410590Y-110396618D01*
X92349873Y-110412500D01*
X91400097Y-110412500D01*
X91333058Y-110392815D01*
X91312416Y-110376181D01*
X90848901Y-109912666D01*
X90815416Y-109851343D01*
X90820400Y-109781651D01*
X90822000Y-109777583D01*
X90890502Y-109612207D01*
X90954982Y-109371565D01*
X90987500Y-109124565D01*
X90987500Y-108875435D01*
X90954982Y-108628435D01*
X90890502Y-108387793D01*
X90795164Y-108157627D01*
X90785373Y-108140669D01*
X90670599Y-107941873D01*
X90518939Y-107744225D01*
X90518933Y-107744218D01*
X90342781Y-107568066D01*
X90342774Y-107568060D01*
X90145126Y-107416400D01*
X89929376Y-107291837D01*
X89929361Y-107291830D01*
X89699207Y-107196498D01*
X89458561Y-107132017D01*
X89211575Y-107099501D01*
X89211570Y-107099500D01*
X89211565Y-107099500D01*
X88962435Y-107099500D01*
X88962429Y-107099500D01*
X88962424Y-107099501D01*
X88715438Y-107132017D01*
X88474792Y-107196498D01*
X88244638Y-107291830D01*
X88244623Y-107291837D01*
X88028873Y-107416400D01*
X87831225Y-107568060D01*
X87831218Y-107568066D01*
X87655066Y-107744218D01*
X87655060Y-107744225D01*
X87503400Y-107941873D01*
X87378837Y-108157623D01*
X87378830Y-108157638D01*
X87283498Y-108387792D01*
X87219017Y-108628438D01*
X87186501Y-108875424D01*
X87186500Y-108875441D01*
X87186500Y-109124558D01*
X87186501Y-109124575D01*
X87219017Y-109371561D01*
X87283498Y-109612207D01*
X87378830Y-109842361D01*
X87378837Y-109842376D01*
X87503400Y-110058126D01*
X87655060Y-110255774D01*
X87655066Y-110255781D01*
X87831218Y-110431933D01*
X87831225Y-110431939D01*
X88028875Y-110583601D01*
X88032250Y-110585856D01*
X88031264Y-110587330D01*
X88074502Y-110632655D01*
X88087740Y-110701259D01*
X88061787Y-110766129D01*
X88004882Y-110806671D01*
X87964299Y-110813500D01*
X84984098Y-110813500D01*
X84917059Y-110793815D01*
X84896417Y-110777181D01*
X84317048Y-110197812D01*
X83643437Y-109524202D01*
X83609953Y-109462880D01*
X83613187Y-109398205D01*
X83636015Y-109327951D01*
X83670500Y-109110222D01*
X83670500Y-108889778D01*
X83636015Y-108672049D01*
X83601955Y-108567221D01*
X83567896Y-108462396D01*
X83567895Y-108462393D01*
X83524005Y-108376256D01*
X83467815Y-108265978D01*
X83389091Y-108157623D01*
X83338247Y-108087641D01*
X83338243Y-108087636D01*
X83182363Y-107931756D01*
X83182358Y-107931752D01*
X83004025Y-107802187D01*
X83004024Y-107802186D01*
X83004022Y-107802185D01*
X82941096Y-107770122D01*
X82807606Y-107702104D01*
X82807603Y-107702103D01*
X82597952Y-107633985D01*
X82489086Y-107616742D01*
X82380222Y-107599500D01*
X82159778Y-107599500D01*
X82087201Y-107610995D01*
X81942047Y-107633985D01*
X81732396Y-107702103D01*
X81732393Y-107702104D01*
X81535974Y-107802187D01*
X81357641Y-107931752D01*
X81357636Y-107931756D01*
X81307075Y-107982317D01*
X81245752Y-108015801D01*
X81176060Y-108010816D01*
X81120127Y-107968945D01*
X81103213Y-107937968D01*
X81073354Y-107857913D01*
X81073350Y-107857906D01*
X80987190Y-107742812D01*
X80987187Y-107742809D01*
X80872093Y-107656649D01*
X80872086Y-107656645D01*
X80737379Y-107606403D01*
X80737372Y-107606401D01*
X80677844Y-107600000D01*
X79980000Y-107600000D01*
X79980000Y-108624722D01*
X79903694Y-108580667D01*
X79789244Y-108550000D01*
X79670756Y-108550000D01*
X79556306Y-108580667D01*
X79480000Y-108624722D01*
X79480000Y-107600000D01*
X78782155Y-107600000D01*
X78722627Y-107606401D01*
X78722620Y-107606403D01*
X78587913Y-107656645D01*
X78587906Y-107656649D01*
X78472812Y-107742809D01*
X78472809Y-107742812D01*
X78386649Y-107857906D01*
X78386645Y-107857913D01*
X78336403Y-107992620D01*
X78336401Y-107992627D01*
X78330000Y-108052155D01*
X78330000Y-108750000D01*
X79354722Y-108750000D01*
X79310667Y-108826306D01*
X79280000Y-108940756D01*
X79280000Y-109059244D01*
X79310667Y-109173694D01*
X79354722Y-109250000D01*
X78330000Y-109250000D01*
X78330000Y-109947844D01*
X78336401Y-110007372D01*
X78336403Y-110007379D01*
X78386645Y-110142086D01*
X78386649Y-110142093D01*
X78472809Y-110257187D01*
X78472812Y-110257190D01*
X78587906Y-110343350D01*
X78587913Y-110343354D01*
X78722620Y-110393596D01*
X78722627Y-110393598D01*
X78782155Y-110399999D01*
X78782172Y-110400000D01*
X79480000Y-110400000D01*
X79480000Y-109375277D01*
X79556306Y-109419333D01*
X79670756Y-109450000D01*
X79789244Y-109450000D01*
X79903694Y-109419333D01*
X79980000Y-109375277D01*
X79980000Y-110400000D01*
X80677828Y-110400000D01*
X80677844Y-110399999D01*
X80737372Y-110393598D01*
X80737379Y-110393596D01*
X80872086Y-110343354D01*
X80872093Y-110343350D01*
X80987187Y-110257190D01*
X80987190Y-110257187D01*
X81073350Y-110142093D01*
X81073354Y-110142086D01*
X81103213Y-110062031D01*
X81145084Y-110006097D01*
X81210548Y-109981680D01*
X81278821Y-109996531D01*
X81307076Y-110017683D01*
X81357636Y-110068243D01*
X81357641Y-110068247D01*
X81513192Y-110181260D01*
X81535978Y-110197815D01*
X81652501Y-110257187D01*
X81732393Y-110297895D01*
X81732396Y-110297896D01*
X81799525Y-110319707D01*
X81942049Y-110366015D01*
X82159778Y-110400500D01*
X82159779Y-110400500D01*
X82380221Y-110400500D01*
X82380222Y-110400500D01*
X82597951Y-110366015D01*
X82668205Y-110343187D01*
X82738044Y-110341192D01*
X82794202Y-110373437D01*
X84315284Y-111894520D01*
X84315286Y-111894521D01*
X84315290Y-111894524D01*
X84452209Y-111973573D01*
X84452216Y-111973577D01*
X84604943Y-112014501D01*
X84604945Y-112014501D01*
X84770654Y-112014501D01*
X84770670Y-112014500D01*
X87796380Y-112014500D01*
X87863419Y-112034185D01*
X87909174Y-112086989D01*
X87919118Y-112156147D01*
X87890093Y-112219703D01*
X87871866Y-112236876D01*
X87831225Y-112268060D01*
X87831218Y-112268066D01*
X87655066Y-112444218D01*
X87655060Y-112444225D01*
X87503400Y-112641873D01*
X87378837Y-112857623D01*
X87378830Y-112857638D01*
X87283498Y-113087792D01*
X87219017Y-113328438D01*
X87186501Y-113575424D01*
X87186500Y-113575441D01*
X87186500Y-113824558D01*
X87186501Y-113824575D01*
X87208566Y-113992179D01*
X87219018Y-114071565D01*
X87220098Y-114075594D01*
X87283498Y-114312207D01*
X87378830Y-114542361D01*
X87378837Y-114542376D01*
X87503400Y-114758126D01*
X87655060Y-114955774D01*
X87655066Y-114955781D01*
X87831218Y-115131933D01*
X87831225Y-115131939D01*
X88028873Y-115283599D01*
X88244623Y-115408162D01*
X88244638Y-115408169D01*
X88343825Y-115449253D01*
X88474793Y-115503502D01*
X88715435Y-115567982D01*
X88962435Y-115600500D01*
X88962442Y-115600500D01*
X89211558Y-115600500D01*
X89211565Y-115600500D01*
X89458565Y-115567982D01*
X89699207Y-115503502D01*
X89929373Y-115408164D01*
X90145127Y-115283599D01*
X90342776Y-115131938D01*
X90518938Y-114955776D01*
X90670599Y-114758127D01*
X90795164Y-114542373D01*
X90890502Y-114312207D01*
X90954982Y-114071565D01*
X90987500Y-113824565D01*
X90987500Y-113575435D01*
X90954982Y-113328435D01*
X90890502Y-113087793D01*
X90799386Y-112867820D01*
X90795169Y-112857638D01*
X90795162Y-112857623D01*
X90670599Y-112641873D01*
X90518939Y-112444225D01*
X90518933Y-112444218D01*
X90342781Y-112268066D01*
X90342774Y-112268060D01*
X90302134Y-112236876D01*
X90260931Y-112180448D01*
X90256776Y-112110702D01*
X90290988Y-112049782D01*
X90352705Y-112017029D01*
X90377620Y-112014500D01*
X92622380Y-112014500D01*
X92689419Y-112034185D01*
X92735174Y-112086989D01*
X92745118Y-112156147D01*
X92716093Y-112219703D01*
X92697866Y-112236876D01*
X92657225Y-112268060D01*
X92657218Y-112268066D01*
X92481066Y-112444218D01*
X92481060Y-112444225D01*
X92329400Y-112641873D01*
X92204837Y-112857623D01*
X92204830Y-112857638D01*
X92109498Y-113087792D01*
X92045017Y-113328438D01*
X92012501Y-113575424D01*
X92012500Y-113575441D01*
X92012500Y-113824558D01*
X92012501Y-113824575D01*
X92045017Y-114071563D01*
X92045610Y-114074541D01*
X92045528Y-114075445D01*
X92045548Y-114075590D01*
X92045515Y-114075594D01*
X92039378Y-114144132D01*
X92011672Y-114186406D01*
X89934899Y-116263181D01*
X89873576Y-116296666D01*
X89847218Y-116299500D01*
X82365782Y-116299500D01*
X82298743Y-116279815D01*
X82278101Y-116263181D01*
X77537819Y-111522899D01*
X77504334Y-111461576D01*
X77501500Y-111435218D01*
X77501500Y-106865782D01*
X77521185Y-106798743D01*
X77537819Y-106778101D01*
X80140454Y-104175466D01*
X87187000Y-104175466D01*
X87187000Y-104424533D01*
X87219508Y-104671463D01*
X87283973Y-104912049D01*
X87379283Y-105142148D01*
X87379288Y-105142159D01*
X87503813Y-105357841D01*
X87503819Y-105357849D01*
X87578400Y-105455045D01*
X88296521Y-104736923D01*
X88387924Y-104873717D01*
X88513283Y-104999076D01*
X88650074Y-105090477D01*
X87931953Y-105808598D01*
X88029150Y-105883180D01*
X88029158Y-105883186D01*
X88244840Y-106007711D01*
X88244851Y-106007716D01*
X88474950Y-106103026D01*
X88715536Y-106167491D01*
X88962466Y-106200000D01*
X89211534Y-106200000D01*
X89458463Y-106167491D01*
X89699049Y-106103026D01*
X89929148Y-106007716D01*
X89929159Y-106007711D01*
X90144855Y-105883178D01*
X90242045Y-105808600D01*
X90242045Y-105808597D01*
X89523924Y-105090477D01*
X89660717Y-104999076D01*
X89786076Y-104873717D01*
X89877477Y-104736924D01*
X90595597Y-105455045D01*
X90595600Y-105455045D01*
X90670178Y-105357855D01*
X90794711Y-105142159D01*
X90794716Y-105142148D01*
X90890026Y-104912049D01*
X90954491Y-104671463D01*
X90987000Y-104424533D01*
X90987000Y-104175466D01*
X92013000Y-104175466D01*
X92013000Y-104424533D01*
X92045508Y-104671463D01*
X92109973Y-104912049D01*
X92205283Y-105142148D01*
X92205288Y-105142159D01*
X92329813Y-105357841D01*
X92329819Y-105357849D01*
X92404400Y-105455045D01*
X93122521Y-104736923D01*
X93213924Y-104873717D01*
X93339283Y-104999076D01*
X93476074Y-105090477D01*
X92757953Y-105808598D01*
X92855150Y-105883180D01*
X92855158Y-105883186D01*
X93070840Y-106007711D01*
X93070851Y-106007716D01*
X93300950Y-106103026D01*
X93541536Y-106167491D01*
X93788466Y-106200000D01*
X94037534Y-106200000D01*
X94284463Y-106167491D01*
X94525049Y-106103026D01*
X94755148Y-106007716D01*
X94755159Y-106007711D01*
X94970855Y-105883178D01*
X95068045Y-105808600D01*
X95068045Y-105808597D01*
X94349924Y-105090477D01*
X94486717Y-104999076D01*
X94612076Y-104873717D01*
X94703477Y-104736925D01*
X95421597Y-105455045D01*
X95421600Y-105455045D01*
X95496178Y-105357855D01*
X95620711Y-105142159D01*
X95620716Y-105142148D01*
X95716026Y-104912049D01*
X95780491Y-104671463D01*
X95813000Y-104424533D01*
X95813000Y-104175466D01*
X95780491Y-103928536D01*
X95716026Y-103687950D01*
X95620716Y-103457851D01*
X95620711Y-103457840D01*
X95496186Y-103242158D01*
X95496180Y-103242150D01*
X95421598Y-103144953D01*
X94703477Y-103863074D01*
X94612076Y-103726283D01*
X94486717Y-103600924D01*
X94349923Y-103509521D01*
X95068045Y-102791400D01*
X94970849Y-102716819D01*
X94970841Y-102716813D01*
X94755159Y-102592288D01*
X94755148Y-102592283D01*
X94525049Y-102496973D01*
X94284463Y-102432508D01*
X94037534Y-102400000D01*
X93788466Y-102400000D01*
X93541536Y-102432508D01*
X93300950Y-102496973D01*
X93070851Y-102592283D01*
X93070847Y-102592285D01*
X92855143Y-102716823D01*
X92757953Y-102791399D01*
X92757953Y-102791400D01*
X93476075Y-103509522D01*
X93339283Y-103600924D01*
X93213924Y-103726283D01*
X93122522Y-103863075D01*
X92404400Y-103144953D01*
X92404399Y-103144953D01*
X92329823Y-103242143D01*
X92205285Y-103457847D01*
X92205283Y-103457851D01*
X92109973Y-103687950D01*
X92045508Y-103928536D01*
X92013000Y-104175466D01*
X90987000Y-104175466D01*
X90954491Y-103928536D01*
X90890026Y-103687950D01*
X90794716Y-103457851D01*
X90794711Y-103457840D01*
X90670186Y-103242158D01*
X90670180Y-103242150D01*
X90595598Y-103144953D01*
X89877477Y-103863074D01*
X89786076Y-103726283D01*
X89660717Y-103600924D01*
X89523923Y-103509521D01*
X90242045Y-102791400D01*
X90144849Y-102716819D01*
X90144841Y-102716813D01*
X89929159Y-102592288D01*
X89929148Y-102592283D01*
X89699049Y-102496973D01*
X89458463Y-102432508D01*
X89211534Y-102400000D01*
X88962466Y-102400000D01*
X88715536Y-102432508D01*
X88474950Y-102496973D01*
X88244851Y-102592283D01*
X88244847Y-102592285D01*
X88029143Y-102716823D01*
X87931953Y-102791399D01*
X87931953Y-102791400D01*
X88650075Y-103509522D01*
X88513283Y-103600924D01*
X88387924Y-103726283D01*
X88296522Y-103863075D01*
X87578400Y-103144953D01*
X87578399Y-103144953D01*
X87503823Y-103242143D01*
X87379285Y-103457847D01*
X87379283Y-103457851D01*
X87283973Y-103687950D01*
X87219508Y-103928536D01*
X87187000Y-104175466D01*
X80140454Y-104175466D01*
X81564248Y-102751672D01*
X89555591Y-94760330D01*
X94690137Y-89625784D01*
X94690137Y-89625783D01*
X94690140Y-89625781D01*
X94799632Y-89461914D01*
X94875052Y-89279835D01*
X94913501Y-89086540D01*
X94913501Y-88889459D01*
X94913501Y-88884349D01*
X94913500Y-88884323D01*
X94913500Y-79942098D01*
X94933185Y-79875059D01*
X94985989Y-79829304D01*
X95055147Y-79819360D01*
X95118703Y-79848385D01*
G37*
%TD.AperFunction*%
%TA.AperFunction,Conductor*%
G36*
X52284075Y-117432993D02*
G01*
X52349901Y-117547007D01*
X52442993Y-117640099D01*
X52557007Y-117705925D01*
X52620590Y-117722962D01*
X51988282Y-118355269D01*
X51988282Y-118355270D01*
X52042452Y-118394626D01*
X52052048Y-118399516D01*
X52102844Y-118447491D01*
X52119638Y-118515312D01*
X52097100Y-118581447D01*
X52052051Y-118620483D01*
X52042440Y-118625380D01*
X51988282Y-118664727D01*
X51988282Y-118664728D01*
X52620591Y-119297037D01*
X52557007Y-119314075D01*
X52442993Y-119379901D01*
X52349901Y-119472993D01*
X52284075Y-119587007D01*
X52267037Y-119650591D01*
X51634727Y-119018281D01*
X51634228Y-119018321D01*
X51565851Y-119003956D01*
X51516095Y-118954905D01*
X51500500Y-118894703D01*
X51500500Y-118125295D01*
X51520185Y-118058256D01*
X51572989Y-118012501D01*
X51634230Y-118001677D01*
X51634728Y-118001716D01*
X52267037Y-117369408D01*
X52284075Y-117432993D01*
G37*
%TD.AperFunction*%
%TA.AperFunction,Conductor*%
G36*
X51705703Y-115565316D02*
G01*
X51718786Y-115578493D01*
X51719893Y-115579789D01*
X51870213Y-115730109D01*
X52042179Y-115855048D01*
X52042181Y-115855049D01*
X52042184Y-115855051D01*
X52051493Y-115859794D01*
X52102290Y-115907766D01*
X52119087Y-115975587D01*
X52096552Y-116041722D01*
X52051505Y-116080760D01*
X52042446Y-116085376D01*
X52042440Y-116085380D01*
X51988282Y-116124727D01*
X51988282Y-116124728D01*
X52620591Y-116757037D01*
X52557007Y-116774075D01*
X52442993Y-116839901D01*
X52349901Y-116932993D01*
X52284075Y-117047007D01*
X52267037Y-117110591D01*
X51634727Y-116478281D01*
X51634228Y-116478321D01*
X51565851Y-116463956D01*
X51516095Y-116414905D01*
X51500500Y-116354703D01*
X51500500Y-115659029D01*
X51520185Y-115591990D01*
X51572989Y-115546235D01*
X51642147Y-115536291D01*
X51705703Y-115565316D01*
G37*
%TD.AperFunction*%
%TA.AperFunction,Conductor*%
G36*
X98461920Y-92041708D02*
G01*
X98496277Y-92102547D01*
X98499500Y-92130633D01*
X98499500Y-92898639D01*
X98479815Y-92965678D01*
X98427011Y-93011433D01*
X98365771Y-93022257D01*
X98315269Y-93018282D01*
X97682962Y-93650590D01*
X97665925Y-93587007D01*
X97600099Y-93472993D01*
X97507007Y-93379901D01*
X97392993Y-93314075D01*
X97329409Y-93297037D01*
X97961716Y-92664728D01*
X97907547Y-92625373D01*
X97907547Y-92625372D01*
X97898500Y-92620763D01*
X97847706Y-92572788D01*
X97830912Y-92504966D01*
X97853451Y-92438832D01*
X97898508Y-92399793D01*
X97907816Y-92395051D01*
X97987007Y-92337515D01*
X98079786Y-92270109D01*
X98079788Y-92270106D01*
X98079792Y-92270104D01*
X98230104Y-92119792D01*
X98275181Y-92057747D01*
X98330511Y-92015082D01*
X98400124Y-92009103D01*
X98461920Y-92041708D01*
G37*
%TD.AperFunction*%
%TA.AperFunction,Conductor*%
G36*
X52284075Y-65432993D02*
G01*
X52349901Y-65547007D01*
X52442993Y-65640099D01*
X52557007Y-65705925D01*
X52620590Y-65722962D01*
X51988282Y-66355269D01*
X51988282Y-66355270D01*
X52042452Y-66394626D01*
X52052048Y-66399516D01*
X52102844Y-66447491D01*
X52119638Y-66515312D01*
X52097100Y-66581447D01*
X52052051Y-66620483D01*
X52042440Y-66625380D01*
X51988282Y-66664727D01*
X51988282Y-66664728D01*
X52620591Y-67297037D01*
X52557007Y-67314075D01*
X52442993Y-67379901D01*
X52349901Y-67472993D01*
X52284075Y-67587007D01*
X52267037Y-67650591D01*
X51634727Y-67018281D01*
X51634228Y-67018321D01*
X51565851Y-67003956D01*
X51516095Y-66954905D01*
X51500500Y-66894703D01*
X51500500Y-66125295D01*
X51520185Y-66058256D01*
X51572989Y-66012501D01*
X51634230Y-66001677D01*
X51634728Y-66001716D01*
X52267037Y-65369408D01*
X52284075Y-65432993D01*
G37*
%TD.AperFunction*%
%TA.AperFunction,Conductor*%
G36*
X51705703Y-63565316D02*
G01*
X51718786Y-63578493D01*
X51719893Y-63579789D01*
X51870213Y-63730109D01*
X52042179Y-63855048D01*
X52042181Y-63855049D01*
X52042184Y-63855051D01*
X52051493Y-63859794D01*
X52102290Y-63907766D01*
X52119087Y-63975587D01*
X52096552Y-64041722D01*
X52051505Y-64080760D01*
X52042446Y-64085376D01*
X52042440Y-64085380D01*
X51988282Y-64124727D01*
X51988282Y-64124728D01*
X52620591Y-64757037D01*
X52557007Y-64774075D01*
X52442993Y-64839901D01*
X52349901Y-64932993D01*
X52284075Y-65047007D01*
X52267037Y-65110591D01*
X51634727Y-64478281D01*
X51634228Y-64478321D01*
X51565851Y-64463956D01*
X51516095Y-64414905D01*
X51500500Y-64354703D01*
X51500500Y-63659029D01*
X51520185Y-63591990D01*
X51572989Y-63546235D01*
X51642147Y-63536291D01*
X51705703Y-63565316D01*
G37*
%TD.AperFunction*%
%TD*%
M02*
